<svg width="60" height="60" viewBox="0 0 60 60" fill="none" xmlns="http://www.w3.org/2000/svg">
<rect width="60" height="60" rx="8" fill="white"/>
<path d="M32.8535 26.3602L32.3172 29.2659C33.6308 29.4559 36.9066 30.2108 39.5015 31.7098C44.568 34.5611 44.1123 37.7383 43.5762 39.8565C43.0401 41.9746 41.4049 43.9568 38.3757 45.559C33.6577 48.1389 27.6261 47.0797 26.1249 46.5638C24.6238 46.0479 22.9618 43.7396 23.3907 39.5307C23.9053 34.5122 25.1599 30.325 25.7228 28.8585C25.1867 28.7952 23.841 28.6522 22.7473 28.587C22.1039 29.999 20.4419 36.3805 20.4419 39.9922C20.2811 46.6182 23.069 49.3336 27.6261 49.9854C32.1833 50.637 37.5447 50.0396 41.9409 46.9169C46.3372 43.794 47.0878 38.8246 46.7929 37.0052C46.4981 35.1858 46.1764 32.7689 42.6648 30.162C39.8553 28.0765 34.9533 26.7585 32.8535 26.3602Z" fill="black"/>
<path d="M31.8425 31.6885L31.5473 34.5721C32.2002 34.8079 33.5063 35.41 33.5063 35.9322C33.5331 36.9932 32.0304 37.8636 31.3057 38.2988C31.0642 38.0269 30.9032 36.5578 31.091 34.7081C31.4399 30.9269 32.3793 26.1119 33.6943 20.0456C35.0092 13.9793 34.8481 11.8575 34.3651 10.9054C33.882 9.9533 32.5402 9.13721 30.9032 10.9054C28.1551 13.9086 25.0707 21.4783 23.872 24.8878C24.5429 24.9422 26.1155 25.0673 27.0387 25.1326C27.7096 22.1947 30.7422 16.5636 31.6546 14.9043C31.8156 15.7747 30.2323 22.0859 29.5077 25.3775C28.7831 28.669 27.8707 35.4154 28.2732 38.2988C28.7294 41.5088 31.0642 41.8352 33.0769 40.6656C36.0558 38.843 36.8609 36.8299 36.4315 35.4154C35.723 32.9779 33.0769 31.9153 31.8425 31.6885Z" fill="black"/>
<path d="M27.7921 33.7247C27.8855 33.0336 28.019 31.7578 28.1927 30.8275L25.6821 30.1897L24.8541 32.9804C25.5752 33.1752 27.1724 33.5971 27.7921 33.7247Z" fill="black"/>
<path d="M21.2231 32.0552L22.0281 29.2274C21.2946 29.0008 19.613 28.4877 18.7543 28.2484C22.0603 28.0092 26.572 28.4206 28.4147 28.6563C28.4952 28.1034 28.7206 26.742 28.9782 25.7197C26.6436 25.2302 16.5002 25.0127 14.8096 25.8012C13.1191 26.5898 13.1728 28.5476 14.8096 29.5808C16.1192 30.4074 19.6309 31.5749 21.2231 32.0552Z" fill="black"/>
</svg>
