<svg width="60" height="60" viewBox="0 0 60 60" fill="none" xmlns="http://www.w3.org/2000/svg">
<g clip-path="url(#clip0_2075_6930)">
<rect width="60" height="60" rx="8" fill="white"/>
<rect width="60" height="60" fill="white"/>
<path d="M43.1228 12.3062C44.7274 10.6922 47.329 10.6922 48.9336 12.3062C50.5382 13.9201 50.5382 16.5369 48.9336 18.1509C47.329 19.7648 44.7274 19.7648 43.1228 18.1509C41.5182 16.5369 41.5182 13.9201 43.1228 12.3062Z" fill="black"/>
<path d="M12.7397 27.2066C12.7397 19.2179 19.1783 12.7417 27.1206 12.7417H35.7471C37.2807 12.7417 38.5809 13.876 38.7978 15.403L38.9412 16.4125C39.3931 19.5946 41.8788 22.0948 45.0424 22.5494L46.046 22.6936C47.5642 22.9118 48.6918 24.2156 48.6918 25.7581C48.6918 27.8417 48.6918 30.9553 48.6918 34.4368C48.6918 42.4255 42.2533 48.9039 34.311 48.9039H27.1206C19.1783 48.9039 12.7397 42.4278 12.7397 34.439V27.2066Z" fill="black"/>
<path d="M36.4885 25.8371V32.9951C36.4885 33.3335 36.5939 33.5937 36.8048 33.7499C37.0156 33.9321 37.2792 34.0102 37.6218 34.0102C38.2017 34.0102 38.6761 33.6198 39.0187 32.8129C39.335 32.006 39.5195 31.0429 39.5195 29.9497C39.5195 27.6851 38.7024 25.8371 37.0947 24.4315C35.487 23.0259 33.4839 22.3232 31.1119 22.3232C28.5553 22.3232 26.4205 23.1561 24.7074 24.7699C22.9942 26.3837 22.1508 28.44 22.1508 30.9128C22.1508 33.3855 22.9679 35.4158 24.6547 36.9775C26.3414 38.5393 28.4499 39.3201 31.0328 39.3201C32.8675 39.3201 34.6118 38.8196 36.2655 37.8185C36.83 37.4768 37.5807 37.6101 37.9335 38.1676C38.2377 38.6482 38.1417 39.2859 37.6726 39.6075C35.8254 40.8735 33.6326 41.5066 31.0592 41.5066C27.7383 41.5066 25.0236 40.5175 22.9152 38.5393C20.7803 36.5611 19.7261 34.0623 19.7261 30.9908C19.7261 27.8674 20.8067 25.2905 22.9942 23.2342C25.1818 21.1779 27.8964 20.1367 31.1119 20.1367C34.1428 20.1367 36.6994 21.0738 38.7815 22.8958C40.8636 24.7178 41.9179 27.0605 41.9179 29.8976C41.9179 30.6785 41.8124 31.4073 41.6543 32.0841C41.4698 32.7608 41.1799 33.4376 40.8109 34.0883C40.4419 34.739 39.8884 35.2596 39.1768 35.624C38.4389 36.0145 37.5955 36.1967 36.6203 36.1967C34.9862 36.1967 33.8793 35.6761 33.2994 34.6089C32.5087 35.65 31.3491 36.1706 29.8204 36.1706C28.3445 36.1706 27.1321 35.7021 26.1833 34.739C25.2345 33.802 24.7601 32.5005 24.7601 30.8867C24.7601 29.2729 25.2345 27.9975 26.2097 27.0344C27.1585 26.0974 28.3709 25.6028 29.8204 25.6028C31.0855 25.6028 32.1134 25.9933 32.9041 26.7481V25.8371H36.4885ZM30.8747 32.969C31.4282 32.969 31.9026 32.7868 32.2979 32.3964C32.6932 32.006 32.9041 31.4854 32.9041 30.8347C32.9041 30.21 32.6932 29.7154 32.2979 29.325C31.9026 28.9606 31.4282 28.7523 30.8747 28.7523C30.2948 28.7523 29.8204 28.9606 29.4251 29.325C29.0034 29.7154 28.8189 30.21 28.8189 30.8347C28.8189 31.4854 29.0034 32.006 29.4251 32.3964C29.8204 32.7868 30.2948 32.969 30.8747 32.969Z" fill="white"/>
</g>
<defs>
<clipPath id="clip0_2075_6930">
<rect width="60" height="60" rx="8" fill="white"/>
</clipPath>
</defs>
</svg>
