<svg xmlns="http://www.w3.org/2000/svg" width="550" height="550" viewBox="0 0 550 550" fill="none">
<rect width="550" height="550" fill="white"/>
<path d="M277.916 73.3682L457.855 177.256L458.954 384.753L277.916 488.92L97.9766 385.032V177.256L277.916 73.3682Z" fill="white"/>
<path d="M300.97 86.0342L280.178 130.299L334.485 209.122L377.412 130.168L300.97 86.0342Z" fill="#626262"/>
<path d="M291.234 80.4443L272.805 119.678L251.735 89.0964L278.978 73.3682L291.234 80.4443Z" fill="black"/>
<path d="M97.9922 195.773V177.107L241.01 94.5361L266.274 131.205L185.814 302.497L97.9922 195.773Z" fill="black"/>
<path d="M194.75 312.169L274.693 141.977L328.518 220.099L245.157 373.424L194.75 312.169Z" fill="#424242"/>
<path d="M136.62 407.343L180.991 314.01L97.9766 213.457V385.032L136.62 407.343Z" fill="black"/>
<path d="M205.458 446.443L239.417 383.983L189.507 323.331L147.418 412.934L205.458 446.443Z" fill="#626262"/>
<path d="M310.718 470.627L247.054 393.262L215.109 452.015L279.032 488.921L310.718 470.627Z" fill="black"/>
<path d="M446.942 391.977L433.182 372.006L411.062 412.693L446.942 391.977Z" fill="black"/>
<path d="M458.969 324.572L439.147 361.031L456.619 386.389L458.969 385.032V324.572Z" fill="black"/>
<path d="M387.062 135.742L341.572 219.412L432.06 350.745L458.969 301.25V177.258L387.062 135.742Z" fill="black"/>
<path d="M392.576 423.365L426.092 361.72L335.606 230.387L252.792 382.704L320.497 464.98L392.576 423.365Z" fill="black"/>
<path d="M272.908 119.603L280.149 130.186L274.573 142.441L266.218 131.301L272.908 119.603Z" fill="black"/>
<path d="M186.979 302.301L194.917 312.339L189.346 324.036L181.403 313.999L186.979 302.301Z" fill="black"/>
<path d="M245.051 372.499L252.848 382.59L247.278 393.11L239.335 384.251L245.051 372.499Z" fill="black"/>
<path d="M334.181 208.77L341.975 219.313L335.848 231.011L328.465 220.522L334.181 208.77Z" fill="black"/>
<path d="M432.22 350.258L439.457 360.801L433.33 372.499L426.088 361.358L432.22 350.258Z" fill="black"/>
</svg>