<svg width="10" height="10" viewBox="0 0 10 10" fill="none" xmlns="http://www.w3.org/2000/svg">
<path d="M5 0C2.23889 0 0 2.23889 0 5C0 7.76111 2.23889 10 5 10C7.76111 10 10 7.76111 10 5C10 2.23889 7.76111 0 5 0ZM7.00222 3.26222C7.43778 3.26222 7.79 3.61556 7.79 4.05C7.79 4.48444 7.43667 4.83778 7.00222 4.83778C6.56778 4.83778 6.21444 4.48444 6.21444 4.05C6.21444 3.61556 6.56667 3.26222 7.00222 3.26222ZM2.99667 3.26222C3.43222 3.26222 3.78444 3.61556 3.78444 4.05C3.78444 4.48444 3.43111 4.83778 2.99667 4.83778C2.56222 4.83778 2.20889 4.48444 2.20889 4.05C2.20889 3.61556 2.56111 3.26222 2.99667 3.26222ZM7.79111 6.47778H2.20778C2.08556 6.47778 1.98556 6.37778 1.98556 6.25556C1.98556 6.13333 2.08556 6.03333 2.20778 6.03333H7.79C7.91222 6.03333 8.01222 6.13333 8.01222 6.25556C8.01222 6.37778 7.91333 6.47778 7.79111 6.47778Z" fill="#D387FF"/>
</svg>
