<svg width="10" height="10" viewBox="0 0 10 10" fill="none" xmlns="http://www.w3.org/2000/svg">
<path d="M5 0C2.23889 0 0 2.23889 0 5C0 7.76111 2.23889 10 5 10C7.76111 10 10 7.76111 10 5C10 2.23889 7.76111 0 5 0ZM2.21 4.79C2.15667 4.67889 2.20333 4.54667 2.31333 4.49333L3.28222 4.02667L2.30556 3.51C2.19667 3.45222 2.15556 3.31778 2.21333 3.21C2.27111 3.10111 2.40556 3.06 2.51333 3.11778L3.87889 3.84C3.95333 3.87889 3.99889 3.95667 3.99667 4.04111C3.99556 4.12444 3.94667 4.20111 3.87111 4.23667L2.50556 4.89444C2.47444 4.90889 2.44111 4.91667 2.40889 4.91667C2.32778 4.91667 2.24889 4.87 2.21 4.79ZM7.34 7.65222H2.65889C2.39667 7.65222 2.20667 7.40111 2.27889 7.14889C2.56444 6.15556 3.67333 5.41556 4.99889 5.41556C6.32444 5.41556 7.43444 6.15556 7.71889 7.14889C7.79222 7.40111 7.60222 7.65222 7.34 7.65222ZM7.78889 4.79C7.75111 4.86889 7.67111 4.91556 7.58889 4.91556C7.55667 4.91556 7.52333 4.90889 7.49222 4.89333L6.12667 4.23556C6.05111 4.19889 6.00222 4.12333 6.00111 4.04C6 3.95667 6.04556 3.87889 6.11889 3.83889L7.48444 3.11667C7.59333 3.05889 7.72778 3.10111 7.78444 3.20889C7.84222 3.31778 7.8 3.45222 7.69222 3.50889L6.71556 4.02556L7.68444 4.49222C7.79556 4.54667 7.84222 4.68 7.78889 4.79Z" fill="#AD4428"/>
</svg>
