<svg width="10" height="10" viewBox="0 0 10 10" fill="none" xmlns="http://www.w3.org/2000/svg">
<path d="M5 0C2.23889 0 0 2.23889 0 5C0 7.76111 2.23889 10 5 10C7.76111 10 10 7.76111 10 5C10 2.23889 7.76111 0 5 0ZM1.98556 4.83778C1.98556 4.28111 2.43889 3.82778 2.99556 3.82778C3.55222 3.82778 4.00556 4.28111 4.00556 4.83778C4.00556 4.96 3.90556 5.06 3.78333 5.06C3.66111 5.06 3.56111 4.96 3.56111 4.83778C3.56111 4.52556 3.30667 4.27222 2.99556 4.27222C2.68333 4.27222 2.43 4.52667 2.43 4.83778C2.43 4.96 2.33 5.06 2.20778 5.06C2.08556 5.06 1.98556 4.96111 1.98556 4.83778ZM7.72 6.33C7.43444 7.32333 6.32556 8.06333 5 8.06333C3.67444 8.06333 2.56444 7.32333 2.28 6.33C2.20778 6.07778 2.39778 5.82667 2.66 5.82667H7.34111C7.60222 5.82667 7.79222 6.07778 7.72 6.33ZM7.79111 5.06C7.66889 5.06 7.56889 4.96 7.56889 4.83778C7.56889 4.52556 7.31444 4.27222 7.00333 4.27222C6.69222 4.27222 6.43778 4.52667 6.43778 4.83778C6.43778 4.96 6.33778 5.06 6.21556 5.06C6.09333 5.06 5.99333 4.96 5.99333 4.83778C5.99333 4.28111 6.44667 3.82778 7.00333 3.82778C7.56 3.82778 8.01333 4.28111 8.01333 4.83778C8.01333 4.96111 7.91333 5.06 7.79111 5.06Z" fill="#FACB7B"/>
</svg>
