<svg width="24" height="24" viewBox="0 0 24 24" fill="none" xmlns="http://www.w3.org/2000/svg">
<g clip-path="url(#clip0_870_1387)">
<path d="M19.5592 21H4.44077C4.19688 21 4 20.8113 4 20.5775V3.42247C4 3.1887 4.19688 3 4.44077 3H19.5592C19.8031 3 20 3.1887 20 3.42247V20.5775C20 20.8113 19.8002 21 19.5592 21ZM4.88154 20.1551H19.1185V3.84494H4.88154V20.1551Z" fill="#D387FF"/>
<path d="M16.853 14.3107H7.22064C6.97675 14.3107 6.77987 14.122 6.77987 13.8883C6.77987 13.6545 6.97675 13.4658 7.22064 13.4658H16.853C17.0969 13.4658 17.2937 13.6545 17.2937 13.8883C17.2937 14.122 17.0969 14.3107 16.853 14.3107ZM16.7149 17.9102H7.08547C6.84158 17.9102 6.6447 17.7215 6.6447 17.4877C6.6447 17.2539 6.84158 17.0652 7.08547 17.0652H16.7178C16.9617 17.0652 17.1586 17.2539 17.1586 17.4877C17.1586 17.7215 16.9588 17.9102 16.7149 17.9102ZM9.63019 10.9929C9.55379 10.9929 9.47739 10.9648 9.42156 10.9084L7.42928 8.97917C7.31468 8.86933 7.31468 8.69189 7.42928 8.58205L9.42156 6.65277C9.53616 6.54293 9.72129 6.54011 9.83589 6.64996C9.95049 6.7598 9.95343 6.93724 9.83883 7.04708L8.05223 8.77638L9.83883 10.5057C9.95343 10.6155 9.95343 10.7958 9.83589 10.9028C9.77712 10.9648 9.70366 10.9929 9.63019 10.9929ZM14.2936 10.9929C14.2142 10.9929 14.1378 10.962 14.079 10.9028C13.9674 10.7902 13.9733 10.6099 14.0908 10.5057L16.0067 8.78202L14.0908 7.05834C13.9733 6.95132 13.9674 6.77388 14.079 6.66122C14.1907 6.54856 14.3758 6.54293 14.4934 6.64996L16.6385 8.57923C16.6972 8.63275 16.7325 8.70597 16.7325 8.78483C16.7325 8.8637 16.7002 8.93692 16.6385 8.99044L14.4934 10.9197C14.4375 10.9676 14.3641 10.9929 14.2936 10.9929ZM10.929 10.9929C10.8908 10.9929 10.8526 10.9845 10.8144 10.9704C10.6645 10.9113 10.594 10.7451 10.6557 10.6015L12.4364 6.53167C12.4981 6.38803 12.6715 6.32043 12.8214 6.37958C12.9712 6.43872 13.0418 6.60489 12.9801 6.74853L11.1993 10.8211C11.1523 10.9282 11.0436 10.9929 10.929 10.9929Z" fill="#D387FF"/>
</g>
<defs>
<clipPath id="clip0_870_1387">
<rect width="24" height="24" fill="white"/>
</clipPath>
</defs>
</svg>
