<svg width="56" height="56" viewBox="0 0 56 56" fill="none" xmlns="http://www.w3.org/2000/svg">
<path fill-rule="evenodd" clip-rule="evenodd" d="M6.00019 6.19999C5.39267 6.19999 4.90019 6.69248 4.90019 7.29999V46.35C4.90019 46.9575 5.39267 47.45 6.00019 47.45H14.2502V51.1167H6.00019C3.36763 51.1167 1.23352 48.9826 1.23352 46.35V7.29999C1.23352 4.66743 3.36763 2.53333 6.00019 2.53333H23.6595C25.3168 2.53333 26.8551 3.39415 27.722 4.80664L29.3927 7.52884H41.9335C44.5661 7.52884 46.7002 9.66295 46.7002 12.2955V16.1H43.0335V12.2955C43.0335 11.688 42.541 11.1955 41.9335 11.1955H27.341L24.597 6.7246C24.3969 6.39864 24.0419 6.19999 23.6595 6.19999H6.00019Z" fill="url(#paint0_angular_2796_476)"/>
<path fill-rule="evenodd" clip-rule="evenodd" d="M15.9002 17.75C15.2927 17.75 14.8002 18.2425 14.8002 18.85V47.45H50.3669C50.9744 47.45 51.4669 46.9575 51.4669 46.35V18.85C51.4669 18.2425 50.9744 17.75 50.3669 17.75H15.9002ZM11.1335 18.85C11.1335 16.2174 13.2676 14.0833 15.9002 14.0833H50.3669C52.9994 14.0833 55.1335 16.2174 55.1335 18.85V46.35C55.1335 48.9826 52.9994 51.1167 50.3669 51.1167H11.1335V18.85Z" fill="url(#paint1_angular_2796_476)"/>
<path fill-rule="evenodd" clip-rule="evenodd" d="M31.8941 25.0157C32.5952 24.3725 33.6719 24.3725 34.3729 25.0157L39.5063 29.7254C40.2524 30.4099 40.3023 31.5696 39.6178 32.3157C38.9333 33.0618 37.7735 33.1117 37.0275 32.4272L34.9669 30.5367V38.8333C34.9669 39.8458 34.1461 40.6667 33.1335 40.6667C32.121 40.6667 31.3002 39.8458 31.3002 38.8333V30.5367L29.2396 32.4272C28.4935 33.1117 27.3338 33.0618 26.6493 32.3157C25.9648 31.5696 26.0147 30.4099 26.7608 29.7254L31.8941 25.0157Z" fill="url(#paint2_angular_2796_476)"/>
<defs>
<radialGradient id="paint0_angular_2796_476" cx="0" cy="0" r="1" gradientUnits="userSpaceOnUse" gradientTransform="translate(25.0669 31.5) rotate(90) scale(19.6167 21.7627)">
<stop stop-color="#D87CEE"/>
<stop offset="0.385" stop-color="#8B49E5"/>
<stop offset="0.73" stop-color="#D57EEF"/>
<stop offset="1" stop-color="#F9CA7E"/>
</radialGradient>
<radialGradient id="paint1_angular_2796_476" cx="0" cy="0" r="1" gradientUnits="userSpaceOnUse" gradientTransform="translate(25.0669 31.5) rotate(90) scale(19.6167 21.7627)">
<stop stop-color="#D87CEE"/>
<stop offset="0.385" stop-color="#8B49E5"/>
<stop offset="0.73" stop-color="#D57EEF"/>
<stop offset="1" stop-color="#F9CA7E"/>
</radialGradient>
<radialGradient id="paint2_angular_2796_476" cx="0" cy="0" r="1" gradientUnits="userSpaceOnUse" gradientTransform="translate(25.0669 31.5) rotate(90) scale(19.6167 21.7627)">
<stop stop-color="#D87CEE"/>
<stop offset="0.385" stop-color="#8B49E5"/>
<stop offset="0.73" stop-color="#D57EEF"/>
<stop offset="1" stop-color="#F9CA7E"/>
</radialGradient>
</defs>
</svg>
