<svg width="29" height="29" viewBox="0 0 29 29" fill="none" xmlns="http://www.w3.org/2000/svg">
<rect width="29" height="29" rx="14.5" fill="white"/>
<path d="M22.3448 6.44434L15.4868 11.546L16.7622 8.53518L22.3448 6.44434Z" fill="#E17726" stroke="#E17726" stroke-width="0.209085" stroke-linecap="round" stroke-linejoin="round"/>
<path d="M6.49609 6.44434L13.3123 11.5878L12.0996 8.53518L6.49609 6.44434Z" fill="#E27625" stroke="#E27625" stroke-width="0.209085" stroke-linecap="round" stroke-linejoin="round"/>
<path d="M19.8775 18.2573L18.0376 21.0591L21.9684 22.1463L23.0765 18.3201L19.8775 18.2573Z" fill="#E27625" stroke="#E27625" stroke-width="0.209085" stroke-linecap="round" stroke-linejoin="round"/>
<path d="M5.78516 18.3201L6.89331 22.1463L10.8032 21.0591L8.98415 18.2573L5.78516 18.3201Z" fill="#E27625" stroke="#E27625" stroke-width="0.209085" stroke-linecap="round" stroke-linejoin="round"/>
<path d="M10.5942 13.5321L9.50696 15.1839L13.375 15.3511L13.2496 11.1694L10.5942 13.5321Z" fill="#E27625" stroke="#E27625" stroke-width="0.209085" stroke-linecap="round" stroke-linejoin="round"/>
<path d="M18.2675 13.5324L15.5703 11.1279L15.4867 15.3514L19.3548 15.1842L18.2675 13.5324Z" fill="#E27625" stroke="#E27625" stroke-width="0.209085" stroke-linecap="round" stroke-linejoin="round"/>
<path d="M10.8032 21.0589L13.145 19.9299L11.1168 18.3408L10.8032 21.0589Z" fill="#E27625" stroke="#E27625" stroke-width="0.209085" stroke-linecap="round" stroke-linejoin="round"/>
<path d="M15.7168 19.9299L18.0376 21.0589L17.724 18.3408L15.7168 19.9299Z" fill="#E27625" stroke="#E27625" stroke-width="0.209085" stroke-linecap="round" stroke-linejoin="round"/>
<path d="M18.0376 21.0592L15.7168 19.9302L15.905 21.4356L15.8841 22.0837L18.0376 21.0592Z" fill="#D5BFB2" stroke="#D5BFB2" stroke-width="0.209085" stroke-linecap="round" stroke-linejoin="round"/>
<path d="M10.8032 21.0592L12.9777 22.0837L12.9568 21.4356L13.145 19.9302L10.8032 21.0592Z" fill="#D5BFB2" stroke="#D5BFB2" stroke-width="0.209085" stroke-linecap="round" stroke-linejoin="round"/>
<path d="M13.0196 17.3373L11.0751 16.7728L12.4341 16.1455L13.0196 17.3373Z" fill="#233447" stroke="#233447" stroke-width="0.209085" stroke-linecap="round" stroke-linejoin="round"/>
<path d="M15.8423 17.3373L16.4068 16.1455L17.7868 16.7728L15.8423 17.3373Z" fill="#233447" stroke="#233447" stroke-width="0.209085" stroke-linecap="round" stroke-linejoin="round"/>
<path d="M10.8033 21.0591L11.1378 18.2573L8.98425 18.3201L10.8033 21.0591Z" fill="#CC6228" stroke="#CC6228" stroke-width="0.209085" stroke-linecap="round" stroke-linejoin="round"/>
<path d="M17.724 18.2573L18.0376 21.0591L19.8776 18.3201L17.724 18.2573Z" fill="#CC6228" stroke="#CC6228" stroke-width="0.209085" stroke-linecap="round" stroke-linejoin="round"/>
<path d="M19.3549 15.1841L15.4868 15.3514L15.8423 17.3377L16.4068 16.1459L17.7867 16.7731L19.3549 15.1841Z" fill="#CC6228" stroke="#CC6228" stroke-width="0.209085" stroke-linecap="round" stroke-linejoin="round"/>
<path d="M11.0751 16.7731L12.4341 16.1459L13.0196 17.3377L13.375 15.3514L9.50696 15.1841L11.0751 16.7731Z" fill="#CC6228" stroke="#CC6228" stroke-width="0.209085" stroke-linecap="round" stroke-linejoin="round"/>
<path d="M9.50696 15.1841L11.1169 18.3413L11.0751 16.7731L9.50696 15.1841Z" fill="#E27525" stroke="#E27525" stroke-width="0.209085" stroke-linecap="round" stroke-linejoin="round"/>
<path d="M17.7866 16.7731L17.7239 18.3413L19.3547 15.1841L17.7866 16.7731Z" fill="#E27525" stroke="#E27525" stroke-width="0.209085" stroke-linecap="round" stroke-linejoin="round"/>
<path d="M13.375 15.3511L13.0195 17.3374L13.4586 19.7L13.5632 16.5847L13.375 15.3511Z" fill="#E27525" stroke="#E27525" stroke-width="0.209085" stroke-linecap="round" stroke-linejoin="round"/>
<path d="M15.4868 15.3511L15.2986 16.5847L15.3822 19.7L15.8422 17.3374L15.4868 15.3511Z" fill="#E27525" stroke="#E27525" stroke-width="0.209085" stroke-linecap="round" stroke-linejoin="round"/>
<path d="M15.8422 17.3375L15.3822 19.7001L15.7167 19.9301L17.7239 18.3411L17.7867 16.7729L15.8422 17.3375Z" fill="#F5841F" stroke="#F5841F" stroke-width="0.209085" stroke-linecap="round" stroke-linejoin="round"/>
<path d="M11.0751 16.7729L11.1169 18.3411L13.145 19.9301L13.4586 19.7001L13.0196 17.3375L11.0751 16.7729Z" fill="#F5841F" stroke="#F5841F" stroke-width="0.209085" stroke-linecap="round" stroke-linejoin="round"/>
<path d="M15.884 22.0836L15.9049 21.4354L15.7167 21.2891H13.1241L12.9568 21.4354L12.9777 22.0836L10.8032 21.0591L11.5559 21.6863L13.1032 22.7527H15.7376L17.2848 21.6863L18.0376 21.0591L15.884 22.0836Z" fill="#C0AC9D" stroke="#C0AC9D" stroke-width="0.209085" stroke-linecap="round" stroke-linejoin="round"/>
<path d="M15.7168 19.9302L15.3823 19.7002H13.4587L13.1451 19.9302L12.9569 21.4356L13.1242 21.2892H15.7168L15.905 21.4356L15.7168 19.9302Z" fill="#161616" stroke="#161616" stroke-width="0.209085" stroke-linecap="round" stroke-linejoin="round"/>
<path d="M22.6375 11.8805L23.2229 9.05789L22.3448 6.44434L15.7168 11.3787L18.2676 13.5323L21.8639 14.5777L22.6584 13.6578L22.3239 13.4069L22.8675 12.9051L22.4493 12.5705L22.9929 12.1523L22.6375 11.8805Z" fill="#763E1A" stroke="#763E1A" stroke-width="0.209085" stroke-linecap="round" stroke-linejoin="round"/>
<path d="M5.63892 9.05789L6.22435 11.8805L5.848 12.1523L6.39162 12.5705L5.97345 12.9051L6.53798 13.4069L6.18254 13.6578L6.97706 14.5777L10.5942 13.5323L13.1451 11.3787L6.49616 6.44434L5.63892 9.05789Z" fill="#763E1A" stroke="#763E1A" stroke-width="0.209085" stroke-linecap="round" stroke-linejoin="round"/>
<path d="M21.8639 14.5776L18.2676 13.5322L19.3549 15.184L17.724 18.3412L19.8776 18.3203H23.0766L21.8639 14.5776Z" fill="#F5841F" stroke="#F5841F" stroke-width="0.209085" stroke-linecap="round" stroke-linejoin="round"/>
<path d="M10.5942 13.5322L6.97706 14.5776L5.78528 18.3203H8.98427L11.1169 18.3412L9.50699 15.184L10.5942 13.5322Z" fill="#F5841F" stroke="#F5841F" stroke-width="0.209085" stroke-linecap="round" stroke-linejoin="round"/>
<path d="M15.4868 15.3513L15.7168 11.3787L16.7622 8.53516H12.0996L13.145 11.3787L13.375 15.3513L13.4587 16.6058V19.7003H15.3822V16.6058L15.4868 15.3513Z" fill="#F5841F" stroke="#F5841F" stroke-width="0.209085" stroke-linecap="round" stroke-linejoin="round"/>
</svg>
