<svg xmlns="http://www.w3.org/2000/svg" width="107" height="109" viewBox="0 0 107 109" fill="none">
  <g clip-path="url(#clip0_380_1365)">
    <path d="M28.1967 83.3718C26.3041 83.3718 24.7462 82.9162 23.5874 81.9986C21.4115 80.2726 20.7484 77.0386 21.669 72.6496L21.6883 72.5597L48.3079 53.9129C50.2006 52.5846 52.1641 50.6789 53.6834 48.6769L68.5479 29.1253C71.4963 25.2496 75.7516 22.0733 78.2429 21.8937C78.8867 21.8488 79.3953 21.9963 79.7494 22.3493C82.7429 25.2881 82.157 31.6855 78.1335 39.8989C70.3697 55.748 52.1448 74.1318 37.5184 80.8886C33.9198 82.5505 30.7525 83.3846 28.1967 83.3846V83.3718ZM22.126 72.8356C21.2698 76.9936 21.8814 80.0287 23.89 81.6201C26.465 83.6606 31.2353 83.2435 37.3189 80.4394C51.8615 73.7276 69.9835 55.44 77.7022 39.6743C81.6291 31.6599 82.2536 25.4678 79.4146 22.6829C79.1635 22.4391 78.7837 22.33 78.2816 22.3685C75.9125 22.5418 71.8053 25.6346 68.9341 29.414L54.0696 48.9656C52.5181 51.0061 50.5225 52.9504 48.5912 54.3043L22.1325 72.842L22.126 72.8356Z" fill="url(#paint0_linear_380_1365)"/>
    <path d="M26.8837 83.6606C24.6305 83.6606 22.8215 83.0895 21.5469 81.9473C19.3001 79.9261 18.8302 76.2878 20.1885 71.4175L20.2143 71.3277L48.3596 53.6498C50.3617 52.3921 52.4797 50.5056 54.1728 48.4844L70.6918 28.7146C73.9621 24.8004 78.4556 21.7525 80.9856 21.7974C81.6422 21.8038 82.1315 22.022 82.4598 22.4327C85.1765 25.8913 84.0306 32.7443 79.3118 41.2399C70.1896 57.6666 50.4325 75.8515 35.2655 81.7869C32.0724 83.0381 29.2334 83.6606 26.8837 83.6606ZM20.6391 71.6293C19.3645 76.2686 19.7894 79.7079 21.8752 81.588C24.3343 83.7953 29.0274 83.7119 35.0916 81.3377C50.1686 75.4408 69.8163 57.3522 78.8869 41.0089C83.5091 32.6865 84.6679 26.026 82.08 22.7278C81.8482 22.4391 81.4813 22.2851 80.9791 22.2787C78.623 22.253 74.2518 25.2047 71.0652 29.0226L54.5462 48.7924C52.8273 50.8521 50.6643 52.7707 48.6171 54.054L20.6327 71.6293H20.6391Z" fill="url(#paint1_linear_380_1365)"/>
    <path d="M25.6733 83.8787C23.0081 83.8787 20.9287 83.1601 19.5253 81.7292C17.2206 79.3807 16.976 75.2996 18.8365 69.9417L18.8687 69.8519L48.4496 53.3675C50.5547 52.1932 52.8337 50.358 54.6941 48.324L72.8805 28.4772C76.4598 24.5694 81.2236 21.7076 83.7215 21.9579C84.391 22.022 84.8738 22.3044 85.1635 22.7856C87.5647 26.7704 85.8201 34.0725 80.3868 42.8185C69.8676 59.7392 48.5913 77.5712 32.9671 82.5569C30.2118 83.436 27.7719 83.8723 25.6926 83.8723L25.6733 83.8787ZM19.2614 70.1856C17.5039 75.3189 17.7163 79.1946 19.8729 81.3955C22.2034 83.7697 26.7998 84.0199 32.8062 82.1013C48.3402 77.1412 69.4943 59.4056 79.9619 42.5682C85.2987 33.9827 87.0433 26.8602 84.7386 23.0359C84.5326 22.6958 84.1721 22.4904 83.6635 22.4391C81.3073 22.2017 76.7173 24.9994 73.2281 28.8044L55.0418 48.6512C53.1491 50.7174 50.8316 52.591 48.6814 53.791L19.2614 70.1856Z" fill="url(#paint2_linear_380_1365)"/>
    <path d="M24.6498 83.9878C21.4568 83.9878 19.0362 83.0959 17.5105 81.3377C15.1543 78.617 15.1865 74.0805 17.5942 68.222L17.6264 68.1386L48.5335 53.0851C50.7351 52.0135 53.1621 50.2361 55.19 48.2149L75.0437 28.4451C78.9706 24.5309 83.8439 21.9322 86.3675 22.3942C87.0499 22.5225 87.5391 22.8754 87.7902 23.4273C89.8245 27.9574 87.4554 35.6831 81.2817 44.6279C69.3206 61.9594 46.57 79.2523 30.566 83.1793C28.3772 83.7183 26.4009 83.9814 24.6498 83.9814V83.9878ZM18.0126 68.4915C15.7079 74.1318 15.6629 78.463 17.8839 81.0233C20.1113 83.6028 24.4631 84.1867 30.4566 82.7173C46.364 78.816 68.9923 61.6064 80.889 44.3584C86.9662 35.5548 89.3223 27.9959 87.3589 23.6262C87.1786 23.2219 86.8181 22.9653 86.2902 22.869C83.9469 22.4391 79.1637 25.0378 75.3977 28.7852L55.5441 48.5549C53.4776 50.6147 50.9991 52.4242 48.7523 53.515L18.0126 68.4851V68.4915Z" fill="url(#paint3_linear_380_1365)"/>
    <path d="M23.8644 84.0199C20.0212 84.0199 17.1822 82.9162 15.5341 80.7474C13.1522 77.6097 13.4934 72.5982 16.5191 66.2457L16.5577 66.1623L48.6622 52.7836C50.9476 51.8339 53.5226 50.1399 55.7243 48.1379L77.226 28.6055C81.4169 24.8004 86.464 22.4327 88.9683 23.1C89.6828 23.2925 90.1657 23.7289 90.3717 24.3705C92.0004 29.4525 88.9618 37.5889 82.0349 46.6813C68.606 64.3143 44.4262 80.895 28.139 83.6349C26.6004 83.8916 25.1777 84.0199 23.8644 84.0199ZM16.9182 66.5345C14.0535 72.5854 13.6994 77.5327 15.9204 80.4587C18.0062 83.2114 22.2035 84.1418 28.0553 83.1601C44.2396 80.433 68.2841 63.9357 81.6487 46.3861C88.479 37.4156 91.4854 29.4461 89.9082 24.5117C89.7537 24.0304 89.3932 23.7096 88.8395 23.562C86.522 22.946 81.5585 25.3138 77.5479 28.9585L56.0462 48.4908C53.8059 50.5249 51.1858 52.251 48.8489 53.2263L16.9182 66.5345Z" fill="url(#paint4_linear_380_1365)"/>
    <path d="M23.3686 83.9878C18.7142 83.9878 15.3602 82.6082 13.6027 79.9453C11.2594 76.3969 11.9804 70.731 15.6241 63.9999L15.6692 63.9165L48.823 52.4563C51.1856 51.6414 53.8959 50.05 56.2585 48.0929L79.3889 28.9713C83.8052 25.3202 89.0068 23.2155 91.4788 24.0818C92.2256 24.3448 92.7084 24.871 92.8629 25.6153C94.0346 31.262 90.3007 39.7705 82.6142 48.9592C67.6917 66.7847 42.1536 82.4542 25.6862 83.8851C24.8815 83.9557 24.1089 83.9878 23.375 83.9878H23.3686ZM16.0039 64.3143C12.489 70.8465 11.7744 76.3006 14.0018 79.6822C15.9331 82.6146 19.9567 83.898 25.6347 83.4103C41.9927 81.9858 67.3892 66.3933 82.2344 48.6512C89.8243 39.578 93.526 31.2171 92.3801 25.718C92.2642 25.1469 91.9037 24.7491 91.3114 24.5438C88.981 23.7288 83.9854 25.795 79.6851 29.3499L56.5546 48.4715C54.147 50.4607 51.3788 52.0841 48.9711 52.9183L15.9975 64.3143H16.0039Z" fill="url(#paint5_linear_380_1365)"/>
    <path d="M23.214 83.9301H23.2076C17.5425 83.9301 13.5704 82.1912 11.7164 78.9122C9.42459 74.8569 10.5641 68.6712 14.9223 61.491L14.9738 61.4075L49.0032 52.129C51.4237 51.4681 54.2627 50.0051 56.7927 48.1122L81.5068 29.5873C86.1934 26.0774 91.395 24.3064 93.8735 25.3779C94.6654 25.718 95.1353 26.3533 95.2319 27.2003C95.9078 33.418 91.4465 42.2666 82.9875 51.481C66.5651 69.3706 39.7587 83.9301 23.2204 83.9301H23.214ZM15.2828 61.8246C11.0598 68.8124 9.9396 74.7927 12.1348 78.6748C13.8987 81.7997 17.7291 83.4488 23.2076 83.4488H23.214C39.6364 83.4488 66.2818 68.9664 82.6205 51.1601C90.983 42.0485 95.3993 33.3346 94.7426 27.258C94.6718 26.5779 94.3113 26.0966 93.674 25.8207C91.3822 24.8261 86.2707 26.6164 81.7901 29.9723L57.076 48.4972C54.5009 50.4286 51.604 51.9237 49.1255 52.5975L15.2828 61.8246Z" fill="url(#paint6_linear_380_1365)"/>
    <path d="M23.4974 83.8723C22.5447 83.8723 21.6241 83.8338 20.7357 83.744C15.3023 83.2242 11.5556 81.1067 9.90114 77.6161C7.71234 72.9961 9.32175 66.2842 14.4461 58.7061L14.504 58.6227L49.2158 51.789C51.6814 51.3013 54.6363 49.9859 57.3208 48.1764L83.5606 30.4535C88.4017 27.181 93.687 25.7244 96.1269 26.9885C96.9702 27.4249 97.4273 28.1692 97.4466 29.1445C97.5753 35.927 92.3608 45.0835 83.1357 54.253C66.179 71.116 40.2095 83.8659 23.5103 83.8723H23.4974ZM14.7873 59.0591C9.81101 66.4575 8.23379 72.9704 10.3389 77.4107C11.9161 80.741 15.5276 82.7687 20.7872 83.2692C37.1323 84.822 64.9558 71.655 82.7945 53.9193C91.9295 44.8333 97.0925 35.8115 96.9638 29.1574C96.9509 28.3553 96.5904 27.7714 95.9016 27.4184C93.6484 26.2506 88.4532 27.7329 83.831 30.8578L57.5912 48.5806C54.8552 50.4286 51.8359 51.7697 49.3124 52.2702L14.7937 59.0655L14.7873 59.0591Z" fill="url(#paint7_linear_380_1365)"/>
    <path d="M24.2505 83.8595C22.1197 83.8595 20.124 83.6798 18.2893 83.3141C13.1005 82.2746 9.6049 79.7592 8.1693 76.0376C6.15432 70.808 8.29805 63.57 14.2078 55.6454L14.2722 55.562L49.4539 51.4425C51.9517 51.1473 55.0096 50.0051 57.8357 48.2919L85.524 31.5765C90.5582 28.535 95.7727 27.4377 98.2061 28.9071C99.1074 29.4525 99.5516 30.3316 99.4808 31.4417C99.0173 38.7888 93.0238 48.2021 83.0326 57.2624C65.8055 72.887 40.9948 83.8467 24.2505 83.8467V83.8595ZM14.5297 56.0176C8.768 63.7689 6.66933 70.8144 8.6135 75.8643C9.98472 79.4256 13.3645 81.8383 18.3794 82.8393C34.5314 86.0668 63.3849 74.4334 82.7043 56.9095C92.5989 47.9326 98.5409 38.6412 98.9979 31.416C99.0559 30.4792 98.7083 29.7734 97.9551 29.3242C95.7083 27.9639 90.584 29.0868 85.7686 31.9935L58.0803 48.709C55.1963 50.4543 52.0676 51.6221 49.5054 51.9237L14.5297 56.0176Z" fill="url(#paint8_linear_380_1365)"/>
    <path d="M25.5447 83.9365C21.9718 83.9365 18.7079 83.513 15.8882 82.6147C10.957 81.049 7.72528 78.1166 6.54076 74.1318C4.78972 68.2477 7.52571 60.4964 14.2402 52.3151L14.311 52.2317L49.7244 51.0896C52.2351 51.0061 55.3767 50.0565 58.3444 48.4716L87.3911 32.9881C92.4961 30.2675 97.7299 29.5167 100.105 31.1722C101.071 31.846 101.489 32.8662 101.316 34.1367C100.208 42.042 93.4167 51.6606 82.6787 60.5221C65.4902 74.7093 42.1538 83.9301 25.5447 83.9301V83.9365ZM14.5427 52.7001C7.98279 60.7274 5.30473 68.2798 7.00427 73.9907C8.14373 77.815 11.266 80.6383 16.0363 82.1527C31.8407 87.1705 61.5954 77.3017 82.3697 60.1499C93.0176 51.3591 99.7449 41.856 100.833 34.0661C100.987 32.9753 100.646 32.1347 99.8286 31.5636C97.6269 30.0365 92.4897 30.8129 87.6164 33.4116L58.5698 48.895C55.5376 50.5121 52.3188 51.481 49.7373 51.5644L14.5427 52.7001Z" fill="url(#paint9_linear_380_1365)"/>
    <path d="M27.4502 84.1739C22.1262 84.1739 17.3753 83.359 13.5578 81.6265C8.89047 79.5154 5.94847 76.1338 5.0472 71.8539C3.6631 65.2768 7.04286 57.057 14.562 48.709L14.6393 48.6255L50.027 50.7366C52.5312 50.8842 55.7436 50.1527 58.8337 48.7218L89.1228 34.7014C94.26 32.3208 99.468 31.9486 101.779 33.7838C102.816 34.6051 103.202 35.7922 102.899 37.2295C101.11 45.6803 93.5068 55.4465 82.0349 64.032C65.2327 76.6022 43.6666 84.1867 27.4502 84.1867V84.1739ZM14.8453 49.1132C7.48706 57.3201 4.17811 65.3538 5.52358 71.7512C6.39266 75.8771 9.2381 79.1432 13.7573 81.1837C29.0532 88.1073 59.5547 80.2341 81.7517 63.6277C93.127 55.1128 100.665 45.4493 102.436 37.114C102.7 35.8564 102.384 34.8554 101.489 34.1495C99.3071 32.4234 94.3115 32.8213 89.3352 35.1249L59.0461 49.1453C55.8852 50.6083 52.5892 51.359 50.0077 51.205L14.8517 49.1068L14.8453 49.1132Z" fill="url(#paint10_linear_380_1365)"/>
    <path d="M29.9929 84.6359C22.5832 84.6359 16.0941 83.2499 11.3173 80.3367C6.92042 77.6481 4.29386 73.7853 3.72735 69.1525C2.83252 61.876 6.90754 53.2327 15.1992 44.8269L15.2893 44.737L50.368 50.3645C52.8465 50.7623 56.1104 50.2682 59.3099 49.0105L90.7063 36.6905C95.9079 34.65 100.936 34.6564 103.221 36.7098C104.328 37.7044 104.676 39.0839 104.219 40.6945C101.702 49.6715 93.2685 59.521 81.0949 67.7344C65.0523 78.5529 45.5205 84.6359 29.9929 84.6359ZM15.4567 45.2568C7.32599 53.5279 3.33465 61.9915 4.20373 69.1011C4.75737 73.58 7.30024 77.3273 11.5684 79.9325C26.2011 88.8709 57.2628 83.2242 80.8245 67.343C92.908 59.2002 101.264 49.4405 103.755 40.5726C104.155 39.1481 103.858 37.9418 102.899 37.0755C100.749 35.1441 95.9272 35.1698 90.8865 37.1525L59.4902 49.4725C56.207 50.7623 52.8594 51.2628 50.2972 50.8521L15.4696 45.2632L15.4567 45.2568Z" fill="url(#paint11_linear_380_1365)"/>
    <path d="M33.1281 85.4123C23.33 85.4123 14.8195 83.2371 9.19941 78.7326C5.07289 75.428 2.8004 71.0197 2.62658 65.989C2.34333 58.0195 7.15224 49.0362 16.1714 40.6945L16.2679 40.6047L50.7286 50.0115C53.162 50.6789 56.4452 50.4479 59.7477 49.3955L92.1033 39.0198C97.3307 37.345 102.146 37.73 104.38 40.0015C105.558 41.2014 105.848 42.7928 105.223 44.5959C101.927 54.0733 92.6763 63.9421 79.8268 71.6806C64.9107 80.6704 47.6128 85.4187 33.1281 85.4187V85.4123ZM16.4031 41.1373C7.55138 49.357 2.83259 58.1735 3.10941 65.9698C3.28322 70.8529 5.49133 75.1392 9.50198 78.354C23.2914 89.4099 54.7264 86.2272 79.5757 71.2571C92.3222 63.5764 101.509 53.7974 104.766 44.429C105.326 42.812 105.075 41.3939 104.032 40.3288C101.959 38.2177 97.2277 37.8712 92.2514 39.4689L59.8958 49.8447C56.5096 50.9291 53.1234 51.1601 50.6063 50.4671L16.4096 41.1309L16.4031 41.1373Z" fill="url(#paint12_linear_380_1365)"/>
    <path d="M36.7395 86.5737C24.302 86.5737 13.5189 83.3269 7.23579 76.7883C3.39896 72.7971 1.51917 67.7857 1.80886 62.2931C2.2595 53.6755 7.83449 44.4419 17.5038 36.3055L17.6133 36.2093L51.1276 49.6522C53.4902 50.6019 56.7799 50.6661 60.1532 49.8319L93.2942 41.6506C98.4249 40.3865 103.112 41.1565 105.242 43.6205C106.472 45.0386 106.697 46.9123 105.88 48.8886C101.773 58.8345 91.6912 68.6456 78.2172 75.813C64.7625 82.9676 49.8272 86.5737 36.7331 86.5737H36.7395ZM17.7034 36.7675C8.20787 44.8012 2.73588 53.868 2.29168 62.3187C2.00843 67.6767 3.83672 72.5662 7.58342 76.4547C20.3493 89.7308 51.9388 89.2495 77.9983 75.3895C91.3693 68.2734 101.373 58.5521 105.442 48.709C106.195 46.8802 106.002 45.2311 104.882 43.935C102.867 41.6057 98.367 40.8935 93.4165 42.119L60.2755 50.3003C56.8056 51.1601 53.4065 51.0831 50.9538 50.1014L17.7098 36.7675H17.7034Z" fill="url(#paint13_linear_380_1365)"/>
    <path d="M40.6022 88.1971C25.3707 88.1971 12.1285 83.513 5.44625 74.5104C-3.70163 62.1775 1.8283 44.968 19.2164 31.6855L19.3387 31.5893L51.5591 49.3185C53.8251 50.5634 57.0954 50.9484 60.5267 50.3644L94.2599 44.6344C99.3328 43.7745 103.749 44.9103 105.796 47.6053C107.084 49.2993 107.219 51.436 106.176 53.6177C101.219 63.9935 90.3136 73.6634 76.2667 80.1506C64.5502 85.5599 52.0161 88.1907 40.6086 88.1907L40.6022 88.1971ZM19.3837 32.1603C2.324 45.2632 -3.12868 62.1519 5.83251 74.2216C11.3818 81.7035 21.7721 86.4005 35.0851 87.4528C48.4304 88.5051 62.9794 85.7588 76.0607 79.7207C90.0046 73.2784 100.82 63.6919 105.732 53.4124C106.71 51.3719 106.594 49.4597 105.403 47.894C103.498 45.3787 99.1525 44.2879 94.3372 45.1028L60.6039 50.8329C57.0697 51.436 53.6835 51.0318 51.3273 49.7356L19.3837 32.1603Z" fill="url(#paint14_linear_380_1365)"/>
    <path d="M44.4454 90.3211C26.375 90.3211 10.577 83.7568 3.85612 71.8667C-4.17162 57.6666 2.84541 39.5716 21.315 26.8345L21.4566 26.7383L52.0097 48.9849C54.1598 50.5505 57.3722 51.2692 60.8421 50.9612L94.9487 47.939C99.8478 47.5026 104.084 49.0298 105.989 51.9237C107.322 53.9386 107.335 56.3641 106.034 58.7575C100.189 69.5247 88.4853 78.9636 73.9234 84.6616C64.1317 88.4923 53.9731 90.3211 44.4454 90.3211ZM21.4566 27.3286C3.30892 39.9117 -3.59223 57.6987 4.281 71.6293C9.15429 80.2533 19.094 86.3235 32.259 88.7169C45.4561 91.1167 60.1919 89.519 73.7496 84.2124C88.2021 78.5529 99.822 69.191 105.616 58.5265C106.826 56.2999 106.813 54.0476 105.59 52.1868C103.781 49.4405 99.719 47.9967 94.9938 48.4138L60.8872 51.4361C57.3078 51.7505 53.9731 50.9997 51.7328 49.3699L21.4566 27.3286Z" fill="url(#paint15_linear_380_1365)"/>
    <path d="M48.1599 92.9647C41.6192 92.9647 35.2138 92.0728 29.2075 90.289C16.1584 86.4069 6.68217 78.7967 2.51701 68.8573C-4.22963 52.745 4.33886 33.8287 23.8385 21.7846L23.9994 21.6884L52.4988 48.664C54.5009 50.557 57.6361 51.6221 61.1124 51.6414L95.3478 51.59H95.3735C100.073 51.59 104.071 53.5086 105.822 56.6015C107.167 58.9821 107.039 61.7156 105.455 64.3143C98.6889 75.4152 86.2063 84.5332 71.2002 89.3329C63.6231 91.752 55.7949 92.9712 48.1534 92.9712L48.1599 92.9647ZM23.9415 22.2979C4.75731 34.2137 -3.66956 52.8349 2.96765 68.6776C7.07486 78.4823 16.4416 85.9962 29.3491 89.8334C42.2823 93.677 57.0953 93.3369 71.065 88.8709C85.9617 84.1097 98.3477 75.0686 105.056 64.0641C106.543 61.6257 106.665 59.0591 105.41 56.8389C103.749 53.9 99.9056 52.0713 95.3864 52.0713H95.3606L61.1253 52.1226H61.0995C57.5138 52.1226 54.2628 50.9933 52.177 49.017L23.9479 22.2979H23.9415Z" fill="url(#paint16_linear_380_1365)"/>
    <path d="M51.1921 96.1859C42.424 96.1859 33.8684 94.5112 26.1561 91.2001C13.4997 85.7652 4.71876 76.6343 1.44844 65.4885C-3.85617 47.4192 6.32817 27.7585 26.7999 16.5678L26.9737 16.4716L53.0075 48.3753C54.8358 50.6147 57.8679 52.0841 61.3249 52.4114L95.438 55.5876C100.002 56.0111 103.678 58.2762 105.268 61.6321C106.569 64.3785 106.253 67.529 104.393 70.2754C96.6804 81.6586 83.4446 90.3531 68.078 94.1262C62.4644 95.5057 56.7799 96.1859 51.1792 96.1859H51.1921ZM26.8578 17.0812C6.70799 28.1756 -3.31541 47.5539 1.90551 65.3538C5.13721 76.3648 13.8151 85.3866 26.3428 90.7638C38.8897 96.1474 53.6706 97.1741 67.9686 93.6642C83.2193 89.9168 96.3521 81.2928 103.994 70.0123C105.783 67.375 106.079 64.4747 104.83 61.8439C103.311 58.6355 99.7769 56.4795 95.3865 56.0689L61.2734 52.8926C57.6877 52.559 54.5332 51.0254 52.6277 48.6833L26.8578 17.0812Z" fill="url(#paint17_linear_380_1365)"/>
    <path d="M53.5933 99.9461C42.6943 99.9461 32.1237 97.1997 23.0338 91.8932C10.8988 84.8156 2.96124 74.1061 0.675879 61.7284C-3.02576 41.6763 8.83881 21.3611 30.2053 11.1778L30.3985 11.088L53.5482 48.0994C55.1769 50.6981 58.0674 52.5782 61.4794 53.252L95.1869 59.9125C99.5194 60.7659 102.931 63.4288 104.322 67.0221C105.551 70.2112 105.011 73.7083 102.828 76.6215C94.1504 88.2164 80.2065 96.3848 64.563 99.0221C60.9 99.6381 57.2305 99.9461 53.5933 99.9461ZM30.2118 11.7104C9.16713 21.8231 -2.50431 41.8688 1.14583 61.645C3.40544 73.8816 11.2658 84.4755 23.272 91.4825C35.2975 98.4959 49.9303 101.005 64.4793 98.5537C80.0005 95.9357 93.835 87.8442 102.436 76.3456C104.515 73.5671 105.036 70.2369 103.865 67.2082C102.539 63.7689 99.2555 61.2215 95.0903 60.4001L61.3828 53.7396C57.8357 53.0402 54.8293 51.0831 53.1362 48.3689L30.2118 11.7104Z" fill="url(#paint18_linear_380_1365)"/>
    <path d="M55.293 104.226C42.3597 104.226 29.9415 100.094 19.8602 92.3552C8.39477 83.5451 1.4228 71.2058 0.231839 57.5961C-1.70589 35.5484 11.8904 14.6814 34.0616 5.67235L34.2741 5.58893L34.3706 5.79426L54.0956 47.8491C55.4925 50.82 58.2092 53.1301 61.5504 54.1824L94.5433 64.5774C98.644 65.8671 101.773 68.9407 102.925 72.7907C104.019 76.4547 103.208 80.2982 100.698 83.3462C91.0412 95.0823 76.4342 102.609 60.6169 103.989C58.8337 104.143 57.0633 104.22 55.293 104.22V104.226ZM34.0294 6.20493C12.1801 15.1819 -1.19732 35.7858 0.708224 57.5576C1.89275 71.0261 8.7939 83.2499 20.1499 91.9702C31.5123 100.697 45.8683 104.797 60.5718 103.514C76.2604 102.147 90.745 94.6844 100.318 83.0446C102.719 80.125 103.498 76.4354 102.455 72.9319C101.354 69.2359 98.3415 66.2842 94.3952 65.0394L61.4023 54.6444C57.9324 53.5536 55.1063 51.1473 53.6578 48.0545L34.0294 6.20493Z" fill="url(#paint19_linear_380_1365)"/>
    <path d="M56.252 109C41.3681 109 27.3083 103.154 16.6605 92.5477C6.01264 81.9345 0.147949 67.9205 0.147949 53.0851C0.147949 29.0354 15.5146 7.73209 38.3875 0.0770001L38.6193 0L54.6683 47.6245C55.8013 50.9805 58.3056 53.7396 61.5437 55.1962L93.5002 69.5696C97.4207 71.3341 100.182 74.7542 101.064 78.9571C101.94 83.1087 100.82 87.2924 97.9872 90.4302C87.3393 102.23 72.1272 108.994 56.2455 108.994L56.252 109ZM38.3103 0.609584C15.7657 8.26467 0.630772 29.3242 0.630772 53.0851C0.630772 67.7921 6.44396 81.6842 16.9952 92.2076C27.553 102.731 41.4905 108.519 56.2455 108.519C71.9856 108.519 87.0689 101.807 97.6267 90.1093C100.356 87.0871 101.438 83.0574 100.588 79.0598C99.7318 75.0109 97.073 71.7127 93.2941 70.0123L61.3377 55.639C57.9773 54.1246 55.3764 51.2628 54.2048 47.7785L38.3103 0.609584Z" fill="url(#paint20_linear_380_1365)"/>
  </g>
  <defs>
    <linearGradient id="paint0_linear_380_1365" x1="51.4517" y1="21.8858" x2="51.4517" y2="83.3846" gradientUnits="userSpaceOnUse">
      <stop stop-color="#FACB7B"/>
      <stop offset="1" stop-color="#D87CEE"/>
    </linearGradient>
    <linearGradient id="paint1_linear_380_1365" x1="51.6673" y1="21.7969" x2="51.6673" y2="83.6606" gradientUnits="userSpaceOnUse">
      <stop stop-color="#FACB7B"/>
      <stop offset="1" stop-color="#D87CEE"/>
    </linearGradient>
    <linearGradient id="paint2_linear_380_1365" x1="51.9086" y1="21.9426" x2="51.9086" y2="83.8787" gradientUnits="userSpaceOnUse">
      <stop stop-color="#FACB7B"/>
      <stop offset="1" stop-color="#D87CEE"/>
    </linearGradient>
    <linearGradient id="paint3_linear_380_1365" x1="52.1341" y1="22.3411" x2="52.1341" y2="83.9878" gradientUnits="userSpaceOnUse">
      <stop stop-color="#FACB7B"/>
      <stop offset="1" stop-color="#D87CEE"/>
    </linearGradient>
    <linearGradient id="paint4_linear_380_1365" x1="52.3852" y1="22.9878" x2="52.3852" y2="84.0199" gradientUnits="userSpaceOnUse">
      <stop stop-color="#FACB7B"/>
      <stop offset="1" stop-color="#D87CEE"/>
    </linearGradient>
    <linearGradient id="paint5_linear_380_1365" x1="52.6626" y1="23.8877" x2="52.6626" y2="83.9878" gradientUnits="userSpaceOnUse">
      <stop stop-color="#FACB7B"/>
      <stop offset="1" stop-color="#D87CEE"/>
    </linearGradient>
    <linearGradient id="paint6_linear_380_1365" x1="52.9296" y1="25.0671" x2="52.9296" y2="83.9301" gradientUnits="userSpaceOnUse">
      <stop stop-color="#FACB7B"/>
      <stop offset="1" stop-color="#D87CEE"/>
    </linearGradient>
    <linearGradient id="paint7_linear_380_1365" x1="53.1986" y1="26.536" x2="53.1986" y2="83.8723" gradientUnits="userSpaceOnUse">
      <stop stop-color="#FACB7B"/>
      <stop offset="1" stop-color="#D87CEE"/>
    </linearGradient>
    <linearGradient id="paint8_linear_380_1365" x1="53.4597" y1="28.2608" x2="53.4597" y2="83.8595" gradientUnits="userSpaceOnUse">
      <stop stop-color="#FACB7B"/>
      <stop offset="1" stop-color="#D87CEE"/>
    </linearGradient>
    <linearGradient id="paint9_linear_380_1365" x1="53.6893" y1="30.2993" x2="53.6893" y2="83.9365" gradientUnits="userSpaceOnUse">
      <stop stop-color="#FACB7B"/>
      <stop offset="1" stop-color="#D87CEE"/>
    </linearGradient>
    <linearGradient id="paint10_linear_380_1365" x1="53.8715" y1="32.6248" x2="53.8715" y2="84.1867" gradientUnits="userSpaceOnUse">
      <stop stop-color="#FACB7B"/>
      <stop offset="1" stop-color="#D87CEE"/>
    </linearGradient>
    <linearGradient id="paint11_linear_380_1365" x1="54.0103" y1="35.1649" x2="54.0103" y2="84.6359" gradientUnits="userSpaceOnUse">
      <stop stop-color="#FACB7B"/>
      <stop offset="1" stop-color="#D87CEE"/>
    </linearGradient>
    <linearGradient id="paint12_linear_380_1365" x1="54.0795" y1="37.9865" x2="54.0795" y2="85.4187" gradientUnits="userSpaceOnUse">
      <stop stop-color="#FACB7B"/>
      <stop offset="1" stop-color="#D87CEE"/>
    </linearGradient>
    <linearGradient id="paint13_linear_380_1365" x1="54.0713" y1="36.2093" x2="54.0713" y2="86.5737" gradientUnits="userSpaceOnUse">
      <stop stop-color="#FACB7B"/>
      <stop offset="1" stop-color="#D87CEE"/>
    </linearGradient>
    <linearGradient id="paint14_linear_380_1365" x1="53.9757" y1="31.5893" x2="53.9757" y2="88.1971" gradientUnits="userSpaceOnUse">
      <stop stop-color="#FACB7B"/>
      <stop offset="1" stop-color="#D87CEE"/>
    </linearGradient>
    <linearGradient id="paint15_linear_380_1365" x1="53.7855" y1="26.7383" x2="53.7855" y2="90.3211" gradientUnits="userSpaceOnUse">
      <stop stop-color="#FACB7B"/>
      <stop offset="1" stop-color="#D87CEE"/>
    </linearGradient>
    <linearGradient id="paint16_linear_380_1365" x1="53.4917" y1="21.6884" x2="53.4917" y2="92.9712" gradientUnits="userSpaceOnUse">
      <stop stop-color="#FACB7B"/>
      <stop offset="1" stop-color="#D87CEE"/>
    </linearGradient>
    <linearGradient id="paint17_linear_380_1365" x1="53.0582" y1="16.4716" x2="53.0582" y2="96.1859" gradientUnits="userSpaceOnUse">
      <stop stop-color="#FACB7B"/>
      <stop offset="1" stop-color="#D87CEE"/>
    </linearGradient>
    <linearGradient id="paint18_linear_380_1365" x1="52.4865" y1="11.088" x2="52.4865" y2="99.9461" gradientUnits="userSpaceOnUse">
      <stop stop-color="#FACB7B"/>
      <stop offset="1" stop-color="#D87CEE"/>
    </linearGradient>
    <linearGradient id="paint19_linear_380_1365" x1="51.7251" y1="5.58893" x2="51.7251" y2="104.226" gradientUnits="userSpaceOnUse">
      <stop stop-color="#FACB7B"/>
      <stop offset="1" stop-color="#D87CEE"/>
    </linearGradient>
    <linearGradient id="paint20_linear_380_1365" x1="50.7517" y1="0" x2="50.7517" y2="109" gradientUnits="userSpaceOnUse">
      <stop stop-color="#FACB7B"/>
      <stop offset="1" stop-color="#D87CEE"/>
    </linearGradient>
    <clipPath id="clip0_380_1365">
      <rect width="107" height="109" fill="white"/>
    </clipPath>
  </defs>
</svg>