<svg xmlns="http://www.w3.org/2000/svg" width="115" height="131" viewBox="0 0 115 131" fill="none">
  <g clip-path="url(#clip0_380_1422)">
    <path d="M14.3875 89.9915L56.2336 0L56.3812 0.207204L113.028 81.3363L112.774 81.3599L14.3816 89.9915H14.3875ZM56.2867 0.59201L14.8716 89.654L112.497 81.0876L56.2867 0.59201Z" fill="url(#paint0_linear_380_1422)"/>
    <path d="M111.399 86.8301H12.3804L61.8896 0.834732L111.399 86.8242V86.8301ZM12.8881 86.5341H110.885L61.8896 1.42674L12.8881 86.5341Z" fill="url(#paint1_linear_380_1422)"/>
    <path d="M109.297 92.1523L109.043 92.1286L10.6504 83.4971L67.4449 2.16084L109.291 92.1523H109.297ZM11.1876 83.2485L108.813 91.8149L67.3977 2.75285L11.1876 83.2485Z" fill="url(#paint2_linear_380_1422)"/>
    <path d="M106.735 97.2791L9.22168 80.0338L9.38699 79.8385L72.8705 3.97238L72.959 4.21511L106.741 97.2791H106.735ZM9.77073 79.8326L106.28 96.8943L72.7642 4.55255L9.77073 79.8326Z" fill="url(#paint3_linear_380_1422)"/>
    <path d="M103.741 102.157L8.09399 76.4581L78.113 6.24571L103.741 102.157ZM8.66666 76.3042L103.328 101.737L77.9595 6.81996L8.66666 76.3042Z" fill="url(#paint4_linear_380_1422)"/>
    <path d="M100.335 106.757L100.093 106.668L7.2854 72.7936L83.1374 8.96895L100.335 106.757ZM7.86397 72.6929L99.9514 106.301L82.9366 9.52544L7.86397 72.6929Z" fill="url(#paint5_linear_380_1422)"/>
    <path d="M96.5387 111.043L6.79517 69.0757L87.9074 12.1244L87.931 12.3789L96.5387 111.043ZM7.38555 69.0284L96.2022 110.558L87.6594 12.6631L7.38555 69.0284Z" fill="url(#paint6_linear_380_1422)"/>
    <path d="M92.3884 114.98L6.63574 65.3283L92.3884 15.6823V114.974V114.98ZM7.22612 65.3283L92.0932 114.465V16.1974L7.22612 65.3283Z" fill="url(#paint7_linear_380_1422)"/>
    <path d="M87.9074 118.538L6.79517 61.5809L96.5387 19.6192L96.5151 19.8738L87.9074 118.538ZM7.38555 61.6342L87.6594 117.999L96.2022 20.1047L7.38555 61.6342Z" fill="url(#paint8_linear_380_1422)"/>
    <path d="M83.1374 121.688L82.9425 121.522L7.2854 57.8631L100.335 23.8994L83.1374 121.688ZM7.86397 57.9696L82.9366 121.137L99.9514 24.3612L7.86397 57.9696Z" fill="url(#paint9_linear_380_1422)"/>
    <path d="M78.113 124.417L8.09399 54.2045L103.741 28.5053L78.113 124.417ZM8.66666 54.3525L77.9595 123.837L103.322 28.9138L8.66666 54.3525Z" fill="url(#paint10_linear_380_1422)"/>
    <path d="M72.8705 126.69L9.22168 50.6228L106.741 33.3775L72.8705 126.684V126.69ZM9.77073 50.83L72.7642 126.11L106.28 33.7683L9.77073 50.83Z" fill="url(#paint11_linear_380_1422)"/>
    <path d="M67.4449 128.496L67.2973 128.289L10.6504 47.1595L109.297 38.5043L109.191 38.7352L67.4508 128.496H67.4449ZM11.1876 47.4082L67.3977 127.904L108.813 38.8418L11.1876 47.4082Z" fill="url(#paint12_linear_380_1422)"/>
    <path d="M61.8896 129.822L12.3804 43.8324H111.405L61.8955 129.822H61.8896ZM12.8881 44.1284L61.8896 129.23L110.891 44.1284H12.8881Z" fill="url(#paint13_linear_380_1422)"/>
    <path d="M56.2335 130.663L14.3875 40.6711L113.034 49.3263L56.2394 130.663H56.2335ZM14.8716 41.0085L56.2867 130.071L112.497 49.5749L14.8716 41.0085Z" fill="url(#paint14_linear_380_1422)"/>
    <path d="M50.5307 131L50.4421 130.757L16.6665 37.6933L114.185 54.9385L50.5366 131H50.5307ZM17.1152 38.0722L50.631 130.414L113.625 55.1339L17.1152 38.0722Z" fill="url(#paint15_linear_380_1422)"/>
    <path d="M44.8215 130.84L19.1931 34.9286L114.84 60.6278L44.8215 130.84ZM19.6064 35.3489L44.9691 130.272L114.262 60.7876L19.6064 35.3489Z" fill="url(#paint16_linear_380_1422)"/>
    <path d="M39.142 130.177L21.9502 32.3948L115 66.3584L39.1479 130.183L39.142 130.177ZM22.328 32.8447L39.3428 129.621L114.415 66.4531L22.328 32.8447Z" fill="url(#paint17_linear_380_1422)"/>
    <path d="M33.5454 129.029L33.5218 128.774L24.9141 30.1096L114.658 72.0713L33.5454 129.029ZM25.2565 30.5951L33.7993 128.49L114.073 72.1246L25.2565 30.5951Z" fill="url(#paint18_linear_380_1422)"/>
    <path d="M28.0725 127.389V28.0968L113.825 77.7428L28.0725 127.389ZM28.3677 28.6059V126.874L113.235 77.7369L28.3677 28.6059Z" fill="url(#paint19_linear_380_1422)"/>
    <path d="M22.759 125.281L22.7826 125.027L31.3904 26.3622L112.503 83.3136L22.759 125.281ZM31.6383 26.9009L23.0955 124.796L111.912 83.2662L31.6383 26.9009Z" fill="url(#paint20_linear_380_1422)"/>
    <path d="M17.6523 122.712L34.8442 24.9296L35.039 25.0953L110.696 88.7542L110.454 88.843L17.6523 122.712ZM35.0449 25.486L18.0302 122.262L110.118 88.6535L35.0449 25.486Z" fill="url(#paint21_linear_380_1422)"/>
    <path d="M12.7817 119.71L38.416 23.7988L108.435 94.0112L12.7817 119.71ZM38.5636 24.3731L13.2009 119.29L107.862 93.8573L38.5636 24.3731Z" fill="url(#paint22_linear_380_1422)"/>
    <path d="M8.20044 116.294L8.289 116.052L42.0646 22.9878L105.713 99.0492L8.20044 116.294ZM42.165 23.5679L8.64913 115.916L105.158 98.8539L42.165 23.5679Z" fill="url(#paint23_linear_380_1422)"/>
    <path d="M3.92603 112.488L45.7721 22.4964L45.9197 22.7036L102.567 103.833L102.313 103.856L3.92603 112.488ZM45.8253 23.0884L4.41014 112.15L102.035 103.584L45.8253 23.0884Z" fill="url(#paint24_linear_380_1422)"/>
    <path d="M99.0243 108.326H0L49.5092 22.3365L99.0184 108.326H99.0243ZM0.51363 108.03H98.5107L49.5092 22.9286L0.51363 108.03Z" fill="url(#paint25_linear_380_1422)"/>
  </g>
  <defs>
    <linearGradient id="paint0_linear_380_1422" x1="63.7048" y1="0" x2="63.7048" y2="89.9915" gradientUnits="userSpaceOnUse">
      <stop stop-color="#FACB7C"/>
      <stop offset="1" stop-color="#D87CEE"/>
    </linearGradient>
    <linearGradient id="paint1_linear_380_1422" x1="61.8896" y1="0.834732" x2="61.8896" y2="86.8301" gradientUnits="userSpaceOnUse">
      <stop stop-color="#FACB7C"/>
      <stop offset="1" stop-color="#D87CEE"/>
    </linearGradient>
    <linearGradient id="paint2_linear_380_1422" x1="59.9736" y1="2.16084" x2="59.9736" y2="92.1523" gradientUnits="userSpaceOnUse">
      <stop stop-color="#FACB7C"/>
      <stop offset="1" stop-color="#D87CEE"/>
    </linearGradient>
    <linearGradient id="paint3_linear_380_1422" x1="57.9811" y1="3.97238" x2="57.9811" y2="97.2791" gradientUnits="userSpaceOnUse">
      <stop stop-color="#FACB7C"/>
      <stop offset="1" stop-color="#D87CEE"/>
    </linearGradient>
    <linearGradient id="paint4_linear_380_1422" x1="55.9177" y1="6.24571" x2="55.9177" y2="102.157" gradientUnits="userSpaceOnUse">
      <stop stop-color="#FACB7C"/>
      <stop offset="1" stop-color="#D87CEE"/>
    </linearGradient>
    <linearGradient id="paint5_linear_380_1422" x1="53.8102" y1="8.96895" x2="53.8102" y2="106.757" gradientUnits="userSpaceOnUse">
      <stop stop-color="#FACB7C"/>
      <stop offset="1" stop-color="#D87CEE"/>
    </linearGradient>
    <linearGradient id="paint6_linear_380_1422" x1="51.667" y1="12.1244" x2="51.667" y2="111.043" gradientUnits="userSpaceOnUse">
      <stop stop-color="#FACB7C"/>
      <stop offset="1" stop-color="#D87CEE"/>
    </linearGradient>
    <linearGradient id="paint7_linear_380_1422" x1="49.512" y1="15.6823" x2="49.512" y2="114.98" gradientUnits="userSpaceOnUse">
      <stop stop-color="#FACB7C"/>
      <stop offset="1" stop-color="#D87CEE"/>
    </linearGradient>
    <linearGradient id="paint8_linear_380_1422" x1="51.667" y1="19.6192" x2="51.667" y2="118.538" gradientUnits="userSpaceOnUse">
      <stop stop-color="#FACB7C"/>
      <stop offset="1" stop-color="#D87CEE"/>
    </linearGradient>
    <linearGradient id="paint9_linear_380_1422" x1="53.8102" y1="23.8994" x2="53.8102" y2="121.688" gradientUnits="userSpaceOnUse">
      <stop stop-color="#FACB7C"/>
      <stop offset="1" stop-color="#D87CEE"/>
    </linearGradient>
    <linearGradient id="paint10_linear_380_1422" x1="55.9177" y1="28.5053" x2="55.9177" y2="124.417" gradientUnits="userSpaceOnUse">
      <stop stop-color="#FACB7C"/>
      <stop offset="1" stop-color="#D87CEE"/>
    </linearGradient>
    <linearGradient id="paint11_linear_380_1422" x1="57.9811" y1="33.3775" x2="57.9811" y2="126.69" gradientUnits="userSpaceOnUse">
      <stop stop-color="#FACB7C"/>
      <stop offset="1" stop-color="#D87CEE"/>
    </linearGradient>
    <linearGradient id="paint12_linear_380_1422" x1="59.9736" y1="38.5043" x2="59.9736" y2="128.496" gradientUnits="userSpaceOnUse">
      <stop stop-color="#FACB7C"/>
      <stop offset="1" stop-color="#D87CEE"/>
    </linearGradient>
    <linearGradient id="paint13_linear_380_1422" x1="61.8925" y1="43.8324" x2="61.8925" y2="129.822" gradientUnits="userSpaceOnUse">
      <stop stop-color="#FACB7C"/>
      <stop offset="1" stop-color="#D87CEE"/>
    </linearGradient>
    <linearGradient id="paint14_linear_380_1422" x1="63.7107" y1="40.6711" x2="63.7107" y2="130.663" gradientUnits="userSpaceOnUse">
      <stop stop-color="#FACB7C"/>
      <stop offset="1" stop-color="#D87CEE"/>
    </linearGradient>
    <linearGradient id="paint15_linear_380_1422" x1="65.4259" y1="37.6933" x2="65.4259" y2="131" gradientUnits="userSpaceOnUse">
      <stop stop-color="#FACB7C"/>
      <stop offset="1" stop-color="#D87CEE"/>
    </linearGradient>
    <linearGradient id="paint16_linear_380_1422" x1="67.0168" y1="34.9286" x2="67.0168" y2="130.84" gradientUnits="userSpaceOnUse">
      <stop stop-color="#FACB7C"/>
      <stop offset="1" stop-color="#D87CEE"/>
    </linearGradient>
    <linearGradient id="paint17_linear_380_1422" x1="68.475" y1="32.3948" x2="68.475" y2="130.183" gradientUnits="userSpaceOnUse">
      <stop stop-color="#FACB7C"/>
      <stop offset="1" stop-color="#D87CEE"/>
    </linearGradient>
    <linearGradient id="paint18_linear_380_1422" x1="69.7859" y1="30.1096" x2="69.7859" y2="129.029" gradientUnits="userSpaceOnUse">
      <stop stop-color="#FACB7C"/>
      <stop offset="1" stop-color="#D87CEE"/>
    </linearGradient>
    <linearGradient id="paint19_linear_380_1422" x1="70.9488" y1="28.0968" x2="70.9488" y2="127.389" gradientUnits="userSpaceOnUse">
      <stop stop-color="#FACB7C"/>
      <stop offset="1" stop-color="#D87CEE"/>
    </linearGradient>
    <linearGradient id="paint20_linear_380_1422" x1="67.6308" y1="26.3622" x2="67.6308" y2="125.281" gradientUnits="userSpaceOnUse">
      <stop stop-color="#FACB7C"/>
      <stop offset="1" stop-color="#D87CEE"/>
    </linearGradient>
    <linearGradient id="paint21_linear_380_1422" x1="64.1742" y1="24.9296" x2="64.1742" y2="122.712" gradientUnits="userSpaceOnUse">
      <stop stop-color="#FACB7C"/>
      <stop offset="1" stop-color="#D87CEE"/>
    </linearGradient>
    <linearGradient id="paint22_linear_380_1422" x1="60.6084" y1="23.7988" x2="60.6084" y2="119.71" gradientUnits="userSpaceOnUse">
      <stop stop-color="#FACB7C"/>
      <stop offset="1" stop-color="#D87CEE"/>
    </linearGradient>
    <linearGradient id="paint23_linear_380_1422" x1="56.9569" y1="22.9878" x2="56.9569" y2="116.294" gradientUnits="userSpaceOnUse">
      <stop stop-color="#FACB7C"/>
      <stop offset="1" stop-color="#D87CEE"/>
    </linearGradient>
    <linearGradient id="paint24_linear_380_1422" x1="53.2463" y1="22.4964" x2="53.2463" y2="112.488" gradientUnits="userSpaceOnUse">
      <stop stop-color="#FACB7C"/>
      <stop offset="1" stop-color="#D87CEE"/>
    </linearGradient>
    <linearGradient id="paint25_linear_380_1422" x1="49.5122" y1="22.3365" x2="49.5122" y2="108.326" gradientUnits="userSpaceOnUse">
      <stop stop-color="#FACB7C"/>
      <stop offset="1" stop-color="#D87CEE"/>
    </linearGradient>
    <clipPath id="clip0_380_1422">
      <rect width="115" height="131" fill="white"/>
    </clipPath>
  </defs>
</svg>