<svg xmlns="http://www.w3.org/2000/svg" width="135" height="119" viewBox="0 0 135 119" fill="none">
  <g clip-path="url(#clip0_380_1455)">
    <path d="M31.8935 109.946C31.1423 109.946 30.4627 109.731 29.9046 109.313C29.0247 108.652 28.5597 107.552 28.5954 106.214L30.4412 37.5668C30.5128 34.8054 32.7377 31.857 35.3991 30.9869L101.64 9.30541C102.963 8.87394 104.194 9.01058 105.095 9.68655C105.975 10.3481 106.44 11.4484 106.405 12.786L104.559 81.4332C104.487 84.1946 102.255 87.143 99.5938 88.0131L33.353 109.695C32.845 109.86 32.3514 109.946 31.8864 109.946H31.8935ZM103.107 9.29103C102.663 9.29103 102.198 9.37014 101.711 9.52834L35.4706 31.2098C32.8951 32.0512 30.7417 34.9061 30.6701 37.574L28.8244 106.221C28.7886 107.48 29.225 108.508 30.0406 109.126C30.8848 109.759 32.0366 109.882 33.2814 109.472L99.5223 87.7902C102.098 86.9488 104.251 84.0939 104.323 81.426L106.169 12.7788C106.204 11.5203 105.768 10.492 104.952 9.87352C104.437 9.48519 103.801 9.29103 103.099 9.29103H103.107Z" fill="url(#paint0_linear_380_1455)"/>
    <path d="M28.023 108.105C27.1502 108.105 26.3704 107.832 25.7766 107.3C24.9252 106.545 24.5389 105.358 24.6963 103.963L32.4872 33.6332C32.802 30.8071 35.2702 27.9738 38.0031 27.3194L105.875 11.0313C107.206 10.7149 108.401 10.9522 109.245 11.7001C110.096 12.4552 110.482 13.6417 110.325 15.0368L102.534 85.3667C102.219 88.1929 99.744 91.0262 97.0182 91.6806L29.1462 107.969C28.7599 108.062 28.3879 108.105 28.023 108.105ZM106.984 11.132C106.648 11.132 106.29 11.1751 105.918 11.2614L38.046 27.5495C35.4061 28.1823 33.0166 30.9222 32.7162 33.6548L24.9252 103.985C24.7821 105.301 25.1327 106.415 25.9268 107.113C26.7066 107.81 27.8298 108.026 29.0818 107.724L96.9538 91.4361C99.5937 90.8033 101.983 88.0635 102.284 85.3308L110.075 15.0008C110.218 13.6849 109.867 12.5702 109.073 11.8727C108.522 11.3837 107.8 11.132 106.984 11.132Z" fill="url(#paint1_linear_380_1455)"/>
    <path d="M24.3457 105.869C23.3298 105.869 22.457 105.524 21.8274 104.869C21.0118 104.014 20.7185 102.748 20.9975 101.302L34.8552 29.7788C35.4133 26.9023 38.1247 24.22 40.8934 23.7957L109.917 13.203C111.248 13.0017 112.4 13.3325 113.18 14.1451C113.995 15.0008 114.288 16.2665 114.009 17.7119L100.152 89.2356C99.5937 92.1121 96.8823 94.7944 94.1136 95.2187L25.0897 105.811C24.8393 105.847 24.5889 105.869 24.3457 105.869ZM110.654 13.3756C110.425 13.3756 110.189 13.3972 109.953 13.4332L40.9292 24.0258C38.2463 24.4357 35.6279 27.0317 35.0913 29.8147L21.2336 101.338C20.9689 102.705 21.2408 103.891 21.9991 104.69C22.7217 105.445 23.802 105.754 25.0468 105.56L94.0707 94.967C96.7535 94.5571 99.3719 91.9611 99.9085 89.1781L113.766 17.6544C114.031 16.2881 113.759 15.1015 113.001 14.3033C112.421 13.6992 111.606 13.3756 110.654 13.3756Z" fill="url(#paint2_linear_380_1455)"/>
    <path d="M20.8974 103.237C19.7312 103.237 18.7439 102.805 18.1001 102.014C17.3417 101.072 17.1342 99.6988 17.542 98.2318L37.5524 26.025C38.3536 23.1269 41.2869 20.61 44.0913 20.423L113.773 15.7775C115.09 15.6912 116.199 16.1227 116.9 16.9928C117.658 17.9349 117.866 19.3084 117.458 20.7754L97.4474 92.9822C96.6462 95.8803 93.7129 98.3972 90.9085 98.5842L21.2264 103.23C21.112 103.237 21.0047 103.244 20.8974 103.244V103.237ZM114.102 16.0076C114.002 16.0076 113.895 16.0076 113.788 16.0148L44.1056 20.6603C41.4013 20.8401 38.5683 23.2707 37.7885 26.0753L17.7781 98.2821C17.3918 99.67 17.5778 100.964 18.2861 101.842C18.9371 102.647 19.9816 103.05 21.205 102.964L90.887 98.3181C93.5913 98.1383 96.4244 95.7077 97.2042 92.9031L117.215 20.6963C117.601 19.3084 117.415 18.014 116.707 17.1366C116.113 16.3959 115.19 16.0004 114.095 16.0004L114.102 16.0076Z" fill="url(#paint3_linear_380_1455)"/>
    <path d="M87.5461 101.748C87.5103 101.748 87.4745 101.748 87.4388 101.748L17.6208 100.231C16.3259 100.202 15.2671 99.6773 14.6375 98.7496C13.9292 97.7141 13.8362 96.2614 14.3799 94.7657L40.5644 22.415C41.6017 19.5457 44.678 17.2517 47.4539 17.2517C47.4896 17.2517 47.5254 17.2517 47.5612 17.2517L117.379 18.769C118.674 18.7978 119.733 19.3228 120.362 20.2504C121.071 21.286 121.164 22.7386 120.62 24.2343L94.4284 96.585C93.3911 99.4543 90.3148 101.748 87.5389 101.748H87.5461ZM47.461 17.5034C44.7782 17.5034 41.8092 19.7255 40.8076 22.5013L14.616 94.8519C14.1009 96.2686 14.1868 97.6349 14.845 98.6058C15.4316 99.4615 16.4189 99.9505 17.628 99.9793L87.4459 101.497C90.1645 101.554 93.1908 99.3177 94.2066 96.5059L120.398 24.1552C120.913 22.7386 120.827 21.3723 120.169 20.4014C119.583 19.5457 118.595 19.0567 117.386 19.0279L47.5683 17.5106C47.5683 17.5106 47.4968 17.5106 47.461 17.5106V17.5034Z" fill="url(#paint4_linear_380_1455)"/>
    <path d="M84.2624 104.718C84.0693 104.718 83.8832 104.711 83.6901 104.69L14.2727 96.8223C13.0136 96.6785 12.012 96.0601 11.454 95.0821C10.8101 93.9459 10.8316 92.4285 11.5112 90.9255L43.884 18.9776C45.1861 16.0867 48.5128 13.9941 51.3101 14.3105L120.727 22.1777C121.987 22.3215 122.988 22.9399 123.546 23.9179C124.19 25.0541 124.169 26.5715 123.489 28.0745L91.1233 100.015C89.9071 102.712 86.9309 104.711 84.2696 104.711L84.2624 104.718ZM50.7306 14.5406C48.1623 14.5406 45.2863 16.4822 44.113 19.0855L11.7473 91.0262C11.1034 92.4573 11.0748 93.8883 11.6758 94.9526C12.1909 95.8587 13.1209 96.434 14.3014 96.5634L83.7187 104.431C86.4087 104.733 89.6281 102.712 90.8872 99.9146L123.253 27.9738C123.897 26.5427 123.925 25.1117 123.324 24.0474C122.809 23.1413 121.879 22.566 120.699 22.4366L51.2815 14.5694C51.1026 14.5478 50.9166 14.5406 50.7378 14.5406H50.7306Z" fill="url(#paint5_linear_380_1455)"/>
    <path d="M80.7638 107.473C80.4061 107.473 80.0556 107.437 79.7122 107.365L11.2392 93.0182C10.0158 92.7593 9.07863 92.0546 8.60645 91.0262C8.04127 89.7965 8.18435 88.2289 9.00709 86.7187L47.4824 15.7559C49.0278 12.9082 52.5333 11.0529 55.2877 11.6354L123.761 25.9818C124.984 26.2407 125.921 26.9454 126.393 27.9738C126.959 29.2035 126.816 30.7712 125.993 32.2813L87.5103 103.237C86.1581 105.732 83.2964 107.465 80.7567 107.465L80.7638 107.473ZM54.2289 11.7864C51.7821 11.7864 49.0206 13.4619 47.7114 15.8782L9.22887 86.8338C8.44906 88.272 8.30597 89.7534 8.84254 90.9112C9.27895 91.8676 10.1518 92.522 11.2964 92.7593L79.7694 107.106C82.4236 107.659 85.8004 105.869 87.2956 103.115L125.778 32.1591C126.558 30.7208 126.701 29.2394 126.164 28.0816C125.728 27.1252 124.855 26.4708 123.711 26.2335L55.2376 11.8871C54.9085 11.8151 54.5723 11.7864 54.2289 11.7864Z" fill="url(#paint6_linear_380_1455)"/>
    <path d="M77.0652 109.982C76.5286 109.982 76.0064 109.91 75.5128 109.752L8.54216 88.8401C7.36172 88.4734 6.49606 87.6751 6.10257 86.5965C5.62324 85.2733 5.90226 83.6624 6.85377 82.1667L51.353 12.7716C53.1415 9.98139 56.7902 8.39932 59.4873 9.24069L126.458 30.1599C127.638 30.5266 128.504 31.3249 128.897 32.4036C129.377 33.7267 129.098 35.3376 128.146 36.8333L83.6614 106.228C82.2019 108.508 79.4905 109.982 77.0795 109.982H77.0652ZM57.9277 9.27665C55.6026 9.27665 52.9913 10.7077 51.5748 12.9154L7.0827 82.3105C6.17412 83.7344 5.90226 85.2589 6.35297 86.503C6.71068 87.5025 7.51911 88.2432 8.62086 88.5884L75.5915 109.508C78.1884 110.32 81.7011 108.781 83.4325 106.085L127.917 36.6895C128.826 35.2657 129.098 33.7411 128.647 32.497C128.289 31.4975 127.481 30.7568 126.379 30.4116L59.4086 9.49239C58.9364 9.34856 58.4356 9.27665 57.9277 9.27665Z" fill="url(#paint7_linear_380_1455)"/>
    <path d="M73.1948 112.233C72.4651 112.233 71.7569 112.104 71.1201 111.838L6.22426 84.3025C5.0939 83.8206 4.29978 82.9361 3.9993 81.8143C3.62013 80.4048 4.03507 78.7652 5.12251 77.3054L55.4596 10.0533C57.4842 7.34941 61.2616 6.05499 63.8801 7.16244L128.783 34.6975C129.913 35.1794 130.708 36.0639 131.008 37.1857C131.387 38.5952 130.972 40.2348 129.885 41.6946L79.5478 108.947C78.0168 110.996 75.477 112.233 73.202 112.233H73.1948ZM61.7982 7.0258C59.609 7.0258 57.1551 8.22673 55.6742 10.2115L5.33714 77.4636C4.29263 78.8587 3.89914 80.4192 4.25685 81.7424C4.53587 82.7851 5.27275 83.6049 6.32442 84.0508L71.2274 111.586C73.7386 112.65 77.3729 111.392 79.326 108.781L129.663 41.5292C130.708 40.1341 131.101 38.5736 130.743 37.2504C130.464 36.2077 129.727 35.3879 128.676 34.942L63.7728 7.40694C63.1646 7.14805 62.4921 7.0258 61.7982 7.0258Z" fill="url(#paint8_linear_380_1455)"/>
    <path d="M69.1742 114.196C68.237 114.196 67.3356 113.995 66.5701 113.578L4.30694 79.434C3.22665 78.8443 2.51838 77.8735 2.31091 76.7014C2.0462 75.22 2.59708 73.5588 3.82045 72.1493L59.795 7.62986C62.0486 5.03384 65.9262 4.04146 68.4373 5.42217L130.7 39.5588C131.781 40.1485 132.489 41.1193 132.696 42.2915C132.961 43.7728 132.41 45.434 131.187 46.8435L75.2123 111.37C73.6527 113.168 71.3062 114.196 69.1742 114.196ZM65.8189 5.0698C63.7728 5.0698 61.5049 6.06937 59.9953 7.80964L4.02077 72.3363C2.85463 73.681 2.32522 75.2559 2.57562 76.6582C2.76878 77.7441 3.42697 78.643 4.43571 79.1967L66.6988 113.333C69.1098 114.657 72.8371 113.693 75.0049 111.183L130.979 46.6565C132.146 45.3118 132.675 43.7369 132.425 42.3346C132.231 41.2487 131.573 40.3498 130.564 39.7961L68.3014 5.65948C67.5716 5.25677 66.7131 5.0698 65.8189 5.0698Z" fill="url(#paint9_linear_380_1455)"/>
    <path d="M65.0247 115.85C63.8658 115.85 62.764 115.555 61.8769 114.951L2.8117 74.2635C1.7958 73.5588 1.17338 72.5089 1.06607 71.2936C0.922985 69.7403 1.61694 68.0863 2.96194 66.7487L64.3165 5.53723C66.7847 3.07064 70.7338 2.40905 73.1233 4.04865L132.196 44.7365C133.212 45.4412 133.834 46.4911 133.941 47.7064C134.084 49.2597 133.39 50.9137 132.045 52.2513L70.6909 113.463C69.1384 115.009 66.9993 115.85 65.0319 115.85H65.0247ZM69.9683 3.42301C68.0724 3.42301 66.012 4.23562 64.5025 5.73858L3.14795 66.9429C1.86019 68.2229 1.202 69.805 1.33793 71.272C1.43809 72.401 2.01758 73.379 2.96909 74.0334L62.0414 114.721C64.3236 116.296 68.1154 115.642 70.4977 113.269L131.852 52.0571C133.14 50.7771 133.798 49.195 133.669 47.728C133.569 46.599 132.99 45.621 132.038 44.9666L72.9659 4.27876C72.1217 3.69628 71.0772 3.42301 69.9683 3.42301Z" fill="url(#paint10_linear_380_1455)"/>
    <path d="M60.7749 117.173C59.3799 117.173 58.0706 116.771 57.0905 115.937L1.77413 68.8126C0.822625 68 0.293213 66.8638 0.293213 65.6125C0.293213 64.0089 1.11595 62.3693 2.57541 61.118L69.0023 3.79695C71.6779 1.48858 75.67 1.15778 77.9093 3.06345L133.226 50.1802C134.177 50.9928 134.707 52.129 134.707 53.3803C134.707 54.9839 133.884 56.6235 132.424 57.8748L65.9903 115.196C64.488 116.497 62.5635 117.166 60.7678 117.166L60.7749 117.173ZM74.2248 2.09983C72.5007 2.09983 70.6406 2.75423 69.1883 4.0055L2.75426 61.3266C1.35919 62.5275 0.565073 64.088 0.572227 65.6125C0.572227 66.7847 1.06587 67.8418 1.96014 68.6041L57.2765 115.721C59.4156 117.54 63.2431 117.209 65.8186 114.987L132.253 57.6662C133.648 56.4653 134.442 54.9048 134.435 53.3803C134.435 52.2081 133.941 51.151 133.047 50.3888L77.7304 3.27919C76.8004 2.48816 75.5484 2.09983 74.2248 2.09983Z" fill="url(#paint11_linear_380_1455)"/>
    <path d="M56.4467 118.151C54.8084 118.151 53.2774 117.605 52.2328 116.519L1.21614 63.1316C0.33617 62.2111 -0.0930825 60.9886 0.0142308 59.7014C0.150161 58.0618 1.12313 56.4581 2.6756 55.3075L73.8242 2.43063C76.6931 0.302031 80.6994 0.323604 82.767 2.48096L133.791 55.8685C134.671 56.7889 135.1 58.0114 134.993 59.2987C134.857 60.9382 133.884 62.5419 132.331 63.6925L61.1828 116.562C59.7591 117.619 58.0635 118.144 56.4538 118.144L56.4467 118.151ZM78.5532 1.12902C77.0079 1.12902 75.3624 1.63959 73.9888 2.66074L2.8473 55.5305C1.35922 56.6379 0.436329 58.1624 0.300399 59.7229C0.20024 60.9311 0.593722 62.0745 1.42361 62.9374L52.4475 116.325C54.4149 118.382 58.2638 118.396 61.0182 116.346L132.167 63.4767C133.655 62.3693 134.578 60.8448 134.714 59.2843C134.814 58.0762 134.42 56.9327 133.591 56.0698L82.5595 2.68232C81.5723 1.64679 80.1128 1.12902 78.5532 1.12902Z" fill="url(#paint12_linear_380_1455)"/>
    <path d="M52.0612 118.763C50.1797 118.763 48.4126 118.051 47.3466 116.67L1.15184 57.2348C0.350563 56.1992 0.0286236 54.9048 0.257558 53.5744C0.543727 51.9133 1.64548 50.3672 3.28379 49.3316L78.7464 1.45981C81.787 -0.467428 85.7862 -0.0862943 87.6534 2.32276L133.848 61.758C134.649 62.7936 134.971 64.088 134.742 65.4184C134.456 67.0795 133.355 68.6256 131.716 69.6612L56.2536 117.533C54.9515 118.36 53.4706 118.763 52.0612 118.763ZM82.946 0.517767C81.5867 0.517767 80.163 0.906091 78.9038 1.70431L3.43403 49.5761C1.86726 50.5685 0.815587 52.0427 0.536573 53.6248C0.321946 54.8689 0.615269 56.0842 1.37362 57.055L47.5684 116.49C49.3498 118.784 53.1773 119.137 56.0962 117.289L131.559 69.4167C133.126 68.4243 134.177 66.9501 134.456 65.368C134.671 64.1239 134.378 62.9086 133.619 61.9378L87.4316 2.50254C86.4157 1.20093 84.7417 0.517767 82.946 0.517767Z" fill="url(#paint13_linear_380_1455)"/>
    <path d="M47.6471 119C45.5152 119 43.5191 118.08 42.4675 116.397L1.59546 51.1798C0.880037 50.0364 0.679719 48.6557 1.03743 47.3037C1.47384 45.6426 2.70436 44.1684 4.40706 43.2623L83.733 0.913283C86.9309 -0.798224 90.8872 -0.0359561 92.5398 2.60322L133.405 67.8202C134.12 68.9636 134.32 70.3443 133.963 71.6963C133.526 73.3574 132.296 74.8316 130.593 75.7377L51.2672 118.087C50.1082 118.705 48.849 119 47.64 119H47.6471ZM87.3602 0.287648C86.194 0.287648 84.985 0.575296 83.8689 1.17217L4.54299 43.5212C2.91183 44.3913 1.73854 45.8008 1.31644 47.3828C0.980196 48.6557 1.16621 49.9501 1.8387 51.0288L42.7036 116.246C44.2775 118.763 48.0549 119.475 51.1241 117.835L130.45 75.4861C132.081 74.6159 133.254 73.2064 133.677 71.6244C134.013 70.3515 133.827 69.0571 133.154 67.9784L92.2894 2.76142C91.2878 1.16497 89.392 0.294839 87.3602 0.294839V0.287648Z" fill="url(#paint14_linear_380_1455)"/>
    <path d="M43.2186 118.842C40.8291 118.842 38.6184 117.684 37.624 115.67L2.56834 45.0025C1.94593 43.7441 1.87438 42.2915 2.36802 40.9251C2.96182 39.2855 4.30682 37.9048 6.0596 37.1354L88.748 0.798223C92.089 -0.668782 95.9594 0.467428 97.376 3.32953L132.432 73.9975C133.054 75.2559 133.126 76.7085 132.632 78.0749C132.038 79.7145 130.693 81.0952 128.94 81.8646L46.2448 118.195C45.2575 118.633 44.2202 118.835 43.2114 118.835L43.2186 118.842ZM91.7885 0.453046C90.8227 0.453046 89.8211 0.654399 88.8696 1.07149L6.17407 37.4014C4.49283 38.1421 3.21222 39.4581 2.64704 41.0186C2.18202 42.313 2.2464 43.6794 2.83305 44.8659L37.8887 115.534C39.2408 118.259 42.9396 119.331 46.1375 117.921L128.833 81.5914C130.514 80.8507 131.795 79.5347 132.36 77.9742C132.825 76.6798 132.761 75.3135 132.174 74.1269L97.1184 3.46616C96.1741 1.5533 94.0636 0.460237 91.7885 0.460237V0.453046Z" fill="url(#paint15_linear_380_1455)"/>
    <path d="M38.8189 118.274C36.179 118.274 33.7608 116.835 32.8666 114.484L4.06369 38.739C3.54143 37.3655 3.60582 35.8481 4.2497 34.4674C4.99374 32.871 6.43889 31.5981 8.22029 30.9725L93.7561 1.13621C97.2115 -0.071912 100.975 1.44543 102.141 4.51607L130.937 80.2538C131.459 81.6273 131.394 83.1447 130.75 84.5254C130.014 86.1218 128.561 87.3947 126.78 88.0203L41.2513 117.864C40.4429 118.144 39.6201 118.281 38.8189 118.281V118.274ZM96.1885 1.02115C95.4158 1.02115 94.6289 1.15059 93.8562 1.41667L8.32045 31.2602C6.61059 31.857 5.22983 33.0723 4.52156 34.5969C3.91345 35.9057 3.85622 37.3367 4.34986 38.6311L33.1456 114.369C34.2545 117.288 37.8459 118.72 41.1511 117.569L126.68 87.7255C128.39 87.1286 129.77 85.9133 130.479 84.3887C131.087 83.0799 131.144 81.6489 130.65 80.3545L101.862 4.62394C101.01 2.38748 98.7068 1.02115 96.1956 1.02115H96.1885Z" fill="url(#paint16_linear_380_1455)"/>
    <path d="M34.4689 117.296C31.5786 117.296 28.9673 115.534 28.2304 112.837L6.10245 32.4539C5.69465 30.9725 5.90213 29.3976 6.69624 28.0169C7.57621 26.478 9.11437 25.3274 10.9172 24.86L98.7137 1.93443C102.262 1.00677 105.882 2.90525 106.777 6.16286L128.897 86.5533C129.305 88.0347 129.098 89.6096 128.304 90.9903C127.424 92.5292 125.885 93.6798 124.083 94.1472L36.2861 117.073C35.678 117.231 35.0627 117.31 34.4617 117.31L34.4689 117.296ZM100.538 2.00635C99.9657 2.00635 99.3791 2.07826 98.7924 2.22927L10.9959 25.1548C9.27176 25.6079 7.80515 26.7009 6.96095 28.1679C6.20976 29.4767 6.00944 30.9653 6.39577 32.3676L28.5166 112.758C29.3679 115.857 32.8234 117.655 36.2074 116.771L124.004 93.8452C125.728 93.3921 127.195 92.2991 128.039 90.8321C128.79 89.5233 128.99 88.0347 128.604 86.6324L106.483 6.24196C105.775 3.6819 103.292 2.00635 100.538 2.00635Z" fill="url(#paint17_linear_380_1455)"/>
    <path d="M30.2051 115.901C27.0572 115.901 24.2885 113.765 23.7448 110.73L8.67804 26.176C8.39188 24.5867 8.75674 22.9615 9.70825 21.6024C10.7385 20.121 12.3124 19.1358 14.1367 18.8194L103.586 3.20008C107.206 2.56726 110.647 4.83968 111.255 8.26988L126.322 92.824C126.608 94.4133 126.243 96.0385 125.292 97.3976C124.262 98.879 122.688 99.8642 120.863 100.181L31.4141 115.793C31.0063 115.865 30.5986 115.901 30.2051 115.901ZM104.795 3.40863C104.416 3.40863 104.029 3.44459 103.636 3.50931L14.1939 19.1214C12.4483 19.4234 10.9459 20.3727 9.9658 21.7822C9.06437 23.0694 8.72097 24.6155 8.98568 26.1256L24.0524 110.68C24.6319 113.937 27.9157 116.095 31.3641 115.498L120.813 99.8858C122.559 99.5838 124.061 98.6345 125.041 97.225C125.943 95.9378 126.286 94.3917 126.014 92.8816L110.948 8.32741C110.432 5.43655 107.793 3.40863 104.795 3.40863Z" fill="url(#paint18_linear_380_1455)"/>
    <path d="M26.0628 114.081C24.5103 114.081 23.0151 113.556 21.8132 112.571C20.4539 111.456 19.6169 109.889 19.4666 108.156L11.7901 19.9628C11.6399 18.2297 12.1908 16.5398 13.3355 15.2094C14.4801 13.879 16.0898 13.0592 17.8641 12.901L108.322 4.94755C110.096 4.78934 111.82 5.32149 113.18 6.42893C114.539 7.54357 115.376 9.11125 115.526 10.8443L123.203 99.0444C123.51 102.618 120.785 105.783 117.129 106.106L26.6709 114.06C26.4634 114.074 26.2631 114.088 26.0628 114.088V114.081ZM108.937 5.23519C108.744 5.23519 108.551 5.24239 108.358 5.26396L17.8998 13.2102C16.2115 13.3613 14.6733 14.1379 13.5787 15.4107C12.4841 16.6764 11.9618 18.2872 12.1049 19.934L19.7814 108.134C19.9245 109.781 20.7186 111.269 22.0135 112.327C23.3084 113.384 24.9539 113.887 26.6495 113.743L117.107 105.79C120.599 105.481 123.196 102.467 122.895 99.066L115.219 10.8659C115.076 9.21912 114.281 7.73054 112.986 6.67344C111.842 5.73858 110.418 5.23519 108.937 5.23519Z" fill="url(#paint19_linear_380_1455)"/>
    <path d="M112.901 111.838H22.0994C18.4221 111.838 15.4316 108.832 15.4316 105.135V13.8646C15.4316 10.1684 18.4221 7.16244 22.0994 7.16244H112.908C116.585 7.16244 119.576 10.1684 119.576 13.8646V105.143C119.576 108.839 116.585 111.845 112.908 111.845L112.901 111.838ZM22.0994 7.47885C18.601 7.47885 15.7536 10.3409 15.7536 13.8574V105.135C15.7536 108.652 18.601 111.514 22.0994 111.514H112.908C116.406 111.514 119.254 108.652 119.254 105.135V13.8646C119.254 10.3481 116.406 7.48604 112.908 7.48604H22.0994V7.47885Z" fill="url(#paint20_linear_380_1455)"/>
  </g>
  <defs>
    <linearGradient id="paint0_linear_380_1455" x1="67.5" y1="9.05804" x2="67.5" y2="109.946" gradientUnits="userSpaceOnUse">
      <stop stop-color="#FACB7C"/>
      <stop offset="1" stop-color="#D387FF"/>
    </linearGradient>
    <linearGradient id="paint1_linear_380_1455" x1="67.5107" y1="10.8947" x2="67.5107" y2="108.105" gradientUnits="userSpaceOnUse">
      <stop stop-color="#FACB7C"/>
      <stop offset="1" stop-color="#D387FF"/>
    </linearGradient>
    <linearGradient id="paint2_linear_380_1455" x1="67.5035" y1="13.1456" x2="67.5035" y2="105.869" gradientUnits="userSpaceOnUse">
      <stop stop-color="#FACB7C"/>
      <stop offset="1" stop-color="#D387FF"/>
    </linearGradient>
    <linearGradient id="paint3_linear_380_1455" x1="67.4999" y1="15.7667" x2="67.4999" y2="103.244" gradientUnits="userSpaceOnUse">
      <stop stop-color="#FACB7C"/>
      <stop offset="1" stop-color="#D387FF"/>
    </linearGradient>
    <linearGradient id="paint4_linear_380_1455" x1="67.5" y1="17.2517" x2="67.5" y2="101.748" gradientUnits="userSpaceOnUse">
      <stop stop-color="#FACB7C"/>
      <stop offset="1" stop-color="#D387FF"/>
    </linearGradient>
    <linearGradient id="paint5_linear_380_1455" x1="67.5001" y1="14.2789" x2="67.5001" y2="104.718" gradientUnits="userSpaceOnUse">
      <stop stop-color="#FACB7C"/>
      <stop offset="1" stop-color="#D387FF"/>
    </linearGradient>
    <linearGradient id="paint6_linear_380_1455" x1="67.4999" y1="11.5284" x2="67.4999" y2="107.473" gradientUnits="userSpaceOnUse">
      <stop stop-color="#FACB7C"/>
      <stop offset="1" stop-color="#D387FF"/>
    </linearGradient>
    <linearGradient id="paint7_linear_380_1455" x1="67.5" y1="9.0148" x2="67.5" y2="109.982" gradientUnits="userSpaceOnUse">
      <stop stop-color="#FACB7C"/>
      <stop offset="1" stop-color="#D387FF"/>
    </linearGradient>
    <linearGradient id="paint8_linear_380_1455" x1="67.5037" y1="6.76635" x2="67.5037" y2="112.233" gradientUnits="userSpaceOnUse">
      <stop stop-color="#FACB7C"/>
      <stop offset="1" stop-color="#D387FF"/>
    </linearGradient>
    <linearGradient id="paint9_linear_380_1455" x1="67.5037" y1="4.79925" x2="67.5037" y2="114.196" gradientUnits="userSpaceOnUse">
      <stop stop-color="#FACB7C"/>
      <stop offset="1" stop-color="#D387FF"/>
    </linearGradient>
    <linearGradient id="paint10_linear_380_1455" x1="67.5037" y1="3.14865" x2="67.5037" y2="115.85" gradientUnits="userSpaceOnUse">
      <stop stop-color="#FACB7C"/>
      <stop offset="1" stop-color="#D387FF"/>
    </linearGradient>
    <linearGradient id="paint11_linear_380_1455" x1="67.4999" y1="1.8248" x2="67.4999" y2="117.173" gradientUnits="userSpaceOnUse">
      <stop stop-color="#FACB7C"/>
      <stop offset="1" stop-color="#D387FF"/>
    </linearGradient>
    <linearGradient id="paint12_linear_380_1455" x1="67.5035" y1="0.848449" x2="67.5035" y2="118.151" gradientUnits="userSpaceOnUse">
      <stop stop-color="#FACB7C"/>
      <stop offset="1" stop-color="#D387FF"/>
    </linearGradient>
    <linearGradient id="paint13_linear_380_1455" x1="67.5" y1="0.231817" x2="67.5" y2="118.763" gradientUnits="userSpaceOnUse">
      <stop stop-color="#FACB7C"/>
      <stop offset="1" stop-color="#D387FF"/>
    </linearGradient>
    <linearGradient id="paint14_linear_380_1455" x1="67.5001" y1="-0.00120833" x2="67.5001" y2="119" gradientUnits="userSpaceOnUse">
      <stop stop-color="#FACB7C"/>
      <stop offset="1" stop-color="#D387FF"/>
    </linearGradient>
    <linearGradient id="paint15_linear_380_1455" x1="67.5" y1="0.157017" x2="67.5" y2="118.842" gradientUnits="userSpaceOnUse">
      <stop stop-color="#FACB7C"/>
      <stop offset="1" stop-color="#D387FF"/>
    </linearGradient>
    <linearGradient id="paint16_linear_380_1455" x1="67.5001" y1="0.720793" x2="67.5001" y2="118.281" gradientUnits="userSpaceOnUse">
      <stop stop-color="#FACB7C"/>
      <stop offset="1" stop-color="#D387FF"/>
    </linearGradient>
    <linearGradient id="paint17_linear_380_1455" x1="67.4999" y1="1.69912" x2="67.4999" y2="117.31" gradientUnits="userSpaceOnUse">
      <stop stop-color="#FACB7C"/>
      <stop offset="1" stop-color="#D387FF"/>
    </linearGradient>
    <linearGradient id="paint18_linear_380_1455" x1="67.5" y1="3.09433" x2="67.5" y2="115.901" gradientUnits="userSpaceOnUse">
      <stop stop-color="#FACB7C"/>
      <stop offset="1" stop-color="#D387FF"/>
    </linearGradient>
    <linearGradient id="paint19_linear_380_1455" x1="67.4961" y1="4.92018" x2="67.4961" y2="114.088" gradientUnits="userSpaceOnUse">
      <stop stop-color="#FACB7C"/>
      <stop offset="1" stop-color="#D387FF"/>
    </linearGradient>
    <linearGradient id="paint20_linear_380_1455" x1="67.5036" y1="7.16244" x2="67.5036" y2="111.845" gradientUnits="userSpaceOnUse">
      <stop stop-color="#FACB7C"/>
      <stop offset="1" stop-color="#D387FF"/>
    </linearGradient>
    <clipPath id="clip0_380_1455">
      <rect width="135" height="119" fill="white"/>
    </clipPath>
  </defs>
</svg>