<svg xmlns="http://www.w3.org/2000/svg" width="121" height="121" viewBox="0 0 121 121" fill="none">
  <g clip-path="url(#clip0_428_111)">
    <path d="M35.3448 94.4343C33.0341 94.4343 31.1937 93.7894 29.9242 92.4931C26.8075 89.3092 27.4792 82.4444 31.7713 73.6519C40.1474 56.4967 59.8081 36.5942 75.593 29.2861C82.8004 25.9478 88.3016 25.6724 91.0757 28.5069C94.1924 31.6908 93.5207 38.5556 89.2285 47.3481C80.8524 64.5033 61.1918 84.4058 45.4068 91.7139C41.4976 93.5275 38.0853 94.4343 35.3448 94.4343ZM75.7408 29.6085C60.0163 36.8898 40.4363 56.7183 32.087 73.8131C27.8621 82.4579 27.1702 89.1816 30.1727 92.2513C32.8393 94.9716 38.1928 94.6694 45.2524 91.3982C60.9769 84.117 80.5569 64.2884 88.9061 47.1936C93.1311 38.5489 93.823 31.8251 90.8205 28.7555C88.1538 26.0351 82.8004 26.3374 75.7408 29.6085Z" fill="white"/>
    <path d="M33.6859 94.8977C30.9856 94.8977 28.8832 94.1186 27.5264 92.5737C24.3492 88.9465 25.518 81.457 30.7304 72.0331C40.5708 54.2532 61.8905 34.5657 78.2531 28.1442C85.4403 25.3231 90.8475 25.4238 93.4806 28.4263C96.6577 32.0535 95.4889 39.543 90.2766 48.9669C80.4361 66.7468 59.1164 86.4343 42.7538 92.8558C39.2811 94.2193 36.2182 94.8977 33.6859 94.8977ZM87.3144 26.4515C84.8358 26.4515 81.8199 27.1232 78.3808 28.4734C62.0853 34.8679 40.8462 54.4816 31.0394 72.201C25.9009 81.4906 24.7187 88.8256 27.7883 92.3318C30.3139 95.2134 35.58 95.2806 42.6195 92.5199C58.9149 86.1253 80.154 66.505 89.9609 48.7923C95.0993 39.5027 96.2816 32.1677 93.2119 28.6614C91.9222 27.1904 89.9138 26.4515 87.3211 26.4515H87.3144Z" fill="white"/>
    <path d="M32.161 95.2537C28.9772 95.2537 26.5658 94.3134 25.1149 92.4595C21.8975 88.3352 23.617 80.2211 29.8302 70.1859C41.182 51.8687 64.1339 32.564 80.9936 27.1635C88.1136 24.8798 93.3999 25.3701 95.8785 28.5472C99.0959 32.6715 97.3764 40.7856 91.1631 50.8208C79.8114 69.1381 56.8594 88.4427 39.9998 93.8432C37.051 94.7903 34.4112 95.2605 32.161 95.2605V95.2537ZM88.8391 26.1023C86.6292 26.1023 84.0297 26.5657 81.1078 27.5061C64.3153 32.8864 41.4506 52.1172 30.1392 70.374C24.0066 80.2748 22.2803 88.2412 25.397 92.2445C27.7748 95.2941 32.9268 95.7374 39.8923 93.5073C56.6848 88.127 79.5495 68.8962 90.8609 50.6394C96.9935 40.7386 98.7198 32.7722 95.6031 28.7689C94.2194 27.0023 91.902 26.109 88.8391 26.109V26.1023Z" fill="white"/>
    <path d="M30.7371 95.5224C26.9957 95.5224 24.2686 94.3805 22.7103 92.1236C19.4794 87.4553 21.8102 78.6963 29.1048 68.0969C42.0082 49.3363 66.5588 30.6161 83.8282 26.3642C90.9415 24.6111 95.9457 25.4843 98.2966 28.8831C101.528 33.5514 99.1967 42.3104 91.9021 52.9098C78.9987 71.6704 54.4481 90.3906 37.1787 94.6425C34.7874 95.2336 32.638 95.5224 30.7438 95.5224H30.7371ZM90.2631 25.8336C88.4025 25.8336 86.2732 26.1224 83.9088 26.7068C66.7133 30.9385 42.2567 49.5983 29.3937 68.2984C22.193 78.7702 19.8622 87.3814 22.9991 91.9221C25.256 95.1866 30.1325 96.0128 37.0913 94.2932C54.2869 90.0615 78.7435 71.4017 91.6065 52.7016C98.8071 42.2298 101.138 33.6186 98.0011 29.0779C96.5099 26.9217 93.8836 25.8336 90.2698 25.8336H90.2631Z" fill="white"/>
    <path d="M29.622 95.6702C25.1485 95.6702 21.9714 94.2798 20.319 91.5594C17.1217 86.2731 20.1175 76.876 28.5473 65.7661C43.0359 46.6764 69.1247 28.7286 86.6964 25.7597C93.6619 24.5842 98.4914 25.8604 100.661 29.4473C103.858 34.7336 100.863 44.1307 92.4327 55.2406C77.9441 74.3303 51.8553 92.2781 34.2836 95.247C32.6044 95.5291 31.046 95.6702 29.6153 95.6702H29.622ZM91.3781 25.6858C89.9743 25.6858 88.4361 25.8269 86.7702 26.109C69.2725 29.0645 43.2844 46.9518 28.8429 65.9811C20.628 76.8022 17.5583 86.3 20.6347 91.3713C22.7237 94.8239 27.4323 96.0396 34.2366 94.891C51.7344 91.9355 77.7225 74.0482 92.164 55.0189C100.379 44.1978 103.449 34.7 100.372 29.6287C98.7937 27.0225 95.724 25.6858 91.3781 25.6858Z" fill="white"/>
    <path d="M28.8293 95.7374C23.4221 95.7374 19.6942 94.0245 17.9746 90.7265C14.905 84.8491 18.7336 74.5587 28.218 63.1868C44.3187 43.8889 71.8718 26.9217 89.6383 25.3768C96.4224 24.7857 101.05 26.4784 103.032 30.2735C106.102 36.1509 102.273 46.4413 92.7885 57.8132C76.6879 77.1111 49.1348 94.0783 31.3683 95.6232C30.4884 95.6971 29.642 95.7374 28.8293 95.7374ZM89.6651 25.7261C71.9793 27.271 44.5336 44.1777 28.4867 63.4152C19.1031 74.6661 15.2878 84.8155 18.2836 90.5586C20.1912 94.2126 24.7051 95.8448 31.3347 95.2672C49.0206 93.7223 76.4662 76.8156 92.5131 57.5781C101.897 46.3271 105.712 36.1778 102.716 30.4347C100.809 26.7807 96.2948 25.1484 89.6651 25.7261Z" fill="white"/>
    <path d="M28.4195 95.7575H28.4128C21.8436 95.7575 17.4372 93.6282 15.664 89.6115C12.7488 82.9952 17.3969 72.0667 28.0904 60.3724C45.8098 41.0006 74.7332 25.2425 92.5669 25.2425H92.5736C99.1428 25.2425 103.549 27.3718 105.322 31.3885C108.238 38.0048 103.589 48.9333 92.896 60.6276C75.1766 79.9994 46.2532 95.7508 28.4195 95.7575ZM92.5736 25.5985C74.8206 25.5985 46.0181 41.3028 28.3591 60.6075C17.7597 72.1943 13.1384 82.9818 15.9931 89.4637C17.6992 93.3461 21.9981 95.3948 28.4128 95.3948H28.4195C46.1726 95.3948 74.9751 79.6905 92.634 60.3858C103.233 48.799 107.855 38.0115 105 31.5296C103.294 27.6472 98.995 25.5985 92.5803 25.5985H92.5736Z" fill="white"/>
    <path d="M28.4397 95.7575C27.412 95.7575 26.4179 95.7105 25.4573 95.6232C19.1232 95.0186 14.9654 92.4393 13.4339 88.1673C10.7673 80.745 16.2953 69.2052 28.2247 57.3094C47.5697 38.0115 77.7626 23.6909 95.5358 25.3835C101.87 25.9881 106.028 28.5674 107.559 32.8394C110.226 40.2617 104.698 51.8015 92.7684 63.6973C74.4713 81.9541 46.4547 95.7575 28.4397 95.7642V95.7575ZM92.54 25.5985C74.6123 25.5985 46.7099 39.3616 28.4733 57.558C16.6446 69.3597 11.1501 80.7585 13.7698 88.0464C15.2542 92.1774 19.3046 94.6761 25.4976 95.2672C43.1768 96.9531 73.2488 82.6795 92.5266 63.442C104.355 51.6403 109.85 40.2415 107.23 32.9536C105.746 28.8226 101.695 26.3239 95.5022 25.7328C94.5484 25.6388 93.561 25.5985 92.54 25.5985Z" fill="white"/>
    <path d="M28.957 95.7844C26.6598 95.7844 24.5104 95.5963 22.5289 95.1933C16.4433 93.9708 12.5608 90.9213 11.2981 86.3604C9.00084 78.065 15.476 65.9676 28.6212 54.0047C49.5715 34.9351 80.9063 22.287 98.4645 25.8067C104.55 27.0292 108.433 30.0787 109.695 34.6396C111.993 42.9351 105.517 55.0324 92.3722 66.9953C73.7796 83.9155 47.019 95.7777 28.957 95.7777V95.7844ZM92.0162 25.5716C74.0482 25.5716 47.3885 37.4002 28.8563 54.2666C15.8119 66.1356 9.37699 78.0985 11.6339 86.2664C12.8564 90.6862 16.6515 93.6551 22.596 94.844C24.5574 95.2403 26.7001 95.4284 28.9772 95.4284C46.9452 95.4284 73.6049 83.5998 92.1371 66.7334C105.182 54.8644 111.616 42.9015 109.359 34.7336C108.137 30.3138 104.342 27.3449 98.3974 26.156C96.436 25.7597 94.2933 25.5716 92.0162 25.5716Z" fill="white"/>
    <path d="M30.0587 95.8851C26.2031 95.8851 22.6901 95.4217 19.6473 94.4544C13.817 92.5938 10.2368 89.0271 9.28298 84.1371C7.49626 74.9147 14.979 62.3203 29.2996 50.4581C51.8352 31.7915 84.1574 21.0645 101.346 26.5456C107.177 28.4062 110.757 31.9729 111.71 36.8629C113.497 46.0853 106.014 58.6797 91.6938 70.5419C73.1482 85.9037 47.9729 95.8851 30.0587 95.8851ZM90.9147 25.4641C73.0945 25.4641 48.0199 35.4187 29.528 50.7335C15.3081 62.5151 7.86569 74.9751 9.63226 84.0699C10.5525 88.8256 14.0588 92.305 19.7548 94.1186C36.8428 99.566 69.0105 88.8659 91.4655 70.2665C105.685 58.4849 113.128 46.0249 111.361 36.9301C110.441 32.1744 106.941 28.695 101.239 26.8814C98.2227 25.9209 94.7299 25.4641 90.9147 25.4641Z" fill="white"/>
    <path d="M31.8118 96.1337C26.0688 96.1337 20.9504 95.247 16.8396 93.3797C11.2712 90.8474 8.0202 86.7164 7.44254 81.4369C6.32752 71.2539 14.8715 58.27 30.2938 46.6899C54.3742 28.6144 87.5092 20.057 104.161 27.6203C109.729 30.1526 112.98 34.2836 113.558 39.5631C114.673 49.7461 106.129 62.73 90.7064 74.3101C72.5773 87.9188 49.3096 96.1337 31.8118 96.1337ZM89.1615 25.2156C71.7578 25.2156 48.5774 33.4036 30.502 46.9787C15.1805 58.4782 6.69023 71.3479 7.79182 81.4033C8.35605 86.5552 11.5332 90.5854 16.9874 93.064C33.5314 100.574 66.5051 92.0363 90.4982 74.0347C105.82 62.5352 114.31 49.6655 113.208 39.6101C112.644 34.4582 109.467 30.428 104.013 27.9494C99.9356 26.0955 94.8576 25.2223 89.1615 25.2223V25.2156Z" fill="white"/>
    <path d="M34.2567 96.5971C26.2702 96.5971 19.2778 95.0993 14.1326 91.949C8.81945 88.6912 5.94457 83.9356 5.81695 78.1859C5.56842 67.0558 15.2073 53.7897 31.6035 42.7C57.1684 25.4037 90.9347 19.2845 106.861 29.0443C112.174 32.302 115.049 37.0577 115.176 42.8074C115.425 53.9375 105.786 67.2036 89.3898 78.2933C72.0734 90.0078 51.0022 96.5971 34.2567 96.5971ZM86.7299 24.7454C70.065 24.7454 49.0677 31.3214 31.805 42.9955C15.5096 54.0181 5.93114 67.17 6.17295 78.1791C6.30057 83.8013 9.11499 88.4561 14.3207 91.6467C30.1459 101.346 63.7309 95.2269 89.195 78.0045C105.49 66.9819 115.069 53.83 114.827 42.8209C114.699 37.1987 111.885 32.5439 106.679 29.3533C101.581 26.2299 94.6425 24.7454 86.7299 24.7454Z" fill="white"/>
    <path d="M37.3531 97.3696C26.794 97.3696 17.6253 95.0187 11.5666 90.1488C6.52212 86.0918 4.07713 80.6174 4.5003 74.3236C5.30634 62.2934 16.0603 48.9065 33.2625 38.5085C60.2447 22.1997 94.414 18.7673 109.44 30.8579C114.484 34.915 116.929 40.3893 116.506 46.6831C115.7 58.7066 104.946 72.1003 87.7441 82.4982C71.6434 92.2311 52.9836 97.3763 37.3599 97.3763L37.3531 97.3696ZM83.6467 23.973C68.0968 23.973 49.4975 29.1047 33.4438 38.8108C16.3357 49.1483 5.64891 62.4345 4.84959 74.3437C4.43313 80.5167 6.83782 85.8835 11.7882 89.8667C26.7067 101.87 60.6947 98.4242 87.556 82.1892C104.664 71.8517 115.351 58.5655 116.15 46.6563C116.567 40.4833 114.162 35.1165 109.212 31.1333C103.213 26.3038 94.1185 23.9797 83.6467 23.9797V23.973Z" fill="white"/>
    <path d="M40.9603 98.5249C27.5531 98.5249 15.9327 95.0119 9.16199 87.9456C4.39292 82.9751 2.45843 76.688 3.56673 69.756C5.6087 56.9467 17.4642 43.6202 35.2777 34.1156C63.5831 19.0091 97.9271 18.5322 111.838 33.0409C116.607 38.0115 118.542 44.2986 117.433 51.2305C115.391 64.0399 103.536 77.3664 85.7223 86.8709C71.2002 94.6223 55.0861 98.5182 40.9603 98.5182V98.5249ZM80.0532 22.8176C65.9878 22.8176 49.9275 26.7068 35.4456 34.438C17.7262 43.8889 5.94455 57.1213 3.91601 69.8232C2.82786 76.6342 4.73549 82.8206 9.41724 87.7106C23.2274 102.119 57.3833 101.608 85.5544 86.5687C103.274 77.1179 115.055 63.8854 117.084 51.1835C118.172 44.3725 116.265 38.1861 111.583 33.2962C104.872 26.297 93.3528 22.8176 80.0532 22.8176Z" fill="white"/>
    <path d="M44.8562 100.144C28.4331 100.144 14.1595 95.0791 6.95887 85.3462C2.5055 79.3277 1.18897 72.1003 3.1369 64.4563C6.56257 51.0358 19.4726 37.9981 37.6623 29.5682C67.1768 15.8924 101.44 18.6262 114.035 35.6605C118.488 41.679 119.804 48.9065 117.857 56.5504C114.431 69.971 101.521 83.0087 83.3311 91.4385C70.683 97.2957 57.1617 100.144 44.8494 100.144H44.8562ZM76.1641 21.2056C63.8989 21.2056 50.4246 24.0469 37.8168 29.8906C19.7212 38.2735 6.88498 51.2305 3.48618 64.5436C1.5584 72.0868 2.8615 79.2068 7.2477 85.138C19.748 102.045 53.8166 104.725 83.1901 91.1161C101.286 82.7333 114.122 69.7762 117.521 56.4631C119.448 48.9199 118.145 41.7999 113.759 35.8688C106.626 26.2232 92.4662 21.2056 76.1708 21.2056H76.1641Z" fill="white"/>
    <path d="M48.7453 102.266C29.2593 102.266 12.2384 95.1664 4.99075 82.3101C0.913536 75.0759 0.342592 66.7871 3.34509 58.3506C8.2485 44.5673 22.1124 32.0401 40.4364 24.8462C71.039 12.8362 104.933 19.036 115.996 38.6765C120.073 45.9107 120.644 54.1995 117.642 62.636C112.738 76.4193 98.8742 88.9465 80.5503 96.1404C69.9844 100.291 59.0223 102.266 48.7453 102.266ZM72.2682 19.0763C62.0315 19.0763 51.1029 21.0444 40.5707 25.182C22.3408 32.3356 8.55076 44.7822 3.68094 58.4715C0.712027 66.8073 1.27625 74.9953 5.29974 82.1354C16.282 101.628 49.9812 107.761 80.4226 95.8112C98.6526 88.6576 112.443 76.2111 117.312 62.5218C120.281 54.186 119.717 45.998 115.694 38.8578C108.513 26.1157 91.6199 19.0763 72.2682 19.0763Z" fill="white"/>
    <path d="M52.3523 104.94C29.8638 104.94 10.136 95.2336 3.29807 78.8508C-0.302246 70.2061 0.0470381 60.7418 4.32577 51.4791C10.7271 37.6152 25.4171 25.8537 43.6202 20.0167C75.1498 9.90757 108.386 19.8353 117.695 42.1424C121.302 50.7872 120.946 60.2515 116.674 69.5142C110.273 83.3781 95.5829 95.1396 77.3798 100.977C68.997 103.663 60.5 104.933 52.359 104.933L52.3523 104.94ZM68.6545 16.4096C60.547 16.4096 52.0769 17.6791 43.7277 20.3525C25.6187 26.156 11.0025 37.8503 4.64146 51.6268C0.409756 60.7955 0.0604721 70.1658 3.6272 78.7165C10.4046 94.9649 29.9981 104.584 52.3389 104.59C60.4463 104.59 68.9164 103.321 77.2656 100.647C95.3747 94.8373 109.991 83.1497 116.352 69.3732C120.584 60.2045 120.94 50.8342 117.373 42.2835C110.595 26.0351 91.0019 16.4096 68.6612 16.4096H68.6545Z" fill="white"/>
    <path d="M55.4487 108.164C30.0719 108.164 7.84535 95.2067 1.91424 74.9483C-1.08826 64.6847 0.382765 53.9308 6.17953 43.8687C14.1325 30.0451 29.0912 19.5532 47.207 15.0864C79.509 7.12673 111.744 21.0175 119.072 46.0584C122.075 56.322 120.604 67.0692 114.807 77.138C106.854 90.9616 91.8951 101.454 73.7794 105.92C67.6065 107.438 61.4403 108.164 55.442 108.164H55.4487ZM65.5511 13.1922C59.5797 13.1922 53.4403 13.9109 47.2943 15.4289C29.2659 19.8689 14.3944 30.3004 6.48852 44.0433C0.745483 54.0248 -0.718822 64.678 2.25681 74.8475C8.1409 94.9448 30.2264 107.808 55.442 107.808C61.4134 107.808 67.5527 107.089 73.6988 105.571C91.7272 101.131 106.599 90.6996 114.505 76.9566C120.248 66.9752 121.712 56.322 118.736 46.1525C112.852 26.0552 90.7667 13.1922 65.5511 13.1922Z" fill="white"/>
    <path d="M57.8871 111.925C29.7563 111.925 5.38034 94.9985 0.879951 70.5889C-1.31651 58.6595 1.5718 46.2331 9.00752 35.6068C18.2837 22.3542 33.6656 13.0511 51.2171 10.0822C84.0901 4.52054 114.995 22.6161 120.113 50.4178C122.31 62.3472 119.422 74.7736 111.986 85.3999C102.71 98.6525 87.3277 107.956 69.7762 110.925C65.7729 111.603 61.7897 111.925 57.8804 111.932L57.8871 111.925ZM63.1129 9.43067C59.2238 9.43067 55.2675 9.75308 51.2776 10.4315C33.8201 13.387 18.5188 22.6363 9.29635 35.815C1.91437 46.354 -0.947072 58.6864 1.22923 70.5218C5.68932 94.7634 29.9175 111.569 57.8804 111.569C61.7695 111.569 65.7258 111.247 69.7157 110.569C87.1732 107.613 102.475 98.3637 111.697 85.185C119.079 74.6393 121.947 62.3069 119.764 50.4715C115.304 26.2299 91.0758 9.42395 63.1129 9.42395V9.43067Z" fill="white"/>
    <path d="M59.5798 116.211C28.7958 116.211 2.7473 94.5686 0.228426 65.7661C-2.44494 35.1904 22.4147 7.94621 55.6437 5.03775C71.7376 3.62718 87.3748 8.07383 99.6736 17.5515C111.979 27.0292 119.469 40.4095 120.765 55.2272C122.061 70.0449 117.01 84.52 106.538 95.9926C96.0733 107.459 81.4436 114.552 65.3497 115.962C63.4152 116.13 61.4807 116.217 59.5798 116.217V116.211ZM61.4807 5.1385C59.5529 5.1385 57.6185 5.22582 55.6772 5.39375C22.643 8.28206 -2.0755 35.3516 0.584427 65.7393C3.08987 94.3537 28.9839 115.855 59.5798 115.855C61.4807 115.855 63.3884 115.774 65.3229 115.606C81.3295 114.202 95.8785 107.156 106.283 95.7508C116.688 84.3521 121.705 69.971 120.416 55.254C119.126 40.5371 111.69 27.2441 99.4654 17.8269C88.7249 9.55157 75.4118 5.13178 61.4874 5.13178L61.4807 5.1385Z" fill="white"/>
    <path d="M60.5 121C27.1367 121 0 93.8566 0 60.5C0 27.1434 27.1367 0 60.5 0C93.8633 0 121 27.1367 121 60.5C121 93.8633 93.8633 121 60.5 121ZM60.5 0.356001C27.3382 0.356001 0.356001 27.3382 0.356001 60.5C0.356001 93.6618 27.3382 120.644 60.5 120.644C93.6618 120.644 120.644 93.6618 120.644 60.5C120.644 27.3382 93.6618 0.356001 60.5 0.356001Z" fill="white"/>
  </g>
  <defs>
    <clipPath id="clip0_428_111">
      <rect width="121" height="121" fill="white"/>
    </clipPath>
  </defs>
</svg>