<svg xmlns="http://www.w3.org/2000/svg" width="107" height="109" viewBox="0 0 107 109" fill="none">
  <g clip-path="url(#clip0_122_6585)">
    <path d="M28.1969 83.3718C26.3042 83.3718 24.7463 82.9163 23.5875 81.9987C21.4116 80.2726 20.7485 77.0386 21.6691 72.6496L21.6884 72.5597L48.308 53.9129C50.2007 52.5846 52.1642 50.6789 53.6835 48.6769L68.548 29.1253C71.4964 25.2496 75.7517 22.0734 78.2431 21.8937C78.8868 21.8488 79.3954 21.9964 79.7495 22.3493C82.743 25.2881 82.1572 31.6855 78.1336 39.8989C70.3698 55.7481 52.1449 74.1318 37.5186 80.8886C33.9199 82.5505 30.7526 83.3847 28.1969 83.3847V83.3718ZM22.1262 72.8357C21.27 76.9937 21.8815 80.0288 23.8901 81.6201C26.4651 83.6606 31.2354 83.2435 37.319 80.4394C51.8616 73.7276 69.9836 55.4401 77.7023 39.6743C81.6293 31.6599 82.2537 25.4678 79.4147 22.683C79.1637 22.4391 78.7838 22.33 78.2817 22.3685C75.9126 22.5418 71.8054 25.6346 68.9342 29.414L54.0697 48.9656C52.5183 51.0061 50.5226 52.9504 48.5913 54.3043L22.1326 72.8421L22.1262 72.8357Z" fill="white"/>
    <path d="M26.8835 83.6606C24.6304 83.6606 22.8214 83.0895 21.5467 81.9473C19.3 79.9261 18.83 76.2878 20.1884 71.4175L20.2141 71.3277L48.3595 53.6498C50.3616 52.3921 52.4796 50.5056 54.1727 48.4844L70.6917 28.7146C73.962 24.8004 78.4555 21.7525 80.9855 21.7974C81.6421 21.8038 82.1313 22.022 82.4597 22.4327C85.1763 25.8913 84.0304 32.7443 79.3117 41.2399C70.1895 57.6666 50.4324 75.8515 35.2653 81.7869C32.0723 83.0381 29.2333 83.6606 26.8835 83.6606ZM20.639 71.6293C19.3644 76.2686 19.7893 79.7079 21.875 81.588C24.3342 83.7953 29.0273 83.7119 35.0915 81.3377C50.1685 75.4408 69.8161 57.3522 78.8868 41.0089C83.509 32.6865 84.6678 26.026 82.0798 22.7278C81.8481 22.4391 81.4811 22.2851 80.979 22.2787C78.6228 22.253 74.2517 25.2047 71.065 29.0226L54.5461 48.7924C52.8272 50.8521 50.6642 52.7707 48.617 54.054L20.6326 71.6293H20.639Z" fill="white"/>
    <path d="M25.6733 83.8787C23.0081 83.8787 20.9287 83.1601 19.5253 81.7292C17.2206 79.3807 16.976 75.2996 18.8365 69.9417L18.8687 69.8519L48.4496 53.3675C50.5547 52.1932 52.8337 50.358 54.6941 48.324L72.8805 28.4772C76.4598 24.5694 81.2236 21.7076 83.7215 21.9579C84.391 22.022 84.8738 22.3044 85.1635 22.7856C87.5647 26.7704 85.8201 34.0725 80.3868 42.8185C69.8676 59.7392 48.5913 77.5712 32.9671 82.5569C30.2118 83.436 27.7719 83.8723 25.6926 83.8723L25.6733 83.8787ZM19.2614 70.1856C17.5039 75.3189 17.7163 79.1946 19.8729 81.3955C22.2034 83.7697 26.7998 84.0199 32.8062 82.1013C48.3402 77.1412 69.4943 59.4056 79.9619 42.5682C85.2987 33.9827 87.0433 26.8602 84.7386 23.0359C84.5326 22.6958 84.1721 22.4904 83.6635 22.4391C81.3073 22.2017 76.7173 24.9994 73.2281 28.8044L55.0418 48.6512C53.1491 50.7174 50.8316 52.591 48.6814 53.791L19.2614 70.1856Z" fill="white"/>
    <path d="M24.6497 83.9878C21.4566 83.9878 19.0361 83.0959 17.5104 81.3377C15.1542 78.6171 15.1864 74.0805 17.5941 68.2221L17.6262 68.1387L48.5333 53.0851C50.735 52.0136 53.162 50.2361 55.1899 48.2149L75.0435 28.4451C78.9705 24.531 83.8438 21.9322 86.3673 22.3942C87.0497 22.5225 87.539 22.8755 87.7901 23.4273C89.8244 27.9575 87.4553 35.6831 81.2816 44.628C69.3205 61.9594 46.5699 79.2523 30.5659 83.1793C28.3771 83.7183 26.4007 83.9814 24.6497 83.9814V83.9878ZM18.0125 68.4916C15.7078 74.1318 15.6628 78.4631 17.8838 81.0233C20.1112 83.6028 24.463 84.1867 30.4565 82.7173C46.3639 78.816 68.9922 61.6065 80.8889 44.3585C86.966 35.5548 89.3222 27.996 87.3587 23.6262C87.1785 23.222 86.818 22.9653 86.2901 22.869C83.9468 22.4391 79.1636 25.0379 75.3976 28.7852L55.5439 48.555C53.4775 50.6147 50.999 52.4242 48.7522 53.5151L18.0125 68.4852V68.4916Z" fill="white"/>
    <path d="M23.8643 84.0199C20.021 84.0199 17.182 82.9162 15.534 80.7474C13.1521 77.6096 13.4933 72.5982 16.519 66.2457L16.5576 66.1623L48.6621 52.7835C50.9474 51.8339 53.5225 50.1398 55.7242 48.1378L77.2259 28.6055C81.4168 24.8004 86.4639 22.4327 88.9681 23.1C89.6827 23.2925 90.1656 23.7288 90.3716 24.3705C92.0003 29.4525 88.9617 37.5888 82.0348 46.6813C68.6059 64.3143 44.4261 80.895 28.1389 83.6349C26.6003 83.8915 25.1776 84.0199 23.8643 84.0199ZM16.9181 66.5345C14.0533 72.5854 13.6993 77.5326 15.9203 80.4586C18.0061 83.2114 22.2034 84.1418 28.0552 83.16C44.2394 80.433 68.284 63.9357 81.6486 46.3861C88.4789 37.4156 91.4853 29.4461 89.908 24.5117C89.7535 24.0304 89.393 23.7096 88.8394 23.562C86.5218 22.946 81.5584 25.3138 77.5478 28.9584L56.0461 48.4908C53.8058 50.5249 51.1856 52.2509 48.8488 53.2263L16.9181 66.5345Z" fill="white"/>
    <path d="M23.3686 83.9878C18.7142 83.9878 15.3602 82.6082 13.6027 79.9453C11.2594 76.3969 11.9804 70.731 15.6241 63.9999L15.6692 63.9165L48.823 52.4563C51.1856 51.6414 53.8959 50.0501 56.2585 48.093L79.3889 28.9713C83.8052 25.3202 89.0068 23.2155 91.4788 24.0818C92.2256 24.3449 92.7084 24.871 92.8629 25.6154C94.0346 31.262 90.3007 39.7706 82.6142 48.9592C67.6917 66.7847 42.1536 82.4543 25.6862 83.8852C24.8815 83.9557 24.1089 83.9878 23.375 83.9878H23.3686ZM16.0039 64.3143C12.489 70.8465 11.7744 76.3007 14.0018 79.6823C15.9331 82.6147 19.9567 83.898 25.6347 83.4103C41.9927 81.9858 67.3892 66.3933 82.2344 48.6512C89.8243 39.5781 93.526 31.2171 92.3801 25.718C92.2642 25.147 91.9037 24.7491 91.3114 24.5438C88.981 23.7289 83.9854 25.795 79.6851 29.3499L56.5546 48.4716C54.147 50.4607 51.3788 52.0841 48.9711 52.9183L15.9975 64.3143H16.0039Z" fill="white"/>
    <path d="M23.2141 83.9301H23.2077C17.5426 83.9301 13.5706 82.1912 11.7165 78.9122C9.42471 74.8569 10.5642 68.6712 14.9225 61.491L14.974 61.4075L49.0033 52.129C51.4239 51.4681 54.2629 50.0051 56.7929 48.1122L81.507 29.5873C86.1936 26.0774 91.3952 24.3064 93.8737 25.3779C94.6655 25.718 95.1354 26.3533 95.232 27.2003C95.9079 33.418 91.4467 42.2666 82.9876 51.481C66.5652 69.3706 39.7589 83.9301 23.2206 83.9301H23.2141ZM15.283 61.8246C11.0599 68.8124 9.93972 74.7927 12.135 78.6748C13.8989 81.7997 17.7293 83.4488 23.2077 83.4488H23.2141C39.6366 83.4488 66.2819 68.9664 82.6207 51.1601C90.9832 42.0485 95.3994 33.3346 94.7427 27.258C94.6719 26.5779 94.3114 26.0966 93.6741 25.8207C91.3823 24.8261 86.2708 26.6164 81.7902 29.9723L57.0761 48.4972C54.5011 50.4286 51.6041 51.9237 49.1256 52.5975L15.283 61.8246Z" fill="white"/>
    <path d="M23.4974 83.8723C22.5447 83.8723 21.6241 83.8338 20.7357 83.744C15.3023 83.2242 11.5556 81.1067 9.90114 77.616C7.71234 72.996 9.32175 66.2842 14.4461 58.7061L14.504 58.6227L49.2158 51.7889C51.6814 51.3013 54.6363 49.9858 57.3208 48.1763L83.5606 30.4535C88.4017 27.181 93.687 25.7244 96.1269 26.9885C96.9702 27.4248 97.4273 28.1692 97.4466 29.1445C97.5753 35.9269 92.3608 45.0835 83.1357 54.2529C66.179 71.116 40.2095 83.8659 23.5103 83.8723H23.4974ZM14.7873 59.059C9.81101 66.4574 8.23379 72.9704 10.3389 77.4107C11.9161 80.741 15.5276 82.7686 20.7872 83.2691C37.1323 84.822 64.9558 71.6549 82.7945 53.9193C91.9295 44.8333 97.0925 35.8114 96.9638 29.1573C96.9509 28.3552 96.5904 27.7713 95.9016 27.4184C93.6484 26.2506 88.4532 27.7328 83.831 30.8578L57.5912 48.5806C54.8552 50.4286 51.8359 51.7697 49.3124 52.2702L14.7937 59.0654L14.7873 59.059Z" fill="white"/>
    <path d="M24.2506 83.8595C22.1198 83.8595 20.1241 83.6798 18.2894 83.3141C13.1007 82.2746 9.60502 79.7592 8.16942 76.0375C6.15444 70.808 8.29818 63.57 14.2079 55.6454L14.2723 55.5619L49.454 51.4424C51.9518 51.1473 55.0097 50.0051 57.8358 48.2919L85.5241 31.5764C90.5583 28.5349 95.7728 27.4377 98.2062 28.9071C99.1075 29.4525 99.5517 30.3316 99.4809 31.4417C99.0174 38.7888 93.0239 48.202 83.0327 57.2624C65.8056 72.887 40.9949 83.8466 24.2506 83.8466V83.8595ZM14.5298 56.0175C8.76812 63.7689 6.66945 70.8144 8.61362 75.8643C9.98484 79.4256 13.3646 81.8382 18.3795 82.8392C34.5316 86.0668 63.3851 74.4334 82.7044 56.9094C92.5991 47.9325 98.541 38.6412 98.9981 31.416C99.056 30.4792 98.7084 29.7733 97.9552 29.3242C95.7084 27.9638 90.5841 29.0868 85.7687 31.9935L58.0804 48.7089C55.1964 50.4543 52.0677 51.6221 49.5055 51.9237L14.5298 56.0175Z" fill="white"/>
    <path d="M25.5445 83.9365C21.9717 83.9365 18.7078 83.513 15.8881 82.6147C10.9569 81.049 7.72516 78.1166 6.54063 74.1318C4.7896 68.2477 7.52559 60.4964 14.2401 52.3151L14.3109 52.2317L49.7243 51.0896C52.235 51.0061 55.3766 50.0565 58.3443 48.4716L87.3909 32.9881C92.496 30.2675 97.7298 29.5167 100.105 31.1722C101.071 31.846 101.489 32.8662 101.316 34.1367C100.208 42.042 93.4166 51.6606 82.6786 60.5221C65.4901 74.7093 42.1537 83.9301 25.5445 83.9301V83.9365ZM14.5426 52.7001C7.98266 60.7274 5.30461 68.2798 7.00414 73.9907C8.14361 77.815 11.2659 80.6383 16.0362 82.1527C31.8406 87.1705 61.5953 77.3017 82.3696 60.1499C93.0174 51.3591 99.7448 41.856 100.833 34.0661C100.987 32.9753 100.646 32.1347 99.8285 31.5636C97.6268 30.0365 92.4896 30.8129 87.6163 33.4116L58.5696 48.895C55.5375 50.5121 52.3187 51.481 49.7372 51.5644L14.5426 52.7001Z" fill="white"/>
    <path d="M27.4501 84.1739C22.1261 84.1739 17.3752 83.359 13.5576 81.6265C8.89034 79.5154 5.94834 76.1338 5.04707 71.8539C3.66298 65.2768 7.04274 57.057 14.5619 48.709L14.6392 48.6255L50.0269 50.7366C52.5311 50.8842 55.7435 50.1527 58.8335 48.7218L89.1226 34.7014C94.2599 32.3208 99.4679 31.9486 101.779 33.7838C102.815 34.6051 103.202 35.7922 102.899 37.2295C101.11 45.6803 93.5067 55.4465 82.0348 64.032C65.2326 76.6022 43.6665 84.1867 27.4501 84.1867V84.1739ZM14.8452 49.1132C7.48694 57.3201 4.17799 65.3538 5.52346 71.7512C6.39254 75.8771 9.23798 79.1432 13.7572 81.1837C29.053 88.1073 59.5546 80.2341 81.7515 63.6277C93.1268 55.1128 100.665 45.4493 102.436 37.114C102.7 35.8564 102.384 34.8554 101.489 34.1495C99.307 32.4234 94.3114 32.8213 89.3351 35.1249L59.046 49.1453C55.8851 50.6083 52.589 51.359 50.0075 51.205L14.8516 49.1068L14.8452 49.1132Z" fill="white"/>
    <path d="M29.9929 84.6359C22.5832 84.6359 16.0941 83.2499 11.3173 80.3367C6.92042 77.6481 4.29386 73.7853 3.72735 69.1524C2.83252 61.8759 6.90754 53.2327 15.1992 44.8268L15.2893 44.737L50.368 50.3644C52.8465 50.7623 56.1104 50.2682 59.3099 49.0105L90.7063 36.6905C95.9079 34.65 100.936 34.6564 103.221 36.7097C104.328 37.7043 104.676 39.0839 104.219 40.6945C101.702 49.6714 93.2685 59.521 81.0949 67.7344C65.0523 78.5529 45.5205 84.6359 29.9929 84.6359ZM15.4567 45.2568C7.32599 53.5278 3.33465 61.9914 4.20373 69.1011C4.75737 73.5799 7.30024 77.3273 11.5684 79.9324C26.2011 88.8709 57.2628 83.2242 80.8245 67.3429C92.908 59.2002 101.264 49.4404 103.755 40.5726C104.155 39.1481 103.858 37.9417 102.899 37.0755C100.749 35.1441 95.9272 35.1697 90.8865 37.1525L59.4902 49.4725C56.207 50.7623 52.8594 51.2628 50.2972 50.8521L15.4696 45.2632L15.4567 45.2568Z" fill="white"/>
    <path d="M33.1281 85.4123C23.33 85.4123 14.8195 83.2371 9.19941 78.7326C5.07289 75.428 2.8004 71.0197 2.62658 65.9891C2.34333 58.0196 7.15224 49.0362 16.1714 40.6946L16.2679 40.6047L50.7286 50.0116C53.162 50.6789 56.4452 50.4479 59.7477 49.3956L92.1033 39.0198C97.3307 37.3451 102.146 37.7301 104.38 40.0016C105.558 41.2015 105.848 42.7928 105.223 44.5959C101.927 54.0733 92.6763 63.9422 79.8268 71.6807C64.9107 80.6704 47.6128 85.4188 33.1281 85.4188V85.4123ZM16.4031 41.1373C7.55138 49.3571 2.83259 58.1736 3.10941 65.9698C3.28322 70.8529 5.49133 75.1393 9.50198 78.354C23.2914 89.4099 54.7264 86.2273 79.5757 71.2572C92.3222 63.5764 101.509 53.7974 104.766 44.4291C105.326 42.8121 105.075 41.394 104.032 40.3288C101.959 38.2177 97.2277 37.8712 92.2514 39.469L59.8958 49.8447C56.5096 50.9292 53.1234 51.1602 50.6063 50.4672L16.4096 41.1309L16.4031 41.1373Z" fill="white"/>
    <path d="M36.7396 86.5737C24.3021 86.5737 13.519 83.3269 7.23591 76.7883C3.39908 72.7971 1.51929 67.7857 1.80898 62.2931C2.25962 53.6755 7.83461 44.4419 17.5039 36.3055L17.6134 36.2093L51.1277 49.6522C53.4903 50.6019 56.78 50.6661 60.1533 49.8319L93.2943 41.6506C98.4251 40.3865 103.112 41.1565 105.243 43.6205C106.472 45.0386 106.697 46.9123 105.88 48.8886C101.773 58.8345 91.6913 68.6456 78.2173 75.813C64.7627 82.9676 49.8273 86.5737 36.7332 86.5737H36.7396ZM17.7035 36.7675C8.208 44.8012 2.736 53.868 2.29181 62.3187C2.00855 67.6767 3.83684 72.5662 7.58355 76.4547C20.3494 89.7308 51.9389 89.2495 77.9984 75.3895C91.3694 68.2734 101.374 58.5521 105.442 48.709C106.195 46.8802 106.002 45.2311 104.882 43.935C102.867 41.6057 98.3671 40.8935 93.4166 42.119L60.2756 50.3003C56.8057 51.1601 53.4067 51.0831 50.9539 50.1014L17.71 36.7675H17.7035Z" fill="white"/>
    <path d="M40.6022 88.1972C25.3707 88.1972 12.1285 83.513 5.44625 74.5104C-3.70163 62.1776 1.8283 44.9681 19.2164 31.6855L19.3387 31.5893L51.5591 49.3186C53.8251 50.5634 57.0954 50.9484 60.5267 50.3645L94.2599 44.6344C99.3328 43.7746 103.749 44.9103 105.796 47.6053C107.084 49.2993 107.219 51.4361 106.176 53.6177C101.219 63.9935 90.3136 73.6634 76.2667 80.1507C64.5502 85.5599 52.0161 88.1908 40.6086 88.1908L40.6022 88.1972ZM19.3837 32.1604C2.324 45.2632 -3.12868 62.1519 5.83251 74.2217C11.3818 81.7035 21.7721 86.4005 35.0851 87.4528C48.4304 88.5052 62.9794 85.7588 76.0607 79.7207C90.0046 73.2784 100.82 63.6919 105.732 53.4124C106.71 51.3719 106.594 49.4597 105.403 47.8941C103.498 45.3787 99.1525 44.2879 94.3372 45.1028L60.6039 50.8329C57.0697 51.4361 53.6835 51.0318 51.3273 49.7356L19.3837 32.1604Z" fill="white"/>
    <path d="M44.4454 90.3211C26.375 90.3211 10.577 83.7568 3.85612 71.8667C-4.17162 57.6666 2.84541 39.5716 21.315 26.8345L21.4566 26.7383L52.0097 48.9849C54.1598 50.5505 57.3722 51.2692 60.8421 50.9612L94.9487 47.939C99.8478 47.5026 104.084 49.0298 105.989 51.9237C107.322 53.9386 107.335 56.3641 106.034 58.7575C100.189 69.5247 88.4853 78.9636 73.9234 84.6616C64.1317 88.4923 53.9731 90.3211 44.4454 90.3211ZM21.4566 27.3286C3.30892 39.9117 -3.59223 57.6987 4.281 71.6293C9.15429 80.2533 19.094 86.3235 32.259 88.7169C45.4561 91.1167 60.1919 89.519 73.7496 84.2124C88.2021 78.5529 99.822 69.191 105.616 58.5265C106.826 56.2999 106.813 54.0476 105.59 52.1868C103.781 49.4405 99.719 47.9967 94.9938 48.4138L60.8872 51.4361C57.3078 51.7505 53.9731 50.9997 51.7328 49.3699L21.4566 27.3286Z" fill="white"/>
    <path d="M48.16 92.9647C41.6194 92.9647 35.2139 92.0728 29.2076 90.289C16.1585 86.4069 6.68229 78.7967 2.51714 68.8573C-4.22951 52.745 4.33899 33.8287 23.8386 21.7846L23.9995 21.6884L52.499 48.664C54.5011 50.557 57.6362 51.6221 61.1125 51.6414L95.3479 51.59H95.3736C100.073 51.59 104.071 53.5086 105.822 56.6015C107.167 58.9821 107.039 61.7156 105.455 64.3143C98.689 75.4152 86.2064 84.5332 71.2003 89.3329C63.6232 91.752 55.795 92.9712 48.1536 92.9712L48.16 92.9647ZM23.9416 22.2979C4.75743 34.2137 -3.66944 52.8349 2.96777 68.6776C7.07498 78.4823 16.4417 85.9962 29.3492 89.8334C42.2824 93.677 57.0954 93.3369 71.0651 88.8709C85.9618 84.1097 98.3478 75.0686 105.056 64.0641C106.543 61.6257 106.665 59.0591 105.41 56.8389C103.749 53.9 99.9057 52.0713 95.3865 52.0713H95.3608L61.1254 52.1226H61.0997C57.5139 52.1226 54.2629 50.9933 52.1771 49.017L23.948 22.2979H23.9416Z" fill="white"/>
    <path d="M51.1921 96.1859C42.424 96.1859 33.8684 94.5112 26.1561 91.2002C13.4997 85.7653 4.71876 76.6343 1.44844 65.4886C-3.85617 47.4192 6.32817 27.7585 26.7999 16.5679L26.9737 16.4716L53.0075 48.3753C54.8358 50.6147 57.8679 52.0841 61.3249 52.4114L95.438 55.5877C100.002 56.0112 103.678 58.2762 105.268 61.6322C106.569 64.3785 106.253 67.5291 104.393 70.2754C96.6804 81.6586 83.4446 90.3532 68.078 94.1262C62.4644 95.5058 56.7799 96.1859 51.1792 96.1859H51.1921ZM26.8578 17.0812C6.70799 28.1756 -3.31541 47.554 1.90551 65.3538C5.13721 76.3648 13.8151 85.3867 26.3428 90.7638C38.8897 96.1474 53.6706 97.1741 67.9686 93.6642C83.2193 89.9168 96.3521 81.2928 103.994 70.0123C105.783 67.3751 106.079 64.4747 104.83 61.8439C103.311 58.6356 99.7769 56.4796 95.3865 56.0689L61.2734 52.8927C57.6877 52.559 54.5332 51.0254 52.6277 48.6833L26.8578 17.0812Z" fill="white"/>
    <path d="M53.5934 99.9461C42.6945 99.9461 32.1239 97.1997 23.0339 91.8932C10.899 84.8156 2.96136 74.1061 0.676001 61.7284C-3.02564 41.6763 8.83893 21.3611 30.2055 11.1778L30.3986 11.088L53.5483 48.0994C55.1771 50.6981 58.0676 52.5782 61.4795 53.252L95.187 59.9125C99.5195 60.7659 102.931 63.4288 104.322 67.0221C105.552 70.2112 105.011 73.7083 102.828 76.6215C94.1505 88.2164 80.2066 96.3848 64.5631 99.0221C60.9001 99.6381 57.2307 99.9461 53.5934 99.9461ZM30.2119 11.7104C9.16725 21.8231 -2.50419 41.8688 1.14595 61.645C3.40556 73.8816 11.2659 84.4755 23.2721 91.4825C35.2976 98.4959 49.9304 101.005 64.4794 98.5537C80.0006 95.9357 93.8351 87.8442 102.436 76.3456C104.515 73.5671 105.037 70.2369 103.865 67.2082C102.539 63.7689 99.2556 61.2215 95.0904 60.4001L61.3829 53.7396C57.8358 53.0402 54.8294 51.0831 53.1363 48.3689L30.2119 11.7104Z" fill="white"/>
    <path d="M55.2928 104.226C42.3596 104.226 29.9414 100.094 19.8601 92.3552C8.39464 83.5451 1.42268 71.2058 0.231717 57.5961C-1.70601 35.5484 11.8903 14.6814 34.0615 5.67235L34.274 5.58893L34.3705 5.79426L54.0954 47.8491C55.4924 50.82 58.2091 53.1301 61.5502 54.1824L94.5431 64.5774C98.6439 65.8671 101.773 68.9407 102.925 72.7907C104.019 76.4547 103.208 80.2982 100.698 83.3462C91.0411 95.0823 76.4341 102.609 60.6168 103.989C58.8335 104.143 57.0632 104.22 55.2928 104.22V104.226ZM34.0293 6.20493C12.18 15.1819 -1.19744 35.7858 0.708102 57.5576C1.89263 71.0261 8.79378 83.2499 20.1498 91.9702C31.5122 100.697 45.8681 104.797 60.5717 103.514C76.2602 102.147 90.7449 94.6844 100.318 83.0446C102.719 80.125 103.498 76.4354 102.455 72.9319C101.354 69.2359 98.3413 66.2842 94.3951 65.0394L61.4022 54.6444C57.9323 53.5536 55.1062 51.1473 53.6577 48.0545L34.0293 6.20493Z" fill="white"/>
    <path d="M56.2521 109C41.3683 109 27.3085 103.154 16.6606 92.5477C6.01276 81.9345 0.148071 67.9205 0.148071 53.0851C0.148071 29.0354 15.5147 7.73209 38.3876 0.0770001L38.6194 0L54.6684 47.6245C55.8015 50.9805 58.3057 53.7396 61.5438 55.1962L93.5003 69.5696C97.4208 71.3341 100.183 74.7542 101.064 78.9571C101.94 83.1087 100.82 87.2924 97.9873 90.4302C87.3395 102.23 72.1273 108.994 56.2457 108.994L56.2521 109ZM38.3104 0.609584C15.7658 8.26467 0.630894 29.3242 0.630894 53.0851C0.630894 67.7921 6.44408 81.6842 16.9954 92.2076C27.5531 102.731 41.4906 108.519 56.2457 108.519C71.9857 108.519 87.0691 101.807 97.6268 90.1093C100.356 87.0871 101.438 83.0574 100.588 79.0598C99.7319 75.0109 97.0732 71.7127 93.2943 70.0123L61.3378 55.639C57.9774 54.1246 55.3766 51.2628 54.2049 47.7785L38.3104 0.609584Z" fill="white"/>
  </g>
  <defs>
    <clipPath id="clip0_122_6585">
      <rect width="107" height="109" fill="white"/>
    </clipPath>
  </defs>
</svg>