<svg xmlns="http://www.w3.org/2000/svg" width="115" height="131" viewBox="0 0 115 131" fill="none">
  <g clip-path="url(#clip0_159_69)">
    <path d="M14.3875 89.9915L56.2336 0L56.3812 0.207204L113.028 81.3363L112.774 81.3599L14.3816 89.9915H14.3875ZM56.2867 0.59201L14.8716 89.654L112.497 81.0876L56.2867 0.59201Z" fill="white"/>
    <path d="M111.399 86.8301H12.3802L61.8895 0.834717L111.399 86.8242V86.8301ZM12.888 86.5341H110.885L61.8895 1.42673L12.888 86.5341Z" fill="white"/>
    <path d="M109.297 92.1523L109.043 92.1286L10.6504 83.4971L67.4449 2.16083L109.291 92.1523H109.297ZM11.1876 83.2485L108.813 91.8148L67.3977 2.75284L11.1876 83.2485Z" fill="white"/>
    <path d="M106.735 97.2791L9.22168 80.0339L9.38699 79.8385L72.8705 3.97241L72.959 4.21514L106.741 97.2791H106.735ZM9.77073 79.8326L106.28 96.8943L72.7642 4.55258L9.77073 79.8326Z" fill="white"/>
    <path d="M103.741 102.157L8.09412 76.4581L78.1131 6.24573L103.741 102.157ZM8.66678 76.3042L103.328 101.737L77.9596 6.81998L8.66678 76.3042Z" fill="white"/>
    <path d="M100.335 106.757L100.093 106.668L7.28528 72.7935L83.1372 8.96893L100.335 106.757ZM7.86385 72.6929L99.9512 106.301L82.9365 9.52542L7.86385 72.6929Z" fill="white"/>
    <path d="M96.5389 111.043L6.79529 69.0758L87.9075 12.1244L87.9311 12.379L96.5389 111.043ZM7.38567 69.0284L96.2023 110.558L87.6595 12.6631L7.38567 69.0284Z" fill="white"/>
    <path d="M92.3885 114.98L6.63586 65.3283L92.3885 15.6824V114.974V114.98ZM7.22624 65.3283L92.0933 114.465V16.1974L7.22624 65.3283Z" fill="white"/>
    <path d="M87.9075 118.538L6.79529 61.5809L96.5389 19.6192L96.5152 19.8738L87.9075 118.538ZM7.38567 61.6342L87.6595 117.999L96.2023 20.1046L7.38567 61.6342Z" fill="white"/>
    <path d="M83.1372 121.688L82.9424 121.522L7.28528 57.8631L100.335 23.8995L83.1372 121.688ZM7.86385 57.9697L82.9365 121.137L99.9512 24.3612L7.86385 57.9697Z" fill="white"/>
    <path d="M78.1131 124.417L8.09412 54.2045L103.741 28.5053L78.1131 124.417ZM8.66678 54.3525L77.9596 123.837L103.322 28.9138L8.66678 54.3525Z" fill="white"/>
    <path d="M72.8705 126.69L9.22168 50.6228L106.741 33.3776L72.8705 126.684V126.69ZM9.77073 50.83L72.7642 126.11L106.28 33.7683L9.77073 50.83Z" fill="white"/>
    <path d="M67.4449 128.496L67.2973 128.289L10.6504 47.1595L109.297 38.5043L109.191 38.7352L67.4508 128.496H67.4449ZM11.1876 47.4082L67.3977 127.904L108.813 38.8418L11.1876 47.4082Z" fill="white"/>
    <path d="M61.8895 129.822L12.3802 43.8325H111.405L61.8954 129.822H61.8895ZM12.888 44.1285L61.8895 129.23L110.891 44.1285H12.888Z" fill="white"/>
    <path d="M56.2337 130.663L14.3876 40.6711L113.034 49.3263L56.2396 130.663H56.2337ZM14.8717 41.0085L56.2868 130.071L112.497 49.5749L14.8717 41.0085Z" fill="white"/>
    <path d="M50.5305 131L50.442 130.757L16.6664 37.6933L114.185 54.9386L50.5364 131H50.5305ZM17.1151 38.0722L50.6309 130.414L113.624 55.1339L17.1151 38.0722Z" fill="white"/>
    <path d="M44.8216 130.84L19.1932 34.9286L114.841 60.6278L44.8216 130.84ZM19.6065 35.3489L44.9692 130.272L114.262 60.7876L19.6065 35.3489Z" fill="white"/>
    <path d="M39.1422 130.177L21.9503 32.3948L115 66.3584L39.1481 130.183L39.1422 130.177ZM22.3282 32.8447L39.3429 129.621L114.416 66.4531L22.3282 32.8447Z" fill="white"/>
    <path d="M33.5454 129.029L33.5218 128.774L24.9141 30.1096L114.658 72.0713L33.5454 129.029ZM25.2565 30.5951L33.7993 128.49L114.073 72.1246L25.2565 30.5951Z" fill="white"/>
    <path d="M28.0725 127.389V28.0968L113.825 77.7428L28.0725 127.389ZM28.3677 28.6059V126.874L113.235 77.7369L28.3677 28.6059Z" fill="white"/>
    <path d="M22.7592 125.281L22.7828 125.027L31.3905 26.3622L112.503 83.3136L22.7592 125.281ZM31.6385 26.9009L23.0957 124.796L111.912 83.2662L31.6385 26.9009Z" fill="white"/>
    <path d="M17.6523 122.712L34.8442 24.9296L35.039 25.0953L110.696 88.7542L110.454 88.843L17.6523 122.712ZM35.0449 25.4861L18.0302 122.262L110.118 88.6535L35.0449 25.4861Z" fill="white"/>
    <path d="M12.7817 119.71L38.416 23.7988L108.435 94.0112L12.7817 119.71ZM38.5636 24.3731L13.2009 119.29L107.862 93.8573L38.5636 24.3731Z" fill="white"/>
    <path d="M8.20032 116.294L8.28887 116.052L42.0645 22.9877L105.713 99.0492L8.20032 116.294ZM42.1648 23.5679L8.64901 115.916L105.158 98.8538L42.1648 23.5679Z" fill="white"/>
    <path d="M3.92603 112.488L45.7721 22.4964L45.9197 22.7036L102.567 103.833L102.313 103.856L3.92603 112.488ZM45.8253 23.0884L4.41014 112.15L102.035 103.584L45.8253 23.0884Z" fill="white"/>
    <path d="M99.0243 108.326H0L49.5092 22.3365L99.0184 108.326H99.0243ZM0.51363 108.03H98.5107L49.5092 22.9286L0.51363 108.03Z" fill="white"/>
  </g>
  <defs>
    <clipPath id="clip0_159_69">
      <rect width="115" height="131" fill="white"/>
    </clipPath>
  </defs>
</svg>