<svg xmlns="http://www.w3.org/2000/svg" width="135" height="119" viewBox="0 0 135 119" fill="none">
  <g clip-path="url(#clip0_159_3)">
    <path d="M31.8935 109.946C31.1423 109.946 30.4627 109.731 29.9046 109.313C29.0247 108.652 28.5597 107.552 28.5954 106.214L30.4412 37.5668C30.5128 34.8054 32.7377 31.857 35.3991 30.9869L101.64 9.30542C102.963 8.87395 104.194 9.01058 105.095 9.68655C105.975 10.3481 106.44 11.4484 106.405 12.786L104.559 81.4332C104.487 84.1946 102.255 87.143 99.5938 88.0131L33.353 109.695C32.845 109.86 32.3514 109.946 31.8864 109.946H31.8935ZM103.107 9.29104C102.663 9.29104 102.198 9.37014 101.711 9.52835L35.4706 31.2098C32.8951 32.0512 30.7417 34.9061 30.6701 37.574L28.8244 106.221C28.7886 107.48 29.225 108.508 30.0406 109.126C30.8848 109.759 32.0366 109.882 33.2814 109.472L99.5223 87.7902C102.098 86.9488 104.251 84.0939 104.323 81.426L106.169 12.7788C106.204 11.5203 105.768 10.492 104.952 9.87352C104.437 9.4852 103.801 9.29104 103.099 9.29104H103.107Z" fill="white"/>
    <path d="M28.0231 108.105C27.1503 108.105 26.3705 107.832 25.7767 107.3C24.9253 106.545 24.539 105.358 24.6964 103.963L32.4873 33.6332C32.8021 30.8071 35.2703 27.9738 38.0032 27.3194L105.875 11.0313C107.206 10.7149 108.401 10.9522 109.245 11.7001C110.096 12.4551 110.483 13.6417 110.325 15.0368L102.534 85.3667C102.219 88.1929 99.7441 91.0262 97.0183 91.6806L29.1463 107.969C28.76 108.062 28.388 108.105 28.0231 108.105ZM106.984 11.132C106.648 11.132 106.29 11.1751 105.918 11.2614L38.0462 27.5495C35.4063 28.1823 33.0168 30.9221 32.7163 33.6548L24.9253 103.985C24.7823 105.301 25.1328 106.415 25.9269 107.113C26.7067 107.81 27.8299 108.026 29.0819 107.724L96.954 91.4361C99.5939 90.8033 101.983 88.0634 102.284 85.3308L110.075 15.0008C110.218 13.6848 109.867 12.5702 109.073 11.8727C108.522 11.3837 107.8 11.132 106.984 11.132Z" fill="white"/>
    <path d="M24.3458 105.869C23.3299 105.869 22.4571 105.524 21.8275 104.869C21.012 104.014 20.7186 102.748 20.9976 101.302L34.8554 29.7788C35.4134 26.9023 38.1248 24.22 40.8935 23.7957L109.917 13.2031C111.248 13.0017 112.4 13.3325 113.18 14.1451C113.995 15.0009 114.289 16.2665 114.01 17.7119L100.152 89.2356C99.5938 92.1121 96.8824 94.7944 94.1137 95.2187L25.0899 105.811C24.8395 105.847 24.5891 105.869 24.3458 105.869ZM110.654 13.3756C110.425 13.3756 110.189 13.3972 109.953 13.4332L40.9293 24.0258C38.2465 24.4357 35.628 27.0317 35.0914 29.8147L21.2337 101.338C20.969 102.705 21.2409 103.891 21.9992 104.69C22.7218 105.445 23.8021 105.754 25.0469 105.56L94.0708 94.967C96.7536 94.5571 99.372 91.9611 99.9086 89.1781L113.766 17.6544C114.031 16.2881 113.759 15.1015 113.001 14.3033C112.421 13.6992 111.606 13.3756 110.654 13.3756Z" fill="white"/>
    <path d="M20.8975 103.237C19.7313 103.237 18.7441 102.805 18.1002 102.014C17.3418 101.072 17.1344 99.6988 17.5422 98.2318L37.5525 26.025C38.3538 23.1269 41.287 20.61 44.0914 20.423L113.773 15.7775C115.09 15.6912 116.199 16.1227 116.9 16.9928C117.658 17.9349 117.866 19.3084 117.458 20.7754L97.4476 92.9822C96.6463 95.8803 93.7131 98.3972 90.9086 98.5842L21.2266 103.23C21.1121 103.237 21.0048 103.244 20.8975 103.244V103.237ZM114.103 16.0076C114.002 16.0076 113.895 16.0076 113.788 16.0148L44.1057 20.6603C41.4015 20.8401 38.5684 23.2707 37.7886 26.0753L17.7782 98.2821C17.3919 99.67 17.5779 100.964 18.2862 101.842C18.9372 102.647 19.9817 103.05 21.2051 102.964L90.8871 98.3181C93.5914 98.1383 96.4245 95.7077 97.2043 92.9031L117.215 20.6963C117.601 19.3084 117.415 18.014 116.707 17.1366C116.113 16.3959 115.19 16.0004 114.095 16.0004L114.103 16.0076Z" fill="white"/>
    <path d="M87.5461 101.748C87.5103 101.748 87.4745 101.748 87.4388 101.748L17.6208 100.231C16.3259 100.202 15.2671 99.6773 14.6375 98.7496C13.9292 97.7141 13.8362 96.2614 14.3799 94.7657L40.5644 22.415C41.6017 19.5457 44.678 17.2517 47.4539 17.2517C47.4896 17.2517 47.5254 17.2517 47.5612 17.2517L117.379 18.7691C118.674 18.7978 119.733 19.3228 120.362 20.2504C121.071 21.286 121.164 22.7386 120.62 24.2344L94.4284 96.5851C93.3911 99.4543 90.3148 101.748 87.5389 101.748H87.5461ZM47.461 17.5034C44.7782 17.5034 41.8092 19.7255 40.8076 22.5013L14.616 94.852C14.1009 96.2686 14.1868 97.635 14.845 98.6058C15.4316 99.4615 16.4189 99.9505 17.628 99.9793L87.4459 101.497C90.1645 101.554 93.1908 99.3177 94.2066 96.5059L120.398 24.1553C120.913 22.7386 120.827 21.3723 120.169 20.4015C119.583 19.5457 118.595 19.0567 117.386 19.0279L47.5683 17.5106C47.5683 17.5106 47.4968 17.5106 47.461 17.5106V17.5034Z" fill="white"/>
    <path d="M84.2623 104.718C84.0691 104.718 83.8831 104.711 83.69 104.69L14.2726 96.8224C13.0135 96.6785 12.0119 96.0601 11.4539 95.0821C10.81 93.9459 10.8314 92.4285 11.5111 90.9256L43.8839 18.9776C45.186 16.0867 48.5127 13.9941 51.31 14.3105L120.727 22.1777C121.986 22.3215 122.988 22.94 123.546 23.918C124.19 25.0542 124.168 26.5715 123.489 28.0745L91.1232 100.015C89.907 102.712 86.9308 104.711 84.2694 104.711L84.2623 104.718ZM50.7305 14.5406C48.1621 14.5406 45.2861 16.4823 44.1128 19.0855L11.7472 91.0262C11.1033 92.4573 11.0747 93.8883 11.6756 94.9526C12.1907 95.8587 13.1208 96.434 14.3012 96.5635L83.7186 104.431C86.4086 104.733 89.628 102.712 90.8871 99.9146L123.253 27.9738C123.897 26.5427 123.925 25.1117 123.324 24.0474C122.809 23.1413 121.879 22.566 120.699 22.4366L51.2814 14.5694C51.1025 14.5478 50.9165 14.5406 50.7376 14.5406H50.7305Z" fill="white"/>
    <path d="M80.764 107.473C80.4063 107.473 80.0557 107.437 79.7123 107.365L11.2393 93.0182C10.016 92.7593 9.07875 92.0546 8.60657 91.0262C8.04139 89.7965 8.18447 88.2289 9.00721 86.7187L47.4826 15.7559C49.0279 12.9082 52.5334 11.0529 55.2878 11.6354L123.761 25.9818C124.984 26.2407 125.921 26.9454 126.394 27.9738C126.959 29.2035 126.816 30.7712 125.993 32.2813L87.5104 103.237C86.1582 105.732 83.2966 107.465 80.7568 107.465L80.764 107.473ZM54.229 11.7864C51.7822 11.7864 49.0207 13.4619 47.7115 15.8782L9.22899 86.8338C8.44918 88.272 8.3061 89.7534 8.84266 90.9112C9.27907 91.8676 10.1519 92.522 11.2966 92.7593L79.7695 107.106C82.4237 107.659 85.8005 105.869 87.2958 103.115L125.778 32.1591C126.558 30.7208 126.701 29.2394 126.165 28.0816C125.728 27.1252 124.855 26.4708 123.711 26.2335L55.2377 11.8871C54.9086 11.8152 54.5724 11.7864 54.229 11.7864Z" fill="white"/>
    <path d="M77.0652 109.982C76.5286 109.982 76.0064 109.91 75.5128 109.752L8.54216 88.8401C7.36172 88.4733 6.49606 87.6751 6.10257 86.5964C5.62324 85.2732 5.90226 83.6624 6.85377 82.1666L51.353 12.7715C53.1415 9.98136 56.7902 8.39929 59.4873 9.24066L126.458 30.1599C127.638 30.5266 128.504 31.3248 128.897 32.4035C129.377 33.7267 129.098 35.3375 128.146 36.8333L83.6614 106.228C82.2019 108.508 79.4905 109.982 77.0795 109.982H77.0652ZM57.9277 9.27662C55.6026 9.27662 52.9913 10.7077 51.5748 12.9154L7.0827 82.3105C6.17412 83.7343 5.90226 85.2589 6.35297 86.5029C6.71068 87.5025 7.51911 88.2432 8.62086 88.5884L75.5915 109.508C78.1884 110.32 81.7011 108.781 83.4325 106.085L127.917 36.6895C128.826 35.2656 129.098 33.7411 128.647 32.497C128.289 31.4974 127.481 30.7567 126.379 30.4116L59.4086 9.49236C58.9364 9.34853 58.4356 9.27662 57.9277 9.27662Z" fill="white"/>
    <path d="M73.1947 112.233C72.465 112.233 71.7567 112.104 71.12 111.838L6.22414 84.3025C5.09378 83.8206 4.29966 82.9361 3.99918 81.8143C3.62001 80.4048 4.03495 78.7652 5.12239 77.3054L55.4594 10.0533C57.4841 7.34941 61.2615 6.055 63.8799 7.16244L128.783 34.6976C129.913 35.1794 130.707 36.0639 131.008 37.1857C131.387 38.5952 130.972 40.2348 129.885 41.6946L79.5477 108.947C78.0167 110.996 75.4769 112.233 73.2019 112.233H73.1947ZM61.7981 7.02581C59.6089 7.02581 57.155 8.22674 55.6741 10.2115L5.33702 77.4636C4.2925 78.8587 3.89902 80.4192 4.25673 81.7424C4.53575 82.7851 5.27263 83.6049 6.3243 84.0508L71.2273 111.586C73.7384 112.65 77.3728 111.392 79.3259 108.781L129.663 41.5292C130.707 40.1341 131.101 38.5736 130.743 37.2504C130.464 36.2077 129.727 35.3879 128.676 34.9421L63.7726 7.40694C63.1645 7.14806 62.492 7.02581 61.7981 7.02581Z" fill="white"/>
    <path d="M69.1741 114.196C68.2369 114.196 67.3354 113.995 66.5699 113.578L4.30681 79.434C3.22653 78.8443 2.51826 77.8735 2.31079 76.7014C2.04608 75.22 2.59696 73.5588 3.82033 72.1493L59.7949 7.62987C62.0485 5.03385 65.9261 4.04146 68.4372 5.42217L130.7 39.5588C131.781 40.1485 132.489 41.1193 132.696 42.2915C132.961 43.7729 132.41 45.434 131.187 46.8435L75.2122 111.37C73.6526 113.168 71.306 114.196 69.1741 114.196ZM65.8187 5.0698C63.7726 5.0698 61.5048 6.06938 59.9952 7.80965L4.02064 72.3363C2.85451 73.6811 2.3251 75.2559 2.57549 76.6582C2.76866 77.7441 3.42684 78.643 4.43559 79.1967L66.6987 113.333C69.1097 114.657 72.837 113.693 75.0048 111.183L130.979 46.6565C132.145 45.3118 132.675 43.7369 132.424 42.3346C132.231 41.2487 131.573 40.3498 130.564 39.7961L68.3013 5.65948C67.5715 5.25678 66.713 5.0698 65.8187 5.0698Z" fill="white"/>
    <path d="M65.0246 115.85C63.8656 115.85 62.7639 115.555 61.8768 114.951L2.81158 74.2636C1.79568 73.5588 1.17326 72.5089 1.06595 71.2936C0.922863 69.7403 1.61682 68.0863 2.96181 66.7488L64.3163 5.53725C66.7846 3.07067 70.7337 2.40908 73.1232 4.04868L132.196 44.7365C133.211 45.4412 133.834 46.4911 133.941 47.7065C134.084 49.2598 133.39 50.9137 132.045 52.2513L70.6908 113.463C69.1383 115.009 66.9992 115.85 65.0318 115.85H65.0246ZM69.9682 3.42304C68.0723 3.42304 66.0119 4.23565 64.5024 5.73861L3.14782 66.9429C1.86007 68.223 1.20188 69.805 1.33781 71.272C1.43797 72.401 2.01746 73.379 2.96897 74.0334L62.0413 114.721C64.3235 116.296 68.1152 115.642 70.4976 113.269L131.852 52.0571C133.14 50.7771 133.798 49.195 133.669 47.728C133.569 46.599 132.99 45.621 132.038 44.9666L72.9658 4.27879C72.1216 3.69631 71.0771 3.42304 69.9682 3.42304Z" fill="white"/>
    <path d="M60.775 117.173C59.38 117.173 58.0708 116.771 57.0906 115.937L1.77426 68.8126C0.822747 68 0.293335 66.8638 0.293335 65.6125C0.293335 64.0089 1.11607 62.3693 2.57553 61.118L69.0024 3.79698C71.6781 1.48861 75.6701 1.15781 77.9094 3.06348L133.226 50.1802C134.177 50.9928 134.707 52.1291 134.707 53.3803C134.707 54.984 133.884 56.6236 132.424 57.8748L65.9905 115.196C64.4881 116.497 62.5636 117.166 60.7679 117.166L60.775 117.173ZM74.225 2.09986C72.5008 2.09986 70.6407 2.75426 69.1884 4.00553L2.75438 61.3266C1.35931 62.5275 0.565195 64.088 0.572349 65.6125C0.572349 66.7847 1.06599 67.8418 1.96027 68.6041L57.2766 115.721C59.4157 117.54 63.2433 117.209 65.8188 114.987L132.253 57.6663C133.648 56.4653 134.442 54.9049 134.435 53.3803C134.435 52.2082 133.941 51.151 133.047 50.3888L77.7305 3.27922C76.8005 2.48818 75.5485 2.09986 74.225 2.09986Z" fill="white"/>
    <path d="M56.4468 118.151C54.8085 118.151 53.2775 117.605 52.233 116.519L1.21626 63.1316C0.336292 62.2111 -0.0929604 60.9886 0.0143528 59.7014C0.150283 58.0618 1.12326 56.4581 2.67572 55.3075L73.8244 2.43063C76.6932 0.302032 80.6996 0.323605 82.7671 2.48097L133.791 55.8685C134.671 56.7889 135.1 58.0114 134.993 59.2987C134.857 60.9382 133.884 62.5419 132.332 63.6925L61.1829 116.562C59.7592 117.619 58.0636 118.144 56.4539 118.144L56.4468 118.151ZM78.5533 1.12902C77.008 1.12902 75.3625 1.6396 73.9889 2.66075L2.84742 55.5305C1.35934 56.6379 0.436451 58.1624 0.300521 59.7229C0.200362 60.9311 0.593844 62.0745 1.42373 62.9374L52.4476 116.325C54.415 118.382 58.264 118.396 61.0183 116.346L132.167 63.4767C133.655 62.3693 134.578 60.8448 134.714 59.2843C134.814 58.0762 134.421 56.9328 133.591 56.0698L82.5597 2.68232C81.5724 1.64679 80.1129 1.12902 78.5533 1.12902Z" fill="white"/>
    <path d="M52.0612 118.763C50.1797 118.763 48.4126 118.051 47.3466 116.67L1.15184 57.2348C0.350563 56.1992 0.0286236 54.9048 0.257558 53.5744C0.543727 51.9133 1.64548 50.3672 3.28379 49.3316L78.7464 1.45981C81.787 -0.467433 85.7862 -0.0862994 87.6534 2.32275L133.848 61.758C134.649 62.7936 134.971 64.088 134.742 65.4184C134.456 67.0795 133.355 68.6256 131.716 69.6612L56.2536 117.533C54.9515 118.36 53.4706 118.763 52.0612 118.763ZM82.946 0.517761C81.5867 0.517761 80.163 0.906086 78.9038 1.70431L3.43403 49.5761C1.86726 50.5685 0.815587 52.0427 0.536573 53.6248C0.321946 54.8689 0.615269 56.0842 1.37362 57.055L47.5684 116.49C49.3498 118.784 53.1773 119.137 56.0962 117.288L131.559 69.4167C133.126 68.4243 134.177 66.9501 134.456 65.368C134.671 64.1239 134.378 62.9086 133.619 61.9378L87.4316 2.50253C86.4157 1.20093 84.7417 0.517761 82.946 0.517761Z" fill="white"/>
    <path d="M47.647 119C45.515 119 43.519 118.08 42.4674 116.397L1.59534 51.1798C0.879915 50.0364 0.679597 48.6557 1.03731 47.3037C1.47372 45.6425 2.70424 44.1684 4.40694 43.2623L83.7329 0.91327C86.9308 -0.798236 90.8871 -0.0359685 92.5397 2.6032L133.405 67.8202C134.12 68.9636 134.32 70.3443 133.963 71.6963C133.526 73.3574 132.296 74.8316 130.593 75.7377L51.267 118.087C50.1081 118.705 48.8489 119 47.6399 119H47.647ZM87.36 0.287636C86.1939 0.287636 84.9848 0.575284 83.8688 1.17215L4.54287 43.5211C2.91171 44.3913 1.73842 45.8008 1.31632 47.3828C0.980074 48.6557 1.16608 49.9501 1.83858 51.0288L42.7034 116.246C44.2774 118.763 48.0548 119.475 51.124 117.835L130.45 75.486C132.081 74.6159 133.254 73.2064 133.676 71.6244C134.013 70.3515 133.827 69.0571 133.154 67.9784L92.2893 2.76141C91.2877 1.16496 89.3918 0.294827 87.36 0.294827V0.287636Z" fill="white"/>
    <path d="M43.2186 118.842C40.8291 118.842 38.6184 117.684 37.624 115.671L2.56834 45.0026C1.94593 43.7441 1.87438 42.2915 2.36802 40.9252C2.96182 39.2856 4.30682 37.9049 6.0596 37.1354L88.748 0.798249C92.089 -0.668756 95.9594 0.467454 97.376 3.32955L132.432 73.9975C133.054 75.256 133.126 76.7086 132.632 78.0749C132.038 79.7145 130.693 81.0952 128.94 81.8647L46.2448 118.195C45.2575 118.633 44.2202 118.835 43.2114 118.835L43.2186 118.842ZM91.7885 0.453072C90.8227 0.453072 89.8211 0.654425 88.8696 1.07152L6.17407 37.4015C4.49283 38.1422 3.21222 39.4581 2.64704 41.0186C2.18202 42.3131 2.2464 43.6794 2.83305 44.8659L37.8887 115.534C39.2408 118.259 42.9396 119.331 46.1375 117.921L128.833 81.5914C130.514 80.8507 131.795 79.5347 132.36 77.9742C132.825 76.6798 132.761 75.3135 132.174 74.1269L97.1184 3.46619C96.1741 1.55333 94.0636 0.460263 91.7885 0.460263V0.453072Z" fill="white"/>
    <path d="M38.8187 118.274C36.1788 118.274 33.7607 116.835 32.8664 114.484L4.06357 38.739C3.54131 37.3655 3.6057 35.8481 4.24958 34.4674C4.99362 32.871 6.43877 31.5981 8.22017 30.9725L93.7559 1.13618C97.2114 -0.0719409 100.975 1.4454 102.141 4.51605L130.936 80.2538C131.459 81.6273 131.394 83.1446 130.75 84.5254C130.013 86.1218 128.561 87.3946 126.78 88.0203L41.2512 117.864C40.4427 118.144 39.62 118.281 38.8187 118.281V118.274ZM96.1884 1.02112C95.4157 1.02112 94.6288 1.15056 93.8561 1.41664L8.32033 31.2601C6.61047 31.857 5.22971 33.0723 4.52144 34.5968C3.91333 35.9056 3.8561 37.3367 4.34974 38.6311L33.1454 114.369C34.2543 117.288 37.8458 118.72 41.151 117.569L126.68 87.7254C128.389 87.1286 129.77 85.9133 130.479 84.3887C131.087 83.0799 131.144 81.6489 130.65 80.3545L101.862 4.62391C101.01 2.38745 98.7067 1.02112 96.1955 1.02112H96.1884Z" fill="white"/>
    <path d="M34.469 117.296C31.5787 117.296 28.9674 115.534 28.2305 112.837L6.10257 32.4539C5.69478 30.9725 5.90225 29.3976 6.69637 28.0169C7.57633 26.478 9.11449 25.3274 10.9174 24.86L98.7139 1.93441C102.262 1.00675 105.882 2.90522 106.777 6.16284L128.897 86.5533C129.305 88.0347 129.098 89.6095 128.304 90.9902C127.424 92.5292 125.886 93.6798 124.083 94.1472L36.2862 117.073C35.6781 117.231 35.0628 117.31 34.4619 117.31L34.469 117.296ZM100.538 2.00632C99.9659 2.00632 99.3792 2.07824 98.7926 2.22925L10.996 25.1548C9.27188 25.6078 7.80527 26.7009 6.96107 28.1679C6.20988 29.4767 6.00956 30.9653 6.39589 32.3676L28.5167 112.758C29.3681 115.857 32.8236 117.655 36.2075 116.771L124.004 93.8452C125.728 93.3921 127.195 92.299 128.039 90.832C128.79 89.5232 128.99 88.0347 128.604 86.6324L106.483 6.24194C105.775 3.68187 103.293 2.00632 100.538 2.00632Z" fill="white"/>
    <path d="M30.2051 115.901C27.0572 115.901 24.2885 113.765 23.7448 110.73L8.67804 26.1759C8.39188 24.5867 8.75674 22.9615 9.70825 21.6023C10.7385 20.121 12.3124 19.1358 14.1367 18.8193L103.586 3.20006C107.206 2.56723 110.647 4.83965 111.255 8.26986L126.322 92.824C126.608 94.4133 126.243 96.0385 125.292 97.3976C124.262 98.879 122.688 99.8642 120.863 100.181L31.4141 115.793C31.0063 115.865 30.5986 115.901 30.2051 115.901ZM104.795 3.4086C104.416 3.4086 104.029 3.44456 103.636 3.50928L14.1939 19.1214C12.4483 19.4234 10.9459 20.3726 9.9658 21.7821C9.06437 23.0693 8.72097 24.6155 8.98568 26.1256L24.0524 110.68C24.6319 113.937 27.9157 116.095 31.3641 115.498L120.813 99.8858C122.559 99.5837 124.061 98.6345 125.041 97.225C125.943 95.9378 126.286 94.3917 126.014 92.8815L110.948 8.32738C110.432 5.43652 107.793 3.4086 104.795 3.4086Z" fill="white"/>
    <path d="M26.0628 114.081C24.5103 114.081 23.0151 113.556 21.8132 112.571C20.4539 111.456 19.6169 109.889 19.4666 108.156L11.7901 19.9628C11.6399 18.2297 12.1908 16.5398 13.3355 15.2094C14.4801 13.879 16.0898 13.0592 17.8641 12.901L108.322 4.94753C110.096 4.78933 111.82 5.32148 113.18 6.42892C114.539 7.54356 115.376 9.11124 115.526 10.8443L123.203 99.0444C123.51 102.618 120.785 105.783 117.129 106.106L26.6709 114.06C26.4634 114.074 26.2631 114.088 26.0628 114.088V114.081ZM108.937 5.23518C108.744 5.23518 108.551 5.24237 108.358 5.26395L17.8998 13.2102C16.2115 13.3612 14.6733 14.1379 13.5787 15.4107C12.4841 16.6764 11.9618 18.2872 12.1049 19.934L19.7814 108.134C19.9245 109.781 20.7186 111.269 22.0135 112.327C23.3084 113.384 24.9539 113.887 26.6495 113.743L117.107 105.79C120.599 105.481 123.196 102.467 122.895 99.066L115.219 10.8659C115.076 9.21911 114.281 7.73053 112.986 6.67342C111.842 5.73857 110.418 5.23518 108.937 5.23518Z" fill="white"/>
    <path d="M112.901 111.838H22.0994C18.4221 111.838 15.4316 108.832 15.4316 105.135V13.8646C15.4316 10.1683 18.4221 7.16241 22.0994 7.16241H112.908C116.585 7.16241 119.576 10.1683 119.576 13.8646V105.143C119.576 108.839 116.585 111.845 112.908 111.845L112.901 111.838ZM22.0994 7.47883C18.601 7.47883 15.7536 10.3409 15.7536 13.8574V105.135C15.7536 108.652 18.601 111.514 22.0994 111.514H112.908C116.406 111.514 119.254 108.652 119.254 105.135V13.8646C119.254 10.3481 116.406 7.48602 112.908 7.48602H22.0994V7.47883Z" fill="white"/>
  </g>
  <defs>
    <clipPath id="clip0_159_3">
      <rect width="135" height="119" fill="white"/>
    </clipPath>
  </defs>
</svg>