<svg xmlns="http://www.w3.org/2000/svg" width="135" height="122" viewBox="0 0 135 122" fill="none">
  <g clip-path="url(#clip0_159_47)">
    <path d="M52.2577 77.2099C51.4413 77.2099 50.7372 77.0009 50.22 76.5705C49.279 75.7897 49.1232 74.4002 49.8024 72.7524L57.1183 54.9102C58.1216 52.4693 60.7637 49.967 63.5492 48.8234C65.132 48.1778 66.5715 48.0549 67.6059 48.4914L80.4803 53.8527C81.3589 54.2216 81.8699 54.9286 81.9447 55.9C82.1317 58.1749 79.9257 61.3412 76.8224 63.2595L56.6322 75.7405C55.0681 76.7058 53.5227 77.2099 52.2577 77.2099ZM66.1976 48.6943C65.4685 48.6943 64.6273 48.8787 63.7237 49.2476C61.0441 50.342 58.5079 52.7398 57.5482 55.0823L50.2324 72.9246C49.628 74.394 49.7339 75.5622 50.5191 76.2139C51.6781 77.173 53.9776 76.8287 56.383 75.347L76.5731 62.866C79.9568 60.7756 81.6269 57.7322 81.4773 55.9308C81.415 55.1315 81.0162 54.572 80.2934 54.2769L67.419 48.9156C67.0638 48.768 66.6525 48.6943 66.1976 48.6943Z" fill="white"/>
    <path d="M51.809 79.3864C51.0363 79.3864 50.3633 79.2019 49.8398 78.8207C48.7867 78.0645 48.525 76.6811 49.0983 74.9289L55.4482 55.5557C56.9126 51.0736 62.951 46.8498 66.3908 47.8827L81.1657 52.3402C82.1815 52.6476 82.8109 53.3546 82.9854 54.3875C83.3779 56.7546 81.2468 60.2468 78.0375 62.5155L56.9126 77.4312C55.0992 78.7101 53.2859 79.3864 51.8152 79.3864H51.809ZM65.2379 48.1901C61.9664 48.1901 57.1307 51.9221 55.8906 55.7033L49.5407 75.0764C49.0359 76.6258 49.2354 77.8247 50.1078 78.458C51.4538 79.4294 54.0773 78.8699 56.6322 77.0685L77.7571 62.1528C81.2655 59.675 82.8296 56.3488 82.518 54.4736C82.3747 53.6128 81.8761 53.0472 81.0287 52.7951L66.2537 48.3376C65.9421 48.2454 65.5994 48.1962 65.2379 48.1962V48.1901Z" fill="white"/>
    <path d="M51.4911 81.7043C50.7745 81.7043 50.1389 81.5506 49.6217 81.2247C48.4688 80.5054 48.0825 79.1036 48.5312 77.2775L53.6535 56.3919C54.8375 51.5717 61.0815 46.5977 64.9762 47.3662L81.7702 50.7047C82.9417 50.9384 83.7082 51.6393 83.9824 52.7398C84.5993 55.2237 82.6301 58.968 79.29 61.6425L57.3737 79.1958C55.3422 80.8189 53.1986 81.7104 51.4974 81.7104L51.4911 81.7043ZM64.1287 47.7474C60.477 47.7474 55.1428 52.2664 54.1084 56.4964L48.9861 77.3821C48.5872 79.0052 48.9051 80.2287 49.8709 80.8312C51.192 81.6551 53.9277 81.3538 57.0746 78.8331L78.9909 61.2798C82.5865 58.4024 84.0073 54.7872 83.5275 52.8443C83.2969 51.9282 82.6613 51.3442 81.6767 51.1474L64.8827 47.8089C64.6397 47.7597 64.3904 47.7351 64.1287 47.7351V47.7474Z" fill="white"/>
    <path d="M51.3915 84.1698C50.7309 84.1698 50.1265 84.0406 49.6093 83.764C48.3505 83.0938 47.8208 81.6797 48.1261 79.786L51.7467 57.4187C52.5817 52.2603 58.9877 46.487 63.3685 46.942L82.2812 48.9218C83.6272 49.0632 84.5432 49.7579 84.9358 50.9322C85.7896 53.4838 83.9575 57.5478 80.5862 60.5973L58.053 80.985C55.7972 83.0262 53.3357 84.1636 51.3852 84.1636L51.3915 84.1698ZM62.87 47.3785C58.7883 47.3785 52.9681 52.8075 52.2078 57.4924L48.5873 79.8598C48.3131 81.5506 48.7555 82.7925 49.8274 83.3582C51.3665 84.1759 54.4138 83.6533 57.7352 80.6468L80.2684 60.2592C83.9014 56.9698 85.1602 53.0718 84.4934 51.0798C84.1631 50.0899 83.378 49.4997 82.2313 49.3829L63.3186 47.4031C63.1691 47.3847 63.0195 47.3785 62.87 47.3785Z" fill="white"/>
    <path d="M51.5098 86.7705C50.9054 86.7705 50.3445 86.666 49.846 86.4446C48.4626 85.8298 47.7834 84.4157 47.9329 82.4605L49.7463 58.6791C50.1638 53.201 56.6571 46.5547 61.5551 46.6531L82.6862 47.0158C84.2254 47.0404 85.3159 47.7229 85.8456 48.9832C86.9361 51.5901 85.291 55.9677 81.9322 59.3984L58.9877 82.8171C56.5262 85.3318 53.7283 86.7705 51.5098 86.7705ZM61.4616 47.108C56.8876 47.108 50.6063 53.5637 50.2137 58.7037L48.4003 82.4851C48.2694 84.2374 48.849 85.4916 50.0392 86.0142C52.1579 86.9549 55.7037 85.5039 58.6574 82.4913L81.6019 59.0726C85.2661 55.3283 86.3005 51.252 85.4156 49.1554C84.9607 48.0795 84.0135 47.4954 82.68 47.4708L61.5488 47.108C61.5488 47.108 61.4928 47.108 61.4678 47.108H61.4616Z" fill="white"/>
    <path d="M51.8901 89.4819C51.3541 89.4819 50.8432 89.4019 50.3696 89.2298C48.8553 88.6887 48.0078 87.2808 47.9767 85.2703L47.6526 60.1669C47.5778 54.3876 54.1209 46.8559 59.5175 46.5055L82.9418 44.9746C84.6679 44.8639 85.9952 45.5341 86.6745 46.8682C88.0454 49.5612 86.6558 54.1416 83.297 58.015L60.2029 84.6493C57.5608 87.6989 54.4138 89.488 51.8901 89.488V89.4819ZM83.3219 45.4234C83.2098 45.4234 83.0914 45.4234 82.9729 45.4357L59.5486 46.9666C54.4574 47.2986 48.0514 54.7011 48.12 60.1669L48.444 85.2703C48.4689 87.1025 49.1856 88.326 50.5254 88.8055C52.9806 89.6847 56.813 87.8526 59.8415 84.3542L82.9356 57.7199C86.5436 53.5575 87.335 49.2169 86.2507 47.0834C85.7024 45.9952 84.6866 45.4295 83.3157 45.4295L83.3219 45.4234Z" fill="white"/>
    <path d="M52.5007 92.2916C52.0583 92.2916 51.6345 92.2363 51.2295 92.1256C49.5656 91.6706 48.525 90.2873 48.3069 88.2276L45.484 61.9315C44.8359 55.8816 51.3229 47.397 57.2554 46.5424L83.029 42.8165C84.9919 42.5337 86.5436 43.167 87.4098 44.5995C89.0487 47.3232 87.9207 52.1926 84.6741 56.4411L61.7234 86.4631C58.969 90.0598 55.3672 92.2916 52.5007 92.2916ZM83.0664 43.0379L83.0975 43.2654L57.3239 46.9912C51.7093 47.8028 45.3344 56.1521 45.9513 61.8762L48.7742 88.1723C48.9799 90.0598 49.871 91.271 51.3603 91.6768C54.1832 92.4453 58.2898 90.1889 61.3557 86.1802L84.3064 56.1583C87.4409 52.0574 88.5564 47.397 87.0109 44.827C86.2445 43.5482 84.886 43.0071 83.1038 43.2654L83.0726 43.0379H83.0664Z" fill="white"/>
    <path d="M53.4853 95.1813C53.1426 95.1813 52.8123 95.1505 52.4883 95.089C50.6562 94.7386 49.4037 93.3921 48.9674 91.2894L43.2594 63.9727C41.9445 57.6953 48.2882 48.2147 54.7628 46.776L82.9293 40.5355C85.1415 40.0436 86.9549 40.6216 88.0329 42.1586C89.9523 44.9069 89.1422 50.0468 86.0513 54.658L63.5929 88.2153C60.7513 92.4576 56.7444 95.1751 53.4915 95.1751L53.4853 95.1813ZM82.9729 40.7568L83.0228 40.9843L54.8562 47.2248C48.7182 48.5836 42.468 57.9228 43.708 63.8743L49.4161 91.191C49.8212 93.1277 50.9117 94.3143 52.5693 94.6341C55.791 95.2427 60.1593 92.5006 63.194 87.9632L85.6525 54.3998C88.6374 49.9362 89.4537 45.0114 87.6404 42.4168C86.662 41.0212 85.0667 40.5232 83.0228 40.9782L82.9729 40.7507V40.7568Z" fill="white"/>
    <path d="M54.8126 98.1263C54.6007 98.1263 54.3888 98.114 54.1832 98.0956C52.158 97.8804 50.6686 96.5831 49.9832 94.4435L40.9848 66.3152C40.0688 63.4439 40.7169 59.6074 42.7608 55.7832C45.0291 51.547 48.5748 48.2762 52.0146 47.2556L82.5803 38.1623C85.0667 37.4245 87.173 37.9225 88.5003 39.5702C90.7561 42.3677 90.3074 47.6367 87.3848 52.6783L65.8237 89.9061C62.9634 94.8493 58.5266 98.1263 54.8188 98.1263H54.8126ZM84.699 38.2852C84.0759 38.2852 83.4091 38.3898 82.7112 38.5988L52.1455 47.6921C48.8241 48.682 45.3843 51.8606 43.1721 55.9984C41.2154 59.6566 40.5611 63.4624 41.4273 66.1738L50.4256 94.3021C51.0612 96.2818 52.3761 97.4377 54.2268 97.6344C57.8723 98.0218 62.4712 94.7448 65.4062 89.6724L86.9673 52.4447C89.7528 47.6367 90.2264 42.4599 88.1202 39.853C87.2851 38.8201 86.1011 38.2852 84.6866 38.2852H84.699Z" fill="white"/>
    <path d="M56.5324 101.09C56.4888 101.09 56.4452 101.09 56.3954 101.09C54.152 101.047 52.3885 99.8232 51.4226 97.6529L38.6978 68.9712C37.4515 66.1615 37.7257 62.2266 39.4456 58.181C41.5144 53.33 45.1848 49.4259 49.0172 47.9933L81.9571 35.6907C84.7364 34.6516 87.1667 35.0512 88.7931 36.8097C91.373 39.5948 91.3231 45.0852 88.6685 50.4711L68.4534 91.4554C65.643 97.1487 60.7574 101.09 56.5262 101.09H56.5324ZM82.0444 35.912L82.1254 36.1272L49.1855 48.4299C45.4652 49.8194 41.8946 53.6252 39.8756 58.3655C38.1993 62.2942 37.9251 66.0938 39.1215 68.7868L51.8463 97.4684C52.7437 99.4912 54.3203 100.586 56.3954 100.629C60.4895 100.702 65.2691 96.8536 68.0296 91.2587L88.2447 50.2743C90.8184 45.0606 90.8994 39.7793 88.4441 37.1294C86.9548 35.5185 84.7052 35.1619 82.1191 36.1272L82.0381 35.912H82.0444Z" fill="white"/>
    <path d="M58.6949 104.047C56.4204 104.047 54.5322 102.94 53.3357 100.893L36.4358 71.9654C34.8343 69.2233 34.7034 65.2085 36.0869 60.9477C37.8504 55.5065 41.5706 50.9445 45.7956 49.0447L81.0474 33.1637C84.132 31.7742 86.9175 32.0386 88.8991 33.9077C91.8653 36.7113 92.2517 42.257 89.8837 48.0487L71.5318 92.8572C68.9707 99.1161 63.8982 103.709 59.1934 104.035C59.0251 104.047 58.8631 104.053 58.7011 104.053L58.6949 104.047ZM84.7551 32.7518C83.6646 32.7518 82.4806 33.0284 81.2468 33.5879L45.995 49.4689C41.8884 51.3195 38.2617 55.777 36.5355 61.0953C35.1957 65.2269 35.3079 69.1065 36.8471 71.7379L53.747 100.666C54.9497 102.731 56.8254 103.733 59.1622 103.574C63.6926 103.26 68.603 98.7841 71.1019 92.6851L89.4537 47.8765C91.7158 42.3492 91.3668 36.8711 88.5813 34.2458C87.5282 33.2559 86.2258 32.7518 84.7614 32.7518H84.7551Z" fill="white"/>
    <path d="M61.3432 106.955C59.1061 106.955 57.1618 105.971 55.7722 104.115L34.2298 75.3101C32.2357 72.6417 31.6748 68.5531 32.6968 64.0772C34.0428 58.181 37.8254 52.8259 42.3308 50.4403L79.7885 30.5937C83.1349 28.823 86.4064 28.9153 88.762 30.8581C92.1021 33.6064 92.9745 39.312 90.9866 45.3926L75.0713 94.0438C72.8715 100.758 67.7617 106.027 62.6456 106.851C62.2031 106.924 61.7669 106.955 61.3432 106.955ZM80.0066 31.0057L42.5489 50.8523C38.1556 53.1825 34.4603 58.4146 33.1455 64.1879C32.1547 68.5285 32.6844 72.488 34.5974 75.0457L56.1399 103.85C57.704 105.947 59.9286 106.826 62.5583 106.402C67.5124 105.603 72.4727 100.469 74.6164 93.9086L90.5317 45.2574C92.4635 39.355 91.6471 33.8462 88.4566 31.2147C86.2195 29.3764 83.2221 29.3026 80.0066 31.0057Z" fill="white"/>
    <path d="M64.4902 109.771C62.3091 109.771 60.3337 108.923 58.7821 107.275L32.1111 79.0236C29.6808 76.4475 28.6526 72.2728 29.2882 67.5756C30.1482 61.1998 33.8186 55.1745 38.6355 52.2233L78.1497 28.0238C81.8014 25.7858 85.5216 25.6567 88.3507 27.6795C92.0897 30.3478 93.5042 36.1764 91.9526 42.5214L79.1094 94.9784C77.3708 102.092 72.317 108.05 66.827 109.47C66.0294 109.673 65.2504 109.777 64.4964 109.777L64.4902 109.771ZM78.3865 28.405L38.8723 52.6045C34.1738 55.4819 30.5844 61.3781 29.7431 67.6247C29.1262 72.1929 30.1108 76.2262 32.4476 78.6978L59.1186 106.949C61.0815 109.033 63.7736 109.759 66.6961 109.003C72.0303 107.625 76.9408 101.803 78.642 94.8493L91.4852 42.3923C92.9932 36.2255 91.6535 30.5876 88.0641 28.0299C85.397 26.1239 81.8699 26.2592 78.3865 28.3927V28.405Z" fill="white"/>
    <path d="M68.173 112.439C66.0605 112.439 64.0913 111.72 62.415 110.312L30.117 83.0999C27.1944 80.6345 25.6427 76.3799 25.8671 71.4182C26.1786 64.6305 29.6434 57.9535 34.7034 54.4121L76.0683 25.4538C80.0253 22.6871 84.2254 22.2813 87.5967 24.3532C91.8341 26.9478 93.797 32.7149 92.719 39.3981L83.6521 95.5686C82.4307 103.119 77.6698 109.63 71.7935 111.763C70.5596 112.212 69.3445 112.433 68.173 112.433V112.439ZM82.9604 23.5109C80.8105 23.5109 78.536 24.2918 76.3363 25.8288L34.9713 54.7872C30.0235 58.2486 26.6335 64.7842 26.3344 71.4367C26.1163 76.2507 27.6057 80.3762 30.4223 82.7433L62.7204 109.956C65.1881 112.034 68.3537 112.526 71.6315 111.333C77.352 109.255 82.0007 102.891 83.191 95.4948L92.2578 39.3243C93.3047 32.8256 91.429 27.2368 87.3536 24.7406C86.0076 23.9167 84.5183 23.5048 82.9604 23.5048V23.5109Z" fill="white"/>
    <path d="M72.4229 114.911C70.4102 114.911 68.4784 114.327 66.7398 113.171L28.3161 87.5574C24.8265 85.2272 22.6953 80.8865 22.471 75.6359C22.1718 68.5101 25.3499 61.2244 30.5782 57.0743L73.5197 22.9638C77.7509 19.6007 82.4744 18.8629 86.4751 20.9348C91.1923 23.3818 93.7971 29.1796 93.2737 36.0718L88.7558 95.7899C88.1638 103.574 83.6958 110.755 77.6263 113.657C75.8814 114.493 74.1242 114.905 72.4229 114.905V114.911ZM73.6693 23.1421L73.8188 23.3204L30.8773 57.4309C25.7612 61.4949 22.6454 68.6331 22.9445 75.6175C23.1627 80.7205 25.2191 84.9321 28.5841 87.1762L67.0077 112.79C70.0737 114.831 73.7752 114.997 77.4331 113.251C83.3531 110.423 87.7214 103.395 88.3009 95.7653L92.8188 36.0473C93.3298 29.3395 90.8184 23.7077 86.2694 21.3468C82.4433 19.3609 77.9067 20.0864 73.825 23.3265L73.6755 23.1482L73.6693 23.1421Z" fill="white"/>
    <path d="M77.271 117.124C75.3891 117.124 73.5446 116.676 71.7997 115.772L26.7582 92.39C22.6142 90.2381 19.8225 85.8052 19.0996 80.2287C18.1462 72.8508 20.9629 65.0056 26.2784 60.2346L70.4599 20.5783C74.9404 16.5573 80.2061 15.4076 84.9171 17.4303C90.1578 19.6745 93.4668 25.46 93.5665 32.5366L94.4264 95.5686C94.5386 103.617 90.5878 111.253 84.3687 115.016C82.0444 116.417 79.6328 117.124 77.2773 117.124H77.271ZM70.6157 20.7443L70.7715 20.9164L26.5899 60.5666C21.3866 65.2392 18.626 72.9307 19.5608 80.1611C20.2649 85.59 22.9632 89.8938 26.9763 91.9719L72.0178 115.354C75.7879 117.309 80.0877 117.051 84.1195 114.61C90.2015 110.933 94.065 103.457 93.9591 95.5625L93.0991 32.5305C93.0056 25.6383 89.8026 20.0126 84.7302 17.8423C80.1998 15.8994 75.1149 17.0184 70.7778 20.9103L70.622 20.7381L70.6157 20.7443Z" fill="white"/>
    <path d="M82.6675 118.987C80.9663 118.987 79.2776 118.674 77.6512 118.034L25.4994 97.5914C20.6014 95.6731 17.0495 91.1542 15.7658 85.2026C14.1082 77.5357 16.4263 69.3831 21.8228 63.9235L66.8394 18.3464C71.4445 13.686 77.4268 12.0075 82.842 13.852C88.7433 15.8687 92.7439 21.4513 93.5353 28.7862L100.67 94.8062C101.543 102.897 98.1529 111.099 92.0211 115.692C89.1172 117.862 85.8768 118.981 82.6738 118.981L82.6675 118.987ZM67.0015 18.5063L67.1697 18.6661L22.1593 64.2493C16.875 69.5983 14.6005 77.5911 16.2269 85.1104C17.4794 90.9082 20.9255 95.3042 25.6739 97.1671L77.8256 117.61C82.3622 119.387 87.4347 118.557 91.7344 115.335C97.7354 110.841 101.063 102.805 100.203 94.8677L93.068 28.8476C92.2953 21.6911 88.413 16.256 82.6862 14.3008C77.4455 12.5117 71.644 14.1471 67.1697 18.6784L67.0015 18.5186V18.5063Z" fill="white"/>
    <path d="M88.706 120.481C87.254 120.481 85.7958 120.285 84.3563 119.879L24.6271 103.168C18.8567 101.551 14.4385 96.9766 12.5067 90.607C10.1512 82.8478 11.9708 74.2649 17.2676 68.2088L62.6083 16.3421C67.338 10.9378 73.8998 8.6629 80.1625 10.2676C86.7181 11.9461 91.5662 17.4057 93.1303 24.8697L107.513 93.4536C109.226 101.625 106.578 110.109 100.602 115.587C97.1123 118.791 92.9372 120.475 88.6997 120.475L88.706 120.481ZM62.789 16.4896L62.9635 16.6372L17.6104 68.5101C12.4195 74.4432 10.631 82.8601 12.9492 90.4717C14.8373 96.6876 19.1371 101.151 24.7517 102.719L84.481 119.43C89.9585 120.961 95.7227 119.436 100.284 115.249C106.142 109.876 108.734 101.557 107.052 93.5458L92.6692 24.9619C91.1425 17.6701 86.419 12.3457 80.0441 10.7103C73.9559 9.14861 67.5686 11.3681 62.9572 16.6372L62.7828 16.4896H62.789Z" fill="white"/>
    <path d="M95.3238 121.514C94.2084 121.514 93.0742 121.416 91.9463 121.213L24.1908 109.095C17.4296 107.884 12.0082 103.279 9.3224 96.454C6.26271 88.6764 7.52772 79.7368 12.6251 73.1213L57.7352 14.6144C62.5023 8.43542 69.625 5.47811 76.7975 6.70776C84.0821 7.95586 89.8775 13.2249 92.3078 20.7934L114.953 91.4124C117.533 99.4543 115.67 108.339 110.086 114.591C106.079 119.086 100.833 121.508 95.3176 121.508L95.3238 121.514ZM73.5945 6.89836C67.6932 6.89836 62.0661 9.7573 58.1029 14.8973L12.999 73.3918C7.99508 79.8783 6.755 88.6518 9.75861 96.2757C12.3883 102.947 17.6789 107.453 24.2781 108.634L92.0336 120.752C98.5767 121.92 105.033 119.565 109.744 114.29C115.215 108.154 117.047 99.442 114.511 91.5538L91.8653 20.9348C89.4911 13.5262 83.8266 8.38009 76.7165 7.16273C75.6758 6.98443 74.6289 6.89836 73.5945 6.89836Z" fill="white"/>
    <path d="M102.378 122C101.748 122 101.113 121.975 100.477 121.92L24.2905 115.341C16.5135 114.671 9.77724 109.968 6.26889 102.756C2.44895 94.9169 3.0908 85.9159 7.98256 78.6732L52.1704 13.2495C56.869 6.28968 64.5088 2.55769 72.6161 3.25859C80.7233 3.95949 87.5904 8.94573 90.9929 16.6003L122.992 88.6026C126.531 96.5708 125.578 105.547 120.443 112.612C116.106 118.575 109.457 122 102.378 122ZM70.6905 3.63363C63.4682 3.63363 56.7942 7.23037 52.5567 13.5077L8.36891 78.9314C3.57063 86.0327 2.94124 94.8677 6.6864 102.559C10.1262 109.617 16.7192 114.229 24.3279 114.88L100.515 121.459C108.123 122.117 115.433 118.711 120.057 112.347C125.098 105.418 126.033 96.6077 122.562 88.7932L90.5629 16.7909C87.229 9.29004 80.5052 4.40216 72.5724 3.71971C71.943 3.66437 71.3137 3.63978 70.6843 3.63978L70.6905 3.63363Z" fill="white"/>
    <path d="M109.986 121.883H25.0133C15.9838 121.883 7.90146 117.278 3.38983 109.562C-1.1218 101.846 -1.1218 92.6359 3.38983 84.926L45.8702 12.3211C50.3881 4.60505 58.4704 0 67.4999 0C76.5294 0 84.6117 4.60505 89.1233 12.3211L131.61 84.926C136.122 92.6421 136.122 101.852 131.61 109.562C127.098 117.278 119.01 121.883 109.986 121.883ZM46.2753 12.5486L3.78865 85.1596C-0.641977 92.7281 -0.641977 101.766 3.78865 109.335C8.21927 116.903 16.152 121.422 25.0133 121.422H109.986C118.848 121.422 126.78 116.903 131.205 109.335C135.635 101.766 135.635 92.7281 131.205 85.1596L88.7183 12.5486C84.2939 4.98009 76.3611 0.46112 67.4999 0.46112C58.6386 0.46112 50.7059 4.98009 46.2753 12.5486Z" fill="white"/>
  </g>
  <defs>
    <clipPath id="clip0_159_47">
      <rect width="135" height="122" fill="white"/>
    </clipPath>
  </defs>
</svg>