<svg width="36" height="36" viewBox="0 0 36 36" fill="none" xmlns="http://www.w3.org/2000/svg">
<rect width="36" height="36" rx="18" fill="white"/>
<path d="M20.3347 7.32672C19.2127 8.12686 18.0238 9.67348 17.3561 12.6545C17.1873 13.4278 16.9366 14.1816 16.6064 14.9037C17.9021 16.404 19.7191 17.3968 21.7198 17.692C22.2584 17.1846 22.8343 16.7138 23.4449 16.2893C25.1204 15.1062 26.2498 13.8254 26.8008 12.4837C26.8926 12.2593 26.9671 12.0324 27.0242 11.808C25.4381 9.60762 23.0775 7.98538 20.3322 7.32672H20.3347Z" fill="url(#paint0_linear_226_631)"/>
<path d="M24.4004 17.5482C24.3284 17.5994 24.2614 17.6482 24.1919 17.6994C25.9195 17.4506 27.523 16.6822 28.7715 15.5015C28.7715 15.5015 28.774 15.499 28.7765 15.4966C28.5978 14.8282 28.3595 14.1841 28.0691 13.5694C27.3517 14.9965 26.1206 16.3309 24.4004 17.5482Z" fill="url(#paint1_linear_226_631)"/>
<path d="M15.5193 13.2792C15.6186 12.9742 15.703 12.6571 15.7774 12.3278C16.2813 10.081 17.1302 8.29779 18.3043 7.02439C18.0462 7.00976 17.7855 7 17.5249 7C16.6959 7.00244 15.8867 7.0927 15.1073 7.25858C14.9807 7.62694 14.8814 8.00262 14.8119 8.38561C14.509 10.0469 14.7573 11.7594 15.5193 13.2792Z" fill="url(#paint2_linear_226_631)"/>
<path d="M10.6763 17.9944C11.8231 17.7772 12.878 17.2064 13.7269 16.3477C14.5088 15.5549 15.1045 14.5425 15.5042 13.3301C14.3872 11.7469 12.7192 10.6028 10.8054 10.1051C10.4852 10.0222 10.1625 9.95876 9.83982 9.91241C7.864 11.6542 6.50376 14.0522 6.11157 16.7575C7.27324 17.8382 8.97354 18.3164 10.6763 17.9944Z" fill="url(#paint3_linear_226_631)"/>
<path d="M14.7646 23.2421C15.7773 22.1736 16.4699 20.8612 16.7727 19.4414C17.0731 18.0241 16.9713 16.5531 16.4773 15.187C16.0752 16.0067 15.5415 16.7629 14.8962 17.424C13.8139 18.5193 12.4611 19.2463 10.9867 19.5244C9.20699 19.861 7.42726 19.5195 6 18.6437C6.06454 21.3954 7.12195 23.9056 8.83218 25.8401C9.57187 25.8255 10.3091 25.7133 11.024 25.5084C12.4611 25.0937 13.7544 24.3106 14.7671 23.2446L14.7646 23.2421Z" fill="url(#paint4_linear_226_631)"/>
<path d="M19.0289 23.8467C18.8701 22.6026 19.0563 20.3607 21.4888 17.9237C20.0963 18.1823 18.7981 18.7775 17.7134 19.6582C16.6287 20.5388 15.7947 21.6732 15.2933 22.9514C14.7919 24.2322 14.6355 25.6129 14.844 26.9668C14.9879 27.8987 15.2982 28.7939 15.7599 29.616C16.3656 29.7087 16.9886 29.7575 17.6215 29.7551C19.4435 29.7478 21.1661 29.3257 22.6976 28.5817C22.6008 28.5329 22.504 28.4817 22.4072 28.4305C20.5059 27.3791 19.2672 25.7227 19.0289 23.8418V23.8467Z" fill="url(#paint5_linear_226_631)"/>
<path d="M24.0059 17.8359C21.5833 19.6655 20.3869 21.7196 20.6326 23.6589C20.8386 25.2885 22.1145 26.7107 24.0382 27.4718C24.1474 27.5157 24.2566 27.5548 24.3683 27.5938C26.7884 25.8666 28.5012 23.2418 29.0001 20.2217C28.4838 19.707 27.8955 19.2581 27.2501 18.8922C26.2548 18.3263 25.1502 17.9677 24.0034 17.8384L24.0059 17.8359Z" fill="url(#paint6_linear_226_631)"/>
<defs>
<linearGradient id="paint0_linear_226_631" x1="20.0719" y1="6.90263" x2="25.5565" y2="27.9047" gradientUnits="userSpaceOnUse">
<stop stop-color="#EF552C"/>
<stop offset="0.46" stop-color="#8C2DDA"/>
<stop offset="1" stop-color="#30324A"/>
</linearGradient>
<linearGradient id="paint1_linear_226_631" x1="23.6126" y1="5.97883" x2="29.0948" y2="26.9808" gradientUnits="userSpaceOnUse">
<stop stop-color="#EF552C"/>
<stop offset="0.46" stop-color="#8C2DDA"/>
<stop offset="1" stop-color="#30324A"/>
</linearGradient>
<linearGradient id="paint2_linear_226_631" x1="16.2237" y1="7.90841" x2="21.7059" y2="28.9104" gradientUnits="userSpaceOnUse">
<stop stop-color="#EF552C"/>
<stop offset="0.46" stop-color="#8C2DDA"/>
<stop offset="1" stop-color="#30324A"/>
</linearGradient>
<linearGradient id="paint3_linear_226_631" x1="9.36251" y1="9.69892" x2="14.8447" y2="30.7009" gradientUnits="userSpaceOnUse">
<stop stop-color="#EF552C"/>
<stop offset="0.46" stop-color="#8C2DDA"/>
<stop offset="1" stop-color="#30324A"/>
</linearGradient>
<linearGradient id="paint4_linear_226_631" x1="9.14692" y1="9.75636" x2="14.6291" y2="30.7584" gradientUnits="userSpaceOnUse">
<stop stop-color="#EF552C"/>
<stop offset="0.46" stop-color="#8C2DDA"/>
<stop offset="1" stop-color="#30324A"/>
</linearGradient>
<linearGradient id="paint5_linear_226_631" x1="14.3415" y1="8.39865" x2="19.8237" y2="29.4031" gradientUnits="userSpaceOnUse">
<stop stop-color="#EF552C"/>
<stop offset="0.46" stop-color="#8C2DDA"/>
<stop offset="1" stop-color="#30324A"/>
</linearGradient>
<linearGradient id="paint6_linear_226_631" x1="20.6894" y1="6.74164" x2="26.1716" y2="27.7461" gradientUnits="userSpaceOnUse">
<stop stop-color="#EF552C"/>
<stop offset="0.46" stop-color="#8C2DDA"/>
<stop offset="1" stop-color="#30324A"/>
</linearGradient>
</defs>
</svg>
