<svg xmlns="http://www.w3.org/2000/svg" width="247" height="59" viewBox="0 0 247 59" fill="none">
  <mask id="path-1-inside-1_122_6715" fill="white">
    <path d="M150.875 45.4299H150.793C150.834 45.4299 150.834 45.4696 150.875 45.4696H150.916L150.875 45.4299ZM150.875 45.4696C150.547 45.4696 149.686 45.6283 148.784 45.6283C145.954 45.6283 144.97 44.3586 144.97 42.6922V31.6621H150.752C151.08 31.6621 151.326 31.3843 151.326 30.9876V24.9964C151.326 24.679 151.039 24.4012 150.752 24.4012H144.97V16.942C144.97 16.6643 144.765 16.5056 144.437 16.5056H136.563C136.235 16.5056 136.071 16.704 136.071 16.942V24.5996C136.071 24.5996 132.093 25.5519 131.847 25.5915C131.559 25.6709 131.395 25.909 131.395 26.1867V30.9876C131.395 31.3843 131.682 31.6621 132.011 31.6621H136.03V43.2477C136.03 51.8575 142.222 52.7304 146.446 52.7304C148.373 52.7304 150.711 52.1353 151.08 51.9369C151.285 51.8575 151.408 51.6195 151.408 51.3814V46.1044C151.408 45.787 151.203 45.5489 150.875 45.4696ZM237.242 37.7326C237.242 31.3447 234.576 30.5115 231.787 30.7892C229.614 30.9082 227.851 31.9795 227.851 31.9795V44.3983C227.851 44.3983 229.614 45.5886 232.28 45.668C236.011 45.7473 237.242 44.438 237.242 37.7326ZM246.1 37.1771C246.1 49.2785 242.04 52.7304 234.986 52.7304C228.999 52.7304 225.8 49.7943 225.8 49.7943C225.8 49.7943 225.677 51.4211 225.472 51.6195C225.349 51.8179 225.185 51.8972 224.939 51.8972H219.567C219.197 51.8972 218.869 51.6195 218.869 51.3021L218.951 12.1411C218.951 11.8237 219.238 11.546 219.567 11.546H227.317C227.645 11.546 227.933 11.8237 227.933 12.1411V25.4328C227.933 25.4328 230.926 23.568 235.314 23.568L235.273 23.4887C239.62 23.4887 246.1 25.0757 246.1 37.1771ZM214.317 24.4409H206.648C206.238 24.4409 206.033 24.7187 206.033 25.1154V44.2793C206.033 44.2793 204.024 45.6283 201.276 45.6283C198.528 45.6283 197.749 44.438 197.749 41.7796V25.0361C197.749 24.7187 197.462 24.4409 197.134 24.4409H189.342C189.014 24.4409 188.727 24.7187 188.727 25.0361V43.089C188.727 50.8259 193.197 52.7701 199.349 52.7701C204.434 52.7701 208.535 50.0721 208.535 50.0721C208.535 50.0721 208.74 51.4608 208.822 51.6591C208.904 51.8178 209.15 51.9766 209.396 51.9766H214.276C214.686 51.9766 214.891 51.6988 214.891 51.3814L214.973 25.0361C215.014 24.7187 214.686 24.4409 214.317 24.4409ZM127.951 24.4012H120.2C119.872 24.4012 119.585 24.7187 119.585 25.1154V50.9846C119.585 51.6988 120.077 51.9369 120.692 51.9369H127.705C128.443 51.9369 128.607 51.6195 128.607 50.9846V24.9964C128.566 24.679 128.279 24.4012 127.951 24.4012ZM124.096 12.4586C121.307 12.4586 119.051 14.6011 119.051 17.3388C119.051 20.0765 121.266 22.219 124.096 22.219C126.925 22.219 129.058 20.0765 129.058 17.3388C129.058 14.6011 126.843 12.4586 124.096 12.4586ZM184.216 11.5857H176.506C176.178 11.5857 175.891 11.8634 175.891 12.1808V26.5835H163.834V12.1808C163.834 11.8634 163.547 11.5857 163.219 11.5857H155.468C155.14 11.5857 154.853 11.8634 154.853 12.1808V51.3417C154.853 51.6591 155.181 51.9369 155.468 51.9369H163.219C163.547 51.9369 163.834 51.6591 163.834 51.3417V34.5982H175.891L175.809 51.3417C175.809 51.6591 176.096 51.9369 176.424 51.9369H184.175C184.503 51.9369 184.79 51.6591 184.79 51.3417V12.1808C184.831 11.8634 184.544 11.5857 184.216 11.5857ZM115.443 28.9244V49.1595C115.443 49.2785 115.402 49.5563 115.238 49.596C115.238 49.596 110.685 52.7304 103.181 52.7304C94.1175 52.7304 83.3319 49.9927 83.3319 31.8605C83.3319 13.7282 92.7232 9.9986 101.909 10.0383C109.865 10.0383 113.064 11.7841 113.556 12.1015C113.679 12.2998 113.761 12.4189 113.761 12.5776L112.285 18.8862C112.285 19.2036 111.957 19.6004 111.547 19.4813C110.234 19.0846 108.266 18.3307 103.632 18.3307C98.2595 18.3307 92.5181 19.7987 92.5181 31.5034C92.5181 43.208 97.9724 44.557 101.909 44.557C105.272 44.557 106.461 44.1602 106.461 44.1602V36.0662H101.089C100.679 36.0662 100.392 35.7885 100.392 35.471V28.9641C100.392 28.6467 100.679 28.3689 101.089 28.3689H114.745C115.156 28.3292 115.443 28.607 115.443 28.9244Z"/>
  </mask>
  <path d="M150.875 45.4299H150.793C150.834 45.4299 150.834 45.4696 150.875 45.4696H150.916L150.875 45.4299ZM150.875 45.4696C150.547 45.4696 149.686 45.6283 148.784 45.6283C145.954 45.6283 144.97 44.3586 144.97 42.6922V31.6621H150.752C151.08 31.6621 151.326 31.3843 151.326 30.9876V24.9964C151.326 24.679 151.039 24.4012 150.752 24.4012H144.97V16.942C144.97 16.6643 144.765 16.5056 144.437 16.5056H136.563C136.235 16.5056 136.071 16.704 136.071 16.942V24.5996C136.071 24.5996 132.093 25.5519 131.847 25.5915C131.559 25.6709 131.395 25.909 131.395 26.1867V30.9876C131.395 31.3843 131.682 31.6621 132.011 31.6621H136.03V43.2477C136.03 51.8575 142.222 52.7304 146.446 52.7304C148.373 52.7304 150.711 52.1353 151.08 51.9369C151.285 51.8575 151.408 51.6195 151.408 51.3814V46.1044C151.408 45.787 151.203 45.5489 150.875 45.4696ZM237.242 37.7326C237.242 31.3447 234.576 30.5115 231.787 30.7892C229.614 30.9082 227.851 31.9795 227.851 31.9795V44.3983C227.851 44.3983 229.614 45.5886 232.28 45.668C236.011 45.7473 237.242 44.438 237.242 37.7326ZM246.1 37.1771C246.1 49.2785 242.04 52.7304 234.986 52.7304C228.999 52.7304 225.8 49.7943 225.8 49.7943C225.8 49.7943 225.677 51.4211 225.472 51.6195C225.349 51.8179 225.185 51.8972 224.939 51.8972H219.567C219.197 51.8972 218.869 51.6195 218.869 51.3021L218.951 12.1411C218.951 11.8237 219.238 11.546 219.567 11.546H227.317C227.645 11.546 227.933 11.8237 227.933 12.1411V25.4328C227.933 25.4328 230.926 23.568 235.314 23.568L235.273 23.4887C239.62 23.4887 246.1 25.0757 246.1 37.1771ZM214.317 24.4409H206.648C206.238 24.4409 206.033 24.7187 206.033 25.1154V44.2793C206.033 44.2793 204.024 45.6283 201.276 45.6283C198.528 45.6283 197.749 44.438 197.749 41.7796V25.0361C197.749 24.7187 197.462 24.4409 197.134 24.4409H189.342C189.014 24.4409 188.727 24.7187 188.727 25.0361V43.089C188.727 50.8259 193.197 52.7701 199.349 52.7701C204.434 52.7701 208.535 50.0721 208.535 50.0721C208.535 50.0721 208.74 51.4608 208.822 51.6591C208.904 51.8178 209.15 51.9766 209.396 51.9766H214.276C214.686 51.9766 214.891 51.6988 214.891 51.3814L214.973 25.0361C215.014 24.7187 214.686 24.4409 214.317 24.4409ZM127.951 24.4012H120.2C119.872 24.4012 119.585 24.7187 119.585 25.1154V50.9846C119.585 51.6988 120.077 51.9369 120.692 51.9369H127.705C128.443 51.9369 128.607 51.6195 128.607 50.9846V24.9964C128.566 24.679 128.279 24.4012 127.951 24.4012ZM124.096 12.4586C121.307 12.4586 119.051 14.6011 119.051 17.3388C119.051 20.0765 121.266 22.219 124.096 22.219C126.925 22.219 129.058 20.0765 129.058 17.3388C129.058 14.6011 126.843 12.4586 124.096 12.4586ZM184.216 11.5857H176.506C176.178 11.5857 175.891 11.8634 175.891 12.1808V26.5835H163.834V12.1808C163.834 11.8634 163.547 11.5857 163.219 11.5857H155.468C155.14 11.5857 154.853 11.8634 154.853 12.1808V51.3417C154.853 51.6591 155.181 51.9369 155.468 51.9369H163.219C163.547 51.9369 163.834 51.6591 163.834 51.3417V34.5982H175.891L175.809 51.3417C175.809 51.6591 176.096 51.9369 176.424 51.9369H184.175C184.503 51.9369 184.79 51.6591 184.79 51.3417V12.1808C184.831 11.8634 184.544 11.5857 184.216 11.5857ZM115.443 28.9244V49.1595C115.443 49.2785 115.402 49.5563 115.238 49.596C115.238 49.596 110.685 52.7304 103.181 52.7304C94.1175 52.7304 83.3319 49.9927 83.3319 31.8605C83.3319 13.7282 92.7232 9.9986 101.909 10.0383C109.865 10.0383 113.064 11.7841 113.556 12.1015C113.679 12.2998 113.761 12.4189 113.761 12.5776L112.285 18.8862C112.285 19.2036 111.957 19.6004 111.547 19.4813C110.234 19.0846 108.266 18.3307 103.632 18.3307C98.2595 18.3307 92.5181 19.7987 92.5181 31.5034C92.5181 43.208 97.9724 44.557 101.909 44.557C105.272 44.557 106.461 44.1602 106.461 44.1602V36.0662H101.089C100.679 36.0662 100.392 35.7885 100.392 35.471V28.9641C100.392 28.6467 100.679 28.3689 101.089 28.3689H114.745C115.156 28.3292 115.443 28.607 115.443 28.9244Z" fill="url(#paint0_linear_122_6715)"/>
  <path d="M150.875 45.4299L151.223 45.0705L151.077 44.9299H150.875V45.4299ZM150.916 45.4696V45.9696H152.152L151.264 45.1102L150.916 45.4696ZM144.97 31.6621V31.1621H144.47V31.6621H144.97ZM144.97 24.4012H144.47V24.9012H144.97V24.4012ZM136.071 24.5996L136.187 25.0859L136.571 24.9941V24.5996H136.071ZM131.847 25.5915L131.767 25.0979L131.74 25.1023L131.713 25.1096L131.847 25.5915ZM136.03 31.6621H136.53V31.1621H136.03V31.6621ZM151.08 51.9369L150.9 51.4706L150.871 51.4818L150.843 51.4965L151.08 51.9369ZM231.787 30.7892L231.815 31.2884L231.826 31.2878L231.837 31.2867L231.787 30.7892ZM227.851 31.9795L227.591 31.5522L227.351 31.6982V31.9795H227.851ZM227.851 44.3983H227.351V44.6641L227.571 44.8127L227.851 44.3983ZM232.28 45.668L232.265 46.1678L232.269 46.1678L232.28 45.668ZM225.8 49.7943L226.138 49.426L225.379 48.7293L225.301 49.7566L225.8 49.7943ZM225.472 51.6195L225.124 51.2601L225.08 51.3032L225.047 51.3559L225.472 51.6195ZM218.869 51.3021L218.369 51.301V51.3021H218.869ZM218.951 12.1411L219.451 12.1422V12.1411H218.951ZM227.933 25.4328H227.433V26.3334L228.197 25.8572L227.933 25.4328ZM235.314 23.568V24.068H236.135L235.759 23.3385L235.314 23.568ZM235.273 23.4887V22.9887H234.452L234.829 23.7182L235.273 23.4887ZM206.033 44.2793L206.312 44.6944L206.533 44.5458V44.2793H206.033ZM208.535 50.0721L209.03 49.999L208.915 49.2235L208.26 49.6544L208.535 50.0721ZM208.822 51.6591L208.36 51.8502L208.368 51.8698L208.378 51.8887L208.822 51.6591ZM214.891 51.3814L214.391 51.3798V51.3814H214.891ZM214.973 25.0361L214.478 24.972L214.474 25.0031L214.473 25.0345L214.973 25.0361ZM128.607 24.9964H129.107V24.9642L129.103 24.9323L128.607 24.9964ZM175.891 26.5835V27.0835H176.391V26.5835H175.891ZM163.834 26.5835H163.334V27.0835H163.834V26.5835ZM163.834 34.5982V34.0982H163.334V34.5982H163.834ZM175.891 34.5982L176.391 34.6006L176.394 34.0982H175.891V34.5982ZM175.809 51.3417L175.309 51.3393V51.3417H175.809ZM184.79 12.1808L184.294 12.1168L184.29 12.1487V12.1808H184.79ZM115.238 49.596L115.12 49.11L115.03 49.1317L114.954 49.1841L115.238 49.596ZM101.909 10.0383L101.907 10.5383H101.909V10.0383ZM113.556 12.1015L113.981 11.8379L113.922 11.7423L113.827 11.6813L113.556 12.1015ZM113.761 12.5776L114.248 12.6915L114.261 12.6353V12.5776H113.761ZM112.285 18.8862L111.798 18.7722L111.785 18.8285V18.8862H112.285ZM111.547 19.4813L111.402 19.96L111.407 19.9615L111.547 19.4813ZM106.461 44.1602L106.62 44.6345L106.961 44.5205V44.1602H106.461ZM106.461 36.0662H106.961V35.5662H106.461V36.0662ZM114.745 28.3689V28.8689H114.77L114.794 28.8666L114.745 28.3689ZM150.875 44.9299H150.793V45.9299H150.875V44.9299ZM150.793 45.9299C150.757 45.9299 150.717 45.9255 150.676 45.9142C150.634 45.9029 150.598 45.8866 150.566 45.8685C150.536 45.851 150.514 45.8336 150.502 45.8227C150.49 45.8132 150.482 45.8048 150.486 45.8091C150.487 45.8098 150.501 45.8232 150.517 45.8373C150.535 45.8528 150.563 45.8746 150.6 45.8958C150.637 45.9176 150.681 45.937 150.731 45.9505C150.78 45.9639 150.829 45.9696 150.875 45.9696V44.9696C150.911 44.9696 150.951 44.974 150.992 44.9853C151.034 44.9966 151.071 45.0129 151.102 45.031C151.132 45.0485 151.154 45.0659 151.167 45.0768C151.178 45.0862 151.186 45.0947 151.182 45.0904C151.181 45.0897 151.167 45.0763 151.151 45.0622C151.133 45.0467 151.105 45.0249 151.068 45.0037C151.031 44.9819 150.987 44.9625 150.937 44.949C150.888 44.9356 150.839 44.9299 150.793 44.9299V45.9299ZM150.875 45.9696H150.916V44.9696H150.875V45.9696ZM151.264 45.1102L151.223 45.0705L150.527 45.7893L150.568 45.8289L151.264 45.1102ZM150.875 44.9696C150.675 44.9696 150.327 45.0157 149.991 45.0518C149.627 45.0909 149.208 45.1283 148.784 45.1283V46.1283C149.262 46.1283 149.724 46.0863 150.098 46.0461C150.5 46.0028 150.747 45.9696 150.875 45.9696V44.9696ZM148.784 45.1283C147.434 45.1283 146.619 44.8243 146.145 44.4091C145.683 44.0041 145.47 43.4257 145.47 42.6922H144.47C144.47 43.6252 144.748 44.5148 145.486 45.1612C146.212 45.7974 147.304 46.1283 148.784 46.1283V45.1283ZM145.47 42.6922V31.6621H144.47V42.6922H145.47ZM144.97 32.1621H150.752V31.1621H144.97V32.1621ZM150.752 32.1621C151.424 32.1621 151.826 31.5878 151.826 30.9876H150.826C150.826 31.0836 150.797 31.1314 150.783 31.1473C150.776 31.1554 150.771 31.1582 150.769 31.1593C150.767 31.1601 150.762 31.1621 150.752 31.1621V32.1621ZM151.826 30.9876V24.9964H150.826V30.9876H151.826ZM151.826 24.9964C151.826 24.6863 151.688 24.416 151.503 24.2286C151.32 24.0434 151.054 23.9012 150.752 23.9012V24.9012C150.743 24.9012 150.744 24.8992 150.754 24.9037C150.763 24.9082 150.777 24.917 150.791 24.931C150.821 24.9618 150.826 24.9891 150.826 24.9964H151.826ZM150.752 23.9012H144.97V24.9012H150.752V23.9012ZM145.47 24.4012V16.942H144.47V24.4012H145.47ZM145.47 16.942C145.47 16.6686 145.362 16.4097 145.14 16.2304C144.932 16.0625 144.674 16.0056 144.437 16.0056V17.0056C144.479 17.0056 144.505 17.0108 144.517 17.0144C144.529 17.0179 144.524 17.0186 144.512 17.0089C144.499 16.9981 144.486 16.9817 144.477 16.9624C144.469 16.944 144.47 16.9346 144.47 16.942H145.47ZM144.437 16.0056H136.563V17.0056H144.437V16.0056ZM136.563 16.0056C136.296 16.0056 136.039 16.0882 135.846 16.2752C135.653 16.4613 135.571 16.7068 135.571 16.942H136.571C136.571 16.9398 136.571 16.9455 136.567 16.9566C136.562 16.9683 136.554 16.982 136.541 16.9939C136.535 16.9995 136.53 17.0036 136.525 17.0065C136.523 17.0078 136.521 17.0088 136.52 17.0094C136.519 17.0101 136.518 17.0103 136.518 17.0103C136.518 17.0103 136.521 17.0091 136.528 17.008C136.536 17.0068 136.547 17.0056 136.563 17.0056V16.0056ZM135.571 16.942V24.5996H136.571V16.942H135.571ZM136.071 24.5996C135.954 24.1134 135.954 24.1134 135.954 24.1134C135.954 24.1134 135.954 24.1134 135.954 24.1134C135.954 24.1134 135.954 24.1135 135.953 24.1135C135.953 24.1137 135.952 24.1138 135.951 24.1141C135.949 24.1145 135.947 24.1152 135.943 24.1161C135.935 24.1179 135.924 24.1206 135.909 24.1241C135.88 24.131 135.837 24.1413 135.783 24.1543C135.674 24.1804 135.517 24.2178 135.329 24.2627C134.952 24.3525 134.448 24.4728 133.935 24.5942C133.423 24.7157 132.904 24.8382 132.497 24.9328C132.294 24.9802 132.119 25.0203 131.989 25.0498C131.923 25.0645 131.87 25.0764 131.83 25.085C131.809 25.0893 131.794 25.0926 131.782 25.095C131.768 25.0977 131.765 25.0983 131.767 25.0979L131.926 26.0852C132.073 26.0615 133.159 25.8059 134.166 25.5672C134.679 25.4456 135.184 25.3253 135.561 25.2354C135.75 25.1904 135.906 25.1531 136.015 25.1269C136.07 25.1139 136.113 25.1036 136.142 25.0966C136.157 25.0931 136.168 25.0904 136.175 25.0886C136.179 25.0877 136.182 25.087 136.184 25.0866C136.185 25.0864 136.186 25.0862 136.186 25.0861C136.186 25.086 136.187 25.086 136.187 25.0859C136.187 25.0859 136.187 25.0859 136.187 25.0859C136.187 25.0859 136.187 25.0859 136.071 24.5996ZM131.713 25.1096C131.198 25.2521 130.895 25.6965 130.895 26.1867H131.895C131.895 26.147 131.907 26.1239 131.916 26.1117C131.923 26.1011 131.94 26.0845 131.98 26.0735L131.713 25.1096ZM130.895 26.1867V30.9876H131.895V26.1867H130.895ZM130.895 30.9876C130.895 31.6347 131.381 32.1621 132.011 32.1621V31.1621C131.991 31.1621 131.966 31.1541 131.943 31.1297C131.921 31.1067 131.895 31.0624 131.895 30.9876H130.895ZM132.011 32.1621H136.03V31.1621H132.011V32.1621ZM135.53 31.6621V43.2477H136.53V31.6621H135.53ZM135.53 43.2477C135.53 47.6913 137.14 50.2397 139.389 51.642C141.592 53.0154 144.319 53.2304 146.446 53.2304V52.2304C144.349 52.2304 141.868 52.009 139.918 50.7934C138.015 49.6069 136.53 47.4139 136.53 43.2477H135.53ZM146.446 53.2304C147.455 53.2304 148.556 53.0755 149.445 52.8984C149.892 52.8095 150.291 52.7137 150.605 52.6263C150.9 52.5443 151.168 52.4571 151.317 52.3773L150.843 51.4965C150.844 51.4961 150.841 51.4977 150.833 51.5013C150.826 51.5047 150.815 51.5092 150.802 51.5147C150.774 51.5258 150.738 51.5393 150.692 51.5549C150.601 51.5861 150.482 51.6228 150.338 51.6628C150.05 51.7428 149.675 51.833 149.25 51.9177C148.396 52.0877 147.365 52.2304 146.446 52.2304V53.2304ZM151.261 52.4032C151.717 52.2264 151.908 51.7542 151.908 51.3814H150.908C150.908 51.4177 150.898 51.451 150.886 51.4715C150.875 51.4918 150.874 51.4805 150.9 51.4706L151.261 52.4032ZM151.908 51.3814V46.1044H150.908V51.3814H151.908ZM151.908 46.1044C151.908 45.5269 151.515 45.11 150.993 44.9836L150.758 45.9556C150.834 45.9739 150.869 46.0036 150.883 46.0206C150.895 46.0351 150.908 46.0581 150.908 46.1044H151.908ZM237.742 37.7326C237.742 34.4924 237.07 32.5146 235.906 31.4002C234.731 30.2745 233.179 30.1481 231.738 30.2917L231.837 31.2867C233.184 31.1526 234.36 31.3039 235.215 32.1224C236.081 32.9521 236.742 34.5849 236.742 37.7326H237.742ZM231.76 30.2899C230.602 30.3533 229.563 30.6691 228.82 30.9642C228.446 31.1124 228.143 31.257 227.932 31.3654C227.826 31.4197 227.743 31.4651 227.685 31.4975C227.656 31.5137 227.634 31.5267 227.618 31.536C227.61 31.5406 227.604 31.5443 227.599 31.5471C227.597 31.5484 227.595 31.5495 227.594 31.5504C227.593 31.5508 227.593 31.5512 227.592 31.5515C227.592 31.5516 227.592 31.5517 227.591 31.5519C227.591 31.5519 227.591 31.552 227.591 31.552C227.591 31.5521 227.591 31.5522 227.851 31.9795C228.11 32.4068 228.11 32.4069 228.11 32.4069C228.11 32.4069 228.11 32.407 228.11 32.407C228.11 32.4071 228.11 32.4071 228.11 32.4071C228.11 32.4072 228.11 32.4071 228.11 32.4071C228.11 32.4069 228.111 32.4065 228.112 32.4058C228.114 32.4044 228.118 32.4021 228.124 32.3989C228.135 32.3924 228.152 32.3823 228.176 32.369C228.223 32.3424 228.295 32.3031 228.388 32.2551C228.576 32.1589 228.849 32.0283 229.188 31.8937C229.87 31.6235 230.799 31.3441 231.815 31.2884L231.76 30.2899ZM227.351 31.9795V44.3983H228.351V31.9795H227.351ZM227.851 44.3983C227.571 44.8127 227.571 44.8128 227.571 44.8129C227.571 44.813 227.571 44.8131 227.571 44.8132C227.572 44.8133 227.572 44.8135 227.572 44.8137C227.573 44.8141 227.573 44.8145 227.574 44.8151C227.576 44.8161 227.578 44.8175 227.58 44.8191C227.585 44.8223 227.592 44.8267 227.6 44.8321C227.617 44.8428 227.64 44.8577 227.67 44.8761C227.731 44.9129 227.817 44.9639 227.928 45.0245C228.151 45.1458 228.473 45.306 228.881 45.4681C229.696 45.7919 230.861 46.126 232.265 46.1677L232.294 45.1682C231.032 45.1306 229.983 44.8298 229.25 44.5387C228.884 44.3933 228.599 44.2509 228.407 44.1465C228.311 44.0944 228.239 44.0518 228.193 44.0232C228.169 44.0089 228.152 43.9981 228.142 43.9913C228.136 43.988 228.133 43.9856 228.131 43.9843C228.13 43.9837 228.129 43.9834 228.129 43.9833C228.129 43.9832 228.129 43.9833 228.129 43.9834C228.13 43.9834 228.13 43.9835 228.13 43.9836C228.13 43.9836 228.13 43.9837 228.13 43.9837C228.13 43.9838 228.13 43.9839 227.851 44.3983ZM232.269 46.1678C234.173 46.2083 235.651 45.9032 236.576 44.5228C237.018 43.8619 237.305 42.9935 237.485 41.893C237.665 40.7901 237.742 39.4205 237.742 37.7326H236.742C236.742 39.3974 236.665 40.706 236.498 41.732C236.33 42.7604 236.076 43.4716 235.745 43.9663C235.121 44.8971 234.118 45.2069 232.29 45.1681L232.269 46.1678ZM245.6 37.1771C245.6 43.1943 244.586 46.9397 242.797 49.1798C241.034 51.3891 238.435 52.2304 234.986 52.2304V53.2304C238.592 53.2304 241.549 52.3458 243.579 49.8038C245.584 47.2926 246.6 43.2614 246.6 37.1771H245.6ZM234.986 52.2304C232.077 52.2304 229.853 51.5174 228.362 50.8106C227.616 50.4569 227.053 50.1045 226.68 49.8434C226.493 49.7129 226.354 49.6053 226.264 49.5319C226.218 49.4952 226.185 49.4671 226.164 49.449C226.154 49.4399 226.146 49.4333 226.142 49.4294C226.14 49.4275 226.138 49.4262 226.138 49.4256C226.137 49.4253 226.137 49.4252 226.137 49.4253C226.137 49.4253 226.137 49.4254 226.138 49.4255C226.138 49.4256 226.138 49.4257 226.138 49.4257C226.138 49.4258 226.138 49.426 225.8 49.7943C225.462 50.1627 225.462 50.1629 225.462 50.163C225.462 50.1631 225.463 50.1633 225.463 50.1634C225.463 50.1637 225.463 50.1641 225.464 50.1645C225.465 50.1652 225.466 50.1662 225.467 50.1673C225.469 50.1695 225.473 50.1725 225.477 50.1761C225.485 50.1833 225.496 50.1932 225.511 50.2057C225.539 50.2305 225.581 50.2655 225.635 50.3091C225.742 50.3963 225.9 50.5181 226.107 50.6628C226.52 50.9522 227.131 51.3338 227.934 51.7142C229.539 52.4753 231.908 53.2304 234.986 53.2304V52.2304ZM225.8 49.7943C225.301 49.7566 225.301 49.7566 225.301 49.7566C225.301 49.7566 225.301 49.7566 225.301 49.7566C225.301 49.7566 225.301 49.7566 225.301 49.7567C225.301 49.7568 225.301 49.757 225.301 49.7574C225.301 49.758 225.301 49.759 225.301 49.7604C225.301 49.7631 225.301 49.7674 225.3 49.773C225.299 49.7843 225.298 49.8012 225.296 49.8228C225.292 49.8662 225.287 49.9287 225.28 50.0045C225.265 50.1565 225.244 50.3598 225.217 50.5677C225.19 50.778 225.157 50.9827 225.122 51.1414C225.104 51.2216 225.088 51.2785 225.075 51.3138C225.054 51.3703 225.061 51.3211 225.124 51.2601L225.82 51.9788C225.934 51.8682 225.99 51.7248 226.015 51.6544C226.048 51.5628 226.075 51.46 226.098 51.3598C226.143 51.1577 226.18 50.9185 226.209 50.6973C226.238 50.4738 226.26 50.258 226.275 50.0988C226.283 50.0189 226.289 49.9528 226.293 49.9064C226.295 49.8832 226.296 49.8649 226.297 49.8523C226.298 49.846 226.298 49.841 226.298 49.8376C226.298 49.8359 226.298 49.8346 226.298 49.8337C226.299 49.8332 226.299 49.8328 226.299 49.8326C226.299 49.8324 226.299 49.8323 226.299 49.8322C226.299 49.8322 226.299 49.8321 226.299 49.8321C226.299 49.8321 226.299 49.832 225.8 49.7943ZM225.047 51.3559C225.035 51.3759 225.026 51.3846 225.024 51.3872C225.022 51.3892 225.022 51.3885 225.024 51.3877C225.027 51.3857 225.009 51.3972 224.939 51.3972V52.3972C225.114 52.3972 225.301 52.369 225.479 52.2777C225.662 52.1843 225.797 52.0445 225.897 51.883L225.047 51.3559ZM224.939 51.3972H219.567V52.3972H224.939V51.3972ZM219.567 51.3972C219.505 51.3972 219.445 51.3729 219.404 51.3379C219.361 51.3018 219.369 51.2833 219.369 51.3021H218.369C218.369 51.6382 218.542 51.9173 218.755 52.0994C218.971 52.2826 219.259 52.3972 219.567 52.3972V51.3972ZM219.369 51.3031L219.451 12.1422L218.451 12.1401L218.369 51.301L219.369 51.3031ZM219.451 12.1411C219.451 12.1352 219.455 12.1116 219.484 12.0839C219.512 12.0564 219.544 12.046 219.567 12.046V11.046C218.978 11.046 218.451 11.5321 218.451 12.1411H219.451ZM219.567 12.046H227.317V11.046H219.567V12.046ZM227.317 12.046C227.34 12.046 227.372 12.0564 227.4 12.0839C227.429 12.1116 227.433 12.1352 227.433 12.1411H228.433C228.433 11.5321 227.906 11.046 227.317 11.046V12.046ZM227.433 12.1411V25.4328H228.433V12.1411H227.433ZM227.933 25.4328C228.197 25.8572 228.197 25.8573 228.197 25.8574C228.197 25.8574 228.197 25.8575 228.196 25.8575C228.196 25.8575 228.196 25.8576 228.196 25.8576C228.196 25.8576 228.197 25.8575 228.197 25.8572C228.198 25.8568 228.199 25.8559 228.201 25.8546C228.205 25.852 228.213 25.8477 228.223 25.8418C228.242 25.83 228.273 25.8118 228.315 25.7882C228.399 25.741 228.526 25.6721 228.693 25.5886C229.026 25.4215 229.52 25.1965 230.147 24.971C231.403 24.5195 233.191 24.068 235.314 24.068V23.068C233.05 23.068 231.147 23.549 229.809 24.0299C229.139 24.2705 228.61 24.5118 228.245 24.6944C228.063 24.7857 227.921 24.8624 227.824 24.9172C227.776 24.9446 227.738 24.9665 227.712 24.982C227.699 24.9898 227.689 24.9959 227.681 25.0004C227.678 25.0026 227.675 25.0044 227.673 25.0057C227.671 25.0064 227.671 25.007 227.67 25.0074C227.669 25.0076 227.669 25.0078 227.669 25.008C227.669 25.0081 227.669 25.0082 227.668 25.0082C227.668 25.0083 227.668 25.0084 227.933 25.4328ZM235.759 23.3385L235.718 23.2592L234.829 23.7182L234.87 23.7975L235.759 23.3385ZM235.273 23.9887C237.398 23.9887 239.957 24.3787 241.986 26.1697C244.004 27.9515 245.6 31.2115 245.6 37.1771H246.6C246.6 31.0414 244.956 27.4572 242.648 25.42C240.35 23.3922 237.496 22.9887 235.273 22.9887V23.9887ZM214.317 23.9409H206.648V24.9409H214.317V23.9409ZM206.648 23.9409C206.323 23.9409 206.021 24.0562 205.808 24.3031C205.605 24.5389 205.533 24.8368 205.533 25.1154H206.533C206.533 24.9973 206.564 24.9579 206.566 24.9557C206.566 24.9552 206.567 24.9541 206.573 24.9516C206.58 24.9486 206.602 24.9409 206.648 24.9409V23.9409ZM205.533 25.1154V44.2793H206.533V25.1154H205.533ZM206.033 44.2793C205.755 43.8641 205.755 43.8641 205.755 43.864C205.755 43.864 205.755 43.8639 205.755 43.8639C205.755 43.8638 205.755 43.8637 205.755 43.8637C205.755 43.8636 205.755 43.8636 205.755 43.8637C205.755 43.8639 205.754 43.8644 205.753 43.8652C205.75 43.8668 205.746 43.8697 205.74 43.8737C205.728 43.8817 205.708 43.8942 205.681 43.9107C205.627 43.9437 205.545 43.9923 205.437 44.0513C205.22 44.1696 204.901 44.3292 204.5 44.4893C203.695 44.8103 202.57 45.1283 201.276 45.1283V46.1283C202.73 46.1283 203.984 45.7717 204.87 45.4182C205.315 45.2411 205.67 45.0634 205.916 44.9288C206.039 44.8614 206.136 44.8046 206.202 44.7638C206.236 44.7434 206.262 44.7269 206.28 44.7152C206.289 44.7093 206.297 44.7045 206.302 44.7011C206.305 44.6993 206.307 44.6979 206.308 44.6968C206.309 44.6962 206.31 44.6957 206.311 44.6953C206.311 44.6951 206.311 44.695 206.311 44.6948C206.312 44.6947 206.312 44.6946 206.312 44.6946C206.312 44.6945 206.312 44.6944 206.033 44.2793ZM201.276 45.1283C199.958 45.1283 199.26 44.8407 198.862 44.376C198.448 43.8905 198.249 43.0877 198.249 41.7796H197.249C197.249 43.1299 197.441 44.2515 198.102 45.0257C198.782 45.8207 199.846 46.1283 201.276 46.1283V45.1283ZM198.249 41.7796V25.0361H197.249V41.7796H198.249ZM198.249 25.0361C198.249 24.4271 197.723 23.9409 197.134 23.9409V24.9409C197.157 24.9409 197.189 24.9513 197.217 24.9788C197.246 25.0065 197.249 25.0302 197.249 25.0361H198.249ZM197.134 23.9409H189.342V24.9409H197.134V23.9409ZM189.342 23.9409C188.754 23.9409 188.227 24.4271 188.227 25.0361H189.227C189.227 25.0302 189.231 25.0065 189.259 24.9788C189.288 24.9513 189.32 24.9409 189.342 24.9409V23.9409ZM188.227 25.0361V43.089H189.227V25.0361H188.227ZM188.227 43.089C188.227 47.0553 189.377 49.649 191.426 51.227C193.446 52.783 196.24 53.2701 199.349 53.2701V52.2701C196.306 52.2701 193.789 51.7851 192.036 50.4348C190.312 49.1065 189.227 46.8596 189.227 43.089H188.227ZM199.349 53.2701C201.976 53.2701 204.339 52.5739 206.037 51.8843C206.888 51.5388 207.576 51.1931 208.054 50.9326C208.293 50.8023 208.479 50.6932 208.607 50.6159C208.671 50.5773 208.721 50.5465 208.755 50.5251C208.772 50.5143 208.785 50.5059 208.794 50.5C208.799 50.497 208.802 50.4947 208.805 50.493C208.806 50.4921 208.807 50.4914 208.808 50.4909C208.808 50.4906 208.809 50.4904 208.809 50.4902C208.809 50.4901 208.809 50.49 208.809 50.49C208.81 50.4899 208.81 50.4898 208.535 50.0721C208.26 49.6544 208.26 49.6543 208.26 49.6542C208.26 49.6542 208.26 49.6542 208.26 49.6542C208.26 49.6542 208.26 49.6542 208.26 49.6542C208.26 49.6544 208.26 49.6546 208.259 49.6551C208.258 49.656 208.255 49.6575 208.252 49.6596C208.245 49.6639 208.235 49.6706 208.221 49.6797C208.192 49.6977 208.148 49.725 208.09 49.7601C207.974 49.8303 207.8 49.932 207.575 50.0546C207.125 50.3001 206.471 50.6288 205.661 50.9578C204.037 51.6173 201.806 52.2701 199.349 52.2701V53.2701ZM208.535 50.0721C208.04 50.1451 208.04 50.1451 208.04 50.1451C208.04 50.1452 208.04 50.1452 208.04 50.1452C208.04 50.1453 208.04 50.1453 208.04 50.1454C208.04 50.1456 208.04 50.1459 208.04 50.1463C208.041 50.147 208.041 50.148 208.041 50.1494C208.041 50.1521 208.042 50.1561 208.043 50.1614C208.044 50.1718 208.047 50.187 208.049 50.2065C208.055 50.2453 208.064 50.3009 208.074 50.3682C208.095 50.5026 208.123 50.6844 208.154 50.8728C208.185 51.0605 208.22 51.2581 208.252 51.423C208.279 51.5624 208.316 51.7437 208.36 51.8502L209.284 51.4681C209.287 51.4754 209.268 51.4087 209.233 51.232C209.204 51.0807 209.171 50.8939 209.141 50.7096C209.111 50.5261 209.083 50.3483 209.062 50.2161C209.052 50.1501 209.044 50.0957 209.038 50.0578C209.035 50.0389 209.033 50.0241 209.032 50.0141C209.031 50.0091 209.03 50.0053 209.03 50.0027C209.03 50.0015 209.03 50.0005 209.03 49.9999C209.03 49.9996 209.03 49.9994 209.03 49.9992C209.03 49.9991 209.03 49.9991 209.03 49.9991C209.03 49.999 209.03 49.999 209.03 49.999C209.03 49.999 209.03 49.999 208.535 50.0721ZM208.378 51.8887C208.475 52.0762 208.638 52.2177 208.797 52.3098C208.961 52.4051 209.169 52.4766 209.396 52.4766V51.4766C209.377 51.4766 209.339 51.4686 209.299 51.4449C209.28 51.4341 209.267 51.4234 209.259 51.4163C209.251 51.4083 209.257 51.4111 209.266 51.4296L208.378 51.8887ZM209.396 52.4766H214.276V51.4766H209.396V52.4766ZM214.276 52.4766C214.601 52.4766 214.893 52.363 215.102 52.1404C215.305 51.9239 215.391 51.6456 215.391 51.3814H214.391C214.391 51.4346 214.375 51.4539 214.373 51.4556C214.372 51.4567 214.369 51.4603 214.358 51.4645C214.347 51.4689 214.322 51.4766 214.276 51.4766V52.4766ZM215.391 51.383L215.473 25.0376L214.473 25.0345L214.391 51.3798L215.391 51.383ZM215.469 25.1001C215.516 24.7402 215.347 24.437 215.131 24.2454C214.916 24.0545 214.623 23.9409 214.317 23.9409V24.9409C214.381 24.9409 214.437 24.9662 214.467 24.9936C214.481 25.006 214.483 25.0127 214.482 25.0087C214.479 25.0028 214.475 24.9888 214.478 24.972L215.469 25.1001ZM127.951 23.9012H120.2V24.9012H127.951V23.9012ZM120.2 23.9012C119.535 23.9012 119.085 24.5076 119.085 25.1154H120.085C120.085 25.0374 120.113 24.976 120.146 24.9387C120.162 24.9204 120.176 24.9104 120.186 24.9056C120.195 24.9011 120.199 24.9012 120.2 24.9012V23.9012ZM119.085 25.1154V50.9846H120.085V25.1154H119.085ZM119.085 50.9846C119.085 51.4694 119.26 51.8698 119.609 52.1297C119.932 52.3698 120.333 52.4369 120.692 52.4369V51.4369C120.435 51.4369 120.283 51.3849 120.206 51.3275C120.155 51.2898 120.085 51.2141 120.085 50.9846H119.085ZM120.692 52.4369H127.705V51.4369H120.692V52.4369ZM127.705 52.4369C128.127 52.4369 128.54 52.3487 128.815 52.0204C129.072 51.7148 129.107 51.3142 129.107 50.9846H128.107C128.107 51.2899 128.06 51.3654 128.05 51.3773C128.048 51.3786 128.047 51.3807 128.041 51.3841C128.036 51.3878 128.023 51.395 127.999 51.403C127.948 51.42 127.857 51.4369 127.705 51.4369V52.4369ZM129.107 50.9846V24.9964H128.107V50.9846H129.107ZM129.103 24.9323C129.032 24.3884 128.552 23.9012 127.951 23.9012V24.9012C127.972 24.9012 128.008 24.9107 128.047 24.9468C128.087 24.9836 128.107 25.0282 128.111 25.0605L129.103 24.9323ZM124.096 11.9586C121.049 11.9586 118.551 14.3069 118.551 17.3388H119.551C119.551 14.8953 121.565 12.9586 124.096 12.9586V11.9586ZM118.551 17.3388C118.551 20.3681 121.006 22.719 124.096 22.719V21.719C121.526 21.719 119.551 19.7849 119.551 17.3388H118.551ZM124.096 22.719C127.197 22.719 129.558 20.3574 129.558 17.3388H128.558C128.558 19.7955 126.654 21.719 124.096 21.719V22.719ZM129.558 17.3388C129.558 14.3148 127.109 11.9586 124.096 11.9586V12.9586C126.577 12.9586 128.558 14.8874 128.558 17.3388H129.558ZM184.216 11.0857H176.506V12.0857H184.216V11.0857ZM176.506 11.0857C175.918 11.0857 175.391 11.5718 175.391 12.1808H176.391C176.391 12.1749 176.395 12.1512 176.423 12.1236C176.452 12.0961 176.484 12.0857 176.506 12.0857V11.0857ZM175.391 12.1808V26.5835H176.391V12.1808H175.391ZM175.891 26.0835H163.834V27.0835H175.891V26.0835ZM164.334 26.5835V12.1808H163.334V26.5835H164.334ZM164.334 12.1808C164.334 11.5718 163.808 11.0857 163.219 11.0857V12.0857C163.241 12.0857 163.274 12.0961 163.302 12.1236C163.331 12.1512 163.334 12.1749 163.334 12.1808H164.334ZM163.219 11.0857H155.468V12.0857H163.219V11.0857ZM155.468 11.0857C154.88 11.0857 154.353 11.5718 154.353 12.1808H155.353C155.353 12.1749 155.357 12.1512 155.385 12.1236C155.414 12.0961 155.446 12.0857 155.468 12.0857V11.0857ZM154.353 12.1808V51.3417H155.353V12.1808H154.353ZM154.353 51.3417C154.353 51.6744 154.522 51.948 154.713 52.1253C154.903 52.3008 155.173 52.4369 155.468 52.4369V51.4369C155.476 51.4369 155.469 51.4383 155.451 51.4302C155.433 51.4223 155.412 51.4091 155.393 51.3914C155.373 51.3736 155.362 51.3568 155.356 51.3455C155.351 51.3349 155.353 51.3339 155.353 51.3417H154.353ZM155.468 52.4369H163.219V51.4369H155.468V52.4369ZM163.219 52.4369C163.808 52.4369 164.334 51.9507 164.334 51.3417H163.334C163.334 51.3476 163.331 51.3713 163.302 51.399C163.274 51.4265 163.241 51.4369 163.219 51.4369V52.4369ZM164.334 51.3417V34.5982H163.334V51.3417H164.334ZM163.834 35.0982H175.891V34.0982H163.834V35.0982ZM175.391 34.5957L175.309 51.3393L176.309 51.3442L176.391 34.6006L175.391 34.5957ZM175.309 51.3417C175.309 51.9507 175.836 52.4369 176.424 52.4369V51.4369C176.402 51.4369 176.37 51.4265 176.341 51.399C176.313 51.3713 176.309 51.3476 176.309 51.3417H175.309ZM176.424 52.4369H184.175V51.4369H176.424V52.4369ZM184.175 52.4369C184.764 52.4369 185.29 51.9507 185.29 51.3417H184.29C184.29 51.3476 184.287 51.3713 184.258 51.399C184.23 51.4265 184.197 51.4369 184.175 51.4369V52.4369ZM185.29 51.3417V12.1808H184.29V51.3417H185.29ZM185.286 12.2449C185.373 11.5723 184.786 11.0857 184.216 11.0857V12.0857C184.24 12.0857 184.268 12.0971 184.286 12.1154C184.293 12.1233 184.295 12.1285 184.295 12.1281C184.295 12.1266 184.294 12.1219 184.294 12.1168L185.286 12.2449ZM114.943 28.9244V49.1595H115.943V28.9244H114.943ZM114.943 49.1595C114.943 49.1634 114.942 49.1786 114.939 49.1993C114.936 49.22 114.932 49.2358 114.929 49.2446C114.925 49.256 114.928 49.2407 114.949 49.2145C114.973 49.1847 115.028 49.1321 115.12 49.11L115.355 50.0819C115.701 49.9983 115.832 49.6937 115.874 49.5704C115.927 49.4171 115.943 49.2607 115.943 49.1595H114.943ZM115.238 49.596C114.954 49.1841 114.954 49.184 114.954 49.184C114.954 49.1839 114.954 49.1839 114.954 49.1839C114.954 49.1838 114.954 49.1838 114.954 49.1839C114.954 49.1839 114.954 49.1842 114.953 49.1847C114.952 49.1856 114.949 49.1873 114.946 49.1897C114.939 49.1945 114.927 49.2021 114.911 49.2125C114.88 49.2331 114.831 49.2644 114.765 49.3049C114.634 49.3859 114.435 49.5036 114.171 49.6458C113.645 49.9302 112.862 50.3123 111.847 50.6954C109.817 51.4615 106.863 52.2304 103.181 52.2304V53.2304C107.003 53.2304 110.078 52.4321 112.2 51.631C113.261 51.2304 114.085 50.8289 114.647 50.5256C114.927 50.374 115.143 50.2467 115.29 50.1563C115.363 50.1111 115.419 50.0751 115.458 50.0499C115.477 50.0372 115.492 50.0273 115.503 50.0202C115.508 50.0166 115.512 50.0138 115.515 50.0117C115.517 50.0107 115.518 50.0099 115.519 50.0092C115.52 50.0089 115.52 50.0086 115.52 50.0083C115.52 50.0082 115.521 50.0081 115.521 50.008C115.521 50.0079 115.521 50.0078 115.238 49.596ZM103.181 52.2304C98.6822 52.2304 93.8586 51.5471 90.1628 48.699C86.4933 45.8711 83.8319 40.825 83.8319 31.8605H82.8319C82.8319 41.0282 85.5634 46.417 89.5524 49.4911C93.5152 52.5449 98.616 53.2304 103.181 53.2304V52.2304ZM83.8319 31.8605C83.8319 22.8749 86.1578 17.5693 89.5131 14.504C92.8757 11.4319 97.3707 10.5187 101.907 10.5383L101.912 9.53828C97.2618 9.5182 92.4681 10.4499 88.8386 13.7658C85.2016 17.0884 82.8319 22.7137 82.8319 31.8605H83.8319ZM101.909 10.5383C109.795 10.5383 112.893 12.2688 113.285 12.5216L113.827 11.6813C113.235 11.2993 109.935 9.53828 101.909 9.53828V10.5383ZM113.131 12.365C113.165 12.4196 113.189 12.4573 113.212 12.495C113.233 12.531 113.246 12.5545 113.254 12.5716C113.268 12.5995 113.261 12.594 113.261 12.5776H114.261C114.261 12.2431 114.072 11.9842 113.981 11.8379L113.131 12.365ZM113.274 12.4637L111.798 18.7722L112.772 19.0001L114.248 12.6915L113.274 12.4637ZM111.785 18.8862C111.785 18.8819 111.785 18.8946 111.774 18.9191C111.763 18.9427 111.747 18.965 111.729 18.9813C111.712 18.9974 111.7 19.0018 111.697 19.0027C111.696 19.003 111.695 19.003 111.695 19.003C111.695 19.003 111.694 19.0029 111.693 19.0028C111.692 19.0026 111.689 19.0021 111.686 19.0011L111.407 19.9615C111.814 20.0796 112.175 19.932 112.41 19.7135C112.632 19.5073 112.785 19.2009 112.785 18.8862H111.785ZM111.691 19.0027C110.364 18.6015 108.34 17.8307 103.632 17.8307V18.8307C108.192 18.8307 110.104 19.5676 111.402 19.9599L111.691 19.0027ZM103.632 17.8307C100.919 17.8307 97.9824 18.196 95.7324 20.1503C93.4705 22.1151 92.0181 25.5805 92.0181 31.5034H93.0181C93.0181 25.7216 94.4364 22.6007 96.3882 20.9053C98.3521 19.1994 100.972 18.8307 103.632 18.8307V17.8307ZM92.0181 31.5034C92.0181 37.421 93.3957 40.8442 95.3892 42.7783C97.3843 44.7139 99.8938 45.057 101.909 45.057V44.057C99.988 44.057 97.8018 43.7256 96.0855 42.0606C94.3677 40.394 93.0181 37.2904 93.0181 31.5034H92.0181ZM101.909 45.057C103.61 45.057 104.771 44.9567 105.515 44.8539C105.887 44.8025 106.155 44.7504 106.334 44.7099C106.423 44.6896 106.49 44.6721 106.538 44.6591C106.561 44.6526 106.579 44.6471 106.593 44.643C106.6 44.6409 106.605 44.6391 106.61 44.6377C106.612 44.637 106.614 44.6364 106.616 44.6359C106.616 44.6356 106.617 44.6354 106.618 44.6351C106.618 44.635 106.619 44.6349 106.619 44.6348C106.619 44.6348 106.619 44.6347 106.619 44.6347C106.619 44.6346 106.62 44.6345 106.461 44.1602C106.303 43.6859 106.303 43.6859 106.304 43.6858C106.304 43.6858 106.304 43.6857 106.304 43.6857C106.304 43.6856 106.304 43.6856 106.305 43.6855C106.305 43.6854 106.305 43.6853 106.305 43.6852C106.306 43.685 106.306 43.685 106.306 43.685C106.306 43.6851 106.304 43.6856 106.301 43.6864C106.296 43.6881 106.286 43.6912 106.27 43.6955C106.239 43.7042 106.187 43.7177 106.113 43.7346C105.963 43.7684 105.724 43.8155 105.378 43.8633C104.686 43.9589 103.571 44.057 101.909 44.057V45.057ZM106.961 44.1602V36.0662H105.961V44.1602H106.961ZM106.461 35.5662H101.089V36.5662H106.461V35.5662ZM101.089 35.5662C100.998 35.5662 100.944 35.5362 100.919 35.5136C100.893 35.4905 100.892 35.4739 100.892 35.471H99.892C99.892 36.1193 100.461 36.5662 101.089 36.5662V35.5662ZM100.892 35.471V28.9641H99.892V35.471H100.892ZM100.892 28.9641C100.892 28.9612 100.893 28.9446 100.919 28.9215C100.944 28.8989 100.998 28.8689 101.089 28.8689V27.8689C100.461 27.8689 99.892 28.3158 99.892 28.9641H100.892ZM101.089 28.8689H114.745V27.8689H101.089V28.8689ZM114.794 28.8666C114.872 28.859 114.911 28.8825 114.925 28.8944C114.941 28.9082 114.943 28.9199 114.943 28.9244H115.943C115.943 28.278 115.366 27.8065 114.697 27.8712L114.794 28.8666Z" fill="#F6D3FF" mask="url(#path-1-inside-1_122_6715)"/>
  <path d="M9.75656 41.7677C9.09429 41.7777 8.63051 41.873 8.35765 42.0696C8.2113 42.175 8.11281 42.315 8.08201 42.4841C8.05239 42.6466 8.09114 42.8042 8.15455 42.9411C8.27866 43.2089 8.53087 43.4699 8.80074 43.69C9.07518 43.9137 9.39407 44.1161 9.6853 44.2626C9.97682 44.4221 10.2945 44.7005 10.6176 45.0571C10.9398 45.4127 11.2568 45.834 11.5473 46.2641C12.1272 47.1228 12.589 47.9976 12.7677 48.4184C13.0899 49.2888 13.7892 50.5737 15.4238 51.4574C17.0173 52.319 19.4654 52.7807 23.2488 52.1539C23.2502 53.319 23.2597 54.4375 23.2691 55.3615C23.2723 55.6703 23.2755 55.957 23.2783 56.2164C23.2847 56.8002 23.2896 57.2455 23.2896 57.4916C23.2896 57.826 23.1603 58.1669 22.8781 58.3998C22.601 58.6284 22.1413 58.7814 21.4235 58.6757C9.10328 54.6937 0.25 43.4815 0.25 30.2337C0.25 13.6756 14.1146 0.25 31.2495 0.25C48.3846 0.25 62.249 13.6758 62.249 30.194C62.249 43.0508 53.7581 54.5003 41.151 58.6381C40.4358 58.7806 39.9929 58.6267 39.7293 58.3949C39.4567 58.1552 39.3324 57.7941 39.3324 57.4519C39.3324 57.1244 39.3368 56.5498 39.3428 55.7798C39.3459 55.3863 39.3494 54.9417 39.3529 54.4531C39.3631 53.0096 39.3734 51.1838 39.3734 49.1594C39.3734 46.5763 38.5834 44.82 37.5575 43.7515C40.8871 43.3453 44.286 42.4809 46.8984 40.3619C49.6659 38.1171 51.5123 34.497 51.5123 28.6466C51.5123 25.3081 50.3398 22.5861 48.3521 20.4544C48.7085 19.4742 49.6286 16.423 47.9665 12.4026L47.9223 12.2957L47.8122 12.2602L47.7354 12.4982C47.8122 12.2602 47.8119 12.2602 47.8117 12.2601L47.8111 12.2599L47.8098 12.2595L47.8064 12.2584L47.7969 12.2556C47.7892 12.2534 47.779 12.2506 47.7661 12.2474C47.7405 12.2409 47.7044 12.2327 47.6579 12.2241C47.5647 12.207 47.4294 12.1886 47.2506 12.1797C46.8929 12.1618 46.3619 12.1823 45.6455 12.3275C44.228 12.6149 42.0861 13.3904 39.1211 15.3226C36.6299 14.6611 33.9814 14.3114 31.3725 14.3114C28.7634 14.3114 26.1147 14.6612 23.6233 15.3227C20.6579 13.4098 18.5062 12.6347 17.0795 12.3425C16.3585 12.1949 15.8231 12.1706 15.4622 12.1851C15.2818 12.1924 15.1454 12.2093 15.0514 12.2252C15.0044 12.2331 14.9681 12.2408 14.9423 12.2468C14.9294 12.2499 14.9191 12.2525 14.9115 12.2546L14.9019 12.2572L14.8986 12.2582L14.8973 12.2585L14.8967 12.2587C14.8965 12.2588 14.8962 12.2589 14.9686 12.4982L14.8962 12.2589L14.7828 12.2932L14.7376 12.4026C13.0781 16.4165 13.9548 19.4665 14.3483 20.4607C12.4032 22.5911 11.1917 25.3478 11.1917 28.6466C11.1917 34.4774 13.0383 38.0971 15.8001 40.3467C18.4081 42.471 21.7985 43.3447 25.1111 43.7518C24.3469 44.563 23.7037 45.7958 23.4368 47.4371C22.539 47.8159 21.0801 48.2635 19.5176 48.1219C17.8953 47.9749 16.1425 47.1922 14.771 44.9807L14.7701 44.9793C14.4729 44.5069 13.8714 43.7001 13.0242 43.0137C12.1772 42.3274 11.0657 41.7466 9.75656 41.7677ZM9.75656 41.7677L9.76034 42.0176M9.75656 41.7677C9.75648 41.7677 9.75639 41.7677 9.75631 41.7677L9.76034 42.0176M9.76034 42.0176C7.13571 42.0573 8.69408 43.4857 9.80135 44.0411L23.6627 47.6121C21.8582 48.4056 17.3882 49.6752 14.5585 45.1124C13.9843 44.1999 12.2209 41.978 9.76034 42.0176Z" fill="url(#paint1_linear_122_6715)" stroke="#F6D3FF" stroke-width="0.5"/>
  <defs>
    <linearGradient id="paint0_linear_122_6715" x1="164.716" y1="10.038" x2="164.716" y2="52.7701" gradientUnits="userSpaceOnUse">
      <stop stop-color="#BB64D1"/>
      <stop offset="1" stop-color="#714296"/>
    </linearGradient>
    <linearGradient id="paint1_linear_122_6715" x1="31.2495" y1="0" x2="31.2495" y2="58.9598" gradientUnits="userSpaceOnUse">
      <stop stop-color="#BB64D1"/>
      <stop offset="1" stop-color="#714296"/>
    </linearGradient>
  </defs>
</svg>