<svg xmlns="http://www.w3.org/2000/svg" width="87" height="88" viewBox="0 0 87 88" fill="none">
  <path d="M67.5024 16.8945L67.2306 16.6203L66.9532 16.3508L66.6703 16.0858L66.3823 15.8258L66.089 15.5705L65.7909 15.3204L65.4879 15.0755L65.1806 14.8358L64.8687 14.6016L64.5524 14.3731L64.2322 14.1504L63.9081 13.9334L63.5802 13.7225L63.249 13.5177L62.9143 13.3192L62.5765 13.1269L62.2358 12.941L61.8923 12.7619L61.546 12.5892L61.1976 12.4235L60.847 12.2645L60.4943 12.1124L60.1398 11.9673L59.7837 11.8294L59.4264 11.6987L59.0678 11.5754L58.7082 11.4593L58.3478 11.3507L57.987 11.2496L57.6256 11.1561L57.2642 11.07L56.9028 10.9917L56.5416 10.921L56.1807 10.8582L55.8207 10.8031L55.4614 10.756L55.1033 10.7168L54.7465 10.6853L54.391 10.6619L54.0373 10.6464L53.6854 10.6389L53.3358 10.6393L52.9883 10.6479L52.6434 10.6643L52.3012 10.6889L51.9618 10.7213L51.6256 10.7617L51.2926 10.81L50.9631 10.8665L50.6375 10.9308L50.3156 11.003L49.9977 11.0832L49.6843 11.1712L49.3753 11.2669L49.0707 11.3703L48.7712 11.4815L48.4766 11.6004L48.1873 11.7267L47.9032 11.8609L47.6247 12.0023L47.352 12.151L47.0853 12.3072L46.8244 12.4706L46.5697 12.6412L46.3215 12.8187L46.0798 13.0033L45.8449 13.1946L45.6167 13.3928L45.3956 13.5978L45.1816 13.8091L44.9748 14.0268L44.7755 14.251L44.5836 14.4812L44.3994 14.7176L44.2231 14.9599L44.0547 15.208L43.8943 15.4617L43.7419 15.7209L43.598 15.9855L43.4623 16.2551L43.335 16.5299L43.2161 16.8096L43.106 17.094L43.0046 17.3831L42.9119 17.6763L42.8282 17.974L42.7532 18.2755L42.6873 18.5809L42.6302 18.8901L42.5824 19.2028L42.5437 19.5186L42.5141 19.8376L42.4936 20.1596L42.4825 20.4843L42.4805 20.8115L42.4877 21.1411L42.5043 21.4727L42.53 21.8063L42.5651 22.1415L42.6095 22.4784L42.663 22.8164L42.7257 23.1555L42.7976 23.4955L42.8785 23.8363L42.9686 24.1774L43.0679 24.5188L43.1762 24.8602L43.2932 25.2014L43.4192 25.5423L43.5541 25.8824L43.6977 26.2217L43.8499 26.56L44.0107 26.8969L44.1801 27.2324L44.3577 27.5662L44.5437 27.898L44.7377 28.2276L44.94 28.555L45.1499 28.8799L45.3678 29.2019L45.5934 29.5209L45.8263 29.8368L46.0667 30.1493L46.3143 30.4583L46.5691 30.7634L46.8307 31.0644L47.0989 31.3614L47.3738 31.6539L47.6552 31.942L47.9427 32.2251L48.2364 32.5035L48.5357 32.7768L48.8409 33.0445L49.1514 33.3069L49.4672 33.5638L49.788 33.8149L50.1139 34.0598L50.4443 34.2989L50.7792 34.5315L51.1182 34.7576L51.4613 34.9773L51.8082 35.1903L52.1587 35.3964L52.5124 35.5955L52.8691 35.7875L53.229 35.9723L53.5913 36.1498L53.9562 36.3198L54.3231 36.4822L54.692 36.637L55.0626 36.784L55.4347 36.9233L55.808 37.0546L56.1823 37.1777L56.5573 37.2929L56.9329 37.3999L57.3086 37.4987L57.6845 37.5892L58.0601 37.6715L58.4351 37.7454L58.8096 37.8107L59.1832 37.8678L59.5555 37.9162L59.9265 37.9563L60.2958 37.9878L60.6633 38.0107L61.0286 38.0251L61.3915 38.0312L61.752 38.0287L62.1097 38.0175L62.4643 37.9978L62.8156 37.9698L63.1637 37.9333L63.508 37.8883L63.8485 37.835L64.1848 37.7735L64.517 37.7036L64.8446 37.6255L65.1675 37.5392L65.4856 37.4447L65.7985 37.3424L66.1062 37.2319L66.4084 37.1138L66.7052 36.9877L66.9961 36.854L67.281 36.7128L67.5597 36.5639L67.8323 36.4076L68.0983 36.244L68.3577 36.0734L68.6102 35.8957L68.856 35.7109L69.0947 35.5194L69.3263 35.3211L69.5505 35.1163L69.7673 34.9052L69.9767 34.6877L70.1782 34.4639L70.372 34.2343L70.5581 33.9988L70.736 33.7577L70.9059 33.5109L71.0676 33.2586L71.221 33.0013L71.3661 32.7389L71.503 32.4716L71.6313 32.1995L71.7512 31.9229L71.8623 31.6419L71.9649 31.3566L72.0586 31.0674L72.1438 30.7743L72.2201 30.4775L72.2878 30.1772L72.3466 29.8735L72.3965 29.5667L72.4375 29.2571L72.4696 28.9446L72.4929 28.6296L72.5074 28.3122L72.513 27.9926L72.5095 27.6709L72.4976 27.3475L72.4765 27.0225L72.4467 26.6959L72.4082 26.3682L72.3609 26.0395L72.3048 25.7098L72.2402 25.3796L72.1669 25.0488L72.085 24.7176L71.9948 24.3866L71.896 24.0555L71.7889 23.7247L71.6735 23.3944L71.5499 23.0648L71.418 22.7361L71.2782 22.4085L71.1304 22.082L70.9747 21.757L70.8112 21.4333L70.64 21.1118L70.4613 20.792L70.2751 20.4745L70.0814 20.1593L69.8807 19.8465L69.6727 19.5365L69.4579 19.2292L69.2361 18.925L69.0074 18.624L68.7723 18.3264L68.5306 18.0323L68.2827 17.7419L68.0285 17.4553L67.7685 17.1728L67.5024 16.8945Z" fill="#0E0C15"/>
  <path d="M63.704 18.8076L63.8587 18.9523L64.0179 19.093L64.173 19.2348L64.3152 19.3831L64.4392 19.5418L64.5511 19.7079L64.6603 19.8769L64.7764 20.0444L64.9049 20.207L65.0392 20.3671L65.169 20.5274L65.2838 20.6912L65.3771 20.8611L65.4561 21.0354L65.5317 21.2121L65.6147 21.3886L65.7123 21.5636L65.8166 21.7369L65.916 21.9098L65.9991 22.0833L66.0582 22.2579L66.1012 22.4341L66.1403 22.6116L66.1872 22.7907L66.25 22.9712L66.3201 23.1517L66.3854 23.331L66.4334 23.5074L66.4559 23.6803L66.4613 23.8516L66.4621 24.0233L66.471 24.1983L66.4963 24.3776L66.5296 24.5585L66.5579 24.7374L66.5688 24.9103L66.5537 25.0749L66.5211 25.2346L66.4835 25.3942L66.4539 25.5581L66.4406 25.7295L66.4354 25.9041L66.4256 26.0758L66.3988 26.2387L66.3464 26.3887L66.2767 26.5308L66.202 26.6718L66.1347 26.8185L66.0831 26.9754L66.0392 27.137L65.9914 27.2951L65.9276 27.4416L65.8398 27.5712L65.7354 27.69L65.6263 27.8068L65.5236 27.9305L65.4353 28.0669L65.3544 28.2092L65.2699 28.3477L65.1714 28.4721L65.0512 28.5762L64.9162 28.6668L64.7765 28.7547L64.6422 28.8506L64.5203 28.9611L64.405 29.0785L64.287 29.1918L64.1572 29.2892L64.0091 29.3634L63.8484 29.4222L63.6835 29.4777L63.5228 29.5414L63.3719 29.6217L63.2264 29.7098L63.0792 29.7933L62.9228 29.8597L62.7524 29.901L62.5724 29.9254L62.3884 29.9458L62.2073 29.9751L62.033 30.0216L61.8629 30.0765L61.6918 30.127L61.515 30.1598L61.3292 30.1662L61.1365 30.155L60.9407 30.1394L60.7461 30.1326L60.5553 30.1435L60.3669 30.1632L60.1788 30.1785L59.9884 30.1761L59.7939 30.1472L59.5962 30.1006L59.3967 30.0493L59.1962 30.0067L58.9962 29.9813L58.7971 29.9647L58.5989 29.9442L58.4023 29.9066L58.2071 29.8435L58.0125 29.7631L57.8166 29.6779L57.6184 29.6008L57.4171 29.5401L57.2149 29.488L57.0147 29.4324L56.8198 29.3609L56.6316 29.2659L56.4476 29.1547L56.2636 29.0388L56.0753 28.9303L55.8807 28.8368L55.6834 28.751L55.4891 28.6624L55.3034 28.5601L55.1298 28.4368L54.9638 28.299L54.7989 28.1571L54.6285 28.0213L54.4481 27.8984L54.2636 27.7827L54.0828 27.6648L53.9137 27.5356L53.7617 27.3889L53.6205 27.2301L53.4812 27.0676L53.3351 26.91L53.1763 26.7629L53.0118 26.6216L52.8517 26.479L52.7061 26.328L52.5816 26.1639L52.4707 25.9903L52.3627 25.8138L52.2468 25.6405L52.1158 25.4749L51.9779 25.3141L51.8446 25.1528L51.7281 24.986L51.6359 24.8108L51.5599 24.6293L51.4875 24.4457L51.4063 24.2637L51.3081 24.0863L51.202 23.9121L51.1008 23.7385L51.018 23.5629L50.9617 23.3836L50.9233 23.2013L50.8891 23.0177L50.8458 22.8342L50.7842 22.6522L50.7139 22.4717L50.6488 22.2928L50.6025 22.1153L50.5843 21.9389L50.5849 21.763L50.5903 21.5865L50.5863 21.4087L50.5637 21.2291L50.5317 21.0496L50.5046 20.8724L50.4967 20.6999L50.5171 20.5334L50.5566 20.3705L50.6011 20.2081L50.6362 20.0428L50.653 19.8727L50.6604 19.7013L50.6723 19.5329L50.7026 19.372L50.7607 19.2218L50.8373 19.0781L50.9189 18.9358L50.992 18.7894L51.0472 18.6356L51.0934 18.4787L51.1435 18.3255L51.2107 18.1827L51.3037 18.0542L51.4144 17.9352L51.5298 17.8183L51.6375 17.6963L51.7288 17.5643L51.8116 17.4281L51.8978 17.2961L51.999 17.1765L52.1234 17.0747L52.2636 16.9846L52.4082 16.8975L52.5462 16.8042L52.6698 16.6991L52.7859 16.5887L52.9045 16.4827L53.0356 16.3908L53.1863 16.3194L53.3505 16.2615L53.5187 16.2071L53.6816 16.146L53.8328 16.0716L53.9772 15.9911L54.1235 15.915L54.2793 15.8542L54.4505 15.8155L54.6324 15.7917L54.8177 15.7718L54.9993 15.7449L55.1719 15.7039L55.3392 15.6561L55.5074 15.6129L55.6819 15.5852L55.8671 15.5806L56.0599 15.5915L56.2551 15.6067L56.4483 15.6147L56.6358 15.6084L56.8197 15.5952L57.0032 15.586L57.1899 15.5925L57.382 15.6219L57.5782 15.6668L57.7764 15.7161L57.9739 15.7588L58.1693 15.7873L58.3626 15.809L58.5547 15.8343L58.7463 15.8745L58.9381 15.9366L59.1307 16.0137L59.3242 16.0952L59.5188 16.1707L59.7147 16.2329L59.9102 16.2884L60.1034 16.3474L60.2928 16.4197L60.4775 16.512L60.6592 16.6183L60.841 16.7288L61.0255 16.8341L61.2145 16.9277L61.4048 17.0151L61.5921 17.1053L61.7723 17.207L61.9427 17.3263L62.107 17.4577L62.2703 17.593L62.438 17.7242L62.613 17.8456L62.7912 17.9618L62.9657 18.0799L63.1299 18.2073L63.2799 18.3489L63.4207 18.5005L63.5596 18.6554L63.704 18.8076Z" fill="#0E0C15"/>
  <path d="M70.2644 15.8556L69.8756 15.4643L69.479 15.0794L69.0746 14.7013L68.6626 14.3298L68.2438 13.9653L67.8177 13.6082L67.385 13.2584L66.9459 12.9164L66.5003 12.582L66.0487 12.2556L65.5914 11.9375L65.1286 11.6275L64.6604 11.3262L64.1872 11.0334L63.7092 10.7497L63.2269 10.4747L62.7402 10.209L62.2495 9.95258L61.7551 9.70544L61.2573 9.46806L60.7563 9.2403L60.2524 9.02253L59.7458 8.81458L59.237 8.61667L58.7262 8.42899L58.2134 8.25172L57.6992 8.08489L57.1836 7.92853L56.6672 7.78265L56.1502 7.64763L55.6327 7.52332L55.1152 7.40992L54.5978 7.3076L54.081 7.21624L53.565 7.13586L53.0498 7.06681L52.5362 7.00879L52.0241 6.96199L51.514 6.92661L51.0061 6.9025L50.5007 6.88984L49.9981 6.88851L49.4986 6.89852L49.0024 6.92006L48.51 6.95301L48.0214 6.99718L47.537 7.05297L47.0572 7.12005L46.5821 7.19861L46.1121 7.28852L45.6475 7.38979L45.1884 7.50245L44.7352 7.62617L44.2884 7.76116L43.8478 7.90743L43.4139 8.06466L42.9871 8.2329L42.5673 8.41213L42.1552 8.6024L41.7509 8.80323L41.3545 9.01496L40.9662 9.23709L40.5864 9.46983L40.2155 9.71286L39.8536 9.96621L39.5008 10.2295L39.1576 10.503L38.8238 10.7864L38.5002 11.0793L38.1864 11.3819L37.883 11.6939L37.5902 12.015L37.308 12.3453L37.0368 12.6844L36.7767 13.0323L36.5278 13.3887L36.2904 13.7533L36.0647 14.1261L35.8507 14.5067L35.6487 14.8952L35.4588 15.2909L35.2811 15.6941L35.1159 16.1042L34.9632 16.5212L34.8231 16.9446L34.6957 17.3743L34.5812 17.8102L34.4797 18.2516L34.3911 18.6988L34.3158 19.1512L34.2537 19.6084L34.205 20.0705L34.1694 20.537L34.1474 21.0077L34.1388 21.4821L34.1434 21.9601L34.1618 22.4414L34.1937 22.9257L34.2391 23.4127L34.2978 23.902L34.3702 24.3935L34.4561 24.8866L34.5554 25.3812L34.668 25.8768L34.7942 26.3733L34.9335 26.8703L35.0862 27.3674L35.2521 27.8644L35.4309 28.361L35.6228 28.8568L35.8274 29.3513L36.0449 29.8445L36.2752 30.3361L36.5177 30.8252L36.7727 31.3123L37.0401 31.7964L37.3195 32.2775L37.6106 32.7552L37.9136 33.2294L38.228 33.6995L38.5537 34.1652L38.8907 34.6264L39.2385 35.0826L39.597 35.5335L39.9661 35.9791L40.3454 36.4187L40.7345 36.8522L41.1335 37.2793L41.542 37.6997L41.9597 38.1131L42.3865 38.5192L42.8217 38.9178L43.2655 39.3086L43.7173 39.6913L44.177 40.0657L44.6441 40.4318L45.1183 40.7887L45.5996 41.1367L46.0874 41.4755L46.5813 41.8048L47.0812 42.1242L47.5867 42.4338L48.0974 42.7333L48.613 43.0225L49.1332 43.3011L49.6577 43.5691L50.1859 43.8261L50.7178 44.0721L51.2527 44.307L51.7904 44.5306L52.3307 44.7427L52.8729 44.9431L53.4169 45.1319L53.9625 45.3087L54.5089 45.4737L55.0559 45.6266L55.6033 45.7674L56.1506 45.8959L56.6975 46.0123L57.2437 46.1162L57.7886 46.2079L58.3321 46.2869L58.8738 46.3536L59.4132 46.4078L59.9501 46.4494L60.4843 46.4785L61.0151 46.4952L61.5424 46.4993L62.0658 46.4909L62.5849 46.47L63.0994 46.4367L63.6092 46.3909L64.1136 46.3329L64.6127 46.2625L65.1059 46.18L65.593 46.0852L66.0736 45.9785L66.5475 45.8598L67.0144 45.7292L67.4742 45.5868L67.9262 45.4328L68.3705 45.2672L68.8067 45.0904L69.2345 44.9023L69.6538 44.7029L70.0642 44.4927L70.4655 44.2715L70.8574 44.0398L71.2399 43.7976L71.6126 43.5452L71.9755 43.2825L72.3281 43.0098L72.6703 42.7275L73.0021 42.4357L73.323 42.1343L73.633 41.8239L73.9322 41.5044L74.2199 41.1764L74.4965 40.8398L74.7615 40.4949L75.0149 40.142L75.2565 39.7813L75.4862 39.4129L75.704 39.0371L75.9096 38.6544L76.1031 38.2647L76.2843 37.8683L76.4532 37.4658L76.6096 37.057L76.7535 36.6425L76.8849 36.2222L77.0036 35.7967L77.1098 35.366L77.2033 34.9307L77.2843 34.4907L77.3524 34.0466L77.4078 33.5983L77.4505 33.1465L77.4804 32.6909L77.4976 32.2323L77.5021 31.7708L77.4939 31.3066L77.4733 30.8401L77.4398 30.3714L77.394 29.9009L77.3354 29.4289L77.2644 28.9556L77.1812 28.4811L77.0854 28.006L76.9775 27.5305L76.8576 27.0547L76.7255 26.579L76.5814 26.1036L76.4254 25.6287L76.2576 25.1549L76.0782 24.6822L75.8874 24.2106L75.6849 23.741L75.4714 23.2732L75.2466 22.8075L75.0109 22.3443L74.7642 21.8838L74.5068 21.4262L74.239 20.9719L73.9606 20.5209L73.6721 20.0737L73.3737 19.6302L73.0651 19.191L72.7471 18.7563L72.4194 18.3262L72.0822 17.9009L71.7361 17.4807L71.3811 17.066L71.0172 16.6567L70.6449 16.2532L70.2644 15.8556Z" fill="#0E0C15"/>
  <path d="M71.8948 15.9486L71.408 15.4588L70.9113 14.9773L70.4052 14.5041L69.8897 14.0393L69.3654 13.5836L68.8324 13.1366L68.2909 12.6991L67.7414 12.271L67.1839 11.8528L66.6189 11.4444L66.0468 11.0464L65.4678 10.6586L64.8821 10.2815L64.2901 9.9153L63.6922 9.56L63.0885 9.2158L62.4795 8.88307L61.8655 8.56204L61.2468 8.25271L60.6237 7.95527L59.9965 7.66977L59.3657 7.39674L58.7315 7.13587L58.0943 6.88771L57.4543 6.65227L56.8119 6.42974L56.1676 6.22001L55.5216 6.0236L54.8743 5.84021L54.2259 5.6702L53.577 5.51361L52.9277 5.37063L52.2786 5.24129L51.6298 5.1258L50.9819 5.02402L50.3351 4.93614L49.6898 4.86236L49.0464 4.80256L48.405 4.75674L47.7663 4.72512L47.1304 4.70771L46.4979 4.70458L45.8691 4.71573L45.2442 4.74103L44.6235 4.78084L44.0076 4.83485L43.3966 4.9031L42.7913 4.98562L42.1915 5.0826L41.5979 5.19374L41.0107 5.31924L40.4305 5.45895L39.8571 5.61272L39.2914 5.78061L38.7335 5.96262L38.1836 6.15862L37.6425 6.36848L37.1101 6.5922L36.5869 6.82967L36.0731 7.08071L35.5692 7.34539L35.0754 7.62334L34.5919 7.91464L34.1193 8.21912L33.6579 8.53666L33.2076 8.8669L32.7692 9.21008L32.3427 9.5657L31.9285 9.93377L31.5267 10.3138L31.1377 10.706L30.7618 11.1099L30.3993 11.5255L30.0504 11.9525L29.7153 12.3905L29.3945 12.8396L29.0879 13.2993L28.7957 13.7693L28.5184 14.2497L28.2559 14.7397L28.0088 15.2396L27.7771 15.7488L27.561 16.2671L27.3607 16.7943L27.1762 17.3298L27.0079 17.8735L26.8558 18.4251L26.72 18.9842L26.6009 19.5505L26.4983 20.1236L26.4125 20.7033L26.3436 21.2892L26.2916 21.8809L26.2567 22.478L26.2387 23.0803L26.238 23.6871L26.2543 24.2985L26.2879 24.9139L26.339 25.5326L26.4072 26.1546L26.4926 26.7795L26.5953 27.4067L26.7152 28.036L26.8521 28.6668L27.0062 29.2987L27.1775 29.9315L27.3657 30.5646L27.5709 31.1975L27.7929 31.8301L28.0314 32.4618L28.2866 33.0922L28.5582 33.7207L28.8461 34.3472L29.1501 34.971L29.4701 35.5919L29.8058 36.2095L30.1569 36.8231L30.5235 37.4325L30.9053 38.0373L31.3018 38.6368L31.7129 39.231L32.1385 39.8194L32.5783 40.4014L33.0319 40.9766L33.499 41.5448L33.9792 42.1057L34.4725 42.6585L34.9783 43.2033L35.4965 43.7392L36.0265 44.2664L36.5682 44.784L37.121 45.292L37.6846 45.79L38.2589 46.2776L38.8431 46.7545L39.4371 47.2203L40.0403 47.6747L40.6525 48.1175L41.273 48.5482L41.9017 48.9668L42.5379 49.3727L43.1814 49.7658L43.8316 50.146L44.4881 50.5128L45.1504 50.8659L45.8182 51.2053L46.491 51.5304L47.1682 51.8415L47.8495 52.138L48.5343 52.4201L49.2222 52.6872L49.9127 52.9394L50.6056 53.1766L51.2999 53.3982L51.9957 53.6046L52.6921 53.7954L53.3888 53.9705L54.0853 54.1302L54.7813 54.2739L55.4763 54.4016L56.1695 54.5135L56.8606 54.6093L57.5494 54.6891L58.2353 54.7529L58.9178 54.8005L59.5965 54.8321L60.2709 54.8478L60.9406 54.8473L61.6051 54.8308L62.2642 54.7983L62.9172 54.7498L63.5639 54.6856L64.2037 54.6057L64.8364 54.5101L65.4616 54.3989L66.0787 54.2722L66.6874 54.1301L67.2873 53.973L67.8783 53.8006L68.4598 53.6133L69.0315 53.4113L69.593 53.1946L70.1441 52.9636L70.6845 52.7184L71.2137 52.4589L71.7313 52.1857L72.2374 51.8989L72.7315 51.5986L73.2134 51.2852L73.6828 50.9588L74.1394 50.6197L74.5829 50.2683L75.013 49.9045L75.4298 49.5286L75.8329 49.1412L76.222 48.7423L76.5968 48.3324L76.9575 47.9115L77.3039 47.4801L77.6354 47.0383L77.9522 46.5868L78.254 46.1255L78.5405 45.6547L78.812 45.1748L79.0682 44.6865L79.3089 44.1895L79.5341 43.6845L79.7436 43.1716L79.9376 42.6514L80.1156 42.124L80.2778 41.5898L80.424 41.049L80.5544 40.5023L80.6689 39.9497L80.7673 39.3916L80.8498 38.8285L80.9164 38.2605L80.9667 37.6882L81.0013 37.1117L81.0197 36.5314L81.0223 35.9478L81.0091 35.3611L80.98 34.7717L80.9352 34.1797L80.8747 33.5859L80.7985 32.9903L80.7065 32.3934L80.5994 31.7953L80.4767 31.1966L80.3388 30.5974L80.1858 29.9984L80.0177 29.3996L79.8348 28.8014L79.6369 28.2043L79.4245 27.6084L79.1975 27.0142L78.9561 26.4218L78.7008 25.8318L78.4313 25.2443L78.1481 24.6596L77.8511 24.0784L77.5405 23.5006L77.2167 22.9266L76.8798 22.3568L76.53 21.7913L76.1676 21.2306L75.7927 20.675L75.4055 20.1248L75.0064 19.58L74.5953 19.0413L74.1726 18.5088L73.7389 17.9827L73.2938 17.4633L72.8379 16.9511L72.3714 16.446L71.8948 15.9486Z" fill="#0E0C15"/>
  <path d="M72.6206 16.6618L72.1232 16.1427L71.6152 15.6317L71.5203 15.5367L71.0127 15.0445L70.4954 14.5608L69.9686 14.0859L69.4326 13.6201L68.8877 13.1634L68.3344 12.7161L67.7727 12.2786L67.2031 11.8512L66.6256 11.4339L66.0409 11.027L65.449 10.6308L64.8506 10.2454L64.2454 9.8711L63.6343 9.50786L63.0173 9.15622L62.3949 8.81606L61.7674 8.48791L61.135 8.17162L61.0133 8.11289L60.3632 7.8026L59.7087 7.50473L59.0505 7.21983L58.3885 6.94758L57.7235 6.68852L57.0556 6.44287L56.3852 6.21048L56.1615 6.13595L55.4755 5.9128L54.7878 5.70365L54.0986 5.50836L53.4082 5.32728L52.7172 5.16048L52.4215 5.09093L51.717 4.93559L51.0124 4.79508L50.3082 4.66961L49.2542 4.50376L48.5393 4.40635L47.8258 4.32459L47.1143 4.25815L46.7248 4.22277L46.0033 4.17101L45.2846 4.13516L44.8714 4.12265L44.144 4.10244L43.4201 4.09838L42.7004 4.11052L42.2543 4.12233L41.5276 4.15129L40.8058 4.19666L40.341 4.23382L39.6137 4.29664L38.8921 4.37648L38.411 4.43953L37.6855 4.53745L36.9664 4.65245L36.471 4.74208L35.7497 4.87598L35.0357 5.02687L34.5287 5.14364L33.8138 5.31389L33.1073 5.50155L32.591 5.64566L31.885 5.85298L31.1882 6.07761L30.665 6.24926L29.9703 6.49402L29.4494 6.69042L28.7579 6.95538L28.0771 7.23796L27.5535 7.46158L26.8773 7.7645L26.359 8.01244L25.6884 8.3356L25.03 8.67651L24.513 8.95081L23.8617 9.31209L23.353 9.6096L22.7097 9.99099L22.08 10.3899L21.5763 10.7127L20.9561 11.1315L20.4635 11.4763L19.8539 11.9151L19.3735 12.2808L18.7753 12.7395L18.1924 13.215L17.7222 13.6035L17.1521 14.0982L16.6967 14.5062L16.1402 15.0198L15.7003 15.4464L15.1583 15.9784L14.6335 16.5266L14.2086 16.9727L13.6995 17.5389L13.2922 18.0013L12.7997 18.5845L12.4111 19.0625L11.9361 19.6626L11.5669 20.1548L11.1097 20.7709L10.6714 21.4018L10.3222 21.908L9.90281 22.5541L9.57473 23.0721L9.17494 23.7324L8.86862 24.2612L8.48898 24.935L8.20522 25.4733L7.84629 26.1601L7.50795 26.8597L7.24743 27.4053L6.93043 28.1164L6.69373 28.6687L6.39833 29.3905L6.18556 29.948L5.91219 30.6793L5.66037 31.4221L5.47253 31.9812L5.2432 32.732L5.08005 33.2933L4.87331 34.0513L4.73497 34.6136L4.55104 35.3779L4.38917 36.1514L4.27663 36.7091L4.13772 37.4873L4.05043 38.0426L3.93441 38.8243L3.84059 39.6137L3.77895 40.1601L3.70781 40.9514L3.67101 41.4923L3.62248 42.2843L3.59644 43.0825L3.5843 43.6099L3.58049 44.4072L3.611 45.7211L3.65131 46.5208L3.68693 47.022L3.74888 47.8179L3.83252 48.6174L3.89064 49.0982L3.99521 49.8921L4.12123 50.6884L4.20051 51.1469L4.34657 51.9361L4.514 52.7265L4.6133 53.16L4.7997 53.9418L5.00723 54.7236L5.1245 55.1302L5.34995 55.9018L5.59576 56.6726L5.86196 57.442L5.99213 57.8091L6.27455 58.5661L6.5768 59.3207L7.03809 60.3973L7.37451 61.1346L7.73004 61.868L8.10433 62.5971L8.249 62.8775L8.63575 63.5905L9.0405 64.2982L9.46297 64.9998L9.60885 65.2338L10.0419 65.918L10.4918 66.5954L10.9583 67.2657L11.4414 67.9282L11.9404 68.5826L12.0666 68.7459L12.5727 69.3809L13.0938 70.0067L13.6297 70.6233L14.1801 71.2302L14.7446 71.8268L15.3228 72.4128L15.9144 72.9878L15.9903 73.0595L16.5839 73.613L17.1897 74.1548L17.8074 74.6847L18.4366 75.2022L19.0769 75.7072L19.7277 76.1989L20.3887 76.6774L21.0593 77.142L21.7392 77.5925L22.428 78.0289L23.1249 78.4505L23.8298 78.8573L24.542 79.2489L25.2609 79.625L25.3546 79.6734L26.0932 80.0404L26.8376 80.3911L27.5877 80.7254L28.3426 81.043L29.1018 81.3438L29.865 81.6275L30.6316 81.894L30.8282 81.9594L31.6109 82.2127L32.3959 82.4484L33.1826 82.6657L33.9707 82.8652L34.7595 83.0462L35.0292 83.1067L35.8309 83.2722L36.6325 83.419L37.4329 83.5472L37.7461 83.591L38.5574 83.7018L39.3667 83.7936L40.1736 83.8661L40.527 83.89L41.3422 83.9441L42.1538 83.9786L42.9611 83.9937L43.3512 83.9952L44.1647 83.9908L44.9726 83.9669L45.7746 83.9232L46.1977 83.8995L47.0035 83.8355L47.8021 83.7516L48.2445 83.7018L49.045 83.5973L49.8372 83.4732L50.2965 83.3963L51.0887 83.2511L51.8717 83.0861L52.3451 82.982L53.1261 82.7955L53.8968 82.5896L54.3817 82.4576L55.1487 82.2303L55.6358 82.0722L56.3979 81.8233L57.1479 81.5551L57.642 81.3694L58.3855 81.0799L59.1158 80.7715L59.6142 80.5578L60.3364 80.2283L60.8318 79.9895L61.5445 79.6392L62.2427 79.2703L62.738 79.0044L63.4251 78.6151L63.9142 78.3248L64.5894 77.9154L65.2487 77.4884L65.7335 77.1721L66.3793 76.7256L66.855 76.3863L67.4865 75.9211L67.952 75.5592L68.5684 75.0753L69.1671 74.575L69.6228 74.19L70.2051 73.6722L70.6479 73.2665L71.2128 72.7317L71.6415 72.3058L72.1887 71.7547L72.7166 71.1884L73.1308 70.7429L73.64 70.1615L74.0378 69.6979L74.5276 69.1022L74.9079 68.6216L75.3777 68.0121L75.7399 67.5155L76.1892 66.893L76.6183 66.2576L76.9607 65.7469L77.3688 65.0998L77.6912 64.5756L78.0777 63.9178L78.3796 63.3811L78.7442 62.7134L79.0247 62.1654L79.3676 61.4887L79.6894 60.8013L79.9467 60.2457L80.2463 59.5507L80.4807 58.9867L80.7582 58.285L80.9696 57.7134L81.2246 57.006L81.4585 56.2899L81.645 55.7162L81.8566 54.9956L82.0191 54.4177L82.2085 53.6937L82.3469 53.1125L82.5143 52.3863L82.6607 51.6531L82.7735 51.0755L82.8983 50.3414L82.9866 49.7635L83.0897 49.0295L83.1724 48.2898L83.2353 47.7196L83.2967 46.9814L83.3351 46.414L83.376 45.6782L83.3966 44.9378L83.4102 44.3822L83.4108 43.6458L83.4003 43.096L83.3813 42.3642L83.3429 41.6295L83.3088 41.0954L83.2517 40.3665L83.1754 39.6357L83.1184 39.1194L83.0244 38.3958L82.9116 37.6708L82.833 37.1745L82.7032 36.4581L82.5553 35.741L82.4564 35.2667L82.2927 34.5595L82.1112 33.8525L81.9932 33.4023L81.7972 32.706L81.5838 32.0108L81.4481 31.5866L81.2211 30.9034L80.9777 30.2216L80.5699 29.1569L80.2982 28.4905L80.0105 27.8267L79.8493 27.4715L79.5511 26.8222L79.2376 26.1759L78.9092 25.5333L78.4047 24.5942L78.0531 23.9712L77.6874 23.3527L77.3077 22.7392L77.1451 22.4839L76.7591 21.8869L76.3598 21.2953L75.9475 20.7094L75.5225 20.1295L75.0849 19.5561L74.9415 19.3701L74.5003 18.8143L74.0475 18.2654L73.583 17.7234L73.1073 17.1888L72.6206 16.6618Z" fill="#0E0C15"/>
  <path d="M40.8058 4.19666L40.0891 4.25869L39.3779 4.33736L38.6729 4.43259L37.9742 4.54436L37.2823 4.67274L36.5978 4.81761L35.9208 4.97913L35.2518 5.15702L34.5913 5.35114L33.9394 5.56184L33.2969 5.78869L32.6642 6.03169L32.0413 6.29089L31.4288 6.56613L30.8271 6.85728L30.2366 7.16422L29.6576 7.4868L29.0904 7.82487L28.5356 8.1783L27.9933 8.54694L27.4642 8.93068L26.9483 9.32935L26.4461 9.74266L25.9581 10.1705L25.4844 10.6126L25.0252 11.0689L24.5812 11.539L24.1525 12.0226L23.7396 12.5198L23.3426 13.03L22.962 13.5532L22.5978 14.089L22.2503 14.6369L21.92 15.1969L21.607 15.7687L21.3116 16.3518L21.0341 16.9461L20.7749 17.5511L20.5339 18.1666L20.3112 18.7921L20.1074 19.4272L19.9225 20.0718L19.7565 20.7254L19.61 21.3875L19.4828 22.0578L19.3752 22.736L19.2875 23.4214L19.2194 24.1139L19.1711 24.813L19.1431 25.5181L19.1348 26.229L19.147 26.945L19.1793 27.6659L19.2319 28.3912L19.3048 29.1202L19.3978 29.8527L19.5111 30.5881L19.6448 31.326L19.7986 32.0659L19.9726 32.8074L20.1668 33.5497L20.3812 34.2926L20.6154 35.0356L20.8694 35.778L21.143 36.5196L21.4363 37.2596L21.7488 37.9977L22.0808 38.7333L22.4319 39.4659L22.8018 40.1952L23.1904 40.9202L23.5974 41.641L24.0225 42.3567L24.4655 43.0672L24.9263 43.7714L25.4043 44.4694L25.8995 45.1604L26.4115 45.8439L26.9398 46.5194L27.4843 47.1868L28.0445 47.8452L28.6199 48.4944L29.2103 49.134L29.8153 49.7631L30.4346 50.3818L31.0676 50.9891L31.714 51.5851L32.3733 52.1691L33.045 52.7409L33.7286 53.3L34.4237 53.846L35.1299 54.3784L35.8466 54.8968L36.5736 55.4011L37.31 55.8908L38.0553 56.3656L38.8092 56.8252L39.5713 57.2692L40.3407 57.6975L41.1171 58.1096L41.8998 58.5052L42.6883 58.8842L43.4824 59.2462L44.281 59.5911L45.084 59.9186L45.8905 60.2287L46.7001 60.5208L47.5123 60.795L48.3265 61.0512L49.142 61.2889L49.9584 61.5083L50.775 61.7093L51.5915 61.8915L52.4071 62.0552L53.2213 62.1999L54.0337 62.3258L54.8436 62.4328L55.6505 62.5206L56.4538 62.5897L57.2532 62.6397L58.0478 62.6707L58.8373 62.6829L59.6212 62.6762L60.399 62.6506L61.1701 62.6061L61.9341 62.543L62.6903 62.4612L63.4385 62.3607L64.1782 62.242L64.9088 62.105L65.6298 61.9497L66.341 61.7766L67.0417 61.5856L67.7316 61.3769L68.4103 61.1507L69.0774 60.9072L69.7326 60.6469L70.3752 60.3696L71.0052 60.0757L71.622 59.7654L72.2252 59.439L72.8145 59.0967L73.3899 58.7389L73.9506 58.3657L74.4967 57.9774L75.0277 57.5745L75.5433 57.1573L76.0432 56.7259L76.5275 56.2805L76.9954 55.8217L77.4469 55.3497L77.882 54.865L78.3002 54.3677L78.7015 53.8584L79.0858 53.3372L79.4524 52.8047L79.8018 52.261L80.1333 51.7066L80.4471 51.1419L80.7429 50.5673L81.0207 49.9831L81.2805 49.3897L81.522 48.7874L81.7452 48.1767L81.9499 47.558L82.1363 46.9316L82.304 46.2979L82.4533 45.6573L82.5841 45.0103L82.6964 44.3572L82.7901 43.6984L82.8651 43.0343L82.9216 42.3653L82.9596 41.6918L82.979 41.0141L82.9801 40.3328L82.9628 39.6482L82.9273 38.9606L82.8734 38.2705L82.8013 37.5784L82.7111 36.8844L82.6031 36.1891L82.477 35.493L82.3334 34.796L82.172 34.099L81.9932 33.4023" fill="#0E0C15"/>
  <path d="M26.8776 7.76455L26.2129 8.08497L25.5603 8.42279L24.9201 8.77785L24.2928 9.14986L23.6786 9.53884L23.0783 9.94485L22.4922 10.3672L21.9204 10.8062L21.3634 11.2614L20.8217 11.7325L20.2956 12.2195L19.7854 12.7221L19.2917 13.2399L18.8147 13.7728L18.3547 14.3206L17.9123 14.8829L17.4873 15.4596L17.0807 16.0501L16.6922 16.6542L16.3225 17.2717L15.9718 17.9022L15.6402 18.5455L15.3285 19.201L15.0365 19.8684L14.7645 20.5475L14.5128 21.2377L14.2818 21.9388L14.0713 22.6502L13.882 23.3717L13.7136 24.1027L13.5669 24.8429L13.4417 25.5918L13.3382 26.349L13.2563 27.1139L13.1965 27.8862L13.1588 28.6654L13.1432 29.4508L13.1499 30.2422L13.1789 31.0391L13.2305 31.8406L13.3043 32.6467L13.4006 33.4564L13.5194 34.2696L13.6604 35.0857L13.824 35.9039L14.0099 36.7238L14.2181 37.5449L14.4487 38.3666L14.7013 39.1884L14.976 40.0099L15.2726 40.8301L15.5908 41.6489L15.9306 42.4655L16.2918 43.2793L16.6743 44.0899L17.0778 44.8965L17.5022 45.6989L17.9469 46.4963L18.4119 47.2881L18.8968 48.074L19.4013 48.8533L19.9254 49.6253L20.4684 50.3896L21.0301 51.1456L21.6102 51.8928L22.2081 52.6307L22.8235 53.3588L23.4562 54.0765L24.1055 54.7835L24.7711 55.4788L25.4525 56.1624L26.1493 56.8336L26.861 57.4919L27.5871 58.137L28.327 58.7682L29.0804 59.3854L29.8466 59.9879L30.6252 60.5751L31.4155 61.1469L32.2172 61.7029L33.0294 62.2424L33.8516 62.7654L34.6836 63.2714L35.5244 63.7602L36.3736 64.2311L37.2304 64.684L38.0945 65.1186L38.965 65.5345L39.8415 65.9315L40.7234 66.3095L41.6099 66.6681L42.5005 67.0072L43.3944 67.3262L44.2913 67.6253L45.1903 67.9042L46.0908 68.1627L46.9924 68.4007L47.8942 68.618L48.7957 68.8147L49.6963 68.9906L50.5954 69.1454L51.4923 69.2793L52.3865 69.3921L53.2771 69.4838L54.1639 69.5543L55.0462 69.6038L55.9233 69.6323L56.7946 69.6398L57.6597 69.6263L58.5179 69.5918L59.3687 69.5366L60.2115 69.4604L61.0458 69.3637L61.871 69.2464L62.6866 69.1087L63.4923 68.9509L64.2873 68.7732L65.0712 68.5754L65.8435 68.3578L66.604 68.1208L67.3517 67.8646L68.0868 67.5893L68.8083 67.2952L69.5161 66.9827L70.2099 66.6519L70.8888 66.303L71.553 65.9365L72.2016 65.5525L72.8347 65.1513L73.4516 64.7334L74.0523 64.299L74.6362 63.8486L75.2033 63.3824L75.753 62.9006L76.285 62.4039L76.7992 61.8923L77.2954 61.3665L77.7733 60.8267L78.2326 60.2732L78.6732 59.7065L79.0949 59.1272L79.4975 58.5353L79.8807 57.9316L80.2443 57.3161L80.5884 56.6894L80.9128 56.0521L81.2174 55.4043L81.5021 54.7469L81.7666 54.0797L82.0111 53.4036L82.2352 52.7188L82.4391 52.0257L82.6226 51.3249L82.7859 50.6168L82.9289 49.9017L83.0515 49.1802L83.1538 48.4528L83.2357 47.7197" fill="#0E0C15"/>
  <path d="M16.1402 15.0198L15.6005 15.5499L15.0777 16.096L14.5726 16.658L14.0851 17.2357L13.6159 17.8286L13.1651 18.4367L12.7332 19.0593L12.3205 19.6964L11.9273 20.3475L11.5539 21.0122L11.2007 21.6905L10.8681 22.3817L10.5562 23.0854L10.2652 23.8015L9.99571 24.5292L9.74761 25.2684L9.52124 26.0185L9.31682 26.7793L9.13473 27.5501L8.97501 28.3304L8.83803 29.1201L8.72384 29.9185L8.63247 30.7251L8.56415 31.5394L8.51909 32.3609L8.49733 33.1891L8.49889 34.0237L8.52419 34.8637L8.57293 35.709L8.6453 36.559L8.74137 37.4129L8.86101 38.2703L9.0041 39.1307L9.17101 39.9934L9.36149 40.8581L9.57554 41.7238L9.81307 42.5902L10.074 43.4566L10.3581 44.3227L10.6651 45.1874L10.9953 46.0506L11.3482 46.9114L11.7237 47.7693L12.1217 48.6237L12.5419 49.474L12.9841 50.3197L13.448 51.1601L13.9332 51.9946L14.4396 52.8227L14.9667 53.6437L15.5144 54.4571L16.0822 55.2623L16.6698 56.0586L17.2769 56.8457L17.9028 57.6229L18.5474 58.3894L19.2101 59.1452L19.8905 59.8892L20.5882 60.6212L21.3026 61.3404L22.0335 62.0466L22.7801 62.7393L23.5419 63.4175L24.3184 64.0814L25.1092 64.73L25.9137 65.3631L26.7312 65.9803L27.5613 66.5809L28.4033 67.1646L29.2566 67.731L30.1206 68.2798L30.9948 68.8106L31.8785 69.3229L32.771 69.8164L33.6717 70.2908L34.5801 70.7457L35.4955 71.1809L36.4171 71.596L37.3444 71.9909L38.2767 72.3651L39.2134 72.7186L40.1537 73.0513L41.097 73.3625L42.0426 73.6524L42.99 73.9205L43.9383 74.1671L44.8872 74.3917L45.8356 74.5945L46.7831 74.7752L47.7292 74.9336L48.6728 75.07L49.6135 75.1839L50.5509 75.2757L51.484 75.345L52.4123 75.3921L53.3352 75.417L54.2521 75.4197L55.1622 75.4003L56.0654 75.3587L56.9605 75.2949L57.8474 75.2095L58.7251 75.1021L59.5935 74.9732L60.4516 74.8227L61.2993 74.651L62.1357 74.4583L62.9606 74.2445L63.7732 74.0099L64.573 73.7548L65.3599 73.4795L66.1331 73.1841L66.8922 72.8692L67.6369 72.5347L68.3665 72.1809L69.0808 71.8083L69.7795 71.4171L70.4618 71.0076L71.1276 70.5802L71.7767 70.135L72.4084 69.6729L73.0228 69.1937L73.6192 68.6982L74.1973 68.1864L74.757 67.6588L75.298 67.1158L75.8198 66.5577L76.3225 65.9852L76.8057 65.3987L77.2693 64.7982L77.7129 64.1844L78.1365 63.5578L78.5398 62.9186L78.9224 62.2674L79.2846 61.6044L79.6261 60.9305L79.9467 60.2457" fill="#0E0C15"/>
  <path d="M8.48881 24.9349L8.1295 25.6224L7.79092 26.3226L7.47308 27.0357L7.17654 27.761L6.90131 28.4984L6.64779 29.2469L6.416 30.0067L6.20651 30.7769L6.01935 31.5573L5.85489 32.3474L5.71316 33.1468L5.5944 33.9549L5.49865 34.771L5.42627 35.5951L5.37715 36.4263L5.35149 37.2642L5.3495 38.1084L5.37126 38.9582L5.41677 39.8132L5.48613 40.6727L5.57933 41.5362L5.69628 42.4032L5.83704 43.273L6.00164 44.1451L6.19011 45.0191L6.40219 45.8942L6.63808 46.7698L6.89768 47.6454L7.18052 48.5204L7.48664 49.3941L7.8161 50.266L8.16844 51.1357L8.5437 52.0021L8.94161 52.865L9.36203 53.7237L9.80451 54.5776L10.2691 55.426L10.755 56.2685L11.2624 57.1042L11.7909 57.9328L12.34 58.7536L12.9096 59.566L13.4993 60.3694L14.1084 61.1633L14.7367 61.947L15.3839 62.7202L16.0495 63.4821L16.733 64.2323L17.4339 64.97L18.1518 65.695L18.8863 66.4066L19.6368 67.1042L20.4028 67.7876L21.1835 68.456L21.9788 69.1092L22.788 69.7464L23.6102 70.3676L24.4453 70.9718L25.2926 71.5589L26.1513 72.1286L27.021 72.6803L27.9008 73.2138L28.7904 73.7285L29.6889 74.2242L30.5959 74.7005L31.5106 75.1569L32.4324 75.5934L33.3608 76.0096L34.2948 76.4052L35.234 76.78L36.1776 77.1339L37.1251 77.4663L38.0756 77.7774L39.0286 78.0666L39.9834 78.334L40.9393 78.5794L41.8958 78.8028L42.8519 79.0038L43.8072 79.1826L44.7609 79.3389L45.7126 79.4728L46.6614 79.5842L47.6065 79.6728L48.5477 79.7391L49.4842 79.7828L50.4152 79.8039L51.3402 79.8027L52.2586 79.7791L53.1698 79.733L54.0731 79.6648L54.9681 79.5744L55.8541 79.462L56.7306 79.3278L57.5971 79.1719L58.4527 78.9945L59.2974 78.7957L60.1302 78.5758L60.9508 78.3349L61.7587 78.0735L62.5535 77.7913L63.3346 77.4891L64.1016 77.1671L64.8539 76.8255L65.5915 76.4644L66.3134 76.0844L67.0196 75.6854L67.7094 75.2681L68.3827 74.8328L69.039 74.3797L69.6781 73.9093L70.2994 73.4219L70.903 72.9178L71.488 72.3975L72.0545 71.8613L72.6021 71.3096L73.1306 70.7429" fill="#0E0C15"/>
  <path d="M62.738 79.0044L62.0354 79.3755L61.3182 79.7279L60.5865 80.0616L59.841 80.3764L59.0818 80.6719L58.3096 80.9478L57.5247 81.2038L56.7276 81.4399L55.9189 81.6554L55.0989 81.8506L54.2682 82.025L53.4275 82.1787L52.577 82.3112L51.7176 82.4226L50.8494 82.5127L49.9735 82.5814L49.09 82.6286L48.1997 82.6539L47.303 82.6575L46.4008 82.6395L45.4934 82.5996L44.5816 82.5379L43.6661 82.4543L42.7471 82.349L41.8256 82.2217L40.9021 82.0725L39.9773 81.9017L39.0517 81.7092L38.1261 81.4953L37.2011 81.2599L36.2772 81.0031L35.3551 80.7252L34.4357 80.4262L33.5192 80.1063L32.6065 79.7659L31.6985 79.4049L30.7952 79.0237L29.8977 78.6228L29.0066 78.202L28.1223 77.7619L27.2458 77.3026L26.3774 76.8243L25.5178 76.3276L24.6676 75.8129L23.8275 75.2802L22.9978 74.7302L22.1795 74.1632L21.3729 73.5795L20.5787 72.9795L19.7974 72.3637L19.0295 71.7325L18.2755 71.0862L17.5361 70.4257L16.8116 69.7511L16.1028 69.063L15.4097 68.3618L14.7334 67.6481L14.0738 66.9224L13.4317 66.1851L12.8074 65.437L12.2012 64.6783L11.6135 63.9098L11.045 63.1318L10.4957 62.3452L9.9662 61.5503L9.45681 60.7476L8.96762 59.938L8.49929 59.1216L8.05173 58.2995L7.62525 57.4721L7.22033 56.6396L6.83725 55.803L6.47595 54.9628L6.1369 54.1195L5.81988 53.2737L5.52554 52.426L5.25362 51.577L5.00427 50.7274L4.77779 49.8775L4.57428 49.028L4.39371 48.1796L4.23618 47.3326L4.10183 46.4877L3.99046 45.6455L3.90199 44.8064L3.83673 43.9712L3.79446 43.1401L3.77513 42.3141L3.77888 41.4932L3.80532 40.6782L3.85474 39.8697L3.92659 39.0681L4.02101 38.2737L4.13772 37.4873" fill="#0E0C15"/>
  <path d="M4.514 52.7265L4.70285 53.5176L4.91281 54.309L5.14395 55.1L5.39596 55.8902L5.66888 56.6789L5.9626 57.4657L6.27698 58.2501L6.61172 59.0314L6.96672 59.8092L7.34199 60.5831L7.73693 61.3522L8.15158 62.1161L8.58561 62.8745L9.03859 63.6267L9.51056 64.3721L10.001 65.1102L10.5097 65.8405L11.0365 66.5626L11.5807 67.276L12.1421 67.9799L12.7205 68.6741L13.3152 69.3582L13.926 70.0313L14.5525 70.6932L15.1944 71.3434L15.851 71.9815L16.522 72.6069L17.2069 73.2192L17.9052 73.8181L18.6165 74.4032L19.3402 74.9738L20.0761 75.5298L20.8233 76.0707L21.5814 76.5959L22.3502 77.1053L23.1286 77.5986L23.9165 78.0754L24.7131 78.5353L25.5179 78.978L26.3305 79.4032L27.1502 79.8107L27.9762 80.2L28.8084 80.5712L29.6459 80.9238L30.4882 81.2577L31.3347 81.5727L32.1849 81.8684L33.0379 82.1449L33.8935 82.4017L34.7509 82.639L35.6096 82.8564L36.4689 83.054L37.3284 83.2317L38.1872 83.3892L39.045 83.5266L39.9011 83.6437L40.7549 83.7406L41.606 83.8171L42.4534 83.8732L43.2971 83.9093L44.1362 83.9251L44.9702 83.9206L45.7986 83.896L46.6208 83.8513L47.4363 83.7866L48.2445 83.7018" fill="#0E0C15"/>
  <path d="M40.8058 4.19666L41.5276 4.15129L42.2543 4.12233L42.7004 4.11052L43.4201 4.09838L44.144 4.10244L44.8714 4.12265L45.2846 4.13516L46.0033 4.17101L46.7248 4.22277L47.1143 4.25815L47.8258 4.32459L48.5393 4.40635L49.2542 4.50376L50.3082 4.66961L51.0124 4.79508L51.717 4.93559L52.4215 5.09093L52.7172 5.16048L53.4082 5.32728L54.0986 5.50836L54.7878 5.70365L55.4755 5.9128L56.1615 6.13595L56.3852 6.21048L57.0556 6.44287L57.7235 6.68852L58.3885 6.94758L59.0505 7.21983L59.7087 7.50473L60.3632 7.8026L61.0133 8.11289L61.135 8.17162L61.7674 8.48791L62.3949 8.81606L63.0173 9.15622L63.6343 9.50786L64.2454 9.8711L64.8506 10.2454L65.449 10.6308L66.0409 11.027L66.6256 11.4339L67.2031 11.8512L67.7728 12.2786L68.3344 12.7161L68.8877 13.1634L69.4326 13.6201L69.9686 14.0859L70.4953 14.5608L71.0127 15.0445L71.5203 15.5367L71.6152 15.6317L72.1232 16.1427L72.6206 16.6618L73.1073 17.1888L73.583 17.7234L74.0475 18.2654L74.5003 18.8143L74.9415 19.3701L75.0849 19.5561L75.5225 20.1295L75.9475 20.7094L76.3598 21.2953L76.7591 21.8869L77.1451 22.4839L77.3077 22.7392L77.6874 23.3527L78.0531 23.9712L78.4047 24.5942L78.9092 25.5333L79.2376 26.1759L79.5511 26.8222L79.8493 27.4715L80.0105 27.8267L80.2982 28.4905L80.5699 29.1569L80.9777 30.2216L81.2211 30.9034L81.4481 31.5866L81.5838 32.0108L81.7972 32.706L81.9932 33.4023M40.8058 4.19666L40.341 4.23382L39.6137 4.29664L38.8921 4.37648L38.411 4.43953L37.6855 4.53745L36.9664 4.65245L36.471 4.74208L35.7497 4.87598L35.0357 5.02687L34.5287 5.14364L33.8138 5.31389L33.1073 5.50155L32.591 5.64566L31.885 5.85298L31.1882 6.07761L30.665 6.24926L29.9703 6.49402L29.4494 6.69042L28.7579 6.95538L28.0771 7.23796L27.5535 7.46158L26.8773 7.7645L26.359 8.01244L25.6884 8.3356L25.03 8.67651L24.513 8.95081L23.8617 9.31209L23.353 9.6096L22.7097 9.99099L22.08 10.3899L21.5763 10.7127L20.9561 11.1315L20.4635 11.4763L19.8539 11.9151L19.3735 12.2808L18.7753 12.7395L18.1924 13.215L17.7222 13.6035L17.1521 14.0982L16.6967 14.5062L16.1402 15.0198M40.8058 4.19666L40.0891 4.25869L39.3779 4.33736L38.6729 4.43259L37.9742 4.54436L37.2823 4.67274L36.5978 4.81761L35.9208 4.97913L35.2518 5.15702L34.5913 5.35114L33.9394 5.56184L33.2969 5.78869L32.6642 6.03169L32.0413 6.29089L31.4288 6.56613L30.8271 6.85728L30.2366 7.16423L29.6576 7.4868L29.0904 7.82487L28.5356 8.1783L27.9933 8.54694L27.4642 8.93068L26.9483 9.32935L26.4461 9.74266L25.9581 10.1705L25.4844 10.6126L25.0252 11.0689L24.5812 11.539L24.1525 12.0226L23.7396 12.5198L23.3426 13.03L22.962 13.5532L22.5978 14.089L22.2503 14.6369L21.92 15.1969L21.607 15.7687L21.3116 16.3518L21.0341 16.9461L20.7749 17.5511L20.5339 18.1666L20.3112 18.7921L20.1074 19.4272L19.9225 20.0718L19.7565 20.7254L19.61 21.3875L19.4828 22.0578L19.3752 22.736L19.2875 23.4214L19.2194 24.1139L19.1711 24.813L19.1431 25.5181L19.1348 26.229L19.147 26.945L19.1793 27.6659L19.2319 28.3912L19.3048 29.1202L19.3978 29.8527L19.5111 30.5881L19.6448 31.326L19.7986 32.0659L19.9726 32.8074L20.1668 33.5497L20.3812 34.2926L20.6154 35.0356L20.8694 35.778L21.143 36.5196L21.4363 37.2596L21.7488 37.9977L22.0808 38.7333L22.4319 39.4659L22.8018 40.1952L23.1904 40.9202L23.5974 41.641L24.0225 42.3567L24.4655 43.0672L24.9263 43.7714L25.4043 44.4694L25.8995 45.1604L26.4115 45.8439L26.9398 46.5194L27.4843 47.1868L28.0445 47.8452L28.6199 48.4944L29.2103 49.134L29.8153 49.7631L30.4346 50.3818L31.0676 50.9891L31.714 51.5851L32.3733 52.1691L33.045 52.7409L33.7286 53.3L34.4237 53.846L35.1299 54.3784L35.8466 54.8968L36.5736 55.4011L37.31 55.8908L38.0553 56.3656L38.8092 56.8252L39.5713 57.2692L40.3407 57.6975L41.1171 58.1096L41.8998 58.5052L42.6883 58.8842L43.4824 59.2462L44.281 59.5911L45.084 59.9186L45.8905 60.2287L46.7001 60.5208L47.5123 60.795L48.3265 61.0512L49.142 61.2889L49.9584 61.5083L50.775 61.7093L51.5915 61.8915L52.4071 62.0552L53.2213 62.1999L54.0337 62.3258L54.8436 62.4328L55.6505 62.5206L56.4538 62.5897L57.2532 62.6397L58.0478 62.6707L58.8373 62.6829L59.6212 62.6762L60.399 62.6506L61.1701 62.6061L61.9341 62.543L62.6903 62.4612L63.4385 62.3607L64.1782 62.242L64.9088 62.105L65.6298 61.9497L66.341 61.7766L67.0417 61.5856L67.7316 61.3769L68.4103 61.1507L69.0774 60.9072L69.7326 60.6469L70.3752 60.3696L71.0052 60.0757L71.622 59.7654L72.2252 59.439L72.8145 59.0967L73.3898 58.7389L73.9506 58.3657L74.4967 57.9774L75.0277 57.5745L75.5433 57.1573L76.0432 56.7259L76.5275 56.2805L76.9954 55.8217L77.4469 55.3498L77.882 54.865L78.3002 54.3677L78.7015 53.8584L79.0858 53.3372L79.4524 52.8047L79.8018 52.261L80.1333 51.7066L80.4471 51.1419L80.7429 50.5673L81.0207 49.9831L81.2805 49.3897L81.522 48.7874L81.7452 48.1767L81.9499 47.558L82.1363 46.9316L82.304 46.2979L82.4533 45.6573L82.5841 45.0103L82.6964 44.3572L82.7901 43.6984L82.8651 43.0343L82.9216 42.3653L82.9596 41.6918L82.979 41.0141L82.9801 40.3328L82.9628 39.6482L82.9273 38.9606L82.8734 38.2705L82.8013 37.5784L82.7111 36.8844L82.6031 36.1891L82.477 35.493L82.3334 34.796L82.172 34.099L81.9932 33.4023M16.1402 15.0198L15.7003 15.4464L15.1583 15.9784L14.6335 16.5266L14.2086 16.9727L13.6995 17.5389L13.2922 18.0013L12.7997 18.5845L12.4111 19.0625L11.9361 19.6626L11.5669 20.1548L11.1097 20.7709L10.6714 21.4018L10.3222 21.908L9.90281 22.5541L9.57473 23.0721L9.17494 23.7324L8.86862 24.2612L8.48898 24.935L8.20522 25.4733L7.84629 26.1601L7.50795 26.8597L7.24743 27.4053L6.93043 28.1164L6.69373 28.6687L6.39833 29.3905L6.18556 29.948L5.91219 30.6793L5.66037 31.4221L5.47253 31.9812L5.2432 32.732L5.08005 33.2933L4.87331 34.0513L4.73497 34.6136L4.55104 35.3779L4.38917 36.1514L4.27663 36.7091L4.13772 37.4873M16.1402 15.0198L15.6005 15.5499L15.0777 16.096L14.5726 16.658L14.0851 17.2357L13.6159 17.8286L13.1651 18.4367L12.7332 19.0593L12.3205 19.6964L11.9273 20.3475L11.5539 21.0122L11.2007 21.6905L10.8681 22.3817L10.5562 23.0854L10.2652 23.8015L9.99571 24.5292L9.74761 25.2684L9.52124 26.0185L9.31682 26.7793L9.13473 27.5501L8.97501 28.3304L8.83803 29.1201L8.72384 29.9185L8.63247 30.7251L8.56415 31.5394L8.51909 32.3609L8.49733 33.1891L8.49889 34.0237L8.52419 34.8637L8.57293 35.709L8.6453 36.559L8.74137 37.4129L8.86101 38.2703L9.0041 39.1307L9.17101 39.9934L9.36149 40.858L9.57554 41.7238L9.81307 42.5902L10.074 43.4566L10.3581 44.3227L10.6651 45.1874L10.9953 46.0506L11.3482 46.9114L11.7237 47.7693L12.1217 48.6237L12.5419 49.474L12.9841 50.3197L13.448 51.1601L13.9332 51.9946L14.4396 52.8227L14.9667 53.6437L15.5144 54.4571L16.0822 55.2623L16.6698 56.0586L17.2769 56.8457L17.9028 57.6229L18.5474 58.3894L19.2101 59.1452L19.8905 59.8892L20.5882 60.6212L21.3026 61.3404L22.0335 62.0466L22.7801 62.7393L23.5419 63.4175L24.3184 64.0814L25.1092 64.73L25.9137 65.3631L26.7312 65.9803L27.5613 66.5809L28.4033 67.1646L29.2566 67.731L30.1206 68.2798L30.9948 68.8106L31.8785 69.3229L32.771 69.8164L33.6717 70.2908L34.5801 70.7457L35.4955 71.1809L36.4171 71.596L37.3444 71.9909L38.2767 72.3651L39.2134 72.7186L40.1537 73.0513L41.097 73.3625L42.0426 73.6524L42.99 73.9205L43.9383 74.1671L44.8872 74.3917L45.8356 74.5945L46.7831 74.7752L47.7292 74.9336L48.6728 75.07L49.6135 75.1839L50.5509 75.2757L51.484 75.345L52.4123 75.3921L53.3352 75.417L54.2521 75.4197L55.1622 75.4003L56.0654 75.3587L56.9605 75.2949L57.8474 75.2095L58.7251 75.1021L59.5935 74.9732L60.4516 74.8227L61.2993 74.651L62.1357 74.4583L62.9606 74.2445L63.7732 74.0099L64.573 73.7548L65.3599 73.4795L66.1331 73.1841L66.8922 72.8692L67.6369 72.5347L68.3665 72.1809L69.0808 71.8083L69.7795 71.4171L70.4618 71.0076L71.1276 70.5802L71.7767 70.135L72.4084 69.6729L73.0228 69.1937L73.6192 68.6982L74.1973 68.1864L74.757 67.6588L75.298 67.1158L75.8198 66.5577L76.3225 65.9852L76.8057 65.3987L77.2693 64.7982L77.7129 64.1844L78.1365 63.5578L78.5398 62.9186L78.9224 62.2674L79.2846 61.6044L79.6261 60.9305L79.9467 60.2457M4.13772 37.4873L4.05043 38.0426L3.93441 38.8243L3.84059 39.6137L3.77895 40.1601L3.70781 40.9514L3.67101 41.4923L3.62248 42.2843L3.59644 43.0825L3.5843 43.6099L3.58049 44.4072L3.611 45.7211L3.65131 46.5208L3.68693 47.022L3.74888 47.8179L3.83252 48.6174L3.89064 49.0983L3.99521 49.8921L4.12123 50.6884L4.20051 51.1469L4.34657 51.9361L4.514 52.7265M4.13772 37.4873L4.02101 38.2737L3.92659 39.0681L3.85474 39.8697L3.80532 40.6782L3.77888 41.4932L3.77513 42.3141L3.79446 43.1401L3.83673 43.9712L3.90199 44.8065L3.99046 45.6455L4.10183 46.4877L4.23618 47.3326L4.39371 48.1796L4.57428 49.028L4.77779 49.8775L5.00427 50.7274L5.25362 51.577L5.52554 52.426L5.81988 53.2737L6.1369 54.1195L6.47595 54.9628L6.83725 55.803L7.22033 56.6396L7.62525 57.4721L8.05173 58.2995L8.49929 59.1216L8.96762 59.938L9.45681 60.7476L9.9662 61.5503L10.4957 62.3452L11.045 63.1318L11.6135 63.9098L12.2012 64.6783L12.8074 65.437L13.4317 66.1851L14.0738 66.9224L14.7334 67.6481L15.4097 68.3618L16.1028 69.063L16.8116 69.7511L17.5361 70.4257L18.2755 71.0862L19.0295 71.7325L19.7974 72.3637L20.5787 72.9795L21.3729 73.5795L22.1795 74.1632L22.9978 74.7302L23.8275 75.2802L24.6676 75.8129L25.5178 76.3276L26.3774 76.8243L27.2458 77.3026L28.1223 77.762L29.0066 78.202L29.8977 78.6228L30.7952 79.0237L31.6985 79.4049L32.6065 79.7659L33.5192 80.1063L34.4357 80.4262L35.3551 80.7252L36.2772 81.0031L37.2011 81.2599L38.1261 81.4953L39.0517 81.7092L39.9773 81.9017L40.9021 82.0725L41.8256 82.2217L42.7471 82.349L43.6661 82.4543L44.5816 82.5379L45.4934 82.5996L46.4008 82.6395L47.303 82.6575L48.1997 82.6539L49.09 82.6286L49.9735 82.5814L50.8494 82.5127L51.7176 82.4226L52.577 82.3112L53.4275 82.1787L54.2682 82.025L55.0989 81.8506L55.9189 81.6554L56.7276 81.4399L57.5247 81.2038L58.3096 80.9478L59.0818 80.6719L59.841 80.3764L60.5865 80.0616L61.3182 79.7279L62.0354 79.3755L62.738 79.0044M4.514 52.7265L4.6133 53.16L4.7997 53.9418L5.00723 54.7236L5.1245 55.1302L5.34995 55.9018L5.59576 56.6726L5.86196 57.442L5.99213 57.8091L6.27455 58.5661L6.5768 59.3207L7.03809 60.3973L7.37451 61.1346L7.73004 61.868L8.10433 62.5971L8.249 62.8775L8.63575 63.5905L9.0405 64.2982L9.46297 64.9998L9.60885 65.2338L10.0419 65.918L10.4918 66.5954L10.9583 67.2657L11.4414 67.9282L11.9404 68.5826L12.0666 68.7459L12.5727 69.3809L13.0938 70.0067L13.6297 70.6233L14.1801 71.2302L14.7446 71.8268L15.3228 72.4128L15.9144 72.9878L15.9903 73.0595L16.5839 73.613L17.1897 74.1548L17.8074 74.6847L18.4366 75.2022L19.0769 75.7072L19.7277 76.1989L20.3887 76.6774L21.0593 77.142L21.7392 77.5925L22.428 78.0289L23.1249 78.4505L23.8298 78.8573L24.542 79.2489L25.2609 79.625L25.3546 79.6734L26.0932 80.0404L26.8376 80.3911L27.5877 80.7254L28.3426 81.043L29.1018 81.3438L29.865 81.6275L30.6316 81.894L30.8282 81.9594L31.6109 82.2127L32.3959 82.4484L33.1826 82.6657L33.9707 82.8651L34.7595 83.0462L35.0292 83.1067L35.8309 83.2722L36.6325 83.419L37.4329 83.5472L37.7461 83.591L38.5574 83.7018L39.3667 83.7936L40.1736 83.866L40.527 83.89L41.3422 83.9441L42.1538 83.9786L42.9611 83.9937L43.3512 83.9952L44.1647 83.9908L44.9726 83.9669L45.7746 83.9232L46.1977 83.8995L47.0035 83.8355L47.8021 83.7516L48.2445 83.7018M4.514 52.7265L4.70285 53.5176L4.91281 54.309L5.14395 55.1L5.39596 55.8902L5.66888 56.6789L5.9626 57.4657L6.27698 58.2501L6.61172 59.0314L6.96672 59.8092L7.34199 60.5831L7.73693 61.3522L8.15158 62.1161L8.58561 62.8745L9.03859 63.6267L9.51056 64.3721L10.001 65.1102L10.5097 65.8405L11.0365 66.5626L11.5807 67.276L12.1421 67.9799L12.7205 68.6741L13.3152 69.3582L13.926 70.0313L14.5525 70.6932L15.1944 71.3434L15.851 71.9815L16.522 72.6069L17.2069 73.2192L17.9052 73.8181L18.6165 74.4032L19.3402 74.9738L20.0761 75.5298L20.8233 76.0707L21.5814 76.5959L22.3502 77.1053L23.1286 77.5986L23.9165 78.0754L24.7131 78.5353L25.5179 78.978L26.3305 79.4032L27.1502 79.8107L27.9762 80.2L28.8084 80.5712L29.6459 80.9238L30.4882 81.2577L31.3347 81.5727L32.1849 81.8684L33.0379 82.1449L33.8935 82.4017L34.7509 82.6391L35.6096 82.8564L36.4689 83.054L37.3284 83.2317L38.1872 83.3892L39.045 83.5266L39.9011 83.6437L40.7549 83.7406L41.606 83.8171L42.4534 83.8732L43.2971 83.9093L44.1362 83.9251L44.9702 83.9206L45.7986 83.896L46.6208 83.8513L47.4362 83.7866L48.2445 83.7018M48.2445 83.7018L49.045 83.5973L49.8372 83.4732L50.2965 83.3963L51.0887 83.2511L51.8717 83.0861L52.3451 82.982L53.1261 82.7955L53.8968 82.5896L54.3817 82.4576L55.1487 82.2303L55.6358 82.0722L56.3979 81.8233L57.1479 81.5551L57.642 81.3694L58.3855 81.0799L59.1158 80.7715L59.6142 80.5578L60.3364 80.2283L60.8318 79.9895L61.5445 79.6392L62.2427 79.2703L62.738 79.0044M62.738 79.0044L63.4251 78.6151L63.9142 78.3248L64.5894 77.9154L65.2487 77.4884L65.7335 77.1721L66.3793 76.7256L66.855 76.3863L67.4865 75.9211L67.952 75.5592L68.5684 75.0753L69.1671 74.575L69.6228 74.19L70.2051 73.6722L70.6479 73.2665L71.2128 72.7317L71.6415 72.3058L72.1887 71.7547L72.7166 71.1884L73.1308 70.7429L73.64 70.1615L74.0378 69.6979L74.5276 69.1022L74.9079 68.6216L75.3777 68.0121L75.7399 67.5155L76.1892 66.893L76.6183 66.2576L76.9607 65.7469L77.3688 65.0998L77.6912 64.5756L78.0777 63.9178L78.3796 63.3811L78.7442 62.7134L79.0247 62.1654L79.3676 61.4887L79.6894 60.8013L79.9467 60.2457M79.9467 60.2457L80.2463 59.5507L80.4807 58.9867L80.7582 58.285L80.9696 57.7134L81.2246 57.006L81.4585 56.2899L81.645 55.7162L81.8566 54.9957L82.0191 54.4177L82.2085 53.6937L82.3469 53.1125L82.5143 52.3863L82.6607 51.6531L82.7735 51.0755L82.8983 50.3414L82.9866 49.7635L83.0897 49.0295L83.1724 48.2898L83.2353 47.7196L83.2967 46.9814L83.3351 46.414L83.376 45.6782L83.3966 44.9378L83.4102 44.3822L83.4108 43.6458L83.4003 43.096L83.3813 42.3642L83.3429 41.6295L83.3088 41.0954L83.2517 40.3665L83.1754 39.6357L83.1184 39.1194L83.0244 38.3958L82.9116 37.6708L82.833 37.1745L82.7032 36.4581L82.5553 35.741L82.4564 35.2667L82.2927 34.5595L82.1112 33.8525L81.9932 33.4023M26.8776 7.76455L26.2129 8.08497L25.5603 8.42279L24.9201 8.77785L24.2928 9.14986L23.6786 9.53884L23.0783 9.94485L22.4922 10.3672L21.9204 10.8062L21.3634 11.2614L20.8217 11.7325L20.2956 12.2195L19.7854 12.7221L19.2917 13.2399L18.8147 13.7728L18.3547 14.3206L17.9123 14.8829L17.4873 15.4596L17.0807 16.0501L16.6922 16.6542L16.3225 17.2717L15.9718 17.9022L15.6402 18.5455L15.3285 19.201L15.0365 19.8684L14.7645 20.5475L14.5128 21.2377L14.2818 21.9388L14.0713 22.6502L13.882 23.3717L13.7136 24.1027L13.5669 24.8429L13.4417 25.5918L13.3382 26.349L13.2563 27.1139L13.1965 27.8862L13.1588 28.6654L13.1432 29.4508L13.1499 30.2422L13.1789 31.0391L13.2305 31.8406L13.3043 32.6467L13.4006 33.4564L13.5194 34.2696L13.6604 35.0857L13.824 35.9039L14.0099 36.7238L14.2181 37.5449L14.4487 38.3667L14.7013 39.1884L14.976 40.0099L15.2726 40.8301L15.5908 41.6489L15.9306 42.4655L16.2918 43.2793L16.6743 44.0899L17.0778 44.8965L17.5022 45.6989L17.9469 46.4963L18.4119 47.2881L18.8968 48.074L19.4013 48.8533L19.9254 49.6253L20.4684 50.3896L21.0301 51.1456L21.6102 51.8928L22.2081 52.6307L22.8235 53.3588L23.4562 54.0765L24.1055 54.7835L24.7711 55.4788L25.4525 56.1624L26.1493 56.8336L26.861 57.4919L27.5871 58.137L28.327 58.7682L29.0804 59.3854L29.8466 59.9879L30.6252 60.5751L31.4155 61.1469L32.2172 61.7029L33.0294 62.2424L33.8516 62.7654L34.6836 63.2714L35.5244 63.7602L36.3736 64.2311L37.2304 64.684L38.0945 65.1186L38.965 65.5345L39.8415 65.9315L40.7234 66.3095L41.6098 66.6681L42.5005 67.0072L43.3944 67.3262L44.2913 67.6253L45.1903 67.9042L46.0908 68.1627L46.9924 68.4007L47.8942 68.618L48.7957 68.8147L49.6963 68.9906L50.5954 69.1454L51.4923 69.2793L52.3865 69.3921L53.2771 69.4838L54.1639 69.5543L55.0462 69.6038L55.9233 69.6323L56.7946 69.6398L57.6597 69.6263L58.5179 69.5918L59.3687 69.5366L60.2115 69.4604L61.0458 69.3637L61.871 69.2464L62.6866 69.1087L63.4923 68.9509L64.2873 68.7732L65.0712 68.5754L65.8435 68.3578L66.604 68.1208L67.3517 67.8646L68.0868 67.5893L68.8083 67.2952L69.5161 66.9827L70.2099 66.6519L70.8888 66.303L71.553 65.9365L72.2016 65.5525L72.8347 65.1513L73.4516 64.7334L74.0523 64.299L74.6362 63.8486L75.2033 63.3824L75.753 62.9006L76.285 62.404L76.7992 61.8923L77.2954 61.3665L77.7733 60.8267L78.2326 60.2732L78.6732 59.7065L79.0949 59.1272L79.4975 58.5353L79.8807 57.9316L80.2443 57.3161L80.5884 56.6894L80.9128 56.0521L81.2174 55.4043L81.5021 54.7469L81.7666 54.0797L82.0111 53.4036L82.2352 52.7188L82.4391 52.0257L82.6226 51.3249L82.7859 50.6168L82.9289 49.9017L83.0515 49.1802L83.1538 48.4528L83.2357 47.7197M8.48881 24.9349L8.1295 25.6224L7.79092 26.3226L7.47308 27.0357L7.17654 27.761L6.90131 28.4984L6.64779 29.2469L6.416 30.0067L6.20651 30.7769L6.01935 31.5573L5.85489 32.3474L5.71316 33.1468L5.5944 33.9549L5.49865 34.771L5.42627 35.5951L5.37715 36.4263L5.35149 37.2642L5.3495 38.1084L5.37126 38.9582L5.41677 39.8132L5.48613 40.6727L5.57933 41.5362L5.69628 42.4032L5.83704 43.273L6.00164 44.1451L6.19011 45.0191L6.40219 45.8942L6.63808 46.7698L6.89768 47.6454L7.18052 48.5204L7.48664 49.3941L7.8161 50.266L8.16844 51.1357L8.5437 52.0021L8.94161 52.865L9.36203 53.7237L9.80451 54.5776L10.2691 55.426L10.755 56.2685L11.2624 57.1042L11.7909 57.9328L12.34 58.7536L12.9096 59.566L13.4993 60.3694L14.1084 61.1633L14.7367 61.947L15.3839 62.7202L16.0495 63.4821L16.733 64.2323L17.4339 64.97L18.1518 65.695L18.8863 66.4066L19.6368 67.1042L20.4028 67.7876L21.1835 68.456L21.9788 69.1092L22.788 69.7464L23.6102 70.3676L24.4453 70.9718L25.2926 71.5589L26.1513 72.1286L27.021 72.6803L27.9008 73.2138L28.7904 73.7285L29.6889 74.2242L30.5959 74.7005L31.5106 75.1569L32.4324 75.5934L33.3608 76.0096L34.2948 76.4052L35.234 76.78L36.1776 77.1339L37.1251 77.4663L38.0756 77.7774L39.0286 78.0666L39.9834 78.334L40.9393 78.5794L41.8958 78.8028L42.8519 79.0038L43.8072 79.1826L44.7609 79.3389L45.7126 79.4728L46.6614 79.5842L47.6065 79.6728L48.5477 79.7391L49.4842 79.7828L50.4152 79.8039L51.3402 79.8027L52.2586 79.7791L53.1698 79.733L54.0731 79.6648L54.9681 79.5744L55.8541 79.462L56.7306 79.3278L57.5971 79.1719L58.4527 78.9945L59.2974 78.7957L60.1302 78.5758L60.9508 78.3349L61.7587 78.0735L62.5535 77.7913L63.3346 77.4891L64.1016 77.1671L64.8539 76.8255L65.5915 76.4644L66.3134 76.0844L67.0196 75.6854L67.7094 75.2681L68.3827 74.8328L69.039 74.3797L69.6781 73.9093L70.2994 73.4219L70.903 72.9178L71.488 72.3975L72.0545 71.8613L72.6022 71.3096L73.1306 70.7429M67.5024 16.8945L67.2306 16.6203L66.9532 16.3508L66.6703 16.0858L66.3823 15.8258L66.089 15.5705L65.7909 15.3204L65.4879 15.0755L65.1806 14.8358L64.8687 14.6016L64.5524 14.3731L64.2322 14.1504L63.9081 13.9334L63.5802 13.7225L63.249 13.5177L62.9143 13.3192L62.5765 13.1269L62.2358 12.941L61.8923 12.7619L61.546 12.5892L61.1976 12.4235L60.847 12.2645L60.4943 12.1124L60.1398 11.9673L59.7837 11.8294L59.4264 11.6987L59.0678 11.5754L58.7082 11.4593L58.3478 11.3507L57.987 11.2496L57.6256 11.1561L57.2642 11.07L56.9028 10.9917L56.5416 10.921L56.1807 10.8582L55.8207 10.8031L55.4614 10.756L55.1033 10.7168L54.7465 10.6853L54.391 10.6619L54.0373 10.6464L53.6854 10.6389L53.3358 10.6393L52.9883 10.6479L52.6434 10.6643L52.3012 10.6889L51.9618 10.7213L51.6256 10.7617L51.2926 10.81L50.9631 10.8665L50.6375 10.9308L50.3156 11.003L49.9977 11.0832L49.6843 11.1712L49.3753 11.2669L49.0707 11.3703L48.7712 11.4815L48.4766 11.6004L48.1873 11.7267L47.9032 11.8609L47.6247 12.0023L47.352 12.151L47.0853 12.3072L46.8244 12.4706L46.5697 12.6412L46.3215 12.8187L46.0798 13.0033L45.8449 13.1946L45.6167 13.3928L45.3956 13.5978L45.1816 13.8091L44.9748 14.0268L44.7755 14.251L44.5836 14.4812L44.3994 14.7176L44.223 14.9599L44.0547 15.208L43.8943 15.4617L43.7419 15.7209L43.598 15.9855L43.4623 16.2551L43.335 16.5299L43.2161 16.8096L43.106 17.094L43.0046 17.3831L42.9119 17.6763L42.8282 17.974L42.7532 18.2755L42.6873 18.5809L42.6302 18.8901L42.5824 19.2028L42.5437 19.5186L42.5141 19.8376L42.4936 20.1596L42.4825 20.4843L42.4805 20.8114L42.4877 21.1411L42.5043 21.4727L42.53 21.8063L42.5651 22.1415L42.6095 22.4784L42.663 22.8164L42.7257 23.1555L42.7976 23.4955L42.8785 23.8363L42.9686 24.1774L43.0679 24.5188L43.1762 24.8602L43.2932 25.2014L43.4192 25.5423L43.5541 25.8824L43.6977 26.2217L43.8499 26.56L44.0107 26.8969L44.1801 27.2324L44.3577 27.5662L44.5437 27.898L44.7377 28.2276L44.94 28.555L45.1499 28.8799L45.3678 29.2019L45.5934 29.5209L45.8263 29.8368L46.0667 30.1493L46.3143 30.4583L46.5691 30.7634L46.8307 31.0644L47.0989 31.3614L47.3738 31.6539L47.6552 31.942L47.9427 32.2251L48.2363 32.5035L48.5357 32.7768L48.8409 33.0445L49.1514 33.3069L49.4672 33.5638L49.788 33.8149L50.1139 34.0598L50.4443 34.2989L50.7792 34.5315L51.1182 34.7576L51.4613 34.9773L51.8082 35.1903L52.1587 35.3964L52.5124 35.5955L52.8691 35.7875L53.229 35.9723L53.5913 36.1498L53.9562 36.3198L54.3231 36.4822L54.692 36.637L55.0626 36.784L55.4347 36.9233L55.808 37.0546L56.1823 37.1777L56.5573 37.2929L56.9329 37.3999L57.3086 37.4987L57.6845 37.5892L58.0601 37.6715L58.4351 37.7454L58.8096 37.8107L59.1832 37.8678L59.5555 37.9162L59.9265 37.9563L60.2958 37.9878L60.6633 38.0107L61.0286 38.0251L61.3915 38.0312L61.752 38.0286L62.1097 38.0175L62.4643 37.9978L62.8156 37.9698L63.1637 37.9333L63.508 37.8883L63.8485 37.835L64.1848 37.7735L64.517 37.7036L64.8446 37.6255L65.1675 37.5392L65.4856 37.4447L65.7986 37.3424L66.1062 37.2319L66.4084 37.1138L66.7052 36.9877L66.9961 36.854L67.281 36.7128L67.5597 36.5639L67.8323 36.4076L68.0983 36.244L68.3577 36.0734L68.6102 35.8957L68.856 35.7109L69.0947 35.5194L69.3263 35.3211L69.5505 35.1163L69.7673 34.9052L69.9767 34.6877L70.1782 34.4639L70.372 34.2343L70.558 33.9988L70.736 33.7577L70.9059 33.5109L71.0676 33.2586L71.221 33.0013L71.3661 32.7389L71.503 32.4716L71.6313 32.1995L71.7512 31.9229L71.8623 31.6419L71.9649 31.3566L72.0586 31.0674L72.1438 30.7743L72.2201 30.4775L72.2878 30.1772L72.3466 29.8735L72.3965 29.5667L72.4375 29.2571L72.4696 28.9446L72.4929 28.6296L72.5074 28.3122L72.513 27.9926L72.5095 27.6709L72.4976 27.3475L72.4765 27.0225L72.4467 26.6959L72.4082 26.3682L72.3609 26.0395L72.3048 25.7098L72.2402 25.3796L72.1669 25.0488L72.0851 24.7176L71.9948 24.3866L71.896 24.0555L71.7889 23.7247L71.6735 23.3944L71.5499 23.0648L71.418 22.7361L71.2782 22.4085L71.1304 22.082L70.9747 21.757L70.8112 21.4333L70.64 21.1118L70.4613 20.792L70.2751 20.4745L70.0814 20.1593L69.8807 19.8465L69.6727 19.5365L69.4579 19.2292L69.2361 18.925L69.0074 18.624L68.7723 18.3264L68.5306 18.0323L68.2827 17.7419L68.0285 17.4553L67.7685 17.1728L67.5024 16.8945ZM63.704 18.8076L63.8587 18.9523L64.0179 19.093L64.173 19.2348L64.3152 19.3831L64.4392 19.5418L64.5511 19.7079L64.6603 19.8769L64.7764 20.0444L64.9049 20.207L65.0392 20.3671L65.169 20.5274L65.2838 20.6912L65.3771 20.8611L65.4561 21.0354L65.5317 21.2121L65.6147 21.3886L65.7123 21.5636L65.8166 21.7369L65.916 21.9098L65.9991 22.0833L66.0582 22.2579L66.1012 22.4341L66.1403 22.6116L66.1872 22.7907L66.25 22.9712L66.3201 23.1517L66.3854 23.331L66.4334 23.5074L66.4559 23.6803L66.4613 23.8516L66.4621 24.0233L66.471 24.1983L66.4963 24.3776L66.5296 24.5585L66.5579 24.7374L66.5688 24.9103L66.5537 25.0749L66.5211 25.2346L66.4835 25.3942L66.4539 25.5581L66.4406 25.7295L66.4354 25.9041L66.4256 26.0758L66.3988 26.2387L66.3464 26.3887L66.2767 26.5308L66.202 26.6718L66.1347 26.8185L66.0831 26.9754L66.0392 27.137L65.9914 27.2951L65.9276 27.4416L65.8398 27.5712L65.7354 27.69L65.6263 27.8068L65.5236 27.9305L65.4353 28.0669L65.3544 28.2092L65.2699 28.3477L65.1714 28.4721L65.0512 28.5762L64.9162 28.6668L64.7765 28.7547L64.6422 28.8506L64.5203 28.9611L64.405 29.0785L64.287 29.1918L64.1572 29.2892L64.0091 29.3634L63.8484 29.4222L63.6835 29.4777L63.5228 29.5414L63.3719 29.6217L63.2264 29.7098L63.0792 29.7933L62.9228 29.8597L62.7524 29.901L62.5724 29.9254L62.3884 29.9458L62.2073 29.9751L62.033 30.0216L61.8629 30.0765L61.6919 30.127L61.515 30.1598L61.3292 30.1662L61.1365 30.155L60.9407 30.1394L60.7461 30.1326L60.5553 30.1435L60.3669 30.1632L60.1788 30.1785L59.9884 30.1761L59.794 30.1472L59.5962 30.1006L59.3967 30.0493L59.1962 30.0067L58.9962 29.9813L58.7971 29.9647L58.5989 29.9442L58.4023 29.9066L58.2071 29.8435L58.0125 29.7631L57.8166 29.6779L57.6184 29.6008L57.4171 29.5401L57.2149 29.488L57.0147 29.4324L56.8198 29.3609L56.6316 29.2659L56.4476 29.1547L56.2636 29.0388L56.0753 28.9303L55.8807 28.8368L55.6834 28.751L55.4891 28.6624L55.3034 28.5601L55.1298 28.4368L54.9638 28.299L54.7989 28.1571L54.6285 28.0213L54.4481 27.8984L54.2636 27.7827L54.0828 27.6648L53.9137 27.5356L53.7617 27.3889L53.6205 27.2301L53.4812 27.0676L53.3351 26.91L53.1763 26.7629L53.0118 26.6216L52.8517 26.479L52.7061 26.328L52.5816 26.1639L52.4707 25.9903L52.3627 25.8138L52.2468 25.6405L52.1158 25.4749L51.9779 25.3141L51.8446 25.1528L51.7281 24.986L51.6359 24.8108L51.5599 24.6293L51.4875 24.4457L51.4063 24.2637L51.3081 24.0863L51.202 23.9121L51.1008 23.7385L51.018 23.5629L50.9617 23.3836L50.9233 23.2013L50.8891 23.0177L50.8458 22.8342L50.7842 22.6522L50.7139 22.4717L50.6488 22.2928L50.6025 22.1153L50.5843 21.9389L50.5849 21.763L50.5903 21.5865L50.5863 21.4087L50.5637 21.2291L50.5317 21.0496L50.5046 20.8724L50.4967 20.6999L50.5171 20.5334L50.5566 20.3705L50.6011 20.2081L50.6362 20.0428L50.653 19.8727L50.6604 19.7013L50.6723 19.5329L50.7026 19.372L50.7607 19.2218L50.8373 19.0781L50.9189 18.9358L50.992 18.7894L51.0472 18.6356L51.0934 18.4787L51.1435 18.3255L51.2107 18.1827L51.3037 18.0542L51.4144 17.9352L51.5298 17.8183L51.6375 17.6963L51.7288 17.5643L51.8116 17.4281L51.8978 17.2961L51.999 17.1765L52.1234 17.0747L52.2636 16.9846L52.4082 16.8975L52.5462 16.8042L52.6699 16.6991L52.7859 16.5887L52.9045 16.4827L53.0356 16.3908L53.1863 16.3194L53.3505 16.2615L53.5187 16.2071L53.6816 16.146L53.8328 16.0716L53.9772 15.9911L54.1235 15.915L54.2793 15.8542L54.4505 15.8155L54.6324 15.7917L54.8177 15.7718L54.9993 15.7449L55.1719 15.7039L55.3392 15.6561L55.5074 15.6129L55.6819 15.5852L55.8671 15.5806L56.0599 15.5915L56.2551 15.6067L56.4483 15.6147L56.6358 15.6084L56.8197 15.5952L57.0032 15.586L57.1899 15.5925L57.382 15.6219L57.5782 15.6668L57.7764 15.7161L57.9739 15.7588L58.1693 15.7873L58.3626 15.809L58.5547 15.8343L58.7463 15.8745L58.9381 15.9366L59.1307 16.0137L59.3242 16.0952L59.5188 16.1707L59.7147 16.2329L59.9102 16.2884L60.1034 16.3474L60.2928 16.4197L60.4775 16.512L60.6592 16.6183L60.841 16.7288L61.0255 16.8341L61.2145 16.9277L61.4048 17.0151L61.5921 17.1053L61.7723 17.207L61.9427 17.3263L62.107 17.4577L62.2703 17.593L62.438 17.7242L62.613 17.8456L62.7912 17.9618L62.9657 18.0799L63.1299 18.2073L63.2799 18.3489L63.4207 18.5005L63.5596 18.6554L63.704 18.8076ZM70.2644 15.8556L69.8756 15.4643L69.479 15.0794L69.0746 14.7013L68.6626 14.3298L68.2438 13.9653L67.8177 13.6082L67.385 13.2584L66.9459 12.9164L66.5003 12.582L66.0487 12.2556L65.5914 11.9375L65.1286 11.6275L64.6604 11.3262L64.1872 11.0334L63.7092 10.7497L63.2269 10.4747L62.7402 10.209L62.2495 9.95258L61.7551 9.70544L61.2573 9.46806L60.7563 9.2403L60.2524 9.02253L59.7458 8.81458L59.237 8.61667L58.7262 8.42899L58.2134 8.25172L57.6992 8.08489L57.1836 7.92853L56.6672 7.78265L56.1502 7.64763L55.6327 7.52332L55.1152 7.40992L54.5978 7.3076L54.081 7.21624L53.565 7.13586L53.0498 7.06681L52.5362 7.00879L52.0241 6.96199L51.514 6.92661L51.0061 6.9025L50.5007 6.88984L49.9981 6.88851L49.4986 6.89852L49.0024 6.92006L48.51 6.95301L48.0214 6.99718L47.537 7.05297L47.0572 7.12005L46.5821 7.19861L46.1121 7.28852L45.6475 7.38979L45.1884 7.50245L44.7352 7.62617L44.2884 7.76116L43.8478 7.90743L43.4139 8.06466L42.9871 8.2329L42.5673 8.41213L42.1552 8.6024L41.7509 8.80323L41.3545 9.01496L40.9662 9.23709L40.5864 9.46983L40.2155 9.71287L39.8536 9.96621L39.5008 10.2295L39.1576 10.503L38.8238 10.7864L38.5002 11.0793L38.1864 11.3819L37.883 11.6939L37.5902 12.015L37.308 12.3453L37.0368 12.6844L36.7767 13.0323L36.5278 13.3887L36.2904 13.7533L36.0647 14.1261L35.8507 14.5067L35.6487 14.8952L35.4588 15.2909L35.2811 15.6941L35.1159 16.1042L34.9632 16.5212L34.8231 16.9446L34.6957 17.3743L34.5812 17.8102L34.4797 18.2516L34.3911 18.6988L34.3158 19.1512L34.2537 19.6084L34.205 20.0705L34.1694 20.537L34.1474 21.0077L34.1388 21.4821L34.1434 21.9601L34.1618 22.4414L34.1937 22.9257L34.2391 23.4127L34.2978 23.902L34.3702 24.3935L34.4561 24.8866L34.5554 25.3812L34.668 25.8768L34.7942 26.3733L34.9335 26.8703L35.0862 27.3674L35.2521 27.8644L35.4309 28.361L35.6228 28.8568L35.8274 29.3513L36.0449 29.8445L36.2752 30.3361L36.5177 30.8252L36.7727 31.3123L37.0401 31.7964L37.3195 32.2775L37.6106 32.7552L37.9136 33.2294L38.228 33.6995L38.5537 34.1652L38.8907 34.6264L39.2385 35.0826L39.597 35.5335L39.9661 35.9791L40.3454 36.4187L40.7345 36.8522L41.1335 37.2793L41.542 37.6997L41.9597 38.1131L42.3865 38.5192L42.8217 38.9178L43.2655 39.3086L43.7173 39.6913L44.177 40.0657L44.6441 40.4318L45.1183 40.7887L45.5996 41.1367L46.0874 41.4755L46.5813 41.8048L47.0812 42.1242L47.5867 42.4338L48.0974 42.7333L48.613 43.0225L49.1332 43.3011L49.6577 43.5691L50.1859 43.8261L50.7178 44.0721L51.2527 44.307L51.7904 44.5306L52.3307 44.7427L52.8729 44.9431L53.4169 45.1319L53.9625 45.3087L54.5089 45.4737L55.0559 45.6266L55.6033 45.7674L56.1506 45.8959L56.6975 46.0123L57.2437 46.1162L57.7886 46.2079L58.3321 46.2869L58.8738 46.3536L59.4132 46.4078L59.9501 46.4494L60.4843 46.4785L61.0151 46.4951L61.5424 46.4993L62.0658 46.4909L62.5849 46.47L63.0994 46.4367L63.6092 46.3909L64.1136 46.3329L64.6128 46.2625L65.1059 46.18L65.593 46.0852L66.0736 45.9785L66.5475 45.8598L67.0144 45.7292L67.4742 45.5868L67.9262 45.4328L68.3705 45.2672L68.8067 45.0904L69.2345 44.9023L69.6538 44.7029L70.0642 44.4927L70.4655 44.2715L70.8574 44.0398L71.2399 43.7976L71.6126 43.5452L71.9755 43.2825L72.3281 43.0098L72.6703 42.7275L73.0021 42.4357L73.323 42.1343L73.633 41.8239L73.9322 41.5044L74.2199 41.1764L74.4965 40.8398L74.7615 40.4949L75.0149 40.142L75.2565 39.7813L75.4862 39.4129L75.704 39.0371L75.9096 38.6544L76.103 38.2647L76.2843 37.8683L76.4532 37.4658L76.6096 37.057L76.7535 36.6425L76.8849 36.2222L77.0036 35.7967L77.1098 35.366L77.2033 34.9307L77.2843 34.4907L77.3524 34.0466L77.4078 33.5983L77.4505 33.1465L77.4804 32.6909L77.4976 32.2323L77.5021 31.7708L77.4939 31.3066L77.4733 30.8401L77.4398 30.3714L77.394 29.9009L77.3354 29.4289L77.2644 28.9556L77.1812 28.4811L77.0854 28.006L76.9775 27.5305L76.8576 27.0547L76.7255 26.579L76.5814 26.1036L76.4254 25.6287L76.2576 25.1549L76.0782 24.6822L75.8874 24.2106L75.6849 23.741L75.4714 23.2732L75.2466 22.8075L75.0109 22.3443L74.7642 21.8838L74.5068 21.4262L74.239 20.9719L73.9606 20.5209L73.6721 20.0737L73.3737 19.6302L73.0651 19.191L72.7471 18.7563L72.4194 18.3262L72.0822 17.9009L71.7361 17.4807L71.3811 17.066L71.0172 16.6567L70.6449 16.2532L70.2644 15.8556ZM71.8948 15.9486L71.408 15.4588L70.9113 14.9773L70.4052 14.5041L69.8897 14.0393L69.3654 13.5836L68.8324 13.1366L68.2909 12.6991L67.7414 12.271L67.1839 11.8528L66.6189 11.4444L66.0468 11.0464L65.4678 10.6586L64.8821 10.2815L64.2901 9.9153L63.6922 9.56L63.0885 9.2158L62.4795 8.88307L61.8655 8.56204L61.2468 8.25271L60.6237 7.95527L59.9965 7.66977L59.3657 7.39674L58.7315 7.13587L58.0943 6.88771L57.4543 6.65227L56.8119 6.42974L56.1676 6.22001L55.5216 6.0236L54.8743 5.84021L54.2259 5.6702L53.577 5.51361L52.9277 5.37063L52.2786 5.24129L51.6298 5.1258L50.9819 5.02402L50.3351 4.93614L49.6898 4.86236L49.0464 4.80256L48.405 4.75674L47.7663 4.72512L47.1304 4.70771L46.4979 4.70458L45.8691 4.71573L45.2442 4.74103L44.6235 4.78084L44.0076 4.83485L43.3966 4.9031L42.7913 4.98562L42.1915 5.0826L41.5979 5.19374L41.0107 5.31924L40.4305 5.45895L39.8571 5.61272L39.2914 5.78061L38.7335 5.96262L38.1836 6.15862L37.6425 6.36848L37.1101 6.5922L36.5869 6.82967L36.0731 7.08071L35.5692 7.34539L35.0754 7.62334L34.5919 7.91464L34.1193 8.21912L33.6579 8.53666L33.2076 8.8669L32.7692 9.21008L32.3427 9.5657L31.9285 9.93377L31.5267 10.3138L31.1377 10.706L30.7618 11.1099L30.3993 11.5255L30.0504 11.9525L29.7153 12.3905L29.3945 12.8396L29.0879 13.2993L28.7957 13.7693L28.5184 14.2497L28.2559 14.7397L28.0088 15.2396L27.7771 15.7488L27.561 16.2671L27.3607 16.7943L27.1762 17.3298L27.0079 17.8735L26.8558 18.4251L26.72 18.9842L26.6009 19.5505L26.4983 20.1236L26.4125 20.7033L26.3436 21.2892L26.2916 21.8809L26.2567 22.478L26.2387 23.0803L26.238 23.6871L26.2543 24.2985L26.2879 24.9139L26.339 25.5326L26.4072 26.1546L26.4926 26.7795L26.5953 27.4067L26.7152 28.036L26.8521 28.6668L27.0062 29.2987L27.1775 29.9315L27.3657 30.5646L27.5709 31.1975L27.7929 31.8301L28.0314 32.4618L28.2866 33.0922L28.5582 33.7207L28.8461 34.3472L29.1501 34.971L29.4701 35.5919L29.8058 36.2095L30.1569 36.8231L30.5235 37.4325L30.9053 38.0373L31.3018 38.6368L31.7129 39.231L32.1385 39.8194L32.5783 40.4014L33.0319 40.9766L33.499 41.5448L33.9792 42.1057L34.4725 42.6585L34.9783 43.2033L35.4965 43.7392L36.0265 44.2664L36.5682 44.784L37.121 45.292L37.6846 45.79L38.2589 46.2776L38.8431 46.7545L39.4371 47.2203L40.0403 47.6747L40.6525 48.1175L41.273 48.5482L41.9017 48.9668L42.5379 49.3727L43.1814 49.7658L43.8316 50.146L44.4881 50.5128L45.1504 50.8659L45.8183 51.2053L46.491 51.5304L47.1682 51.8415L47.8495 52.1381L48.5343 52.4201L49.2222 52.6872L49.9127 52.9394L50.6056 53.1766L51.2999 53.3982L51.9957 53.6046L52.6921 53.7954L53.3888 53.9705L54.0853 54.1302L54.7813 54.2739L55.4762 54.4016L56.1695 54.5135L56.8606 54.6093L57.5494 54.6891L58.2353 54.7529L58.9178 54.8005L59.5965 54.8321L60.2709 54.8478L60.9406 54.8473L61.6051 54.8308L62.2642 54.7983L62.9172 54.7498L63.5639 54.6856L64.2037 54.6057L64.8364 54.5101L65.4616 54.3989L66.0787 54.2722L66.6874 54.1301L67.2873 53.973L67.8783 53.8006L68.4598 53.6133L69.0315 53.4113L69.593 53.1946L70.1441 52.9636L70.6845 52.7184L71.2136 52.4589L71.7314 52.1857L72.2374 51.8989L72.7315 51.5986L73.2134 51.2852L73.6828 50.9588L74.1394 50.6197L74.5829 50.2683L75.013 49.9045L75.4298 49.5286L75.8329 49.1412L76.2219 48.7423L76.5968 48.3324L76.9575 47.9115L77.3039 47.4801L77.6354 47.0383L77.9522 46.5868L78.254 46.1255L78.5405 45.6547L78.812 45.1748L79.0682 44.6865L79.3089 44.1895L79.5341 43.6845L79.7436 43.1716L79.9376 42.6514L80.1156 42.124L80.2778 41.5898L80.424 41.049L80.5544 40.5023L80.6689 39.9497L80.7673 39.3916L80.8498 38.8285L80.9164 38.2605L80.9667 37.6882L81.0013 37.1117L81.0197 36.5314L81.0223 35.9478L81.0091 35.3611L80.98 34.7717L80.9352 34.1797L80.8747 33.5859L80.7985 32.9903L80.7065 32.3934L80.5994 31.7953L80.4767 31.1966L80.3388 30.5974L80.1858 29.9984L80.0177 29.3996L79.8348 28.8014L79.6369 28.2043L79.4245 27.6084L79.1975 27.0142L78.9561 26.4218L78.7008 25.8318L78.4313 25.2443L78.1481 24.6596L77.8511 24.0784L77.5405 23.5006L77.2167 22.9266L76.8799 22.3568L76.53 21.7913L76.1676 21.2306L75.7927 20.675L75.4055 20.1248L75.0064 19.58L74.5953 19.0413L74.1726 18.5088L73.7389 17.9827L73.2938 17.4633L72.8379 16.9511L72.3714 16.446L71.8948 15.9486Z" stroke="url(#paint0_linear_481_41172)" stroke-width="1.5" stroke-linecap="round" stroke-linejoin="round"/>
  <defs>
    <linearGradient id="paint0_linear_481_41172" x1="46.8697" y1="4.23504" x2="40.1224" y2="83.8617" gradientUnits="userSpaceOnUse">
      <stop stop-color="#8C2DDA"/>
      <stop offset="0.475" stop-color="#D387FF"/>
      <stop offset="1" stop-color="#FACB7C"/>
    </linearGradient>
  </defs>
</svg>