<svg xmlns="http://www.w3.org/2000/svg" width="108" height="108" viewBox="0 0 108 108" fill="none">
  <path d="M82.7236 15.439L82.3331 15.1067L81.9358 14.7811L81.5318 14.4621L81.1215 14.1504L80.7048 13.8454L80.2822 13.5478L79.8538 13.2577L79.4202 12.975L78.9812 12.7L78.537 12.4331L78.0883 12.1744L77.6351 11.9235L77.1776 11.6812L76.7163 11.4473L76.2511 11.2221L75.7825 11.0056L75.3108 10.7978L74.8361 10.5993L74.3585 10.4096L73.8789 10.2293L73.3971 10.0583L72.9134 9.89655L72.4279 9.74427L71.9413 9.6017L71.4538 9.46882L70.9654 9.34587L70.4765 9.23262L69.9874 9.1293L69.4986 9.0359L69.0099 8.95266L68.5219 8.87934L68.0349 8.81617L67.549 8.76316L67.0644 8.72052L66.5818 8.68803L66.1011 8.66593L65.6228 8.65419L65.147 8.65262L64.674 8.66142L64.2043 8.68059L63.7378 8.71014L63.275 8.74985L62.8162 8.80015L62.3616 8.86062L61.9116 8.93145L61.466 9.01244L61.0256 9.10358L60.5905 9.20487L60.1607 9.31654L59.737 9.43814L59.3192 9.56988L58.9075 9.71156L58.5026 9.86316L58.1044 10.0245L57.713 10.1955L57.329 10.3762L56.9525 10.5666L56.5839 10.7662L56.2229 10.9756L55.8703 11.1939L55.5261 11.4213L55.1906 11.658L54.8637 11.9034L54.5459 12.1577L54.2372 12.4205L53.9381 12.6919L53.6487 12.9714L53.3689 13.2593L53.0993 13.5553L52.8399 13.8589L52.5906 14.1702L52.3519 14.4892L52.1239 14.8154L51.9066 15.1489L51.7004 15.4893L51.5055 15.8365L51.3216 16.1902L51.1491 16.5503L50.9882 16.9166L50.8389 17.2886L50.7013 17.6665L50.5754 18.05L50.4615 18.4387L50.3597 18.8326L50.2699 19.231L50.1926 19.6344L50.1271 20.0418L50.0741 20.4533L50.0333 20.8688L50.0051 21.288L49.9893 21.7103L49.9859 22.1358L49.9949 22.5642L50.0166 22.9951L50.0507 23.4282L50.0971 23.8636L50.1562 24.3006L50.2277 24.7391L50.3117 25.1788L50.4082 25.6196L50.517 26.0609L50.6379 26.5026L50.7712 26.9446L50.9165 27.3865L51.074 27.8278L51.2436 28.2684L51.4252 28.708L51.6183 29.1464L51.8234 29.5834L52.04 30.0183L52.268 30.4512L52.5074 30.8819L52.758 31.3096L53.0197 31.7346L53.2922 32.1565L53.5756 32.5747L53.8693 32.9892L54.1736 33.3997L54.4879 33.806L54.8123 34.2078L55.1466 34.6046L55.4902 34.9965L55.8435 35.3832L56.2058 35.7642L56.5771 36.1394L56.957 36.5084L57.3453 36.8714L57.7419 37.2276L58.1466 37.5773L58.5588 37.9198L58.9786 38.2552L59.4054 38.5832L59.8392 38.9034L60.2796 39.2158L60.7263 39.5204L61.179 39.8166L61.6377 40.1042L62.1017 40.3835L62.571 40.6538L63.0449 40.915L63.5237 41.1672L64.0066 41.4102L64.4935 41.6437L64.9839 41.8675L65.4775 42.0816L65.9745 42.2857L66.4738 42.48L66.9757 42.664L67.4795 42.8377L67.985 43.0013L68.4919 43.1543L69 43.2968L69.5087 43.4288L70.0179 43.5497L70.527 43.66L71.036 43.7595L71.5443 43.8482L72.0518 43.9258L72.5581 43.9926L73.0627 44.0483L73.5656 44.0927L74.0664 44.1264L74.5645 44.1487L75.0599 44.1602L75.5522 44.1604L76.041 44.1496L76.5261 44.1277L77.007 44.095L77.4837 44.0512L77.9559 43.9964L78.4229 43.9305L78.8847 43.8541L79.3413 43.7668L79.7918 43.6686L80.2364 43.5599L80.6745 43.4408L81.1063 43.311L81.5311 43.1709L81.9487 43.0205L82.3591 42.8599L82.7617 42.6893L83.1565 42.5086L83.5432 42.3184L83.9218 42.1183L84.2917 41.9087L84.6529 41.6899L85.0051 41.4616L85.3482 41.2243L85.6819 40.9779L86.006 40.723L86.3203 40.4595L86.6249 40.1875L86.9192 39.9073L87.2035 39.619L87.4771 39.3228L87.7404 39.0191L87.9931 38.7078L88.2347 38.389L88.4655 38.0635L88.6852 37.7309L88.8937 37.3919L89.0908 37.0463L89.2765 36.6943L89.4507 36.3365L89.6133 35.9731L89.7645 35.604L89.9036 35.2295L90.0313 34.8501L90.1468 34.4657L90.2506 34.0768L90.3422 33.6835L90.4221 33.286L90.4897 32.8847L90.5457 32.4798L90.5895 32.0712L90.621 31.6597L90.6407 31.2453L90.6481 30.8282L90.6436 30.4088L90.6271 29.9872L90.5987 29.5635L90.5581 29.1383L90.506 28.7116L90.4417 28.2839L90.3657 27.8551L90.2779 27.4258L90.1784 26.996L90.0672 26.566L89.9447 26.1363L89.8107 25.7067L89.6652 25.2776L89.5086 24.8497L89.3408 24.4226L89.1619 23.9969L88.9722 23.5728L88.7716 23.1505L88.5602 22.7302L88.3385 22.3124L88.1063 21.8969L87.8638 21.4843L87.6111 21.0743L87.3486 20.668L87.0763 20.2649L86.7943 19.8656L86.5026 19.4701L86.2019 19.0787L85.8919 18.6918L85.5731 18.3092L85.2456 17.9316L84.9092 17.5589L84.5647 17.1914L84.2119 16.8293L83.8511 16.4729L83.4827 16.1221L83.1069 15.7774L82.7236 15.439Z" fill="#0E0C15"/>
  <path d="M77.9117 18.3966L78.1325 18.5708L78.359 18.739L78.5801 18.9094L78.7849 19.0896L78.9668 19.2857L79.1335 19.493L79.297 19.7044L79.4694 19.9131L79.6578 20.1138L79.8534 20.3105L80.0431 20.5082L80.2134 20.7121L80.356 20.9264L80.4801 21.1482L80.5998 21.3736L80.7296 21.5978L80.8782 21.8184L81.0357 22.0361L81.1866 22.2538L81.3161 22.474L81.4138 22.6985L81.4905 22.9268L81.5622 23.1573L81.6444 23.389L81.7477 23.6209L81.8607 23.8519L81.9672 24.0818L82.0504 24.3099L82.0996 24.5362L82.126 24.7622L82.1463 24.9894L82.1777 25.22L82.2314 25.4543L82.2956 25.6901L82.3532 25.9236L82.387 26.1512L82.3854 26.3707L82.3602 26.5857L82.3284 26.8011L82.3076 27.0213L82.3092 27.2496L82.3218 27.4813L82.3281 27.7096L82.311 27.9282L82.2584 28.1326L82.1822 28.3284L82.0992 28.5233L82.0265 28.725L81.9757 28.9384L81.9358 29.1573L81.8902 29.3718L81.8223 29.5728L81.7206 29.7542L81.5959 29.9232L81.4646 30.0899L81.3425 30.2652L81.241 30.4556L81.1498 30.653L81.0535 30.8456L80.9371 31.0214L80.7898 31.1725L80.6213 31.3076L80.4462 31.4396L80.2793 31.5815L80.1304 31.7415L79.991 31.9098L79.8475 32.0729L79.6866 32.2163L79.4989 32.3312L79.293 32.427L79.0809 32.5189L78.8754 32.6213L78.6848 32.7445L78.502 32.8773L78.3166 33.0043L78.1172 33.1097L77.8963 33.1835L77.6608 33.236L77.4196 33.2836L77.1832 33.3427L76.9578 33.4237L76.7388 33.5155L76.5181 33.6015L76.2878 33.6647L76.0426 33.694L75.7863 33.7008L75.5255 33.7021L75.2672 33.715L75.0159 33.7508L74.7689 33.798L74.5216 33.8393L74.2694 33.8575L74.0089 33.8411L73.742 33.8016L73.4722 33.756L73.2021 33.7222L72.9346 33.7109L72.6693 33.7114L72.4046 33.7064L72.1402 33.6786L71.8749 33.6171L71.6083 33.5325L71.3396 33.4418L71.0687 33.3619L70.7955 33.3042L70.522 33.2579L70.2509 33.2067L69.9849 33.1341L69.7253 33.0294L69.4692 32.9028L69.2127 32.7702L68.9515 32.6477L68.6834 32.5457L68.4127 32.4543L68.1456 32.3589L67.8885 32.2443L67.6448 32.1006L67.4097 31.9368L67.1756 31.7676L66.9349 31.607L66.6824 31.4647L66.4252 31.3322L66.1728 31.1964L65.9346 31.0444L65.7169 30.8673L65.5123 30.673L65.3097 30.4736L65.0987 30.2814L64.872 30.1045L64.6385 29.936L64.4107 29.7652L64.2011 29.5818L64.0179 29.3786L63.8517 29.1613L63.689 28.9398L63.5162 28.7234L63.3242 28.5191L63.1237 28.3217L62.9292 28.1231L62.7564 27.9156L62.6147 27.6941L62.4938 27.4624L62.3774 27.2275L62.2495 26.9958L62.0997 26.772L61.9397 26.5534L61.7863 26.3351L61.6571 26.112L61.5625 25.8809L61.4912 25.6441L61.4254 25.4049L61.3475 25.1669L61.2456 24.933L61.1323 24.702L61.0261 24.4726L60.9449 24.2429L60.9011 24.0114L60.8821 23.7786L60.8695 23.5445L60.8442 23.3096L60.7942 23.0745L60.7317 22.8406L60.6759 22.6091L60.6462 22.3817L60.6545 22.1591L60.6886 21.9391L60.7292 21.7192L60.7572 21.4965L60.7603 21.2696L60.7508 21.0419L60.7477 20.8177L60.7698 20.6013L60.8298 20.396L60.9151 20.1973L61.0071 19.9999L61.0874 19.798L61.1432 19.5882L61.1867 19.3755L61.2359 19.167L61.3087 18.9705L61.4175 18.79L61.5506 18.6202L61.6902 18.4525L61.819 18.2791L61.9251 18.0941L62.0194 17.9046L62.1186 17.7203L62.2391 17.5506L62.3923 17.4019L62.5678 17.267L62.7494 17.1355L62.9215 16.9966L63.0733 16.8436L63.2146 16.6846L63.3596 16.5309L63.5227 16.3947L63.7143 16.2832L63.925 16.1882L64.1415 16.0973L64.3502 15.9983L64.542 15.8828L64.724 15.7601L64.909 15.643L65.1084 15.5451L65.3306 15.4747L65.5687 15.4228L65.8116 15.3757L66.049 15.3197L66.2727 15.2462L66.4889 15.164L66.7066 15.088L66.9344 15.0318L67.179 15.005L67.4352 14.9978L67.6954 14.996L67.9518 14.9849L68.1993 14.9556L68.4412 14.9175L68.683 14.8848L68.9307 14.8724L69.1883 14.8897L69.4529 14.9272L69.7207 14.9703L69.987 15.0045L70.2486 15.0203L70.5069 15.0273L70.7639 15.0393L71.022 15.0711L71.2827 15.1318L71.5463 15.2121L71.8115 15.2983L72.0775 15.3763L72.3437 15.4368L72.6086 15.4882L72.8709 15.5446L73.1297 15.6191L73.3844 15.7206L73.6368 15.8408L73.8897 15.9667L74.1458 16.0854L74.4064 16.188L74.6681 16.2823L74.9259 16.3807L75.1759 16.4951L75.4148 16.6338L75.6469 16.7892L75.8781 16.9501L76.1148 17.1048L76.36 17.2458L76.6088 17.3796L76.8529 17.5163L77.0846 17.6666L77.2989 17.8371L77.5022 18.0219L77.7034 18.2114L77.9117 18.3966Z" fill="#0E0C15"/>
  <path d="M86.2621 13.7545L85.7037 13.2803L85.1357 12.8153L84.5582 12.3603L83.9714 11.915L83.3763 11.4796L82.7724 11.0548L82.1606 10.6404L81.5411 10.237L80.9139 9.84448L80.2798 9.46323L79.6389 9.09347L78.9916 8.73523L78.3383 8.38894L77.6793 8.05461L77.015 7.73269L76.3458 7.42294L75.672 7.12583L74.9938 6.84158L74.3119 6.56997L73.6265 6.31166L72.938 6.06643L72.2467 5.83475L71.5531 5.61637L70.8575 5.41153L70.1605 5.22045L69.462 5.04337L68.7629 4.88026L68.0631 4.73114L67.3633 4.59601L66.6639 4.47532L65.9653 4.36883L65.2677 4.27679L64.5716 4.19941L63.8774 4.13647L63.1855 4.08797L62.4961 4.05436L61.8098 4.03517L61.1269 4.03067L60.4479 4.04104L59.7731 4.06609L59.1029 4.10601L58.4376 4.16061L57.7777 4.22986L57.1235 4.31402L56.4756 4.41282L55.834 4.52607L55.1992 4.65421L54.5718 4.79679L53.9519 4.95402L53.3401 5.12571L52.7366 5.31182L52.1417 5.51237L51.5558 5.72692L50.9797 5.95567L50.413 6.19863L49.8564 6.45536L49.3105 6.72585L48.7751 7.0101L48.2511 7.30811L47.7385 7.61921L47.2377 7.94384L46.7488 8.28134L46.2724 8.63191L45.8088 8.99512L45.3583 9.37096L44.9209 9.75898L44.4974 10.1594L44.0875 10.5718L43.692 10.9957L43.3108 11.4313L42.9442 11.8782L42.5927 12.336L42.2563 12.8047L41.9355 13.2839L41.6303 13.7735L41.3409 14.2729L41.0677 14.7821L40.8107 15.3007L40.5702 15.8284L40.3464 16.3651L40.1396 16.9101L39.9496 17.4635L39.777 18.0248L39.6216 18.5937L39.4838 19.1697L39.3633 19.7526L39.2607 20.3423L39.1758 20.9379L39.1088 21.5396L39.0599 22.1467L39.029 22.7587L39.0163 23.3757L39.0215 23.997L39.0452 24.6223L39.087 25.2511L39.1467 25.8832L39.225 26.518L39.3216 27.1553L39.4362 27.7946L39.5688 28.4356L39.7198 29.0778L39.8887 29.7208L40.0755 30.3642L40.2801 31.0074L40.5028 31.6503L40.7428 32.2923L41.0007 32.933L41.2759 33.5722L41.5683 34.2092L41.8778 34.8438L42.204 35.4753L42.5471 36.1036L42.907 36.7282L43.2828 37.3484L43.6749 37.9643L44.083 38.575L44.5067 39.1802L44.9454 39.7799L45.3996 40.3734L45.8684 40.9602L46.3516 41.54L46.8492 42.1125L47.3607 42.6772L47.8856 43.2337L48.4241 43.7819L48.9752 44.3211L49.5388 44.8512L50.1147 45.3717L50.7024 45.8822L51.3016 46.3824L51.9118 46.8719L52.5324 47.3506L53.1636 47.818L53.8043 48.2737L54.4547 48.7177L55.1139 49.1497L55.7815 49.5689L56.4573 49.9754L57.1409 50.3691L57.8314 50.7494L58.5288 51.116L59.2324 51.4691L59.9419 51.8081L60.6566 52.133L61.3762 52.4434L62.1004 52.7392L62.8282 53.0201L63.5595 53.286L64.2938 53.5369L65.0304 53.7724L65.7692 53.9926L66.5092 54.197L67.2503 54.3858L67.992 54.5586L68.7336 54.7156L69.4746 54.8566L70.2148 54.9816L70.9534 55.0903L71.6902 55.1831L72.4248 55.2593L73.1561 55.3195L73.8841 55.3631L74.6085 55.3906L75.3284 55.4019L76.0435 55.3967L76.7537 55.3753L77.458 55.3378L78.1562 55.2841L78.8479 55.2144L79.5326 55.1285L80.2096 55.0267L80.8792 54.909L81.5402 54.7756L82.1928 54.6265L82.8362 54.462L83.4701 54.282L84.0941 54.0869L84.708 53.8766L85.3112 53.6515L85.9036 53.4115L86.4845 53.157L87.0539 52.8881L87.6114 52.6052L88.1564 52.3083L88.6888 51.9974L89.2084 51.6732L89.7146 51.3355L90.2073 50.985L90.6862 50.6215L91.1512 50.2457L91.6019 49.8574L92.038 49.457L92.4592 49.0451L92.8655 48.6216L93.2564 48.1869L93.6318 47.7413L93.9919 47.285L94.3359 46.8187L94.6642 46.3422L94.9762 45.856L95.2719 45.3606L95.5512 44.8562L95.8138 44.343L96.0599 43.8212L96.2891 43.2917L96.5014 42.7543L96.6968 42.2095L96.8752 41.6579L97.0363 41.0994L97.1802 40.5347L97.307 39.9637L97.4164 39.3873L97.5087 38.8055L97.5836 38.219L97.6413 37.6277L97.6817 37.0323L97.7047 36.4329L97.7106 35.8301L97.6991 35.224L97.6704 34.6151L97.6246 34.0039L97.5617 33.3905L97.4821 32.7756L97.3853 32.159L97.2718 31.5416L97.1414 30.9234L96.9943 30.3051L96.831 29.6865L96.651 29.0686L96.455 28.4514L96.2429 27.8353L96.0148 27.2205L95.7707 26.6076L95.511 25.9967L95.2358 25.3885L94.9455 24.783L94.64 24.1804L94.3195 23.5817L93.9844 22.9865L93.6348 22.3955L93.2709 21.8089L92.8928 21.2271L92.5009 20.6505L92.0955 20.0793L91.6766 19.5137L91.2446 18.9543L90.8 18.4009L90.3424 17.8542L89.8728 17.3146L89.3909 16.7822L88.897 16.2573L88.3919 15.74L87.8756 15.231L87.3481 14.7302L86.8103 14.238L86.2621 13.7545Z" fill="#0E0C15"/>
  <path d="M88.4302 13.6947L87.731 13.1012L87.0197 12.5196L86.2969 11.9502L85.5626 11.393L84.8177 10.8486L84.0622 10.3169L83.2965 9.79868L82.5214 9.2938L81.7367 8.80291L80.9433 8.32577L80.1416 7.86331L79.3319 7.41505L78.5146 6.98168L77.69 6.56342L76.8589 6.16028L76.0215 5.77249L75.1782 5.40048L74.3298 5.04449L73.4764 4.70452L72.6184 4.38079L71.7564 4.0733L70.891 3.78274L70.0225 3.50864L69.1515 3.25168L68.2782 3.01188L67.4031 2.78944L66.5269 2.58415L65.65 2.39668L64.7729 2.22658L63.8958 2.0743L63.0196 1.93985L62.1443 1.82344L61.2707 1.72508L60.3993 1.64499L59.5305 1.58295L58.6647 1.53919L57.8024 1.51392L56.9443 1.50693L56.0904 1.51821L55.2417 1.54799L54.3982 1.59626L53.5608 1.66304L52.7299 1.74832L51.9058 1.85187L51.089 1.97414L50.28 2.11468L49.4791 2.2735L48.6873 2.4506L47.9044 2.64619L47.1313 2.85982L46.3684 3.09174L45.6162 3.34169L44.8747 3.60948L44.1449 3.89508L43.4271 4.1985L42.7214 4.51953L42.0288 4.85792L41.3493 5.21368L40.6836 5.5866L40.0318 5.97642L39.3948 6.38317L38.7723 6.80639L38.1653 7.24607L37.574 7.702L36.9989 8.17395L36.4401 8.66146L35.8985 9.16476L35.374 9.68318L34.8671 10.2167L34.378 10.7647L33.9072 11.3273L33.4551 11.9039L33.0219 12.4946L32.6082 13.0987L32.2138 13.7159L31.8396 14.3462L31.4854 14.989L31.1515 15.6436L30.8384 16.3105L30.546 16.9884L30.2751 17.6776L30.0256 18.3774L29.7977 19.0876L29.5917 19.8077L29.4077 20.537L29.2459 21.2754L29.1065 22.0223L28.9894 22.7774L28.8953 23.5401L28.8238 24.3101L28.7753 25.0868L28.7498 25.8699L28.7473 26.6588L28.7681 27.4529L28.8119 28.2519L28.8789 29.055L28.9691 29.8622L29.0826 30.6728L29.2195 31.4858L29.3795 32.3014L29.5626 33.1187L29.7688 33.9372L29.998 34.7565L30.25 35.5759L30.5248 36.3948L30.8224 37.213L31.1425 38.0297L31.4849 38.8443L31.8497 39.6565L32.2362 40.4657L32.6445 41.2713L33.0745 42.0726L33.5257 42.8694L33.9978 43.6608L34.491 44.4465L35.0044 45.2262L35.538 45.9988L36.0914 46.7641L36.6644 47.5216L37.2563 48.2706L37.867 49.0108L38.4962 49.7417L39.1435 50.4625L39.8083 51.1729L40.49 51.8724L41.1885 52.5607L41.9032 53.2371L42.6336 53.9012L43.3795 54.5523L44.1399 55.1905L44.9148 55.8147L45.7033 56.425L46.5051 57.0208L47.3197 57.6017L48.1463 58.1672L48.9846 58.717L49.8337 59.2508L50.6935 59.768L51.5629 60.2684L52.4418 60.7519L53.3293 61.2177L54.2249 61.6658L55.128 62.096L56.0378 62.5077L56.954 62.9007L57.8758 63.2749L58.8025 63.6298L59.7335 63.9655L60.6684 64.2815L61.6062 64.578L62.5465 64.8543L63.4886 65.1106L64.432 65.3468L65.3757 65.5622L66.3196 65.7574L67.2626 65.9318L68.2042 66.0854L69.1438 66.2185L70.0809 66.3306L71.0149 66.4218L71.9448 66.4921L72.8702 66.5413L73.7906 66.5697L74.7054 66.5772L75.6139 66.5637L76.5156 66.5294L77.4098 66.4745L78.296 66.3988L79.1735 66.3024L80.0421 66.1856L80.9007 66.0482L81.7494 65.8907L82.587 65.7132L83.4136 65.5158L84.2285 65.2985L85.0309 65.0616L85.8205 64.8054L86.5967 64.5301L87.3595 64.2357L88.108 63.9226L88.8419 63.5912L89.5606 63.2415L90.264 62.874L90.9517 62.489L91.6228 62.0863L92.2772 61.6667L92.9148 61.2304L93.5349 60.7776L94.1375 60.3088L94.722 59.8242L95.2883 59.3243L95.8358 58.8095L96.3641 58.2798L96.8735 57.7357L97.3635 57.1778L97.8337 56.6063L98.2837 56.0218L98.7139 55.4244L99.1238 54.8147L99.513 54.1929L99.8816 53.5599L100.229 52.9156L100.556 52.2605L100.861 51.595L101.145 50.92L101.408 50.2353L101.65 49.5418L101.869 48.8395L102.068 48.1294L102.244 47.4115L102.399 46.6865L102.532 45.9544L102.643 45.2162L102.732 44.4722L102.8 43.7226L102.846 42.9682L102.871 42.2091L102.873 41.4461L102.854 40.6793L102.813 39.9093L102.751 39.1367L102.668 38.3618L102.563 37.585L102.438 36.8067L102.291 36.0277L102.124 35.2481L101.935 34.4684L101.726 33.689L101.497 32.9105L101.247 32.1331L100.977 31.3575L100.688 30.5839L100.379 29.8128L100.05 29.0449L99.7018 28.2801L99.3347 27.5192L98.949 26.7623L98.5449 26.0102L98.1224 25.263L97.6821 24.521L97.2239 23.7851L96.7481 23.0553L96.2552 22.3321L95.7456 21.6158L95.2192 20.9068L94.6767 20.2054L94.1183 19.5121L93.5442 18.8275L92.9549 18.1514L92.3505 17.4845L91.7315 16.8273L91.0985 16.1796L90.4513 15.5423L89.7905 14.9156L89.1167 14.2995L88.4302 13.6947Z" fill="#0E0C15"/>
  <path d="M89.4706 14.5572L88.7541 13.9259L88.0245 13.3067L87.8883 13.1916L87.1614 12.5972L86.4226 12.0151L85.6722 11.4457L84.9106 10.8894L84.1384 10.3462L83.3561 9.81626L82.5638 9.30033L81.762 8.79861L80.951 8.31109L80.1316 7.83824L79.3039 7.38028L78.4688 6.93744L77.6259 6.50994L76.7766 6.09777L75.9206 5.70163L75.0589 5.32128L74.1917 4.95739L73.3193 4.60975L73.1517 4.54568L72.2565 4.20797L71.3571 3.88717L70.454 3.58396L69.5476 3.29791L68.6384 3.02968L67.727 2.7795L66.8138 2.54713L66.5095 2.47358L65.5767 2.25521L64.6432 2.05556L63.7092 1.8744L62.7752 1.7122L61.8422 1.56895L61.4431 1.51007L60.4933 1.38351L59.5451 1.27658L58.5992 1.1895L57.1859 1.08821L56.2289 1.03948L55.2755 1.01128L54.3265 1.00315L53.8071 1L52.8465 1.01241L51.8914 1.04557L51.3432 1.07535L50.3783 1.13017L49.42 1.20597L48.4689 1.30274L47.8798 1.3684L46.9215 1.48819L45.9713 1.62919L45.3604 1.73047L44.405 1.89516L43.4591 2.08173L42.8294 2.21912L41.8804 2.43005L40.9417 2.66286L40.2962 2.83702L39.3566 3.0951L38.4287 3.37484L37.7709 3.58622L36.8439 3.89168L35.93 4.21924L35.263 4.46785L34.352 4.82136L33.455 5.19675L32.7819 5.48258L31.8901 5.88436L31.2228 6.20268L30.3373 6.63086L29.4681 7.08115L28.8003 7.43578L27.9395 7.91246L27.2814 8.29869L26.4302 8.80154L25.5971 9.3265L24.9438 9.74746L24.1224 10.2986L23.4826 10.7493L22.6741 11.3262L21.8854 11.9247L21.2551 12.4084L20.4813 13.0321L19.8681 13.5435L19.1106 14.1926L18.5159 14.7304L17.7757 15.4045L17.0576 16.0991L16.479 16.666L15.7801 17.3845L15.2231 17.9756L14.5443 18.7176L14.0101 19.3314L13.3525 20.0962L12.7194 20.8806L12.2071 21.5186L11.5969 22.3248L11.1098 22.9825L10.5235 23.8095L10.0628 24.4856L9.50156 25.3329L9.06819 26.0257L8.53218 26.8922L8.023 27.7764L7.61761 28.4854L7.13505 29.3873L6.75899 30.1097L6.30397 31.0283L5.95791 31.7624L5.53107 32.6966L5.21592 33.4408L4.81796 34.3899L4.44867 35.3537L4.1651 36.1049L3.82535 37.0815L3.57404 37.8388L3.26406 38.8271L3.04502 39.5888L2.76527 40.5872L2.51532 41.5984L2.32943 42.3593L2.11015 43.3785L1.9572 44.1397L1.7686 45.1659L1.64859 45.9255L1.49089 46.9576L1.36343 47.9994L1.27702 48.75L1.18047 49.7954L1.12723 50.5401L1.06136 51.5875L1.02571 52.6426L1.00541 53.3726L1 54.4277L1.01195 55.1476L1.03654 56.2011L1.09159 57.2603L1.13468 57.9597L1.21904 59.0152L1.40674 60.7505L1.54976 61.8043L1.65309 62.4634L1.82432 63.5098L2.02465 64.5583L2.15549 65.1882L2.3829 66.2271L2.63894 67.2666L2.79528 67.8644L3.07705 68.8925L3.38724 69.9196L3.56728 70.4822L3.90161 71.4958L4.2639 72.5072L4.46469 73.0321L4.84955 74.0279L5.26127 75.0203L5.69982 76.0086L5.91324 76.4799L6.37186 77.45L6.85645 78.4146L7.58761 79.7876L8.11549 80.7256L8.6682 81.6562L9.24527 82.5791L9.46817 82.934L10.0599 83.8341L10.6749 84.7252L11.3126 85.6064L11.5319 85.8996L12.1816 86.7565L12.853 87.6024L13.5456 88.4371L14.2591 89.2597L14.9928 90.0698L15.1782 90.2717L15.9191 91.0552L16.6789 91.8249L17.4572 92.5809L18.2535 93.3222L19.0675 94.0484L19.8983 94.759L20.7457 95.4536L20.8542 95.54L21.7017 96.206L22.5642 96.855L23.4411 97.4869L24.3317 98.1012L25.2357 98.6977L26.1521 99.2754L27.0804 99.8344L28.02 100.374L28.9702 100.894L29.9306 101.394L30.9002 101.874L31.8786 102.333L32.8649 102.772L33.8584 103.189L33.9879 103.242L35.0065 103.645L36.0309 104.026L37.061 104.384L38.0955 104.72L39.134 105.033L40.1758 105.322L41.22 105.589L41.4876 105.654L42.5517 105.901L43.617 106.125L44.6825 106.324L45.7477 106.5L46.8119 106.651L47.1755 106.701L48.255 106.83L49.3322 106.934L50.4058 107.014L50.8252 107.037L51.9112 107.093L52.9925 107.123L54.0684 107.129L54.5387 107.121L55.6236 107.101L56.7015 107.056L57.7715 106.985L58.2879 106.943L59.364 106.846L60.4304 106.724L61.4868 106.576L62.0441 106.498L63.1032 106.323L64.1507 106.122L64.7304 106.007L65.7781 105.778L66.8125 105.525L67.4117 105.372L68.4438 105.091L69.4614 104.785L70.0762 104.594L71.0889 104.26L72.0855 103.901L72.7125 103.672L73.7019 103.285L74.3289 103.021L75.3095 102.606L76.2719 102.167L76.9049 101.866L77.8563 101.4L78.7882 100.91L79.4237 100.571L80.3426 100.054L80.9713 99.6824L81.8752 99.1389L82.7578 98.5725L83.3834 98.165L84.2489 97.5728L84.8637 97.1338L85.7113 96.5164L86.5358 95.8773L87.142 95.4044L87.9465 94.7412L88.538 94.2388L89.3215 93.5523L89.897 93.0212L90.6583 92.3117L91.3945 91.5826L91.9544 91.022L92.6668 90.2715L93.2074 89.6849L93.895 88.9138L94.4145 88.3022L95.0769 87.5115L95.7119 86.703L96.21 86.067L96.8187 85.2404L97.2931 84.5824L97.8745 83.7391L98.3238 83.0605L98.8772 82.2012L99.3009 81.5035L99.8256 80.6293L100.322 79.7404L100.718 79.0262L101.186 78.1241L101.553 77.3942L101.991 76.4804L102.33 75.7364L102.738 74.8119L103.048 74.0552L103.426 73.1212L103.774 72.1756L104.053 71.4115L104.371 70.4581L104.618 69.6854L104.907 68.7258L105.122 67.9456L105.38 66.981L105.61 66.0071L105.792 65.227L105.991 64.2497L106.142 63.4667L106.311 62.4874L106.429 61.7027L106.569 60.723L106.681 59.7362L106.765 58.9593L106.848 57.9739L106.9 57.1992L106.954 56.2163L106.981 55.2281L107 54.4665L106.998 53.4827L106.986 52.7276L106.957 51.7492L106.901 50.7672L106.857 50.0304L106.775 49.0559L106.7 48.3294L106.593 47.3632L106.459 46.3952L106.354 45.6922L106.197 44.7341L106.014 43.7756L105.881 43.0988L105.675 42.1517L105.445 41.2049L105.285 40.557L105.033 39.6235L104.757 38.6911L104.573 38.0746L104.277 37.1571L103.957 36.2418L103.751 35.6593L103.413 34.7599L103.053 33.8638L102.826 33.3177L102.449 32.439L102.05 31.5641L101.391 30.2008L100.957 29.3494L100.502 28.5032L100.249 28.0514L99.7812 27.2255L99.2939 26.4054L98.7872 25.5919L98.0143 24.4057L97.4792 23.6207L96.9259 22.8433L96.3546 22.074L96.1108 21.7543L95.533 21.0076L94.9383 20.2694L94.327 19.5403L93.6996 18.8207L93.0562 18.111L92.8455 17.8808L92.1994 17.1948L91.5386 16.5192L90.8632 15.8541L90.1738 15.1999L89.4706 14.5572Z" fill="#0E0C15"/>
  <path d="M45.9713 1.62919L45.0299 1.79163L44.0975 1.97548L43.1753 2.18055L42.2632 2.40682L41.362 2.6543L40.4724 2.92276L39.5946 3.21242L38.7293 3.52284L37.877 3.85379L37.038 4.20572L36.2132 4.57795L35.4031 4.97049L34.6079 5.38333L33.8282 5.81625L33.0646 6.26902L32.3176 6.74141L31.5876 7.23321L30.8749 7.74418L30.1803 8.27411L29.504 8.82276L28.8468 9.3899L28.2088 9.97532L27.5907 10.5786L26.9929 11.1994L26.4156 11.8376L25.8591 12.493L25.3242 13.1648L24.8112 13.8529L24.3205 14.5572L23.8524 15.2768L23.4073 16.0118L22.9854 16.7617L22.587 17.5258L22.2127 18.3039L21.8626 19.0957L21.5371 19.9004L21.2366 20.7179L20.9614 21.5477L20.7114 22.3892L20.487 23.2419L20.2884 24.1053L20.1161 24.979L19.9697 25.8624L19.8501 26.7551L19.7569 27.6564L19.6906 28.566L19.6513 29.4828L19.6389 30.4068L19.6534 31.3374L19.6953 32.2736L19.7641 33.2153L19.8605 34.1614L19.9841 35.1118L20.135 36.0656L20.3132 37.0222L20.5185 37.9812L20.7509 38.9415L21.0106 39.903L21.2971 40.865L21.6104 41.8267L21.9506 42.7873L22.3177 43.7463L22.7109 44.7032L23.1302 45.6573L23.5756 46.6079L24.0466 47.5543L24.5429 48.4959L25.0647 49.4322L25.6116 50.3623L26.1828 51.2859L26.7784 52.2018L27.3978 53.11L28.0406 54.0095L28.7065 54.8999L29.3953 55.7802L30.1061 56.6503L30.8388 57.5092L31.593 58.3563L32.3679 59.191L33.1634 60.013L33.9784 60.8216L34.8127 61.6161L35.6657 62.3962L36.5369 63.161L37.4258 63.9102L38.3315 64.6429L39.2538 65.3592L40.1918 66.0581L41.1447 66.7394L42.1121 67.4026L43.0932 68.0472L44.0874 68.6725L45.094 69.2782L46.1125 69.8641L47.1419 70.4295L48.1815 70.9743L49.2307 71.4979L50.289 72L51.3552 72.4806L52.4288 72.9388L53.5089 73.3746L54.5949 73.7877L55.6864 74.1777L56.7818 74.5445L57.8812 74.8879L58.9832 75.2078L60.0873 75.5035L61.1929 75.7754L62.299 76.0231L63.4049 76.2462L64.5098 76.445L65.613 76.6193L66.7139 76.7689L67.8117 76.8941L68.9054 76.9943L69.9945 77.0699L71.0783 77.1206L72.1559 77.1463L73.2266 77.1477L74.2901 77.1242L75.3452 77.0762L76.3913 77.0037L77.4279 76.907L78.4544 76.7858L79.4697 76.6405L80.4736 76.4714L81.4651 76.2782L82.444 76.0614L83.4095 75.8214L84.3611 75.5581L85.2978 75.2719L86.2196 74.963L87.1253 74.6316L88.0149 74.2781L88.8877 73.9027L89.7431 73.5057L90.581 73.0876L91.4004 72.6486L92.201 72.1891L92.9824 71.7093L93.7441 71.2098L94.4856 70.6907L95.2068 70.1526L95.9071 69.5959L96.5861 69.0208L97.2437 68.4282L97.8792 67.8182L98.4924 67.1913L99.0833 66.5476L99.6511 65.888L100.196 65.2128L100.717 64.5225L101.215 63.8175L101.689 63.0985L102.139 62.3658L102.564 61.6199L102.966 60.8613L103.342 60.0904L103.694 59.3081L104.021 58.5144L104.323 57.7102L104.6 56.8958L104.852 56.0717L105.079 55.2385L105.281 54.3968L105.457 53.547L105.608 52.6895L105.734 51.8251L105.834 50.9543L105.91 50.0774L105.96 49.1951L105.985 48.3078L105.984 47.4163L105.959 46.5206L105.909 45.6216L105.834 44.7199L105.734 43.816L105.61 42.91L105.461 42.0029L105.288 41.0951L105.091 40.1868L104.87 39.2788L104.625 38.3717L104.357 37.4655L104.066 36.5613L103.751 35.6593" fill="#0E0C15"/>
  <path d="M27.9399 7.91249L27.0961 8.41106L26.2705 8.93128L25.4631 9.47293L24.6746 10.0356L23.9056 10.6192L23.1566 11.2238L22.4283 11.8485L21.7209 12.4934L21.0349 13.1583L20.3709 13.8425L19.7293 14.5459L19.1105 15.2683L18.5152 16.0089L17.9437 16.7676L17.3964 17.5441L16.874 18.3377L16.3763 19.1485L15.9044 19.9755L15.4581 20.8186L15.0381 21.6772L14.6446 22.5509L14.278 23.4393L13.939 24.3417L13.6274 25.2576L13.3436 26.1868L13.088 27.1285L12.8609 28.0821L12.6621 29.0472L12.4925 30.0231L12.3517 31.0094L12.2405 32.0054L12.1588 33.0104L12.1067 34.024L12.0841 35.0455L12.0916 36.0742L12.129 37.1095L12.1965 38.1506L12.2942 39.1971L12.4218 40.2484L12.58 41.3033L12.7681 42.3618L12.9863 43.4226L13.2347 44.4853L13.5128 45.5495L13.821 46.6138L14.1589 47.678L14.5266 48.7412L14.9239 49.8028L15.3503 50.862L15.806 51.9182L16.2904 52.9704L16.8034 54.0183L17.3446 55.0608L17.9137 56.0972L18.5109 57.127L19.1353 58.1492L19.7869 59.1635L20.4648 60.1687L21.1689 61.1645L21.8987 62.1501L22.6537 63.1247L23.4338 64.0875L24.2381 65.0382L25.0662 65.9755L25.9176 66.8994L26.7916 67.8087L27.6877 68.7032L28.6054 69.5821L29.5438 70.4448L30.5026 71.2903L31.481 72.1185L32.4784 72.9286L33.494 73.72L34.5273 74.4922L35.5772 75.2446L36.6433 75.9769L37.7248 76.6882L38.821 77.378L39.9309 78.046L41.0542 78.6919L42.1896 79.3148L43.3363 79.9146L44.4941 80.491L45.6615 81.0435L46.838 81.5714L48.0226 82.0747L49.2149 82.553L50.4135 83.0057L51.6179 83.4328L52.8273 83.8341L54.0406 84.2093L55.2572 84.5581L56.4759 84.88L57.6963 85.1753L58.9173 85.4435L60.138 85.6847L61.3578 85.8985L62.5755 86.0849L63.7906 86.2441L65.002 86.3759L66.2092 86.4799L67.4112 86.5566L68.607 86.6056L69.7959 86.627L70.9774 86.6209L72.1505 86.5875L73.3143 86.5268L74.4682 86.4391L75.6115 86.3242L76.7433 86.1823L77.863 86.0138L78.9697 85.8185L80.063 85.5969L81.1418 85.3492L82.2057 85.0756L83.2543 84.7764L84.2864 84.452L85.3015 84.1023L86.2991 83.7279L87.2789 83.329L88.2397 82.906L89.1815 82.4593L90.1033 81.9892L91.005 81.4963L91.886 80.9808L92.7453 80.443L93.5831 79.8835L94.3984 79.3026L95.1912 78.7007L95.9607 78.0785L96.707 77.4362L97.4291 76.7748L98.1273 76.0942L98.8007 75.3951L99.4491 74.6781L100.072 73.9433L100.67 73.1919L101.242 72.424L101.787 71.64L102.307 70.8407L102.8 70.0268L103.266 69.1984L103.706 68.3565L104.118 67.5012L104.503 66.6334L104.861 65.7535L105.191 64.8622L105.494 63.9603L105.77 63.0478L106.017 62.1255L106.237 61.1943L106.429 60.2542L106.593 59.3063L106.73 58.3509L106.839 57.3885L106.921 56.42L106.974 55.4459L107 54.4666" fill="#0E0C15"/>
  <path d="M14.5443 18.7176L13.8895 19.4797L13.259 20.2609L12.6535 21.0613L12.0733 21.8805L11.5188 22.7176L10.9904 23.5729L10.4887 24.4452L10.0141 25.3345L9.56669 26.2403L9.14708 27.1619L8.75568 28.099L8.39315 29.051L8.05926 30.0172L7.75449 30.9974L7.47948 31.9907L7.23404 32.9967L7.01859 34.0148L6.83338 35.0444L6.67885 36.0848L6.555 37.1354L6.46227 38.1957L6.40068 39.2651L6.37023 40.3427L6.37114 41.4281L6.40362 42.5202L6.46769 43.6186L6.56334 44.7229L6.69102 45.8317L6.85031 46.9448L7.04138 48.0615L7.26426 49.1806L7.51873 50.3019L7.80457 51.4244L8.1222 52.5474L8.47121 53.6702L8.85155 54.7919L9.26303 55.9117L9.70543 57.0291L10.1785 58.1433L10.6818 59.2533L11.2156 60.3584L11.7791 61.458L12.3722 62.5512L12.9946 63.6372L13.6461 64.7154L14.3261 65.7849L15.0342 66.845L15.7699 67.8949L16.5329 68.934L17.3224 69.9614L18.1384 70.9763L18.9801 71.9782L19.8471 72.9661L20.7386 73.9395L21.6541 74.8978L22.593 75.8399L23.5547 76.7658L24.5386 77.674L25.544 78.5644L26.57 79.4361L27.6164 80.2887L28.6821 81.1216L29.7663 81.9337L30.8683 82.7251L31.9875 83.4948L33.1231 84.2424L34.2741 84.9675L35.44 85.6691L36.6196 86.3473L37.8124 87.001L39.0173 87.6304L40.2337 88.2348L41.4605 88.8137L42.6969 89.3666L43.942 89.8934L45.1952 90.3935L46.4554 90.8668L47.7214 91.3128L48.9929 91.7313L50.2686 92.122L51.5477 92.4848L52.8293 92.8196L54.1125 93.1257L55.3964 93.4032L56.6802 93.6518L57.9628 93.8718L59.2437 94.0626L60.5215 94.2246L61.7956 94.3575L63.0653 94.461L64.3293 94.5357L65.587 94.581L66.8377 94.5973L68.0803 94.5844L69.314 94.5427L70.5381 94.4721L71.7518 94.3728L72.954 94.2451L74.1445 94.0888L75.3219 93.904L76.4859 93.6915L77.6354 93.451L78.7701 93.183L79.8888 92.8877L80.9913 92.5653L82.0766 92.2166L83.1442 91.8412L84.1932 91.4396L85.223 91.0123L86.2335 90.5598L87.2236 90.0822L88.1928 89.5803L89.1407 89.0542L90.0666 88.5042L90.9701 87.9309L91.8508 87.3349L92.7078 86.7166L93.541 86.0763L94.3499 85.4144L95.1341 84.732L95.8935 84.029L96.6271 83.3064L97.3348 82.5642L98.0163 81.8033L98.6712 81.0241L99.2993 80.2271L99.9003 79.4131L100.474 78.5827L101.02 77.7361L101.538 76.8741L102.029 75.9974L102.491 75.1063L102.924 74.2016L103.329 73.2837L103.705 72.3536L104.053 71.4115" fill="#0E0C15"/>
  <path d="M5.53084 32.6966L5.13244 33.6466L4.76291 34.6112L4.42226 35.5905L4.11118 36.5836L3.82964 37.5902L3.57809 38.6092L3.35655 39.6406L3.1657 40.6833L3.00553 41.7371L2.87649 42.801L2.77857 43.8748L2.71203 44.9575L2.67683 46.0482L2.67346 47.1469L2.70166 48.2523L2.76167 49.364L2.8537 50.4814L2.97779 51.6035L3.13389 52.7299L3.32205 53.8595L3.54222 54.9917L3.79421 56.126L4.07801 57.2612L4.39362 58.3969L4.74104 59.5323L5.11981 60.6666L5.53016 61.7988L5.97188 62.9284L6.44428 64.0546L6.94735 65.1764L7.48112 66.2934L8.04488 67.4047L8.63864 68.5092L9.26196 69.6065L9.91461 70.6956L10.5959 71.776L11.3059 72.8467L12.0433 73.907L12.8085 74.956L13.6008 75.9933L14.4195 77.0179L15.2644 78.0291L16.1347 79.0262L17.0299 80.0084L17.9492 80.9751L18.8924 81.9258L19.8586 82.8593L20.8472 83.7754L21.8574 84.6731L22.8888 85.552L23.9406 86.4113L25.0119 87.2503L26.1022 88.0687L27.2103 88.8658L28.336 89.6409L29.4782 90.3935L30.636 91.1233L31.8089 91.8292L32.9959 92.5111L34.1961 93.1688L35.4089 93.8013L36.633 94.4086L37.8679 94.99L39.1125 95.5452L40.3661 96.0737L41.6279 96.5752L42.8966 97.0494L44.1719 97.4961L45.4522 97.9148L46.7372 98.3056L48.0256 98.6681L49.3166 99.0018L50.6093 99.3068L51.9029 99.5827L53.1964 99.8295L54.4889 100.047L55.7797 100.235L57.0674 100.394L58.3517 100.524L59.6313 100.624L60.9057 100.694L62.1738 100.735L63.4344 100.746L64.6873 100.728L65.9315 100.681L67.166 100.605L68.3898 100.499L69.6026 100.365L70.8032 100.202L71.991 100.011L73.1652 99.7907L74.325 99.5425L75.4699 99.2666L76.599 98.9632L77.7114 98.6325L78.8069 98.2747L79.8844 97.8902L80.9433 97.4794L81.9831 97.0429L83.0032 96.5804L84.003 96.0929L84.9819 95.5808L85.9391 95.0444L86.8746 94.4838L87.7874 93.8999L88.6771 93.2928L89.5432 92.6632L90.3854 92.0117L91.2031 91.3385L91.9961 90.6444L92.7636 89.9297L93.5058 89.1949L94.2216 88.4407L94.9112 87.6676L95.5741 86.8762L96.2098 86.067" fill="#0E0C15"/>
  <path d="M83.3834 98.165L82.4952 98.7349L81.5856 99.2817L80.6548 99.8053L79.7035 100.305L78.7321 100.782L77.741 101.233L76.731 101.66L75.7028 102.062L74.6567 102.438L73.5935 102.788L72.5138 103.112L71.4185 103.41L70.3079 103.68L69.1831 103.924L68.0443 104.141L66.8928 104.33L65.729 104.491L64.5536 104.625L63.3675 104.73L62.1716 104.807L60.9662 104.856L59.7528 104.877L58.5318 104.869L57.3039 104.833L56.0701 104.768L54.8314 104.674L53.5884 104.551L52.3419 104.4L51.093 104.221L49.8426 104.013L48.5912 103.777L47.3398 103.513L46.0896 103.22L44.8409 102.9L43.5949 102.551L42.3528 102.176L41.1147 101.773L39.8821 101.343L38.6557 100.886L37.4362 100.402L36.2247 99.8929L35.0219 99.3573L33.8287 98.7965L32.6459 98.2106L31.4744 97.5999L30.3148 96.9651L29.1683 96.3066L28.0354 95.6246L26.9171 94.9196L25.8142 94.1923L24.7273 93.4431L23.657 92.6724L22.6044 91.8813L21.5701 91.0698L20.5549 90.2387L19.5591 89.3885L18.5841 88.5199L17.6298 87.6336L16.6974 86.7298L15.7874 85.8098L14.9001 84.8738L14.0363 83.9227L13.1966 82.9569L12.3816 81.9777L11.5918 80.985L10.8277 79.98L10.0895 78.9635L9.37821 77.9356L8.69376 76.8979L8.03659 75.8507L7.40741 74.7945L6.80666 73.7303L6.23432 72.659L5.69109 71.5811L5.17672 70.4973L4.69215 69.4086L4.23712 68.3156L3.81187 67.2192L3.41686 66.1199L3.05229 65.0185L2.7182 63.916L2.41476 62.8129L2.14224 61.7099L1.90041 60.6079L1.68925 59.5075L1.50923 58.4095L1.36011 57.3144L1.2419 56.2235L1.15481 55.1368L1.09841 54.0553L1.07314 52.9799L1.07833 51.911L1.1142 50.8491L1.18047 49.7954" fill="#0E0C15"/>
  <path d="M3.38724 69.9196L3.72587 70.9454L4.09246 71.9691L4.48703 72.9899L4.90913 74.0074L5.35874 75.0205L5.83565 76.0287L6.33963 77.0315L6.87023 78.0279L7.42722 79.0174L8.01061 79.9994L8.61949 80.9728L9.25386 81.9373L9.91327 82.8922L10.5971 83.8368L11.3052 84.7703L12.037 85.6921L12.7921 86.6015L13.5702 87.498L14.3704 88.381L15.1922 89.2495L16.0355 90.1034L16.8991 90.9419L17.7829 91.7642L18.6862 92.5698L19.6085 93.3583L20.549 94.1291L21.5071 94.8815L22.4821 95.6149L23.4734 96.3291L24.4802 97.0237L25.5019 97.6976L26.5381 98.3509L27.5875 98.9828L28.6497 99.5928L29.7242 100.181L30.8095 100.746L31.9057 101.289L33.0113 101.808L34.126 102.304L35.249 102.775L36.3794 103.223L37.5162 103.645L38.6591 104.043L39.8069 104.416L40.959 104.763L42.1145 105.085L43.2727 105.381L44.4325 105.651L45.5937 105.895L46.7548 106.113L47.9155 106.304L49.0748 106.47L50.2321 106.608L51.3863 106.721L52.5368 106.806L53.6828 106.865L54.8237 106.898L55.9584 106.903L57.0862 106.883L58.2067 106.836L59.3189 106.763L60.422 106.663L61.5155 106.538L62.5986 106.386L63.6704 106.209L64.7304 106.007" fill="#0E0C15"/>
  <path d="M45.9713 1.62919L46.9215 1.48819L47.8798 1.3684L48.4689 1.30274L49.42 1.20597L50.3783 1.13017L51.3432 1.07535L51.8914 1.04557L52.8465 1.01241L53.8071 1L54.3264 1.00315L55.2755 1.01128L56.2289 1.03948L57.1859 1.08821L58.5992 1.1895L59.5451 1.27658L60.4933 1.38351L61.4431 1.51007L61.8422 1.56895L62.7752 1.7122L63.7092 1.8744L64.6432 2.05556L65.5767 2.25521L66.5095 2.47358L66.8138 2.54713L67.727 2.7795L68.6384 3.02968L69.5476 3.29792L70.454 3.58396L71.3571 3.88717L72.2565 4.20797L73.1517 4.54568L73.3193 4.60975L74.1917 4.95739L75.0589 5.32128L75.9206 5.70163L76.7766 6.09777L77.6259 6.50994L78.4688 6.93744L79.3039 7.38028L80.1316 7.83824L80.951 8.31109L81.762 8.79861L82.5638 9.30033L83.3561 9.81626L84.1384 10.3462L84.9106 10.8894L85.6722 11.4457L86.4226 12.0151L87.1614 12.5972L87.8883 13.1916L88.0245 13.3067L88.7541 13.9259L89.4706 14.5572L90.1738 15.1999L90.8632 15.8541L91.5386 16.5192L92.1994 17.1948L92.8455 17.8808L93.0562 18.111L93.6996 18.8207L94.327 19.5403L94.9383 20.2694L95.533 21.0076L96.1108 21.7543L96.3546 22.074L96.9259 22.8433L97.4792 23.6207L98.0143 24.4057L98.7872 25.5919L99.2939 26.4054L99.7812 27.2255L100.249 28.0514L100.502 28.5032L100.957 29.3494L101.391 30.2008L102.05 31.5641L102.449 32.439L102.826 33.3177L103.053 33.8638L103.413 34.7599L103.751 35.6593M45.9713 1.62919L45.3604 1.73047L44.405 1.89516L43.4591 2.08173L42.8294 2.21912L41.8804 2.43005L40.9417 2.66286L40.2962 2.83702L39.3566 3.0951L38.4287 3.37484L37.7709 3.58622L36.8439 3.89168L35.93 4.21924L35.263 4.46785L34.352 4.82136L33.455 5.19675L32.7819 5.48258L31.8901 5.88436L31.2228 6.20268L30.3373 6.63086L29.4681 7.08115L28.8003 7.43578L27.9395 7.91246L27.2814 8.29868L26.4302 8.80154L25.5971 9.3265L24.9438 9.74746L24.1224 10.2986L23.4826 10.7493L22.6741 11.3262L21.8854 11.9247L21.2551 12.4084L20.4813 13.0321L19.8681 13.5435L19.1106 14.1926L18.5159 14.7304L17.7757 15.4045L17.0576 16.0991L16.479 16.666L15.7801 17.3845L15.2231 17.9756L14.5443 18.7176M45.9713 1.62919L45.0299 1.79163L44.0975 1.97548L43.1753 2.18055L42.2632 2.40682L41.362 2.6543L40.4724 2.92276L39.5946 3.21242L38.7293 3.52284L37.877 3.85379L37.038 4.20572L36.2132 4.57795L35.4031 4.97049L34.6079 5.38333L33.8282 5.81625L33.0646 6.26902L32.3176 6.74141L31.5876 7.23321L30.8749 7.74418L30.1803 8.27411L29.504 8.82276L28.8468 9.3899L28.2088 9.97532L27.5907 10.5786L26.9929 11.1994L26.4156 11.8376L25.8591 12.493L25.3242 13.1648L24.8112 13.8529L24.3205 14.5572L23.8524 15.2768L23.4073 16.0118L22.9854 16.7617L22.587 17.5258L22.2127 18.3039L21.8626 19.0957L21.5371 19.9004L21.2366 20.7179L20.9614 21.5477L20.7114 22.3892L20.487 23.2419L20.2884 24.1053L20.1161 24.979L19.9697 25.8624L19.8501 26.7551L19.7569 27.6564L19.6906 28.566L19.6513 29.4828L19.6389 30.4068L19.6534 31.3374L19.6953 32.2736L19.7641 33.2153L19.8605 34.1614L19.9841 35.1118L20.135 36.0656L20.3132 37.0222L20.5185 37.9812L20.7509 38.9415L21.0106 39.903L21.2971 40.865L21.6104 41.8267L21.9506 42.7873L22.3177 43.7463L22.7109 44.7032L23.1302 45.6573L23.5756 46.6079L24.0466 47.5543L24.5429 48.4959L25.0647 49.4322L25.6116 50.3623L26.1828 51.2859L26.7784 52.2018L27.3978 53.11L28.0406 54.0095L28.7065 54.8999L29.3953 55.7802L30.1061 56.6503L30.8388 57.5092L31.593 58.3563L32.3679 59.191L33.1634 60.013L33.9784 60.8216L34.8127 61.6161L35.6657 62.3962L36.5369 63.161L37.4258 63.9102L38.3315 64.6429L39.2538 65.3592L40.1918 66.0581L41.1447 66.7394L42.1121 67.4026L43.0932 68.0472L44.0874 68.6725L45.094 69.2782L46.1125 69.8641L47.1419 70.4295L48.1815 70.9743L49.2307 71.4979L50.289 72L51.3552 72.4806L52.4288 72.9387L53.5089 73.3746L54.5949 73.7877L55.6864 74.1777L56.7818 74.5445L57.8812 74.8879L58.9832 75.2078L60.0873 75.5035L61.1929 75.7754L62.299 76.0231L63.4049 76.2462L64.5098 76.445L65.613 76.6193L66.7139 76.7689L67.8117 76.8941L68.9054 76.9943L69.9945 77.0699L71.0783 77.1206L72.1559 77.1463L73.2266 77.1477L74.2901 77.1242L75.3452 77.0762L76.3913 77.0037L77.4279 76.907L78.4544 76.7858L79.4697 76.6405L80.4736 76.4713L81.4651 76.2782L82.444 76.0614L83.4095 75.8214L84.3611 75.5581L85.2978 75.2719L86.2196 74.963L87.1253 74.6316L88.0149 74.2781L88.8877 73.9027L89.7431 73.5057L90.581 73.0876L91.4004 72.6486L92.201 72.1891L92.9824 71.7093L93.7441 71.2098L94.4856 70.6907L95.2068 70.1526L95.9071 69.5959L96.5861 69.0208L97.2437 68.4282L97.8792 67.8182L98.4924 67.1913L99.0832 66.5476L99.6511 65.888L100.196 65.2128L100.717 64.5225L101.215 63.8175L101.689 63.0985L102.139 62.3658L102.564 61.62L102.966 60.8613L103.342 60.0904L103.694 59.3081L104.021 58.5144L104.323 57.7102L104.6 56.8958L104.852 56.0717L105.079 55.2385L105.281 54.3968L105.457 53.547L105.608 52.6895L105.734 51.8251L105.834 50.9543L105.91 50.0774L105.96 49.1951L105.985 48.3078L105.984 47.4163L105.959 46.5206L105.909 45.6216L105.834 44.7199L105.734 43.816L105.61 42.91L105.461 42.0029L105.288 41.0951L105.091 40.1868L104.87 39.2788L104.625 38.3717L104.357 37.4655L104.066 36.5613L103.751 35.6593M14.5443 18.7176L14.0101 19.3314L13.3525 20.0962L12.7194 20.8806L12.2071 21.5186L11.5969 22.3248L11.1098 22.9825L10.5235 23.8095L10.0628 24.4856L9.50156 25.3329L9.06819 26.0257L8.53218 26.8922L8.023 27.7764L7.61761 28.4854L7.13505 29.3873L6.75899 30.1097L6.30397 31.0283L5.95791 31.7624L5.53107 32.6966L5.21592 33.4408L4.81796 34.3899L4.44867 35.3537L4.1651 36.1049L3.82535 37.0815L3.57404 37.8388L3.26406 38.8271L3.04502 39.5888L2.76527 40.5872L2.51532 41.5984L2.32943 42.3593L2.11015 43.3785L1.9572 44.1397L1.7686 45.1659L1.64859 45.9255L1.49089 46.9576L1.36343 47.9994L1.27702 48.75L1.18047 49.7954M14.5443 18.7176L13.8895 19.4797L13.259 20.2609L12.6535 21.0613L12.0733 21.8805L11.5188 22.7176L10.9904 23.5729L10.4887 24.4452L10.0141 25.3345L9.56669 26.2403L9.14708 27.1619L8.75568 28.099L8.39315 29.051L8.05926 30.0172L7.75449 30.9974L7.47948 31.9907L7.23404 32.9967L7.01859 34.0148L6.83338 35.0444L6.67885 36.0848L6.555 37.1354L6.46227 38.1957L6.40068 39.2651L6.37023 40.3427L6.37114 41.4281L6.40362 42.5202L6.46769 43.6186L6.56334 44.7229L6.69102 45.8317L6.85031 46.9448L7.04138 48.0615L7.26426 49.1806L7.51873 50.3019L7.80457 51.4244L8.1222 52.5474L8.47121 53.6702L8.85155 54.7919L9.26303 55.9117L9.70543 57.0291L10.1785 58.1433L10.6818 59.2533L11.2156 60.3584L11.7791 61.458L12.3722 62.5512L12.9946 63.6372L13.6461 64.7154L14.3261 65.7849L15.0342 66.845L15.7699 67.8949L16.5329 68.934L17.3224 69.9614L18.1384 70.9763L18.9801 71.9782L19.8471 72.9661L20.7386 73.9395L21.6541 74.8978L22.593 75.8399L23.5547 76.7658L24.5386 77.674L25.544 78.5644L26.57 79.4361L27.6164 80.2887L28.6821 81.1216L29.7663 81.9337L30.8683 82.7251L31.9875 83.4948L33.1231 84.2424L34.2741 84.9675L35.44 85.6691L36.6196 86.3473L37.8124 87.001L39.0173 87.6304L40.2337 88.2348L41.4605 88.8137L42.6969 89.3666L43.942 89.8934L45.1952 90.3935L46.4554 90.8668L47.7214 91.3128L48.9929 91.7313L50.2686 92.122L51.5477 92.4848L52.8293 92.8196L54.1125 93.1257L55.3964 93.4032L56.6802 93.6518L57.9628 93.8718L59.2437 94.0626L60.5215 94.2246L61.7956 94.3575L63.0653 94.461L64.3293 94.5357L65.587 94.581L66.8377 94.5973L68.0803 94.5844L69.314 94.5427L70.5381 94.4721L71.7518 94.3728L72.954 94.2451L74.1445 94.0888L75.3219 93.904L76.4859 93.6915L77.6354 93.451L78.7701 93.183L79.8888 92.8877L80.9913 92.5653L82.0766 92.2166L83.1442 91.8412L84.1932 91.4396L85.223 91.0123L86.2335 90.5598L87.2236 90.0822L88.1928 89.5803L89.1407 89.0542L90.0666 88.5042L90.9701 87.9309L91.8508 87.3349L92.7078 86.7166L93.541 86.0763L94.3499 85.4144L95.1341 84.732L95.8935 84.029L96.6271 83.3064L97.3348 82.5642L98.0163 81.8033L98.6712 81.0241L99.2993 80.2271L99.9003 79.4131L100.474 78.5827L101.02 77.7361L101.538 76.8741L102.029 75.9974L102.491 75.1063L102.924 74.2016L103.329 73.2837L103.705 72.3536L104.053 71.4115M1.18047 49.7954L1.12723 50.5401L1.06136 51.5875L1.02571 52.6426L1.00541 53.3726L1 54.4277L1.01195 55.1476L1.03654 56.2011L1.09159 57.2603L1.13468 57.9597L1.21904 59.0152L1.40674 60.7505L1.54976 61.8043L1.65309 62.4634L1.82432 63.5098L2.02465 64.5583L2.15549 65.1882L2.3829 66.227L2.63894 67.2666L2.79528 67.8644L3.07705 68.8925L3.38724 69.9196M1.18047 49.7954L1.1142 50.8491L1.07833 51.911L1.07314 52.9799L1.09841 54.0553L1.15481 55.1368L1.2419 56.2235L1.36011 57.3144L1.50923 58.4095L1.68925 59.5075L1.90041 60.6079L2.14224 61.7099L2.41476 62.8129L2.7182 63.916L3.05229 65.0185L3.41686 66.1199L3.81187 67.2192L4.23712 68.3156L4.69215 69.4086L5.17672 70.4973L5.69109 71.5811L6.23432 72.659L6.80666 73.7303L7.40741 74.7945L8.03659 75.8507L8.69376 76.8979L9.37821 77.9356L10.0895 78.9635L10.8277 79.98L11.5918 80.985L12.3816 81.9777L13.1966 82.9569L14.0363 83.9227L14.9001 84.8738L15.7874 85.8098L16.6974 86.7298L17.6298 87.6336L18.5841 88.5199L19.5591 89.3885L20.5549 90.2387L21.5701 91.0698L22.6044 91.8813L23.657 92.6725L24.7273 93.4431L25.8142 94.1923L26.9171 94.9196L28.0354 95.6246L29.1683 96.3066L30.3148 96.9651L31.4744 97.5999L32.6459 98.2106L33.8287 98.7965L35.0219 99.3573L36.2247 99.8928L37.4362 100.402L38.6557 100.886L39.8821 101.343L41.1147 101.773L42.3528 102.176L43.5949 102.551L44.8409 102.9L46.0896 103.22L47.3398 103.513L48.5912 103.777L49.8426 104.013L51.093 104.221L52.3419 104.4L53.5884 104.551L54.8314 104.674L56.0701 104.768L57.3039 104.833L58.5318 104.869L59.7527 104.877L60.9662 104.856L62.1716 104.807L63.3675 104.73L64.5536 104.625L65.729 104.491L66.8928 104.33L68.0443 104.141L69.1831 103.924L70.3079 103.68L71.4185 103.41L72.5138 103.112L73.5935 102.788L74.6567 102.438L75.7028 102.062L76.731 101.66L77.741 101.233L78.7321 100.782L79.7035 100.305L80.6548 99.8053L81.5856 99.2817L82.4952 98.7349L83.3834 98.165M3.38724 69.9196L3.56728 70.4822L3.90161 71.4958L4.2639 72.5072L4.46469 73.0321L4.84955 74.0279L5.26127 75.0203L5.69982 76.0086L5.91324 76.4799L6.37186 77.45L6.85645 78.4146L7.58761 79.7876L8.11549 80.7256L8.6682 81.6562L9.24527 82.5791L9.46817 82.934L10.0599 83.8341L10.6749 84.7252L11.3126 85.6064L11.5319 85.8996L12.1816 86.7565L12.853 87.6024L13.5456 88.4371L14.2591 89.2597L14.9928 90.0698L15.1782 90.2717L15.9191 91.0552L16.6789 91.8249L17.4572 92.5809L18.2535 93.3222L19.0675 94.0484L19.8983 94.759L20.7457 95.4536L20.8542 95.54L21.7017 96.206L22.5642 96.855L23.4411 97.4869L24.3317 98.1012L25.2357 98.6977L26.1521 99.2754L27.0804 99.8344L28.02 100.374L28.9702 100.894L29.9306 101.394L30.9002 101.874L31.8786 102.333L32.8649 102.772L33.8584 103.189L33.9879 103.242L35.0065 103.645L36.0309 104.026L37.061 104.384L38.0955 104.72L39.134 105.033L40.1758 105.322L41.22 105.589L41.4876 105.654L42.5517 105.901L43.617 106.125L44.6825 106.324L45.7477 106.5L46.8119 106.651L47.1755 106.701L48.255 106.83L49.3322 106.934L50.4058 107.014L50.8252 107.037L51.9112 107.093L52.9925 107.123L54.0684 107.129L54.5387 107.121L55.6236 107.101L56.7015 107.056L57.7715 106.985L58.2879 106.943L59.364 106.846L60.4304 106.724L61.4868 106.576L62.0441 106.498L63.1032 106.323L64.1507 106.122L64.7304 106.007M3.38724 69.9196L3.72587 70.9454L4.09246 71.9691L4.48703 72.9899L4.90913 74.0074L5.35874 75.0205L5.83565 76.0287L6.33963 77.0315L6.87023 78.0279L7.42722 79.0174L8.01061 79.9994L8.61949 80.9729L9.25386 81.9373L9.91327 82.8922L10.5971 83.8368L11.3052 84.7703L12.037 85.6921L12.7921 86.6015L13.5702 87.498L14.3704 88.381L15.1922 89.2495L16.0355 90.1034L16.8991 90.9419L17.7829 91.7642L18.6862 92.5698L19.6085 93.3583L20.549 94.1291L21.5071 94.8815L22.4821 95.6149L23.4734 96.3291L24.4802 97.0237L25.5019 97.6976L26.5381 98.3509L27.5875 98.9828L28.6497 99.5928L29.7242 100.181L30.8095 100.746L31.9057 101.289L33.0113 101.808L34.126 102.304L35.249 102.775L36.3794 103.223L37.5162 103.645L38.6591 104.043L39.8069 104.416L40.959 104.763L42.1145 105.085L43.2727 105.381L44.4325 105.651L45.5937 105.895L46.7548 106.113L47.9155 106.304L49.0748 106.47L50.2321 106.608L51.3863 106.721L52.5368 106.806L53.6828 106.865L54.8237 106.898L55.9584 106.903L57.0862 106.883L58.2067 106.836L59.3189 106.763L60.422 106.663L61.5155 106.538L62.5986 106.386L63.6704 106.209L64.7304 106.007M64.7304 106.007L65.7781 105.778L66.8125 105.525L67.4117 105.372L68.4438 105.091L69.4614 104.785L70.0762 104.594L71.0889 104.26L72.0855 103.901L72.7125 103.672L73.7019 103.285L74.3289 103.021L75.3095 102.606L76.2719 102.167L76.9049 101.866L77.8563 101.4L78.7882 100.91L79.4237 100.571L80.3426 100.054L80.9713 99.6824L81.8752 99.1389L82.7578 98.5725L83.3834 98.165M83.3834 98.165L84.2489 97.5728L84.8637 97.1338L85.7113 96.5164L86.5358 95.8773L87.142 95.4044L87.9465 94.7412L88.538 94.2388L89.3215 93.5523L89.897 93.0212L90.6583 92.3117L91.3945 91.5826L91.9544 91.022L92.6668 90.2715L93.2074 89.6849L93.895 88.9138L94.4145 88.3022L95.0769 87.5115L95.7119 86.703L96.21 86.067L96.8187 85.2404L97.2931 84.5824L97.8745 83.7391L98.3238 83.0605L98.8772 82.2012L99.3009 81.5035L99.8256 80.6293L100.322 79.7404L100.718 79.0262L101.186 78.1241L101.553 77.3942L101.991 76.4804L102.33 75.7364L102.738 74.8119L103.048 74.0552L103.426 73.1212L103.774 72.1756L104.053 71.4115M104.053 71.4115L104.371 70.4581L104.618 69.6854L104.907 68.7258L105.122 67.9456L105.38 66.981L105.61 66.0071L105.792 65.227L105.991 64.2497L106.142 63.4667L106.311 62.4874L106.429 61.7027L106.569 60.723L106.681 59.7362L106.765 58.9593L106.848 57.9739L106.9 57.1992L106.954 56.2163L106.981 55.2281L107 54.4665L106.998 53.4827L106.986 52.7277L106.957 51.7492L106.901 50.7672L106.857 50.0304L106.775 49.0559L106.7 48.3294L106.593 47.3632L106.459 46.3952L106.354 45.6922L106.197 44.7341L106.014 43.7756L105.881 43.0988L105.675 42.1517L105.445 41.2049L105.285 40.557L105.033 39.6235L104.757 38.6911L104.573 38.0746L104.277 37.1571L103.957 36.2418L103.751 35.6593M27.9399 7.91249L27.0961 8.41106L26.2705 8.93128L25.4631 9.47293L24.6746 10.0356L23.9056 10.6192L23.1566 11.2238L22.4283 11.8485L21.7209 12.4934L21.0349 13.1583L20.3709 13.8425L19.7293 14.5459L19.1105 15.2683L18.5152 16.0089L17.9437 16.7676L17.3964 17.5441L16.874 18.3377L16.3763 19.1485L15.9044 19.9755L15.4581 20.8186L15.0381 21.6772L14.6446 22.5509L14.278 23.4393L13.939 24.3417L13.6274 25.2576L13.3436 26.1868L13.088 27.1285L12.8609 28.0821L12.6621 29.0472L12.4925 30.0231L12.3517 31.0094L12.2405 32.0054L12.1588 33.0104L12.1067 34.024L12.0841 35.0455L12.0916 36.0742L12.129 37.1095L12.1965 38.1506L12.2942 39.1971L12.4218 40.2484L12.58 41.3033L12.7681 42.3618L12.9863 43.4225L13.2347 44.4853L13.5128 45.5495L13.821 46.6138L14.1589 47.678L14.5266 48.7412L14.9239 49.8028L15.3503 50.862L15.806 51.9182L16.2904 52.9704L16.8034 54.0183L17.3446 55.0608L17.9137 56.0972L18.5109 57.127L19.1353 58.1492L19.7869 59.1635L20.4648 60.1687L21.1689 61.1645L21.8987 62.1501L22.6537 63.1247L23.4338 64.0875L24.2381 65.0382L25.0662 65.9755L25.9176 66.8994L26.7916 67.8087L27.6877 68.7032L28.6054 69.5821L29.5439 70.4448L30.5026 71.2903L31.481 72.1185L32.4784 72.9286L33.494 73.72L34.5273 74.4922L35.5772 75.2446L36.6433 75.9769L37.7248 76.6882L38.821 77.378L39.9309 78.046L41.0542 78.6919L42.1896 79.3148L43.3363 79.9146L44.4941 80.491L45.6615 81.0435L46.838 81.5714L48.0226 82.0747L49.2149 82.553L50.4135 83.0057L51.6179 83.4328L52.8273 83.8341L54.0406 84.2093L55.2572 84.5581L56.4759 84.88L57.6963 85.1753L58.9173 85.4435L60.138 85.6847L61.3578 85.8985L62.5755 86.0849L63.7906 86.2442L65.002 86.3759L66.2092 86.4799L67.4112 86.5566L68.607 86.6056L69.7959 86.627L70.9774 86.6209L72.1505 86.5875L73.3143 86.5268L74.4682 86.4391L75.6115 86.3242L76.7433 86.1823L77.863 86.0138L78.9698 85.8184L80.063 85.5969L81.1418 85.3492L82.2057 85.0756L83.2543 84.7764L84.2864 84.452L85.3015 84.1023L86.2991 83.7279L87.2789 83.329L88.2397 82.906L89.1815 82.4593L90.1033 81.9892L91.005 81.4963L91.886 80.9808L92.7453 80.443L93.5831 79.8835L94.3984 79.3026L95.1912 78.7007L95.9607 78.0785L96.707 77.4362L97.4291 76.7748L98.1273 76.0942L98.8007 75.3951L99.4491 74.6781L100.072 73.9433L100.67 73.1919L101.242 72.4239L101.787 71.64L102.307 70.8407L102.8 70.0268L103.266 69.1984L103.706 68.3565L104.118 67.5012L104.503 66.6334L104.861 65.7535L105.191 64.8622L105.494 63.9603L105.77 63.0478L106.017 62.1255L106.237 61.1943L106.429 60.2542L106.593 59.3063L106.73 58.3509L106.839 57.3885L106.921 56.42L106.974 55.4459L107 54.4666M5.53084 32.6966L5.13244 33.6466L4.76291 34.6112L4.42226 35.5905L4.11118 36.5836L3.82964 37.5902L3.57809 38.6092L3.35655 39.6406L3.1657 40.6833L3.00553 41.7371L2.87649 42.801L2.77857 43.8748L2.71203 44.9575L2.67683 46.0482L2.67346 47.1469L2.70166 48.2523L2.76167 49.364L2.8537 50.4814L2.97779 51.6035L3.13389 52.7299L3.32205 53.8595L3.54222 54.9917L3.79421 56.126L4.07801 57.2612L4.39362 58.3969L4.74104 59.5323L5.11981 60.6666L5.53016 61.7988L5.97188 62.9284L6.44428 64.0546L6.94735 65.1764L7.48112 66.2934L8.04488 67.4047L8.63864 68.5092L9.26196 69.6065L9.91461 70.6956L10.5959 71.776L11.3059 72.8467L12.0433 73.907L12.8085 74.956L13.6008 75.9933L14.4195 77.0179L15.2644 78.0291L16.1347 79.0262L17.0299 80.0084L17.9492 80.9751L18.8924 81.9258L19.8586 82.8593L20.8472 83.7754L21.8574 84.6731L22.8888 85.552L23.9406 86.4113L25.0119 87.2503L26.1022 88.0687L27.2103 88.8658L28.336 89.6409L29.4782 90.3935L30.636 91.1233L31.8089 91.8292L32.9959 92.5111L34.1961 93.1688L35.4089 93.8013L36.633 94.4086L37.8679 94.99L39.1125 95.5452L40.3661 96.0737L41.6279 96.5752L42.8966 97.0494L44.1719 97.4961L45.4522 97.9148L46.7372 98.3056L48.0256 98.6681L49.3166 99.0018L50.6093 99.3068L51.9029 99.5827L53.1964 99.8295L54.4889 100.047L55.7797 100.235L57.0674 100.394L58.3517 100.524L59.6313 100.624L60.9057 100.694L62.1738 100.735L63.4344 100.746L64.6873 100.728L65.9315 100.681L67.166 100.605L68.3898 100.499L69.6026 100.365L70.8032 100.202L71.991 100.011L73.1652 99.7907L74.325 99.5425L75.4699 99.2666L76.599 98.9632L77.7114 98.6325L78.8069 98.2747L79.8844 97.8902L80.9433 97.4794L81.9831 97.0429L83.0032 96.5804L84.003 96.0929L84.9819 95.5808L85.9391 95.0444L86.8746 94.4838L87.7874 93.8999L88.6771 93.2928L89.5432 92.6632L90.3854 92.0117L91.2031 91.3385L91.9961 90.6444L92.7636 89.9297L93.5058 89.1949L94.2216 88.4407L94.9112 87.6676L95.574 86.8762L96.2098 86.067M82.7236 15.439L82.3331 15.1067L81.9358 14.7811L81.5318 14.4621L81.1214 14.1504L80.7048 13.8454L80.2822 13.5478L79.8538 13.2577L79.4202 12.975L78.9812 12.7L78.537 12.4331L78.0883 12.1744L77.6351 11.9235L77.1776 11.6812L76.7163 11.4473L76.2511 11.2221L75.7825 11.0056L75.3108 10.7978L74.8361 10.5993L74.3585 10.4096L73.8789 10.2293L73.3971 10.0583L72.9134 9.89655L72.4279 9.74427L71.9413 9.6017L71.4538 9.46882L70.9654 9.34587L70.4765 9.23262L69.9874 9.1293L69.4986 9.0359L69.0099 8.95266L68.5219 8.87934L68.0349 8.81617L67.549 8.76316L67.0644 8.72052L66.5818 8.68803L66.1011 8.66592L65.6228 8.65419L65.147 8.65262L64.674 8.66142L64.2043 8.68059L63.7378 8.71014L63.275 8.74985L62.8162 8.80015L62.3616 8.86062L61.9116 8.93145L61.466 9.01244L61.0256 9.10358L60.5905 9.20487L60.1607 9.31654L59.737 9.43814L59.3192 9.56988L58.9075 9.71156L58.5026 9.86316L58.1044 10.0245L57.713 10.1955L57.329 10.3762L56.9525 10.5666L56.5839 10.7662L56.2229 10.9756L55.8703 11.1939L55.5261 11.4213L55.1906 11.658L54.8637 11.9034L54.5459 12.1577L54.2372 12.4205L53.9381 12.6919L53.6487 12.9714L53.3689 13.2593L53.0993 13.5553L52.8399 13.8589L52.5906 14.1702L52.3519 14.4892L52.1239 14.8154L51.9066 15.1489L51.7004 15.4893L51.5055 15.8365L51.3216 16.1902L51.1491 16.5503L50.9882 16.9166L50.8389 17.2886L50.7013 17.6665L50.5754 18.05L50.4615 18.4387L50.3597 18.8326L50.2699 19.231L50.1926 19.6344L50.1271 20.0418L50.0741 20.4533L50.0333 20.8688L50.0051 21.288L49.9893 21.7103L49.9859 22.1358L49.9949 22.5642L50.0166 22.9951L50.0506 23.4282L50.0971 23.8636L50.1562 24.3006L50.2277 24.7391L50.3117 25.1788L50.4082 25.6196L50.517 26.0609L50.6379 26.5026L50.7712 26.9446L50.9165 27.3865L51.074 27.8278L51.2436 28.2684L51.4252 28.708L51.6183 29.1464L51.8234 29.5834L52.04 30.0183L52.268 30.4512L52.5074 30.8819L52.758 31.3096L53.0197 31.7346L53.2922 32.1565L53.5756 32.5747L53.8693 32.9892L54.1736 33.3997L54.4879 33.806L54.8123 34.2078L55.1466 34.6046L55.4902 34.9965L55.8435 35.3832L56.2058 35.7642L56.5771 36.1394L56.957 36.5084L57.3453 36.8714L57.7419 37.2276L58.1466 37.5773L58.5588 37.9198L58.9786 38.2552L59.4054 38.5832L59.8392 38.9034L60.2796 39.2158L60.7263 39.5204L61.179 39.8166L61.6377 40.1042L62.1017 40.3835L62.571 40.6538L63.0449 40.915L63.5237 41.1672L64.0066 41.4102L64.4935 41.6437L64.9839 41.8675L65.4775 42.0816L65.9745 42.2857L66.4738 42.48L66.9757 42.664L67.4795 42.8377L67.985 43.0013L68.4919 43.1543L69 43.2968L69.5087 43.4288L70.0179 43.5497L70.527 43.66L71.036 43.7595L71.5443 43.8482L72.0518 43.9258L72.5581 43.9926L73.0627 44.0483L73.5656 44.0927L74.0664 44.1264L74.5645 44.1487L75.0599 44.1602L75.5522 44.1604L76.041 44.1496L76.5261 44.1277L77.007 44.095L77.4837 44.0512L77.9559 43.9964L78.4229 43.9305L78.8847 43.8541L79.3413 43.7668L79.7918 43.6686L80.2364 43.5599L80.6745 43.4408L81.1063 43.311L81.5311 43.1709L81.9487 43.0205L82.3591 42.8599L82.7618 42.6893L83.1565 42.5086L83.5432 42.3184L83.9218 42.1183L84.2917 41.9087L84.6529 41.6899L85.0051 41.4616L85.3482 41.2243L85.6819 40.9779L86.006 40.723L86.3203 40.4595L86.6249 40.1875L86.9192 39.9073L87.2035 39.619L87.4771 39.3228L87.7404 39.0191L87.9931 38.7078L88.2347 38.389L88.4655 38.0635L88.6852 37.731L88.8937 37.3919L89.0908 37.0463L89.2765 36.6943L89.4507 36.3365L89.6133 35.9731L89.7645 35.604L89.9036 35.2295L90.0313 34.8501L90.1468 34.4657L90.2506 34.0768L90.3422 33.6835L90.4221 33.286L90.4897 32.8847L90.5457 32.4798L90.5895 32.0712L90.621 31.6597L90.6407 31.2453L90.6481 30.8282L90.6436 30.4088L90.6271 29.9872L90.5987 29.5635L90.5581 29.1383L90.506 28.7116L90.4417 28.2839L90.3657 27.8551L90.2779 27.4258L90.1784 26.996L90.0672 26.566L89.9447 26.1363L89.8107 25.7067L89.6652 25.2776L89.5086 24.8497L89.3408 24.4226L89.1619 23.9969L88.9721 23.5728L88.7716 23.1505L88.5602 22.7302L88.3385 22.3124L88.1063 21.8969L87.8638 21.4843L87.6111 21.0743L87.3486 20.668L87.0763 20.2649L86.7943 19.8656L86.5026 19.4701L86.2019 19.0787L85.8919 18.6918L85.5731 18.3092L85.2456 17.9316L84.9092 17.5589L84.5647 17.1914L84.2119 16.8293L83.8511 16.4729L83.4827 16.1221L83.1069 15.7774L82.7236 15.439ZM77.9117 18.3966L78.1325 18.5708L78.359 18.7391L78.5801 18.9094L78.7849 19.0896L78.9668 19.2857L79.1335 19.493L79.297 19.7044L79.4694 19.9131L79.6578 20.1138L79.8534 20.3105L80.0431 20.5082L80.2134 20.7121L80.356 20.9264L80.4801 21.1482L80.5998 21.3736L80.7296 21.5978L80.8782 21.8184L81.0357 22.0361L81.1866 22.2538L81.3161 22.474L81.4138 22.6985L81.4905 22.9268L81.5622 23.1573L81.6444 23.389L81.7477 23.6209L81.8607 23.8519L81.9672 24.0818L82.0504 24.3099L82.0996 24.5362L82.126 24.7622L82.1463 24.9894L82.1777 25.22L82.2314 25.4543L82.2956 25.6901L82.3532 25.9236L82.387 26.1512L82.3854 26.3707L82.3602 26.5857L82.3284 26.8011L82.3076 27.0213L82.3092 27.2496L82.3218 27.4813L82.3281 27.7096L82.311 27.9282L82.2584 28.1326L82.1822 28.3284L82.0992 28.5233L82.0265 28.725L81.9757 28.9384L81.9358 29.1573L81.8902 29.3718L81.8223 29.5728L81.7206 29.7542L81.5959 29.9232L81.4646 30.0899L81.3425 30.2652L81.241 30.4556L81.1498 30.653L81.0535 30.8456L80.9371 31.0214L80.7898 31.1725L80.6213 31.3076L80.4462 31.4396L80.2793 31.5815L80.1304 31.7415L79.991 31.9098L79.8475 32.0729L79.6866 32.2163L79.4989 32.3312L79.293 32.427L79.0809 32.5189L78.8754 32.6213L78.6848 32.7445L78.502 32.8773L78.3166 33.0043L78.1172 33.1097L77.8963 33.1835L77.6608 33.236L77.4196 33.2836L77.1832 33.3427L76.9578 33.4237L76.7388 33.5155L76.5181 33.6015L76.2878 33.6647L76.0426 33.694L75.7863 33.7008L75.5255 33.7021L75.2672 33.715L75.0159 33.7508L74.7689 33.798L74.5216 33.8393L74.2694 33.8575L74.0089 33.8411L73.742 33.8016L73.4722 33.756L73.2021 33.7222L72.9346 33.7109L72.6693 33.7114L72.4046 33.7064L72.1402 33.6786L71.8749 33.6171L71.6083 33.5325L71.3396 33.4418L71.0687 33.3619L70.7955 33.3042L70.5221 33.2579L70.2509 33.2067L69.9849 33.1341L69.7253 33.0294L69.4692 32.9028L69.2127 32.7702L68.9515 32.6477L68.6834 32.5457L68.4127 32.4543L68.1456 32.3589L67.8884 32.2443L67.6448 32.1006L67.4097 31.9368L67.1756 31.7676L66.9349 31.607L66.6824 31.4647L66.4252 31.3322L66.1728 31.1964L65.9346 31.0444L65.7169 30.8673L65.5123 30.673L65.3097 30.4736L65.0987 30.2814L64.872 30.1045L64.6385 29.936L64.4107 29.7652L64.2011 29.5818L64.0179 29.3786L63.8517 29.1613L63.689 28.9398L63.5162 28.7234L63.3242 28.5191L63.1237 28.3217L62.9292 28.1231L62.7564 27.9156L62.6147 27.6941L62.4938 27.4624L62.3774 27.2275L62.2495 26.9958L62.0997 26.772L61.9397 26.5534L61.7863 26.3351L61.6571 26.112L61.5625 25.8809L61.4912 25.6441L61.4254 25.4049L61.3475 25.1669L61.2456 24.933L61.1323 24.702L61.0261 24.4726L60.9449 24.2429L60.9011 24.0114L60.8821 23.7786L60.8695 23.5445L60.8442 23.3096L60.7942 23.0745L60.7317 22.8406L60.6759 22.6091L60.6462 22.3817L60.6545 22.1591L60.6886 21.9391L60.7292 21.7192L60.7572 21.4965L60.7603 21.2696L60.7508 21.0419L60.7477 20.8177L60.7698 20.6013L60.8298 20.396L60.9151 20.1973L61.0071 19.9999L61.0874 19.798L61.1432 19.5882L61.1867 19.3755L61.2359 19.167L61.3087 18.9705L61.4175 18.79L61.5506 18.6202L61.6902 18.4525L61.819 18.2791L61.9251 18.0941L62.0194 17.9046L62.1186 17.7203L62.2391 17.5506L62.3923 17.4019L62.5678 17.267L62.7494 17.1355L62.9215 16.9966L63.0733 16.8436L63.2146 16.6846L63.3596 16.5309L63.5227 16.3947L63.7143 16.2832L63.925 16.1882L64.1415 16.0973L64.3502 15.9983L64.542 15.8828L64.724 15.7601L64.909 15.643L65.1084 15.5451L65.3306 15.4747L65.5687 15.4228L65.8116 15.3757L66.0489 15.3197L66.2727 15.2462L66.4889 15.164L66.7066 15.088L66.9344 15.0318L67.179 15.005L67.4352 14.9978L67.6953 14.996L67.9518 14.9849L68.1993 14.9556L68.4412 14.9175L68.683 14.8848L68.9307 14.8724L69.1883 14.8897L69.453 14.9272L69.7207 14.9703L69.987 15.0045L70.2486 15.0203L70.5069 15.0273L70.7639 15.0393L71.022 15.0711L71.2827 15.1318L71.5463 15.2121L71.8115 15.2983L72.0775 15.3763L72.3437 15.4368L72.6086 15.4882L72.8709 15.5446L73.1297 15.6191L73.3844 15.7206L73.6368 15.8408L73.8897 15.9667L74.1458 16.0854L74.4064 16.188L74.6681 16.2823L74.9259 16.3807L75.1759 16.4951L75.4148 16.6338L75.6469 16.7892L75.8781 16.9501L76.1148 17.1048L76.36 17.2458L76.6088 17.3796L76.8529 17.5163L77.0846 17.6666L77.2989 17.8371L77.5022 18.0219L77.7034 18.2114L77.9117 18.3966ZM86.2621 13.7545L85.7037 13.2803L85.1357 12.8153L84.5582 12.3603L83.9714 11.915L83.3763 11.4796L82.7724 11.0548L82.1606 10.6404L81.5411 10.237L80.9139 9.84448L80.2798 9.46323L79.6389 9.09347L78.9916 8.73523L78.3383 8.38894L77.6793 8.05461L77.015 7.73269L76.3458 7.42294L75.672 7.12583L74.9938 6.84158L74.3119 6.56997L73.6265 6.31166L72.938 6.06643L72.2467 5.83475L71.5531 5.61637L70.8575 5.41153L70.1605 5.22045L69.462 5.04337L68.7629 4.88026L68.0631 4.73114L67.3633 4.59601L66.6639 4.47532L65.9653 4.36883L65.2677 4.27679L64.5716 4.19941L63.8774 4.13647L63.1855 4.08797L62.4961 4.05436L61.8098 4.03517L61.1269 4.03067L60.4479 4.04104L59.7731 4.06609L59.1029 4.10601L58.4376 4.16061L57.7777 4.22986L57.1235 4.31402L56.4756 4.41282L55.834 4.52607L55.1992 4.65421L54.5718 4.79679L53.9519 4.95402L53.3401 5.12571L52.7366 5.31182L52.1417 5.51237L51.5558 5.72692L50.9797 5.95567L50.413 6.19863L49.8564 6.45536L49.3105 6.72585L48.7751 7.0101L48.2511 7.30811L47.7385 7.61921L47.2377 7.94384L46.7488 8.28134L46.2724 8.63191L45.8088 8.99512L45.3583 9.37096L44.9209 9.75898L44.4974 10.1594L44.0875 10.5718L43.692 10.9957L43.3108 11.4313L42.9442 11.8782L42.5927 12.336L42.2563 12.8047L41.9355 13.2839L41.6303 13.7735L41.3409 14.2729L41.0677 14.7821L40.8107 15.3007L40.5702 15.8284L40.3464 16.3651L40.1396 16.9101L39.9496 17.4635L39.777 18.0248L39.6216 18.5937L39.4838 19.1697L39.3633 19.7526L39.2607 20.3423L39.1758 20.9379L39.1088 21.5396L39.0599 22.1467L39.029 22.7587L39.0163 23.3757L39.0215 23.997L39.0452 24.6223L39.087 25.2511L39.1467 25.8832L39.225 26.518L39.3216 27.1553L39.4362 27.7946L39.5688 28.4356L39.7198 29.0778L39.8887 29.7208L40.0755 30.3642L40.2801 31.0074L40.5028 31.6503L40.7428 32.2923L41.0007 32.933L41.2759 33.5722L41.5683 34.2092L41.8778 34.8438L42.204 35.4753L42.5471 36.1036L42.907 36.7282L43.2828 37.3484L43.6749 37.9643L44.083 38.575L44.5067 39.1802L44.9454 39.7799L45.3996 40.3734L45.8684 40.9602L46.3516 41.54L46.8492 42.1125L47.3607 42.6772L47.8856 43.2337L48.4241 43.7819L48.9752 44.3211L49.5388 44.8512L50.1147 45.3717L50.7024 45.8822L51.3016 46.3824L51.9118 46.8719L52.5324 47.3506L53.1636 47.818L53.8043 48.2737L54.4547 48.7177L55.1139 49.1497L55.7815 49.5689L56.4573 49.9754L57.1409 50.3691L57.8314 50.7494L58.5288 51.116L59.2324 51.4691L59.9419 51.8081L60.6566 52.133L61.3762 52.4434L62.1004 52.7392L62.8282 53.02L63.5595 53.286L64.2939 53.5369L65.0304 53.7724L65.7692 53.9926L66.5092 54.197L67.2503 54.3858L67.992 54.5586L68.7336 54.7156L69.4746 54.8566L70.2148 54.9816L70.9534 55.0903L71.6902 55.1831L72.4248 55.2593L73.1561 55.3195L73.8841 55.3631L74.6085 55.3906L75.3284 55.4019L76.0435 55.3967L76.7537 55.3753L77.458 55.3378L78.1562 55.2841L78.8479 55.2144L79.5326 55.1285L80.2096 55.0267L80.8792 54.909L81.5402 54.7756L82.1928 54.6265L82.8362 54.462L83.4701 54.282L84.0941 54.0869L84.708 53.8766L85.3112 53.6515L85.9036 53.4115L86.4845 53.157L87.0539 52.8881L87.6114 52.6052L88.1564 52.3083L88.6888 51.9974L89.2084 51.6732L89.7146 51.3355L90.2073 50.985L90.6862 50.6215L91.1512 50.2457L91.6019 49.8574L92.038 49.457L92.4592 49.0451L92.8655 48.6216L93.2564 48.1869L93.6318 47.7413L93.9919 47.285L94.3359 46.8187L94.6642 46.3422L94.9762 45.856L95.2719 45.3606L95.5512 44.8562L95.8138 44.343L96.0599 43.8212L96.2891 43.2917L96.5014 42.7543L96.6968 42.2095L96.8752 41.6579L97.0363 41.0994L97.1802 40.5347L97.307 39.9637L97.4164 39.3873L97.5087 38.8055L97.5836 38.219L97.6413 37.6277L97.6817 37.0323L97.7047 36.4329L97.7106 35.8301L97.6991 35.224L97.6704 34.6151L97.6246 34.0039L97.5617 33.3905L97.4821 32.7756L97.3853 32.159L97.2718 31.5416L97.1414 30.9234L96.9943 30.3051L96.831 29.6865L96.651 29.0686L96.455 28.4514L96.2429 27.8353L96.0148 27.2205L95.7707 26.6076L95.511 25.9967L95.2358 25.3885L94.9455 24.783L94.64 24.1804L94.3195 23.5817L93.9844 22.9865L93.6348 22.3955L93.2709 21.8089L92.8928 21.2271L92.5009 20.6505L92.0955 20.0793L91.6766 19.5137L91.2446 18.9542L90.8 18.4009L90.3424 17.8542L89.8728 17.3146L89.3909 16.7822L88.897 16.2573L88.3919 15.74L87.8756 15.231L87.3481 14.7302L86.8103 14.238L86.2621 13.7545ZM88.4302 13.6947L87.7311 13.1012L87.0197 12.5196L86.2969 11.9502L85.5626 11.393L84.8177 10.8486L84.0622 10.3169L83.2965 9.79868L82.5214 9.2938L81.7367 8.80291L80.9433 8.32577L80.1416 7.86331L79.3319 7.41505L78.5146 6.98168L77.69 6.56342L76.8589 6.16029L76.0215 5.77249L75.1782 5.40048L74.3298 5.04449L73.4764 4.70452L72.6184 4.38079L71.7564 4.0733L70.891 3.78274L70.0225 3.50864L69.1515 3.25168L68.2782 3.01188L67.4031 2.78944L66.5269 2.58415L65.65 2.39668L64.7729 2.22658L63.8958 2.0743L63.0196 1.93985L62.1443 1.82344L61.2707 1.72508L60.3993 1.64499L59.5305 1.58295L58.6647 1.53919L57.8024 1.51392L56.9443 1.50693L56.0904 1.51821L55.2417 1.54799L54.3982 1.59626L53.5608 1.66304L52.7299 1.74832L51.9058 1.85187L51.0889 1.97414L50.28 2.11468L49.4791 2.2735L48.6873 2.4506L47.9044 2.64619L47.1313 2.85982L46.3684 3.09174L45.6162 3.34169L44.8747 3.60948L44.1449 3.89508L43.4271 4.1985L42.7214 4.51953L42.0288 4.85792L41.3493 5.21368L40.6836 5.5866L40.0318 5.97642L39.3948 6.38317L38.7723 6.80639L38.1653 7.24607L37.574 7.702L36.9989 8.17395L36.4401 8.66146L35.8985 9.16476L35.374 9.68318L34.8671 10.2167L34.378 10.7647L33.9072 11.3273L33.4551 11.9039L33.0219 12.4946L32.6082 13.0987L32.2138 13.7159L31.8396 14.3462L31.4854 14.989L31.1515 15.6436L30.8384 16.3105L30.546 16.9884L30.2751 17.6776L30.0256 18.3774L29.7977 19.0876L29.5917 19.8077L29.4077 20.537L29.2459 21.2754L29.1065 22.0223L28.9894 22.7774L28.8953 23.5401L28.8238 24.3101L28.7753 25.0868L28.7498 25.8699L28.7473 26.6588L28.7681 27.4529L28.8119 28.2519L28.8789 29.055L28.9691 29.8622L29.0826 30.6728L29.2195 31.4858L29.3795 32.3014L29.5626 33.1187L29.7688 33.9372L29.998 34.7565L30.25 35.5759L30.5248 36.3948L30.8224 37.213L31.1425 38.0297L31.4849 38.8443L31.8497 39.6565L32.2362 40.4657L32.6445 41.2713L33.0745 42.0726L33.5257 42.8694L33.9978 43.6608L34.491 44.4465L35.0044 45.2262L35.538 45.9988L36.0914 46.7641L36.6644 47.5216L37.2563 48.2706L37.867 49.0108L38.4962 49.7417L39.1435 50.4625L39.8083 51.1729L40.49 51.8724L41.1885 52.5607L41.9032 53.2371L42.6336 53.9012L43.3795 54.5523L44.1399 55.1905L44.9148 55.8147L45.7033 56.425L46.5051 57.0208L47.3197 57.6017L48.1463 58.1672L48.9846 58.717L49.8337 59.2508L50.6935 59.768L51.5629 60.2684L52.4419 60.7519L53.3293 61.2177L54.225 61.6658L55.128 62.096L56.0378 62.5077L56.954 62.9007L57.8758 63.2749L58.8025 63.6298L59.7335 63.9655L60.6684 64.2815L61.6062 64.578L62.5465 64.8543L63.4886 65.1106L64.432 65.3468L65.3757 65.5622L66.3196 65.7574L67.2626 65.9318L68.2042 66.0854L69.1438 66.2185L70.0809 66.3306L71.0149 66.4218L71.9448 66.4921L72.8702 66.5413L73.7906 66.5697L74.7054 66.5772L75.6139 66.5637L76.5156 66.5294L77.4098 66.4745L78.296 66.3987L79.1735 66.3024L80.0421 66.1856L80.9007 66.0482L81.7494 65.8907L82.587 65.7132L83.4136 65.5158L84.2285 65.2985L85.0309 65.0616L85.8205 64.8054L86.5967 64.5301L87.3595 64.2357L88.108 63.9226L88.8419 63.5912L89.5606 63.2415L90.264 62.874L90.9516 62.489L91.6228 62.0863L92.2772 61.6667L92.9148 61.2304L93.5349 60.7776L94.1375 60.3088L94.722 59.8242L95.2883 59.3243L95.8358 58.8095L96.3641 58.2798L96.8735 57.7357L97.3635 57.1778L97.8337 56.6063L98.2837 56.0218L98.7139 55.4244L99.1238 54.8147L99.513 54.1929L99.8816 53.5599L100.229 52.9156L100.556 52.2605L100.861 51.595L101.145 50.92L101.408 50.2353L101.65 49.5418L101.869 48.8395L102.068 48.1294L102.244 47.4115L102.399 46.6865L102.532 45.9544L102.643 45.2162L102.732 44.4722L102.8 43.7226L102.846 42.9682L102.871 42.2091L102.873 41.4461L102.854 40.6793L102.813 39.9093L102.751 39.1367L102.668 38.3618L102.563 37.585L102.438 36.8067L102.291 36.0277L102.124 35.2481L101.935 34.4684L101.726 33.689L101.497 32.9105L101.247 32.1331L100.977 31.3575L100.688 30.5839L100.379 29.8128L100.05 29.0449L99.7018 28.2801L99.3347 27.5192L98.949 26.7623L98.5449 26.0102L98.1224 25.263L97.6821 24.521L97.2239 23.7851L96.7481 23.0553L96.2552 22.3321L95.7455 21.6158L95.2192 20.9068L94.6767 20.2054L94.1183 19.5121L93.5442 18.8275L92.9549 18.1513L92.3505 17.4845L91.7315 16.8273L91.0985 16.1796L90.4513 15.5423L89.7905 14.9156L89.1167 14.2995L88.4302 13.6947Z" stroke="url(#paint0_linear_481_41170)" stroke-width="1.5" stroke-linecap="round" stroke-linejoin="round"/>
  <defs>
    <linearGradient id="paint0_linear_481_41170" x1="54.0002" y1="1" x2="54.0002" y2="107.129" gradientUnits="userSpaceOnUse">
      <stop stop-color="#D387FF"/>
      <stop offset="0.54" stop-color="#FACB7C"/>
      <stop offset="1" stop-color="#8C2DDA"/>
    </linearGradient>
  </defs>
</svg>