<svg xmlns="http://www.w3.org/2000/svg" width="520" height="520" viewBox="0 0 520 520" fill="none">
  <path d="M54.9169 470.697L59.2508 474.375L63.9792 477.653L69.0974 480.521L74.597 482.971L80.4733 484.99L86.7116 486.578L93.3037 487.728L100.235 488.44L107.495 488.706L115.069 488.528L122.945 487.899L131.112 486.818L139.551 485.282L148.25 483.294L157.188 480.858L166.35 477.98L175.714 474.663L185.264 470.911L194.978 466.73L204.843 462.125L214.831 457.104L224.929 451.676L235.111 445.85L245.358 439.644L255.644 433.068L265.952 426.135L276.257 418.86L286.537 411.254L296.77 403.33L306.936 395.107L317.013 386.606L326.979 377.843L336.809 368.838L346.486 359.611L355.988 350.18L365.29 340.565L374.376 330.786L383.224 320.864L391.82 310.823L400.142 300.682L408.177 290.465L415.904 280.194L423.308 269.891L430.373 259.578L437.081 249.277L443.419 239.01L449.382 228.798L454.957 218.661L460.128 208.624L464.893 198.704L469.236 188.924L473.154 179.306L476.634 169.865L479.673 160.624L482.271 151.599L484.421 142.805L486.127 134.262L487.382 125.985L488.186 117.991L488.54 110.293L488.44 102.912L487.893 95.8553L486.903 89.1327L485.476 82.7622L483.619 76.7441L481.335 71.0976L478.631 65.8279L475.512 60.9446L471.985 56.4591L468.064 52.3747L466.2 50.4687L464.293 48.6065L462.341 46.7917L460.344 45.0228L456.054 41.3591L454.021 39.6421L451.948 37.9741L449.837 36.355L447.684 34.7866L443.055 31.5597L440.877 30.0498L438.664 28.5939L436.416 27.1901L434.135 25.8417L429.199 23.055L426.902 21.7686L424.574 20.5391L422.216 19.3652L419.831 18.2484L414.625 15.9053L412.233 14.8568L409.816 13.8655L407.377 12.9329L404.915 12.059L399.472 10.161L397.017 9.35893L394.541 8.61544L392.049 7.93215L386.376 6.46317L383.898 5.84994L381.406 5.29901L378.9 4.81132L373.027 3.76469L370.547 3.34557L368.056 2.98696L365.558 2.69334L359.517 2.05254L357.052 1.82753L354.581 1.66293L345.933 1.31407L343.502 1.27979L341.073 1.30899L334.743 1.43294L332.366 1.52435L329.99 1.67925L323.532 2.16355L321.215 2.37717L318.903 2.65427L312.338 3.48575L310.093 3.81679L303.385 4.9907L301.21 5.37559L299.045 5.82237L292.272 7.31578L290.185 7.81143L283.302 9.62634L281.295 10.1661L279.308 10.7676L272.401 12.8709L270.5 13.5101L263.521 15.907L261.71 16.5837L254.674 19.2592L252.962 19.9669L245.882 22.9116L238.705 26.1465L237.169 26.8475L229.979 30.3303L228.547 31.0477L221.361 34.7669L214.111 38.7502L212.868 39.4416L205.65 43.6368L198.396 48.0799L197.349 48.7289L190.152 53.3563L182.947 58.2103L182.101 58.8021L174.977 63.8159L167.87 69.0351L160.787 74.4549L153.743 80.0639L153.267 80.4552L146.357 86.1749L139.509 92.0611L132.732 98.1036L126.043 104.288L119.447 110.61L112.961 117.053L106.596 123.608L100.36 130.267L94.2673 137.016L88.3258 143.841L82.5457 150.733L82.1788 151.178L76.5047 158.209L71.0132 165.279L65.7156 172.383L60.622 179.505L60.0562 180.318L55.119 187.528L50.4085 194.734L45.9311 201.921L45.253 203.016L40.9663 210.254L36.9308 217.446L36.2134 218.738L32.3932 225.956L31.6904 227.357L28.1001 234.583L24.7918 241.723L24.0695 243.306L21.0156 250.426L20.3226 252.111L17.5344 259.194L16.8707 260.976L14.3615 268.008L13.7305 269.882L11.5113 276.849L10.9194 278.81L9.00039 285.693L8.45085 287.739L6.33774 296.648L5.89757 298.787L4.60131 305.513L4.20995 307.727L3.88224 309.949L2.91373 316.599L2.63981 318.888L2.02678 325.377L1.80988 327.73L1.65827 330.086L1.39902 336.453L1.30767 338.863L1.28 341.275L1.31747 343.686L1.42838 349.957L1.52949 352.413L1.69409 354.866L2.18656 360.968L2.41814 363.459L2.71156 365.941L3.06863 368.418L3.96215 374.366L4.38764 376.868L4.87359 379.36L5.42467 381.838L6.72904 387.6L7.34869 390.098L8.03024 392.58L8.77045 395.042L10.5021 400.586L11.3124 403.059L12.1832 405.511L13.1141 407.939L15.2762 413.235L16.2741 415.664L17.3322 418.069L18.4475 420.447L19.6198 422.796L22.2319 427.831L23.4694 430.168L24.7625 432.475L26.1092 434.751L27.5115 436.991L30.5719 441.735L32.0344 443.954L33.5508 446.138L35.116 448.284L36.7352 450.392L40.2342 454.808L41.9071 456.885L43.6289 458.92L45.3996 460.912L47.2143 462.861L51.1423 466.922L53.0075 468.833L54.9169 470.697L56.8686 472.512L58.8627 474.281L63.1997 477.963L65.2363 479.683L67.3119 481.354L69.4234 482.973L71.5741 484.54L78.4841 489.334L80.6999 490.793L82.9516 492.197L85.2327 493.545L90.3232 496.405L92.6253 497.693L94.9586 498.924L97.3179 500.1L99.7033 501.213L105.126 503.64L107.525 504.691L109.943 505.681L112.387 506.612L114.847 507.481L120.567 509.467L123.029 510.269L125.509 511.008L128.002 511.685L134.003 513.237L136.486 513.845L138.982 514.391L141.488 514.872L147.735 515.996L150.221 516.408L152.714 516.755L155.214 517.041L161.672 517.74L164.139 517.957L166.609 518.109L173.285 518.399L175.714 518.484L178.143 518.507L187.393 518.348L189.767 518.241L199.121 517.564L201.432 517.331L208.609 516.437L210.853 516.147L213.087 515.795L220.378 514.526L222.537 514.119L224.683 513.649L232.061 512.024L234.123 511.507L241.627 509.524L243.605 508.962L251.214 506.635L253.097 506.033L260.795 503.371L262.58 502.733L270.342 499.749L272.026 499.079L279.834 495.784L281.409 495.089L289.246 491.496L290.711 490.78L298.554 486.899L306.47 482.704L307.734 482.018L315.624 477.565L323.553 472.818L324.605 472.178L332.47 467.205L340.342 461.958L341.175 461.382L348.949 455.939L356.698 450.246L364.403 444.317L372.052 438.162L372.483 437.807L379.97 431.516L387.367 425.028L394.664 418.361L401.841 411.526L408.883 404.536L415.776 397.406L422.505 390.152L429.056 382.785L435.417 375.326L435.743 374.931L441.974 367.304L447.988 359.611L453.769 351.873L459.31 344.105L459.861 343.306L465.206 335.431L470.28 327.559L475.077 319.703L475.749 318.598L480.306 310.688L485.28 301.513L489.277 293.636L489.976 292.203L493.695 284.326L494.375 282.782L497.801 274.925L500.886 267.189L501.572 265.456L504.338 257.777L504.992 255.946L507.427 248.344L508.042 246.415L508.595 244.467L510.71 236.893L511.22 234.857L512.981 227.402L513.444 225.283L514.845 217.966L515.256 215.769L515.603 213.559L516.642 206.344L516.935 204.065L517.163 201.776L517.822 194.69L517.992 192.342L518.096 189.984L518.365 183.056L518.406 180.648L518.383 178.238L518.247 171.492L518.16 169.037L518.005 166.583L517.46 160.048L517.238 157.56L516.955 155.075L516.606 152.593L515.639 146.262L515.22 143.756L514.74 141.261L514.194 138.778L512.802 132.677L512.187 130.177L511.51 127.694L510.772 125.224L508.949 119.39L508.14 116.918L507.273 114.462L506.343 112.03L504.09 106.493L503.094 104.065L502.037 101.658L500.923 99.2792L499.751 96.9231L497.061 91.7022L495.826 89.3659L494.533 87.0554L493.183 84.7792L491.781 82.5323L488.665 77.662L487.203 75.4431L485.688 73.2597L484.118 71.1124L482.499 69.0008L478.969 64.5122L477.296 62.4381L475.576 60.405L473.805 58.409L471.985 56.4591" fill="#0E0C15"/>
  <path d="M447.681 34.7899L451.938 38.4242L455.811 42.463L459.289 46.8995L462.36 51.7291L465.021 56.9467L467.262 62.5392L469.081 68.4971L470.47 74.8104L471.426 81.4726L471.943 88.4657L472.013 95.7851L471.635 103.416L470.806 111.343L469.53 119.553L467.81 128.03L465.644 136.753L463.037 145.709L459.991 154.879L456.509 164.248L452.59 173.798L448.248 183.504L443.491 193.353L438.328 203.321L432.767 213.386L426.82 223.53L420.502 233.729L413.817 243.962L406.778 254.206L399.404 264.444L391.708 274.651L383.71 284.804L375.427 294.884L366.872 304.867L358.067 314.732L349.029 324.454L339.773 334.017L330.324 343.398L320.703 352.576L310.926 361.534L301.019 370.253L291.005 378.716L280.901 386.899L270.729 394.788L260.514 402.365L250.275 409.614L240.035 416.52L229.815 423.075L219.639 429.263L209.527 435.071L199.499 440.487L189.581 445.501L179.79 450.101L170.144 454.281L160.666 458.033L151.372 461.356L142.282 464.244L133.412 466.689L124.784 468.692L116.411 470.245L108.311 471.348L100.501 472L92.9904 472.205L85.7951 471.969L78.9242 471.291L72.3941 470.174L66.2111 468.625L60.3935 466.645L54.9477 464.239L49.8833 461.415L45.2054 458.185L40.9205 454.555L37.0301 450.538L33.5474 446.142" fill="#0E0C15"/>
  <path d="M419.828 18.2529L424.691 20.997L429.2 24.1455L433.34 27.6918L437.108 31.6327L440.484 35.9649L443.462 40.6836L446.038 45.7804L448.203 51.246L449.951 57.0702L451.281 63.2432L452.186 69.7537L452.658 76.5937L452.695 83.7499L452.291 91.2143L451.45 98.969L450.168 107.001L448.451 115.292L446.299 123.826L443.716 132.588L440.703 141.563L437.261 150.731L433.398 160.075L429.117 169.578L424.43 179.217L419.348 188.973L413.88 198.827L408.033 208.757L401.82 218.742L395.253 228.76L388.341 238.792L381.1 248.818L373.547 258.813L365.698 268.759L357.572 278.634L349.181 288.413L340.546 298.079L331.683 307.608L322.611 316.98L313.348 326.174L303.917 335.175L294.338 343.958L284.632 352.51L274.819 360.809L264.924 368.839L254.961 376.581L244.957 384.019L234.931 391.136L224.903 397.923L214.897 404.361L204.934 410.443L195.036 416.155L185.22 421.487L175.51 426.422L165.928 430.953L156.487 435.075L147.213 438.78L138.118 442.063L129.222 444.92L120.546 447.348L112.104 449.34L103.912 450.893L95.991 452.005L88.3521 452.675L81.0067 452.908L73.9678 452.707L67.2519 452.076L60.8652 451.015L54.8241 449.529L49.1369 447.622L43.8167 445.295L38.8681 442.561L34.2979 439.425L30.1123 435.899L26.3198 431.992L22.9202 427.712L19.9217 423.07L17.3292 418.074" fill="#0E0C15"/>
  <path d="M383.9 5.85011L389.541 7.31108L394.866 9.16988L399.867 11.4216L404.537 14.0663L408.861 17.099L412.833 20.5164L416.438 24.314L419.666 28.4914L422.512 33.042L424.964 37.9564L427.021 43.2261L428.677 48.8432L429.924 54.796L430.762 61.0769L431.186 67.6737L431.186 74.5774L430.762 81.7777L429.912 89.2567L428.642 97.0033L426.951 105.001L424.843 113.233L422.316 121.686L419.376 130.342L416.025 139.188L412.265 148.201L408.106 157.366L403.557 166.666L398.623 176.077L393.321 185.583L387.655 195.163L381.637 204.797L375.278 214.463L368.589 224.145L361.583 233.818L354.277 243.466L346.687 253.065L338.831 262.593L334.905 267.162L334.902 267.169L334.898 267.172L330.721 272.034L322.378 281.365L313.816 290.566L305.052 299.617L296.107 308.497L286.999 317.191L277.753 325.677L268.381 333.941L258.909 341.964L249.356 349.727L239.742 357.215L230.09 364.408L220.414 371.296L210.739 377.863L201.085 384.1L191.473 389.994L181.923 395.53L172.455 400.7L163.086 405.49L153.841 409.893L144.736 413.897L135.788 417.504L127.016 420.703L118.435 423.493L110.066 425.868L101.923 427.825L94.0215 429.358L86.3793 430.465L79.0111 431.148L71.9265 431.407L65.1387 431.249L58.6591 430.672L52.5009 429.682L46.6734 428.283L41.19 426.475L36.0589 424.262L31.288 421.654L26.8808 418.658L22.8485 415.285L19.1897 411.541L15.9157 407.439L13.0264 402.984L10.5317 398.187L8.43331 393.053L6.73101 387.6" fill="#0E0C15"/>
  <path d="M352.114 1.55892L358.027 2.18509L363.66 3.19096L369.006 4.57854L374.05 6.34438L378.783 8.48859L383.198 11.0028L387.284 13.8887L391.031 17.14L394.431 20.7547L397.472 24.7282L400.144 29.0573L402.443 33.7335L404.365 38.7473L405.906 44.0905L407.059 49.7531L407.82 55.7256L408.186 61.9998L408.151 68.5659L407.713 75.4124L406.871 82.5246L405.627 89.8896L403.987 97.4941L401.946 105.32L399.513 113.356L396.684 121.585L393.469 129.992L389.864 138.56L385.88 147.272L381.527 156.109L376.813 165.056L371.747 174.09L366.337 183.195L360.596 192.35L354.531 201.54L348.152 210.739L341.477 219.935L334.515 229.105L327.289 238.229L319.806 247.29L312.086 256.266L304.145 265.139L295.999 273.888L287.662 282.495L279.153 290.943L270.492 299.213L261.697 307.29L252.788 315.156L243.784 322.793L234.702 330.186L225.563 337.316L216.387 344.171L207.189 350.737L197.995 356.999L188.82 362.949L179.684 368.573L170.607 373.86L161.609 378.799L152.705 383.379L143.918 387.591L135.263 391.429L126.76 394.887L118.42 397.961L110.264 400.645L102.307 402.937L94.5641 404.83L87.0525 406.322L79.7869 407.411L72.7791 408.093L66.0418 408.376L59.5867 408.261L53.4234 407.749L47.5667 406.842L42.023 405.548L36.8054 403.862L31.9237 401.791L27.386 399.343L23.1956 396.526L19.3558 393.348L15.8763 389.816L12.7604 385.944L10.013 381.732L7.63905 377.193L5.64163 372.336L4.02417 367.17L2.78507 361.708L1.92086 355.966L1.43501 349.952" fill="#0E0C15"/>
  <path d="M301.21 5.37222L307.856 4.21125L314.303 3.3961L320.536 2.92806L326.545 2.81237L332.318 3.04883L337.843 3.63897L343.102 4.58464L348.09 5.89066L352.794 7.55215L357.205 9.56585L361.315 11.9284L365.117 14.6384L368.599 17.6923L371.754 21.0854L374.571 24.8126L377.043 28.8759L379.166 33.2619L380.932 37.9658L382.34 42.9747L383.386 48.2852L384.064 53.8844L384.372 59.7656L384.305 65.9175L383.86 72.3335L383.038 78.9957L381.841 85.8961L380.27 93.0179L378.33 100.349L376.021 107.872L373.342 115.576L370.301 123.446L366.898 131.467L363.145 139.623L359.044 147.894L354.607 156.267L349.843 164.719L344.759 173.24L339.364 181.808L333.67 190.408L327.683 199.017L321.42 207.621L314.893 216.202L308.115 224.741L301.104 233.22L293.871 241.62L286.431 249.927L278.802 258.117L270.994 266.177L263.027 274.085L254.919 281.831L246.685 289.397L238.346 296.767L229.918 303.923L221.42 310.853L212.868 317.539L204.28 323.968L195.674 330.128L187.07 336.006L178.484 341.592L169.935 346.877L161.44 351.847L153.019 356.495L144.687 360.806L136.463 364.775L128.361 368.396L120.401 371.661L112.592 374.568L104.955 377.111L97.5054 379.288L90.2545 381.093L83.2189 382.523L76.4116 383.574L69.8472 384.25L63.5339 384.55L57.4831 384.476L51.7079 384.029L46.2148 383.216L41.0168 382.035L36.1237 380.491L31.5468 378.585L27.2863 376.324L23.3552 373.716L19.7535 370.77L16.4859 367.493L13.5591 363.891L10.9781 359.973L8.74754 355.744L6.87083 351.216L5.34955 346.398L4.18544 341.301L3.37015 335.936L2.91197 330.316L2.80603 324.454L3.05224 318.358L3.65059 312.04L4.60118 305.51" fill="#0E0C15"/>
  <path d="M237.173 26.8411L244.274 23.6405L251.275 20.7285L258.162 18.1066L264.924 15.7864L271.544 13.7712L278.012 12.0671L284.315 10.6814L290.441 9.61329L296.383 8.86651L302.122 8.44256L307.653 8.34155L312.965 8.56646L318.042 9.12092L322.878 10.0046L327.46 11.2177L331.774 12.7602L335.821 14.6288L339.589 16.8186L343.069 19.3296L346.253 22.155L349.133 25.2955L351.702 28.7457L353.951 32.5006L355.876 36.5557L357.473 40.901L358.74 45.53L359.672 50.4344L360.266 55.6032L360.517 61.0328L360.424 66.7084L359.982 72.6289L359.195 78.7742L358.06 85.1363L356.584 91.7024L354.764 98.4592L352.609 105.395L350.114 112.495L347.289 119.745L344.129 127.135L340.646 134.645L336.849 142.264L332.741 149.975L328.332 157.759L323.632 165.606L318.649 173.495L313.389 181.409L307.863 189.338L302.083 197.258L296.062 205.157L289.814 213.02L283.347 220.827L276.682 228.562L269.827 236.209L262.796 243.751L255.604 251.172L248.265 258.458L240.797 265.593L233.315 272.476L233.217 272.564L225.539 279.355L217.781 285.952L209.957 292.342L202.081 298.508L194.177 304.44L186.254 310.126L178.333 315.552L170.427 320.712L162.556 325.596L154.735 330.192L146.979 334.492L139.304 338.485L131.729 342.163L124.267 345.522L116.933 348.555L109.738 351.26L102.701 353.631L95.8331 355.665L89.1481 357.358L82.6619 358.705L76.3845 359.706L70.3288 360.358L64.5031 360.666L58.9203 360.63L53.5886 360.252L48.516 359.533L43.7159 358.476L39.1961 357.084L34.9634 355.359L31.0273 353.304L27.3896 350.929L24.0569 348.242L21.0324 345.247L18.3241 341.951L15.9321 338.363L13.8647 334.488L12.1233 330.334L10.7097 325.911L9.62376 321.228L8.86559 316.299L8.43179 311.13L8.32585 305.735L8.54758 300.123L9.09383 294.303L9.96616 288.285L11.1597 282.086L12.6679 275.712L14.4891 269.182L16.6153 262.504L19.0464 255.693L21.7726 248.76L24.7955 241.716" fill="#0E0C15"/>
  <path d="M337.233 70.9303L336.805 76.3011L336.065 81.8774L335.01 87.6478L333.647 93.6024L331.976 99.7282L329.998 106.014L327.715 112.448L325.131 119.017L322.25 125.71L319.077 132.513L315.619 139.411L311.883 146.391L307.875 153.442L303.605 160.543L299.081 167.683L294.308 174.845L289.296 182.02L284.054 189.189L278.595 196.337L272.932 203.451L267.075 210.514L261.038 217.514L254.829 224.434L248.462 231.26L241.953 237.978L235.31 244.572L228.552 251.034L221.692 257.345L214.743 263.495L207.721 269.471L200.641 275.259L193.516 280.849L186.363 286.228L179.193 291.382L172.024 296.308L164.869 300.99L157.744 305.425L150.664 309.603L143.642 313.511L136.696 317.144L129.836 320.494L123.076 323.557L116.432 326.323L109.915 328.797L103.536 330.969L97.3113 332.834L91.2507 334.394L85.3679 335.64L79.6725 336.574L74.1778 337.194L68.8917 337.5L63.8224 337.496L58.9783 337.181L54.3721 336.56L50.0088 335.63L45.9 334.394L42.0504 332.857L38.4682 331.023L35.155 328.896L32.119 326.487L29.3619 323.794L26.8917 320.832L24.7084 317.599L22.8187 314.108L21.2257 310.359L19.9294 306.366L18.9299 302.135L18.2288 297.677L17.8245 293.004L17.7169 288.123L17.906 283.039L18.3919 277.769L19.1729 272.315L20.2474 266.695L21.6121 260.914L23.2589 254.989L25.1846 248.929L27.3873 242.744L29.8624 236.447L32.6033 230.047L35.6083 223.56L38.8693 216.992L42.3798 210.358L46.1316 203.671L50.1165 196.94L54.3297 190.18L58.7597 183.402L63.4034 176.619L68.2509 169.838L73.294 163.076L78.5214 156.342L83.9265 149.649L89.4946 143.008L95.221 136.431L101.091 129.928L107.099 123.512L113.233 117.196L119.483 110.985L125.837 104.895L132.285 98.9357L138.814 93.1149L145.413 87.4424L152.072 81.9313L158.778 76.5914L165.522 71.4325L172.288 66.4628L179.068 61.6886L185.851 57.1232L192.62 52.7698L199.367 48.6381L206.079 44.738L212.742 41.0742L219.349 37.66L225.884 34.4968L232.338 31.5912L238.697 28.9466L244.95 26.5711L251.089 24.4692L257.097 22.6447L262.965 21.1039L268.68 19.8534L274.235 18.8929L279.616 18.2244L284.815 17.8511L289.823 17.7711L294.629 17.9864L299.221 18.5016L303.589 19.3153L307.727 20.4306L311.622 21.8442L315.272 23.5528L318.666 25.5551L321.798 27.846L324.661 30.4222L327.249 33.2837L329.55 36.4257L331.563 39.8448L333.28 43.5347L334.702 47.4871L335.821 51.6936L336.637 56.1499L337.148 60.8473L337.345 65.7764L337.233 70.9303Z" fill="#0E0C15"/>
  <path d="M315.508 78.4061L315.104 83.1931L314.421 88.1645L313.462 93.3071L312.228 98.6112L310.719 104.065L308.941 109.663L306.893 115.389L304.576 121.234L301.998 127.187L299.161 133.24L296.071 139.375L292.735 145.581L289.159 151.847L285.354 158.16L281.32 164.506L277.068 170.872L272.605 177.245L267.94 183.616L263.083 189.966L258.045 196.286L253.35 201.942L252.837 202.564L247.467 208.781L241.948 214.929L236.29 220.995L230.504 226.964L224.603 232.826L218.598 238.567L212.503 244.176L206.33 249.644L200.09 254.958L193.8 260.107L187.47 265.08L181.114 269.864L174.744 274.454L168.372 278.84L162.015 283.012L155.682 286.965L149.388 290.689L143.147 294.178L136.969 297.421L130.869 300.416L124.856 303.156L118.943 305.634L113.144 307.85L107.466 309.8L101.923 311.483L96.5257 312.888L91.2837 314.021L86.2095 314.872L81.3116 315.446L76.5962 315.743L72.0732 315.763L67.7524 315.505L63.6386 314.975L59.7417 314.173L56.0682 313.098L52.6262 311.753L49.4206 310.142L46.4581 308.272L43.7384 306.146L41.2665 303.772L39.0475 301.152L37.0859 298.293L35.3853 295.2L33.9504 291.878L32.7798 288.336L31.8732 284.583L31.2324 280.625L30.8574 276.471L30.7465 272.131L30.9014 267.609L31.3221 262.92L32.0069 258.064L32.9526 253.059L34.1591 247.909L35.6184 242.628L37.3289 237.223L39.2855 231.709L41.4867 226.09L43.9275 220.382L46.6048 214.587L49.5136 208.724L52.6425 202.8L55.9916 196.826L59.5477 190.811L63.3076 184.772L67.2664 178.713L71.4144 172.647L75.7467 166.587L80.2534 160.541L84.928 154.519L89.7576 148.532L94.7388 142.592L99.8584 136.709L105.109 130.892L110.483 125.152L115.969 119.503L121.56 113.948L127.244 108.502L133.011 103.172L138.852 97.9639L144.754 92.893L150.709 87.9657L156.707 83.1899L162.737 78.5788L168.786 74.1374L174.85 69.8737L180.911 65.7926L186.961 61.907L192.989 58.2172L198.988 54.7361L204.939 51.4686L210.838 48.4228L216.674 45.6037L222.433 43.0177L228.107 40.6633L233.687 38.5502L239.16 36.6833L244.516 35.0641L249.747 33.701L254.837 32.5957L259.784 31.7511L264.575 31.1672L269.2 30.8461L273.653 30.7889L277.924 30.996L282.005 31.4706L285.884 32.2124L289.554 33.2216L293.009 34.4984L296.242 36.0359L299.246 37.8359L302.016 39.892L304.545 42.2058L306.828 44.7688L308.856 47.5832L310.625 50.6437L312.132 53.9437L313.372 57.4769L314.344 61.2368L315.047 65.2169L315.477 69.4106L315.632 73.8081L315.508 78.4061Z" fill="#0E0C15"/>
  <path d="M295.875 88.9259L295.505 93.1146L294.892 97.4614L294.035 101.957L292.942 106.592L291.611 111.357L290.044 116.243L288.242 121.244L286.209 126.346L283.949 131.541L281.461 136.82L278.758 142.171L275.839 147.585L272.715 153.047L269.387 158.55L265.865 164.08L262.153 169.629L258.258 175.181L254.188 180.731L249.952 186.265L245.558 191.771L241.017 197.238L236.337 202.655L231.527 208.013L226.596 213.295L221.557 218.495L216.414 223.602L211.182 228.602L205.871 233.492L200.495 238.258L195.061 242.891L189.581 247.379L184.067 251.716L178.526 255.891L172.976 259.895L167.426 263.723L161.885 267.366L156.364 270.819L150.878 274.075L145.437 277.126L140.048 279.965L134.726 282.587L129.482 284.987L124.323 287.162L119.259 289.109L114.302 290.824L109.461 292.306L104.744 293.55L100.164 294.553L95.7278 295.314L91.4445 295.835L87.3177 296.11L83.3588 296.146L79.5745 295.942L75.9711 295.499L72.5551 294.815L69.3333 293.896L66.3119 292.74L63.4977 291.351L60.8921 289.736L58.4986 287.897L56.3235 285.84L54.3686 283.568L52.6386 281.085L51.1353 278.398L49.8619 275.51L48.8233 272.427L48.0145 269.159L47.4373 265.709L47.0916 262.09L46.9808 258.304L47.0998 254.359L47.4536 250.265L48.039 246.024L48.8542 241.651L49.8961 237.15L51.1614 232.532L52.6484 227.807L54.3506 222.981L56.2681 218.063L58.3975 213.064L60.7357 207.993L63.2727 202.857L66.0103 197.667L68.9371 192.432L72.0497 187.163L75.3401 181.868L78.8048 176.557L82.4376 171.238L86.2334 165.923L90.1825 160.62L94.2799 155.339L98.5143 150.087L102.879 144.878L107.37 139.716L111.974 134.616L116.688 129.579L121.499 124.624L126.404 119.752L131.39 114.975L136.45 110.297L141.573 105.731L146.749 101.285L151.975 96.9658L157.234 92.7803L162.523 88.74L167.83 84.8479L173.144 81.1125L178.458 77.54L183.763 74.1356L189.048 70.9088L194.303 67.8647L199.519 65.0064L204.686 62.3471L209.796 59.885L214.839 57.6267L219.805 55.5756L224.687 53.7364L229.476 52.1108L234.16 50.7069L238.731 49.5248L243.182 48.5693L247.501 47.8437L251.685 47.3481L255.724 47.0823L259.608 47.0465L263.332 47.2453L266.889 47.6758L270.268 48.341L273.462 49.2394L276.469 50.3711L279.279 51.7342L281.888 53.3221L284.293 55.137L286.485 57.1752L288.461 59.4317L290.215 61.9069L291.743 64.5955L293.039 67.4929L294.104 70.5925L294.936 73.8893L295.529 77.3787L295.885 81.0505L296.002 84.9018L295.875 88.9259Z" fill="#0E0C15"/>
  <path d="M278.969 102.131L278.638 105.72L278.1 109.444L277.358 113.293L276.413 117.259L275.265 121.338L273.915 125.519L272.367 129.792L270.621 134.154L268.683 138.594L266.55 143.104L264.233 147.674L261.737 152.296L259.063 156.96L256.217 161.657L253.206 166.377L250.035 171.111L247.326 174.97L246.707 175.851L243.232 180.584L239.614 185.304L235.866 190.002L231.99 194.663L227.998 199.284L223.894 203.851L219.688 208.358L215.388 212.794L211.002 217.148L206.541 221.416L202.011 225.587L197.425 229.652L192.791 233.604L188.115 237.436L183.412 241.137L178.687 244.702L174.94 247.408L174.911 247.431L173.952 248.122L169.216 251.392L164.487 254.506L159.777 257.459L155.092 260.242L150.447 262.852L145.846 265.282L141.3 267.529L136.818 269.585L132.409 271.453L128.08 273.124L123.84 274.602L119.701 275.878L115.665 276.953L111.744 277.822L107.943 278.486L104.273 278.94L100.738 279.192L97.3433 279.234L94.0953 279.074L91.0039 278.709L88.069 278.138L85.2987 277.367L82.703 276.392L80.2817 275.22L78.0365 273.852L75.974 272.291L74.0973 270.545L72.4081 268.615L70.9096 266.503L69.6068 264.212L68.5014 261.753L67.5948 259.125L66.8856 256.335L66.3752 253.392L66.0638 250.299L65.9528 247.064L66.041 243.692L66.3295 240.192L66.8154 236.565L67.5002 232.822L68.3807 228.967L69.4519 225.013L70.7139 220.966L72.1634 216.83L73.7973 212.617L75.6136 208.332L77.6093 203.982L79.7778 199.576L82.1177 195.123L84.6221 190.633L87.2863 186.11L90.1054 181.565L93.073 177.007L96.1872 172.441L99.4418 167.876L102.828 163.322L106.342 158.787L109.978 154.277L113.723 149.802L117.578 145.37L121.53 140.987L125.577 136.663L129.71 132.406L133.922 128.224L138.204 124.121L142.549 120.105L146.95 116.187L151.396 112.37L155.881 108.664L160.399 105.072L164.94 101.604L169.496 98.2682L174.061 95.0659L178.624 92.0038L183.176 89.0884L187.712 86.3264L192.22 83.7192L196.696 81.2751L201.129 79.0005L205.512 76.8973L209.836 74.9699L214.093 73.2204L218.277 71.6552L222.38 70.2725L226.392 69.0805L230.307 68.0811L234.118 67.2772L237.814 66.669L241.391 66.2582L244.843 66.0446L248.163 66.0316L251.345 66.2175L254.381 66.6023L257.266 67.1876L259.992 67.9735L262.552 68.9583L264.947 70.1404L267.169 71.5182L269.214 73.0868L271.078 74.846L272.754 76.7928L274.241 78.9255L275.532 81.2409L276.628 83.7322L277.523 86.3982L278.219 89.2303L278.713 92.2255L279.005 95.3774L279.09 98.6807L278.969 102.131Z" fill="#0E0C15"/>
  <path d="M265.293 117.599L265.009 120.609L264.551 123.729L263.922 126.95L263.124 130.272L262.159 133.683L261.024 137.178L259.726 140.752L258.262 144.398L256.637 148.108L254.853 151.874L252.916 155.693L250.827 159.552L248.592 163.444L247.385 165.437L246.214 167.364L243.7 171.303L241.052 175.252L238.276 179.206L235.375 183.154L232.359 187.09L229.231 191.006L225.998 194.895L222.668 198.746L219.246 202.557L215.74 206.313L212.155 210.009L208.498 213.641L204.779 217.2L201.002 220.676L197.177 224.068L193.313 227.365L189.416 230.56L185.493 233.649L181.552 236.621L177.605 239.476L173.652 242.205L169.707 244.804L165.775 247.271L165.425 247.478L165.407 247.49L165.399 247.495L161.867 249.598L157.988 251.778L154.145 253.811L150.349 255.69L146.604 257.413L142.921 258.977L139.303 260.381L135.758 261.62L132.293 262.691L128.916 263.596L125.634 264.331L122.453 264.894L119.376 265.283L116.414 265.5L113.569 265.548L110.844 265.422L108.247 265.127L105.781 264.661L103.456 264.025L101.271 263.219L99.2316 262.249L97.3403 261.114L95.602 259.82L94.0173 258.365L92.5889 256.761L91.3221 255.001L90.2149 253.095L89.2741 251.043L88.5013 248.851L87.8914 246.523L87.4495 244.066L87.1756 241.483L87.068 238.78L87.1284 235.961L87.3533 233.032L87.7496 229.998L88.3089 226.866L89.0344 223.639L89.9198 220.327L90.9665 216.936L92.1699 213.473L93.5297 209.941L95.0412 206.349L96.7059 202.702L98.5174 199.009L100.471 195.275L102.563 191.507L104.792 187.713L107.151 183.899L109.634 180.072L112.243 176.24L114.968 172.41L117.808 168.588L120.754 164.781L123.8 160.995L126.942 157.24L130.175 153.518L133.492 149.839L136.886 146.21L140.354 142.637L143.889 139.125L147.485 135.683L151.13 132.315L154.825 129.028L158.557 125.827L162.324 122.716L166.116 119.706L169.928 116.8L173.752 114.004L177.582 111.322L181.41 108.759L185.232 106.32L189.038 104.008L192.821 101.826L196.574 99.7846L200.292 97.8866L203.967 96.1322L207.591 94.5262L211.16 93.0701L214.666 91.7658L218.101 90.6195L221.464 89.6314L224.741 88.8064L227.928 88.1461L231.023 87.6504L234.015 87.3194L236.903 87.1548L239.678 87.158L242.337 87.326L244.873 87.6635L247.279 88.1689L249.554 88.8423L251.691 89.682L253.687 90.6864L255.536 91.8539L257.24 93.1827L258.79 94.6681L260.183 96.3116L261.416 98.1084L262.488 100.058L263.395 102.155L264.134 104.397L264.706 106.776L265.109 109.292L265.342 111.938L265.404 114.707L265.293 117.599Z" fill="#0E0C15"/>
  <path d="M167.534 244.359L164.992 245.704L164.676 245.87L161.579 247.405L159.831 248.21L159.828 248.21L159.737 248.253L159.732 248.254L159.706 248.267L159.65 248.293L159.623 248.305L158.525 248.812L155.517 250.089L152.564 251.235L149.67 252.251L146.84 253.128L144.081 253.871L141.397 254.475L138.795 254.938L136.28 255.26L133.854 255.443L131.523 255.486L129.29 255.389L127.161 255.154L125.139 254.779L123.23 254.266L121.435 253.615L119.759 252.829L118.205 251.908L116.772 250.856L115.464 249.676L114.285 248.37L113.237 246.937L112.32 245.385L111.539 243.713L110.893 241.926L110.383 240.03L110.008 238.024L109.772 235.916L109.671 233.708L109.705 231.408L109.879 229.016L110.191 226.536L110.638 223.976L111.22 221.34L111.934 218.63L112.778 215.858L113.753 213.024L114.857 210.133L116.085 207.193L117.438 204.21L118.912 201.183L120.505 198.126L122.212 195.04L124.03 191.933L125.954 188.81L127.986 185.676L130.115 182.535L132.344 179.397L134.666 176.266L137.074 173.147L139.569 170.046L142.14 166.969L144.785 163.92L147.501 160.907L150.283 157.933L153.122 155.006L156.018 152.13L158.961 149.311L161.949 146.553L164.975 143.86L168.034 141.241L171.121 138.696L174.227 136.232L177.349 133.857L180.483 131.571L183.622 129.378L186.759 127.284L189.888 125.29L193.004 123.404L196.103 121.625L199.178 119.962L202.221 118.413L205.229 116.986L208.195 115.68L211.117 114.496L213.985 113.441L216.796 112.512L219.545 111.716L222.226 111.051L224.831 110.523L227.358 110.128L229.806 109.869L232.163 109.748L234.43 109.761L236.6 109.913L238.669 110.201L240.632 110.629L242.486 111.191L244.227 111.889L245.853 112.726L247.36 113.691L248.744 114.788L250.006 116.014L251.139 117.369L252.14 118.85L253.009 120.452L253.741 122.176L254.34 124.017L254.8 125.97L255.124 128.033L255.308 130.2L255.352 132.471L255.258 134.838L255.02 137.3L254.643 139.852L254.125 142.487L253.471 145.202L252.677 147.988L251.749 150.843L250.686 153.762L249.491 156.738L248.17 159.751L248.162 159.765L248.146 159.801L248.139 159.818L248.062 159.976L246.706 162.839L246.081 164.07L246.047 164.137L245.126 165.952L243.836 168.33" fill="#0E0C15"/>
  <path d="M248.559 158.296L248.508 158.437L248.484 158.504L248.425 158.664L248.405 158.72L248.404 158.724L248.36 158.847L248.355 158.858L248.112 159.525" fill="#0E0C15"/>
  <path d="M248.726 157.725L248.555 158.255L248.449 158.576L248.444 158.59L248.426 158.651L248.364 158.84L248.36 158.855" fill="#0E0C15"/>
  <path d="M248.777 157.385L248.438 158.572L248.43 158.6" fill="#0E0C15"/>
  <path d="M248.754 157.245L248.413 158.658L248.754 157.245Z" fill="#0E0C15"/>
  <path d="M158.704 248.493L158.535 248.532L156.457 248.904L154.447 249.163L152.508 249.311L150.645 249.349L148.858 249.274L147.154 249.09L145.535 248.794L144.004 248.388L142.564 247.872L141.219 247.247L139.97 246.517L138.819 245.682L137.765 244.743L136.815 243.704L135.969 242.564L135.228 241.328L134.594 239.999L134.067 238.576L133.65 237.063L133.34 235.465L133.14 233.784L133.05 232.025L133.068 230.19L133.197 228.281L133.435 226.302L133.782 224.259L134.237 222.154L134.798 219.992L135.465 217.776L136.234 215.513L137.107 213.206L138.08 210.856L139.155 208.471L140.325 206.054L141.592 203.61L142.95 201.143L144.397 198.66L145.929 196.162L147.548 193.656L149.246 191.146L151.025 188.637L152.875 186.134L154.799 183.64L156.79 181.16L158.843 178.699L160.954 176.262L163.124 173.853L165.345 171.476L167.617 169.136L169.93 166.839L172.285 164.586L174.672 162.381L177.091 160.232L179.537 158.139L182.002 156.107L184.487 154.141L186.985 152.246L189.491 150.422L191.999 148.674L194.507 147.004L197.008 145.416L199.501 143.914L201.978 142.497L204.435 141.175L206.868 139.946L209.271 138.811L211.642 137.774L213.975 136.839L216.266 136.003L218.511 135.271L220.707 134.643L222.846 134.121L224.927 133.707L226.944 133.402L228.894 133.207L230.777 133.12L232.584 133.143L234.314 133.272L235.964 133.513L237.527 133.864L239.005 134.324L240.392 134.893L241.687 135.568L242.885 136.349L243.987 137.236L244.989 138.224L245.889 139.313L246.684 140.503L247.374 141.79L247.956 143.174L248.429 144.648L248.793 146.215L249.049 147.867L249.192 149.601L249.225 151.418L249.146 153.309L248.956 155.277L248.652 157.315L248.351 158.846" fill="#0E0C15"/>
  <path d="M248.288 159.082L248.249 159.183L247.678 160.598" fill="#0E0C15"/>
  <path d="M508.588 244.473L506.107 252.218L503.261 260.121L500.054 268.164L496.492 276.331L492.583 284.609L488.336 292.976L483.757 301.415L478.859 309.913L473.645 318.447L468.127 327.004L462.316 335.564L456.222 344.108L449.859 352.619L443.243 361.082L436.385 369.475L429.3 377.783L422.004 385.986L414.509 394.068L406.829 402.009L398.985 409.794L390.992 417.409L382.864 424.836L374.625 432.06L366.288 439.067L357.872 445.84L349.395 452.367L340.872 458.629L332.323 464.618L323.765 470.32L315.218 475.73L306.698 480.832L298.223 485.616L289.813 490.074L281.483 494.197L273.25 497.975L265.132 501.401L257.144 504.471L249.303 507.182L241.62 509.53" fill="#0E0C15"/>
  <path d="M518.089 189.988L517.419 197.177L516.349 204.612L514.882 212.275L513.018 220.155L510.758 228.236L508.105 236.501L505.063 244.937L501.634 253.525L497.824 262.25L493.643 271.09L489.099 280.034L484.201 289.054L478.957 298.139L473.376 307.265L467.47 316.415L461.25 325.57L454.725 334.711L447.912 343.819L440.828 352.876L433.486 361.859L425.899 370.75L418.086 379.532L410.062 388.181L401.839 396.684L393.441 405.018L384.882 413.172L376.183 421.124L367.366 428.859L358.442 436.361L349.434 443.615L340.363 450.602L331.245 457.306L322.098 463.718L312.946 469.824L303.806 475.612L294.696 481.073L285.637 486.192L276.648 490.965L267.747 495.375L258.954 499.414L250.283 503.079L241.754 506.362L233.383 509.261L225.186 511.77L217.181 513.886L209.384 515.605L201.81 516.924L194.471 517.839L187.386 518.352" fill="#0E0C15"/>
  <path d="M515.216 143.756L516.188 150.122L516.745 156.8L516.884 163.777L516.599 171.044L515.891 178.587L514.761 186.389L513.214 194.435L511.246 202.713L508.864 211.203L506.067 219.889L502.86 228.757L499.242 237.789L495.224 246.965L490.815 256.265L486.022 265.673L480.856 275.169L475.327 284.732L469.441 294.342L463.213 303.979L456.652 313.621L449.771 323.251L442.585 332.847L435.114 342.388L427.37 351.855L419.37 361.227L411.131 370.483L402.669 379.601L394.001 388.566L385.146 397.356L376.125 405.95L366.955 414.337L357.658 422.493L348.255 430.406L338.762 438.053L329.204 445.423L319.595 452.494L309.962 459.254L300.323 465.695L290.7 471.799L281.107 477.557L271.572 482.96L262.11 487.99L252.746 492.642L243.495 496.901L234.377 500.765L225.409 504.228L216.61 507.285L207.997 509.933L199.587 512.164L191.399 513.977L183.445 515.37L175.746 516.335L168.313 516.878L161.156 517L154.292 516.703L147.731 515.996" fill="#0E0C15"/>
  <path d="M506.336 112.036L508.177 117.927L509.597 124.164L510.597 130.736L511.166 137.632L511.299 144.842L510.994 152.353L510.251 160.154L509.07 168.225L507.455 176.552L505.405 185.117L502.922 193.907L500.01 202.9L496.67 212.087L492.907 221.443L488.728 230.953L484.142 240.594L479.159 250.348L473.786 260.195L468.036 270.11L461.918 280.078L455.443 290.075L448.623 300.081L441.47 310.075L434.004 320.036L426.238 329.941L418.19 339.769L409.877 349.5L401.319 359.112L392.526 368.584L383.522 377.894L374.323 387.025L364.951 395.953L355.429 404.667L345.776 413.142L336.011 421.364L326.156 429.311L316.235 436.97L306.264 444.319L296.268 451.348L286.264 458.041L276.279 464.387L266.332 470.376L256.444 475.991L246.633 481.223L236.926 486.059L227.338 490.491L217.889 494.51L208.601 498.115L199.488 501.296L190.569 504.052L181.864 506.379L173.388 508.27L165.159 509.723L157.196 510.734L149.511 511.306L142.115 511.443L135.024 511.145L128.248 510.417L121.801 509.263L115.693 507.685L109.936 505.687" fill="#0E0C15"/>
  <path d="M491.783 82.5322L494.486 87.7891L496.775 93.4174L498.64 99.4111L500.077 105.759L501.081 112.45L501.647 119.473L501.768 126.82L501.44 134.475L500.664 142.429L499.439 150.658L497.771 159.151L495.66 167.892L493.105 176.861L490.111 186.044L486.681 195.42L482.816 204.974L478.527 214.688L473.819 224.537L468.708 234.505L463.198 244.566L457.302 254.702L451.031 264.892L444.394 275.114L437.404 285.345L430.075 295.567L422.424 305.754L414.471 315.886L406.227 325.943L397.714 335.9L388.948 345.736L379.945 355.43L370.726 364.959L361.31 374.307L351.718 383.449L341.971 392.371L332.093 401.052L322.101 409.472L312.02 417.613L301.87 425.457L291.671 432.988L281.45 440.19L271.222 447.05L261.013 453.557L250.845 459.694L240.738 465.455L230.714 470.819L220.795 475.781L211.001 480.328L201.352 484.457L191.865 488.158L182.563 491.427L173.459 494.261L164.576 496.655L155.929 498.606L147.537 500.108L139.417 501.158L131.583 501.76L124.046 501.913L116.822 501.628L109.923 500.899L103.359 499.735L97.1415 498.138L91.2896 496.112L85.8063 493.661L80.7012 490.793" fill="#0E0C15"/>
  <path d="M164.078 246.157L164.018 246.136L162.961 245.65L161.978 245.081L161.072 244.429L160.243 243.698L159.493 242.886L158.823 241.997L158.236 241.035L157.734 239.995L157.315 238.885L156.979 237.704L156.73 236.457L156.565 235.144L156.485 233.77L156.492 232.335L156.585 230.843L156.764 229.297L157.028 227.7L157.375 226.054L157.807 224.364L158.321 222.63L158.916 220.861L159.591 219.055L160.346 217.217L161.181 215.352L162.091 213.46L163.076 211.55L164.132 209.619L165.26 207.676L166.456 205.721L167.716 203.759L169.042 201.794L170.429 199.833L171.874 197.873L173.375 195.921L174.931 193.981L176.535 192.054L178.187 190.148L179.883 188.263L181.621 186.404L183.395 184.575L185.205 182.778L187.046 181.015L188.914 179.293L190.807 177.612L192.721 175.975L194.65 174.389L196.594 172.853L198.549 171.371L200.51 169.947L202.473 168.584L204.435 167.282L206.393 166.044L208.343 164.873L210.282 163.773L212.204 162.741L214.109 161.785L215.989 160.903L217.842 160.099L219.667 159.374L221.46 158.728L223.217 158.162L224.932 157.676L226.606 157.277L228.232 156.962L229.81 156.731L231.335 156.585L232.804 156.525L234.216 156.551L235.568 156.66L236.856 156.856L238.079 157.14L239.231 157.507L240.314 157.96L241.323 158.496L242.259 159.113L243.118 159.812L243.899 160.593L244.601 161.451L245.222 162.388L245.758 163.401L246.063 164.13" fill="#0E0C15"/>
  <path d="M179.231 237.112L179.257 236.646L179.389 235.451L179.588 234.215L179.85 232.941L180.18 231.634L180.571 230.293L181.028 228.924L181.544 227.526L182.123 226.106L182.762 224.662L183.463 223.198L184.222 221.719L185.034 220.225L185.903 218.72L186.824 217.209L187.796 215.692L188.818 214.171L189.888 212.651L191.004 211.137L192.164 209.625L193.364 208.125L194.603 206.635L195.88 205.159L197.191 203.702L198.534 202.264L199.905 200.85L201.306 199.459L202.729 198.098L204.172 196.766L205.638 195.466L207.117 194.202L208.611 192.976L210.116 191.791L211.627 190.648L213.143 189.549L214.665 188.497L216.183 187.491L217.697 186.537L219.207 185.637L220.706 184.788L222.194 183.994L223.667 183.258L225.123 182.582L226.558 181.965L227.97 181.408L229.357 180.914L230.715 180.482L232.043 180.113L233.337 179.81L234.594 179.57L235.814 179.397L236.993 179.291L237.012 179.291" fill="#0E0C15"/>
  <path d="M165.001 245.699L163.129 246.626L160.155 247.995" fill="#0E0C15"/>
  <path d="M194.667 225.393L191.615 227.898L188.153 230.622L184.678 233.246L181.39 235.621L181.194 235.762" fill="#0E0C15"/>
  <path d="M181.381 235.624L179.228 237.112L178.62 237.531L175.23 239.766L171.85 241.887" fill="#0E0C15"/>
  <path d="M172.677 241.368L169.714 243.131L166.466 244.96" fill="#0E0C15"/>
  <path d="M459.859 343.31L454.253 351.169L448.405 358.997L442.321 366.779L436.016 374.497L429.504 382.134L422.796 389.676L415.905 397.105L408.847 404.405L401.635 411.561L394.288 418.559L386.817 425.388L379.244 432.029L371.577 438.469L363.839 444.698L356.043 450.696L348.204 456.455L340.34 461.961" fill="#0E0C15"/>
  <path d="M227.119 192.535L226.821 192.892L224.193 196.055L221.179 199.541L218.083 202.986L214.909 206.386L211.666 209.733L208.356 213.02L204.989 216.24L201.571 219.387L198.111 222.456L194.661 225.397L194.614 225.438" fill="#0E0C15"/>
  <path d="M237.147 179.122L237.031 179.287L236.627 179.864L234.698 182.608L232.14 186.092L229.477 189.564L226.821 192.888" fill="#0E0C15"/>
  <path d="M240.971 173.229L240.727 173.614L238.809 176.614L237.017 179.29L236.631 179.865" fill="#0E0C15"/>
  <path d="M244.151 167.792L243.838 168.333L242.278 171.051L240.724 173.616" fill="#0E0C15"/>
  <path d="M247.369 161.358L246.083 164.072L247.369 161.358Z" fill="#0E0C15"/>
  <path d="M247.905 160.099L247.685 160.597L247.025 162.105" fill="#0E0C15"/>
  <path d="M158.546 248.552L156.937 249.053L156.719 249.121" fill="#0E0C15"/>
  <path d="M159.142 248.339L159.034 248.379L159.033 248.38L158.71 248.491L158.689 248.499L158.553 248.547L158.243 248.654L157.242 249.006" fill="#0E0C15"/>
  <path d="M159.029 248.381L158.731 248.435L159.029 248.381Z" fill="#0E0C15"/>
  <path d="M160.148 247.947L159.144 248.335L159.056 248.371L159.054 248.369L158.844 248.452L158.813 248.464L158.787 248.474L158.684 248.514L158.661 248.524L158.657 248.526L158.645 248.531L157.986 248.785" fill="#0E0C15"/>
  <path d="M161.584 247.339L160.154 247.947L159.642 248.163L159.549 248.203L159.224 248.342L159.221 248.342L159.063 248.409L159.034 248.422L159.029 248.423L159.021 248.428L158.96 248.453" fill="#0E0C15"/>
  <path d="M54.9169 470.697L59.2508 474.375L63.9792 477.653L69.0974 480.521L74.597 482.971L80.4733 484.99L86.7116 486.578L93.3037 487.728L100.235 488.44L107.495 488.706L115.069 488.528L122.945 487.899L131.112 486.818L139.551 485.282L148.25 483.294L157.188 480.858L166.35 477.981L175.714 474.662L185.264 470.911L194.978 466.73L204.843 462.125L214.831 457.104L224.929 451.676L235.111 445.85L245.358 439.644L255.644 433.068L265.952 426.135L276.257 418.86L286.537 411.254L296.77 403.33L306.937 395.107L317.013 386.606L326.979 377.843L336.809 368.838L346.486 359.611L355.988 350.18L365.291 340.565L374.376 330.786L383.224 320.864L391.82 310.823L400.142 300.682L408.177 290.465L415.904 280.194L423.308 269.891L430.373 259.578L437.081 249.277L443.419 239.01L449.382 228.798L454.956 218.661L460.128 208.624L464.893 198.704L469.236 188.924L473.154 179.306L476.634 169.865L479.673 160.624L482.271 151.599L484.421 142.805L486.127 134.262L487.382 125.985L488.186 117.991L488.54 110.293L488.44 102.912L487.893 95.8553L486.903 89.1327L485.476 82.7622L483.619 76.7441L481.335 71.0977L478.631 65.8279L475.512 60.9446L471.985 56.4591M54.9169 470.697L53.0075 468.833L51.1423 466.922L47.2143 462.861L45.3996 460.912L43.6289 458.92L41.9071 456.885L40.2342 454.808L36.7352 450.392L35.116 448.284L33.5508 446.138L32.0344 443.954L30.5719 441.735L27.5115 436.991L26.1092 434.751L24.7625 432.475L23.4694 430.168L22.2319 427.831L19.6198 422.796L18.4475 420.447L17.3322 418.069L16.2741 415.664L15.2762 413.235L13.1141 407.939L12.1832 405.511L11.3124 403.059L10.5021 400.586L8.77045 395.042L8.03024 392.58L7.34869 390.098L6.72904 387.6L5.42467 381.838L4.87359 379.36L4.38764 376.868L3.96215 374.366L3.06863 368.418L2.71156 365.941L2.41814 363.459L2.18656 360.968L1.69409 354.866L1.52949 352.413L1.42838 349.957L1.31747 343.686L1.28 341.275L1.30767 338.863L1.39902 336.453L1.65827 330.086L1.80988 327.73L2.02678 325.377L2.63981 318.888L2.91373 316.599L3.88224 309.949L4.20995 307.727L4.60131 305.513L5.89757 298.787L6.33774 296.648L8.45085 287.739L9.00039 285.693L10.9194 278.81L11.5113 276.849L13.7305 269.882L14.3615 268.008L16.8707 260.976L17.5344 259.194L20.3226 252.111L21.0156 250.426L24.0695 243.306L24.7918 241.723L28.1001 234.583L31.6904 227.357L32.3932 225.956L36.2134 218.738L36.9308 217.446L40.9663 210.254L45.253 203.016L45.9311 201.921L50.4085 194.734L55.119 187.528L60.0562 180.318L60.622 179.505L65.7156 172.383L71.0132 165.279L76.5047 158.209L82.1788 151.178L82.5457 150.733L88.3258 143.841L94.2673 137.016L100.36 130.267L106.596 123.608L112.961 117.053L119.447 110.61L126.043 104.288L132.732 98.1036L139.509 92.0611L146.357 86.1749L153.267 80.4552L153.743 80.0639L160.787 74.4549L167.87 69.0351L174.977 63.8159L182.101 58.8021L182.947 58.2103L190.152 53.3563L197.349 48.7289L198.396 48.0799L205.65 43.6368L212.868 39.4416L214.111 38.7502L221.361 34.7669L228.547 31.0477L229.979 30.3303L237.169 26.8475L238.705 26.1465L245.882 22.9116L252.962 19.9669L254.674 19.2592L261.71 16.5837L263.521 15.907L270.5 13.5101L272.401 12.8709L279.308 10.7676L281.295 10.1661L283.302 9.62634L290.185 7.81143L292.272 7.31578L299.045 5.82237L301.21 5.37559L303.385 4.9907L310.093 3.81679L312.338 3.48575L318.903 2.65427L321.215 2.37717L323.532 2.16355L329.99 1.67925L332.366 1.52435L334.743 1.43294L341.073 1.30899L343.502 1.27979L345.933 1.31407L354.581 1.66293L357.052 1.82753L359.517 2.05254L365.558 2.69334L368.056 2.98696L370.547 3.34557L373.027 3.76469L378.9 4.81132L381.406 5.29901L383.898 5.84994L386.376 6.46317L392.049 7.93215L394.541 8.61544L397.017 9.35893L399.472 10.161L404.915 12.059L407.377 12.9329L409.816 13.8655L412.233 14.8568L414.625 15.9053L419.831 18.2484L422.216 19.3652L424.574 20.5391L426.902 21.7686L429.199 23.055L434.135 25.8417L436.416 27.1901L438.664 28.5939L440.877 30.0498L443.055 31.5597L447.684 34.7866L449.837 36.355L451.948 37.9741L454.021 39.6421L456.054 41.3591L460.344 45.0228L462.341 46.7917L464.293 48.6065L466.2 50.4687L468.064 52.3747L471.985 56.4591M54.9169 470.697L56.8686 472.512L58.8627 474.281L63.1997 477.963L65.2363 479.683L67.3119 481.354L69.4234 482.973L71.5741 484.54L78.4841 489.334L80.6999 490.793L82.9516 492.197L85.2327 493.545L90.3232 496.405L92.6253 497.693L94.9586 498.924L97.3179 500.1L99.7033 501.213L105.126 503.64L107.525 504.691L109.943 505.681L112.387 506.612L114.847 507.481L120.567 509.467L123.029 510.269L125.509 511.008L128.002 511.685L134.003 513.237L136.486 513.845L138.982 514.391L141.488 514.872L147.735 515.996L150.221 516.408L152.714 516.755L155.214 517.041L161.672 517.74L164.139 517.957L166.609 518.109L173.285 518.399L175.714 518.484L178.143 518.507L187.393 518.348L189.767 518.241L199.121 517.564L201.432 517.331L208.609 516.437L210.853 516.147L213.087 515.795L220.378 514.527L222.537 514.119L224.683 513.649L232.061 512.024L234.123 511.507L241.627 509.524L243.605 508.962L251.214 506.635L253.097 506.033L260.795 503.371L262.58 502.733L270.342 499.749L272.026 499.079L279.834 495.784L281.409 495.089L289.246 491.496L290.711 490.78L298.554 486.899L306.47 482.704L307.734 482.018L315.624 477.565L323.553 472.818L324.605 472.178L332.47 467.205L340.342 461.958L341.175 461.382L348.95 455.939L356.698 450.246L364.403 444.317L372.052 438.162L372.483 437.807L379.97 431.516L387.367 425.028L394.664 418.361L401.841 411.526L408.883 404.536L415.776 397.406L422.505 390.152L429.056 382.785L435.417 375.326L435.743 374.931L441.974 367.304L447.988 359.611L453.769 351.873L459.31 344.105L459.861 343.306L465.206 335.431L470.28 327.559L475.077 319.703L475.749 318.598L480.306 310.688L485.28 301.513L489.277 293.636L489.976 292.203L493.695 284.326L494.375 282.782L497.801 274.925L500.886 267.189L501.572 265.456L504.338 257.777L504.992 255.946L507.427 248.344L508.042 246.415L508.595 244.467L510.71 236.893L511.22 234.857L512.981 227.402L513.444 225.283L514.845 217.966L515.256 215.769L515.603 213.559L516.642 206.344L516.935 204.065L517.163 201.776L517.822 194.69L517.992 192.342L518.096 189.984L518.365 183.056L518.406 180.648L518.383 178.238L518.247 171.492L518.16 169.037L518.005 166.583L517.46 160.048L517.238 157.56L516.955 155.075L516.606 152.593L515.639 146.262L515.22 143.756L514.74 141.261L514.194 138.778L512.802 132.677L512.187 130.177L511.51 127.694L510.772 125.224L508.949 119.39L508.14 116.918L507.273 114.462L506.343 112.03L504.09 106.493L503.094 104.065L502.037 101.658L500.923 99.2792L499.751 96.9231L497.061 91.7022L495.826 89.3659L494.533 87.0554L493.183 84.7791L491.781 82.5323L488.665 77.662L487.203 75.4431L485.688 73.2597L484.118 71.1124L482.499 69.0008L478.969 64.5122L477.296 62.4381L475.576 60.405L473.805 58.409L471.985 56.4591M447.681 34.7899L451.938 38.4242L455.811 42.463L459.289 46.8995L462.36 51.7291L465.021 56.9467L467.262 62.5392L469.081 68.4971L470.471 74.8104L471.426 81.4726L471.943 88.4657L472.013 95.7851L471.635 103.416L470.806 111.343L469.53 119.553L467.81 128.03L465.644 136.753L463.037 145.709L459.991 154.879L456.509 164.248L452.59 173.798L448.248 183.504L443.491 193.353L438.328 203.321L432.767 213.386L426.82 223.53L420.502 233.729L413.817 243.962L406.778 254.206L399.404 264.444L391.708 274.651L383.71 284.804L375.427 294.884L366.872 304.867L358.067 314.732L349.029 324.454L339.773 334.017L330.324 343.398L320.703 352.576L310.926 361.534L301.019 370.253L291.005 378.716L280.901 386.899L270.73 394.788L260.514 402.365L250.275 409.614L240.035 416.52L229.815 423.075L219.64 429.263L209.527 435.071L199.499 440.487L189.581 445.501L179.79 450.101L170.144 454.281L160.666 458.033L151.372 461.356L142.282 464.244L133.412 466.689L124.784 468.692L116.411 470.245L108.311 471.348L100.501 472L92.9904 472.205L85.7951 471.969L78.9242 471.291L72.3941 470.174L66.2111 468.625L60.3935 466.645L54.9477 464.239L49.8833 461.415L45.2054 458.185L40.9205 454.555L37.0301 450.538L33.5474 446.142M419.828 18.2529L424.691 20.997L429.2 24.1455L433.34 27.6918L437.108 31.6327L440.484 35.9649L443.462 40.6836L446.038 45.7804L448.203 51.246L449.951 57.0702L451.281 63.2432L452.186 69.7537L452.658 76.5937L452.695 83.7499L452.291 91.2143L451.45 98.969L450.168 107.001L448.451 115.292L446.299 123.826L443.716 132.588L440.703 141.563L437.261 150.731L433.398 160.075L429.117 169.578L424.43 179.217L419.348 188.973L413.88 198.827L408.033 208.757L401.82 218.742L395.253 228.76L388.341 238.792L381.1 248.818L373.547 258.813L365.698 268.759L357.572 278.634L349.181 288.413L340.546 298.079L331.683 307.608L322.611 316.98L313.348 326.174L303.917 335.175L294.338 343.958L284.632 352.51L274.819 360.809L264.924 368.839L254.961 376.581L244.957 384.019L234.931 391.136L224.903 397.923L214.897 404.361L204.934 410.443L195.036 416.155L185.22 421.487L175.51 426.422L165.928 430.953L156.487 435.075L147.213 438.78L138.118 442.063L129.222 444.92L120.546 447.348L112.104 449.34L103.912 450.893L95.991 452.005L88.3521 452.675L81.0067 452.908L73.9678 452.707L67.2519 452.076L60.8652 451.015L54.8241 449.529L49.137 447.622L43.8167 445.295L38.8681 442.561L34.2979 439.425L30.1123 435.899L26.3198 431.992L22.9202 427.712L19.9217 423.07L17.3292 418.074M383.9 5.85011L389.541 7.31108L394.866 9.16988L399.867 11.4216L404.537 14.0663L408.861 17.099L412.833 20.5164L416.438 24.314L419.666 28.4914L422.512 33.042L424.964 37.9564L427.021 43.2261L428.677 48.8432L429.924 54.796L430.762 61.0769L431.186 67.6737L431.186 74.5774L430.762 81.7777L429.912 89.2567L428.642 97.0033L426.951 105.001L424.843 113.233L422.316 121.686L419.376 130.342L416.025 139.188L412.265 148.201L408.106 157.366L403.557 166.666L398.623 176.078L393.321 185.583L387.655 195.163L381.637 204.797L375.278 214.463L368.589 224.145L361.583 233.818L354.277 243.466L346.687 253.065L338.831 262.593L334.905 267.162L334.902 267.169L334.898 267.172L330.721 272.034L322.378 281.365L313.816 290.566L305.052 299.617L296.107 308.497L286.999 317.191L277.753 325.677L268.381 333.941L258.909 341.964L249.356 349.727L239.742 357.215L230.09 364.408L220.414 371.295L210.739 377.863L201.085 384.1L191.473 389.994L181.923 395.53L172.455 400.7L163.086 405.49L153.841 409.893L144.736 413.897L135.788 417.504L127.016 420.703L118.435 423.493L110.066 425.868L101.923 427.825L94.0215 429.358L86.3793 430.465L79.0111 431.148L71.9265 431.407L65.1387 431.249L58.6591 430.672L52.5009 429.682L46.6734 428.283L41.19 426.475L36.0589 424.262L31.288 421.653L26.8808 418.658L22.8485 415.285L19.1897 411.541L15.9157 407.439L13.0264 402.984L10.5317 398.187L8.43331 393.053L6.73101 387.601M352.114 1.55892L358.027 2.18509L363.66 3.19096L369.006 4.57854L374.05 6.34438L378.783 8.48859L383.198 11.0028L387.284 13.8887L391.031 17.14L394.431 20.7546L397.472 24.7282L400.144 29.0573L402.443 33.7335L404.365 38.7473L405.906 44.0905L407.059 49.7531L407.82 55.7256L408.186 61.9998L408.151 68.5659L407.713 75.4124L406.871 82.5246L405.627 89.8896L403.987 97.4941L401.946 105.32L399.513 113.356L396.684 121.585L393.469 129.992L389.864 138.56L385.881 147.272L381.527 156.109L376.813 165.056L371.747 174.09L366.337 183.195L360.596 192.35L354.531 201.54L348.152 210.739L341.477 219.935L334.515 229.105L327.289 238.229L319.806 247.29L312.086 256.266L304.145 265.139L295.999 273.888L287.662 282.495L279.153 290.943L270.492 299.213L261.697 307.29L252.788 315.156L243.784 322.793L234.702 330.186L225.563 337.316L216.387 344.171L207.189 350.737L197.995 356.999L188.82 362.949L179.684 368.573L170.607 373.86L161.609 378.799L152.705 383.379L143.918 387.591L135.263 391.429L126.76 394.887L118.42 397.961L110.264 400.645L102.307 402.937L94.5641 404.83L87.0525 406.322L79.7869 407.411L72.7791 408.093L66.0418 408.376L59.5867 408.261L53.4234 407.749L47.5667 406.842L42.023 405.548L36.8054 403.862L31.9237 401.791L27.386 399.343L23.1956 396.526L19.3558 393.348L15.8763 389.816L12.7604 385.944L10.013 381.732L7.63905 377.193L5.64163 372.336L4.02417 367.17L2.78507 361.708L1.92086 355.966L1.43501 349.952M301.21 5.37222L307.856 4.21125L314.303 3.3961L320.536 2.92806L326.545 2.81237L332.318 3.04883L337.842 3.63897L343.102 4.58464L348.09 5.89066L352.794 7.55215L357.205 9.56585L361.315 11.9284L365.117 14.6384L368.599 17.6923L371.754 21.0854L374.571 24.8126L377.043 28.8759L379.166 33.2619L380.932 37.9658L382.34 42.9747L383.386 48.2852L384.064 53.8844L384.372 59.7656L384.305 65.9175L383.86 72.3335L383.038 78.9957L381.841 85.8961L380.27 93.0179L378.33 100.349L376.021 107.872L373.342 115.576L370.301 123.446L366.898 131.467L363.144 139.623L359.044 147.894L354.607 156.267L349.843 164.719L344.759 173.24L339.364 181.808L333.67 190.408L327.683 199.017L321.42 207.621L314.893 216.202L308.115 224.741L301.104 233.22L293.871 241.62L286.431 249.927L278.802 258.117L270.994 266.177L263.027 274.085L254.919 281.831L246.685 289.397L238.346 296.767L229.918 303.923L221.42 310.853L212.868 317.539L204.28 323.968L195.674 330.128L187.07 336.006L178.484 341.592L169.935 346.877L161.44 351.847L153.019 356.495L144.687 360.806L136.463 364.775L128.361 368.396L120.401 371.661L112.592 374.568L104.955 377.111L97.5054 379.288L90.2545 381.093L83.2189 382.523L76.4116 383.574L69.8472 384.25L63.5339 384.55L57.4831 384.476L51.7079 384.029L46.2148 383.216L41.0168 382.035L36.1237 380.491L31.5468 378.585L27.2863 376.324L23.3552 373.716L19.7535 370.77L16.4859 367.493L13.5591 363.891L10.9781 359.973L8.74754 355.744L6.87083 351.216L5.34955 346.398L4.18544 341.301L3.37015 335.936L2.91197 330.316L2.80603 324.454L3.05224 318.358L3.65059 312.04L4.60118 305.51M237.173 26.8411L244.274 23.6405L251.275 20.7285L258.162 18.1066L264.924 15.7864L271.544 13.7712L278.012 12.0671L284.315 10.6814L290.441 9.61329L296.383 8.86651L302.122 8.44256L307.653 8.34155L312.965 8.56646L318.042 9.12092L322.878 10.0046L327.46 11.2177L331.774 12.7602L335.821 14.6288L339.589 16.8186L343.069 19.3296L346.253 22.155L349.133 25.2955L351.702 28.7457L353.951 32.5006L355.876 36.5557L357.473 40.901L358.74 45.53L359.672 50.4344L360.266 55.6032L360.517 61.0328L360.424 66.7084L359.982 72.6289L359.195 78.7742L358.06 85.1363L356.584 91.7024L354.764 98.4592L352.609 105.395L350.114 112.495L347.289 119.745L344.129 127.135L340.646 134.645L336.849 142.264L332.741 149.975L328.332 157.759L323.632 165.606L318.649 173.495L313.389 181.409L307.863 189.338L302.083 197.258L296.062 205.157L289.814 213.02L283.347 220.827L276.682 228.562L269.827 236.209L262.796 243.751L255.604 251.172L248.265 258.458L240.797 265.593L233.315 272.476L233.217 272.564L225.539 279.355L217.781 285.952L209.957 292.342L202.081 298.508L194.177 304.44L186.254 310.126L178.333 315.552L170.427 320.712L162.556 325.596L154.735 330.192L146.979 334.492L139.304 338.485L131.729 342.163L124.267 345.522L116.933 348.555L109.738 351.26L102.701 353.631L95.8331 355.665L89.1481 357.358L82.6619 358.705L76.3845 359.706L70.3288 360.358L64.5031 360.666L58.9203 360.63L53.5886 360.252L48.516 359.533L43.7159 358.476L39.1961 357.084L34.9634 355.359L31.0273 353.304L27.3896 350.929L24.0569 348.242L21.0324 345.247L18.3241 341.951L15.9321 338.363L13.8647 334.489L12.1233 330.334L10.7097 325.911L9.62376 321.228L8.86559 316.299L8.43179 311.13L8.32585 305.735L8.54758 300.123L9.09383 294.303L9.96616 288.285L11.1597 282.086L12.6679 275.712L14.4891 269.182L16.6153 262.504L19.0464 255.693L21.7726 248.76L24.7955 241.716M167.534 244.359L164.992 245.704L164.676 245.87L161.579 247.405L159.831 248.21L159.828 248.21L159.737 248.253L159.732 248.254L159.706 248.267L159.65 248.293L159.623 248.305L158.525 248.812L155.517 250.089L152.564 251.235L149.67 252.251L146.84 253.128L144.081 253.871L141.397 254.475L138.795 254.938L136.28 255.26L133.854 255.443L131.523 255.486L129.29 255.389L127.161 255.154L125.139 254.779L123.23 254.266L121.435 253.615L119.759 252.829L118.205 251.908L116.772 250.856L115.464 249.676L114.285 248.37L113.237 246.937L112.32 245.385L111.539 243.713L110.893 241.926L110.383 240.03L110.008 238.024L109.772 235.916L109.671 233.708L109.705 231.408L109.879 229.016L110.191 226.536L110.638 223.976L111.22 221.34L111.934 218.63L112.778 215.858L113.753 213.024L114.857 210.133L116.085 207.193L117.438 204.21L118.912 201.183L120.505 198.126L122.212 195.04L124.03 191.933L125.954 188.81L127.986 185.676L130.115 182.535L132.344 179.397L134.666 176.266L137.074 173.147L139.569 170.046L142.14 166.969L144.785 163.92L147.501 160.907L150.283 157.933L153.122 155.006L156.018 152.13L158.961 149.311L161.949 146.553L164.975 143.86L168.034 141.241L171.121 138.696L174.227 136.232L177.349 133.857L180.483 131.571L183.622 129.378L186.759 127.284L189.888 125.29L193.004 123.404L196.103 121.625L199.178 119.962L202.221 118.413L205.229 116.986L208.195 115.68L211.117 114.496L213.985 113.441L216.796 112.512L219.545 111.716L222.226 111.051L224.831 110.523L227.358 110.128L229.806 109.869L232.163 109.748L234.43 109.761L236.6 109.913L238.669 110.201L240.632 110.629L242.486 111.191L244.227 111.889L245.853 112.726L247.36 113.691L248.744 114.788L250.006 116.014L251.139 117.369L252.14 118.85L253.009 120.452L253.741 122.176L254.34 124.017L254.8 125.97L255.124 128.033L255.308 130.2L255.352 132.471L255.258 134.838L255.02 137.3L254.643 139.852L254.125 142.487L253.471 145.202L252.677 147.988L251.749 150.843L250.686 153.762L249.491 156.738L248.17 159.751L248.162 159.765L248.146 159.801L248.139 159.818L248.062 159.976L246.706 162.839L246.081 164.07L246.047 164.137L245.126 165.952L243.836 168.33M248.559 158.296L248.508 158.437L248.484 158.504L248.425 158.664L248.405 158.72L248.404 158.724L248.36 158.847L248.355 158.858L248.112 159.525M248.726 157.725L248.555 158.255L248.449 158.576L248.444 158.59L248.426 158.651L248.364 158.84L248.36 158.855M248.777 157.385L248.438 158.572L248.43 158.6M248.754 157.245L248.413 158.658M158.704 248.493L158.535 248.532L156.457 248.904L154.447 249.163L152.508 249.311L150.645 249.349L148.858 249.274L147.154 249.09L145.535 248.794L144.004 248.388L142.564 247.872L141.219 247.247L139.97 246.517L138.819 245.682L137.765 244.743L136.815 243.704L135.969 242.564L135.228 241.328L134.594 239.999L134.067 238.576L133.65 237.063L133.34 235.465L133.14 233.784L133.05 232.025L133.068 230.19L133.197 228.281L133.435 226.302L133.782 224.259L134.237 222.154L134.798 219.992L135.465 217.776L136.234 215.513L137.107 213.206L138.08 210.856L139.155 208.471L140.325 206.054L141.592 203.61L142.95 201.143L144.397 198.66L145.929 196.162L147.548 193.656L149.246 191.146L151.025 188.637L152.875 186.134L154.799 183.64L156.79 181.16L158.843 178.699L160.954 176.262L163.124 173.853L165.345 171.476L167.617 169.136L169.93 166.839L172.285 164.586L174.672 162.381L177.091 160.232L179.537 158.139L182.002 156.107L184.487 154.141L186.985 152.246L189.491 150.422L191.999 148.674L194.507 147.004L197.008 145.416L199.501 143.914L201.978 142.497L204.435 141.175L206.868 139.946L209.271 138.811L211.642 137.774L213.975 136.839L216.266 136.003L218.511 135.271L220.707 134.643L222.846 134.121L224.927 133.707L226.944 133.402L228.894 133.207L230.777 133.12L232.584 133.143L234.314 133.272L235.964 133.513L237.527 133.864L239.005 134.324L240.392 134.893L241.687 135.568L242.885 136.349L243.987 137.236L244.989 138.224L245.889 139.313L246.684 140.503L247.374 141.79L247.956 143.174L248.429 144.648L248.793 146.215L249.049 147.866L249.192 149.601L249.225 151.418L249.146 153.309L248.956 155.277L248.652 157.315L248.351 158.846M248.288 159.082L248.249 159.183L247.678 160.598M508.588 244.473L506.107 252.218L503.261 260.121L500.054 268.164L496.492 276.331L492.583 284.609L488.336 292.976L483.757 301.415L478.859 309.913L473.645 318.447L468.127 327.004L462.316 335.564L456.222 344.108L449.859 352.619L443.243 361.082L436.385 369.475L429.3 377.783L422.004 385.986L414.509 394.068L406.829 402.009L398.985 409.794L390.992 417.409L382.864 424.836L374.625 432.06L366.288 439.067L357.872 445.84L349.395 452.367L340.872 458.629L332.323 464.618L323.765 470.32L315.218 475.73L306.698 480.832L298.223 485.616L289.813 490.074L281.483 494.197L273.25 497.975L265.132 501.401L257.144 504.471L249.303 507.182L241.62 509.53M518.089 189.988L517.419 197.177L516.349 204.612L514.882 212.275L513.018 220.155L510.758 228.236L508.105 236.501L505.063 244.937L501.634 253.525L497.824 262.25L493.643 271.09L489.099 280.034L484.201 289.054L478.957 298.139L473.376 307.265L467.47 316.415L461.25 325.57L454.725 334.711L447.912 343.819L440.828 352.876L433.486 361.859L425.899 370.75L418.086 379.532L410.062 388.181L401.839 396.684L393.441 405.018L384.882 413.172L376.183 421.124L367.366 428.859L358.442 436.361L349.434 443.615L340.363 450.602L331.245 457.306L322.098 463.718L312.946 469.824L303.806 475.612L294.696 481.073L285.637 486.192L276.648 490.965L267.747 495.375L258.954 499.414L250.283 503.079L241.754 506.362L233.383 509.261L225.186 511.77L217.181 513.886L209.383 515.605L201.81 516.924L194.471 517.839L187.386 518.352M515.216 143.756L516.188 150.122L516.745 156.8L516.884 163.777L516.599 171.044L515.891 178.587L514.761 186.389L513.214 194.435L511.246 202.713L508.864 211.203L506.067 219.889L502.86 228.757L499.242 237.789L495.224 246.965L490.815 256.265L486.022 265.673L480.856 275.169L475.327 284.732L469.441 294.342L463.213 303.979L456.652 313.621L449.771 323.251L442.585 332.847L435.114 342.388L427.37 351.855L419.37 361.227L411.131 370.483L402.669 379.601L394.001 388.566L385.146 397.356L376.125 405.95L366.955 414.337L357.658 422.493L348.255 430.406L338.762 438.053L329.204 445.423L319.595 452.494L309.962 459.254L300.323 465.695L290.7 471.799L281.107 477.557L271.572 482.96L262.11 487.99L252.746 492.642L243.495 496.901L234.377 500.765L225.409 504.228L216.61 507.286L207.997 509.933L199.587 512.164L191.399 513.977L183.445 515.37L175.746 516.335L168.313 516.878L161.156 517L154.292 516.703L147.731 515.996M506.336 112.036L508.177 117.927L509.597 124.164L510.597 130.736L511.166 137.632L511.299 144.842L510.994 152.353L510.251 160.154L509.071 168.225L507.455 176.552L505.405 185.117L502.922 193.907L500.01 202.9L496.67 212.087L492.907 221.443L488.728 230.953L484.142 240.594L479.159 250.348L473.786 260.195L468.036 270.11L461.918 280.078L455.443 290.075L448.623 300.081L441.47 310.075L434.004 320.036L426.238 329.941L418.19 339.769L409.877 349.5L401.319 359.112L392.526 368.584L383.522 377.894L374.323 387.025L364.951 395.953L355.429 404.667L345.776 413.142L336.011 421.364L326.156 429.311L316.235 436.97L306.264 444.319L296.268 451.348L286.264 458.041L276.279 464.387L266.332 470.376L256.444 475.991L246.633 481.223L236.926 486.059L227.338 490.491L217.889 494.51L208.601 498.115L199.488 501.296L190.569 504.052L181.864 506.379L173.388 508.27L165.159 509.723L157.196 510.734L149.511 511.306L142.115 511.443L135.024 511.145L128.248 510.417L121.801 509.263L115.693 507.685L109.936 505.687M491.783 82.5322L494.486 87.7891L496.775 93.4174L498.64 99.4111L500.077 105.759L501.081 112.45L501.647 119.473L501.768 126.82L501.44 134.475L500.664 142.429L499.439 150.658L497.771 159.151L495.66 167.892L493.105 176.861L490.111 186.044L486.681 195.42L482.816 204.974L478.527 214.688L473.819 224.537L468.708 234.505L463.198 244.566L457.302 254.702L451.031 264.892L444.394 275.114L437.404 285.345L430.075 295.567L422.424 305.754L414.471 315.886L406.227 325.943L397.714 335.9L388.948 345.736L379.945 355.43L370.726 364.959L361.31 374.307L351.718 383.449L341.971 392.371L332.093 401.052L322.101 409.472L312.02 417.613L301.87 425.457L291.671 432.988L281.45 440.19L271.222 447.05L261.013 453.557L250.845 459.694L240.738 465.455L230.714 470.819L220.795 475.781L211.001 480.328L201.352 484.457L191.865 488.158L182.563 491.427L173.459 494.261L164.576 496.655L155.929 498.606L147.537 500.108L139.417 501.158L131.583 501.76L124.046 501.913L116.822 501.627L109.923 500.899L103.359 499.735L97.1415 498.138L91.2896 496.112L85.8063 493.661L80.7012 490.793M164.078 246.157L164.018 246.136L162.961 245.65L161.978 245.081L161.072 244.429L160.243 243.698L159.493 242.886L158.823 241.997L158.236 241.035L157.734 239.995L157.315 238.885L156.979 237.704L156.73 236.457L156.565 235.144L156.485 233.77L156.492 232.335L156.585 230.843L156.764 229.297L157.028 227.7L157.375 226.054L157.808 224.364L158.321 222.63L158.916 220.861L159.591 219.055L160.346 217.217L161.181 215.352L162.091 213.461L163.076 211.55L164.132 209.619L165.26 207.676L166.456 205.721L167.716 203.759L169.042 201.794L170.429 199.833L171.874 197.873L173.375 195.921L174.931 193.981L176.535 192.054L178.187 190.148L179.883 188.263L181.621 186.404L183.395 184.575L185.205 182.778L187.046 181.015L188.914 179.293L190.807 177.612L192.721 175.975L194.65 174.389L196.594 172.853L198.549 171.371L200.51 169.947L202.473 168.584L204.435 167.282L206.393 166.044L208.343 164.873L210.282 163.773L212.204 162.741L214.109 161.785L215.989 160.903L217.842 160.099L219.667 159.374L221.46 158.728L223.217 158.162L224.932 157.676L226.606 157.277L228.232 156.962L229.81 156.731L231.335 156.585L232.804 156.525L234.216 156.551L235.568 156.66L236.856 156.856L238.079 157.14L239.231 157.507L240.314 157.96L241.323 158.496L242.259 159.113L243.118 159.812L243.899 160.593L244.601 161.451L245.222 162.388L245.758 163.401L246.063 164.13M179.231 237.112L179.257 236.646L179.389 235.451L179.588 234.215L179.85 232.941L180.18 231.634L180.571 230.293L181.028 228.924L181.544 227.526L182.123 226.106L182.762 224.662L183.463 223.198L184.222 221.719L185.034 220.225L185.903 218.72L186.824 217.209L187.796 215.692L188.818 214.171L189.888 212.651L191.004 211.137L192.164 209.625L193.364 208.125L194.603 206.635L195.88 205.159L197.191 203.702L198.534 202.264L199.905 200.85L201.306 199.459L202.729 198.098L204.172 196.766L205.638 195.466L207.117 194.202L208.611 192.976L210.116 191.791L211.627 190.648L213.143 189.549L214.665 188.497L216.183 187.491L217.697 186.537L219.207 185.637L220.706 184.788L222.194 183.994L223.667 183.258L225.123 182.582L226.558 181.965L227.97 181.408L229.357 180.914L230.715 180.482L232.043 180.113L233.337 179.81L234.594 179.57L235.814 179.397L236.993 179.291L237.012 179.291M165.001 245.699L163.129 246.626L160.155 247.995M194.667 225.393L191.615 227.898L188.153 230.622L184.678 233.246L181.39 235.621L181.194 235.762M181.381 235.624L179.228 237.112L178.62 237.531L175.23 239.766L171.85 241.887M172.677 241.368L169.714 243.131L166.466 244.96M459.859 343.31L454.253 351.169L448.405 358.997L442.321 366.779L436.016 374.497L429.504 382.134L422.796 389.676L415.905 397.105L408.847 404.405L401.635 411.561L394.288 418.559L386.817 425.388L379.244 432.029L371.577 438.469L363.839 444.698L356.043 450.696L348.204 456.455L340.34 461.961M227.119 192.535L226.821 192.892L224.193 196.055L221.179 199.541L218.083 202.986L214.909 206.386L211.666 209.733L208.356 213.02L204.989 216.24L201.571 219.387L198.111 222.456L194.661 225.397L194.614 225.438M237.147 179.122L237.031 179.287L236.627 179.864L234.698 182.608L232.14 186.092L229.477 189.564L226.821 192.888M240.971 173.229L240.727 173.614L238.809 176.614L237.017 179.29L236.631 179.865M244.151 167.792L243.838 168.333L242.278 171.051L240.724 173.616M247.369 161.358L246.083 164.072M247.905 160.099L247.685 160.597L247.025 162.105M158.546 248.552L156.937 249.053L156.719 249.121M159.142 248.339L159.034 248.379L159.033 248.38L158.71 248.491L158.689 248.499L158.553 248.547L158.243 248.654L157.242 249.006M159.029 248.381L158.731 248.435M160.148 247.947L159.144 248.335L159.056 248.371L159.054 248.369L158.844 248.452L158.813 248.464L158.787 248.474L158.684 248.514L158.661 248.524L158.657 248.526L158.645 248.531L157.986 248.785M161.584 247.339L160.154 247.947L159.642 248.163L159.549 248.203L159.224 248.342L159.221 248.342L159.063 248.409L159.034 248.422L159.029 248.423L159.021 248.428L158.96 248.453M337.233 70.9303L336.805 76.3011L336.065 81.8774L335.01 87.6478L333.647 93.6024L331.976 99.7282L329.998 106.014L327.715 112.448L325.131 119.017L322.25 125.71L319.077 132.513L315.619 139.411L311.883 146.391L307.875 153.442L303.605 160.543L299.081 167.683L294.308 174.845L289.296 182.02L284.054 189.189L278.595 196.337L272.932 203.451L267.075 210.514L261.038 217.514L254.829 224.434L248.462 231.26L241.953 237.978L235.31 244.572L228.552 251.034L221.692 257.345L214.743 263.495L207.721 269.471L200.641 275.259L193.516 280.849L186.363 286.228L179.193 291.382L172.024 296.308L164.869 300.99L157.744 305.425L150.664 309.603L143.642 313.511L136.696 317.144L129.836 320.494L123.076 323.557L116.432 326.323L109.915 328.797L103.536 330.969L97.3113 332.834L91.2507 334.394L85.3679 335.64L79.6725 336.574L74.1778 337.194L68.8917 337.5L63.8224 337.496L58.9783 337.181L54.3721 336.56L50.0088 335.63L45.9 334.394L42.0504 332.857L38.4682 331.023L35.155 328.896L32.119 326.487L29.3619 323.795L26.8917 320.832L24.7084 317.599L22.8187 314.108L21.2257 310.359L19.9294 306.366L18.9299 302.135L18.2288 297.677L17.8245 293.004L17.7169 288.123L17.906 283.039L18.3919 277.769L19.1729 272.315L20.2474 266.695L21.6121 260.914L23.2589 254.989L25.1846 248.929L27.3873 242.744L29.8624 236.447L32.6033 230.047L35.6083 223.56L38.8693 216.992L42.3798 210.358L46.1316 203.671L50.1165 196.94L54.3297 190.18L58.7597 183.402L63.4034 176.619L68.2509 169.838L73.294 163.076L78.5214 156.342L83.9265 149.649L89.4946 143.008L95.221 136.431L101.091 129.928L107.099 123.512L113.233 117.196L119.483 110.985L125.837 104.895L132.285 98.9357L138.814 93.1149L145.413 87.4424L152.072 81.9313L158.778 76.5914L165.522 71.4325L172.288 66.4628L179.068 61.6886L185.851 57.1232L192.62 52.7698L199.367 48.6381L206.079 44.738L212.742 41.0742L219.349 37.66L225.884 34.4968L232.338 31.5912L238.697 28.9466L244.95 26.5711L251.089 24.4692L257.097 22.6447L262.965 21.1039L268.68 19.8534L274.235 18.8929L279.616 18.2244L284.815 17.8511L289.823 17.7711L294.629 17.9864L299.221 18.5016L303.589 19.3153L307.727 20.4306L311.622 21.8442L315.272 23.5528L318.666 25.5551L321.798 27.846L324.661 30.4222L327.249 33.2837L329.55 36.4257L331.563 39.8448L333.28 43.5347L334.702 47.4871L335.821 51.6936L336.637 56.1499L337.148 60.8473L337.345 65.7764L337.233 70.9303ZM315.508 78.4061L315.104 83.1931L314.421 88.1645L313.462 93.3071L312.228 98.6112L310.719 104.065L308.941 109.663L306.893 115.389L304.576 121.234L301.998 127.187L299.161 133.24L296.071 139.375L292.735 145.581L289.159 151.847L285.354 158.16L281.32 164.506L277.068 170.872L272.605 177.245L267.94 183.616L263.083 189.966L258.045 196.286L253.35 201.942L252.837 202.564L247.467 208.781L241.948 214.929L236.29 220.995L230.504 226.964L224.603 232.826L218.598 238.567L212.503 244.176L206.33 249.644L200.09 254.958L193.8 260.107L187.47 265.08L181.114 269.864L174.744 274.454L168.372 278.84L162.015 283.012L155.682 286.965L149.388 290.689L143.147 294.178L136.969 297.421L130.869 300.416L124.856 303.156L118.943 305.634L113.144 307.85L107.466 309.8L101.923 311.483L96.5257 312.888L91.2837 314.021L86.2095 314.872L81.3116 315.446L76.5962 315.743L72.0732 315.763L67.7524 315.505L63.6386 314.975L59.7417 314.173L56.0682 313.098L52.6262 311.753L49.4206 310.142L46.4581 308.272L43.7384 306.146L41.2665 303.772L39.0475 301.152L37.0859 298.293L35.3853 295.2L33.9504 291.878L32.7798 288.336L31.8732 284.583L31.2324 280.625L30.8574 276.471L30.7465 272.131L30.9014 267.609L31.3221 262.92L32.0069 258.064L32.9526 253.059L34.1591 247.909L35.6184 242.628L37.3289 237.223L39.2855 231.709L41.4867 226.09L43.9275 220.382L46.6048 214.587L49.5136 208.724L52.6425 202.8L55.9916 196.826L59.5477 190.811L63.3076 184.772L67.2664 178.713L71.4144 172.647L75.7467 166.587L80.2533 160.541L84.928 154.519L89.7576 148.532L94.7388 142.592L99.8584 136.709L105.109 130.892L110.483 125.152L115.969 119.503L121.56 113.948L127.244 108.502L133.011 103.172L138.852 97.9639L144.754 92.893L150.709 87.9657L156.707 83.1899L162.737 78.5788L168.786 74.1374L174.85 69.8737L180.911 65.7926L186.961 61.907L192.989 58.2172L198.988 54.7361L204.939 51.4686L210.838 48.4228L216.674 45.6037L222.433 43.0177L228.107 40.6633L233.687 38.5502L239.16 36.6833L244.516 35.0641L249.747 33.701L254.837 32.5957L259.784 31.7511L264.575 31.1672L269.2 30.8461L273.653 30.7889L277.924 30.996L282.005 31.4706L285.884 32.2124L289.554 33.2216L293.009 34.4984L296.242 36.0358L299.246 37.8359L302.016 39.892L304.545 42.2058L306.828 44.7688L308.856 47.5832L310.625 50.6437L312.132 53.9437L313.372 57.4769L314.344 61.2368L315.047 65.2169L315.477 69.4106L315.632 73.8081L315.508 78.4061ZM295.875 88.9259L295.505 93.1146L294.892 97.4614L294.036 101.957L292.942 106.592L291.611 111.357L290.044 116.243L288.242 121.244L286.209 126.346L283.949 131.541L281.461 136.82L278.758 142.171L275.839 147.585L272.715 153.047L269.387 158.55L265.865 164.08L262.153 169.629L258.258 175.181L254.188 180.731L249.952 186.265L245.558 191.771L241.017 197.238L236.337 202.655L231.527 208.013L226.596 213.295L221.557 218.495L216.414 223.602L211.182 228.602L205.871 233.492L200.495 238.258L195.061 242.891L189.581 247.379L184.067 251.716L178.526 255.891L172.976 259.895L167.426 263.723L161.885 267.366L156.364 270.819L150.878 274.075L145.437 277.126L140.048 279.965L134.726 282.587L129.482 284.987L124.323 287.162L119.259 289.109L114.302 290.824L109.461 292.306L104.744 293.55L100.164 294.553L95.7278 295.314L91.4445 295.834L87.3177 296.11L83.3588 296.146L79.5745 295.942L75.9711 295.499L72.5551 294.815L69.3333 293.896L66.3119 292.74L63.4977 291.351L60.8921 289.736L58.4986 287.897L56.3235 285.84L54.3686 283.568L52.6386 281.085L51.1353 278.398L49.8619 275.51L48.8233 272.427L48.0145 269.159L47.4373 265.709L47.0916 262.09L46.9808 258.304L47.0998 254.359L47.4536 250.265L48.039 246.024L48.8542 241.651L49.8961 237.15L51.1614 232.532L52.6484 227.807L54.3506 222.981L56.2681 218.063L58.3975 213.064L60.7357 207.993L63.2727 202.857L66.0103 197.667L68.9371 192.432L72.0497 187.163L75.3401 181.868L78.8048 176.557L82.4376 171.238L86.2334 165.923L90.1825 160.62L94.2799 155.339L98.5143 150.087L102.879 144.878L107.37 139.716L111.974 134.616L116.688 129.579L121.499 124.624L126.404 119.752L131.39 114.975L136.45 110.297L141.573 105.731L146.749 101.285L151.975 96.9658L157.234 92.7803L162.523 88.74L167.83 84.8479L173.144 81.1125L178.458 77.54L183.763 74.1356L189.048 70.9088L194.303 67.8647L199.519 65.0064L204.686 62.3471L209.796 59.885L214.839 57.6267L219.805 55.5756L224.687 53.7364L229.476 52.1108L234.16 50.7069L238.731 49.5248L243.182 48.5693L247.501 47.8437L251.685 47.3481L255.724 47.0823L259.608 47.0465L263.332 47.2453L266.889 47.6758L270.268 48.341L273.462 49.2394L276.469 50.3711L279.279 51.7342L281.888 53.3221L284.293 55.137L286.485 57.1752L288.461 59.4317L290.215 61.9069L291.743 64.5955L293.039 67.4929L294.104 70.5925L294.936 73.8893L295.529 77.3787L295.885 81.0505L296.002 84.9018L295.875 88.9259ZM278.969 102.131L278.638 105.72L278.1 109.444L277.358 113.293L276.413 117.259L275.265 121.338L273.915 125.519L272.367 129.792L270.621 134.154L268.683 138.594L266.55 143.104L264.233 147.674L261.737 152.296L259.063 156.96L256.217 161.657L253.206 166.377L250.035 171.111L247.326 174.97L246.707 175.851L243.232 180.584L239.614 185.304L235.866 190.002L231.99 194.663L227.998 199.284L223.894 203.851L219.688 208.358L215.388 212.794L211.002 217.148L206.541 221.416L202.011 225.587L197.425 229.652L192.791 233.604L188.115 237.436L183.412 241.137L178.687 244.702L174.94 247.408L174.911 247.431L173.952 248.122L169.216 251.392L164.487 254.506L159.777 257.459L155.092 260.242L150.447 262.852L145.846 265.282L141.3 267.529L136.818 269.585L132.409 271.453L128.08 273.124L123.84 274.602L119.701 275.878L115.665 276.953L111.744 277.822L107.943 278.486L104.273 278.94L100.738 279.192L97.3433 279.234L94.0953 279.074L91.0039 278.709L88.069 278.138L85.2987 277.367L82.703 276.392L80.2817 275.22L78.0365 273.852L75.974 272.291L74.0973 270.545L72.4081 268.615L70.9096 266.503L69.6068 264.212L68.5014 261.753L67.5948 259.125L66.8856 256.335L66.3752 253.392L66.0638 250.299L65.9528 247.064L66.041 243.692L66.3295 240.192L66.8154 236.565L67.5002 232.822L68.3807 228.967L69.4519 225.013L70.7139 220.966L72.1634 216.83L73.7973 212.617L75.6136 208.332L77.6093 203.982L79.7778 199.576L82.1177 195.123L84.6221 190.633L87.2863 186.11L90.1054 181.565L93.073 177.007L96.1872 172.441L99.4418 167.876L102.828 163.322L106.342 158.787L109.978 154.277L113.723 149.802L117.578 145.37L121.53 140.987L125.577 136.663L129.71 132.406L133.922 128.224L138.204 124.121L142.549 120.105L146.95 116.187L151.396 112.37L155.881 108.664L160.399 105.072L164.94 101.604L169.496 98.2681L174.061 95.0659L178.624 92.0038L183.176 89.0884L187.712 86.3264L192.22 83.7192L196.696 81.2751L201.129 79.0005L205.512 76.8973L209.836 74.9699L214.093 73.2204L218.277 71.6552L222.38 70.2725L226.392 69.0805L230.307 68.0811L234.118 67.2772L237.814 66.669L241.391 66.2582L244.843 66.0446L248.163 66.0316L251.345 66.2175L254.381 66.6023L257.266 67.1876L259.992 67.9735L262.552 68.9583L264.947 70.1404L267.169 71.5182L269.214 73.0868L271.078 74.846L272.754 76.7928L274.241 78.9255L275.532 81.2409L276.628 83.7322L277.523 86.3982L278.219 89.2303L278.713 92.2255L279.005 95.3774L279.09 98.6807L278.969 102.131ZM265.293 117.599L265.009 120.609L264.551 123.728L263.922 126.95L263.124 130.272L262.159 133.683L261.024 137.178L259.726 140.752L258.262 144.398L256.637 148.108L254.853 151.874L252.916 155.693L250.827 159.552L248.592 163.444L247.385 165.437L246.214 167.364L243.7 171.303L241.052 175.252L238.276 179.206L235.375 183.154L232.359 187.09L229.231 191.006L225.998 194.895L222.668 198.746L219.246 202.557L215.74 206.313L212.155 210.009L208.498 213.641L204.779 217.2L201.002 220.676L197.177 224.068L193.313 227.365L189.416 230.56L185.493 233.649L181.552 236.621L177.605 239.476L173.652 242.205L169.707 244.804L165.775 247.271L165.425 247.478L165.407 247.49L165.399 247.495L161.867 249.598L157.988 251.778L154.145 253.811L150.349 255.69L146.604 257.413L142.921 258.977L139.303 260.381L135.758 261.62L132.293 262.691L128.916 263.596L125.634 264.331L122.453 264.894L119.376 265.283L116.414 265.5L113.569 265.548L110.844 265.422L108.247 265.127L105.781 264.661L103.456 264.025L101.271 263.219L99.2316 262.249L97.3403 261.114L95.602 259.82L94.0173 258.365L92.5889 256.761L91.3221 255.001L90.2149 253.095L89.2741 251.043L88.5013 248.851L87.8914 246.523L87.4495 244.066L87.1756 241.483L87.068 238.78L87.1284 235.961L87.3534 233.032L87.7496 229.998L88.3089 226.866L89.0344 223.639L89.9198 220.327L90.9665 216.936L92.1699 213.473L93.5297 209.941L95.0412 206.349L96.7059 202.702L98.5173 199.009L100.471 195.275L102.563 191.507L104.792 187.713L107.151 183.899L109.634 180.072L112.243 176.24L114.968 172.41L117.808 168.588L120.754 164.781L123.8 160.995L126.942 157.24L130.175 153.518L133.492 149.839L136.886 146.21L140.354 142.637L143.889 139.125L147.485 135.683L151.13 132.315L154.825 129.028L158.557 125.827L162.324 122.716L166.116 119.706L169.928 116.8L173.752 114.004L177.582 111.322L181.41 108.759L185.232 106.32L189.038 104.008L192.821 101.826L196.574 99.7846L200.292 97.8866L203.967 96.1322L207.591 94.5262L211.16 93.0701L214.666 91.7658L218.101 90.6195L221.464 89.6314L224.741 88.8064L227.928 88.1461L231.023 87.6504L234.015 87.3194L236.903 87.1548L239.678 87.158L242.337 87.326L244.873 87.6635L247.279 88.1689L249.554 88.8423L251.691 89.682L253.687 90.6864L255.536 91.8539L257.24 93.1827L258.791 94.6681L260.183 96.3116L261.416 98.1084L262.488 100.058L263.395 102.155L264.134 104.397L264.706 106.776L265.109 109.292L265.342 111.938L265.404 114.707L265.293 117.599Z" stroke="url(#paint0_angular_147_25819)" stroke-width="1.5" stroke-miterlimit="10" stroke-linecap="round" stroke-linejoin="round"/>
  <defs>
    <radialGradient id="paint0_angular_147_25819" cx="0" cy="0" r="1" gradientUnits="userSpaceOnUse" gradientTransform="translate(259.843 259.893) rotate(116.322) scale(202.615 183.329)">
      <stop offset="0.0158029" stop-color="#F6BDFF"/>
      <stop offset="0.182187" stop-color="#A053FB"/>
      <stop offset="0.44" stop-color="#FACB7B"/>
      <stop offset="0.735" stop-color="#FF997D"/>
      <stop offset="1" stop-color="#9F53FF"/>
    </radialGradient>
  </defs>
</svg>