<svg width="438" height="137" viewBox="0 0 438 137" fill="none" xmlns="http://www.w3.org/2000/svg">
<path d="M-128.621 70.0377L-129.012 69.7929C-121.315 64.0408 -99.1528 64.9623 -81.341 65.7038C-73.2956 66.0349 -65.6936 66.3517 -60.7312 65.9917C-35.6869 64.1775 -15.2672 59.3037 -0.0632324 51.507C11.6776 45.4884 20.6943 37.3174 29.4049 29.4054C46.6044 13.812 62.8536 -0.924745 97.8437 0.72387C144.374 2.91242 172.111 29.0383 188.93 48.4977C207.692 70.2105 235.672 87.5101 262.722 104.234L266.132 106.343C283.026 116.804 299 122.887 314.954 124.946C320.581 125.673 326.082 125.356 331.404 125.047C335.131 124.831 338.984 124.608 342.859 124.744C352.921 125.09 357.694 126.436 366.362 128.884C367.481 129.201 368.674 129.539 369.952 129.892C388.007 134.91 409.398 137.156 428.624 136.069C450.776 134.809 469.221 129.373 481.954 120.346C494.973 111.123 500.917 98.5681 506.682 86.423C513.344 72.3558 520.239 57.8135 538.24 48.8865C555.577 40.2834 578.383 37.3606 604.187 40.4346C625.505 42.9759 648.532 49.6856 667.379 58.8501L667.073 59.1453C648.289 50.0095 625.336 43.3215 604.103 40.7946C578.446 37.7349 555.788 40.6362 538.557 49.1816C520.693 58.0438 513.83 72.5286 507.188 86.5382C501.413 98.7193 495.448 111.311 482.345 120.598C469.517 129.69 450.955 135.162 428.677 136.429C409.366 137.523 387.88 135.262 369.762 130.23C368.484 129.877 367.291 129.539 366.172 129.222C357.556 126.796 352.816 125.457 342.838 125.112C338.995 124.982 335.162 125.198 331.456 125.414C326.103 125.723 320.571 126.04 314.869 125.306C298.821 123.24 282.762 117.128 265.794 106.617L262.384 104.507C235.302 87.7621 207.301 70.4552 188.497 48.6921C171.741 29.3047 144.11 3.27239 97.8332 1.09103C63.1281 -0.543186 46.9633 14.1144 29.8589 29.6286C21.1167 37.5549 12.0788 45.7476 0.285141 51.8021C-15.0033 59.6421 -35.5074 64.5375 -60.6467 66.3589C-65.6513 66.7189 -73.2639 66.4021 -81.341 66.0709C-99.0367 65.3366 -121.072 64.4151 -128.589 70.0449L-128.621 70.0377Z" fill="url(#paint0_radial_770_17085)"/>
<path d="M-130.099 78.0722L-130.374 77.7698C-118.622 72.7808 -101.381 73.2991 -84.6881 73.8103C-76.0197 74.0695 -67.8265 74.3214 -60.6574 73.7959C-34.1138 71.8665 -12.9445 67.0214 2.29112 59.3975C14.1375 53.4654 23.3021 45.6038 32.1605 37.9943C49.6767 22.9624 66.2216 8.75838 101.096 10.1406C120.66 10.9181 138.039 15.8208 154.235 25.1293C167 32.4725 178.646 42.2778 190.873 55.9851C211.134 78.6913 241.774 96.5309 268.814 112.276C285.697 122.102 301.724 127.955 317.826 130.173C323.347 130.936 328.859 130.777 334.191 130.633C337.918 130.533 341.761 130.425 345.583 130.633C355.434 131.159 360.692 132.556 369.392 134.881C370.49 135.176 371.641 135.479 372.866 135.803C407.011 144.78 457.638 144.528 484.214 126.343C496.641 117.833 503.123 106.127 509.385 94.8031C516.765 81.4702 524.398 67.6766 541.809 59.4695C559.315 51.212 582.427 48.7067 608.622 52.2199C630.33 55.1284 653.357 62.1476 671.803 71.4777L671.486 71.7657C653.093 62.4716 630.14 55.4739 608.516 52.5727C582.458 49.0811 559.494 51.5648 542.105 59.7647C524.831 67.9069 517.229 81.643 509.881 94.9255C503.599 106.286 497.095 118.028 484.594 126.595C468.777 137.422 446.795 140.77 431.137 141.677C411.636 142.8 390.319 140.77 372.676 136.141C371.451 135.817 370.3 135.507 369.202 135.219C360.555 132.908 355.329 131.519 345.552 131.001C341.761 130.799 337.928 130.9 334.223 131.001C328.859 131.145 323.316 131.303 317.73 130.533C301.545 128.301 285.433 122.426 268.476 112.556C241.405 96.7973 210.733 78.9433 190.429 56.1795C178.224 42.501 166.62 32.7245 153.898 25.4101C137.796 16.152 120.512 11.2781 101.074 10.5078C66.4749 9.13994 50.004 23.2648 32.5829 38.2247C23.7033 45.8486 14.5176 53.7317 2.60786 59.6927C-12.6911 67.3526 -33.9555 72.2193 -60.594 74.163C-67.8053 74.6886 -76.0092 74.4366 -84.7092 74.1774C-101.317 73.6735 -118.485 73.1552 -130.089 78.0866L-130.099 78.0722Z" fill="url(#paint1_radial_770_17085)"/>
<path d="M-133.869 86.0272L-134.133 85.7176C-122.107 80.9302 -104.992 81.5277 -88.4363 82.1036C-79.789 82.406 -71.6169 82.694 -64.374 82.2188C-36.8907 80.4262 -16.0065 75.9555 -0.517456 68.5547C9.5657 63.7313 17.2099 57.1368 24.5902 50.7583C30.6823 45.4957 36.9856 40.0531 44.6509 35.604C61.2169 25.9859 81.436 21.1193 101.581 21.8968C145.926 23.603 172.142 45.9637 190.028 65.2503C210.036 86.8263 239.135 102.988 269.711 119.007C286.932 128.027 303.318 133.477 319.821 135.673C325.417 136.414 331.044 136.335 336.482 136.256C340.135 136.206 343.915 136.148 347.653 136.342C357.345 136.853 362.846 138.099 371.958 140.172C372.95 140.395 373.975 140.633 375.051 140.871C408.437 148.387 458.979 146.198 485.776 129.518C497.781 122.045 505.172 111.599 512.309 101.498C520.851 89.418 529.677 76.9346 546.434 69.7786C564.509 62.0611 587.928 59.9805 614.165 63.7673C636.179 66.9493 659.207 74.2133 677.346 83.709L677.029 83.997C658.953 74.5373 636 67.2877 614.059 64.12C587.959 60.3549 564.678 62.4138 546.719 70.0882C530.089 77.1938 521.294 89.634 512.784 101.664C505.615 111.793 498.214 122.268 486.125 129.791C477.298 135.291 460.901 142.332 432.943 144.679C413.156 146.335 391.997 145.075 374.872 141.223C373.795 140.979 372.76 140.748 371.768 140.518C362.698 138.459 357.219 137.213 347.589 136.709C343.873 136.515 340.114 136.573 336.471 136.623C331.002 136.702 325.343 136.789 319.694 136.033C303.107 133.83 286.647 128.351 269.363 119.302C238.744 103.262 209.603 87.0783 189.553 65.4519C155.629 28.8728 124.683 23.1566 101.518 22.2639C81.4993 21.4936 61.4175 26.3315 44.9571 35.8848C37.334 40.3123 31.0413 45.7405 24.9703 50.9887C17.5583 57.3888 9.89301 64.0049 -0.25351 68.8571C-15.8164 76.2939 -36.7851 80.7862 -64.3634 82.586C-71.6381 83.0611 -79.8313 82.7732 -88.4996 82.4708C-104.981 81.8948 -122.012 81.2973 -133.9 86.0344L-133.869 86.0272Z" fill="url(#paint2_radial_770_17085)"/>
<path d="M-139.845 93.9247L-140.098 93.6079C-127.977 89.0508 -111.105 89.7924 -94.7924 90.5123C-86.3458 90.8866 -78.3638 91.2322 -71.2369 90.8578C-43.8698 89.4108 -22.8905 85.3937 -7.09531 78.5688C3.11455 74.1557 11.2339 68.0148 19.0892 62.0683C25.6565 57.1008 32.4455 51.9678 40.4381 47.8427C57.3103 39.1388 77.7088 34.6825 97.8752 35.2873C133.066 36.3528 160.887 48.649 185.435 73.9829C207.882 97.1427 239.198 112.527 269.352 126.307C287.228 134.471 303.994 139.352 320.602 141.223C329.007 142.174 336.978 142.375 344.696 142.577C355.117 142.843 364.958 143.102 375.854 145.017C410.992 151.194 459.19 145.212 485.597 131.389C497.749 125.025 506.513 115.868 514.991 107.006C525.285 96.2356 535.939 85.1057 552.642 79.2167C571.678 72.5071 595.339 71.0817 621.081 75.0772C643.179 78.5112 666.059 85.9984 683.839 95.6093L683.512 95.8901C665.784 86.3079 642.989 78.8496 620.964 75.4228C595.35 71.4416 571.805 72.8599 552.885 79.5263C536.297 85.3721 525.697 96.466 515.434 107.193C506.935 116.084 498.15 125.27 485.924 131.67C459.401 145.55 411.002 151.561 375.727 145.356C364.894 143.448 355.075 143.196 344.686 142.93C336.957 142.728 328.964 142.526 320.528 141.569C303.846 139.69 287.016 134.787 269.078 126.595C238.881 112.801 207.512 97.3875 185.013 74.1701C160.56 48.9441 132.876 36.6983 97.8647 35.6328C77.825 35.0281 57.5531 39.4556 40.776 48.1162C32.8256 52.2198 26.0471 57.3384 19.501 62.2986C11.6245 68.2596 3.47356 74.4221 -6.79965 78.864C-22.6688 85.7248 -43.7326 89.7636 -71.1841 91.2106C-78.3426 91.585 -86.3458 91.2394 -94.8136 90.865C-111.052 90.1523 -127.84 89.4108 -139.824 93.9175L-139.845 93.9247Z" fill="url(#paint3_radial_770_17085)"/>
<path d="M-147.89 101.772L-148.133 101.455C-135.854 97.0348 -119.129 97.8051 -102.954 98.5466C-94.6445 98.9282 -86.7997 99.2882 -79.7151 98.957C-50.4158 97.5819 -27.6944 93.1472 -10.2733 85.3937C-1.66824 81.5637 5.82812 76.7043 13.0711 72.0032C21.2538 66.6974 29.7216 61.2044 39.8258 57.1657C57.7538 50.0025 77.7089 46.95 99.1317 48.0875C139.581 50.2473 162.545 65.6175 184.569 88.0502C205.496 109.36 237.329 122.477 268.138 134.089C286.71 141.087 304.058 145.32 321.173 147.033C331.71 148.084 340.948 147.868 349.353 147.472C360.323 146.961 363.912 147.336 373.51 148.336C374.671 148.459 375.928 148.588 377.3 148.725C414.18 152.49 459.528 142.325 488.12 130.59C500.674 125.436 510.831 117.804 520.65 110.425C531.525 102.261 542.759 93.8168 557.161 88.8853C600.144 74.163 659.154 86.02 695.232 105.35L694.904 105.631C658.953 86.3728 600.186 74.5517 557.393 89.2093C543.087 94.1119 531.874 102.528 521.041 110.67C511.19 118.071 501.012 125.716 488.395 130.9C472.863 137.278 453.827 142.634 434.78 145.989C413.684 149.704 393.782 150.77 377.226 149.085C375.864 148.948 374.608 148.819 373.436 148.696C363.881 147.703 360.302 147.328 349.395 147.839C340.959 148.235 331.689 148.451 321.109 147.4C303.931 145.68 286.52 141.439 267.895 134.42C237.023 122.794 205.137 109.648 184.136 88.2662C171.54 75.4444 160.665 67.0142 148.872 60.9309C134.576 53.5661 118.295 49.4842 99.1001 48.4619C77.7829 47.3244 57.9333 50.3625 40.1004 57.4897C30.0489 61.5068 21.6128 66.9782 13.4407 72.2768C6.17657 76.9923 -1.34091 81.8589 -9.97758 85.7105C-27.4832 93.5 -50.2786 97.9563 -79.6729 99.3386C-86.7891 99.6697 -94.6551 99.3097 -102.986 98.9282C-119.087 98.1867 -135.727 97.4236 -147.879 101.793L-147.89 101.772Z" fill="url(#paint4_radial_770_17085)"/>
<path d="M-157.889 109.569L-158.132 109.245C-145.071 104.695 -127.132 105.321 -109.785 105.926C-100.325 106.257 -91.3821 106.574 -83.4529 106.055C-56.1174 104.277 -35.4126 100.231 -18.3082 93.3128C-9.61874 89.7996 -1.76338 85.4009 5.83859 81.1462C16.0168 75.4444 26.5328 69.5555 39.1605 65.7543C57.3736 60.2685 78.5429 58.3031 100.377 60.0813C139.823 63.285 160.686 76.8842 179.881 96.3149C201.758 118.467 234.098 130.216 268.117 141.267C301.988 152.274 334.37 152.375 368.642 152.476C373.573 152.49 378.673 152.505 383.794 152.555C421.877 152.908 467.246 137.458 494.349 128.229C505.847 124.313 516.627 118.935 527.038 113.737C539.93 107.301 553.254 100.649 568.015 96.754C589.775 91.0091 615.031 89.814 641.025 93.2984C665.256 96.538 689.023 103.809 707.965 113.766L707.637 114.054C688.759 104.133 665.066 96.8836 640.92 93.6584C615.01 90.1956 589.87 91.3834 568.194 97.0996C553.497 100.98 540.204 107.618 527.344 114.032C516.913 119.237 506.122 124.629 494.582 128.56C478.554 134.017 459.866 140.237 440.935 144.967C418.879 150.474 400.18 153.08 383.783 152.929C378.662 152.879 373.563 152.865 368.632 152.85C351.073 152.8 334.476 152.742 317.91 151.331C299.296 149.74 283.395 146.652 267.874 141.605C233.792 130.533 201.378 118.755 179.427 96.5308C153.011 69.7786 128.695 62.7594 100.304 60.4557C78.5641 58.6847 57.4897 60.6357 39.3611 66.0999C26.8073 69.8866 16.3124 75.7612 6.16589 81.4413C-1.44662 85.7033 -9.31255 90.1092 -18.0443 93.644C-35.2226 100.591 -55.9907 104.659 -83.4106 106.437C-91.3715 106.955 -100.336 106.638 -109.817 106.307C-127.09 105.703 -144.965 105.076 -157.899 109.583L-157.889 109.569Z" fill="url(#paint5_radial_770_17085)"/>
<path d="M-169.725 117.315L-169.968 116.991C-156.833 112.484 -138.757 112.959 -121.283 113.42C-111.96 113.665 -103.165 113.895 -95.3204 113.384C-65.7572 111.462 -42.4128 106.948 -23.9675 99.5761C-17.1891 96.8692 -10.6852 93.7448 -4.40303 90.7211C6.56703 85.4513 17.9066 79.9943 30.9884 76.6539C49.2859 71.9744 70.5925 70.4482 92.6171 72.2336C131.102 75.3509 153.433 84.5946 177.97 107.553C200.28 128.423 233.612 138.668 268.708 148.156C307.045 158.538 341.381 157.969 385.715 156.068C412.533 154.916 438.876 146.176 464.353 137.725C476.443 133.715 487.867 129.921 499.322 126.897C509.617 124.183 520.08 120.871 530.195 117.675C546.835 112.419 564.034 106.977 581.392 103.852C605.211 99.5545 630.403 98.6474 654.233 101.225C680.027 104.018 703.034 110.879 720.782 121.066L720.444 121.339C702.77 111.188 679.858 104.356 654.16 101.578C630.403 99.0074 605.285 99.9145 581.54 104.198C564.235 107.322 547.046 112.751 530.427 118.006C520.302 121.202 509.838 124.514 499.523 127.235C488.088 130.252 476.675 134.039 464.586 138.049C439.066 146.515 412.67 155.269 385.757 156.428C341.349 158.336 306.919 158.883 268.518 148.495C233.359 138.985 199.942 128.718 177.548 107.769C153.116 84.9042 130.87 75.7036 92.5537 72.5936C70.6136 70.8154 49.3914 72.3344 31.1678 76.9923C18.1495 80.3183 6.84157 85.7537 -4.10738 91.0163C-10.4001 94.0399 -16.9146 97.1716 -23.7141 99.8857C-42.2228 107.286 -65.6411 111.815 -95.2782 113.744C-103.155 114.255 -111.971 114.025 -121.304 113.78C-138.715 113.319 -156.717 112.851 -169.725 117.308V117.315Z" fill="url(#paint6_radial_770_17085)"/>
<path d="M-183.271 125.025L-183.503 124.701C-169.471 119.993 -150.181 120.317 -131.514 120.634C-121.135 120.807 -111.327 120.979 -102.658 120.295C-75.7453 118.179 -53.8368 114.047 -35.6977 107.639C-28.9826 105.271 -22.4999 102.614 -16.2282 100.037C-3.01982 94.6159 10.6426 89.015 26.5012 86.2001C46.5619 82.6437 68.766 82.3485 94.4015 85.293C130.838 89.4757 150.434 97.7044 175.035 119.151C197.778 138.977 230.941 147.336 268.782 155.485C288.231 159.675 308.608 162.252 331.066 163.375C345.615 164.103 359.298 162.807 373.795 161.439C378.261 161.014 382.886 160.582 387.478 160.215C411.319 158.314 433.312 150.086 454.576 142.131C470.424 136.198 486.821 130.065 503.841 126.609C534.608 120.36 567.497 115.306 595.614 111.196C620.616 107.538 645.787 106.811 668.403 109.086C694.619 111.721 717.066 118.229 735.142 128.409L734.804 128.682C716.813 118.539 694.439 112.067 668.329 109.432C645.776 107.164 620.669 107.891 595.72 111.541C567.613 115.652 534.735 120.699 503.989 126.947C487.022 130.396 470.657 136.522 454.83 142.44C433.513 150.417 411.477 158.66 387.542 160.568C382.949 160.935 378.335 161.367 373.869 161.792C359.985 163.102 345.636 164.462 331.034 163.735C308.534 162.612 288.114 160.028 268.624 155.831C230.698 147.66 197.45 139.28 174.623 119.381C150.118 98.0211 130.606 89.8285 94.3276 85.6601C68.766 82.7229 46.6358 83.018 26.649 86.5672C10.8644 89.3677 -2.15402 94.7095 -15.9431 100.361C-22.2253 102.938 -28.7186 105.602 -35.4443 107.97C-53.6468 114.392 -75.608 118.546 -102.584 120.663C-111.284 121.347 -121.114 121.181 -131.514 121.001C-150.107 120.684 -169.344 120.36 -183.25 125.032L-183.271 125.025Z" fill="url(#paint7_radial_770_17085)"/>
<path d="M-198.412 132.693L-198.644 132.369C-184.137 127.631 -164.646 127.826 -145.81 128.02C-135.537 128.121 -125.844 128.222 -117.144 127.545C-89.9462 125.429 -67.4993 121.469 -48.5155 115.45C-42.0433 113.399 -35.6978 111.131 -29.5739 108.935C-13.1452 103.061 2.36487 97.5173 21.0319 95.4007C39.7201 93.2841 60.4987 93.6369 84.5505 96.4806C121.895 100.894 143.783 106.523 167.127 126.573C192.857 148.668 229.822 156.32 268.634 162.807C311.269 169.934 352.076 170.366 393.37 164.131C414.318 160.971 432.963 153.167 450.997 145.629C468.904 138.142 487.413 130.403 508.329 127.07C520.745 125.097 532.771 124.543 545.515 123.953C548.651 123.809 551.892 123.658 555.102 123.485C565.417 122.938 575.722 121.555 585.7 120.224C591.897 119.396 598.306 118.539 604.652 117.891C633.803 114.903 658.731 114.414 680.84 116.386C708.503 118.856 732.09 125.357 750.947 135.723L750.62 136.004C731.837 125.688 708.334 119.208 680.777 116.746C658.71 114.774 633.845 115.27 604.736 118.244C598.401 118.892 591.992 119.748 585.805 120.576C575.817 121.908 565.502 123.29 555.155 123.845C551.945 124.017 548.703 124.169 545.568 124.313C532.855 124.896 520.84 125.45 508.466 127.423C487.634 130.734 469.157 138.459 451.293 145.932C433.217 153.491 414.529 161.302 393.497 164.477C352.119 170.726 311.237 170.294 268.518 163.152C229.611 156.651 192.551 148.977 166.715 126.789C143.466 106.826 121.674 101.225 84.4556 96.8261C60.4671 93.9897 39.7412 93.6369 21.1058 95.7463C2.52324 97.8484 -12.9552 103.385 -29.3417 109.245C-35.4761 111.44 -41.811 113.708 -48.3043 115.767C-67.3409 121.807 -89.8407 125.774 -117.102 127.898C-125.834 128.575 -135.548 128.481 -145.831 128.373C-164.614 128.186 -184.031 127.984 -198.433 132.685L-198.412 132.693Z" fill="url(#paint8_radial_770_17085)"/>
<path d="M-215.03 140.331L-215.252 140.007C-200.037 135.212 -180.515 135.305 -161.637 135.392C-151.374 135.442 -141.682 135.485 -132.707 134.794C-101.761 132.411 -75.228 127.509 -51.5774 119.806C-50.1731 119.352 -48.7794 118.891 -47.3857 118.438C-28.6131 112.29 -10.8857 106.487 9.67123 104.651C35.2434 102.362 60.7416 104.91 84.4872 108.006C119.171 112.52 139.918 118.013 164.023 136.997C190.873 158.141 228.967 164.534 268.93 169.703C320.19 176.334 362.888 175.88 399.452 168.307C418.383 164.39 435.054 156.716 451.177 149.301C470.234 140.539 489.936 131.475 513.597 128.452C526.911 126.753 540.31 127.127 553.275 127.494C557.678 127.617 562.239 127.746 566.758 127.79C578.034 127.905 589.353 126.933 600.291 125.997C604.884 125.601 609.625 125.198 614.313 124.874C667.98 121.173 724.066 119.532 768.147 143.095L767.82 143.376C723.887 119.899 667.928 121.541 614.365 125.234C609.688 125.558 604.947 125.961 600.354 126.357C589.395 127.3 578.066 128.272 566.747 128.157C562.229 128.106 557.667 127.984 553.254 127.862C540.32 127.502 526.943 127.127 513.692 128.812C490.137 131.814 470.488 140.856 451.472 149.603C435.318 157.033 418.615 164.714 399.61 168.652C362.951 176.24 320.18 176.701 268.835 170.063C228.777 164.88 190.587 158.472 163.622 137.235C139.623 118.33 118.95 112.866 84.3922 108.366C60.6889 105.278 35.2434 102.736 9.74515 105.018C-10.7274 106.847 -28.4125 112.642 -47.1429 118.769C-48.5366 119.222 -49.9303 119.683 -51.3346 120.137C-75.0379 127.862 -101.624 132.771 -132.633 135.154C-141.65 135.845 -151.353 135.802 -161.626 135.752C-180.452 135.665 -199.911 135.572 -215.009 140.331H-215.03Z" fill="url(#paint9_radial_770_17085)"/>
<path d="M-232.008 147.53L-232.219 147.199C-216.392 142.389 -196.944 142.454 -178.129 142.512C-168.5 142.541 -158.554 142.577 -149.495 141.922C-116.363 139.524 -89.2809 135.032 -66.7178 128.185C-64.6695 127.566 -62.6424 126.947 -60.6258 126.328C-38.9496 119.698 -18.4771 113.427 6.12376 112.542C31.263 111.635 56.3918 114.723 80.6864 117.718H80.7709C115.423 121.994 135.04 126.904 159.726 144.729C189.796 166.442 230.614 172.101 269.838 176.039C310.192 180.092 357.282 182.986 400.539 173.792C420.019 169.653 436.839 161.496 453.109 153.606C472.483 144.211 492.512 134.499 517.282 131.396C532.697 129.467 548.123 130.669 563.042 131.835C566.22 132.08 569.493 132.339 572.734 132.563C593.333 133.981 614.746 132.872 631.1 131.756C685.761 128.006 742.417 127.682 786.54 150.467L786.223 150.755C742.247 128.049 685.708 128.38 631.164 132.116C614.788 133.239 593.333 134.348 572.692 132.923C569.451 132.699 566.167 132.44 562.989 132.195C548.102 131.036 532.718 129.834 517.388 131.756C492.734 134.845 472.747 144.535 453.426 153.908C437.124 161.813 420.273 169.984 400.708 174.145C357.345 183.36 310.181 180.459 269.764 176.406C230.445 172.461 189.521 166.78 159.346 144.988C134.755 127.235 115.212 122.34 80.6758 118.092H80.5913C56.3284 115.097 31.2313 112.002 6.14484 112.909C-18.3609 113.794 -38.7912 120.043 -60.4146 126.666C-62.4312 127.286 -64.4584 127.905 -66.5067 128.524C-89.1331 135.385 -116.257 139.891 -149.453 142.296C-158.543 142.951 -168.51 142.922 -178.15 142.886C-196.902 142.821 -216.297 142.757 -232.029 147.537L-232.008 147.53Z" fill="url(#paint10_radial_770_17085)"/>
<path d="M-246.188 153.188L-246.399 152.857C-230.298 148.178 -210.765 148.278 -191.876 148.372C-181.983 148.422 -172.639 148.466 -163.717 147.882C-129.498 145.636 -102.806 141.641 -79.7258 135.327C-75.4285 134.154 -71.1314 132.922 -66.9714 131.742C-46.9212 126.026 -27.9796 120.626 -6.07114 119.388C19.1843 117.963 44.9887 120.504 69.1144 123.456C73.2004 123.96 77.3921 124.399 81.457 124.831C95.4045 126.314 109.838 127.847 122.951 131.907C135.389 135.759 144.205 141.482 153.528 147.551C155.228 148.653 156.949 149.776 158.712 150.892C190.64 171.193 231.87 176.866 271.369 180.941C313.412 185.282 362.497 188.471 407.814 179.228C427.452 175.225 444.905 167.716 461.788 160.452C483.041 151.309 505.013 141.857 531.557 139.308C545.578 137.962 559.705 138.703 573.378 139.423C577.876 139.661 582.532 139.906 587.125 140.071C603.153 140.654 619.592 139.719 635.482 138.804C639.23 138.588 642.957 138.379 646.674 138.185C671.507 136.889 700.278 135.687 727.455 137.832C757.589 140.208 782.242 146.349 802.81 156.601L802.493 156.889C781.999 146.666 757.43 140.546 727.392 138.185C700.257 136.047 671.517 137.249 646.716 138.545C643 138.739 639.262 138.955 635.524 139.164C619.613 140.078 603.153 141.014 587.093 140.431C582.501 140.266 577.844 140.021 573.336 139.783C559.695 139.063 545.589 138.322 531.631 139.661C505.203 142.202 483.284 151.633 462.073 160.755C445.158 168.026 427.674 175.549 407.972 179.573C362.55 188.839 313.391 185.642 271.295 181.294C231.712 177.212 190.397 171.517 158.364 151.151C156.6 150.028 154.879 148.912 153.179 147.803C143.888 141.763 135.104 136.054 122.75 132.231C109.7 128.193 95.3095 126.666 81.3937 125.183C77.3287 124.751 73.1265 124.305 69.0405 123.801C44.957 120.849 19.1843 118.315 -6.0078 119.734C-27.8318 120.965 -46.7311 126.357 -66.7496 132.059C-70.9096 133.246 -75.2174 134.47 -79.5146 135.651C-102.637 141.979 -129.381 145.975 -163.654 148.228C-172.607 148.818 -181.962 148.768 -191.865 148.718C-210.701 148.624 -230.181 148.523 -246.177 153.174L-246.188 153.188Z" fill="url(#paint11_radial_770_17085)"/>
<path d="M-260.811 158.761L-261.011 158.43C-244.044 153.685 -223.308 153.765 -203.258 153.851C-192.393 153.894 -182.13 153.937 -172.427 153.261C-140.204 151.022 -112.668 146.889 -88.2462 140.619C-84.0229 139.539 -79.7996 138.416 -75.7135 137.336C-53.3194 131.404 -32.1817 125.796 -7.771 124.644C18.2446 123.413 44.2603 125.745 68.5021 128.438C71.3951 128.762 74.3514 129.064 77.2021 129.367C91.9943 130.907 107.293 132.498 121.357 136.926C133.182 140.648 142.262 146.062 151.881 151.799C154.077 153.11 156.358 154.47 158.659 155.795C191.844 174.966 233.37 180.985 273.048 185.506C324.477 191.366 369.382 191.481 410.316 185.851C432.531 182.799 452.845 175.333 472.473 168.12C492.745 160.669 513.703 152.973 537.005 149.963C553.18 147.876 569.736 147.976 585.742 148.084C588.223 148.099 590.704 148.113 593.196 148.12C605.38 148.156 617.512 147.177 629.242 146.227C636.464 145.644 643.918 145.039 651.351 144.672C676.776 143.427 708.419 141.872 738.14 143.837C771.029 146.004 797.668 152.174 819.576 162.677L819.27 162.972C797.446 152.505 770.892 146.357 738.088 144.19C708.408 142.232 676.797 143.779 651.393 145.025C643.971 145.392 636.517 145.99 629.305 146.58C617.565 147.53 605.423 148.516 593.196 148.473C590.715 148.466 588.223 148.452 585.742 148.437C569.757 148.336 553.233 148.228 537.111 150.309C513.882 153.311 492.956 160.993 472.726 168.429C453.056 175.657 432.71 183.13 410.422 186.197C369.424 191.834 324.456 191.726 272.963 185.851C233.211 181.323 191.601 175.29 158.311 156.061C156.009 154.729 153.729 153.376 151.532 152.058C141.946 146.342 132.887 140.943 121.135 137.242C107.135 132.837 91.8781 131.246 77.1177 129.712C74.2669 129.417 71.3212 129.107 68.4176 128.783C44.2075 126.091 18.2341 123.766 -7.73929 124.989C-32.0656 126.141 -53.1822 131.735 -75.5341 137.653C-79.6201 138.733 -83.854 139.856 -88.0667 140.943C-112.53 147.221 -140.109 151.367 -172.385 153.606C-182.109 154.283 -192.383 154.24 -203.268 154.197C-223.266 154.117 -243.949 154.031 -260.821 158.754L-260.811 158.761Z" fill="url(#paint12_radial_770_17085)"/>
<path d="M-274.98 163.958L-275.17 163.62C-257.253 158.84 -235.418 158.977 -214.302 159.106C-202.455 159.178 -191.274 159.25 -180.726 158.516C-146.971 156.162 -120.101 152.202 -96.1861 146.054C-92.2162 145.032 -88.2251 143.981 -84.3502 142.958C-63.4976 137.451 -43.7959 132.246 -21.5707 130.439C0.665039 128.639 24.833 129.186 54.4807 132.167C57.701 132.491 60.9951 132.8 64.1837 133.103C79.8734 134.579 96.0804 136.105 111.126 139.978C111.242 140.007 111.358 140.036 111.474 140.072C126.351 143.945 137.933 150.028 150.202 156.471C152.789 157.832 155.46 159.236 158.152 160.611C176.883 170.171 202.888 181.121 274.895 190.12C318.712 195.599 363.68 196.355 412.375 192.431C437.63 190.394 461.555 183.036 484.699 175.924C505.647 169.48 527.302 162.821 550.087 160.013C564.266 158.264 578.784 157.666 592.816 157.09C597.472 156.896 602.287 156.702 607.028 156.464C617.607 155.931 628.239 154.801 638.512 153.714C647.698 152.735 657.211 151.727 666.64 151.151C722.926 147.71 787.078 145.924 836.1 168.465L835.804 168.76C786.93 146.284 722.884 148.07 666.692 151.504C657.274 152.08 647.783 153.088 638.597 154.067C628.313 155.161 617.67 156.291 607.07 156.824C602.329 157.062 597.514 157.263 592.858 157.45C578.837 158.026 564.33 158.624 550.192 160.366C527.471 163.167 505.837 169.819 484.921 176.247C461.745 183.375 437.778 190.747 412.449 192.784C363.701 196.715 318.681 195.959 274.811 190.473C256.207 188.148 234.383 185.124 213.594 180.337C191.928 175.34 173.694 168.983 157.846 160.899C155.143 159.524 152.472 158.12 149.885 156.759C137.648 150.33 126.087 144.261 111.284 140.41C111.168 140.381 111.052 140.352 110.936 140.324C95.9536 136.465 79.7678 134.946 64.1098 133.47C60.9212 133.168 57.627 132.858 54.4067 132.534C24.8119 129.554 0.686157 129.006 -21.5074 130.806C-43.6692 132.599 -63.3392 137.797 -84.1602 143.304C-88.0245 144.326 -92.0261 145.385 -95.9961 146.4C-119.953 152.555 -146.866 156.522 -180.663 158.883C-191.232 159.617 -202.434 159.553 -214.291 159.481C-235.355 159.351 -257.137 159.214 -274.959 163.966L-274.98 163.958Z" fill="url(#paint13_radial_770_17085)"/>
<path d="M-289.624 169.142L-289.814 168.803C-271.654 164.16 -249.809 164.325 -228.671 164.484C-217.026 164.57 -206.024 164.657 -195.592 163.994C-149.136 161.043 -124.482 156.082 -109.975 152.605C-102.711 150.863 -95.4575 148.934 -88.4362 147.069C-71.5535 142.577 -54.0901 137.933 -35.6026 135.737C-10.5056 132.757 16.9249 132.807 50.7431 135.903C86.9475 139.215 118.253 144.758 153.306 161.05C176.038 171.611 208.653 183.742 278.306 193.59C326.335 200.386 375.347 201.754 423.957 197.672C448.822 195.584 473.001 189.494 496.387 183.612C515.382 178.832 535.031 173.886 554.996 171.086C598.074 165.045 642.081 160.409 682.266 157.688C706.772 156.025 738.858 154.369 769.794 156.313C803.053 158.401 830.124 164.196 852.55 174.03L852.265 174.332C829.913 164.534 802.916 158.753 769.741 156.666C738.848 154.722 706.793 156.378 682.319 158.041C642.155 160.769 598.159 165.398 555.102 171.431C535.168 174.224 515.54 179.163 496.567 183.943C473.159 189.839 448.949 195.93 424.021 198.025C375.347 202.114 326.283 200.739 278.19 193.943C252.174 190.264 231.49 186.441 213.077 181.92C190.514 176.377 170.865 169.646 153 161.345C118.031 145.096 86.7997 139.56 50.6692 136.256C16.9143 133.167 -10.4738 133.117 -35.5181 136.09C-53.9529 138.279 -71.3846 142.915 -88.2462 147.4C-95.2675 149.272 -102.532 151.201 -109.806 152.944C-140.151 160.208 -173.272 162.929 -195.55 164.347C-206.013 165.009 -217.026 164.93 -228.682 164.837C-249.767 164.678 -271.57 164.505 -289.635 169.127L-289.624 169.142Z" fill="url(#paint14_radial_770_17085)"/>
<path d="M-304.681 174.311L-304.86 173.973C-286.658 169.451 -264.929 169.646 -243.907 169.84C-232.61 169.941 -221.946 170.042 -211.789 169.459C-187.484 168.062 -155.777 165.643 -126.003 159.272C-115.17 156.954 -104.506 154.074 -94.2012 151.295C-77.424 146.774 -60.0768 142.094 -41.6842 139.748C-18.5299 136.796 6.60941 136.177 33.0579 137.912C80.1162 141 115.529 148.783 151.448 163.93C186.871 178.861 226.845 189.357 281.051 197.953C330.971 205.872 379.539 205.699 424.58 204.331C455.368 203.396 486.378 196.96 516.364 190.739C532.549 187.377 549.284 183.907 565.576 181.402C575.807 179.833 586.407 178.09 596.659 176.413C628.936 171.114 662.321 165.643 694.482 163.498C752.911 159.61 819.408 158.48 869.528 179.617L869.253 179.919C819.27 158.84 752.88 159.97 694.535 163.858C662.406 165.996 629.042 171.467 596.776 176.759C586.523 178.443 575.923 180.178 565.692 181.755C549.411 184.253 532.687 187.73 516.522 191.085C486.505 197.319 455.463 203.763 424.612 204.699C379.539 206.067 330.928 206.239 280.945 198.313C226.676 189.703 186.649 179.199 151.184 164.239C115.339 149.128 79.9895 141.36 33.0157 138.272C6.61993 136.537 -18.4771 137.156 -41.5786 140.1C-59.9289 142.44 -77.2551 147.112 -94.0005 151.633C-104.316 154.412 -114.98 157.292 -125.834 159.617C-155.65 166.003 -187.399 168.422 -211.725 169.819C-221.914 170.402 -232.589 170.308 -243.897 170.2C-264.865 170.013 -286.552 169.811 -304.659 174.311H-304.681Z" fill="url(#paint15_radial_770_17085)"/>
<path d="M687.735 393.498C686.542 369.388 663.387 352.203 640.983 335.58C635.588 331.577 630.013 327.445 624.86 323.291C618.979 318.554 613.69 313.184 608.569 307.986C602.519 301.845 596.268 295.495 589.025 290.168C580.568 283.955 570.96 277.965 561.679 272.184C559.726 270.967 557.794 269.765 555.893 268.57C526.52 250.126 509.807 225.065 493.631 200.833C490.358 195.923 486.969 190.84 483.548 185.938C481.975 183.677 480.317 180.992 478.554 178.141C470.994 165.888 461.576 150.64 445.844 146.263C440.66 144.823 437.018 144.881 434.083 144.931C428.814 145.018 426.174 145.061 422.447 136.263L422.954 136.163C426.565 144.694 428.909 144.658 434.072 144.571C437.049 144.521 440.755 144.47 446.045 145.932C461.978 150.367 471.438 165.686 479.04 178.004C480.792 180.848 482.45 183.533 484.023 185.787C487.444 190.696 490.833 195.779 494.117 200.689C510.261 224.893 526.964 249.917 556.253 268.311C558.164 269.506 560.096 270.715 562.038 271.925C571.33 277.713 580.938 283.703 589.416 289.93C596.691 295.272 602.952 301.636 609.012 307.791C614.122 312.982 619.402 318.345 625.261 323.068C630.414 327.215 635.978 331.354 641.373 335.35C663.841 352.016 687.07 369.251 688.263 393.498L687.735 393.512V393.498Z" fill="url(#paint16_radial_770_17085)"/>
<path d="M643.802 393.037C642.535 370.136 623.298 354.442 602.921 337.826C596.649 332.715 590.166 327.423 584.285 321.93C579.471 317.431 575.12 312.478 570.918 307.683C565.819 301.866 560.55 295.855 554.416 290.635C552.04 288.619 549.115 287.288 546.286 285.999C544.048 284.977 541.725 283.926 539.729 282.543C536.71 280.448 534.154 277.374 531.684 274.394C529.604 271.889 527.46 269.304 525.074 267.36C523.005 265.676 520.872 263.977 518.803 262.335C511.095 256.194 503.113 249.845 496.419 242.595C486.22 231.551 478.079 219.205 470.203 207.276C466.37 201.466 462.4 195.455 458.283 189.731C456.361 187.06 454.503 184.224 452.708 181.488C446.162 171.481 439.383 161.136 426.798 154.146C424.538 152.893 421.899 152.044 419.333 151.216C416.884 150.431 414.339 149.61 412.248 148.458C407.244 145.708 405.85 142.685 404.076 138.855C403.633 137.897 403.179 136.911 402.63 135.845L403.126 135.73C403.675 136.803 404.129 137.796 404.573 138.754C406.389 142.67 407.698 145.507 412.576 148.185C414.624 149.308 417.021 150.078 419.555 150.899C422.141 151.727 424.823 152.591 427.125 153.872C439.806 160.92 446.605 171.301 453.183 181.352C454.978 184.087 456.825 186.916 458.747 189.587C462.865 195.318 466.835 201.329 470.678 207.139C478.544 219.061 486.684 231.393 496.863 242.415C503.535 249.643 511.496 255.978 519.193 262.112C521.263 263.753 523.396 265.452 525.465 267.144C527.883 269.117 530.047 271.716 532.127 274.235C534.577 277.194 537.111 280.247 540.088 282.306C542.041 283.659 544.343 284.703 546.56 285.718C549.422 287.021 552.378 288.367 554.806 290.434C560.962 295.667 566.241 301.693 571.351 307.517C575.553 312.305 579.893 317.258 584.686 321.743C590.557 327.229 597.04 332.513 603.301 337.617C623.731 354.283 643.031 370.021 644.298 393.044L643.77 393.058L643.802 393.037Z" fill="url(#paint17_radial_770_17085)"/>
<path d="M599.468 392.562C598.211 370.777 581.592 355.594 564.002 339.525C557.139 333.255 550.034 326.768 543.836 319.807C539.824 315.3 536.118 310.527 532.528 305.912C528.474 300.693 524.282 295.293 519.636 290.275C516.099 286.453 513.766 285.099 511.053 283.537C509.141 282.428 506.966 281.176 504.021 278.865C501.793 277.123 499.935 275.006 497.96 272.767C496.123 270.686 494.233 268.534 492.016 266.705C474.035 251.825 462.463 233.726 451.272 216.217C447.017 209.551 442.603 202.661 437.936 196.11C429.046 183.627 420.072 171.554 408.099 161.158C406.758 159.992 405.48 158.89 404.255 157.846C394.964 149.877 388.83 144.607 383.223 133.297L383.72 133.182C389.294 144.434 395.408 149.682 404.667 157.623C405.892 158.674 407.17 159.768 408.51 160.935C420.515 171.359 429.5 183.447 438.411 195.952C443.078 202.51 447.492 209.407 451.757 216.073C462.938 233.56 474.489 251.637 492.428 266.475C494.666 268.325 496.567 270.492 498.414 272.58C500.378 274.804 502.226 276.907 504.422 278.627C507.347 280.916 509.5 282.162 511.401 283.263C514.146 284.847 516.511 286.215 520.09 290.088C524.747 295.12 528.938 300.527 532.993 305.747C536.572 310.354 540.278 315.127 544.279 319.627C550.467 326.574 557.551 333.053 564.414 339.324C582.057 355.443 598.718 370.669 599.985 392.562L599.457 392.576L599.468 392.562Z" fill="url(#paint18_radial_770_17085)"/>
<path d="M554.732 392.086C553.56 370.928 538.948 355.565 523.48 339.295C517.631 333.139 511.581 326.782 506.196 319.994C502.532 315.386 499.365 310.419 496.303 305.617C492.766 300.073 489.102 294.336 484.678 289.145C482.883 287.036 480.381 285.416 477.974 283.846C476.073 282.608 474.109 281.334 472.547 279.844C469.992 277.41 468.228 274.113 466.518 270.924C465.071 268.231 463.583 265.453 461.64 263.242C460.046 261.435 458.441 259.628 456.815 257.814C450.617 250.881 444.219 243.718 438.792 236.029C434.685 230.212 431.105 224.129 427.632 218.24C424.137 212.301 420.515 206.167 416.376 200.314C410.284 191.704 403.443 183.31 396.833 175.196C384.828 160.452 372.401 145.212 364.493 128.589L365 128.481C372.898 145.068 385.303 160.294 397.298 175.023C403.907 183.144 410.749 191.538 416.852 200.156C421.001 206.016 424.622 212.164 428.117 218.103C431.58 223.985 435.17 230.069 439.256 235.871C444.673 243.545 451.071 250.701 457.258 257.627C458.874 259.441 460.489 261.248 462.083 263.055C464.058 265.294 465.557 268.095 467.004 270.802C468.703 273.969 470.456 277.238 472.958 279.635C474.489 281.096 476.348 282.306 478.322 283.587C480.761 285.171 483.284 286.805 485.122 288.965C489.556 294.17 493.23 299.915 496.767 305.473C499.829 310.268 502.986 315.221 506.639 319.821C512.013 326.588 518.063 332.945 523.902 339.093C539.412 355.406 554.067 370.813 555.239 392.065L554.711 392.079L554.732 392.086Z" fill="url(#paint19_radial_770_17085)"/>
<path d="M510.05 391.611C509.057 371.576 496.693 356.558 483.612 340.648C478.364 334.27 472.937 327.675 468.165 320.62C462.221 311.837 457.343 302.68 452.634 293.825C451.652 291.974 450.659 290.124 449.667 288.267C446.573 282.529 445.539 281.831 443.49 280.441C442.181 279.556 440.386 278.346 437.387 275.301C435.487 273.372 433.977 270.701 432.531 268.131C431.306 265.949 430.028 263.696 428.508 261.867C419.322 250.766 412.607 238.304 406.103 226.253C401.31 217.369 396.358 208.19 390.477 199.666C388.133 196.261 385.768 192.863 383.414 189.458C377.987 181.625 372.38 173.526 366.953 165.542C358.528 153.16 353.734 141.979 348.17 129.035C347.526 127.53 346.871 126.004 346.196 124.464L346.702 124.363C347.368 125.911 348.022 127.437 348.677 128.941C354.23 141.871 359.024 153.037 367.428 165.398C372.866 173.382 378.472 181.481 383.889 189.314C386.243 192.719 388.608 196.124 390.952 199.522C396.844 208.061 401.806 217.254 406.599 226.145C413.093 238.182 419.808 250.629 428.962 261.702C430.493 263.559 431.781 265.82 433.016 268.015C434.463 270.571 435.952 273.22 437.82 275.114C440.787 278.13 442.487 279.275 443.849 280.196C445.897 281.579 447.027 282.342 450.152 288.152C451.155 290.002 452.137 291.859 453.119 293.709C457.828 302.557 462.706 311.715 468.64 320.483C473.402 327.524 478.829 334.111 484.066 340.483C497.179 356.429 509.575 371.489 510.578 391.611L510.05 391.626V391.611Z" fill="url(#paint20_radial_770_17085)"/>
<path d="M465.61 391.137C464.744 372.397 454.471 357.804 443.585 342.355C438.285 334.839 432.816 327.057 428.381 318.648C424.358 311.002 420.811 303.263 417.38 295.776C411.984 283.998 406.409 271.824 398.998 260.198C391.86 248.989 386.803 240.033 382.611 231.142C377.839 221.02 372.771 211.546 367.143 202.172C365.718 199.796 364.292 197.421 362.867 195.038C357.62 186.284 352.193 177.234 346.639 168.386C340.895 159.236 337.179 150.46 333.251 141.166C331.171 136.249 329.017 131.159 326.536 126.026L327.032 125.911C329.513 131.051 331.667 136.141 333.747 141.058C337.675 150.338 341.381 159.107 347.114 168.235C352.678 177.083 358.105 186.14 363.353 194.894C364.778 197.277 366.204 199.652 367.629 202.021C373.267 211.402 378.335 220.883 383.118 231.019C387.299 239.896 392.356 248.845 399.483 260.039C406.906 271.68 412.48 283.869 417.886 295.654C421.318 303.134 424.855 310.873 428.878 318.511C433.291 326.905 438.76 334.673 444.06 342.182C454.967 357.66 465.272 372.289 466.138 391.108L465.61 391.122V391.137Z" fill="url(#paint21_radial_770_17085)"/>
<path d="M421.381 390.661C420.695 372.692 412.069 357.818 402.936 342.074C398.047 333.643 392.99 324.925 389.242 315.66C387.098 310.376 385.726 304.883 384.385 299.57C383.15 294.66 381.872 289.577 380.003 284.71C377.934 279.333 374.703 273.955 371.578 268.75C369.846 265.863 368.051 262.875 366.457 259.902C361.526 250.673 358.137 240.932 354.864 231.516C351.2 220.976 347.41 210.076 341.423 199.76L339.639 196.693C333.747 186.557 327.645 176.075 322.809 165.369C319.874 158.89 317.794 152.216 315.777 145.766C313.528 138.567 311.205 131.123 307.7 123.988L308.196 123.873C311.702 131.029 314.035 138.488 316.284 145.694C318.301 152.137 320.381 158.804 323.305 165.269C328.141 175.959 334.233 186.434 340.125 196.564L341.909 199.63C347.906 209.968 351.707 220.882 355.371 231.429C358.644 240.839 362.022 250.565 366.943 259.772C368.526 262.738 370.321 265.719 372.053 268.606C375.189 273.818 378.419 279.203 380.499 284.61C382.379 289.491 383.656 294.58 384.881 299.498C386.211 304.796 387.584 310.282 389.717 315.552C393.454 324.796 398.512 333.507 403.39 341.93C412.544 357.703 421.181 372.605 421.877 390.639H421.349L421.381 390.661Z" fill="url(#paint22_radial_770_17085)"/>
<path d="M377.184 390.157C376.677 373.332 369.603 358.049 362.761 343.269C358.337 333.73 353.776 323.86 350.894 313.514C349.416 308.223 348.74 302.766 348.085 297.489C347.462 292.5 346.829 287.345 345.509 282.378C344.084 276.986 341.729 271.5 339.449 266.194C338.15 263.178 336.809 260.053 335.648 256.965C332.755 249.283 330.77 241.559 328.848 234.093C325.818 222.322 322.693 210.141 315.946 198.183C310.16 187.925 304.321 176.636 300.784 163.548C299.295 158.026 298.292 152.339 297.321 146.839C295.674 137.473 293.974 127.782 289.793 118.711L290.3 118.604C294.492 127.71 296.202 137.415 297.849 146.796C298.81 152.289 299.813 157.976 301.302 163.483C304.828 176.543 310.667 187.817 316.442 198.054C323.21 210.048 326.346 222.236 329.376 234.028C331.298 241.486 333.272 249.204 336.165 256.871C337.326 259.952 338.667 263.07 339.955 266.086C342.236 271.399 344.59 276.899 346.026 282.306C347.346 287.288 347.99 292.457 348.603 297.453C349.257 302.716 349.933 308.165 351.401 313.435C354.273 323.759 358.844 333.615 363.258 343.146C370.11 357.955 377.205 373.26 377.712 390.135H377.184V390.157Z" fill="url(#paint23_radial_770_17085)"/>
<path d="M332.86 389.668C332.628 374.247 327.486 359.654 322.524 345.544C318.776 334.889 314.901 323.874 313.116 312.521C311.575 302.673 310.984 292.738 310.413 283.127C309.812 272.947 309.178 262.422 307.415 252.113C306.993 249.629 306.591 247.145 306.19 244.662C303.656 228.816 301.027 212.431 291.092 197.176C280.829 181.417 280.079 164.729 279.351 148.588C278.791 136.17 278.211 123.319 273.291 111.023L273.797 110.929C278.739 123.269 279.319 136.134 279.879 148.574C280.607 164.686 281.357 181.338 291.577 197.032C301.545 212.337 304.173 228.751 306.718 244.626C307.119 247.109 307.51 249.593 307.943 252.07C309.706 262.393 310.34 272.926 310.941 283.113C311.511 292.716 312.103 302.644 313.644 312.485C315.418 323.81 319.293 334.817 323.041 345.465C328.014 359.597 333.156 374.211 333.399 389.668H332.871H332.86Z" fill="url(#paint24_radial_770_17085)"/>
<path d="M288.568 389.192C288.547 375.168 285.074 361.36 281.716 348.006C278.686 335.976 275.561 323.536 274.99 311.038C274.536 301.002 274.99 290.995 275.413 281.32C275.898 270.355 276.405 259.016 275.582 247.764C275.191 242.379 275.202 237.44 275.212 232.667C275.244 218.845 275.275 206.909 265.213 192.266C254.096 176.082 256.577 158.242 258.984 140.993C260.8 127.926 262.69 114.413 258.604 101.764L259.121 101.685C263.218 114.392 261.339 127.926 259.512 141.022C257.115 158.221 254.645 176.01 265.699 192.107C275.803 206.822 275.782 218.802 275.74 232.667C275.729 237.44 275.719 242.372 276.11 247.75C276.933 259.016 276.426 270.362 275.941 281.334C275.508 291.01 275.064 301.009 275.518 311.031C276.078 323.507 279.203 335.933 282.233 347.948C285.601 361.317 289.075 375.139 289.096 389.192H288.568Z" fill="url(#paint25_radial_770_17085)"/>
<path d="M244.224 388.717C244.372 375.896 242.323 362.923 240.338 350.374C238.037 335.789 235.65 320.706 236.738 305.876C237.741 292.147 240.56 278.483 243.295 265.266C244.868 257.634 246.494 249.744 247.74 242.005C248.077 239.867 248.056 237.664 248.025 235.339C247.993 232.711 247.961 229.99 248.489 227.29C248.722 226.138 248.975 224.972 249.228 223.791C250.084 219.875 250.96 215.836 250.97 211.984C250.97 203.446 247.349 197.068 241.067 188.925C228.217 172.266 233.887 152.569 239.367 133.52C243.379 119.59 247.518 105.192 244.319 92.1682L244.836 92.1106C248.046 105.199 243.896 119.633 239.874 133.592C234.405 152.577 228.756 172.216 241.521 188.76C247.835 196.952 251.498 203.374 251.488 211.984C251.488 215.857 250.601 219.918 249.746 223.841C249.492 225.022 249.239 226.188 249.007 227.34C248.479 230.018 248.51 232.718 248.542 235.339C248.574 237.678 248.595 239.888 248.257 242.048C247.011 249.794 245.385 257.692 243.812 265.323C241.088 278.534 238.269 292.191 237.266 305.905C236.178 320.707 238.564 335.774 240.856 350.346C242.841 362.901 244.889 375.888 244.741 388.724H244.213L244.224 388.717Z" fill="url(#paint26_radial_770_17085)"/>
<path d="M199.974 388.264C200.196 377.335 199.224 366.097 198.285 355.226C196.785 337.862 195.244 319.914 198.454 302.644C201.178 287.964 206.003 273.415 210.669 259.348C213.108 251.997 215.621 244.395 217.786 236.951C220.087 229.01 223.16 217.412 224.733 207.261C226.095 198.5 222.653 193.482 217.891 186.542C216.888 185.081 215.854 183.576 214.798 181.927C207.935 171.273 211.092 161.41 214.734 149.992C216.297 145.089 218.134 140.158 220.077 134.931C226.56 117.48 233.254 99.4392 229.78 82.7442L230.308 82.6938C233.792 99.4608 227.077 117.538 220.594 135.018C218.652 140.237 216.825 145.176 215.262 150.049C211.63 161.417 208.494 171.222 215.283 181.776C216.339 183.418 217.374 184.93 218.377 186.384C222.991 193.115 226.644 198.435 225.261 207.297C223.688 217.463 220.605 229.075 218.303 237.023C216.149 244.474 213.626 252.076 211.187 259.427C206.531 273.487 201.705 288.029 198.981 302.687C195.782 319.922 197.324 337.855 198.823 355.205C199.763 366.083 200.734 377.328 200.512 388.271H199.985L199.974 388.264Z" fill="url(#paint27_radial_770_17085)"/>
<path d="M155.798 387.81C156.041 379.149 155.777 370.157 155.513 361.468C154.922 341.418 154.309 320.692 159.652 301.182C163.252 288.029 168.616 275.207 173.8 262.81C177.939 252.919 182.215 242.696 185.551 232.387C187.177 227.361 189.616 222.344 191.96 217.491C194.769 211.703 197.661 205.714 199.235 199.659C201.22 192.006 198.242 187.507 194.494 181.812C193.554 180.394 192.583 178.918 191.612 177.291C185.118 166.428 189.722 155.37 194.177 144.679C194.557 143.765 194.937 142.85 195.318 141.929C197.123 137.523 199.161 133.045 201.315 128.308C209.645 110.022 218.261 91.1096 214.787 73.6156L215.315 73.5652C218.799 91.1456 210.163 110.094 201.821 128.416C199.668 133.153 197.63 137.624 195.824 142.022C195.444 142.937 195.064 143.858 194.684 144.772C190.049 155.895 185.667 166.399 192.097 177.147C193.069 178.774 194.04 180.243 194.969 181.661C198.76 187.413 201.758 191.949 199.752 199.717C198.179 205.8 195.275 211.797 192.467 217.599C190.123 222.437 187.694 227.448 186.069 232.459C182.722 242.775 178.445 253.005 174.307 262.904C169.122 275.294 163.769 288.108 160.169 301.247C154.837 320.713 155.449 341.426 156.041 361.461C156.294 370.158 156.558 379.149 156.326 387.817H155.798V387.81Z" fill="url(#paint28_radial_770_17085)"/>
<path d="M111.506 387.321C111.77 382.382 111.981 377.299 112.182 372.382C113.28 345.652 114.42 318.007 124.662 292.371C129.825 279.448 136.519 266.749 142.991 254.474C147.996 244.978 153.169 235.151 157.593 225.31C159.842 220.292 162.46 215.577 164.994 211.013C172.248 197.946 179.1 185.599 174.624 170.33C171.477 159.603 176.408 148.675 181.18 138.099C182.141 135.961 183.144 133.744 184.042 131.598C185.33 128.517 186.692 125.407 188.138 122.11C196.384 103.262 205.728 81.9023 201.758 63.3356L202.276 63.2852C206.256 81.9311 196.902 103.334 188.634 122.211C187.188 125.508 185.826 128.618 184.548 131.699C183.651 133.844 182.648 136.062 181.687 138.207C176.936 148.74 172.016 159.632 175.141 170.265C179.649 185.628 172.776 198.025 165.491 211.142C162.957 215.699 160.349 220.415 158.1 225.418C153.676 235.267 148.502 245.094 143.487 254.596C137.025 266.864 130.342 279.549 125.179 292.464C114.948 318.057 113.808 345.681 112.71 372.39C112.509 377.307 112.298 382.389 112.034 387.335L111.506 387.321Z" fill="url(#paint29_radial_770_17085)"/>
<path d="M67.2246 386.845C69.463 352.987 72.6726 320.13 87.1164 290.311C90.495 283.35 95.1618 276.568 99.6808 270.017C104.221 263.437 108.909 256.634 112.224 249.708C115.106 243.689 118.981 237.894 122.74 232.3C125.644 227.981 128.642 223.51 131.144 218.975C133.826 214.115 136.878 209.155 139.823 204.367C147.679 191.582 155.809 178.364 158.712 164.613C161.605 150.899 168.162 136.623 174.497 122.822C185.203 99.504 196.279 75.3939 191.189 51.8885L191.707 51.8381C196.817 75.4299 185.72 99.5832 174.993 122.937C168.658 136.724 162.112 150.985 159.23 164.671C156.326 178.465 148.186 191.711 140.309 204.511C137.363 209.299 134.323 214.252 131.641 219.111C129.128 223.654 126.129 228.132 123.226 232.459C119.478 238.045 115.603 243.826 112.731 249.83C109.415 256.778 104.707 263.588 100.166 270.182C95.6581 276.726 90.9913 283.487 87.6232 290.434C73.2006 320.21 69.9909 353.045 67.7631 386.874L67.2352 386.86L67.2246 386.845Z" fill="url(#paint30_radial_770_17085)"/>
<path d="M22.5524 386.363C25.9205 345.162 34.7261 313.406 50.2679 286.438C58.7251 271.766 69.5367 257.656 80 244.013C87.792 233.855 95.848 223.352 102.806 212.754C108.581 203.957 115.381 195.145 121.948 186.621C129.708 176.55 137.733 166.132 144.226 155.593C150.54 145.334 156.442 133.786 162.798 119.244L162.988 118.805C173.483 94.8028 186.544 64.9334 181.212 40.1466L181.729 40.0962C187.072 64.9622 173.99 94.8748 163.484 118.913L163.294 119.352C156.928 133.909 151.026 145.471 144.701 155.737C138.208 166.291 130.173 176.715 122.413 186.794C115.845 195.311 109.056 204.123 103.292 212.906C96.3231 223.51 88.2671 234.021 80.4751 244.179C70.0224 257.814 59.2001 271.917 50.7641 286.568C35.2434 313.5 26.4484 345.212 23.0803 386.377L22.5524 386.356V386.363Z" fill="url(#paint31_radial_770_17085)"/>
<path d="M-21.6973 385.881C-18.1497 346.976 -6.01816 311.729 14.3804 281.125C28.6658 259.686 46.0342 238.751 62.8219 218.5C66.0105 214.648 69.199 210.811 72.356 206.974C87.2326 188.896 104.337 169.459 128.537 149.754C142.463 138.409 148.766 122.793 154.331 109.021L155.08 107.157C165.733 80.8582 175.648 53.1485 169.915 28.9304L170.432 28.8728C176.186 53.1629 166.251 80.9158 155.587 107.25L154.837 109.108C149.263 122.923 142.938 138.574 128.938 149.978C104.77 169.66 87.6866 189.084 72.8205 207.146C69.6636 210.984 66.475 214.821 63.2864 218.672C46.4988 238.916 29.1514 259.844 14.8661 281.269C-5.51141 311.837 -17.6323 347.041 -21.1694 385.902L-21.6973 385.881Z" fill="url(#paint32_radial_770_17085)"/>
<path d="M-65.4614 385.413C-61.9455 347.3 -46.7099 309.577 -21.4017 276.324C-9.0274 260.068 5.47968 244.561 19.5117 229.565C27.9794 220.508 36.7427 211.149 44.9465 201.711C48.2513 197.91 51.5033 193.857 54.6391 189.941C61.3753 181.539 68.3438 172.85 76.8115 165.326C84.0122 158.919 92.5539 154.535 101.602 149.884C104.633 148.329 107.758 146.724 110.83 145.032C127.227 136.026 134.322 121.944 140.71 107.092C156.79 69.7212 161.837 40.9101 156.146 19.0245L156.664 18.9597C162.376 40.9029 157.318 69.7644 141.217 107.193C138.261 114.068 134.988 121.332 130.374 127.934C125.158 135.385 118.876 141.072 111.158 145.313C108.075 147.005 104.949 148.617 101.919 150.172C92.9023 154.801 84.3923 159.178 77.2338 165.542C68.7977 173.044 61.8398 181.719 55.1142 190.113C51.9678 194.037 48.7158 198.09 45.4111 201.891C37.1967 211.329 28.4334 220.695 19.9656 229.752C5.94424 244.741 -8.56282 260.241 -20.9266 276.482C-46.2031 309.692 -61.4177 347.365 -64.923 385.427L-65.4509 385.406L-65.4614 385.413Z" fill="url(#paint33_radial_770_17085)"/>
<path d="M-109.669 384.938C-106.66 354.334 -94.6024 325.3 -71.7226 293.58C-51.5246 265.582 -26.153 239.896 0.717827 212.704C5.59576 207.773 10.6321 202.669 15.5733 197.615C19.7122 193.389 23.7349 188.882 27.6309 184.52C34.536 176.802 41.6629 168.818 49.93 161.734C58.5772 154.326 69.1144 150.309 80.2851 146.047C85.3636 144.111 90.6111 142.109 95.7213 139.748C114.663 130.986 121.98 115.724 128.389 99.5187C142.695 63.3644 146.697 33.5382 140.277 10.8895L140.795 10.8247C147.235 33.531 143.234 63.4076 128.895 99.6195C122.455 115.89 115.096 131.224 96.0064 140.05C90.8856 142.419 85.617 144.427 80.5279 146.371C69.41 150.611 58.9151 154.614 50.3312 161.965C42.0852 169.027 34.9583 176.996 28.0743 184.714C24.1783 189.077 20.1451 193.583 16.0062 197.816C11.0649 202.87 6.01805 207.967 1.14012 212.906C-25.7202 240.09 -51.0917 265.762 -71.2686 293.738C-94.1167 325.422 -106.164 354.406 -109.162 384.967L-109.69 384.945L-109.669 384.938Z" fill="url(#paint34_radial_770_17085)"/>
<path d="M-153.961 384.463C-146.845 316.301 -88.0667 262.436 -31.2314 210.35C-25.5933 205.188 -19.7651 199.847 -14.1059 194.591C-9.52359 190.344 -5.04689 185.664 -0.717987 181.143C7.9926 172.036 17.0094 162.62 28.0745 155.24C37.5347 148.934 48.6209 145.874 60.3512 142.642C65.0074 141.36 69.8114 140.036 74.5098 138.488C100.863 129.806 109.373 110.807 115.286 93.6872C130.669 49.1171 127.766 20.8026 122.613 4.89242L123.131 4.81323C128.294 20.7594 131.208 49.1315 115.803 93.7664C109.87 110.973 101.307 130.058 74.7421 138.812C70.0331 140.36 65.2186 141.691 60.5518 142.973C48.8638 146.191 37.8304 149.236 28.4441 155.492C17.4212 162.843 8.42554 172.245 -0.274506 181.337C-4.60339 185.866 -9.09067 190.552 -13.673 194.807C-19.3428 200.062 -25.1604 205.404 -30.7985 210.566C-87.5916 262.616 -146.317 316.437 -153.422 384.491L-153.95 384.463H-153.961Z" fill="url(#paint35_radial_770_17085)"/>
<path d="M-198.485 383.98C-190.683 316.106 -127.534 262.825 -66.4644 211.3C-59.1792 205.152 -51.6511 198.803 -44.4292 192.597C-39.5302 188.385 -34.7367 183.763 -30.0911 179.293C-21.0004 170.524 -11.593 161.46 -0.295609 154.29C10.4527 147.465 22.6687 144.312 35.6026 140.971C42.1487 139.28 48.9271 137.53 55.4733 135.27C82.3124 125.983 90.9913 106.25 97.0201 88.4893C105.308 64.0985 113.143 29.1896 103.45 1.43673L103.967 1.35034C113.681 29.1752 105.836 64.1417 97.5374 88.5685C91.477 106.408 82.7559 126.228 55.7161 135.586C49.1383 137.861 42.3599 139.611 35.7926 141.31C22.9115 144.636 10.7378 147.775 0.0634003 154.556C-11.1917 161.698 -20.5781 170.747 -29.6582 179.502C-34.3038 183.972 -39.0973 188.601 -44.0069 192.82C-51.2288 199.026 -58.7674 205.383 -66.0421 211.531C-127.058 263.012 -190.155 316.25 -197.947 384.016L-198.475 383.987L-198.485 383.98Z" fill="url(#paint36_radial_770_17085)"/>
<path d="M-242.735 383.512C-239.156 354.125 -223.593 324.904 -195.17 294.185C-170.041 267.029 -138.176 242.012 -107.367 217.823C-96.6295 209.393 -85.5222 200.667 -75.1434 192.179C-70.4767 188.364 -65.8099 184.289 -61.3015 180.344C-51.345 171.64 -41.0401 162.641 -29.3732 155.175C-17.6958 147.703 -3.43152 143.506 10.3576 139.438C15.7318 137.854 21.2854 136.22 26.6596 134.399C39.4985 130.057 49.6133 123.83 57.5954 115.357C64.0782 108.474 69.2834 99.9648 74.0029 88.5757C82.3123 68.5043 94.5705 30.4782 83.3575 1.29989L83.8644 1.2063C95.109 30.471 82.8297 68.5691 74.5097 88.6693C69.7796 100.094 64.5427 108.633 58.0388 115.544C50.0039 124.075 39.8152 130.345 26.8918 134.715C21.4966 136.537 15.9429 138.178 10.5687 139.762C-3.81166 144.002 -17.3896 148.005 -29.0037 155.435C-40.6389 162.879 -50.9227 171.863 -60.8686 180.56C-65.3876 184.505 -70.0543 188.587 -74.7211 192.402C-85.1104 200.89 -96.2178 209.616 -106.956 218.046C-137.754 242.228 -169.598 267.231 -194.705 294.365C-223.086 325.033 -238.617 354.197 -242.197 383.527L-242.725 383.498L-242.735 383.512Z" fill="url(#paint37_radial_770_17085)"/>
<path d="M-286.024 383.052C-278.084 317.294 -204.25 264.301 -139.105 217.549C-127.65 209.328 -116.817 201.56 -106.364 193.756C-102.13 190.603 -97.8437 187.327 -93.6943 184.16C-82.0697 175.29 -70.0438 166.118 -57.3949 157.969C-45.2635 150.158 -30.4501 145.082 -16.112 140.18C-9.62921 137.962 -2.92471 135.666 3.46304 133.146C25.5298 124.428 40.1531 111.512 50.8908 91.2683C59.2636 75.4805 77.3816 35.4962 64.7962 5.2524L65.3029 5.15161C77.9306 35.4962 59.7809 75.5669 51.3871 91.3835C40.5966 111.714 25.8994 124.694 3.72699 133.456C-2.67133 135.983 -9.38641 138.279 -15.8798 140.504C-30.1757 145.399 -44.9678 150.453 -57.0359 158.235C-69.6742 166.377 -81.6896 175.542 -93.3037 184.404C-97.4531 187.572 -101.75 190.848 -105.984 194.001C-116.447 201.805 -127.27 209.573 -138.736 217.801C-203.817 264.51 -277.588 317.445 -285.517 383.08L-286.045 383.052H-286.024Z" fill="url(#paint38_radial_770_17085)"/>
<path d="M-330.707 382.576C-322.292 317.496 -243.538 266.691 -174.053 221.869C-160.708 213.259 -148.112 205.131 -136.181 197.032C-130.712 193.317 -125.2 189.458 -119.868 185.729C-108.803 177.983 -97.3581 169.977 -85.4694 162.663C-72.2927 154.549 -56.9515 148.394 -42.1171 142.447C-36.025 140.007 -29.7323 137.48 -23.6613 134.845C0.116028 124.543 17.1677 110.656 29.996 91.1459C36.0247 81.9813 44.1547 67.8277 48.6947 52.4934C53.2981 36.9504 53.2559 23.5095 48.568 12.5595L49.0748 12.4587C53.7838 23.4663 53.8366 36.9648 49.2121 52.5654C44.6614 67.9357 36.5105 82.1109 30.4817 91.2971C17.6111 110.879 0.506714 124.817 -23.3656 135.155C-29.4471 137.789 -35.7505 140.316 -41.8426 142.757C-56.6559 148.696 -71.9654 154.844 -85.1105 162.929C-96.9886 170.236 -108.423 178.242 -119.488 185.981C-124.82 189.71 -130.332 193.569 -135.811 197.284C-147.742 205.383 -160.349 213.518 -173.694 222.128C-243.105 266.907 -321.785 317.661 -330.179 382.605L-330.707 382.576Z" fill="url(#paint39_radial_770_17085)"/>
<path d="M-374.175 382.116C-371.546 363.023 -361.22 344.053 -342.606 324.119C-324.351 304.573 -300.584 287.122 -284.303 275.697C-255.891 255.77 -224.902 237.167 -194.938 219.169C-185.393 213.439 -175.532 207.514 -165.881 201.632C-160.539 198.371 -155.122 195.023 -149.875 191.791C-136.487 183.526 -122.656 174.973 -108.645 167.004C-96.2072 159.927 -82.5553 153.736 -69.3574 147.76C-61.5548 144.226 -53.4883 140.568 -45.7491 136.76C-22.8059 125.479 -3.7905 110.864 10.7799 93.3344C24.189 77.2011 45.1155 46.5253 34.7261 22.3576L35.233 22.2568C45.6857 46.5469 24.6852 77.3235 11.2445 93.5072C-3.3576 111.088 -22.4258 125.738 -45.4324 137.048C-53.1716 140.856 -61.2487 144.514 -69.0618 148.056C-82.2491 154.031 -95.8904 160.215 -108.307 167.277C-122.307 175.247 -136.149 183.792 -149.527 192.057C-154.763 195.297 -160.19 198.644 -165.533 201.905C-175.183 207.787 -185.045 213.712 -194.589 219.443C-224.543 237.433 -255.532 256.029 -283.923 275.949C-300.193 287.367 -323.939 304.796 -342.162 324.313C-360.724 344.19 -371.029 363.11 -373.647 382.144L-374.175 382.108V382.116Z" fill="url(#paint40_radial_770_17085)"/>
<path d="M-418.531 381.648C-412.238 340.252 -365.76 305.934 -321.131 277.821C-289.825 258.102 -255.901 239.881 -223.086 222.258C-213.901 217.326 -204.398 212.222 -195.096 207.161C-167.539 192.172 -139.021 177.45 -111.443 163.217C-97.77 156.162 -83.6219 148.862 -69.7694 141.612C-57.3317 135.111 -25.8152 117.481 -1.80569 94.2777C21.7181 71.5426 30.1859 51.1401 23.3758 33.6461L23.8826 33.5525C30.7455 51.1617 22.246 71.6578 -1.37283 94.4864C-25.4246 117.733 -56.9939 135.392 -69.4527 141.9C-83.3157 149.15 -97.4532 156.45 -111.137 163.505C-138.715 177.738 -167.222 192.453 -194.78 207.442C-204.081 212.503 -213.584 217.607 -222.77 222.538C-255.574 240.162 -289.498 258.383 -320.782 278.087C-365.338 306.157 -411.742 340.411 -418.013 381.691L-418.541 381.655L-418.531 381.648Z" fill="url(#paint41_radial_770_17085)"/>
<path d="M-462.326 381.187C-459.37 362.203 -447.059 343.593 -424.697 324.299C-404.045 306.481 -378.198 291.168 -357.989 279.822C-323.284 260.334 -286.056 242.351 -250.062 224.957C-241.648 220.897 -232.948 216.693 -224.416 212.532C-212.771 206.859 -200.882 201.135 -189.373 195.599C-157.435 180.229 -124.419 164.333 -92.9868 147.753C-71.015 136.163 -49.4339 122.549 -28.8664 107.308C-12.0787 94.868 25.4349 63.8683 11.3607 44.6896L11.8358 44.5312C17.9807 52.9111 15.2145 64.3074 3.60037 78.3962C-5.83875 89.843 -19.0471 100.57 -28.4651 107.553C-49.0538 122.815 -70.656 136.436 -92.649 148.041C-124.081 164.621 -157.118 180.524 -189.057 195.894C-200.555 201.43 -212.454 207.154 -224.089 212.827C-232.62 216.988 -241.32 221.185 -249.735 225.253C-285.728 242.639 -322.946 260.622 -357.63 280.096C-377.818 291.435 -403.633 306.726 -424.264 324.522C-446.563 343.758 -458.831 362.311 -461.788 381.23L-462.316 381.194L-462.326 381.187Z" fill="url(#paint42_radial_770_17085)"/>
<path d="M-510.504 380.683C-508.287 361.735 -494.487 342.952 -468.313 323.269C-446.784 307.071 -420.442 292.99 -395.165 280.182C-358.57 261.637 -319.715 244.669 -282.128 228.262C-273.333 224.424 -264.242 220.458 -255.32 216.527C-248.468 213.51 -241.605 210.501 -234.753 207.492C-196.374 190.653 -156.685 173.245 -118.929 154.715C-94.1799 142.57 -70.0648 128.711 -47.2483 113.535C-25.2871 98.9209 9.61859 71.6648 -3.32587 53.2924L-2.85074 53.134C10.231 71.7079 -24.8225 99.1081 -46.8788 113.787C-69.7058 128.978 -93.8526 142.843 -118.622 155.003C-156.389 173.541 -196.089 190.948 -234.478 207.787C-241.331 210.796 -248.194 213.806 -255.046 216.822C-263.978 220.753 -273.069 224.72 -281.864 228.564C-319.441 244.971 -358.295 261.932 -394.869 280.47C-420.114 293.263 -446.447 307.337 -467.933 323.514C-494.022 343.146 -507.769 361.857 -509.986 380.719L-510.514 380.69L-510.504 380.683Z" fill="url(#paint43_radial_770_17085)"/>
<defs>
<radialGradient id="paint0_radial_770_17085" cx="0" cy="0" r="1" gradientUnits="userSpaceOnUse" gradientTransform="translate(270.065 62.7146) rotate(14.4407) scale(272.767 199.299)">
<stop stop-color="white"/>
<stop offset="0.08" stop-color="white"/>
<stop offset="1" stop-color="white"/>
</radialGradient>
<radialGradient id="paint1_radial_770_17085" cx="0" cy="0" r="1" gradientUnits="userSpaceOnUse" gradientTransform="translate(271.69 72.8219) rotate(14.4407) scale(274.797 200.782)">
<stop stop-color="white"/>
<stop offset="0.08" stop-color="white"/>
<stop offset="1" stop-color="white"/>
</radialGradient>
<radialGradient id="paint2_radial_770_17085" cx="0" cy="0" r="1" gradientUnits="userSpaceOnUse" gradientTransform="translate(272.712 82.7122) rotate(14.4407) scale(278.03 203.144)">
<stop stop-color="white"/>
<stop offset="0.08" stop-color="white"/>
<stop offset="1" stop-color="white"/>
</radialGradient>
<radialGradient id="paint3_radial_770_17085" cx="0" cy="0" r="1" gradientUnits="userSpaceOnUse" gradientTransform="translate(273.084 92.412) rotate(14.4407) scale(282.345 206.297)">
<stop stop-color="white"/>
<stop offset="0.08" stop-color="white"/>
<stop offset="1" stop-color="white"/>
</radialGradient>
<radialGradient id="paint4_radial_770_17085" cx="0" cy="0" r="1" gradientUnits="userSpaceOnUse" gradientTransform="translate(274.723 101.253) rotate(14.4407) scale(288.954 211.126)">
<stop stop-color="white"/>
<stop offset="0.08" stop-color="white"/>
<stop offset="1" stop-color="white"/>
</radialGradient>
<radialGradient id="paint5_radial_770_17085" cx="0" cy="0" r="1" gradientUnits="userSpaceOnUse" gradientTransform="translate(275.995 109.53) rotate(14.4407) scale(296.655 216.752)">
<stop stop-color="white"/>
<stop offset="0.08" stop-color="white"/>
<stop offset="1" stop-color="white"/>
</radialGradient>
<radialGradient id="paint6_radial_770_17085" cx="0" cy="0" r="1" gradientUnits="userSpaceOnUse" gradientTransform="translate(276.527 116.985) rotate(14.4407) scale(305.1 222.923)">
<stop stop-color="white"/>
<stop offset="0.08" stop-color="white"/>
<stop offset="1" stop-color="white"/>
</radialGradient>
<radialGradient id="paint7_radial_770_17085" cx="0" cy="0" r="1" gradientUnits="userSpaceOnUse" gradientTransform="translate(276.868 124.623) rotate(14.4407) scale(314.586 229.854)">
<stop stop-color="white"/>
<stop offset="0.08" stop-color="white"/>
<stop offset="1" stop-color="white"/>
</radialGradient>
<radialGradient id="paint8_radial_770_17085" cx="0" cy="0" r="1" gradientUnits="userSpaceOnUse" gradientTransform="translate(277.146 132.251) rotate(14.4407) scale(325.112 237.544)">
<stop stop-color="white"/>
<stop offset="0.08" stop-color="white"/>
<stop offset="1" stop-color="white"/>
</radialGradient>
<radialGradient id="paint9_radial_770_17085" cx="0" cy="0" r="1" gradientUnits="userSpaceOnUse" gradientTransform="translate(277.379 139.837) rotate(14.4407) scale(336.617 245.951)">
<stop stop-color="white"/>
<stop offset="0.08" stop-color="white"/>
<stop offset="1" stop-color="white"/>
</radialGradient>
<radialGradient id="paint10_radial_770_17085" cx="0" cy="0" r="1" gradientUnits="userSpaceOnUse" gradientTransform="translate(278.041 147.241) rotate(14.4407) scale(348.663 254.752)">
<stop stop-color="white"/>
<stop offset="0.08" stop-color="white"/>
<stop offset="1" stop-color="white"/>
</radialGradient>
<radialGradient id="paint11_radial_770_17085" cx="0" cy="0" r="1" gradientUnits="userSpaceOnUse" gradientTransform="translate(278.969 153.329) rotate(14.4407) scale(358.985 262.294)">
<stop stop-color="white"/>
<stop offset="0.08" stop-color="white"/>
<stop offset="1" stop-color="white"/>
</radialGradient>
<radialGradient id="paint12_radial_770_17085" cx="0" cy="0" r="1" gradientUnits="userSpaceOnUse" gradientTransform="translate(279.95 159.323) rotate(14.4407) scale(369.643 270.082)">
<stop stop-color="white"/>
<stop offset="0.08" stop-color="white"/>
<stop offset="1" stop-color="white"/>
</radialGradient>
<radialGradient id="paint13_radial_770_17085" cx="0" cy="0" r="1" gradientUnits="userSpaceOnUse" gradientTransform="translate(281.026 164.979) rotate(14.4407) scale(380.057 277.69)">
<stop stop-color="white"/>
<stop offset="0.08" stop-color="white"/>
<stop offset="1" stop-color="white"/>
</radialGradient>
<radialGradient id="paint14_radial_770_17085" cx="0" cy="0" r="1" gradientUnits="userSpaceOnUse" gradientTransform="translate(281.844 170.553) rotate(14.4407) scale(390.613 285.404)">
<stop stop-color="white"/>
<stop offset="0.08" stop-color="white"/>
<stop offset="1" stop-color="white"/>
</radialGradient>
<radialGradient id="paint15_radial_770_17085" cx="0" cy="0" r="1" gradientUnits="userSpaceOnUse" gradientTransform="translate(282.715 176.072) rotate(14.4407) scale(401.486 293.348)">
<stop stop-color="white"/>
<stop offset="0.08" stop-color="white"/>
<stop offset="1" stop-color="white"/>
</radialGradient>
<radialGradient id="paint16_radial_770_17085" cx="0" cy="0" r="1" gradientUnits="userSpaceOnUse" gradientTransform="translate(555.337 264.884) rotate(14.4407) scale(157.716 115.236)">
<stop stop-color="white"/>
<stop offset="0.08" stop-color="white"/>
<stop offset="1" stop-color="white"/>
</radialGradient>
<radialGradient id="paint17_radial_770_17085" cx="0" cy="0" r="1" gradientUnits="userSpaceOnUse" gradientTransform="translate(523.48 264.429) rotate(14.4408) scale(153.106 111.868)">
<stop stop-color="white"/>
<stop offset="0.08" stop-color="white"/>
<stop offset="1" stop-color="white"/>
</radialGradient>
<radialGradient id="paint18_radial_770_17085" cx="0" cy="0" r="1" gradientUnits="userSpaceOnUse" gradientTransform="translate(491.596 262.922) rotate(14.4407) scale(149.607 109.311)">
<stop stop-color="white"/>
<stop offset="0.08" stop-color="white"/>
<stop offset="1" stop-color="white"/>
</radialGradient>
<radialGradient id="paint19_radial_770_17085" cx="0" cy="0" r="1" gradientUnits="userSpaceOnUse" gradientTransform="translate(459.854 260.342) rotate(14.4408) scale(147.302 107.627)">
<stop stop-color="white"/>
<stop offset="0.08" stop-color="white"/>
<stop offset="1" stop-color="white"/>
</radialGradient>
<radialGradient id="paint20_radial_770_17085" cx="0" cy="0" r="1" gradientUnits="userSpaceOnUse" gradientTransform="translate(428.358 258.034) rotate(14.4407) scale(145.242 106.122)">
<stop stop-color="white"/>
<stop offset="0.08" stop-color="white"/>
<stop offset="1" stop-color="white"/>
</radialGradient>
<radialGradient id="paint21_radial_770_17085" cx="0" cy="0" r="1" gradientUnits="userSpaceOnUse" gradientTransform="translate(396.315 258.587) rotate(14.4407) scale(141.223 103.186)">
<stop stop-color="white"/>
<stop offset="0.08" stop-color="white"/>
<stop offset="1" stop-color="white"/>
</radialGradient>
<radialGradient id="paint22_radial_770_17085" cx="0" cy="0" r="1" gradientUnits="userSpaceOnUse" gradientTransform="translate(364.792 257.325) rotate(14.4407) scale(139.286 101.77)">
<stop stop-color="white"/>
<stop offset="0.08" stop-color="white"/>
<stop offset="1" stop-color="white"/>
</radialGradient>
<radialGradient id="paint23_radial_770_17085" cx="0" cy="0" r="1" gradientUnits="userSpaceOnUse" gradientTransform="translate(333.73 254.436) rotate(14.4408) scale(139.387 101.844)">
<stop stop-color="white"/>
<stop offset="0.08" stop-color="white"/>
<stop offset="1" stop-color="white"/>
</radialGradient>
<radialGradient id="paint24_radial_770_17085" cx="0" cy="0" r="1" gradientUnits="userSpaceOnUse" gradientTransform="translate(303.312 250.343) rotate(14.4407) scale(141.223 103.186)">
<stop stop-color="white"/>
<stop offset="0.08" stop-color="white"/>
<stop offset="1" stop-color="white"/>
</radialGradient>
<radialGradient id="paint25_radial_770_17085" cx="0" cy="0" r="1" gradientUnits="userSpaceOnUse" gradientTransform="translate(273.831 245.475) rotate(14.4407) scale(144.498 105.578)">
<stop stop-color="white"/>
<stop offset="0.08" stop-color="white"/>
<stop offset="1" stop-color="white"/>
</radialGradient>
<radialGradient id="paint26_radial_770_17085" cx="0" cy="0" r="1" gradientUnits="userSpaceOnUse" gradientTransform="translate(244.509 240.464) rotate(14.4407) scale(148.68 108.633)">
<stop stop-color="white"/>
<stop offset="0.08" stop-color="white"/>
<stop offset="1" stop-color="white"/>
</radialGradient>
<radialGradient id="paint27_radial_770_17085" cx="0" cy="0" r="1" gradientUnits="userSpaceOnUse" gradientTransform="translate(215.106 235.517) rotate(14.4408) scale(153.504 112.158)">
<stop stop-color="white"/>
<stop offset="0.08" stop-color="white"/>
<stop offset="1" stop-color="white"/>
</radialGradient>
<radialGradient id="paint28_radial_770_17085" cx="0" cy="0" r="1" gradientUnits="userSpaceOnUse" gradientTransform="translate(185.524 230.731) rotate(14.4407) scale(158.787 116.019)">
<stop stop-color="white"/>
<stop offset="0.08" stop-color="white"/>
<stop offset="1" stop-color="white"/>
</radialGradient>
<radialGradient id="paint29_radial_770_17085" cx="0" cy="0" r="1" gradientUnits="userSpaceOnUse" gradientTransform="translate(156.872 225.346) rotate(14.4407) scale(165.305 120.781)">
<stop stop-color="white"/>
<stop offset="0.08" stop-color="white"/>
<stop offset="1" stop-color="white"/>
</radialGradient>
<radialGradient id="paint30_radial_770_17085" cx="0" cy="0" r="1" gradientUnits="userSpaceOnUse" gradientTransform="translate(129.446 219.376) rotate(14.4407) scale(173.148 126.512)">
<stop stop-color="white"/>
<stop offset="0.08" stop-color="white"/>
<stop offset="1" stop-color="white"/>
</radialGradient>
<radialGradient id="paint31_radial_770_17085" cx="0" cy="0" r="1" gradientUnits="userSpaceOnUse" gradientTransform="translate(102.118 213.27) rotate(14.4407) scale(181.787 132.824)">
<stop stop-color="white"/>
<stop offset="0.08" stop-color="white"/>
<stop offset="1" stop-color="white"/>
</radialGradient>
<radialGradient id="paint32_radial_770_17085" cx="0" cy="0" r="1" gradientUnits="userSpaceOnUse" gradientTransform="translate(77.8811 208.329) rotate(14.4407) scale(191.099 139.628)">
<stop stop-color="white"/>
<stop offset="0.08" stop-color="white"/>
<stop offset="1" stop-color="white"/>
</radialGradient>
<radialGradient id="paint33_radial_770_17085" cx="0" cy="0" r="1" gradientUnits="userSpaceOnUse" gradientTransform="translate(52.2615 203.948) rotate(14.4407) scale(199.881 146.044)">
<stop stop-color="white"/>
<stop offset="0.08" stop-color="white"/>
<stop offset="1" stop-color="white"/>
</radialGradient>
<radialGradient id="paint34_radial_770_17085" cx="0" cy="0" r="1" gradientUnits="userSpaceOnUse" gradientTransform="translate(26.0068 200.612) rotate(14.4407) scale(207.857 151.872)">
<stop stop-color="white"/>
<stop offset="0.08" stop-color="white"/>
<stop offset="1" stop-color="white"/>
</radialGradient>
<radialGradient id="paint35_radial_770_17085" cx="0" cy="0" r="1" gradientUnits="userSpaceOnUse" gradientTransform="translate(-1.87323 198.172) rotate(14.4407) scale(215.028 157.111)">
<stop stop-color="white"/>
<stop offset="0.08" stop-color="white"/>
<stop offset="1" stop-color="white"/>
</radialGradient>
<radialGradient id="paint36_radial_770_17085" cx="0" cy="0" r="1" gradientUnits="userSpaceOnUse" gradientTransform="translate(-32.9427 196.397) rotate(14.4407) scale(220.811 161.336)">
<stop stop-color="white"/>
<stop offset="0.08" stop-color="white"/>
<stop offset="1" stop-color="white"/>
</radialGradient>
<radialGradient id="paint37_radial_770_17085" cx="0" cy="0" r="1" gradientUnits="userSpaceOnUse" gradientTransform="translate(-66.3544 195.773) rotate(14.4407) scale(224.809 164.258)">
<stop stop-color="white"/>
<stop offset="0.08" stop-color="white"/>
<stop offset="1" stop-color="white"/>
</radialGradient>
<radialGradient id="paint38_radial_770_17085" cx="0" cy="0" r="1" gradientUnits="userSpaceOnUse" gradientTransform="translate(-99.5211 196.929) rotate(14.4407) scale(227.298 166.076)">
<stop stop-color="white"/>
<stop offset="0.08" stop-color="white"/>
<stop offset="1" stop-color="white"/>
</radialGradient>
<radialGradient id="paint39_radial_770_17085" cx="0" cy="0" r="1" gradientUnits="userSpaceOnUse" gradientTransform="translate(-133.074 199.555) rotate(14.4407) scale(229.144 167.425)">
<stop stop-color="white"/>
<stop offset="0.08" stop-color="white"/>
<stop offset="1" stop-color="white"/>
</radialGradient>
<radialGradient id="paint40_radial_770_17085" cx="0" cy="0" r="1" gradientUnits="userSpaceOnUse" gradientTransform="translate(-163.931 203.652) rotate(14.4407) scale(230.602 168.491)">
<stop stop-color="white"/>
<stop offset="0.08" stop-color="white"/>
<stop offset="1" stop-color="white"/>
</radialGradient>
<radialGradient id="paint41_radial_770_17085" cx="0" cy="0" r="1" gradientUnits="userSpaceOnUse" gradientTransform="translate(-192.985 208.752) rotate(14.4407) scale(233.02 170.257)">
<stop stop-color="white"/>
<stop offset="0.08" stop-color="white"/>
<stop offset="1" stop-color="white"/>
</radialGradient>
<radialGradient id="paint42_radial_770_17085" cx="0" cy="0" r="1" gradientUnits="userSpaceOnUse" gradientTransform="translate(-221.995 213.733) rotate(14.4407) scale(235.916 172.373)">
<stop stop-color="white"/>
<stop offset="0.08" stop-color="white"/>
<stop offset="1" stop-color="white"/>
</radialGradient>
<radialGradient id="paint43_radial_770_17085" cx="0" cy="0" r="1" gradientUnits="userSpaceOnUse" gradientTransform="translate(-253.915 217.649) rotate(14.4407) scale(240.863 175.988)">
<stop stop-color="white"/>
<stop offset="0.08" stop-color="white"/>
<stop offset="1" stop-color="white"/>
</radialGradient>
</defs>
</svg>
