<svg width="438" height="164" viewBox="0 0 438 164" fill="none" xmlns="http://www.w3.org/2000/svg">
<mask id="mask0_770_17080" style="mask-type:luminance" maskUnits="userSpaceOnUse" x="0" y="0" width="438" height="164">
<path d="M418 0H20C8.95431 0 0 8.95431 0 20V144C0 155.046 8.95431 164 20 164H418C429.046 164 438 155.046 438 144V20C438 8.95431 429.046 0 418 0Z" fill="white"/>
</mask>
<g mask="url(#mask0_770_17080)">
<path d="M-128.621 97.0377L-129.012 96.7929C-121.315 91.0408 -99.1528 91.9623 -81.341 92.7038C-73.2956 93.0349 -65.6936 93.3517 -60.7312 92.9917C-35.6869 91.1775 -15.2672 86.3037 -0.0632324 78.507C11.6776 72.4884 20.6943 64.3174 29.4049 56.4054C46.6044 40.812 62.8536 26.0753 97.8437 27.7239C144.374 29.9124 172.111 56.0383 188.93 75.4977C207.692 97.2105 235.672 114.51 262.722 131.234L266.132 133.343C283.026 143.804 299 149.887 314.954 151.946C320.581 152.673 326.082 152.356 331.404 152.047C335.131 151.831 338.984 151.608 342.859 151.744C352.921 152.09 357.694 153.436 366.362 155.884C367.481 156.201 368.674 156.539 369.952 156.892C388.007 161.91 409.398 164.156 428.624 163.069C450.776 161.809 469.221 156.373 481.954 147.346C494.973 138.123 500.917 125.568 506.682 113.423C513.344 99.3558 520.239 84.8135 538.24 75.8865C555.577 67.2834 578.383 64.3606 604.187 67.4346C625.505 69.9759 648.532 76.6856 667.379 85.8501L667.073 86.1453C648.289 77.0095 625.336 70.3215 604.103 67.7946C578.446 64.7349 555.788 67.6362 538.557 76.1816C520.693 85.0438 513.83 99.5286 507.188 113.538C501.413 125.719 495.448 138.311 482.345 147.598C469.517 156.69 450.955 162.162 428.677 163.429C409.366 164.523 387.88 162.262 369.762 157.23C368.484 156.877 367.291 156.539 366.172 156.222C357.556 153.796 352.816 152.457 342.838 152.112C338.995 151.982 335.162 152.198 331.456 152.414C326.103 152.723 320.571 153.04 314.869 152.306C298.821 150.24 282.762 144.128 265.794 133.617L262.384 131.507C235.302 114.762 207.301 97.4552 188.497 75.6921C171.741 56.3047 144.11 30.2724 97.8332 28.091C63.1281 26.4568 46.9633 41.1144 29.8589 56.6286C21.1167 64.5549 12.0788 72.7476 0.285141 78.8021C-15.0033 86.6421 -35.5074 91.5375 -60.6467 93.3589C-65.6513 93.7189 -73.2639 93.4021 -81.341 93.0709C-99.0367 92.3366 -121.072 91.4151 -128.589 97.0449L-128.621 97.0377Z" fill="url(#paint0_radial_770_17080)"/>
<path d="M-130.099 105.072L-130.374 104.77C-118.622 99.7808 -101.381 100.299 -84.6881 100.81C-76.0197 101.069 -67.8265 101.321 -60.6574 100.796C-34.1138 98.8665 -12.9445 94.0214 2.29112 86.3975C14.1375 80.4654 23.3021 72.6038 32.1605 64.9943C49.6767 49.9624 66.2216 35.7584 101.096 37.1406C120.66 37.9181 138.039 42.8208 154.235 52.1293C167 59.4725 178.646 69.2778 190.873 82.9851C211.134 105.691 241.774 123.531 268.814 139.276C285.697 149.102 301.724 154.955 317.826 157.173C323.347 157.936 328.859 157.777 334.191 157.633C337.918 157.533 341.761 157.425 345.583 157.633C355.434 158.159 360.692 159.556 369.392 161.881C370.49 162.176 371.641 162.479 372.866 162.803C407.011 171.78 457.638 171.528 484.214 153.343C496.641 144.833 503.123 133.127 509.385 121.803C516.765 108.47 524.398 94.6766 541.809 86.4695C559.315 78.212 582.427 75.7067 608.622 79.2199C630.33 82.1284 653.357 89.1476 671.803 98.4777L671.486 98.7657C653.093 89.4716 630.14 82.4739 608.516 79.5727C582.458 76.0811 559.494 78.5648 542.105 86.7647C524.831 94.9069 517.229 108.643 509.881 121.926C503.599 133.286 497.095 145.028 484.594 153.595C468.777 164.422 446.795 167.77 431.137 168.677C411.636 169.8 390.319 167.77 372.676 163.141C371.451 162.817 370.3 162.507 369.202 162.219C360.555 159.908 355.329 158.519 345.552 158.001C341.761 157.799 337.928 157.9 334.223 158.001C328.859 158.145 323.316 158.303 317.73 157.533C301.545 155.301 285.433 149.426 268.476 139.556C241.405 123.797 210.733 105.943 190.429 83.1795C178.224 69.501 166.62 59.7245 153.898 52.4101C137.796 43.152 120.512 38.2781 101.074 37.5078C66.4749 36.1399 50.004 50.2648 32.5829 65.2247C23.7033 72.8486 14.5176 80.7317 2.60786 86.6927C-12.6911 94.3526 -33.9555 99.2193 -60.594 101.163C-67.8053 101.689 -76.0092 101.437 -84.7092 101.177C-101.317 100.673 -118.485 100.155 -130.089 105.087L-130.099 105.072Z" fill="url(#paint1_radial_770_17080)"/>
<path d="M-133.869 113.027L-134.133 112.718C-122.107 107.93 -104.992 108.528 -88.4363 109.104C-79.789 109.406 -71.6169 109.694 -64.374 109.219C-36.8907 107.426 -16.0065 102.956 -0.517456 95.5547C9.5657 90.7313 17.2099 84.1368 24.5902 77.7583C30.6823 72.4957 36.9856 67.0531 44.6509 62.604C61.2169 52.9859 81.436 48.1193 101.581 48.8968C145.926 50.603 172.142 72.9637 190.028 92.2503C210.036 113.826 239.135 129.988 269.711 146.007C286.932 155.027 303.318 160.477 319.821 162.673C325.417 163.414 331.044 163.335 336.482 163.256C340.135 163.206 343.915 163.148 347.653 163.342C357.345 163.853 362.846 165.099 371.958 167.172C372.95 167.395 373.975 167.633 375.051 167.871C408.437 175.387 458.979 173.198 485.776 156.518C497.781 149.045 505.172 138.599 512.309 128.498C520.851 116.418 529.677 103.935 546.434 96.7786C564.509 89.0611 587.928 86.9805 614.165 90.7673C636.179 93.9493 659.207 101.213 677.346 110.709L677.029 110.997C658.953 101.537 636 94.2877 614.059 91.12C587.959 87.3549 564.678 89.4138 546.719 97.0882C530.089 104.194 521.294 116.634 512.784 128.664C505.615 138.793 498.214 149.268 486.125 156.791C477.298 162.291 460.901 169.332 432.943 171.679C413.156 173.335 391.997 172.075 374.872 168.223C373.795 167.979 372.76 167.748 371.768 167.518C362.698 165.459 357.219 164.213 347.589 163.709C343.873 163.515 340.114 163.573 336.471 163.623C331.002 163.702 325.343 163.789 319.694 163.033C303.107 160.83 286.647 155.351 269.363 146.302C238.744 130.262 209.603 114.078 189.553 92.4519C155.629 55.8728 124.683 50.1566 101.518 49.2639C81.4993 48.4936 61.4175 53.3315 44.9571 62.8848C37.334 67.3123 31.0413 72.7405 24.9703 77.9887C17.5583 84.3888 9.89301 91.0049 -0.25351 95.8571C-15.8164 103.294 -36.7851 107.786 -64.3634 109.586C-71.6381 110.061 -79.8313 109.773 -88.4996 109.471C-104.981 108.895 -122.012 108.297 -133.9 113.034L-133.869 113.027Z" fill="url(#paint2_radial_770_17080)"/>
<path d="M-139.845 120.925L-140.098 120.608C-127.977 116.051 -111.105 116.792 -94.7924 117.512C-86.3458 117.887 -78.3638 118.232 -71.2369 117.858C-43.8698 116.411 -22.8905 112.394 -7.09531 105.569C3.11455 101.156 11.2339 95.0148 19.0892 89.0683C25.6565 84.1008 32.4455 78.9678 40.4381 74.8427C57.3103 66.1388 77.7088 61.6825 97.8752 62.2873C133.066 63.3528 160.887 75.649 185.435 100.983C207.882 124.143 239.198 139.527 269.352 153.307C287.228 161.471 303.994 166.352 320.602 168.223C329.007 169.174 336.978 169.375 344.696 169.577C355.117 169.843 364.958 170.102 375.854 172.017C410.992 178.194 459.19 172.212 485.597 158.389C497.749 152.025 506.513 142.868 514.991 134.006C525.285 123.236 535.939 112.106 552.642 106.217C571.678 99.5071 595.339 98.0817 621.081 102.077C643.179 105.511 666.059 112.998 683.839 122.609L683.512 122.89C665.784 113.308 642.989 105.85 620.964 102.423C595.35 98.4416 571.805 99.8599 552.885 106.526C536.297 112.372 525.697 123.466 515.434 134.193C506.935 143.084 498.15 152.27 485.924 158.67C459.401 172.55 411.002 178.561 375.727 172.356C364.894 170.448 355.075 170.196 344.686 169.93C336.957 169.728 328.964 169.526 320.528 168.569C303.846 166.69 287.016 161.787 269.078 153.595C238.881 139.801 207.512 124.388 185.013 101.17C160.56 75.9441 132.876 63.6983 97.8647 62.6328C77.825 62.0281 57.5531 66.4556 40.776 75.1162C32.8256 79.2198 26.0471 84.3384 19.501 89.2986C11.6245 95.2596 3.47356 101.422 -6.79965 105.864C-22.6688 112.725 -43.7326 116.764 -71.1841 118.211C-78.3426 118.585 -86.3458 118.239 -94.8136 117.865C-111.052 117.152 -127.84 116.411 -139.824 120.918L-139.845 120.925Z" fill="url(#paint3_radial_770_17080)"/>
<path d="M-147.89 128.772L-148.133 128.455C-135.854 124.035 -119.129 124.805 -102.954 125.547C-94.6445 125.928 -86.7997 126.288 -79.7151 125.957C-50.4158 124.582 -27.6944 120.147 -10.2733 112.394C-1.66824 108.564 5.82812 103.704 13.0711 99.0032C21.2538 93.6974 29.7216 88.2044 39.8258 84.1657C57.7538 77.0025 77.7089 73.95 99.1317 75.0875C139.581 77.2473 162.545 92.6175 184.569 115.05C205.496 136.36 237.329 149.477 268.138 161.089C286.71 168.087 304.058 172.32 321.173 174.033C331.71 175.084 340.948 174.868 349.353 174.472C360.323 173.961 363.912 174.336 373.51 175.336C374.671 175.459 375.928 175.588 377.3 175.725C414.18 179.49 459.528 169.325 488.12 157.59C500.674 152.436 510.831 144.804 520.65 137.425C531.525 129.261 542.759 120.817 557.161 115.885C600.144 101.163 659.154 113.02 695.232 132.35L694.904 132.631C658.953 113.373 600.186 101.552 557.393 116.209C543.087 121.112 531.874 129.528 521.041 137.67C511.19 145.071 501.012 152.716 488.395 157.9C472.863 164.278 453.827 169.634 434.78 172.989C413.684 176.704 393.782 177.77 377.226 176.085C375.864 175.948 374.608 175.819 373.436 175.696C363.881 174.703 360.302 174.328 349.395 174.839C340.959 175.235 331.689 175.451 321.109 174.4C303.931 172.68 286.52 168.439 267.895 161.42C237.023 149.794 205.137 136.648 184.136 115.266C171.54 102.444 160.665 94.0142 148.872 87.9309C134.576 80.5661 118.295 76.4842 99.1001 75.4619C77.7829 74.3244 57.9333 77.3625 40.1004 84.4897C30.0489 88.5068 21.6128 93.9782 13.4407 99.2768C6.17657 103.992 -1.34091 108.859 -9.97758 112.71C-27.4832 120.5 -50.2786 124.956 -79.6729 126.339C-86.7891 126.67 -94.6551 126.31 -102.986 125.928C-119.087 125.187 -135.727 124.424 -147.879 128.793L-147.89 128.772Z" fill="url(#paint4_radial_770_17080)"/>
<path d="M-157.889 136.569L-158.132 136.245C-145.071 131.695 -127.132 132.321 -109.785 132.926C-100.325 133.257 -91.3821 133.574 -83.4529 133.055C-56.1174 131.277 -35.4126 127.231 -18.3082 120.313C-9.61874 116.8 -1.76338 112.401 5.83859 108.146C16.0168 102.444 26.5328 96.5555 39.1605 92.7543C57.3736 87.2685 78.5429 85.3031 100.377 87.0813C139.823 90.285 160.686 103.884 179.881 123.315C201.758 145.467 234.098 157.216 268.117 168.267C301.988 179.274 334.37 179.375 368.642 179.476C373.573 179.49 378.673 179.505 383.794 179.555C421.877 179.908 467.246 164.458 494.349 155.229C505.847 151.313 516.627 145.935 527.038 140.737C539.93 134.301 553.254 127.649 568.015 123.754C589.775 118.009 615.031 116.814 641.025 120.298C665.256 123.538 689.023 130.809 707.965 140.766L707.637 141.054C688.759 131.133 665.066 123.884 640.92 120.658C615.01 117.196 589.87 118.383 568.194 124.1C553.497 127.98 540.204 134.618 527.344 141.032C516.913 146.237 506.122 151.629 494.582 155.56C478.554 161.017 459.866 167.237 440.935 171.967C418.879 177.474 400.18 180.08 383.783 179.929C378.662 179.879 373.563 179.865 368.632 179.85C351.073 179.8 334.476 179.742 317.91 178.331C299.296 176.74 283.395 173.652 267.874 168.605C233.792 157.533 201.378 145.755 179.427 123.531C153.011 96.7786 128.695 89.7594 100.304 87.4557C78.5641 85.6847 57.4897 87.6357 39.3611 93.0999C26.8073 96.8866 16.3124 102.761 6.16589 108.441C-1.44662 112.703 -9.31255 117.109 -18.0443 120.644C-35.2226 127.591 -55.9907 131.659 -83.4106 133.437C-91.3715 133.955 -100.336 133.638 -109.817 133.307C-127.09 132.703 -144.965 132.076 -157.899 136.583L-157.889 136.569Z" fill="url(#paint5_radial_770_17080)"/>
<path d="M-169.725 144.315L-169.968 143.991C-156.833 139.484 -138.757 139.959 -121.283 140.42C-111.96 140.665 -103.165 140.895 -95.3204 140.384C-65.7572 138.462 -42.4128 133.948 -23.9675 126.576C-17.1891 123.869 -10.6852 120.745 -4.40303 117.721C6.56703 112.451 17.9066 106.994 30.9884 103.654C49.2859 98.9744 70.5925 97.4482 92.6171 99.2336C131.102 102.351 153.433 111.595 177.97 134.553C200.28 155.423 233.612 165.668 268.708 175.156C307.045 185.538 341.381 184.969 385.715 183.068C412.533 181.916 438.876 173.176 464.353 164.725C476.443 160.715 487.867 156.921 499.322 153.897C509.617 151.183 520.08 147.871 530.195 144.675C546.835 139.419 564.034 133.977 581.392 130.852C605.211 126.555 630.403 125.647 654.233 128.225C680.027 131.018 703.034 137.879 720.782 148.066L720.444 148.339C702.77 138.188 679.858 131.356 654.16 128.578C630.403 126.007 605.285 126.914 581.54 131.198C564.235 134.322 547.046 139.751 530.427 145.006C520.302 148.202 509.838 151.514 499.523 154.235C488.088 157.252 476.675 161.039 464.586 165.049C439.066 173.515 412.67 182.269 385.757 183.428C341.349 185.336 306.919 185.883 268.518 175.495C233.359 165.985 199.942 155.718 177.548 134.769C153.116 111.904 130.87 102.704 92.5537 99.5936C70.6136 97.8154 49.3914 99.3344 31.1678 103.992C18.1495 107.318 6.84157 112.754 -4.10738 118.016C-10.4001 121.04 -16.9146 124.172 -23.7141 126.886C-42.2228 134.286 -65.6411 138.815 -95.2782 140.744C-103.155 141.255 -111.971 141.025 -121.304 140.78C-138.715 140.319 -156.717 139.851 -169.725 144.308V144.315Z" fill="url(#paint6_radial_770_17080)"/>
<path d="M-183.271 152.025L-183.503 151.701C-169.471 146.993 -150.181 147.317 -131.514 147.634C-121.135 147.807 -111.327 147.979 -102.658 147.295C-75.7453 145.179 -53.8368 141.047 -35.6977 134.639C-28.9826 132.271 -22.4999 129.614 -16.2282 127.037C-3.01982 121.616 10.6426 116.015 26.5012 113.2C46.5619 109.644 68.766 109.348 94.4015 112.293C130.838 116.476 150.434 124.704 175.035 146.151C197.778 165.977 230.941 174.336 268.782 182.485C288.231 186.675 308.608 189.252 331.066 190.375C345.615 191.103 359.298 189.807 373.795 188.439C378.261 188.014 382.886 187.582 387.478 187.215C411.319 185.314 433.312 177.086 454.576 169.131C470.424 163.198 486.821 157.065 503.841 153.609C534.608 147.36 567.497 142.306 595.614 138.196C620.616 134.538 645.787 133.811 668.403 136.086C694.619 138.721 717.066 145.229 735.142 155.409L734.804 155.682C716.813 145.539 694.439 139.067 668.329 136.432C645.776 134.164 620.669 134.891 595.72 138.541C567.613 142.652 534.735 147.699 503.989 153.947C487.022 157.396 470.657 163.522 454.83 169.44C433.513 177.417 411.477 185.66 387.542 187.568C382.949 187.935 378.335 188.367 373.869 188.792C359.985 190.102 345.636 191.462 331.034 190.735C308.534 189.612 288.114 187.028 268.624 182.831C230.698 174.66 197.45 166.28 174.623 146.381C150.118 125.021 130.606 116.828 94.3276 112.66C68.766 109.723 46.6358 110.018 26.649 113.567C10.8644 116.368 -2.15402 121.71 -15.9431 127.361C-22.2253 129.938 -28.7186 132.602 -35.4443 134.97C-53.6468 141.392 -75.608 145.546 -102.584 147.663C-111.284 148.347 -121.114 148.181 -131.514 148.001C-150.107 147.684 -169.344 147.36 -183.25 152.032L-183.271 152.025Z" fill="url(#paint7_radial_770_17080)"/>
<path d="M-198.412 159.693L-198.644 159.369C-184.137 154.631 -164.646 154.826 -145.81 155.02C-135.537 155.121 -125.844 155.222 -117.144 154.545C-89.9462 152.429 -67.4993 148.469 -48.5155 142.45C-42.0433 140.399 -35.6978 138.131 -29.5739 135.935C-13.1452 130.061 2.36487 124.517 21.0319 122.401C39.7201 120.284 60.4987 120.637 84.5505 123.481C121.895 127.894 143.783 133.523 167.127 153.573C192.857 175.668 229.822 183.32 268.634 189.807C311.269 196.934 352.076 197.366 393.37 191.131C414.318 187.971 432.963 180.167 450.997 172.629C468.904 165.142 487.413 157.403 508.329 154.07C520.745 152.097 532.771 151.543 545.515 150.953C548.651 150.809 551.892 150.658 555.102 150.485C565.417 149.938 575.722 148.555 585.7 147.224C591.897 146.396 598.306 145.539 604.652 144.891C633.803 141.903 658.731 141.414 680.84 143.386C708.503 145.856 732.09 152.357 750.947 162.723L750.62 163.004C731.837 152.688 708.334 146.208 680.777 143.746C658.71 141.774 633.845 142.27 604.736 145.244C598.401 145.892 591.992 146.748 585.805 147.576C575.817 148.908 565.502 150.29 555.155 150.845C551.945 151.017 548.703 151.169 545.568 151.313C532.855 151.896 520.84 152.45 508.466 154.423C487.634 157.734 469.157 165.459 451.293 172.932C433.217 180.491 414.529 188.302 393.497 191.477C352.119 197.726 311.237 197.294 268.518 190.152C229.611 183.651 192.551 175.977 166.715 153.789C143.466 133.826 121.674 128.225 84.4556 123.826C60.4671 120.99 39.7412 120.637 21.1058 122.746C2.52324 124.848 -12.9552 130.385 -29.3417 136.245C-35.4761 138.44 -41.811 140.708 -48.3043 142.767C-67.3409 148.807 -89.8407 152.774 -117.102 154.898C-125.834 155.575 -135.548 155.481 -145.831 155.373C-164.614 155.186 -184.031 154.984 -198.433 159.685L-198.412 159.693Z" fill="url(#paint8_radial_770_17080)"/>
<path d="M-215.03 167.331L-215.252 167.007C-200.037 162.212 -180.515 162.305 -161.637 162.392C-151.374 162.442 -141.682 162.485 -132.707 161.794C-101.761 159.411 -75.228 154.509 -51.5774 146.806C-50.1731 146.352 -48.7794 145.891 -47.3857 145.438C-28.6131 139.29 -10.8857 133.487 9.67123 131.651C35.2434 129.362 60.7416 131.91 84.4872 135.006C119.171 139.52 139.918 145.013 164.023 163.997C190.873 185.141 228.967 191.534 268.93 196.703C320.19 203.334 362.888 202.88 399.452 195.307C418.383 191.39 435.054 183.716 451.177 176.301C470.234 167.539 489.936 158.475 513.597 155.452C526.911 153.753 540.31 154.127 553.275 154.494C557.678 154.617 562.239 154.746 566.758 154.79C578.034 154.905 589.353 153.933 600.291 152.997C604.884 152.601 609.625 152.198 614.313 151.874C667.98 148.173 724.066 146.532 768.147 170.095L767.82 170.376C723.887 146.899 667.928 148.541 614.365 152.234C609.688 152.558 604.947 152.961 600.354 153.357C589.395 154.3 578.066 155.272 566.747 155.157C562.229 155.106 557.667 154.984 553.254 154.862C540.32 154.502 526.943 154.127 513.692 155.812C490.137 158.814 470.488 167.856 451.472 176.603C435.318 184.033 418.615 191.714 399.61 195.652C362.951 203.24 320.18 203.701 268.835 197.063C228.777 191.88 190.587 185.472 163.622 164.235C139.623 145.33 118.95 139.866 84.3922 135.366C60.6889 132.278 35.2434 129.736 9.74515 132.018C-10.7274 133.847 -28.4125 139.642 -47.1429 145.769C-48.5366 146.222 -49.9303 146.683 -51.3346 147.137C-75.0379 154.862 -101.624 159.771 -132.633 162.154C-141.65 162.845 -151.353 162.802 -161.626 162.752C-180.452 162.665 -199.911 162.572 -215.009 167.331H-215.03Z" fill="url(#paint9_radial_770_17080)"/>
<path d="M-232.008 174.53L-232.219 174.199C-216.392 169.389 -196.944 169.454 -178.129 169.512C-168.5 169.541 -158.554 169.577 -149.495 168.922C-116.363 166.524 -89.2809 162.032 -66.7178 155.185C-64.6695 154.566 -62.6424 153.947 -60.6258 153.328C-38.9496 146.698 -18.4771 140.427 6.12376 139.542C31.263 138.635 56.3918 141.723 80.6864 144.718H80.7709C115.423 148.994 135.04 153.904 159.726 171.729C189.796 193.442 230.614 199.101 269.838 203.039C310.192 207.092 357.282 209.986 400.539 200.792C420.019 196.653 436.839 188.496 453.109 180.606C472.483 171.211 492.512 161.499 517.282 158.396C532.697 156.467 548.123 157.669 563.042 158.835C566.22 159.08 569.493 159.339 572.734 159.563C593.333 160.981 614.746 159.872 631.1 158.756C685.761 155.006 742.417 154.682 786.54 177.467L786.223 177.755C742.247 155.049 685.708 155.38 631.164 159.116C614.788 160.239 593.333 161.348 572.692 159.923C569.451 159.699 566.167 159.44 562.989 159.195C548.102 158.036 532.718 156.834 517.388 158.756C492.734 161.845 472.747 171.535 453.426 180.908C437.124 188.813 420.273 196.984 400.708 201.145C357.345 210.36 310.181 207.459 269.764 203.406C230.445 199.461 189.521 193.78 159.346 171.988C134.755 154.235 115.212 149.34 80.6758 145.092H80.5913C56.3284 142.097 31.2313 139.002 6.14484 139.909C-18.3609 140.794 -38.7912 147.043 -60.4146 153.666C-62.4312 154.286 -64.4584 154.905 -66.5067 155.524C-89.1331 162.385 -116.257 166.891 -149.453 169.296C-158.543 169.951 -168.51 169.922 -178.15 169.886C-196.902 169.821 -216.297 169.757 -232.029 174.537L-232.008 174.53Z" fill="url(#paint10_radial_770_17080)"/>
<path d="M-246.188 180.188L-246.399 179.857C-230.298 175.178 -210.765 175.278 -191.876 175.372C-181.983 175.422 -172.639 175.466 -163.717 174.882C-129.498 172.636 -102.806 168.641 -79.7258 162.327C-75.4285 161.154 -71.1314 159.922 -66.9714 158.742C-46.9212 153.026 -27.9796 147.626 -6.07114 146.388C19.1843 144.963 44.9887 147.504 69.1144 150.456C73.2004 150.96 77.3921 151.399 81.457 151.831C95.4045 153.314 109.838 154.847 122.951 158.907C135.389 162.759 144.205 168.482 153.528 174.551C155.228 175.653 156.949 176.776 158.712 177.892C190.64 198.193 231.87 203.866 271.369 207.941C313.412 212.282 362.497 215.471 407.814 206.228C427.452 202.225 444.905 194.716 461.788 187.452C483.041 178.309 505.013 168.857 531.557 166.308C545.578 164.962 559.705 165.703 573.378 166.423C577.876 166.661 582.532 166.906 587.125 167.071C603.153 167.654 619.592 166.719 635.482 165.804C639.23 165.588 642.957 165.379 646.674 165.185C671.507 163.889 700.278 162.687 727.455 164.832C757.589 167.208 782.242 173.349 802.81 183.601L802.493 183.889C781.999 173.666 757.43 167.546 727.392 165.185C700.257 163.047 671.517 164.249 646.716 165.545C643 165.739 639.262 165.955 635.524 166.164C619.613 167.078 603.153 168.014 587.093 167.431C582.501 167.266 577.844 167.021 573.336 166.783C559.695 166.063 545.589 165.322 531.631 166.661C505.203 169.202 483.284 178.633 462.073 187.755C445.158 195.026 427.674 202.549 407.972 206.573C362.55 215.839 313.391 212.642 271.295 208.294C231.712 204.212 190.397 198.517 158.364 178.151C156.6 177.028 154.879 175.912 153.179 174.803C143.888 168.763 135.104 163.054 122.75 159.231C109.7 155.193 95.3095 153.666 81.3937 152.183C77.3287 151.751 73.1265 151.305 69.0405 150.801C44.957 147.849 19.1843 145.315 -6.0078 146.734C-27.8318 147.965 -46.7311 153.357 -66.7496 159.059C-70.9096 160.246 -75.2174 161.47 -79.5146 162.651C-102.637 168.979 -129.381 172.975 -163.654 175.228C-172.607 175.818 -181.962 175.768 -191.865 175.718C-210.701 175.624 -230.181 175.523 -246.177 180.174L-246.188 180.188Z" fill="url(#paint11_radial_770_17080)"/>
<path d="M-260.811 185.761L-261.011 185.43C-244.044 180.685 -223.308 180.765 -203.258 180.851C-192.393 180.894 -182.13 180.937 -172.427 180.261C-140.204 178.022 -112.668 173.889 -88.2462 167.619C-84.0229 166.539 -79.7996 165.416 -75.7135 164.336C-53.3194 158.404 -32.1817 152.796 -7.771 151.644C18.2446 150.413 44.2603 152.745 68.5021 155.438C71.3951 155.762 74.3514 156.064 77.2021 156.367C91.9943 157.907 107.293 159.498 121.357 163.926C133.182 167.648 142.262 173.062 151.881 178.799C154.077 180.11 156.358 181.47 158.659 182.795C191.844 201.966 233.37 207.985 273.048 212.506C324.477 218.366 369.382 218.481 410.316 212.851C432.531 209.799 452.845 202.333 472.473 195.12C492.745 187.669 513.703 179.973 537.005 176.963C553.18 174.876 569.736 174.976 585.742 175.084C588.223 175.099 590.704 175.113 593.196 175.12C605.38 175.156 617.512 174.177 629.242 173.227C636.464 172.644 643.918 172.039 651.351 171.672C676.776 170.427 708.419 168.872 738.14 170.837C771.029 173.004 797.668 179.174 819.576 189.677L819.27 189.972C797.446 179.505 770.892 173.357 738.088 171.19C708.408 169.232 676.797 170.779 651.393 172.025C643.971 172.392 636.517 172.99 629.305 173.58C617.565 174.53 605.423 175.516 593.196 175.473C590.715 175.466 588.223 175.452 585.742 175.437C569.757 175.336 553.233 175.228 537.111 177.309C513.882 180.311 492.956 187.993 472.726 195.429C453.056 202.657 432.71 210.13 410.422 213.197C369.424 218.834 324.456 218.726 272.963 212.851C233.211 208.323 191.601 202.29 158.311 183.061C156.009 181.729 153.729 180.376 151.532 179.058C141.946 173.342 132.887 167.943 121.135 164.242C107.135 159.837 91.8781 158.246 77.1177 156.712C74.2669 156.417 71.3212 156.107 68.4176 155.783C44.2075 153.091 18.2341 150.766 -7.73929 151.989C-32.0656 153.141 -53.1822 158.735 -75.5341 164.653C-79.6201 165.733 -83.854 166.856 -88.0667 167.943C-112.53 174.221 -140.109 178.367 -172.385 180.606C-182.109 181.283 -192.383 181.24 -203.268 181.197C-223.266 181.117 -243.949 181.031 -260.821 185.754L-260.811 185.761Z" fill="url(#paint12_radial_770_17080)"/>
<path d="M-274.98 190.958L-275.17 190.62C-257.253 185.84 -235.418 185.977 -214.302 186.106C-202.455 186.178 -191.274 186.25 -180.726 185.516C-146.971 183.162 -120.101 179.202 -96.1861 173.054C-92.2162 172.032 -88.2251 170.981 -84.3502 169.958C-63.4976 164.451 -43.7959 159.246 -21.5707 157.439C0.665039 155.639 24.833 156.186 54.4807 159.167C57.701 159.491 60.9951 159.8 64.1837 160.103C79.8734 161.579 96.0804 163.105 111.126 166.978C111.242 167.007 111.358 167.036 111.474 167.072C126.351 170.945 137.933 177.028 150.202 183.471C152.789 184.832 155.46 186.236 158.152 187.611C176.883 197.171 202.888 208.121 274.895 217.12C318.712 222.599 363.68 223.355 412.375 219.431C437.63 217.394 461.555 210.036 484.699 202.924C505.647 196.48 527.302 189.821 550.087 187.013C564.266 185.264 578.784 184.666 592.816 184.09C597.472 183.896 602.287 183.702 607.028 183.464C617.607 182.931 628.239 181.801 638.512 180.714C647.698 179.735 657.211 178.727 666.64 178.151C722.926 174.71 787.078 172.924 836.1 195.465L835.804 195.76C786.93 173.284 722.884 175.07 666.692 178.504C657.274 179.08 647.783 180.088 638.597 181.067C628.313 182.161 617.67 183.291 607.07 183.824C602.329 184.062 597.514 184.263 592.858 184.45C578.837 185.026 564.33 185.624 550.192 187.366C527.471 190.167 505.837 196.819 484.921 203.247C461.745 210.375 437.778 217.747 412.449 219.784C363.701 223.715 318.681 222.959 274.811 217.473C256.207 215.148 234.383 212.124 213.594 207.337C191.928 202.34 173.694 195.983 157.846 187.899C155.143 186.524 152.472 185.12 149.885 183.759C137.648 177.33 126.087 171.261 111.284 167.41C111.168 167.381 111.052 167.352 110.936 167.324C95.9536 163.465 79.7678 161.946 64.1098 160.47C60.9212 160.168 57.627 159.858 54.4067 159.534C24.8119 156.554 0.686157 156.006 -21.5074 157.806C-43.6692 159.599 -63.3392 164.797 -84.1602 170.304C-88.0245 171.326 -92.0261 172.385 -95.9961 173.4C-119.953 179.555 -146.866 183.522 -180.663 185.883C-191.232 186.617 -202.434 186.553 -214.291 186.481C-235.355 186.351 -257.137 186.214 -274.959 190.966L-274.98 190.958Z" fill="url(#paint13_radial_770_17080)"/>
<path d="M-289.624 196.142L-289.814 195.803C-271.654 191.16 -249.809 191.325 -228.671 191.484C-217.026 191.57 -206.024 191.657 -195.592 190.994C-149.136 188.043 -124.482 183.082 -109.975 179.605C-102.711 177.863 -95.4575 175.934 -88.4362 174.069C-71.5535 169.577 -54.0901 164.933 -35.6026 162.737C-10.5056 159.757 16.9249 159.807 50.7431 162.903C86.9475 166.215 118.253 171.758 153.306 188.05C176.038 198.611 208.653 210.742 278.306 220.59C326.335 227.386 375.347 228.754 423.957 224.672C448.822 222.584 473.001 216.494 496.387 210.612C515.382 205.832 535.031 200.886 554.996 198.086C598.074 192.045 642.081 187.409 682.266 184.688C706.772 183.025 738.858 181.369 769.794 183.313C803.053 185.401 830.124 191.196 852.55 201.03L852.265 201.332C829.913 191.534 802.916 185.753 769.741 183.666C738.848 181.722 706.793 183.378 682.319 185.041C642.155 187.769 598.159 192.398 555.102 198.431C535.168 201.224 515.54 206.163 496.567 210.943C473.159 216.839 448.949 222.93 424.021 225.025C375.347 229.114 326.283 227.739 278.19 220.943C252.174 217.264 231.49 213.441 213.077 208.92C190.514 203.377 170.865 196.646 153 188.345C118.031 172.096 86.7997 166.56 50.6692 163.256C16.9143 160.167 -10.4738 160.117 -35.5181 163.09C-53.9529 165.279 -71.3846 169.915 -88.2462 174.4C-95.2675 176.272 -102.532 178.201 -109.806 179.944C-140.151 187.208 -173.272 189.929 -195.55 191.347C-206.013 192.009 -217.026 191.93 -228.682 191.837C-249.767 191.678 -271.57 191.505 -289.635 196.127L-289.624 196.142Z" fill="url(#paint14_radial_770_17080)"/>
<path d="M-304.681 201.311L-304.86 200.973C-286.658 196.451 -264.929 196.646 -243.907 196.84C-232.61 196.941 -221.946 197.042 -211.789 196.459C-187.484 195.062 -155.777 192.643 -126.003 186.272C-115.17 183.954 -104.506 181.074 -94.2012 178.295C-77.424 173.774 -60.0768 169.094 -41.6842 166.748C-18.5299 163.796 6.60941 163.177 33.0579 164.912C80.1162 168 115.529 175.783 151.448 190.93C186.871 205.861 226.845 216.357 281.051 224.953C330.971 232.872 379.539 232.699 424.58 231.331C455.368 230.396 486.378 223.96 516.364 217.739C532.549 214.377 549.284 210.907 565.576 208.402C575.807 206.833 586.407 205.09 596.659 203.413C628.936 198.114 662.321 192.643 694.482 190.498C752.911 186.61 819.408 185.48 869.528 206.617L869.253 206.919C819.27 185.84 752.88 186.97 694.535 190.858C662.406 192.996 629.042 198.467 596.776 203.759C586.523 205.443 575.923 207.178 565.692 208.755C549.411 211.253 532.687 214.73 516.522 218.085C486.505 224.319 455.463 230.763 424.612 231.699C379.539 233.067 330.928 233.239 280.945 225.313C226.676 216.703 186.649 206.199 151.184 191.239C115.339 176.128 79.9895 168.36 33.0157 165.272C6.61993 163.537 -18.4771 164.156 -41.5786 167.1C-59.9289 169.44 -77.2551 174.112 -94.0005 178.633C-104.316 181.412 -114.98 184.292 -125.834 186.617C-155.65 193.003 -187.399 195.422 -211.725 196.819C-221.914 197.402 -232.589 197.308 -243.897 197.2C-264.865 197.013 -286.552 196.811 -304.659 201.311H-304.681Z" fill="url(#paint15_radial_770_17080)"/>
<path d="M687.735 420.498C686.542 396.388 663.387 379.203 640.983 362.58C635.588 358.577 630.013 354.445 624.86 350.291C618.979 345.554 613.69 340.184 608.569 334.986C602.519 328.845 596.268 322.495 589.025 317.168C580.568 310.955 570.96 304.965 561.679 299.184C559.726 297.967 557.794 296.765 555.893 295.57C526.52 277.126 509.807 252.065 493.631 227.833C490.358 222.923 486.969 217.84 483.548 212.938C481.975 210.677 480.317 207.992 478.554 205.141C470.994 192.888 461.576 177.64 445.844 173.263C440.66 171.823 437.018 171.881 434.083 171.931C428.814 172.018 426.174 172.061 422.447 163.263L422.954 163.163C426.565 171.694 428.909 171.658 434.072 171.571C437.049 171.521 440.755 171.47 446.045 172.932C461.978 177.367 471.438 192.686 479.04 205.004C480.792 207.848 482.45 210.533 484.023 212.787C487.444 217.696 490.833 222.779 494.117 227.689C510.261 251.893 526.964 276.917 556.253 295.311C558.164 296.506 560.096 297.715 562.038 298.925C571.33 304.713 580.938 310.703 589.416 316.93C596.691 322.272 602.952 328.636 609.012 334.791C614.122 339.982 619.402 345.345 625.261 350.068C630.414 354.215 635.978 358.354 641.373 362.35C663.841 379.016 687.07 396.251 688.263 420.498L687.735 420.512V420.498Z" fill="url(#paint16_radial_770_17080)"/>
<path d="M643.802 420.037C642.535 397.136 623.298 381.442 602.921 364.826C596.649 359.715 590.166 354.423 584.285 348.93C579.471 344.431 575.12 339.478 570.918 334.683C565.819 328.866 560.55 322.855 554.416 317.635C552.04 315.619 549.115 314.288 546.286 312.999C544.048 311.977 541.725 310.926 539.729 309.543C536.71 307.448 534.154 304.374 531.684 301.394C529.604 298.889 527.46 296.304 525.074 294.36C523.005 292.676 520.872 290.977 518.803 289.335C511.095 283.194 503.113 276.845 496.419 269.595C486.22 258.551 478.079 246.205 470.203 234.276C466.37 228.466 462.4 222.455 458.283 216.731C456.361 214.06 454.503 211.224 452.708 208.488C446.162 198.481 439.383 188.136 426.798 181.146C424.538 179.893 421.899 179.044 419.333 178.216C416.884 177.431 414.339 176.61 412.248 175.458C407.244 172.708 405.85 169.685 404.076 165.855C403.633 164.897 403.179 163.911 402.63 162.845L403.126 162.73C403.675 163.803 404.129 164.796 404.573 165.754C406.389 169.67 407.698 172.507 412.576 175.185C414.624 176.308 417.021 177.078 419.555 177.899C422.141 178.727 424.823 179.591 427.125 180.872C439.806 187.92 446.605 198.301 453.183 208.352C454.978 211.087 456.825 213.916 458.747 216.587C462.865 222.318 466.835 228.329 470.678 234.139C478.544 246.061 486.684 258.393 496.863 269.415C503.535 276.643 511.496 282.978 519.193 289.112C521.263 290.753 523.396 292.452 525.465 294.144C527.883 296.117 530.047 298.716 532.127 301.235C534.577 304.194 537.111 307.247 540.088 309.306C542.041 310.659 544.343 311.703 546.56 312.718C549.422 314.021 552.378 315.367 554.806 317.434C560.962 322.667 566.241 328.693 571.351 334.517C575.553 339.305 579.893 344.258 584.686 348.743C590.557 354.229 597.04 359.513 603.301 364.617C623.731 381.283 643.031 397.021 644.298 420.044L643.77 420.058L643.802 420.037Z" fill="url(#paint17_radial_770_17080)"/>
<path d="M599.468 419.562C598.211 397.777 581.592 382.594 564.002 366.525C557.139 360.255 550.034 353.768 543.836 346.807C539.824 342.3 536.118 337.527 532.528 332.912C528.474 327.693 524.282 322.293 519.636 317.275C516.099 313.453 513.766 312.099 511.053 310.537C509.141 309.428 506.966 308.176 504.021 305.865C501.793 304.123 499.935 302.006 497.96 299.767C496.123 297.686 494.233 295.534 492.016 293.705C474.035 278.825 462.463 260.726 451.272 243.217C447.017 236.551 442.603 229.661 437.936 223.11C429.046 210.627 420.072 198.554 408.099 188.158C406.758 186.992 405.48 185.89 404.255 184.846C394.964 176.877 388.83 171.607 383.223 160.297L383.72 160.182C389.294 171.434 395.408 176.682 404.667 184.623C405.892 185.674 407.17 186.768 408.51 187.935C420.515 198.359 429.5 210.447 438.411 222.952C443.078 229.51 447.492 236.407 451.757 243.073C462.938 260.56 474.489 278.637 492.428 293.475C494.666 295.325 496.567 297.492 498.414 299.58C500.378 301.804 502.226 303.907 504.422 305.627C507.347 307.916 509.5 309.162 511.401 310.263C514.146 311.847 516.511 313.215 520.09 317.088C524.747 322.12 528.938 327.527 532.993 332.747C536.572 337.354 540.278 342.127 544.279 346.627C550.467 353.574 557.551 360.053 564.414 366.324C582.057 382.443 598.718 397.669 599.985 419.562L599.457 419.576L599.468 419.562Z" fill="url(#paint18_radial_770_17080)"/>
<path d="M554.732 419.086C553.56 397.928 538.948 382.565 523.48 366.295C517.631 360.139 511.581 353.782 506.196 346.994C502.532 342.386 499.365 337.419 496.303 332.617C492.766 327.073 489.102 321.336 484.678 316.145C482.883 314.036 480.381 312.416 477.974 310.846C476.073 309.608 474.109 308.334 472.547 306.844C469.992 304.41 468.228 301.113 466.518 297.924C465.071 295.231 463.583 292.453 461.64 290.242C460.046 288.435 458.441 286.628 456.815 284.814C450.617 277.881 444.219 270.718 438.792 263.029C434.685 257.212 431.105 251.129 427.632 245.24C424.137 239.301 420.515 233.167 416.376 227.314C410.284 218.704 403.443 210.31 396.833 202.196C384.828 187.452 372.401 172.212 364.493 155.589L365 155.481C372.898 172.068 385.303 187.294 397.298 202.023C403.907 210.144 410.749 218.538 416.852 227.156C421.001 233.016 424.622 239.164 428.117 245.103C431.58 250.985 435.17 257.069 439.256 262.871C444.673 270.545 451.071 277.701 457.258 284.627C458.874 286.441 460.489 288.248 462.083 290.055C464.058 292.294 465.557 295.095 467.004 297.802C468.703 300.969 470.456 304.238 472.958 306.635C474.489 308.096 476.348 309.306 478.322 310.587C480.761 312.171 483.284 313.805 485.122 315.965C489.556 321.17 493.23 326.915 496.767 332.473C499.829 337.268 502.986 342.221 506.639 346.821C512.013 353.588 518.063 359.945 523.902 366.093C539.412 382.406 554.067 397.813 555.239 419.065L554.711 419.079L554.732 419.086Z" fill="url(#paint19_radial_770_17080)"/>
<path d="M510.05 418.611C509.057 398.576 496.693 383.558 483.612 367.648C478.364 361.27 472.937 354.675 468.165 347.62C462.221 338.837 457.343 329.68 452.634 320.825C451.652 318.974 450.659 317.124 449.667 315.267C446.573 309.529 445.539 308.831 443.49 307.441C442.181 306.556 440.386 305.346 437.387 302.301C435.487 300.372 433.977 297.701 432.531 295.131C431.306 292.949 430.028 290.696 428.508 288.867C419.322 277.766 412.607 265.304 406.103 253.253C401.31 244.369 396.358 235.19 390.477 226.666C388.133 223.261 385.768 219.863 383.414 216.458C377.987 208.625 372.38 200.526 366.953 192.542C358.528 180.16 353.734 168.979 348.17 156.035C347.526 154.53 346.871 153.004 346.196 151.464L346.702 151.363C347.368 152.911 348.022 154.437 348.677 155.941C354.23 168.871 359.024 180.037 367.428 192.398C372.866 200.382 378.472 208.481 383.889 216.314C386.243 219.719 388.608 223.124 390.952 226.522C396.844 235.061 401.806 244.254 406.599 253.145C413.093 265.182 419.808 277.629 428.962 288.702C430.493 290.559 431.781 292.82 433.016 295.015C434.463 297.571 435.952 300.22 437.82 302.114C440.787 305.13 442.487 306.275 443.849 307.196C445.897 308.579 447.027 309.342 450.152 315.152C451.155 317.002 452.137 318.859 453.119 320.709C457.828 329.557 462.706 338.715 468.64 347.483C473.402 354.524 478.829 361.111 484.066 367.483C497.179 383.429 509.575 398.489 510.578 418.611L510.05 418.626V418.611Z" fill="url(#paint20_radial_770_17080)"/>
<path d="M465.61 418.137C464.744 399.397 454.471 384.804 443.585 369.355C438.285 361.839 432.816 354.057 428.381 345.648C424.358 338.002 420.811 330.263 417.38 322.776C411.984 310.998 406.409 298.824 398.998 287.198C391.86 275.989 386.803 267.033 382.611 258.142C377.839 248.02 372.771 238.546 367.143 229.172C365.718 226.796 364.292 224.421 362.867 222.038C357.62 213.284 352.193 204.234 346.639 195.386C340.895 186.236 337.179 177.46 333.251 168.166C331.171 163.249 329.017 158.159 326.536 153.026L327.032 152.911C329.513 158.051 331.667 163.141 333.747 168.058C337.675 177.338 341.381 186.107 347.114 195.235C352.678 204.083 358.105 213.14 363.353 221.894C364.778 224.277 366.204 226.652 367.629 229.021C373.267 238.402 378.335 247.883 383.118 258.019C387.299 266.896 392.356 275.845 399.483 287.039C406.906 298.68 412.48 310.869 417.886 322.654C421.318 330.134 424.855 337.873 428.878 345.511C433.291 353.905 438.76 361.673 444.06 369.182C454.967 384.66 465.272 399.289 466.138 418.108L465.61 418.122V418.137Z" fill="url(#paint21_radial_770_17080)"/>
<path d="M421.381 417.661C420.695 399.692 412.069 384.818 402.936 369.074C398.047 360.643 392.99 351.925 389.242 342.66C387.098 337.376 385.726 331.883 384.385 326.57C383.15 321.66 381.872 316.577 380.003 311.71C377.934 306.333 374.703 300.955 371.578 295.75C369.846 292.863 368.051 289.875 366.457 286.902C361.526 277.673 358.137 267.932 354.864 258.516C351.2 247.976 347.41 237.076 341.423 226.76L339.639 223.693C333.747 213.557 327.645 203.075 322.809 192.369C319.874 185.89 317.794 179.216 315.777 172.766C313.528 165.567 311.205 158.123 307.7 150.988L308.196 150.873C311.702 158.029 314.035 165.488 316.284 172.694C318.301 179.137 320.381 185.804 323.305 192.269C328.141 202.959 334.233 213.434 340.125 223.564L341.909 226.63C347.906 236.968 351.707 247.882 355.371 258.429C358.644 267.839 362.022 277.565 366.943 286.772C368.526 289.738 370.321 292.719 372.053 295.606C375.189 300.818 378.419 306.203 380.499 311.61C382.379 316.491 383.656 321.58 384.881 326.498C386.211 331.796 387.584 337.282 389.717 342.552C393.454 351.796 398.512 360.507 403.39 368.93C412.544 384.703 421.181 399.605 421.877 417.639H421.349L421.381 417.661Z" fill="url(#paint22_radial_770_17080)"/>
<path d="M377.184 417.157C376.677 400.332 369.603 385.049 362.761 370.269C358.337 360.73 353.776 350.86 350.894 340.514C349.416 335.223 348.74 329.766 348.085 324.489C347.462 319.5 346.829 314.345 345.509 309.378C344.084 303.986 341.729 298.5 339.449 293.194C338.15 290.178 336.809 287.053 335.648 283.965C332.755 276.283 330.77 268.559 328.848 261.093C325.818 249.322 322.693 237.141 315.946 225.183C310.16 214.925 304.321 203.636 300.784 190.548C299.295 185.026 298.292 179.339 297.321 173.839C295.674 164.473 293.974 154.782 289.793 145.711L290.3 145.604C294.492 154.71 296.202 164.415 297.849 173.796C298.81 179.289 299.813 184.976 301.302 190.483C304.828 203.543 310.667 214.817 316.442 225.054C323.21 237.048 326.346 249.236 329.376 261.028C331.298 268.486 333.272 276.204 336.165 283.871C337.326 286.952 338.667 290.07 339.955 293.086C342.236 298.399 344.59 303.899 346.026 309.306C347.346 314.288 347.99 319.457 348.603 324.453C349.257 329.716 349.933 335.165 351.401 340.435C354.273 350.759 358.844 360.615 363.258 370.146C370.11 384.955 377.205 400.26 377.712 417.135H377.184V417.157Z" fill="url(#paint23_radial_770_17080)"/>
<path d="M332.86 416.668C332.628 401.247 327.486 386.654 322.524 372.544C318.776 361.889 314.901 350.874 313.116 339.521C311.575 329.673 310.984 319.738 310.413 310.127C309.812 299.947 309.178 289.422 307.415 279.113C306.993 276.629 306.591 274.145 306.19 271.662C303.656 255.816 301.027 239.431 291.092 224.176C280.829 208.417 280.079 191.729 279.351 175.588C278.791 163.17 278.211 150.319 273.291 138.023L273.797 137.929C278.739 150.269 279.319 163.134 279.879 175.574C280.607 191.686 281.357 208.338 291.577 224.032C301.545 239.337 304.173 255.751 306.718 271.626C307.119 274.109 307.51 276.593 307.943 279.07C309.706 289.393 310.34 299.926 310.941 310.113C311.511 319.716 312.103 329.644 313.644 339.485C315.418 350.81 319.293 361.817 323.041 372.465C328.014 386.597 333.156 401.211 333.399 416.668H332.871H332.86Z" fill="url(#paint24_radial_770_17080)"/>
<path d="M288.568 416.192C288.547 402.168 285.074 388.36 281.716 375.006C278.686 362.976 275.561 350.536 274.99 338.038C274.536 328.002 274.99 317.995 275.413 308.32C275.898 297.355 276.405 286.016 275.582 274.764C275.191 269.379 275.202 264.44 275.212 259.667C275.244 245.845 275.275 233.909 265.213 219.266C254.096 203.082 256.577 185.242 258.984 167.993C260.8 154.926 262.69 141.413 258.604 128.764L259.121 128.685C263.218 141.392 261.339 154.926 259.512 168.022C257.115 185.221 254.645 203.01 265.699 219.107C275.803 233.822 275.782 245.802 275.74 259.667C275.729 264.44 275.719 269.372 276.11 274.75C276.933 286.016 276.426 297.362 275.941 308.334C275.508 318.01 275.064 328.009 275.518 338.031C276.078 350.507 279.203 362.933 282.233 374.948C285.601 388.317 289.075 402.139 289.096 416.192H288.568Z" fill="url(#paint25_radial_770_17080)"/>
<path d="M244.224 415.717C244.372 402.896 242.323 389.923 240.338 377.374C238.037 362.789 235.65 347.706 236.738 332.876C237.741 319.147 240.56 305.483 243.295 292.266C244.868 284.634 246.494 276.744 247.74 269.005C248.077 266.867 248.056 264.664 248.025 262.339C247.993 259.711 247.961 256.99 248.489 254.29C248.722 253.138 248.975 251.972 249.228 250.791C250.084 246.875 250.96 242.836 250.97 238.984C250.97 230.446 247.349 224.068 241.067 215.925C228.217 199.266 233.887 179.569 239.367 160.52C243.379 146.59 247.518 132.192 244.319 119.168L244.836 119.111C248.046 132.199 243.896 146.633 239.874 160.592C234.405 179.577 228.756 199.216 241.521 215.76C247.835 223.952 251.498 230.374 251.488 238.984C251.488 242.857 250.601 246.918 249.746 250.841C249.492 252.022 249.239 253.188 249.007 254.34C248.479 257.018 248.51 259.718 248.542 262.339C248.574 264.678 248.595 266.888 248.257 269.048C247.011 276.794 245.385 284.692 243.812 292.323C241.088 305.534 238.269 319.191 237.266 332.905C236.178 347.707 238.564 362.774 240.856 377.346C242.841 389.901 244.889 402.888 244.741 415.724H244.213L244.224 415.717Z" fill="url(#paint26_radial_770_17080)"/>
<path d="M199.974 415.264C200.196 404.335 199.224 393.097 198.285 382.226C196.785 364.862 195.244 346.914 198.454 329.644C201.178 314.964 206.003 300.415 210.669 286.348C213.108 278.997 215.621 271.395 217.786 263.951C220.087 256.01 223.16 244.412 224.733 234.261C226.095 225.5 222.653 220.482 217.891 213.542C216.888 212.081 215.854 210.576 214.798 208.927C207.935 198.273 211.092 188.41 214.734 176.992C216.297 172.089 218.134 167.158 220.077 161.931C226.56 144.48 233.254 126.439 229.78 109.744L230.308 109.694C233.792 126.461 227.077 144.538 220.594 162.018C218.652 167.237 216.825 172.176 215.262 177.049C211.63 188.417 208.494 198.222 215.283 208.776C216.339 210.418 217.374 211.93 218.377 213.384C222.991 220.115 226.644 225.435 225.261 234.297C223.688 244.463 220.605 256.075 218.303 264.023C216.149 271.474 213.626 279.076 211.187 286.427C206.531 300.487 201.705 315.029 198.981 329.687C195.782 346.922 197.324 364.855 198.823 382.205C199.763 393.083 200.734 404.328 200.512 415.271H199.985L199.974 415.264Z" fill="url(#paint27_radial_770_17080)"/>
<path d="M155.798 414.81C156.041 406.149 155.777 397.157 155.513 388.468C154.922 368.418 154.309 347.692 159.652 328.182C163.252 315.029 168.616 302.207 173.8 289.81C177.939 279.919 182.215 269.696 185.551 259.387C187.177 254.361 189.616 249.344 191.96 244.491C194.769 238.703 197.661 232.714 199.235 226.659C201.22 219.006 198.242 214.507 194.494 208.812C193.554 207.394 192.583 205.918 191.612 204.291C185.118 193.428 189.722 182.37 194.177 171.679C194.557 170.765 194.937 169.85 195.318 168.929C197.123 164.523 199.161 160.045 201.315 155.308C209.645 137.022 218.261 118.11 214.787 100.616L215.315 100.565C218.799 118.146 210.163 137.094 201.821 155.416C199.668 160.153 197.63 164.624 195.824 169.022C195.444 169.937 195.064 170.858 194.684 171.772C190.049 182.895 185.667 193.399 192.097 204.147C193.069 205.774 194.04 207.243 194.969 208.661C198.76 214.413 201.758 218.949 199.752 226.717C198.179 232.8 195.275 238.797 192.467 244.599C190.123 249.437 187.694 254.448 186.069 259.459C182.722 269.775 178.445 280.005 174.307 289.904C169.122 302.294 163.769 315.108 160.169 328.247C154.837 347.713 155.449 368.426 156.041 388.461C156.294 397.158 156.558 406.149 156.326 414.817H155.798V414.81Z" fill="url(#paint28_radial_770_17080)"/>
<path d="M111.506 414.321C111.77 409.382 111.981 404.299 112.182 399.382C113.28 372.652 114.42 345.007 124.662 319.371C129.825 306.448 136.519 293.749 142.991 281.474C147.996 271.978 153.169 262.151 157.593 252.31C159.842 247.292 162.46 242.577 164.994 238.013C172.248 224.946 179.1 212.599 174.624 197.33C171.477 186.603 176.408 175.675 181.18 165.099C182.141 162.961 183.144 160.744 184.042 158.598C185.33 155.517 186.692 152.407 188.138 149.11C196.384 130.262 205.728 108.902 201.758 90.3356L202.276 90.2852C206.256 108.931 196.902 130.334 188.634 149.211C187.188 152.508 185.826 155.618 184.548 158.699C183.651 160.844 182.648 163.062 181.687 165.207C176.936 175.74 172.016 186.632 175.141 197.265C179.649 212.628 172.776 225.025 165.491 238.142C162.957 242.699 160.349 247.415 158.1 252.418C153.676 262.267 148.502 272.094 143.487 281.596C137.025 293.864 130.342 306.549 125.179 319.464C114.948 345.057 113.808 372.681 112.71 399.39C112.509 404.307 112.298 409.389 112.034 414.335L111.506 414.321Z" fill="url(#paint29_radial_770_17080)"/>
<path d="M67.2246 413.845C69.463 379.987 72.6726 347.13 87.1164 317.311C90.495 310.35 95.1618 303.568 99.6808 297.017C104.221 290.437 108.909 283.634 112.224 276.708C115.106 270.689 118.981 264.894 122.74 259.3C125.644 254.981 128.642 250.51 131.144 245.975C133.826 241.115 136.878 236.155 139.823 231.367C147.679 218.582 155.809 205.364 158.712 191.613C161.605 177.899 168.162 163.623 174.497 149.822C185.203 126.504 196.279 102.394 191.189 78.8885L191.707 78.8381C196.817 102.43 185.72 126.583 174.993 149.937C168.658 163.724 162.112 177.985 159.23 191.671C156.326 205.465 148.186 218.711 140.309 231.511C137.363 236.299 134.323 241.252 131.641 246.111C129.128 250.654 126.129 255.132 123.226 259.459C119.478 265.045 115.603 270.826 112.731 276.83C109.415 283.778 104.707 290.588 100.166 297.182C95.6581 303.726 90.9913 310.487 87.6232 317.434C73.2006 347.21 69.9909 380.045 67.7631 413.874L67.2352 413.86L67.2246 413.845Z" fill="url(#paint30_radial_770_17080)"/>
<path d="M22.5524 413.363C25.9205 372.162 34.7261 340.406 50.2679 313.438C58.7251 298.766 69.5367 284.656 80 271.013C87.792 260.855 95.848 250.352 102.806 239.754C108.581 230.957 115.381 222.145 121.948 213.621C129.708 203.55 137.733 193.132 144.226 182.593C150.54 172.334 156.442 160.786 162.798 146.244L162.988 145.805C173.483 121.803 186.544 91.9334 181.212 67.1466L181.729 67.0962C187.072 91.9622 173.99 121.875 163.484 145.913L163.294 146.352C156.928 160.909 151.026 172.471 144.701 182.737C138.208 193.291 130.173 203.715 122.413 213.794C115.845 222.311 109.056 231.123 103.292 239.906C96.3231 250.51 88.2671 261.021 80.4751 271.179C70.0224 284.814 59.2001 298.917 50.7641 313.568C35.2434 340.5 26.4484 372.212 23.0803 413.377L22.5524 413.356V413.363Z" fill="url(#paint31_radial_770_17080)"/>
<path d="M-21.6973 412.881C-18.1497 373.976 -6.01816 338.729 14.3804 308.125C28.6658 286.686 46.0342 265.751 62.8219 245.5C66.0105 241.648 69.199 237.811 72.356 233.974C87.2326 215.896 104.337 196.459 128.537 176.754C142.463 165.409 148.766 149.793 154.331 136.021L155.08 134.157C165.733 107.858 175.648 80.1485 169.915 55.9304L170.432 55.8728C176.186 80.1629 166.251 107.916 155.587 134.25L154.837 136.108C149.263 149.923 142.938 165.574 128.938 176.978C104.77 196.66 87.6866 216.084 72.8205 234.146C69.6636 237.984 66.475 241.821 63.2864 245.672C46.4988 265.916 29.1514 286.844 14.8661 308.269C-5.51141 338.837 -17.6323 374.041 -21.1694 412.902L-21.6973 412.881Z" fill="url(#paint32_radial_770_17080)"/>
<path d="M-65.4614 412.413C-61.9455 374.3 -46.7099 336.577 -21.4017 303.324C-9.0274 287.068 5.47968 271.561 19.5117 256.565C27.9794 247.508 36.7427 238.149 44.9465 228.711C48.2513 224.91 51.5033 220.857 54.6391 216.941C61.3753 208.539 68.3438 199.85 76.8115 192.326C84.0122 185.919 92.5539 181.535 101.602 176.884C104.633 175.329 107.758 173.724 110.83 172.032C127.227 163.026 134.322 148.944 140.71 134.092C156.79 96.7212 161.837 67.9101 156.146 46.0245L156.664 45.9597C162.376 67.9029 157.318 96.7644 141.217 134.193C138.261 141.068 134.988 148.332 130.374 154.934C125.158 162.385 118.876 168.072 111.158 172.313C108.075 174.005 104.949 175.617 101.919 177.172C92.9023 181.801 84.3923 186.178 77.2338 192.542C68.7977 200.044 61.8398 208.719 55.1142 217.113C51.9678 221.037 48.7158 225.09 45.4111 228.891C37.1967 238.329 28.4334 247.695 19.9656 256.752C5.94424 271.741 -8.56282 287.241 -20.9266 303.482C-46.2031 336.692 -61.4177 374.365 -64.923 412.427L-65.4509 412.406L-65.4614 412.413Z" fill="url(#paint33_radial_770_17080)"/>
<path d="M-109.669 411.938C-106.66 381.334 -94.6024 352.3 -71.7226 320.58C-51.5246 292.582 -26.153 266.896 0.717827 239.704C5.59576 234.773 10.6321 229.669 15.5733 224.615C19.7122 220.389 23.7349 215.882 27.6309 211.52C34.536 203.802 41.6629 195.818 49.93 188.734C58.5772 181.326 69.1144 177.309 80.2851 173.047C85.3636 171.111 90.6111 169.109 95.7213 166.748C114.663 157.986 121.98 142.724 128.389 126.519C142.695 90.3644 146.697 60.5382 140.277 37.8895L140.795 37.8247C147.235 60.531 143.234 90.4076 128.895 126.62C122.455 142.89 115.096 158.224 96.0064 167.05C90.8856 169.419 85.617 171.427 80.5279 173.371C69.41 177.611 58.9151 181.614 50.3312 188.965C42.0852 196.027 34.9583 203.996 28.0743 211.714C24.1783 216.077 20.1451 220.583 16.0062 224.816C11.0649 229.87 6.01805 234.967 1.14012 239.906C-25.7202 267.09 -51.0917 292.762 -71.2686 320.738C-94.1167 352.422 -106.164 381.406 -109.162 411.967L-109.69 411.945L-109.669 411.938Z" fill="url(#paint34_radial_770_17080)"/>
<path d="M-153.961 411.463C-146.845 343.301 -88.0667 289.436 -31.2314 237.35C-25.5933 232.188 -19.7651 226.847 -14.1059 221.591C-9.52359 217.344 -5.04689 212.664 -0.717987 208.143C7.9926 199.036 17.0094 189.62 28.0745 182.24C37.5347 175.934 48.6209 172.874 60.3512 169.642C65.0074 168.36 69.8114 167.036 74.5098 165.488C100.863 156.806 109.373 137.807 115.286 120.687C130.669 76.1171 127.766 47.8026 122.613 31.8924L123.131 31.8132C128.294 47.7594 131.208 76.1315 115.803 120.766C109.87 137.973 101.307 157.058 74.7421 165.812C70.0331 167.36 65.2186 168.691 60.5518 169.973C48.8638 173.191 37.8304 176.236 28.4441 182.492C17.4212 189.843 8.42554 199.245 -0.274506 208.337C-4.60339 212.866 -9.09067 217.552 -13.673 221.807C-19.3428 227.062 -25.1604 232.404 -30.7985 237.566C-87.5916 289.616 -146.317 343.437 -153.422 411.491L-153.95 411.463H-153.961Z" fill="url(#paint35_radial_770_17080)"/>
<path d="M-198.485 410.98C-190.683 343.106 -127.534 289.825 -66.4644 238.3C-59.1792 232.152 -51.6511 225.803 -44.4292 219.597C-39.5302 215.385 -34.7367 210.763 -30.0911 206.293C-21.0004 197.524 -11.593 188.46 -0.295609 181.29C10.4527 174.465 22.6687 171.312 35.6026 167.971C42.1487 166.28 48.9271 164.53 55.4733 162.27C82.3124 152.983 90.9913 133.25 97.0201 115.489C105.308 91.0985 113.143 56.1896 103.45 28.4367L103.967 28.3503C113.681 56.1752 105.836 91.1417 97.5374 115.569C91.477 133.408 82.7559 153.228 55.7161 162.586C49.1383 164.861 42.3599 166.611 35.7926 168.31C22.9115 171.636 10.7378 174.775 0.0634003 181.556C-11.1917 188.698 -20.5781 197.747 -29.6582 206.502C-34.3038 210.972 -39.0973 215.601 -44.0069 219.82C-51.2288 226.026 -58.7674 232.383 -66.0421 238.531C-127.058 290.012 -190.155 343.25 -197.947 411.016L-198.475 410.987L-198.485 410.98Z" fill="url(#paint36_radial_770_17080)"/>
<path d="M-242.735 410.512C-239.156 381.125 -223.593 351.904 -195.17 321.185C-170.041 294.029 -138.176 269.012 -107.367 244.823C-96.6295 236.393 -85.5222 227.667 -75.1434 219.179C-70.4767 215.364 -65.8099 211.289 -61.3015 207.344C-51.345 198.64 -41.0401 189.641 -29.3732 182.175C-17.6958 174.703 -3.43152 170.506 10.3576 166.438C15.7318 164.854 21.2854 163.22 26.6596 161.399C39.4985 157.057 49.6133 150.83 57.5954 142.357C64.0782 135.474 69.2834 126.965 74.0029 115.576C82.3123 95.5043 94.5705 57.4782 83.3575 28.2999L83.8644 28.2063C95.109 57.471 82.8297 95.5691 74.5097 115.669C69.7796 127.094 64.5427 135.633 58.0388 142.544C50.0039 151.075 39.8152 157.345 26.8918 161.715C21.4966 163.537 15.9429 165.178 10.5687 166.762C-3.81166 171.002 -17.3896 175.005 -29.0037 182.435C-40.6389 189.879 -50.9227 198.863 -60.8686 207.56C-65.3876 211.505 -70.0543 215.587 -74.7211 219.402C-85.1104 227.89 -96.2178 236.616 -106.956 245.046C-137.754 269.228 -169.598 294.231 -194.705 321.365C-223.086 352.033 -238.617 381.197 -242.197 410.527L-242.725 410.498L-242.735 410.512Z" fill="url(#paint37_radial_770_17080)"/>
<path d="M-286.024 410.052C-278.084 344.294 -204.25 291.301 -139.105 244.549C-127.65 236.328 -116.817 228.56 -106.364 220.756C-102.13 217.603 -97.8437 214.327 -93.6943 211.16C-82.0697 202.29 -70.0438 193.118 -57.3949 184.969C-45.2635 177.158 -30.4501 172.082 -16.112 167.18C-9.62921 164.962 -2.92471 162.666 3.46304 160.146C25.5298 151.428 40.1531 138.512 50.8908 118.268C59.2636 102.481 77.3816 62.4962 64.7962 32.2524L65.3029 32.1516C77.9306 62.4962 59.7809 102.567 51.3871 118.384C40.5966 138.714 25.8994 151.694 3.72699 160.456C-2.67133 162.983 -9.38641 165.279 -15.8798 167.504C-30.1757 172.399 -44.9678 177.453 -57.0359 185.235C-69.6742 193.377 -81.6896 202.542 -93.3037 211.404C-97.4531 214.572 -101.75 217.848 -105.984 221.001C-116.447 228.805 -127.27 236.573 -138.736 244.801C-203.817 291.51 -277.588 344.445 -285.517 410.08L-286.045 410.052H-286.024Z" fill="url(#paint38_radial_770_17080)"/>
<path d="M-330.707 409.576C-322.292 344.496 -243.538 293.691 -174.053 248.869C-160.708 240.259 -148.112 232.131 -136.181 224.032C-130.712 220.317 -125.2 216.458 -119.868 212.729C-108.803 204.983 -97.3581 196.977 -85.4694 189.663C-72.2927 181.549 -56.9515 175.394 -42.1171 169.447C-36.025 167.007 -29.7323 164.48 -23.6613 161.845C0.116028 151.543 17.1677 137.656 29.996 118.146C36.0247 108.981 44.1547 94.8277 48.6947 79.4934C53.2981 63.9504 53.2559 50.5095 48.568 39.5595L49.0748 39.4587C53.7838 50.4663 53.8366 63.9648 49.2121 79.5654C44.6614 94.9357 36.5105 109.111 30.4817 118.297C17.6111 137.879 0.506714 151.817 -23.3656 162.155C-29.4471 164.789 -35.7505 167.316 -41.8426 169.757C-56.6559 175.696 -71.9654 181.844 -85.1105 189.929C-96.9886 197.236 -108.423 205.242 -119.488 212.981C-124.82 216.71 -130.332 220.569 -135.811 224.284C-147.742 232.383 -160.349 240.518 -173.694 249.128C-243.105 293.907 -321.785 344.661 -330.179 409.605L-330.707 409.576Z" fill="url(#paint39_radial_770_17080)"/>
<path d="M-374.175 409.116C-371.546 390.023 -361.22 371.053 -342.606 351.119C-324.351 331.573 -300.584 314.122 -284.303 302.697C-255.891 282.77 -224.902 264.167 -194.938 246.169C-185.393 240.439 -175.532 234.514 -165.881 228.632C-160.539 225.371 -155.122 222.023 -149.875 218.791C-136.487 210.526 -122.656 201.973 -108.645 194.004C-96.2072 186.927 -82.5553 180.736 -69.3574 174.76C-61.5548 171.226 -53.4883 167.568 -45.7491 163.76C-22.8059 152.479 -3.7905 137.864 10.7799 120.334C24.189 104.201 45.1155 73.5253 34.7261 49.3576L35.233 49.2568C45.6857 73.5469 24.6852 104.323 11.2445 120.507C-3.3576 138.088 -22.4258 152.738 -45.4324 164.048C-53.1716 167.856 -61.2487 171.514 -69.0618 175.056C-82.2491 181.031 -95.8904 187.215 -108.307 194.277C-122.307 202.247 -136.149 210.792 -149.527 219.057C-154.763 222.297 -160.19 225.644 -165.533 228.905C-175.183 234.787 -185.045 240.712 -194.589 246.443C-224.543 264.433 -255.532 283.029 -283.923 302.949C-300.193 314.367 -323.939 331.796 -342.162 351.313C-360.724 371.19 -371.029 390.11 -373.647 409.144L-374.175 409.108V409.116Z" fill="url(#paint40_radial_770_17080)"/>
<path d="M-418.531 408.648C-412.238 367.252 -365.76 332.934 -321.131 304.821C-289.825 285.102 -255.901 266.881 -223.086 249.258C-213.901 244.326 -204.398 239.222 -195.096 234.161C-167.539 219.172 -139.021 204.45 -111.443 190.217C-97.77 183.162 -83.6219 175.862 -69.7694 168.612C-57.3317 162.111 -25.8152 144.481 -1.80569 121.278C21.7181 98.5426 30.1859 78.1401 23.3758 60.6461L23.8826 60.5525C30.7455 78.1617 22.246 98.6578 -1.37283 121.486C-25.4246 144.733 -56.9939 162.392 -69.4527 168.9C-83.3157 176.15 -97.4532 183.45 -111.137 190.505C-138.715 204.738 -167.222 219.453 -194.78 234.442C-204.081 239.503 -213.584 244.607 -222.77 249.538C-255.574 267.162 -289.498 285.383 -320.782 305.087C-365.338 333.157 -411.742 367.411 -418.013 408.691L-418.541 408.655L-418.531 408.648Z" fill="url(#paint41_radial_770_17080)"/>
<path d="M-462.326 408.187C-459.37 389.203 -447.059 370.593 -424.697 351.299C-404.045 333.481 -378.198 318.168 -357.989 306.822C-323.284 287.334 -286.056 269.351 -250.062 251.957C-241.648 247.897 -232.948 243.693 -224.416 239.532C-212.771 233.859 -200.882 228.135 -189.373 222.599C-157.435 207.229 -124.419 191.333 -92.9868 174.753C-71.015 163.163 -49.4339 149.549 -28.8664 134.308C-12.0787 121.868 25.4349 90.8683 11.3607 71.6896L11.8358 71.5312C17.9807 79.9111 15.2145 91.3074 3.60037 105.396C-5.83875 116.843 -19.0471 127.57 -28.4651 134.553C-49.0538 149.815 -70.656 163.436 -92.649 175.041C-124.081 191.621 -157.118 207.524 -189.057 222.894C-200.555 228.43 -212.454 234.154 -224.089 239.827C-232.62 243.988 -241.32 248.185 -249.735 252.253C-285.728 269.639 -322.946 287.622 -357.63 307.096C-377.818 318.435 -403.633 333.726 -424.264 351.522C-446.563 370.758 -458.831 389.311 -461.788 408.23L-462.316 408.194L-462.326 408.187Z" fill="url(#paint42_radial_770_17080)"/>
<path d="M-510.504 407.683C-508.287 388.735 -494.487 369.952 -468.313 350.269C-446.784 334.071 -420.442 319.99 -395.165 307.182C-358.57 288.637 -319.715 271.669 -282.128 255.262C-273.333 251.424 -264.242 247.458 -255.32 243.527C-248.468 240.51 -241.605 237.501 -234.753 234.492C-196.374 217.653 -156.685 200.245 -118.929 181.715C-94.1799 169.57 -70.0648 155.711 -47.2483 140.535C-25.2871 125.921 9.61859 98.6648 -3.32587 80.2924L-2.85074 80.134C10.231 98.7079 -24.8225 126.108 -46.8788 140.787C-69.7058 155.978 -93.8526 169.843 -118.622 182.003C-156.389 200.541 -196.089 217.948 -234.478 234.787C-241.331 237.796 -248.194 240.806 -255.046 243.822C-263.978 247.753 -273.069 251.72 -281.864 255.564C-319.441 271.971 -358.295 288.932 -394.869 307.47C-420.114 320.263 -446.447 334.337 -467.933 350.514C-494.022 370.146 -507.769 388.857 -509.986 407.719L-510.514 407.69L-510.504 407.683Z" fill="url(#paint43_radial_770_17080)"/>
</g>
<path d="M126.625 67.1468C127.494 67.1468 128.199 66.6666 128.199 66.0741C128.199 65.4817 127.494 65.0015 126.625 65.0015C125.757 65.0015 125.052 65.4817 125.052 66.0741C125.052 66.6666 125.757 67.1468 126.625 67.1468Z" fill="white"/>
<path d="M142.178 47.6082C143.047 47.6082 143.751 47.128 143.751 46.5356C143.751 45.9431 143.047 45.4629 142.178 45.4629C141.309 45.4629 140.605 45.9431 140.605 46.5356C140.605 47.128 141.309 47.6082 142.178 47.6082Z" fill="white"/>
<path d="M88.6897 137.008C89.5585 137.008 90.2629 136.528 90.2629 135.935C90.2629 135.343 89.5585 134.863 88.6897 134.863C87.8208 134.863 87.1165 135.343 87.1165 135.935C87.1165 136.528 87.8208 137.008 88.6897 137.008Z" fill="white"/>
<path d="M177.453 109.78C178.322 109.78 179.026 109.3 179.026 108.708C179.026 108.115 178.322 107.635 177.453 107.635C176.584 107.635 175.88 108.115 175.88 108.708C175.88 109.3 176.584 109.78 177.453 109.78Z" fill="white"/>
<path d="M68.0377 43.2386C68.9066 43.2386 69.6109 42.7584 69.6109 42.1659C69.6109 41.5735 68.9066 41.0933 68.0377 41.0933C67.1689 41.0933 66.4645 41.5735 66.4645 42.1659C66.4645 42.7584 67.1689 43.2386 68.0377 43.2386Z" fill="white"/>
<path d="M59.5911 100.53C60.4599 100.53 61.1642 100.049 61.1642 99.4569C61.1642 98.8645 60.4599 98.3843 59.5911 98.3843C58.7222 98.3843 58.0178 98.8645 58.0178 99.4569C58.0178 100.049 58.7222 100.53 59.5911 100.53Z" fill="white"/>
<path d="M106.617 77.089C107.486 77.089 108.191 76.6087 108.191 76.0163C108.191 75.4239 107.486 74.9436 106.617 74.9436C105.749 74.9436 105.044 75.4239 105.044 76.0163C105.044 76.6087 105.749 77.089 106.617 77.089Z" fill="white"/>
<defs>
<radialGradient id="paint0_radial_770_17080" cx="0" cy="0" r="1" gradientUnits="userSpaceOnUse" gradientTransform="translate(270.065 89.7146) rotate(14.4407) scale(272.767 199.299)">
<stop stop-color="white"/>
<stop offset="0.08" stop-color="white"/>
<stop offset="1" stop-color="white"/>
</radialGradient>
<radialGradient id="paint1_radial_770_17080" cx="0" cy="0" r="1" gradientUnits="userSpaceOnUse" gradientTransform="translate(271.69 99.8219) rotate(14.4407) scale(274.797 200.782)">
<stop stop-color="white"/>
<stop offset="0.08" stop-color="white"/>
<stop offset="1" stop-color="white"/>
</radialGradient>
<radialGradient id="paint2_radial_770_17080" cx="0" cy="0" r="1" gradientUnits="userSpaceOnUse" gradientTransform="translate(272.712 109.712) rotate(14.4407) scale(278.03 203.144)">
<stop stop-color="white"/>
<stop offset="0.08" stop-color="white"/>
<stop offset="1" stop-color="white"/>
</radialGradient>
<radialGradient id="paint3_radial_770_17080" cx="0" cy="0" r="1" gradientUnits="userSpaceOnUse" gradientTransform="translate(273.084 119.412) rotate(14.4407) scale(282.345 206.297)">
<stop stop-color="white"/>
<stop offset="0.08" stop-color="white"/>
<stop offset="1" stop-color="white"/>
</radialGradient>
<radialGradient id="paint4_radial_770_17080" cx="0" cy="0" r="1" gradientUnits="userSpaceOnUse" gradientTransform="translate(274.723 128.253) rotate(14.4407) scale(288.954 211.126)">
<stop stop-color="white"/>
<stop offset="0.08" stop-color="white"/>
<stop offset="1" stop-color="white"/>
</radialGradient>
<radialGradient id="paint5_radial_770_17080" cx="0" cy="0" r="1" gradientUnits="userSpaceOnUse" gradientTransform="translate(275.995 136.53) rotate(14.4407) scale(296.655 216.752)">
<stop stop-color="white"/>
<stop offset="0.08" stop-color="white"/>
<stop offset="1" stop-color="white"/>
</radialGradient>
<radialGradient id="paint6_radial_770_17080" cx="0" cy="0" r="1" gradientUnits="userSpaceOnUse" gradientTransform="translate(276.527 143.985) rotate(14.4407) scale(305.1 222.923)">
<stop stop-color="white"/>
<stop offset="0.08" stop-color="white"/>
<stop offset="1" stop-color="white"/>
</radialGradient>
<radialGradient id="paint7_radial_770_17080" cx="0" cy="0" r="1" gradientUnits="userSpaceOnUse" gradientTransform="translate(276.868 151.623) rotate(14.4407) scale(314.586 229.854)">
<stop stop-color="white"/>
<stop offset="0.08" stop-color="white"/>
<stop offset="1" stop-color="white"/>
</radialGradient>
<radialGradient id="paint8_radial_770_17080" cx="0" cy="0" r="1" gradientUnits="userSpaceOnUse" gradientTransform="translate(277.146 159.251) rotate(14.4407) scale(325.112 237.544)">
<stop stop-color="white"/>
<stop offset="0.08" stop-color="white"/>
<stop offset="1" stop-color="white"/>
</radialGradient>
<radialGradient id="paint9_radial_770_17080" cx="0" cy="0" r="1" gradientUnits="userSpaceOnUse" gradientTransform="translate(277.379 166.837) rotate(14.4407) scale(336.617 245.951)">
<stop stop-color="white"/>
<stop offset="0.08" stop-color="white"/>
<stop offset="1" stop-color="white"/>
</radialGradient>
<radialGradient id="paint10_radial_770_17080" cx="0" cy="0" r="1" gradientUnits="userSpaceOnUse" gradientTransform="translate(278.041 174.241) rotate(14.4407) scale(348.663 254.752)">
<stop stop-color="white"/>
<stop offset="0.08" stop-color="white"/>
<stop offset="1" stop-color="white"/>
</radialGradient>
<radialGradient id="paint11_radial_770_17080" cx="0" cy="0" r="1" gradientUnits="userSpaceOnUse" gradientTransform="translate(278.969 180.329) rotate(14.4407) scale(358.985 262.294)">
<stop stop-color="white"/>
<stop offset="0.08" stop-color="white"/>
<stop offset="1" stop-color="white"/>
</radialGradient>
<radialGradient id="paint12_radial_770_17080" cx="0" cy="0" r="1" gradientUnits="userSpaceOnUse" gradientTransform="translate(279.95 186.323) rotate(14.4407) scale(369.643 270.082)">
<stop stop-color="white"/>
<stop offset="0.08" stop-color="white"/>
<stop offset="1" stop-color="white"/>
</radialGradient>
<radialGradient id="paint13_radial_770_17080" cx="0" cy="0" r="1" gradientUnits="userSpaceOnUse" gradientTransform="translate(281.026 191.979) rotate(14.4407) scale(380.057 277.69)">
<stop stop-color="white"/>
<stop offset="0.08" stop-color="white"/>
<stop offset="1" stop-color="white"/>
</radialGradient>
<radialGradient id="paint14_radial_770_17080" cx="0" cy="0" r="1" gradientUnits="userSpaceOnUse" gradientTransform="translate(281.844 197.553) rotate(14.4407) scale(390.613 285.404)">
<stop stop-color="white"/>
<stop offset="0.08" stop-color="white"/>
<stop offset="1" stop-color="white"/>
</radialGradient>
<radialGradient id="paint15_radial_770_17080" cx="0" cy="0" r="1" gradientUnits="userSpaceOnUse" gradientTransform="translate(282.715 203.072) rotate(14.4407) scale(401.486 293.348)">
<stop stop-color="white"/>
<stop offset="0.08" stop-color="white"/>
<stop offset="1" stop-color="white"/>
</radialGradient>
<radialGradient id="paint16_radial_770_17080" cx="0" cy="0" r="1" gradientUnits="userSpaceOnUse" gradientTransform="translate(555.337 291.884) rotate(14.4407) scale(157.716 115.236)">
<stop stop-color="white"/>
<stop offset="0.08" stop-color="white"/>
<stop offset="1" stop-color="white"/>
</radialGradient>
<radialGradient id="paint17_radial_770_17080" cx="0" cy="0" r="1" gradientUnits="userSpaceOnUse" gradientTransform="translate(523.48 291.429) rotate(14.4408) scale(153.106 111.868)">
<stop stop-color="white"/>
<stop offset="0.08" stop-color="white"/>
<stop offset="1" stop-color="white"/>
</radialGradient>
<radialGradient id="paint18_radial_770_17080" cx="0" cy="0" r="1" gradientUnits="userSpaceOnUse" gradientTransform="translate(491.596 289.922) rotate(14.4407) scale(149.607 109.311)">
<stop stop-color="white"/>
<stop offset="0.08" stop-color="white"/>
<stop offset="1" stop-color="white"/>
</radialGradient>
<radialGradient id="paint19_radial_770_17080" cx="0" cy="0" r="1" gradientUnits="userSpaceOnUse" gradientTransform="translate(459.854 287.342) rotate(14.4408) scale(147.302 107.627)">
<stop stop-color="white"/>
<stop offset="0.08" stop-color="white"/>
<stop offset="1" stop-color="white"/>
</radialGradient>
<radialGradient id="paint20_radial_770_17080" cx="0" cy="0" r="1" gradientUnits="userSpaceOnUse" gradientTransform="translate(428.358 285.034) rotate(14.4407) scale(145.242 106.122)">
<stop stop-color="white"/>
<stop offset="0.08" stop-color="white"/>
<stop offset="1" stop-color="white"/>
</radialGradient>
<radialGradient id="paint21_radial_770_17080" cx="0" cy="0" r="1" gradientUnits="userSpaceOnUse" gradientTransform="translate(396.315 285.587) rotate(14.4407) scale(141.223 103.186)">
<stop stop-color="white"/>
<stop offset="0.08" stop-color="white"/>
<stop offset="1" stop-color="white"/>
</radialGradient>
<radialGradient id="paint22_radial_770_17080" cx="0" cy="0" r="1" gradientUnits="userSpaceOnUse" gradientTransform="translate(364.792 284.325) rotate(14.4407) scale(139.286 101.77)">
<stop stop-color="white"/>
<stop offset="0.08" stop-color="white"/>
<stop offset="1" stop-color="white"/>
</radialGradient>
<radialGradient id="paint23_radial_770_17080" cx="0" cy="0" r="1" gradientUnits="userSpaceOnUse" gradientTransform="translate(333.73 281.436) rotate(14.4408) scale(139.387 101.844)">
<stop stop-color="white"/>
<stop offset="0.08" stop-color="white"/>
<stop offset="1" stop-color="white"/>
</radialGradient>
<radialGradient id="paint24_radial_770_17080" cx="0" cy="0" r="1" gradientUnits="userSpaceOnUse" gradientTransform="translate(303.312 277.343) rotate(14.4407) scale(141.223 103.186)">
<stop stop-color="white"/>
<stop offset="0.08" stop-color="white"/>
<stop offset="1" stop-color="white"/>
</radialGradient>
<radialGradient id="paint25_radial_770_17080" cx="0" cy="0" r="1" gradientUnits="userSpaceOnUse" gradientTransform="translate(273.831 272.475) rotate(14.4407) scale(144.498 105.578)">
<stop stop-color="white"/>
<stop offset="0.08" stop-color="white"/>
<stop offset="1" stop-color="white"/>
</radialGradient>
<radialGradient id="paint26_radial_770_17080" cx="0" cy="0" r="1" gradientUnits="userSpaceOnUse" gradientTransform="translate(244.509 267.464) rotate(14.4407) scale(148.68 108.633)">
<stop stop-color="white"/>
<stop offset="0.08" stop-color="white"/>
<stop offset="1" stop-color="white"/>
</radialGradient>
<radialGradient id="paint27_radial_770_17080" cx="0" cy="0" r="1" gradientUnits="userSpaceOnUse" gradientTransform="translate(215.106 262.517) rotate(14.4408) scale(153.504 112.158)">
<stop stop-color="white"/>
<stop offset="0.08" stop-color="white"/>
<stop offset="1" stop-color="white"/>
</radialGradient>
<radialGradient id="paint28_radial_770_17080" cx="0" cy="0" r="1" gradientUnits="userSpaceOnUse" gradientTransform="translate(185.524 257.731) rotate(14.4407) scale(158.787 116.019)">
<stop stop-color="white"/>
<stop offset="0.08" stop-color="white"/>
<stop offset="1" stop-color="white"/>
</radialGradient>
<radialGradient id="paint29_radial_770_17080" cx="0" cy="0" r="1" gradientUnits="userSpaceOnUse" gradientTransform="translate(156.872 252.346) rotate(14.4407) scale(165.305 120.781)">
<stop stop-color="white"/>
<stop offset="0.08" stop-color="white"/>
<stop offset="1" stop-color="white"/>
</radialGradient>
<radialGradient id="paint30_radial_770_17080" cx="0" cy="0" r="1" gradientUnits="userSpaceOnUse" gradientTransform="translate(129.446 246.376) rotate(14.4407) scale(173.148 126.512)">
<stop stop-color="white"/>
<stop offset="0.08" stop-color="white"/>
<stop offset="1" stop-color="white"/>
</radialGradient>
<radialGradient id="paint31_radial_770_17080" cx="0" cy="0" r="1" gradientUnits="userSpaceOnUse" gradientTransform="translate(102.118 240.27) rotate(14.4407) scale(181.787 132.824)">
<stop stop-color="white"/>
<stop offset="0.08" stop-color="white"/>
<stop offset="1" stop-color="white"/>
</radialGradient>
<radialGradient id="paint32_radial_770_17080" cx="0" cy="0" r="1" gradientUnits="userSpaceOnUse" gradientTransform="translate(77.8811 235.329) rotate(14.4407) scale(191.099 139.628)">
<stop stop-color="white"/>
<stop offset="0.08" stop-color="white"/>
<stop offset="1" stop-color="white"/>
</radialGradient>
<radialGradient id="paint33_radial_770_17080" cx="0" cy="0" r="1" gradientUnits="userSpaceOnUse" gradientTransform="translate(52.2615 230.948) rotate(14.4407) scale(199.881 146.044)">
<stop stop-color="white"/>
<stop offset="0.08" stop-color="white"/>
<stop offset="1" stop-color="white"/>
</radialGradient>
<radialGradient id="paint34_radial_770_17080" cx="0" cy="0" r="1" gradientUnits="userSpaceOnUse" gradientTransform="translate(26.0068 227.612) rotate(14.4407) scale(207.857 151.872)">
<stop stop-color="white"/>
<stop offset="0.08" stop-color="white"/>
<stop offset="1" stop-color="white"/>
</radialGradient>
<radialGradient id="paint35_radial_770_17080" cx="0" cy="0" r="1" gradientUnits="userSpaceOnUse" gradientTransform="translate(-1.87323 225.172) rotate(14.4407) scale(215.028 157.111)">
<stop stop-color="white"/>
<stop offset="0.08" stop-color="white"/>
<stop offset="1" stop-color="white"/>
</radialGradient>
<radialGradient id="paint36_radial_770_17080" cx="0" cy="0" r="1" gradientUnits="userSpaceOnUse" gradientTransform="translate(-32.9427 223.397) rotate(14.4407) scale(220.811 161.336)">
<stop stop-color="white"/>
<stop offset="0.08" stop-color="white"/>
<stop offset="1" stop-color="white"/>
</radialGradient>
<radialGradient id="paint37_radial_770_17080" cx="0" cy="0" r="1" gradientUnits="userSpaceOnUse" gradientTransform="translate(-66.3544 222.773) rotate(14.4407) scale(224.809 164.258)">
<stop stop-color="white"/>
<stop offset="0.08" stop-color="white"/>
<stop offset="1" stop-color="white"/>
</radialGradient>
<radialGradient id="paint38_radial_770_17080" cx="0" cy="0" r="1" gradientUnits="userSpaceOnUse" gradientTransform="translate(-99.5211 223.929) rotate(14.4407) scale(227.298 166.076)">
<stop stop-color="white"/>
<stop offset="0.08" stop-color="white"/>
<stop offset="1" stop-color="white"/>
</radialGradient>
<radialGradient id="paint39_radial_770_17080" cx="0" cy="0" r="1" gradientUnits="userSpaceOnUse" gradientTransform="translate(-133.074 226.555) rotate(14.4407) scale(229.144 167.425)">
<stop stop-color="white"/>
<stop offset="0.08" stop-color="white"/>
<stop offset="1" stop-color="white"/>
</radialGradient>
<radialGradient id="paint40_radial_770_17080" cx="0" cy="0" r="1" gradientUnits="userSpaceOnUse" gradientTransform="translate(-163.931 230.652) rotate(14.4407) scale(230.602 168.491)">
<stop stop-color="white"/>
<stop offset="0.08" stop-color="white"/>
<stop offset="1" stop-color="white"/>
</radialGradient>
<radialGradient id="paint41_radial_770_17080" cx="0" cy="0" r="1" gradientUnits="userSpaceOnUse" gradientTransform="translate(-192.985 235.752) rotate(14.4407) scale(233.02 170.257)">
<stop stop-color="white"/>
<stop offset="0.08" stop-color="white"/>
<stop offset="1" stop-color="white"/>
</radialGradient>
<radialGradient id="paint42_radial_770_17080" cx="0" cy="0" r="1" gradientUnits="userSpaceOnUse" gradientTransform="translate(-221.995 240.733) rotate(14.4407) scale(235.916 172.373)">
<stop stop-color="white"/>
<stop offset="0.08" stop-color="white"/>
<stop offset="1" stop-color="white"/>
</radialGradient>
<radialGradient id="paint43_radial_770_17080" cx="0" cy="0" r="1" gradientUnits="userSpaceOnUse" gradientTransform="translate(-253.915 244.649) rotate(14.4407) scale(240.863 175.988)">
<stop stop-color="white"/>
<stop offset="0.08" stop-color="white"/>
<stop offset="1" stop-color="white"/>
</radialGradient>
</defs>
</svg>
