<svg xmlns="http://www.w3.org/2000/svg" width="171" height="40" viewBox="0 0 171 40" fill="none">
  <path d="M25.1979 0.574371C23.2257 1.98088 21.1357 4.69957 19.962 9.93969C19.6653 11.299 19.2246 12.6241 18.6443 13.8934C20.9219 16.5306 24.1158 18.2759 27.6326 18.7947C28.5794 17.9028 29.5917 17.0752 30.6651 16.329C33.6103 14.2493 35.5955 11.998 36.5642 9.63952C36.7256 9.24501 36.8565 8.84621 36.9569 8.4517C34.1688 4.58379 30.0193 1.73217 25.1935 0.574371H25.1979Z" fill="url(#paint0_linear_295_26727)"/>
  <path d="M32.3449 18.542C32.2184 18.6321 32.1006 18.7178 31.9784 18.8079C35.0152 18.3705 37.8339 17.0197 40.0286 14.9443C40.0286 14.9443 40.033 14.94 40.0373 14.9357C39.7232 13.7608 39.3043 12.6287 38.7938 11.5481C37.5328 14.0566 35.3686 16.4022 32.3449 18.542Z" fill="url(#paint1_linear_295_26727)"/>
  <path d="M16.7332 11.0377C16.9078 10.5017 17.0561 9.94422 17.187 9.36532C18.0727 5.41593 19.565 2.2813 21.6288 0.0428815C21.175 0.0171526 20.7169 0 20.2587 0C18.8014 0.00428815 17.379 0.16295 16.0089 0.454544C15.7864 1.10205 15.6119 1.76243 15.4897 2.43567C14.9574 5.3559 15.3937 8.36618 16.7332 11.0377Z" fill="url(#paint2_linear_295_26727)"/>
  <path d="M8.22026 19.3269C10.2361 18.9452 12.0905 17.9418 13.5827 16.4324C14.9571 15.0387 16.0043 13.2591 16.7068 11.1279C14.7433 8.34493 11.8112 6.33379 8.44715 5.459C7.88429 5.31321 7.31706 5.20171 6.74984 5.12024C3.27669 8.18198 0.885623 12.3972 0.196228 17.1528C2.23823 19.0524 5.22706 19.8929 8.22026 19.3269Z" fill="url(#paint3_linear_295_26727)"/>
  <path d="M15.4067 28.5505C17.1869 26.6723 18.4042 24.3653 18.9365 21.8696C19.4645 19.3781 19.2856 16.7924 18.4173 14.391C17.7105 15.8318 16.7724 17.1612 15.6379 18.3233C13.7355 20.2486 11.3576 21.5265 8.76579 22.0153C5.63733 22.6071 2.50887 22.0068 0 20.4673C0.113445 25.3044 1.97219 29.7169 4.97848 33.1174C6.27873 33.0916 7.57462 32.8944 8.83123 32.5342C11.3576 31.8052 13.6308 30.4287 15.411 28.5548L15.4067 28.5505Z" fill="url(#paint4_linear_295_26727)"/>
  <path d="M22.9027 29.6139C22.6235 27.427 22.9507 23.4862 27.2267 19.2023C24.7789 19.6568 22.4969 20.7032 20.5902 22.2512C18.6835 23.7992 17.2174 25.7932 16.336 28.0402C15.4546 30.2915 15.1798 32.7185 15.5463 35.0985C15.7993 36.7365 16.3447 38.3103 17.1563 39.7554C18.2209 39.9183 19.3161 40.0041 20.4288 39.9998C23.6314 39.987 26.6595 39.2451 29.3516 37.9372C29.1814 37.8515 29.0113 37.7614 28.8411 37.6714C25.4989 35.8232 23.3216 32.9115 22.9027 29.6053V29.6139Z" fill="url(#paint5_linear_295_26727)"/>
  <path d="M31.6512 19.0479C27.3927 22.264 25.2896 25.8746 25.7216 29.2837C26.0837 32.1481 28.3264 34.6481 31.708 35.986C31.9 36.0632 32.0919 36.1318 32.2883 36.2004C36.5425 33.1644 39.5531 28.5504 40.4301 23.2417C39.5226 22.3369 38.4885 21.5478 37.354 20.9046C35.6044 19.9098 33.6627 19.2794 31.6469 19.0521L31.6512 19.0479Z" fill="url(#paint6_linear_295_26727)"/>
  <path d="M156.782 17.0378H169.217V21.9727H156.782V30.7557H171V35.7776H149.978V4.21124H170.544V9.23316H156.782V17.0378Z" fill="white" fill-opacity="0.7"/>
  <path d="M135.977 4.21124H142.782V35.7776H135.977V4.21124Z" fill="white" fill-opacity="0.7"/>
  <path d="M124.955 19.3857C126.824 19.9799 128.267 20.9002 129.281 22.1467C130.296 23.3931 130.803 24.9076 130.803 26.6903C130.803 29.5745 129.767 31.8137 127.694 33.4079C125.636 34.9877 122.737 35.7776 118.998 35.7776H106.932V4.21124H118.107C121.817 4.21124 124.679 4.94315 126.694 6.40697C128.709 7.8563 129.716 9.89985 129.716 12.5376C129.716 15.7696 128.129 17.9654 124.955 19.1248V19.3857ZM117.759 17.2117C121.252 17.2117 122.998 15.7986 122.998 12.9724C122.998 10.3636 121.252 9.05924 117.759 9.05924H113.302V17.2117H117.759ZM118.65 30.9296C120.331 30.9296 121.636 30.5238 122.563 29.7121C123.505 28.886 123.977 27.7338 123.977 26.2555C123.977 24.8352 123.484 23.7627 122.498 23.038C121.527 22.2988 120.092 21.9293 118.194 21.9293H113.302V30.9296H118.65Z" fill="white" fill-opacity="0.7"/>
  <path d="M84.9538 35.7776H78.2362V4.21124H89.0627C93.0048 4.21124 96.0267 5.05185 98.1282 6.73307C100.244 8.3998 101.302 10.8419 101.302 14.0594C101.302 16.045 100.795 17.7624 99.7804 19.2118C98.7659 20.6611 97.3238 21.7771 95.4542 22.5597L102.367 35.7776H95.1064L89.3236 23.7554H84.9538V35.7776ZM88.7801 18.8639C90.7366 18.8639 92.1787 18.4726 93.1063 17.69C94.0484 16.8928 94.5194 15.6827 94.5194 14.0594C94.5194 12.3927 94.0484 11.1753 93.1063 10.4071C92.1787 9.62448 90.7366 9.23316 88.7801 9.23316H84.9538V18.8639H88.7801Z" fill="white" fill-opacity="0.7"/>
  <path d="M58.9091 17.0378H71.3443V21.9727H58.9091V30.7557H73.127V35.7776H52.1045V4.21124H72.6704V9.23316H58.9091V17.0378Z" fill="white" fill-opacity="0.7"/>
  <defs>
    <linearGradient id="paint0_linear_295_26727" x1="24.736" y1="-0.171104" x2="34.3769" y2="36.7468" gradientUnits="userSpaceOnUse">
      <stop stop-color="#EF552C"/>
      <stop offset="0.46" stop-color="#8C2DDA"/>
      <stop offset="1" stop-color="#30324A"/>
    </linearGradient>
    <linearGradient id="paint1_linear_295_26727" x1="30.9601" y1="-1.79483" x2="40.5968" y2="35.123" gradientUnits="userSpaceOnUse">
      <stop stop-color="#EF552C"/>
      <stop offset="0.46" stop-color="#8C2DDA"/>
      <stop offset="1" stop-color="#30324A"/>
    </linearGradient>
    <linearGradient id="paint2_linear_295_26727" x1="17.9714" y1="1.59683" x2="27.6081" y2="38.5147" gradientUnits="userSpaceOnUse">
      <stop stop-color="#EF552C"/>
      <stop offset="0.46" stop-color="#8C2DDA"/>
      <stop offset="1" stop-color="#30324A"/>
    </linearGradient>
    <linearGradient id="paint3_linear_295_26727" x1="5.91081" y1="4.74495" x2="15.5475" y2="41.6628" gradientUnits="userSpaceOnUse">
      <stop stop-color="#EF552C"/>
      <stop offset="0.46" stop-color="#8C2DDA"/>
      <stop offset="1" stop-color="#30324A"/>
    </linearGradient>
    <linearGradient id="paint4_linear_295_26727" x1="5.53173" y1="4.84488" x2="15.1684" y2="41.7627" gradientUnits="userSpaceOnUse">
      <stop stop-color="#EF552C"/>
      <stop offset="0.46" stop-color="#8C2DDA"/>
      <stop offset="1" stop-color="#30324A"/>
    </linearGradient>
    <linearGradient id="paint5_linear_295_26727" x1="14.6631" y1="2.45891" x2="24.2998" y2="39.381" gradientUnits="userSpaceOnUse">
      <stop stop-color="#EF552C"/>
      <stop offset="0.46" stop-color="#8C2DDA"/>
      <stop offset="1" stop-color="#30324A"/>
    </linearGradient>
    <linearGradient id="paint6_linear_295_26727" x1="25.8214" y1="-0.453982" x2="35.4581" y2="36.4681" gradientUnits="userSpaceOnUse">
      <stop stop-color="#EF552C"/>
      <stop offset="0.46" stop-color="#8C2DDA"/>
      <stop offset="1" stop-color="#30324A"/>
    </linearGradient>
  </defs>
</svg>