<svg width="36" height="36" viewBox="0 0 36 36" fill="none" xmlns="http://www.w3.org/2000/svg">
<rect width="36" height="36" rx="18" fill="white"/>
<path d="M27.7384 7.99997L19.2251 14.3331L20.8084 10.5955L27.7384 7.99997Z" fill="#E17726" stroke="#E17726" stroke-width="0.259553" stroke-linecap="round" stroke-linejoin="round"/>
<path d="M8.06396 7.99994L16.5254 14.385L15.02 10.5955L8.06396 7.99994Z" fill="#E27625" stroke="#E27625" stroke-width="0.259553" stroke-linecap="round" stroke-linejoin="round"/>
<path d="M24.6754 22.6646L22.3914 26.1426L27.271 27.4923L28.6466 22.7425L24.6754 22.6646Z" fill="#E27625" stroke="#E27625" stroke-width="0.259553" stroke-linecap="round" stroke-linejoin="round"/>
<path d="M7.18164 22.7425L8.55727 27.4923L13.4109 26.1426L11.1528 22.6646L7.18164 22.7425Z" fill="#E27625" stroke="#E27625" stroke-width="0.259553" stroke-linecap="round" stroke-linejoin="round"/>
<path d="M13.1512 16.7988L11.8015 18.8492L16.6033 19.0569L16.4475 13.8658L13.1512 16.7988Z" fill="#E27625" stroke="#E27625" stroke-width="0.259553" stroke-linecap="round" stroke-linejoin="round"/>
<path d="M22.6769 16.7988L19.3287 13.8139L19.2249 19.0569L24.0266 18.8493L22.6769 16.7988Z" fill="#E27625" stroke="#E27625" stroke-width="0.259553" stroke-linecap="round" stroke-linejoin="round"/>
<path d="M13.4109 26.1428L16.3179 24.7412L13.8002 22.7686L13.4109 26.1428Z" fill="#E27625" stroke="#E27625" stroke-width="0.259553" stroke-linecap="round" stroke-linejoin="round"/>
<path d="M19.5103 24.7412L22.3913 26.1428L22.002 22.7686L19.5103 24.7412Z" fill="#E27625" stroke="#E27625" stroke-width="0.259553" stroke-linecap="round" stroke-linejoin="round"/>
<path d="M22.3915 26.1429L19.5105 24.7413L19.7441 26.6101L19.7181 27.4147L22.3915 26.1429Z" fill="#D5BFB2" stroke="#D5BFB2" stroke-width="0.259553" stroke-linecap="round" stroke-linejoin="round"/>
<path d="M13.4109 26.1428L16.1102 27.4146L16.0843 26.61L16.3179 24.7412L13.4109 26.1428Z" fill="#D5BFB2" stroke="#D5BFB2" stroke-width="0.259553" stroke-linecap="round" stroke-linejoin="round"/>
<path d="M16.1621 21.5227L13.7483 20.8219L15.4354 20.0432L16.1621 21.5227Z" fill="#233447" stroke="#233447" stroke-width="0.259553" stroke-linecap="round" stroke-linejoin="round"/>
<path d="M19.6663 21.5227L20.3671 20.0432L22.0801 20.8219L19.6663 21.5227Z" fill="#233447" stroke="#233447" stroke-width="0.259553" stroke-linecap="round" stroke-linejoin="round"/>
<path d="M13.4109 26.1427L13.8262 22.6647L11.1528 22.7426L13.4109 26.1427Z" fill="#CC6228" stroke="#CC6228" stroke-width="0.259553" stroke-linecap="round" stroke-linejoin="round"/>
<path d="M22.0022 22.6647L22.3915 26.1427L24.6756 22.7426L22.0022 22.6647Z" fill="#CC6228" stroke="#CC6228" stroke-width="0.259553" stroke-linecap="round" stroke-linejoin="round"/>
<path d="M24.0268 18.8495L19.2251 19.0571L19.6663 21.5229L20.3671 20.0434L22.0802 20.8221L24.0268 18.8495Z" fill="#CC6228" stroke="#CC6228" stroke-width="0.259553" stroke-linecap="round" stroke-linejoin="round"/>
<path d="M13.7484 20.8221L15.4355 20.0434L16.1623 21.5229L16.6035 19.0571L11.8018 18.8495L13.7484 20.8221Z" fill="#CC6228" stroke="#CC6228" stroke-width="0.259553" stroke-linecap="round" stroke-linejoin="round"/>
<path d="M11.8018 18.8494L13.8003 22.7687L13.7484 20.822L11.8018 18.8494Z" fill="#E27525" stroke="#E27525" stroke-width="0.259553" stroke-linecap="round" stroke-linejoin="round"/>
<path d="M22.0801 20.8221L22.0022 22.7687L24.0267 18.8495L22.0801 20.8221Z" fill="#E27525" stroke="#E27525" stroke-width="0.259553" stroke-linecap="round" stroke-linejoin="round"/>
<path d="M16.6036 19.057L16.1624 21.5228L16.7074 24.4557L16.8372 20.5884L16.6036 19.057Z" fill="#E27525" stroke="#E27525" stroke-width="0.259553" stroke-linecap="round" stroke-linejoin="round"/>
<path d="M19.2251 19.057L18.9915 20.5884L19.0953 24.4557L19.6663 21.5228L19.2251 19.057Z" fill="#E27525" stroke="#E27525" stroke-width="0.259553" stroke-linecap="round" stroke-linejoin="round"/>
<path d="M19.6662 21.5226L19.0952 24.4555L19.5105 24.741L22.0022 22.7684L22.0801 20.8218L19.6662 21.5226Z" fill="#F5841F" stroke="#F5841F" stroke-width="0.259553" stroke-linecap="round" stroke-linejoin="round"/>
<path d="M13.7483 20.8218L13.8002 22.7684L16.3179 24.741L16.7072 24.4555L16.1621 21.5226L13.7483 20.8218Z" fill="#F5841F" stroke="#F5841F" stroke-width="0.259553" stroke-linecap="round" stroke-linejoin="round"/>
<path d="M19.718 27.4147L19.744 26.61L19.5104 26.4284H16.2919L16.0843 26.61L16.1102 27.4147L13.4109 26.1429L14.3453 26.9215L16.266 28.2452H19.5363L21.457 26.9215L22.3914 26.1429L19.718 27.4147Z" fill="#C0AC9D" stroke="#C0AC9D" stroke-width="0.259553" stroke-linecap="round" stroke-linejoin="round"/>
<path d="M19.5106 24.7411L19.0953 24.4556H16.7074L16.3181 24.7411L16.0845 26.6099L16.2921 26.4282H19.5106L19.7442 26.6099L19.5106 24.7411Z" fill="#161616" stroke="#161616" stroke-width="0.259553" stroke-linecap="round" stroke-linejoin="round"/>
<path d="M28.1017 14.7484L28.8285 11.2444L27.7383 7.99997L19.5105 14.1254L22.6771 16.7988L27.1414 18.0966L28.1277 16.9546L27.7124 16.6431L28.3872 16.0202L27.8681 15.6049L28.543 15.0858L28.1017 14.7484Z" fill="#763E1A" stroke="#763E1A" stroke-width="0.259553" stroke-linecap="round" stroke-linejoin="round"/>
<path d="M7 11.2444L7.72675 14.7484L7.25955 15.0858L7.93439 15.6049L7.41528 16.0202L8.11608 16.6431L7.67484 16.9546L8.66114 18.0966L13.1514 16.7989L16.318 14.1255L8.06417 8L7 11.2444Z" fill="#763E1A" stroke="#763E1A" stroke-width="0.259553" stroke-linecap="round" stroke-linejoin="round"/>
<path d="M27.1414 18.0965L22.677 16.7988L24.0267 18.8492L22.0022 22.7685L24.6756 22.7425H28.6468L27.1414 18.0965Z" fill="#F5841F" stroke="#F5841F" stroke-width="0.259553" stroke-linecap="round" stroke-linejoin="round"/>
<path d="M13.1514 16.7988L8.6611 18.0965L7.18164 22.7425H11.1528L13.8003 22.7685L11.8017 18.8492L13.1514 16.7988Z" fill="#F5841F" stroke="#F5841F" stroke-width="0.259553" stroke-linecap="round" stroke-linejoin="round"/>
<path d="M19.225 19.0569L19.5105 14.1254L20.8083 10.5954H15.0203L16.318 14.1254L16.6035 19.0569L16.7074 20.6142V24.4556H19.0953V20.6142L19.225 19.0569Z" fill="#F5841F" stroke="#F5841F" stroke-width="0.259553" stroke-linecap="round" stroke-linejoin="round"/>
</svg>
