<svg xmlns="http://www.w3.org/2000/svg" width="168" height="170" viewBox="0 0 168 170" fill="none">
  <path d="M89.9246 93.5923C89.9246 93.5923 89.9034 93.5923 89.8892 93.5923L75.4645 91.0231C75.4008 91.0088 75.3088 90.9517 75.2735 90.9018C75.2381 90.8518 75.2098 90.7376 75.2239 90.6805L77.7707 76.1291C77.7849 76.0649 77.8415 75.9721 77.891 75.9365C77.9405 75.9008 78.0537 75.8794 78.1103 75.8865L92.5351 78.4557C92.6978 78.4842 92.8039 78.6412 92.7756 78.8053L90.2288 93.3567C90.2147 93.421 90.1581 93.5138 90.1085 93.5494C90.0661 93.578 89.9812 93.5994 89.9175 93.5994L89.9246 93.5923ZM75.7262 90.5806L89.7973 93.0856L92.2804 78.891L78.2093 76.3861L75.7262 90.5806Z" fill="url(#paint0_linear_422_241345)"/>
  <path d="M89.6348 94.8768C89.6348 94.8768 89.5852 94.8768 89.5569 94.8697L74.1771 90.7091C74.0144 90.6663 73.9225 90.495 73.9649 90.338L78.0893 74.8231C78.1034 74.7589 78.1742 74.6661 78.2308 74.6376C78.2874 74.609 78.4006 74.5876 78.4572 74.609L93.837 78.7696C93.9997 78.8125 94.0917 78.9837 94.0492 79.1407L89.9248 94.6556C89.9107 94.7198 89.8399 94.8126 89.7833 94.8411C89.7338 94.8697 89.6843 94.8839 89.6348 94.8839V94.8768ZM74.4672 90.288L89.5074 94.3559L93.5399 79.1836L78.4996 75.1157L74.4672 90.288Z" fill="url(#paint1_linear_422_241345)"/>
  <path d="M89.1681 96.2255C89.1327 96.2255 89.0973 96.2255 89.069 96.2112L72.8049 90.2379C72.7483 90.2165 72.6564 90.138 72.6281 90.0738C72.5927 89.9953 72.5927 89.9168 72.621 89.8383L78.5423 73.4314C78.5635 73.3743 78.6413 73.2815 78.705 73.253C78.7616 73.2244 78.8819 73.2173 78.9385 73.2458L95.2026 79.2191C95.2592 79.2405 95.3511 79.319 95.3794 79.3833C95.4077 79.4404 95.4148 79.5617 95.3865 79.6188L89.4652 96.0257C89.444 96.0828 89.3662 96.1755 89.3025 96.2041C89.2671 96.2184 89.2176 96.2255 89.1681 96.2255ZM73.1304 89.8454L89.0761 95.6974L94.8772 79.6116L78.9314 73.7597L73.1304 89.8454Z" fill="url(#paint2_linear_422_241345)"/>
  <path d="M88.5595 97.6529C88.51 97.6529 88.4534 97.6458 88.418 97.6315L71.3687 89.61C71.213 89.5387 71.1423 89.346 71.213 89.189L79.1647 71.9899C79.193 71.9328 79.285 71.8472 79.3416 71.8258C79.4194 71.7972 79.5043 71.7972 79.5821 71.8329L96.6315 79.8544C96.688 79.8829 96.7729 79.9757 96.7942 80.0328C96.8154 80.0899 96.8083 80.2183 96.7871 80.2754L88.8354 97.4745C88.8071 97.5316 88.7152 97.6172 88.6586 97.6386C88.6303 97.6458 88.5949 97.6529 88.5595 97.6529ZM71.7224 89.2461L88.4746 97.1248L96.2848 80.2255L79.5326 72.3467L71.7224 89.2461Z" fill="url(#paint3_linear_422_241345)"/>
  <path d="M87.7458 99.1443C87.6892 99.1443 87.6326 99.1301 87.5831 99.1015L69.8758 88.7892C69.7201 88.7036 69.6706 88.5038 69.7555 88.3468L79.9781 70.484C80.07 70.327 80.261 70.277 80.4167 70.3627L98.124 80.675C98.2796 80.7678 98.3291 80.9604 98.2442 81.1175L88.0217 98.9802C87.9792 99.0516 87.9085 99.1087 87.8236 99.1301C87.7953 99.1372 87.767 99.1443 87.7387 99.1443H87.7458ZM70.2507 88.4538L87.6892 98.6091L97.7561 81.0175L80.3176 70.8622L70.2507 88.4538Z" fill="url(#paint4_linear_422_241345)"/>
  <path d="M86.7276 100.679C86.6639 100.679 86.5932 100.657 86.5366 100.622L68.327 87.7616C68.2563 87.7117 68.2068 87.6331 68.1926 87.5475C68.1785 87.4619 68.1926 87.3691 68.2492 87.2977L80.9973 68.9283C81.1034 68.7784 81.3086 68.7427 81.4572 68.8498L99.6667 81.7098C99.8153 81.8169 99.8507 82.0238 99.7446 82.1737L86.9964 100.543C86.9469 100.615 86.8691 100.664 86.7842 100.679C86.763 100.679 86.7488 100.679 86.7276 100.679ZM68.7373 87.4476L86.6993 100.136L99.2776 82.0167L81.3157 69.3279L68.7373 87.4476Z" fill="url(#paint5_linear_422_241345)"/>
  <path d="M85.4897 102.242C85.4119 102.242 85.3341 102.213 85.2775 102.163L66.7707 86.4985C66.7 86.4414 66.6576 86.3558 66.6505 86.2701C66.6434 86.1774 66.6717 86.0917 66.7283 86.0204L82.2567 67.3512C82.3133 67.2798 82.3982 67.237 82.4831 67.2298C82.575 67.2227 82.6599 67.2512 82.7307 67.3083L101.237 82.9731C101.308 83.0301 101.351 83.1158 101.358 83.2014C101.365 83.2942 101.336 83.3798 101.28 83.4512L85.7514 102.12C85.6878 102.199 85.5887 102.242 85.4968 102.242H85.4897ZM67.1881 86.2202L85.4755 101.699L100.82 83.2514L82.5326 67.7722L67.1881 86.2202Z" fill="url(#paint6_linear_422_241345)"/>
  <path d="M84.0037 103.812C83.9117 103.812 83.8268 103.776 83.7632 103.712L65.1928 84.9784C65.1291 84.9142 65.0938 84.8285 65.0938 84.7357C65.0938 84.643 65.1291 84.5573 65.1928 84.4931L83.7632 65.7597C83.8905 65.6312 84.1169 65.6312 84.2513 65.7597L102.822 84.4931C102.885 84.5573 102.921 84.643 102.921 84.7357C102.921 84.8285 102.885 84.9142 102.822 84.9784L84.2513 103.712C84.1876 103.776 84.1027 103.812 84.0108 103.812H84.0037ZM65.6243 84.7357L84.0037 103.276L102.383 84.7357L84.0037 66.195L65.6243 84.7357Z" fill="url(#paint7_linear_422_241345)"/>
  <path d="M82.2418 105.375C82.2418 105.375 82.2206 105.375 82.2136 105.375C82.1216 105.368 82.0367 105.325 81.973 105.246L63.629 83.1872C63.5017 83.0373 63.5229 82.8089 63.6715 82.6876L85.5385 64.1826C85.6093 64.1183 85.7012 64.0898 85.8003 64.1041C85.8923 64.1112 85.9771 64.154 86.0408 64.2325L104.385 86.2916C104.512 86.4414 104.491 86.6698 104.342 86.7911L82.4753 105.296C82.4116 105.353 82.3338 105.382 82.2489 105.382L82.2418 105.375ZM64.0747 82.9731L82.2631 104.839L103.939 86.4914L85.7508 64.625L64.0747 82.9731Z" fill="url(#paint8_linear_422_241345)"/>
  <path d="M80.1904 106.895C80.1904 106.895 80.148 106.895 80.1268 106.895C80.0348 106.88 79.9499 106.823 79.8933 106.745L62.1011 81.1103C62.0445 81.0318 62.0233 80.9319 62.0374 80.8391C62.0516 80.7392 62.1082 80.6607 62.186 80.6036L87.5974 62.6552C87.6752 62.5981 87.7742 62.5767 87.8662 62.591C87.9652 62.6052 88.043 62.6623 88.0996 62.7408L105.892 88.3753C105.948 88.4538 105.97 88.5537 105.948 88.6465C105.934 88.7392 105.878 88.8249 105.8 88.882L80.3885 106.83C80.3248 106.873 80.2541 106.895 80.1834 106.895H80.1904ZM62.5539 80.9176L80.2187 106.366L105.446 88.5466L87.7813 63.0977L62.5539 80.9176Z" fill="url(#paint9_linear_422_241345)"/>
  <path d="M77.8277 108.351C77.8277 108.351 77.764 108.351 77.7287 108.336C77.6296 108.308 77.5518 108.251 77.5023 108.158L60.6439 78.6984C60.5378 78.52 60.6015 78.2845 60.7783 78.1845L89.9816 61.1782C90.0665 61.1282 90.1726 61.1139 90.2645 61.1425C90.3636 61.171 90.4414 61.2281 90.4909 61.3209L107.349 90.7805C107.455 90.9589 107.392 91.1945 107.215 91.2944L78.0116 108.301C77.955 108.336 77.8914 108.351 77.8277 108.351ZM61.1108 78.5485L77.8701 107.83L106.897 90.9233L90.1372 61.642L61.1108 78.5485Z" fill="url(#paint10_linear_422_241345)"/>
  <path d="M75.1391 109.692C75.0967 109.692 75.0472 109.685 75.0047 109.671C74.9057 109.635 74.8279 109.564 74.7854 109.471L59.2924 75.9577C59.2005 75.765 59.2924 75.5295 59.4764 75.4439L92.6979 59.8148C92.7899 59.772 92.896 59.7649 92.995 59.8006C93.0941 59.8362 93.1719 59.9076 93.2143 60.0004L108.707 93.5136C108.799 93.7063 108.707 93.9418 108.523 94.0274L75.3019 109.656C75.2523 109.678 75.1957 109.692 75.1391 109.692ZM59.7664 75.8364L75.1816 109.178L108.233 93.6278L92.8181 60.2858L59.7664 75.8364Z" fill="url(#paint11_linear_422_241345)"/>
  <path d="M72.0977 110.891C72.0411 110.891 71.9845 110.877 71.9279 110.856C71.8288 110.813 71.7581 110.727 71.7227 110.627L58.0974 72.8606C58.062 72.7607 58.0691 72.6537 58.1115 72.5538C58.1539 72.4539 58.2388 72.3825 58.3379 72.3468L95.7758 58.6018C95.8748 58.5661 95.9809 58.5733 96.08 58.6161C96.179 58.6589 96.2498 58.7446 96.2851 58.8445L109.91 96.611C109.988 96.818 109.882 97.0535 109.67 97.1249L72.2321 110.87C72.1896 110.884 72.1401 110.891 72.0977 110.891ZM58.5713 72.775L72.1401 110.392L109.429 96.7038L95.8607 59.0871L58.5713 72.775Z" fill="url(#paint12_linear_422_241345)"/>
  <path d="M68.6877 111.905C68.5038 111.905 68.3411 111.783 68.2916 111.598L57.0857 69.3993C57.0291 69.1781 57.1564 68.9497 57.3757 68.8926L99.2068 57.5884C99.3129 57.5598 99.4261 57.5741 99.5181 57.6312C99.6171 57.6883 99.6808 57.7739 99.7091 57.881L110.915 100.079C110.972 100.301 110.844 100.529 110.625 100.586L68.7939 111.89C68.7585 111.897 68.7231 111.905 68.6877 111.905ZM57.5597 69.3351L68.7373 111.405L110.441 100.129L99.2634 58.0594L57.5597 69.3351Z" fill="url(#paint13_linear_422_241345)"/>
  <path d="M64.9093 112.668C64.7041 112.668 64.5273 112.518 64.4919 112.311L56.3209 65.5456C56.2785 65.3101 56.4341 65.0888 56.6676 65.046L103.026 56.8033C103.26 56.7605 103.479 56.9175 103.522 57.153L111.693 103.919C111.714 104.033 111.693 104.147 111.622 104.24C111.558 104.333 111.459 104.397 111.346 104.418L64.9871 112.661C64.9871 112.661 64.9376 112.661 64.9093 112.661V112.668ZM56.7949 65.517L64.9517 112.183L111.211 103.954L103.055 57.2886L56.7949 65.517Z" fill="url(#paint14_linear_422_241345)"/>
  <path d="M60.7429 113.139C60.6368 113.139 60.5377 113.103 60.4599 113.032C60.3679 112.954 60.3113 112.847 60.3043 112.725L55.8474 61.3064C55.8261 61.0638 56.0101 60.8425 56.2506 60.8211L107.222 56.3251C107.342 56.318 107.455 56.3537 107.547 56.425C107.639 56.5035 107.696 56.6106 107.703 56.7319L112.16 108.151C112.181 108.393 111.997 108.615 111.757 108.636L60.7853 113.132C60.7853 113.132 60.757 113.132 60.7429 113.132V113.139ZM107.229 56.8104L56.2931 61.3064L60.7853 112.69L111.721 108.158L107.236 56.8104H107.229Z" fill="url(#paint15_linear_422_241345)"/>
  <path d="M111.806 113.253H56.1864C55.9317 113.253 55.7266 113.046 55.7266 112.789V56.6819C55.7266 56.425 55.9317 56.218 56.1864 56.218H111.806C112.06 56.218 112.265 56.425 112.265 56.6819V112.789C112.265 113.046 112.06 113.253 111.806 113.253ZM56.1935 56.6962L56.2076 112.782L111.806 112.768L111.791 56.6962H56.1935Z" fill="url(#paint16_linear_422_241345)"/>
  <path d="M111.481 118.249C111.481 118.249 111.452 118.249 111.438 118.249L51.2136 112.932C50.9519 112.911 50.7538 112.675 50.775 112.404L56.0454 51.6507C56.0667 51.3867 56.3001 51.1868 56.569 51.2082L116.794 56.525C117.055 56.5464 117.253 56.7819 117.232 57.0531L111.962 117.806C111.941 118.056 111.728 118.249 111.481 118.249ZM56.5265 51.7007L51.2561 112.454L111.481 117.771L116.751 57.0174L56.5265 51.7007Z" fill="url(#paint17_linear_422_241345)"/>
  <path d="M110.653 123.637C110.653 123.637 110.597 123.637 110.568 123.63L45.8585 112.119C45.7241 112.097 45.6109 112.019 45.5331 111.912C45.4553 111.798 45.427 111.669 45.4482 111.534L56.8593 46.2556C56.9088 45.9772 57.1706 45.7988 57.4394 45.8417L122.149 57.3529C122.284 57.3743 122.397 57.4528 122.475 57.5599C122.552 57.674 122.581 57.8025 122.56 57.9381L111.148 123.216C111.127 123.352 111.049 123.466 110.943 123.544C110.858 123.601 110.759 123.637 110.653 123.637ZM57.3545 46.3198L45.9151 111.619L110.646 123.159L122.086 57.8596C122.086 57.8596 122.078 57.831 122.064 57.831L57.3545 46.3198Z" fill="url(#paint18_linear_422_241345)"/>
  <path d="M109.252 129.382C109.21 129.382 109.16 129.382 109.118 129.361L40.1279 110.713C39.9935 110.677 39.8803 110.591 39.8096 110.463C39.7388 110.342 39.7176 110.199 39.7601 110.063L58.2455 40.4678C58.2809 40.3322 58.3658 40.218 58.4931 40.1466C58.6134 40.0753 58.7549 40.061 58.8893 40.0967L127.879 58.7445C128.014 58.7801 128.127 58.8658 128.198 58.9942C128.268 59.1156 128.289 59.2583 128.247 59.3939L109.762 128.989C109.726 129.125 109.641 129.239 109.514 129.311C109.436 129.361 109.344 129.382 109.252 129.382ZM58.7549 40.5677C58.7549 40.5677 58.7125 40.582 58.7054 40.6034L40.2199 110.199C40.2199 110.199 40.234 110.249 40.2553 110.256L109.245 128.904C109.245 128.904 109.295 128.89 109.302 128.868L127.787 59.2726C127.787 59.2726 127.773 59.2226 127.752 59.2155L58.762 40.5677C58.762 40.5677 58.762 40.5677 58.7549 40.5677Z" fill="url(#paint19_linear_422_241345)"/>
  <path d="M107.201 135.477C107.137 135.477 107.073 135.462 107.017 135.441L34.0653 108.657C33.7824 108.55 33.6338 108.236 33.7399 107.944L60.2902 34.3517C60.3398 34.2161 60.4388 34.1019 60.5732 34.0377C60.7076 33.9735 60.8562 33.9663 60.9906 34.0163L133.942 60.7997C134.225 60.9068 134.374 61.2208 134.268 61.5134L107.717 135.105C107.639 135.334 107.427 135.469 107.201 135.469V135.477ZM60.8067 34.473C60.8067 34.473 60.743 34.4945 60.7359 34.5159L34.1856 108.108C34.1714 108.144 34.1856 108.186 34.228 108.201L107.18 134.984C107.215 134.998 107.257 134.984 107.272 134.941L133.822 61.3493C133.836 61.3136 133.822 61.2708 133.779 61.2565L60.8279 34.473C60.8279 34.473 60.8137 34.473 60.8067 34.473Z" fill="url(#paint20_linear_422_241345)"/>
  <path d="M104.406 141.878C104.321 141.878 104.244 141.864 104.166 141.821L27.6911 105.846C27.4011 105.71 27.2808 105.36 27.4152 105.075L63.0774 27.9289C63.2118 27.6363 63.5514 27.515 63.8415 27.6506L140.316 63.6259C140.458 63.6901 140.564 63.8114 140.613 63.9542C140.663 64.0969 140.656 64.261 140.592 64.3966L104.93 141.543C104.831 141.757 104.626 141.878 104.406 141.878ZM63.5939 28.0716C63.5585 28.0716 63.5231 28.093 63.5019 28.1287L27.8397 105.275C27.8185 105.325 27.8397 105.382 27.8892 105.403L104.364 141.378C104.413 141.4 104.47 141.378 104.491 141.329L140.153 64.1825C140.175 64.1397 140.153 64.0683 140.104 64.0541L63.6292 28.0788C63.6292 28.0788 63.6009 28.0716 63.5868 28.0716H63.5939Z" fill="url(#paint21_linear_422_241345)"/>
  <path d="M100.784 148.543C100.678 148.543 100.579 148.515 100.48 148.458L21.048 102.199C20.7579 102.028 20.6589 101.656 20.8287 101.364L66.6922 21.2347C66.77 21.092 66.9044 20.9921 67.0601 20.9493C67.2157 20.9064 67.3784 20.9279 67.5199 21.0135L146.952 67.2797C147.093 67.3582 147.192 67.4938 147.235 67.6508C147.277 67.8078 147.256 67.9719 147.171 68.1147L101.307 148.244C101.23 148.386 101.095 148.486 100.939 148.529C100.89 148.543 100.833 148.551 100.784 148.551V148.543ZM67.2228 21.4131C67.1732 21.4131 67.1237 21.4346 67.1025 21.4702L21.2461 101.606C21.2107 101.671 21.2319 101.749 21.2956 101.785L100.727 148.051C100.727 148.051 100.791 148.072 100.826 148.065C100.862 148.058 100.883 148.037 100.904 148.008L146.768 67.8792C146.768 67.8792 146.789 67.8149 146.782 67.7793C146.775 67.7436 146.754 67.715 146.725 67.7007L67.2794 21.4274C67.2794 21.4274 67.244 21.4131 67.2228 21.4131Z" fill="url(#paint22_linear_422_241345)"/>
  <path d="M96.2423 155.416C96.115 155.416 95.9876 155.373 95.8744 155.302L14.2072 97.61C14.0657 97.5101 13.9738 97.3673 13.9455 97.1961C13.9172 97.0248 13.9525 96.8535 14.0516 96.7179L71.2342 14.3265C71.3332 14.1838 71.4747 14.091 71.6445 14.0625C71.8143 14.0339 71.9841 14.0696 72.1185 14.1695L153.786 71.8542C153.927 71.9541 154.019 72.0968 154.047 72.2681C154.076 72.4394 154.04 72.6107 153.941 72.7463L96.7587 155.13C96.6597 155.273 96.5182 155.366 96.3484 155.395C96.3131 155.395 96.2706 155.402 96.2352 155.402L96.2423 155.416ZM71.7577 14.5406C71.7577 14.5406 71.7365 14.5406 71.7294 14.5406C71.687 14.5478 71.6516 14.5692 71.6233 14.6049L14.4478 96.9891C14.4478 96.9891 14.4124 97.0676 14.4195 97.1104C14.4265 97.1532 14.4478 97.1889 14.4831 97.2175L96.1503 154.902C96.1503 154.902 96.2282 154.938 96.2706 154.931C96.313 154.924 96.3484 154.902 96.3767 154.866L153.559 72.4822C153.559 72.4822 153.595 72.4037 153.588 72.3609C153.581 72.3181 153.559 72.2824 153.524 72.261L71.8497 14.5692C71.8497 14.5692 71.7931 14.5406 71.7577 14.5406Z" fill="url(#paint23_linear_422_241345)"/>
  <path d="M90.6814 162.417C90.5257 162.417 90.3701 162.36 90.2498 162.26L7.23141 91.9936C6.94843 91.751 6.91306 91.3228 7.14651 91.0373L76.8084 7.29002C77.0489 7.00456 77.4734 6.96888 77.7564 7.20438L160.768 77.4708C161.051 77.7134 161.086 78.1416 160.853 78.4271L91.1978 162.167C91.0846 162.303 90.9219 162.388 90.738 162.41C90.7167 162.41 90.6955 162.41 90.6814 162.41V162.417ZM77.3249 7.53266C77.2682 7.53266 77.2117 7.55407 77.1763 7.60403L7.51438 91.3442C7.44364 91.4298 7.45779 91.5512 7.53561 91.6225L90.547 161.889C90.5894 161.925 90.6319 161.939 90.6884 161.932C90.738 161.932 90.7875 161.903 90.8229 161.86L160.478 78.1202C160.548 78.0345 160.534 77.9132 160.456 77.8419L77.4451 7.58262C77.4097 7.55407 77.3673 7.5398 77.3178 7.5398L77.3249 7.53266Z" fill="url(#paint24_linear_422_241345)"/>
  <path d="M84.0035 169.475C83.8125 169.475 83.6357 169.404 83.5013 169.268L0.206927 85.2424C-0.0689757 84.9641 -0.0689757 84.5073 0.206927 84.229L83.5013 0.203391C83.7701 -0.0677971 84.237 -0.0677971 84.5058 0.203391L167.793 84.2219C168.069 84.5002 168.069 84.9569 167.793 85.2353L84.5058 169.254C84.3714 169.389 84.1945 169.461 84.0035 169.461V169.475ZM84.0035 0.481717C83.9399 0.481717 83.8833 0.503126 83.8408 0.553082L0.5465 84.5716C0.504053 84.6144 0.475755 84.6715 0.475755 84.7357C0.475755 84.7999 0.496979 84.857 0.5465 84.8999L83.8338 168.918C83.9187 169.004 84.0743 169.004 84.1592 168.918L167.446 84.8999C167.489 84.857 167.517 84.7999 167.517 84.7357C167.517 84.6715 167.496 84.6144 167.446 84.5716L84.1663 0.545945C84.1238 0.503126 84.0672 0.47458 84.0035 0.47458V0.481717Z" fill="url(#paint25_linear_422_241345)"/>
  <defs>
    <linearGradient id="paint0_linear_422_241345" x1="84.0002" y1="75.8851" x2="84.0002" y2="93.5994" gradientUnits="userSpaceOnUse">
      <stop stop-color="#D87CEE"/>
      <stop offset="1" stop-color="#FACB7C"/>
    </linearGradient>
    <linearGradient id="paint1_linear_422_241345" x1="84.0071" y1="74.6003" x2="84.0071" y2="94.8839" gradientUnits="userSpaceOnUse">
      <stop stop-color="#D87CEE"/>
      <stop offset="1" stop-color="#FACB7C"/>
    </linearGradient>
    <linearGradient id="paint2_linear_422_241345" x1="84.0026" y1="73.2277" x2="84.0026" y2="96.2255" gradientUnits="userSpaceOnUse">
      <stop stop-color="#D87CEE"/>
      <stop offset="1" stop-color="#FACB7C"/>
    </linearGradient>
    <linearGradient id="paint3_linear_422_241345" x1="83.9963" y1="71.8052" x2="83.9963" y2="97.6529" gradientUnits="userSpaceOnUse">
      <stop stop-color="#D87CEE"/>
      <stop offset="1" stop-color="#FACB7C"/>
    </linearGradient>
    <linearGradient id="paint4_linear_422_241345" x1="83.9999" y1="70.3212" x2="83.9999" y2="99.1443" gradientUnits="userSpaceOnUse">
      <stop stop-color="#D87CEE"/>
      <stop offset="1" stop-color="#FACB7C"/>
    </linearGradient>
    <linearGradient id="paint5_linear_422_241345" x1="83.9967" y1="68.788" x2="83.9967" y2="100.679" gradientUnits="userSpaceOnUse">
      <stop stop-color="#D87CEE"/>
      <stop offset="1" stop-color="#FACB7C"/>
    </linearGradient>
    <linearGradient id="paint6_linear_422_241345" x1="84.0041" y1="67.2288" x2="84.0041" y2="102.242" gradientUnits="userSpaceOnUse">
      <stop stop-color="#D87CEE"/>
      <stop offset="1" stop-color="#FACB7C"/>
    </linearGradient>
    <linearGradient id="paint7_linear_422_241345" x1="84.0072" y1="65.6633" x2="84.0072" y2="103.812" gradientUnits="userSpaceOnUse">
      <stop stop-color="#D87CEE"/>
      <stop offset="1" stop-color="#FACB7C"/>
    </linearGradient>
    <linearGradient id="paint8_linear_422_241345" x1="84.0069" y1="64.1005" x2="84.0069" y2="105.382" gradientUnits="userSpaceOnUse">
      <stop stop-color="#D87CEE"/>
      <stop offset="1" stop-color="#FACB7C"/>
    </linearGradient>
    <linearGradient id="paint9_linear_422_241345" x1="83.9949" y1="62.5867" x2="83.9949" y2="106.895" gradientUnits="userSpaceOnUse">
      <stop stop-color="#D87CEE"/>
      <stop offset="1" stop-color="#FACB7C"/>
    </linearGradient>
    <linearGradient id="paint10_linear_422_241345" x1="83.9966" y1="61.1279" x2="83.9966" y2="108.351" gradientUnits="userSpaceOnUse">
      <stop stop-color="#D87CEE"/>
      <stop offset="1" stop-color="#FACB7C"/>
    </linearGradient>
    <linearGradient id="paint11_linear_422_241345" x1="83.9999" y1="59.7777" x2="83.9999" y2="109.692" gradientUnits="userSpaceOnUse">
      <stop stop-color="#D87CEE"/>
      <stop offset="1" stop-color="#FACB7C"/>
    </linearGradient>
    <linearGradient id="paint12_linear_422_241345" x1="84.0053" y1="58.579" x2="84.0053" y2="110.891" gradientUnits="userSpaceOnUse">
      <stop stop-color="#D87CEE"/>
      <stop offset="1" stop-color="#FACB7C"/>
    </linearGradient>
    <linearGradient id="paint13_linear_422_241345" x1="84.0003" y1="57.5741" x2="84.0003" y2="111.905" gradientUnits="userSpaceOnUse">
      <stop stop-color="#D87CEE"/>
      <stop offset="1" stop-color="#FACB7C"/>
    </linearGradient>
    <linearGradient id="paint14_linear_422_241345" x1="84.0072" y1="56.7963" x2="84.0072" y2="112.668" gradientUnits="userSpaceOnUse">
      <stop stop-color="#D87CEE"/>
      <stop offset="1" stop-color="#FACB7C"/>
    </linearGradient>
    <linearGradient id="paint15_linear_422_241345" x1="84.0036" y1="56.3242" x2="84.0036" y2="113.139" gradientUnits="userSpaceOnUse">
      <stop stop-color="#D87CEE"/>
      <stop offset="1" stop-color="#FACB7C"/>
    </linearGradient>
    <linearGradient id="paint16_linear_422_241345" x1="83.996" y1="56.218" x2="83.996" y2="113.253" gradientUnits="userSpaceOnUse">
      <stop stop-color="#D87CEE"/>
      <stop offset="1" stop-color="#FACB7C"/>
    </linearGradient>
    <linearGradient id="paint17_linear_422_241345" x1="84.0036" y1="51.2067" x2="84.0036" y2="118.249" gradientUnits="userSpaceOnUse">
      <stop stop-color="#D87CEE"/>
      <stop offset="1" stop-color="#FACB7C"/>
    </linearGradient>
    <linearGradient id="paint18_linear_422_241345" x1="84.0039" y1="45.8353" x2="84.0039" y2="123.637" gradientUnits="userSpaceOnUse">
      <stop stop-color="#D87CEE"/>
      <stop offset="1" stop-color="#FACB7C"/>
    </linearGradient>
    <linearGradient id="paint19_linear_422_241345" x1="84.0035" y1="40.0779" x2="84.0035" y2="129.382" gradientUnits="userSpaceOnUse">
      <stop stop-color="#D87CEE"/>
      <stop offset="1" stop-color="#FACB7C"/>
    </linearGradient>
    <linearGradient id="paint20_linear_422_241345" x1="84.0037" y1="33.9835" x2="84.0037" y2="135.477" gradientUnits="userSpaceOnUse">
      <stop stop-color="#D87CEE"/>
      <stop offset="1" stop-color="#FACB7C"/>
    </linearGradient>
    <linearGradient id="paint21_linear_422_241345" x1="84.003" y1="27.5952" x2="84.003" y2="141.878" gradientUnits="userSpaceOnUse">
      <stop stop-color="#D87CEE"/>
      <stop offset="1" stop-color="#FACB7C"/>
    </linearGradient>
    <linearGradient id="paint22_linear_422_241345" x1="84.0007" y1="20.9279" x2="84.0007" y2="148.551" gradientUnits="userSpaceOnUse">
      <stop stop-color="#D87CEE"/>
      <stop offset="1" stop-color="#FACB7C"/>
    </linearGradient>
    <linearGradient id="paint23_linear_422_241345" x1="83.9965" y1="14.053" x2="83.9965" y2="155.416" gradientUnits="userSpaceOnUse">
      <stop stop-color="#D87CEE"/>
      <stop offset="1" stop-color="#FACB7C"/>
    </linearGradient>
    <linearGradient id="paint24_linear_422_241345" x1="83.9996" y1="7.04919" x2="83.9996" y2="162.417" gradientUnits="userSpaceOnUse">
      <stop stop-color="#D87CEE"/>
      <stop offset="1" stop-color="#FACB7C"/>
    </linearGradient>
    <linearGradient id="paint25_linear_422_241345" x1="84" y1="0" x2="84" y2="169.475" gradientUnits="userSpaceOnUse">
      <stop stop-color="#D87CEE"/>
      <stop offset="1" stop-color="#FACB7C"/>
    </linearGradient>
  </defs>
</svg>