<svg width="36" height="36" viewBox="0 0 36 36" fill="none" xmlns="http://www.w3.org/2000/svg">
<rect width="36" height="36" rx="18" fill="white"/>
<path d="M18.3632 24.4273C16.5293 24.4273 14.7706 23.6984 13.4738 22.401C12.1771 21.1036 11.4486 19.344 11.4486 17.5091C11.4486 15.6743 12.1771 13.9147 13.4738 12.6172C14.7706 11.3198 16.5293 10.591 18.3632 10.591V4.93161C15.8769 4.93161 13.4464 5.66927 11.3791 7.05131C9.31186 8.43334 7.70061 10.3977 6.74915 12.6959C5.79768 14.9942 5.54874 17.5231 6.03379 19.9629C6.51884 22.4027 7.71611 24.6438 9.47418 26.4028C11.2323 28.1618 13.4722 29.3597 15.9107 29.845C18.3492 30.3303 20.8768 30.0812 23.1739 29.1293C25.4709 28.1773 27.4342 26.5652 28.8155 24.4968C30.1968 22.4285 30.9341 19.9967 30.9341 17.5091H25.2777C25.2777 19.344 24.5492 21.1036 23.2525 22.401C21.9558 23.6984 20.197 24.4273 18.3632 24.4273Z" fill="#2354E6"/>
<path d="M25.2778 10.5909H18.3633V17.5091H25.2778V10.5909Z" fill="#17E6A1"/>
</svg>
