<svg width="312" height="160" viewBox="0 0 312 160" fill="none" xmlns="http://www.w3.org/2000/svg">
<g clip-path="url(#clip0_227_1123)">
<g clip-path="url(#clip1_227_1123)">
<path d="M105.822 131.517H102.464V134.872H105.822V131.517Z" fill="#8B5EAD"/>
<path d="M132.69 131.517H129.331V134.872H132.69V131.517Z" fill="#8B5EAD"/>
<path d="M123.734 131.517H120.375V134.872H123.734V131.517Z" fill="#8B5EAD"/>
<path d="M114.778 131.517H111.42V134.872H114.778V131.517Z" fill="#8B5EAD"/>
<path d="M229.636 77.6129C229.412 73.8105 226.278 70.6792 222.472 70.6792V62.1798C222.472 54.7987 216.65 48.7597 209.262 48.3123L197.171 15.6568L190.455 18.1171L183.066 5.14437L175.006 9.61773L166.722 0L106.942 48.3123H98.8815C91.2691 48.3123 85 54.5751 85 62.1798V133.306C85 140.911 91.2691 147.174 98.8815 147.174H208.366C215.979 147.174 222.248 140.911 222.248 133.306V112.952C226.278 112.505 229.636 108.926 229.636 104.677V77.6129ZM226.278 78.2839C226.278 80.5206 224.487 82.3099 222.248 82.5336V74.2579C224.487 74.2579 226.278 76.0472 226.278 78.2839ZM145.452 48.3123L181.275 35.3396C183.066 38.4709 186.648 40.7076 190.231 40.7076C190.902 40.7076 191.574 40.7076 192.246 40.484L195.156 48.536H145.452V48.3123ZM205.456 48.3123H198.739L194.261 36.2343L192.694 36.6816C192.022 36.9053 191.126 37.1289 190.231 37.1289C187.32 37.1289 184.633 35.3396 183.738 32.4319L183.066 30.8662L135.6 48.0887H117.465L195.156 19.9065L205.456 48.3123ZM187.32 19.2355L125.749 41.6023L181.723 9.61773L187.32 19.2355ZM172.095 11.4071L124.182 38.6946L166.274 4.69703L172.095 11.4071ZM218.889 133.306C218.889 139.122 214.187 143.819 208.366 143.819H98.8815C93.0602 143.819 88.3584 139.122 88.3584 133.306V62.1798C88.3584 56.3644 93.0602 51.6674 98.8815 51.6674H106.718L106.942 52.1147H210.381V51.891C215.307 52.7857 219.113 57.0354 219.113 62.1798V82.5336H196.948C189.335 82.5336 182.842 88.7963 182.842 96.6247V99.3087C182.842 106.913 189.111 113.4 196.948 113.4H218.889V133.306ZM221.352 109.597H196.724C190.902 109.597 185.977 104.9 185.977 98.8614V96.1773C185.977 90.362 190.678 85.4413 196.724 85.4413H222.248C223.591 85.4413 225.158 84.9939 226.278 84.0993V104.229C226.278 107.361 224.039 109.597 221.352 109.597Z" fill="#8B5EAD"/>
<path d="M198.291 89.9146C194.037 89.9146 190.455 93.4933 190.455 97.743C190.455 101.993 194.037 105.571 198.291 105.571C202.545 105.571 206.127 101.993 206.127 97.743C206.127 93.4933 202.545 89.9146 198.291 89.9146ZM198.291 102.216C195.828 102.216 193.813 100.203 193.813 97.743C193.813 95.2826 195.828 93.2696 198.291 93.2696C200.754 93.2696 202.769 95.2826 202.769 97.743C202.769 100.203 200.754 102.216 198.291 102.216Z" fill="#8B5EAD"/>
</g>
<path d="M30 27H56V153H30" stroke="#33164A" stroke-width="1.90323"/>
<path d="M282.5 27H256.5V153H282.5" stroke="#33164A" stroke-width="1.90323"/>
<path d="M85.5 90.4409H4.44085" stroke="#8B52B9" stroke-width="1.90323"/>
<path d="M227 90.4409H308.059" stroke="#8B52B9" stroke-width="1.90323"/>
<circle cx="6.34409" cy="6.34409" r="6.34409" transform="matrix(-1 0 0 1 12.6882 83.4624)" fill="#F9C980"/>
<circle cx="306.156" cy="89.8065" r="6.34409" fill="#F9C980"/>
<circle cx="6.34409" cy="6.34409" r="6.34409" transform="matrix(-1 0 0 1 35.6882 21)" fill="#33164A"/>
<circle cx="283.156" cy="27.3441" r="6.34409" fill="#33164A"/>
<circle cx="6.34409" cy="6.34409" r="6.34409" transform="matrix(-1 0 0 1 35.6882 147)" fill="#33164A"/>
<circle cx="283.156" cy="153.344" r="6.34409" fill="#33164A"/>
</g>
<defs>
<clipPath id="clip0_227_1123">
<rect width="312" height="160" fill="white"/>
</clipPath>
<clipPath id="clip1_227_1123">
<rect width="144.636" height="147.174" fill="white" transform="translate(85)"/>
</clipPath>
</defs>
</svg>
