<svg width="36" height="36" viewBox="0 0 36 36" fill="none" xmlns="http://www.w3.org/2000/svg">
<rect width="36" height="36" rx="18" fill="white"/>
<path d="M30.1855 10.3707C30.9965 21.3565 23.9356 26.549 17.6057 27.1027C11.7208 27.6174 6.18138 24.0009 5.69542 18.4444C5.29455 13.8539 8.1314 11.8995 10.3603 11.7047C12.6528 11.5037 14.5792 13.0849 14.7463 14.9992C14.9073 16.8398 13.759 17.6775 12.9603 17.7472C12.3287 17.8026 11.5342 17.4191 11.4624 16.5957C11.4009 15.8882 11.6695 15.7918 11.6039 15.0402C11.4871 13.7021 10.3203 13.5463 9.68158 13.6016C8.90854 13.6693 7.506 14.5716 7.70285 16.8193C7.90072 19.0864 10.0743 20.8776 12.9234 20.6285C15.9981 20.3598 18.1389 17.9656 18.2998 14.6075C18.2983 14.4296 18.3358 14.2536 18.4095 14.0918L18.4105 14.0877C18.4436 14.0173 18.4824 13.9498 18.5264 13.8857C18.592 13.7872 18.6761 13.6785 18.7848 13.5596C18.7857 13.5565 18.7857 13.5565 18.7878 13.5565C18.8667 13.4673 18.9621 13.3709 19.0697 13.2674C20.4128 12 25.2499 9.01107 29.8246 9.95748C29.9212 9.97821 30.0086 10.0296 30.0737 10.1041C30.1387 10.1786 30.1779 10.2721 30.1855 10.3707Z" fill="url(#paint0_linear_226_476)"/>
<defs>
<linearGradient id="paint0_linear_226_476" x1="27.7129" y1="13.9211" x2="9.29862" y2="24.3638" gradientUnits="userSpaceOnUse">
<stop stop-color="#0CC5FF"/>
<stop offset="1" stop-color="#007FFF"/>
</linearGradient>
</defs>
</svg>
