<svg width="36" height="36" viewBox="0 0 36 36" fill="none" xmlns="http://www.w3.org/2000/svg">
<rect width="36" height="36" rx="18" fill="white"/>
<path d="M21.0928 14.5704H15.0634C14.8073 14.5704 14.5996 14.7775 14.5996 15.0331V21.0485C14.5996 21.3041 14.8073 21.5113 15.0634 21.5113H21.0928C21.3489 21.5113 21.5566 21.3041 21.5566 21.0485V15.0331C21.5566 14.7775 21.3489 14.5704 21.0928 14.5704Z" fill="black"/>
<path d="M14.1328 7.62918H8.10346C7.84732 7.62918 7.63965 7.83637 7.63965 8.09192V14.1074C7.63965 14.3629 7.84732 14.5701 8.10346 14.5701H14.1328C14.3889 14.5701 14.5966 14.3629 14.5966 14.1074V8.09192C14.5966 7.83637 14.3889 7.62918 14.1328 7.62918Z" fill="black"/>
<path d="M28.0469 7.62918H22.0175C21.7614 7.62918 21.5537 7.83637 21.5537 8.09192V14.1074C21.5537 14.3629 21.7614 14.5701 22.0175 14.5701H28.0469C28.303 14.5701 28.5107 14.3629 28.5107 14.1074V8.09192C28.5107 7.83637 28.303 7.62918 28.0469 7.62918Z" fill="black"/>
<path d="M14.1328 21.5107H8.10346C7.84732 21.5107 7.63965 21.7179 7.63965 21.9735V27.9889C7.63965 28.2444 7.84732 28.4516 8.10346 28.4516H14.1328C14.3889 28.4516 14.5966 28.2444 14.5966 27.9889V21.9735C14.5966 21.7179 14.3889 21.5107 14.1328 21.5107Z" fill="black"/>
<path d="M28.0469 21.5107H22.0175C21.7614 21.5107 21.5537 21.7179 21.5537 21.9735V27.9889C21.5537 28.2444 21.7614 28.4516 22.0175 28.4516H28.0469C28.303 28.4516 28.5107 28.2444 28.5107 27.9889V21.9735C28.5107 21.7179 28.303 21.5107 28.0469 21.5107Z" fill="black"/>
</svg>
