<svg width="581" height="247" viewBox="0 0 581 247" fill="none" xmlns="http://www.w3.org/2000/svg">
<g clip-path="url(#clip0_227_1094)">
<path d="M48 41H111V239H48" stroke="#33164A" stroke-width="3"/>
<circle cx="8" cy="8" r="8" transform="matrix(-1 0 0 1 55 33)" fill="#33164A"/>
<circle cx="8" cy="8" r="8" transform="matrix(-1 0 0 1 55 231)" fill="#33164A"/>
<path d="M186 141H7" stroke="#8B52B9" stroke-width="3"/>
<circle cx="10" cy="10" r="10" transform="matrix(-1 0 0 1 20 130)" fill="#F9C980"/>
<path d="M533 41H470V239H533" stroke="#33164A" stroke-width="3"/>
<circle cx="534" cy="41" r="8" fill="#33164A"/>
<circle cx="534" cy="239" r="8" fill="#33164A"/>
<path d="M395 141H574" stroke="#8B52B9" stroke-width="3"/>
<circle cx="571" cy="140" r="10" fill="#F9C980"/>
<path d="M216.088 190.042H211.235V194.891H216.088V190.042Z" fill="#8B5EAD"/>
<path d="M254.912 190.042H250.059V194.891H254.912V190.042Z" fill="#8B5EAD"/>
<path d="M241.971 190.042H237.118V194.891H241.971V190.042Z" fill="#8B5EAD"/>
<path d="M229.029 190.042H224.177V194.891H229.029V190.042Z" fill="#8B5EAD"/>
<path d="M395 112.151C394.676 106.657 390.147 102.132 384.647 102.132V89.85C384.647 79.1844 376.235 70.458 365.559 69.8115L348.088 22.6241L338.382 26.1793L327.706 7.43364L316.059 13.8977L304.088 0L217.706 69.8115H206.059C195.059 69.8115 186 78.8612 186 89.85V192.628C186 203.617 195.059 212.667 206.059 212.667H364.265C375.265 212.667 384.324 203.617 384.324 192.628V163.217C390.147 162.57 395 157.399 395 151.258V112.151ZM390.147 113.121C390.147 116.353 387.559 118.938 384.324 119.261V107.303C387.559 107.303 390.147 109.889 390.147 113.121ZM273.353 69.8115L325.118 51.0659C327.706 55.5907 332.882 58.8227 338.059 58.8227C339.029 58.8227 340 58.8227 340.971 58.4995L345.176 70.1348H273.353V69.8115ZM360.059 69.8115H350.353L343.882 52.3587L341.618 53.0051C340.647 53.3283 339.353 53.6515 338.059 53.6515C333.853 53.6515 329.971 51.0659 328.676 46.8642L327.706 44.6018L259.118 69.4883H232.912L345.176 28.7649L360.059 69.8115ZM333.853 27.7953L244.882 60.1155L325.765 13.8977L333.853 27.7953ZM311.853 16.4833L242.618 55.9139L303.441 6.78723L311.853 16.4833ZM379.471 192.628C379.471 201.031 372.676 207.819 364.265 207.819H206.059C197.647 207.819 190.853 201.031 190.853 192.628V89.85C190.853 81.4468 197.647 74.6596 206.059 74.6596H217.382L217.706 75.306H367.176V74.9828C374.294 76.2756 379.794 82.4164 379.794 89.85V119.261H347.765C336.765 119.261 327.382 128.311 327.382 139.623V143.502C327.382 154.49 336.441 163.863 347.765 163.863H379.471V192.628ZM383.029 158.369H347.441C339.029 158.369 331.912 151.582 331.912 142.855V138.977C331.912 130.573 338.706 123.463 347.441 123.463H384.324C386.265 123.463 388.529 122.817 390.147 121.524V150.612C390.147 155.137 386.912 158.369 383.029 158.369Z" fill="#8B5EAD"/>
<path d="M349.706 129.927C343.559 129.927 338.382 135.098 338.382 141.239C338.382 147.38 343.559 152.551 349.706 152.551C355.853 152.551 361.029 147.38 361.029 141.239C361.029 135.098 355.853 129.927 349.706 129.927ZM349.706 147.703C346.147 147.703 343.235 144.794 343.235 141.239C343.235 137.684 346.147 134.775 349.706 134.775C353.265 134.775 356.176 137.684 356.176 141.239C356.176 144.794 353.265 147.703 349.706 147.703Z" fill="#8B5EAD"/>
</g>
<defs>
<clipPath id="clip0_227_1094">
<rect width="581" height="247" fill="white"/>
</clipPath>
</defs>
</svg>
