<svg width="36" height="36" viewBox="0 0 36 36" fill="none" xmlns="http://www.w3.org/2000/svg">
<rect width="36" height="36" rx="18" fill="white"/>
<path d="M30.8735 19.3821C31.8505 17.1905 26.992 11.0381 22.3447 8.5032C19.4137 6.52283 16.3772 6.78688 15.7435 7.65824C14.3968 9.5594 20.2323 11.1965 24.1402 13.0713C23.2953 13.4409 22.5031 14.1011 22.0542 14.9196C20.602 13.3353 17.407 11.9623 13.6575 13.0713C11.1226 13.8106 9.03658 15.5797 8.21802 18.2202C8.03319 18.141 7.79554 18.0882 7.5843 18.0882C6.71294 18.0882 6 18.8012 6 19.6725C6 20.5439 6.71294 21.2568 7.5843 21.2568C7.74273 21.2568 8.24443 21.1512 8.24443 21.1512L16.3772 21.204C13.1294 26.3794 10.5417 27.1187 10.5417 28.0165C10.5417 28.9143 12.9973 28.6766 13.9215 28.3334C18.3575 26.7491 23.1104 21.7585 23.929 20.3327C27.3617 20.7815 30.2398 20.8079 30.8735 19.3821Z" fill="url(#paint0_linear_555_81)"/>
<path fill-rule="evenodd" clip-rule="evenodd" d="M24.1667 13.0713C24.3515 12.9921 24.3251 12.728 24.2723 12.5168C24.1667 12.0415 22.1863 10.0875 20.338 9.21615C17.8031 8.02792 15.9547 8.08073 15.6907 8.63524C16.1924 9.69144 18.5952 10.6684 21.0773 11.7246C22.1071 12.1471 23.1897 12.596 24.1667 13.0713Z" fill="url(#paint1_linear_555_81)"/>
<path fill-rule="evenodd" clip-rule="evenodd" d="M20.9453 23.6861C20.4436 23.5013 19.8627 23.3164 19.2026 23.158C19.8891 21.917 20.0476 20.0422 19.3874 18.8804C18.4633 17.2433 17.3014 16.3719 14.5817 16.3719C13.103 16.3719 9.08947 16.8736 9.01025 20.227C9.01025 20.5703 9.01025 20.8872 9.03666 21.204H16.3773C15.4003 22.7619 14.4761 23.9237 13.6575 24.7951C14.6345 25.0327 15.4267 25.244 16.166 25.4552C16.8525 25.6401 17.5127 25.7985 18.1728 25.9833C19.1762 25.244 20.1268 24.4518 20.9453 23.6861Z" fill="url(#paint2_linear_555_81)"/>
<path d="M8.11241 20.808C8.40286 23.3428 9.85514 24.3462 12.8125 24.6367C15.7699 24.9271 17.4598 24.7423 19.7042 24.9271C21.579 25.0856 23.2689 26.0625 23.8762 25.7193C24.4307 25.4288 24.1138 24.3462 23.3745 23.6597C22.3975 22.7619 21.0509 22.1546 18.7008 21.917C19.1761 20.6231 19.0441 18.8012 18.3047 17.8242C17.2485 16.3983 15.2946 15.7646 12.8125 16.0286C10.2248 16.3455 7.74274 17.6393 8.11241 20.808Z" fill="url(#paint3_linear_555_81)"/>
<defs>
<linearGradient id="paint0_linear_555_81" x1="13.3888" y1="17.3372" x2="30.6963" y2="22.2453" gradientUnits="userSpaceOnUse">
<stop stop-color="#8797FF"/>
<stop offset="1" stop-color="#AAA8FF"/>
</linearGradient>
<linearGradient id="paint1_linear_555_81" x1="27.1394" y1="17.7248" x2="14.6512" y2="5.20604" gradientUnits="userSpaceOnUse">
<stop stop-color="#3B22A0"/>
<stop offset="1" stop-color="#5156D8" stop-opacity="0"/>
</linearGradient>
<linearGradient id="paint2_linear_555_81" x1="21.2899" y1="24.1385" x2="9.29366" y2="17.2416" gradientUnits="userSpaceOnUse">
<stop stop-color="#3B1E8F"/>
<stop offset="1" stop-color="#6A6FFB" stop-opacity="0"/>
</linearGradient>
<linearGradient id="paint3_linear_555_81" x1="12.5528" y1="18.7607" x2="20.6614" y2="29.0635" gradientUnits="userSpaceOnUse">
<stop stop-color="#8898FF"/>
<stop offset="0.9839" stop-color="#5F47F1"/>
</linearGradient>
</defs>
</svg>
