<svg width="36" height="36" viewBox="0 0 36 36" fill="none" xmlns="http://www.w3.org/2000/svg">
<rect width="36" height="36" rx="18" fill="white"/>
<path d="M27.4472 9.12563L7.07372 16.8653C5.6832 17.4148 5.69145 18.1787 6.82027 18.5193L11.9015 20.0814L13.8456 25.9523C14.082 26.5948 13.9655 26.8497 14.6506 26.8497C15.1793 26.8497 15.4138 26.6123 15.7083 26.329C15.8955 26.1485 17.0073 25.0838 18.2487 23.895L23.5341 27.7413C24.5067 28.2698 25.209 27.996 25.4511 26.8516L28.9206 10.7486C29.2758 9.34591 28.3777 8.70967 27.4472 9.12563ZM12.6989 19.7225L24.1519 12.6056C24.7237 12.264 25.2479 12.4476 24.8175 12.824L15.0107 21.5389L14.6289 25.5502L12.6989 19.7225Z" fill="#3A97EC"/>
</svg>
