<svg width="36" height="36" viewBox="0 0 36 36" fill="none" xmlns="http://www.w3.org/2000/svg">
<rect width="36" height="36" rx="18" fill="white"/>
<path d="M9.73553 12.3417C14.2974 7.88611 21.7026 7.88611 26.2645 12.3417L26.8137 12.882C27.044 13.1034 27.044 13.4666 26.8137 13.6881L24.9358 15.5217C24.8206 15.6368 24.6346 15.6368 24.5195 15.5217L23.7665 14.7865C20.5777 11.6773 15.4223 11.6773 12.2335 14.7865L11.4274 15.5748C11.3122 15.69 11.1262 15.69 11.0111 15.5748L9.13319 13.7412C8.90288 13.5198 8.90288 13.1566 9.13319 12.9351L9.73553 12.3417ZM30.1531 16.1329L31.8273 17.7627C32.0576 17.9842 32.0576 18.3474 31.8273 18.5688L24.2892 25.9298C24.0588 26.1512 23.6868 26.1512 23.4654 25.9298L18.1152 20.7036C18.062 20.6504 17.9646 20.6504 17.9114 20.7036L12.5612 25.9298C12.3309 26.1512 11.9589 26.1512 11.7374 25.9298L4.17273 18.5688C3.94242 18.3474 3.94242 17.9842 4.17273 17.7627L5.84688 16.1329C6.07719 15.9114 6.44923 15.9114 6.67068 16.1329L12.0209 21.3591C12.074 21.4122 12.1715 21.4122 12.2246 21.3591L17.5748 16.1329C17.8051 15.9114 18.1772 15.9114 18.3986 16.1329L23.7488 21.3591C23.802 21.4122 23.8994 21.4122 23.9526 21.3591L29.3028 16.1329C29.5508 15.9114 29.9228 15.9114 30.1531 16.1329Z" fill="#187BFD"/>
</svg>
