<svg xmlns="http://www.w3.org/2000/svg" width="91" height="92" viewBox="0 0 91 92" fill="none">
  <g clip-path="url(#clip0_940_2528)">
    <path d="M13.1008 82.2126H10.9878V84.3099H13.1008V82.2126Z" fill="#8B5EAD"/>
    <path d="M30.0046 82.2126H27.8916V84.3099H30.0046V82.2126Z" fill="#8B5EAD"/>
    <path d="M24.3698 82.2126H22.2568V84.3099H24.3698V82.2126Z" fill="#8B5EAD"/>
    <path d="M18.7351 82.2126H16.6221V84.3099H18.7351V82.2126Z" fill="#8B5EAD"/>
    <path d="M91 48.5167C90.8591 46.1398 88.887 44.1824 86.4923 44.1824V38.8693C86.4923 34.2553 82.8297 30.4802 78.1811 30.2006L70.5743 9.78723L66.3483 11.3252L61.6997 3.21581L56.6285 6.01216L51.4164 0L13.805 30.2006H8.73375C3.94427 30.2006 0 34.1155 0 38.8693V83.3313C0 88.0851 3.94427 92 8.73375 92H77.6176C82.4071 92 86.3514 88.0851 86.3514 83.3313V70.6079C88.887 70.3283 91 68.0912 91 65.4346V48.5167ZM88.887 48.9362C88.887 50.3343 87.7601 51.4529 86.3514 51.5927V46.4194C87.7601 46.4194 88.887 47.538 88.887 48.9362ZM38.0341 30.2006L60.5728 22.0912C61.6997 24.0486 63.9536 25.4468 66.2074 25.4468C66.63 25.4468 67.0526 25.4468 67.4752 25.307L69.3065 30.3404H38.0341V30.2006ZM75.7864 30.2006H71.5604L68.743 22.6505L67.757 22.9301C67.3344 23.0699 66.7709 23.2097 66.2074 23.2097C64.3762 23.2097 62.6858 22.0912 62.1223 20.2736L61.6997 19.2948L31.8359 30.0608H20.4257L69.3065 12.4438L75.7864 30.2006ZM64.3762 12.0243L25.6378 26.0061L60.8545 6.01216L64.3762 12.0243ZM54.7972 7.1307L24.6517 24.1884L51.1347 2.93617L54.7972 7.1307ZM84.2384 83.3313C84.2384 86.9666 81.2802 89.9027 77.6176 89.9027H8.73375C5.07121 89.9027 2.113 86.9666 2.113 83.3313V38.8693C2.113 35.234 5.07121 32.2979 8.73375 32.2979H13.6641L13.805 32.5775H78.8855V32.4377C81.9845 32.997 84.3793 35.6535 84.3793 38.8693V51.5927H70.4334C65.644 51.5927 61.5588 55.5076 61.5588 60.4012V62.079C61.5588 66.8328 65.5031 70.8875 70.4334 70.8875H84.2384V83.3313ZM85.7879 68.5106H70.2926C66.63 68.5106 63.531 65.5745 63.531 61.7994V60.1216C63.531 56.4863 66.4892 53.4103 70.2926 53.4103H86.3514C87.1966 53.4103 88.1827 53.1307 88.887 52.5714V65.155C88.887 67.1125 87.4783 68.5106 85.7879 68.5106Z" fill="#8B5EAD"/>
    <path d="M71.2785 56.2068C68.602 56.2068 66.3481 58.4439 66.3481 61.1004C66.3481 63.7569 68.602 65.994 71.2785 65.994C73.955 65.994 76.2088 63.7569 76.2088 61.1004C76.2088 58.4439 73.955 56.2068 71.2785 56.2068ZM71.2785 63.8968C69.7289 63.8968 68.4611 62.6384 68.4611 61.1004C68.4611 59.5624 69.7289 58.3041 71.2785 58.3041C72.828 58.3041 74.0958 59.5624 74.0958 61.1004C74.0958 62.6384 72.828 63.8968 71.2785 63.8968Z" fill="#8B5EAD"/>
  </g>
  <defs>
    <clipPath id="clip0_940_2528">
      <rect width="91" height="92" fill="white"/>
    </clipPath>
  </defs>
</svg>