<svg xmlns="http://www.w3.org/2000/svg" width="105" height="121" viewBox="0 0 105 121" fill="none">
  <g clip-path="url(#clip0_159_96)">
    <path d="M74.8865 99.1961H30.1136L7.72083 60.4968L30.1072 21.7975H74.88L97.2664 60.4968L74.88 99.1961H74.8865ZM30.3894 98.7161H74.6107L96.7214 60.4968L74.6107 22.2775H30.3894L8.27872 60.4968L30.3894 98.7161Z" fill="white"/>
    <path d="M73.45 101.538L27.3626 99.1256L6.4126 58.0905L31.5436 19.4616L77.631 21.8743L98.581 62.9159L73.4436 101.545L73.45 101.538ZM27.664 98.6649L73.1999 101.046L98.0359 62.8839L77.336 22.3415L31.8001 19.9608L6.96408 58.1161L27.664 98.6585V98.6649Z" fill="white"/>
    <path d="M71.8468 103.868L24.5346 98.9081L5.18774 55.537L33.1531 17.1257L80.4653 22.0855L99.8121 65.4566L71.8532 103.868H71.8468ZM24.8616 98.4601L71.6223 103.362L99.2607 65.399L80.1383 22.5335L33.3776 17.6313L5.73923 55.5946L24.8616 98.4601Z" fill="white"/>
    <path d="M70.0705 106.185L21.6426 98.5305L4.07202 52.8427L34.9295 14.8154L83.3575 22.4695L100.928 68.1573L70.0705 106.185ZM21.9888 98.0953L69.8718 105.666L100.383 68.0677L83.0112 22.8983L35.1283 15.3274L4.61709 52.9323L21.9888 98.1017V98.0953Z" fill="white"/>
    <path d="M68.1147 108.469L18.6799 97.9801L3.05884 50.014L36.8789 12.5243L86.3137 23.0135L101.935 70.986L68.1147 108.469ZM19.0519 97.5705L67.948 107.945L101.396 70.8708L85.9482 23.4295L37.0521 13.0555L3.60391 50.1292L19.0519 97.5705Z" fill="white"/>
    <path d="M65.9793 110.722L15.6596 97.2634L2.1803 47.0446L39.0143 10.278L89.334 23.7367L102.82 73.9555L65.9793 110.722ZM16.0572 96.873L65.8446 110.184L102.287 73.8147L88.9493 24.1271L39.1618 10.8156L2.71254 47.1854L16.0508 96.873H16.0572Z" fill="white"/>
    <path d="M63.6644 112.917L12.5944 96.3546L1.43005 43.9407L41.3357 8.07648L92.4057 24.639L103.57 77.0593L63.6644 112.917ZM13.0048 95.9898L63.549 112.38L103.044 76.8929L91.9953 25.0166L41.4511 8.62046L1.95589 44.107L13.0048 95.9834V95.9898Z" fill="white"/>
    <path d="M61.1571 115.061L61.0288 115.01L9.48429 95.2602L0.827271 40.7024L43.843 5.93896L43.9713 5.99016L95.5158 25.7398L104.173 80.2976L61.1571 115.061ZM9.91393 94.9146L61.0673 114.511L103.653 80.0928L95.0798 26.079L43.9264 6.48934L1.34028 40.9008L9.91393 94.9146Z" fill="white"/>
    <path d="M58.4637 117.128L6.34202 93.9674L0.378296 37.3425L46.5362 3.87183L98.6579 27.0325L104.622 83.6575L58.4637 117.128ZM6.7909 93.6411L58.406 116.578L104.115 83.4335L98.209 27.3589L46.5939 4.4222L0.884892 37.5665L6.7909 93.6411Z" fill="white"/>
    <path d="M55.578 119.112L3.17424 92.4635V92.3227L0.0961914 33.8547L49.4219 1.88794L101.819 28.5365V28.6773L104.897 87.1517L55.578 119.118V119.112ZM3.64236 92.1628L55.546 118.555L104.404 86.8894L101.358 28.8309L49.4476 2.43832L0.596375 34.1043L3.64236 92.1628Z" fill="white"/>
    <path d="M52.5 121L0 90.7484V30.2516L52.5 0L105 30.2516V90.7484L52.5 121ZM0.480945 90.4732L52.5 120.443L104.519 90.4732V30.5268L52.5 0.556778L0.480945 30.5268V90.4732Z" fill="white"/>
  </g>
  <defs>
    <clipPath id="clip0_159_96">
      <rect width="105" height="121" fill="white"/>
    </clipPath>
  </defs>
</svg>