<svg xmlns="http://www.w3.org/2000/svg" width="137" height="130" viewBox="0 0 137 130" fill="none">
  <g clip-path="url(#clip0_391_32220)">
    <path d="M32.366 120.055C31.6037 120.055 30.9139 119.821 30.3477 119.369C29.4546 118.651 28.9827 117.459 29.019 116.009L30.8922 41.6008C30.9648 38.6076 33.2227 35.4118 35.9235 34.4686L103.146 10.9676C104.489 10.4999 105.738 10.648 106.652 11.3807C107.545 12.0978 108.017 13.2904 107.981 14.7402L106.108 89.1485C106.035 92.1417 103.77 95.3375 101.069 96.2807L33.8471 119.782C33.3316 119.961 32.8306 120.055 32.3587 120.055H32.366ZM104.634 10.952C104.184 10.952 103.712 11.0377 103.218 11.2092L35.9961 34.7103C33.3824 35.6223 31.1971 38.7168 31.1245 41.6086L29.2514 116.017C29.2151 117.381 29.6579 118.496 30.4856 119.166C31.3423 119.852 32.5112 119.984 33.7745 119.54L100.997 96.039C103.61 95.127 105.796 92.0325 105.868 89.1407L107.741 14.7324C107.778 13.3684 107.335 12.2537 106.507 11.5834C105.984 11.1625 105.338 10.952 104.627 10.952H104.634Z" fill="white"/>
    <path d="M28.4383 118.059C27.5525 118.059 26.7612 117.763 26.1586 117.186C25.2946 116.368 24.9025 115.081 25.0623 113.569L32.9686 37.337C33.2881 34.2737 35.7928 31.2026 38.5662 30.4933L107.444 12.8383C108.794 12.4953 110.007 12.7525 110.863 13.5632C111.727 14.3816 112.119 15.6678 111.96 17.1799L104.053 93.4122C103.734 96.4755 101.222 99.5466 98.4556 100.256L29.5781 117.911C29.1861 118.012 28.8085 118.059 28.4383 118.059ZM108.569 12.9474C108.228 12.9474 107.865 12.9942 107.487 13.0877L38.6098 30.7427C35.9308 31.4287 33.5059 34.3984 33.201 37.3604L25.2946 113.593C25.1494 115.019 25.5051 116.227 26.311 116.983C27.1024 117.739 28.2422 117.973 29.5128 117.646L98.3903 99.9909C101.069 99.305 103.494 96.3352 103.799 93.3732L111.706 17.141C111.851 15.7145 111.495 14.5063 110.689 13.7503C110.13 13.2202 109.397 12.9474 108.569 12.9474Z" fill="white"/>
    <path d="M24.7064 115.635C23.6754 115.635 22.7897 115.261 22.1508 114.551C21.3231 113.624 21.0255 112.252 21.3086 110.685L35.3716 33.1591C35.9379 30.0412 38.6895 27.1338 41.4992 26.6739L111.546 15.1923C112.896 14.9741 114.065 15.3326 114.856 16.2134C115.684 17.141 115.982 18.5129 115.698 20.0796L101.635 97.6057C101.069 100.724 98.3176 103.631 95.5079 104.091L25.4615 115.573C25.2073 115.612 24.9532 115.635 24.7064 115.635ZM112.293 15.3794C112.061 15.3794 111.822 15.4028 111.582 15.4417L41.5355 26.9233C38.813 27.3676 36.1557 30.1815 35.6112 33.1981L21.5482 110.724C21.2796 112.205 21.5555 113.491 22.325 114.357C23.0583 115.175 24.1546 115.51 25.4179 115.3L95.4643 103.818C98.1869 103.374 100.844 100.56 101.389 97.5434L115.452 20.0172C115.72 18.5362 115.444 17.2501 114.675 16.3849C114.087 15.7301 113.259 15.3794 112.293 15.3794Z" fill="white"/>
    <path d="M21.2069 112.782C20.0235 112.782 19.0216 112.314 18.3682 111.457C17.5986 110.436 17.3881 108.947 17.8019 107.357L38.1087 29.0903C38.9218 25.949 41.8985 23.2209 44.7445 23.0182L115.459 17.9828C116.795 17.8893 117.92 18.357 118.632 19.3001C119.401 20.3212 119.612 21.81 119.198 23.4001L98.8911 101.667C98.078 104.808 95.1013 107.536 92.2553 107.739L21.5409 112.774C21.4247 112.782 21.3158 112.79 21.2069 112.79V112.782ZM115.793 18.2322C115.691 18.2322 115.582 18.2322 115.473 18.24L44.759 23.2754C42.0147 23.4703 39.1396 26.1049 38.3483 29.1448L18.0415 107.411C17.6494 108.916 17.8382 110.319 18.557 111.27C19.2176 112.143 20.2776 112.579 21.5191 112.486L92.2335 107.45C94.9779 107.256 97.8529 104.621 98.6443 101.581L118.951 23.3144C119.343 21.81 119.154 20.407 118.436 19.456C117.833 18.6532 116.896 18.2244 115.786 18.2244L115.793 18.2322Z" fill="white"/>
    <path d="M88.843 111.169C88.8067 111.169 88.7704 111.169 88.7341 111.169L17.8818 109.524C16.5677 109.493 15.4932 108.924 14.8543 107.918C14.1355 106.796 14.0411 105.221 14.5929 103.6L41.1652 25.1773C42.218 22.0672 45.3398 19.5807 48.1568 19.5807C48.1931 19.5807 48.2294 19.5807 48.2657 19.5807L119.118 21.2254C120.432 21.2566 121.507 21.8256 122.146 22.8311C122.864 23.9535 122.959 25.5281 122.407 27.1493L95.8273 105.572C94.7746 108.682 91.6527 111.169 88.8357 111.169H88.843ZM48.1641 19.8535C45.4415 19.8535 42.4285 22.2621 41.4121 25.2708L14.8325 103.693C14.3097 105.229 14.3969 106.71 15.0648 107.762C15.6601 108.69 16.662 109.22 17.889 109.251L88.7413 110.896C91.5002 110.958 94.5713 108.534 95.6022 105.486L122.182 27.0636C122.705 25.528 122.617 24.0471 121.95 22.9948C121.354 22.0672 120.352 21.5372 119.125 21.506L48.273 19.8613C48.273 19.8613 48.2004 19.8613 48.1641 19.8613V19.8535Z" fill="white"/>
    <path d="M85.5106 114.388C85.3146 114.388 85.1258 114.38 84.9298 114.357L14.484 105.829C13.2062 105.673 12.1898 105.003 11.6235 103.943C10.9701 102.711 10.9919 101.067 11.6816 99.4375L44.534 21.4515C45.8554 18.318 49.2314 16.0497 52.0701 16.3927L122.516 24.9201C123.794 25.076 124.81 25.7463 125.376 26.8064C126.03 28.038 126.008 29.6827 125.318 31.3118L92.4731 109.29C91.2389 112.213 88.2186 114.38 85.5179 114.38L85.5106 114.388ZM51.482 16.6421C48.8756 16.6421 45.957 18.7467 44.7663 21.5684L11.9212 99.5466C11.2678 101.098 11.2387 102.649 11.8486 103.803C12.3713 104.785 13.3151 105.408 14.5131 105.549L84.9588 114.076C87.6886 114.403 90.9557 112.213 92.2335 109.181L125.079 31.2026C125.732 29.6515 125.761 28.1003 125.151 26.9467C124.629 25.9646 123.685 25.341 122.487 25.2007L52.0411 16.6733C51.8596 16.6499 51.6708 16.6421 51.4893 16.6421H51.482Z" fill="white"/>
    <path d="M81.9604 117.373C81.5974 117.373 81.2417 117.334 80.8932 117.256L11.4058 101.706C10.1643 101.425 9.21322 100.661 8.73405 99.5466C8.16049 98.2137 8.3057 96.5145 9.14062 94.8776L48.186 17.9594C49.7542 14.8727 53.3117 12.8617 56.1069 13.493L125.594 29.0435C126.836 29.3241 127.787 30.088 128.266 31.2026C128.84 32.5355 128.694 34.2348 127.859 35.8716L88.8068 112.782C87.4346 115.487 84.5305 117.365 81.9532 117.365L81.9604 117.373ZM55.0324 13.6567C52.5494 13.6567 49.7469 15.4729 48.4183 18.0919L9.36569 95.0023C8.57432 96.5612 8.42912 98.1669 8.97363 99.4219C9.41651 100.459 10.3023 101.168 11.4639 101.425L80.9513 116.976C83.6448 117.576 87.0716 115.635 88.589 112.65L127.642 35.7391C128.433 34.1802 128.578 32.5745 128.034 31.3195C127.591 30.2828 126.705 29.5735 125.543 29.3163L56.056 13.7659C55.7221 13.6879 55.3808 13.6567 55.0324 13.6567Z" fill="white"/>
    <path d="M78.2068 120.093C77.6623 120.093 77.1323 120.016 76.6314 119.844L8.66862 97.177C7.47069 96.7795 6.59221 95.9143 6.1929 94.7451C5.70646 93.3109 5.98961 91.5649 6.95522 89.9436L52.1137 14.7246C53.9287 11.7003 57.6314 9.98546 60.3685 10.8974L128.331 33.5722C129.529 33.9698 130.408 34.835 130.807 36.0042C131.293 37.4384 131.01 39.1844 130.045 40.8057L84.9007 116.025C83.4197 118.496 80.668 120.093 78.2214 120.093H78.2068ZM58.7858 10.9364C56.4262 10.9364 53.7763 12.4876 52.3387 14.8805L7.18754 90.0994C6.2655 91.6428 5.98961 93.2953 6.447 94.6438C6.81001 95.7272 7.63042 96.5301 8.74849 96.9042L76.7112 119.579C79.3467 120.46 82.9114 118.792 84.6684 115.869L129.812 40.6498C130.734 39.1065 131.01 37.454 130.553 36.1055C130.19 35.0221 129.369 34.2192 128.251 33.8451L60.2887 11.1703C59.8095 11.0144 59.3013 10.9364 58.7858 10.9364Z" fill="white"/>
    <path d="M74.2791 122.533C73.5386 122.533 72.8198 122.393 72.1737 122.105L6.31639 92.2586C5.16928 91.7364 4.3634 90.7776 4.05847 89.5616C3.67368 88.0339 4.09477 86.2567 5.19832 84.6743L56.2811 11.7783C58.3357 8.84744 62.1691 7.44439 64.8264 8.64478L130.691 38.4907C131.838 39.013 132.644 39.9717 132.949 41.1877C133.334 42.7154 132.913 44.4926 131.809 46.075L80.7262 118.971C79.1725 121.193 76.5951 122.533 74.2864 122.533H74.2791ZM62.7136 8.49668C60.492 8.49668 58.0018 9.7984 56.4989 11.9497L5.41613 84.8458C4.35614 86.358 3.95683 88.0495 4.31984 89.4837C4.60298 90.6139 5.35079 91.5025 6.41803 91.9858L72.2826 121.832C74.8309 122.985 78.5191 121.621 80.5011 118.792L131.584 45.8957C132.644 44.3835 133.043 42.6921 132.68 41.2578C132.397 40.1276 131.649 39.239 130.582 38.7557L64.7174 8.9098C64.1003 8.62919 63.4179 8.49668 62.7136 8.49668Z" fill="white"/>
    <path d="M70.1989 124.661C69.2478 124.661 68.3331 124.443 67.5562 123.991L4.37067 86.9816C3.27438 86.3424 2.55562 85.2901 2.34508 84.0196C2.07645 82.4139 2.63548 80.6133 3.87698 79.0855L60.6808 9.15142C62.9678 6.33753 66.9028 5.26186 69.4511 6.75845L132.637 43.7599C133.733 44.3991 134.452 45.4514 134.662 46.7219C134.931 48.3276 134.372 50.1282 133.13 51.656L76.3265 121.598C74.7438 123.547 72.3625 124.661 70.1989 124.661ZM66.7939 6.37651C64.7175 6.37651 62.416 7.45997 60.8841 9.34629L4.08026 79.2882C2.89685 80.7458 2.3596 82.4528 2.6137 83.9728C2.80973 85.1498 3.47767 86.1242 4.50136 86.7243L67.6869 123.726C70.1336 125.16 73.9161 124.116 76.116 121.395L132.92 51.4533C134.103 49.9957 134.64 48.2886 134.386 46.7687C134.19 45.5917 133.522 44.6173 132.499 44.0171L69.3132 7.01567C68.5726 6.57917 67.7014 6.37651 66.7939 6.37651Z" fill="white"/>
    <path d="M65.9879 126.454C64.8118 126.454 63.6937 126.134 62.7934 125.48L2.85321 81.3771C1.82226 80.6132 1.19063 79.4752 1.08172 78.1579C0.93652 76.4742 1.64076 74.6815 3.00568 73.2316L65.2692 6.8831C67.7739 4.20951 71.7816 3.4924 74.2065 5.26959L134.154 49.372C135.185 50.1359 135.817 51.2739 135.925 52.5913C136.071 54.2749 135.366 56.0677 134.002 57.5175L71.738 123.866C70.1625 125.542 67.9917 126.454 65.9952 126.454H65.9879ZM71.0047 4.59145C69.0808 4.59145 66.9898 5.47225 65.4579 7.10135L3.19444 73.4421C1.88761 74.8296 1.21967 76.5444 1.35761 78.1345C1.45925 79.3583 2.04733 80.4184 3.01294 81.1277L62.9604 125.23C65.2764 126.937 69.1243 126.228 71.542 123.656L133.805 57.3071C135.112 55.9196 135.78 54.2048 135.65 52.6146C135.548 51.3909 134.96 50.3308 133.994 49.6215L74.0467 5.51902C73.19 4.88765 72.1301 4.59145 71.0047 4.59145Z" fill="white"/>
    <path d="M61.6753 127.888C60.2596 127.888 58.931 127.452 57.9363 126.547L1.80047 75.4687C0.834862 74.5879 0.297607 73.3564 0.297607 72.0001C0.297607 70.2619 1.13253 68.4847 2.61361 67.1284L70.0246 4.99679C72.7399 2.49469 76.7911 2.13613 79.0635 4.20173L135.199 55.2726C136.165 56.1535 136.702 57.385 136.702 58.7413C136.702 60.4795 135.867 62.2567 134.386 63.613L66.968 125.745C65.4434 127.155 63.4904 127.88 61.6681 127.88L61.6753 127.888ZM75.3245 3.15724C73.5748 3.15724 71.6872 3.86656 70.2133 5.22284L2.79512 67.3544C1.37938 68.6562 0.573495 70.3476 0.580755 72.0001C0.580755 73.2706 1.08171 74.4165 1.98923 75.2427L58.1251 126.314C60.2959 128.286 64.1801 127.927 66.7938 125.519L134.212 63.3869C135.628 62.0852 136.434 60.3938 136.426 58.7413C136.426 57.4708 135.925 56.3249 135.018 55.4987L78.882 4.43557C77.9382 3.57816 76.6677 3.15724 75.3245 3.15724Z" fill="white"/>
    <path d="M57.2829 128.948C55.6204 128.948 54.0667 128.356 53.0067 127.179L1.23418 69.311C0.34118 68.3133 -0.0944325 66.9882 0.0144705 65.5929C0.152414 63.8157 1.1398 62.0775 2.71527 60.8303L74.918 3.51586C77.8293 1.20863 81.895 1.23201 83.9932 3.57042L135.773 61.4383C136.666 62.4361 137.102 63.7612 136.993 65.1564C136.855 66.9336 135.867 68.6718 134.292 69.919L62.0892 127.226C60.6444 128.371 58.9237 128.94 57.2902 128.94L57.2829 128.948ZM79.717 2.10502C78.1488 2.10502 76.4789 2.65844 75.085 3.76529L2.88951 61.072C1.37939 62.2724 0.442822 63.9248 0.304879 65.6163C0.203236 66.9258 0.602547 68.1652 1.44473 69.1005L53.2245 126.968C55.221 129.198 59.127 129.213 61.9222 126.992L134.125 69.6851C135.635 68.4847 136.572 66.8323 136.71 65.1408C136.811 63.8313 136.412 62.5919 135.57 61.6566L83.7827 3.78868C82.7808 2.66624 81.2997 2.10502 79.717 2.10502Z" fill="white"/>
    <path d="M52.8324 129.611C50.923 129.611 49.1297 128.839 48.048 127.342L1.16884 62.9192C0.355693 61.7968 0.0289843 60.3938 0.261311 58.9517C0.551719 57.1512 1.66979 55.4753 3.33238 54.3529L79.913 2.4635C82.9986 0.374519 87.057 0.787639 88.9519 3.39887L135.831 67.8221C136.644 68.9445 136.971 70.3476 136.739 71.7896C136.448 73.5902 135.33 75.2661 133.668 76.3885L57.0869 128.278C55.7656 129.174 54.2627 129.611 52.8324 129.611ZM84.1747 1.44239C82.7953 1.44239 81.3505 1.86331 80.0727 2.72852L3.48484 54.6179C1.89486 55.6936 0.827607 57.2915 0.544459 59.0063C0.326653 60.3548 0.624321 61.6721 1.3939 62.7244L48.273 127.148C50.0808 129.634 53.965 130.016 56.9272 128.013L133.508 76.1235C135.098 75.0478 136.165 73.4499 136.448 71.7351C136.666 70.3866 136.368 69.0693 135.599 68.017L88.7269 3.59373C87.6959 2.18289 85.997 1.44239 84.1747 1.44239Z" fill="white"/>
    <path d="M48.3529 129.868C46.1894 129.868 44.1638 128.87 43.0965 127.046L1.61899 56.3562C0.89297 55.1169 0.689684 53.6203 1.05269 52.1549C1.49557 50.3543 2.74432 48.7564 4.47225 47.7743L84.9734 1.87124C88.2187 0.016102 92.2336 0.842341 93.9107 3.703L135.381 74.3932C136.107 75.6326 136.31 77.1291 135.947 78.5945C135.504 80.3951 134.256 81.993 132.528 82.9752L52.0266 128.878C50.8504 129.549 49.5726 129.868 48.3456 129.868H48.3529ZM88.6543 1.1931C87.4709 1.1931 86.2439 1.50489 85.1113 2.15185L4.61019 48.0549C2.95487 48.998 1.76419 50.5258 1.33584 52.2406C0.994613 53.6203 1.18338 55.0233 1.86584 56.1926L43.3361 126.883C44.9334 129.611 48.7667 130.383 51.8814 128.605L132.382 82.7024C134.038 81.7592 135.229 80.2314 135.657 78.5166C135.998 77.1369 135.809 75.7339 135.127 74.5647L93.6566 3.87448C92.6401 2.14406 90.7162 1.2009 88.6543 1.2009V1.1931Z" fill="white"/>
    <path d="M43.8589 129.697C41.4339 129.697 39.1905 128.442 38.1814 126.259L2.60639 49.6605C1.97475 48.2964 1.90215 46.7219 2.40311 45.2409C3.0057 43.4637 4.37062 41.9671 6.14937 41.1331L90.0628 1.74641C93.4533 0.156289 97.3811 1.38785 98.8186 4.49015L134.394 81.0887C135.025 82.4528 135.098 84.0273 134.597 85.5083C133.994 87.2855 132.629 88.7821 130.851 89.6161L46.9299 128.995C45.928 129.47 44.8753 129.689 43.8516 129.689L43.8589 129.697ZM93.1484 1.37226C92.1682 1.37226 91.1518 1.59052 90.1862 2.04261L6.26553 41.4215C4.55939 42.2243 3.25981 43.6508 2.68625 45.3422C2.21434 46.7453 2.27968 48.2262 2.87502 49.5124L38.45 126.111C39.8222 129.065 43.5757 130.227 46.821 128.699L130.742 89.3199C132.448 88.5171 133.747 87.0907 134.321 85.3992C134.793 83.9961 134.728 82.5152 134.132 81.229L98.5572 4.63825C97.5989 2.56485 95.4571 1.38006 93.1484 1.38006V1.37226Z" fill="white"/>
    <path d="M39.3939 129.081C36.7148 129.081 34.2609 127.522 33.3534 124.973L4.1238 42.8713C3.5938 41.3825 3.65915 39.7378 4.31256 38.2412C5.06762 36.5108 6.53419 35.1311 8.34198 34.453L95.145 2.11276C98.6516 0.803245 102.47 2.44793 103.654 5.77627L132.876 87.8701C133.406 89.3589 133.341 91.0036 132.687 92.5002C131.94 94.2306 130.466 95.6103 128.658 96.2884L41.8623 128.636C41.0419 128.94 40.207 129.089 39.3939 129.089V129.081ZM97.6134 1.98804C96.8293 1.98804 96.0307 2.12834 95.2466 2.41675L8.44362 34.7648C6.70843 35.4117 5.30721 36.729 4.58845 38.3815C3.97133 39.8002 3.91325 41.3513 4.41421 42.7544L33.6365 124.848C34.7618 128.013 38.4065 129.564 41.7607 128.317L128.556 95.9688C130.292 95.3219 131.693 94.0045 132.412 92.3521C133.029 90.9334 133.087 89.3823 132.586 87.9792L103.371 5.89319C102.507 3.46903 100.169 1.98804 97.6207 1.98804H97.6134Z" fill="white"/>
    <path d="M34.9796 128.021C32.0464 128.021 29.3965 126.111 28.6487 123.188L6.19287 36.0587C5.77903 34.453 5.98958 32.7459 6.79546 31.2494C7.68847 29.5813 9.24941 28.3341 11.079 27.8275L100.176 2.97796C103.777 1.97245 107.451 4.03025 108.358 7.56125L130.807 94.6983C131.221 96.304 131.01 98.011 130.204 99.5076C129.311 101.176 127.75 102.423 125.921 102.929L36.8237 127.779C36.2065 127.95 35.5822 128.036 34.9723 128.036L34.9796 128.021ZM102.028 3.05591C101.447 3.05591 100.851 3.13386 100.256 3.29755L11.1588 28.1471C9.40914 28.6381 7.92079 29.8229 7.06409 31.413C6.30177 32.8317 6.09848 34.4452 6.49053 35.9652L28.9391 123.102C29.803 126.462 33.3097 128.41 36.7438 127.452L125.841 102.602C127.591 102.111 129.079 100.926 129.936 99.3361C130.698 97.9175 130.901 96.304 130.509 94.784L108.061 7.64699C107.342 4.87208 104.823 3.05591 102.028 3.05591Z" fill="white"/>
    <path d="M30.6526 126.509C27.4581 126.509 24.6484 124.193 24.0966 120.904L8.80665 29.254C8.51624 27.5313 8.88651 25.7697 9.85212 24.2965C10.8976 22.6908 12.4948 21.6229 14.3462 21.28L105.12 4.34986C108.794 3.66393 112.286 6.12706 112.903 9.84513L128.193 101.495C128.484 103.218 128.114 104.98 127.148 106.453C126.102 108.058 124.505 109.126 122.654 109.469L31.8796 126.392C31.4657 126.47 31.0519 126.509 30.6526 126.509ZM106.347 4.57591C105.963 4.57591 105.571 4.61488 105.171 4.68504L14.4043 21.6073C12.6328 21.9347 11.1081 22.9636 10.1135 24.4914C9.1987 25.8866 8.85021 27.5625 9.11884 29.1994L24.4088 120.85C24.9969 124.381 28.3293 126.719 31.8287 126.072L122.603 109.15C124.375 108.822 125.899 107.793 126.894 106.266C127.809 104.87 128.157 103.195 127.881 101.558L112.591 9.90749C112.068 6.77402 109.389 4.57591 106.347 4.57591Z" fill="white"/>
    <path d="M26.4489 124.536C24.8735 124.536 23.3561 123.967 22.1364 122.9C20.7569 121.691 19.9075 119.992 19.755 118.114L11.9648 22.5194C11.8124 20.6408 12.3714 18.8091 13.533 17.3671C14.6947 15.925 16.3282 15.0364 18.1287 14.865L109.927 6.24402C111.727 6.07254 113.477 6.64934 114.856 7.84973C116.236 9.05791 117.085 10.7572 117.238 12.6357L125.028 108.238C125.34 112.112 122.574 115.541 118.864 115.892L27.066 124.513C26.8555 124.529 26.6522 124.544 26.4489 124.544V124.536ZM110.551 6.55581C110.355 6.55581 110.159 6.5636 109.963 6.58699L18.165 15.2001C16.4516 15.3638 14.8907 16.2057 13.7799 17.5853C12.6691 18.9572 12.1391 20.7032 12.2843 22.4882L20.0745 118.09C20.2197 119.875 21.0256 121.489 22.3397 122.635C23.6537 123.78 25.3236 124.326 27.0443 124.17L118.842 115.549C122.385 115.214 125.021 111.948 124.716 108.261L116.926 12.6591C116.78 10.8741 115.974 9.26057 114.66 8.11475C113.499 7.10144 112.054 6.55581 110.551 6.55581Z" fill="white"/>
    <path d="M114.573 122.105H22.4267C18.6949 122.105 15.6602 118.846 15.6602 114.84V15.9094C15.6602 11.903 18.6949 8.64478 22.4267 8.64478H114.58C118.312 8.64478 121.347 11.903 121.347 15.9094V114.848C121.347 118.854 118.312 122.112 114.58 122.112L114.573 122.105ZM22.4267 8.98774C18.8764 8.98774 15.9869 12.09 15.9869 15.9016V114.84C15.9869 118.651 18.8764 121.754 22.4267 121.754H114.58C118.131 121.754 121.02 118.651 121.02 114.84V15.9094C121.02 12.0978 118.131 8.99554 114.58 8.99554H22.4267V8.98774Z" fill="white"/>
  </g>
  <defs>
    <clipPath id="clip0_391_32220">
      <rect width="137" height="128.987" fill="white" transform="translate(0 0.881226)"/>
    </clipPath>
  </defs>
</svg>