<svg xmlns="http://www.w3.org/2000/svg" width="28" height="28" viewBox="0 0 28 28" fill="none">
<path d="M28 0.875V7.40876C28 7.89097 27.6072 8.28376 27.125 8.28376C26.6428 8.28376 26.25 7.89097 26.25 7.40876V2.98586L15.3636 13.8691C15.0379 14.2235 14.4822 14.2491 14.1277 13.9234C13.7733 13.5976 13.7477 13.042 14.0734 12.6875C14.0894 12.6683 14.1086 12.6524 14.1277 12.6332L25.0109 1.75H20.3613C19.8791 1.75 19.4863 1.35721 19.4863 0.875C19.4863 0.392792 19.8791 0 20.3613 0H27.125C27.6072 0 28 0.392792 28 0.875ZM27.125 13.125C26.6428 13.125 26.25 13.5146 26.25 14V26.25H1.75V1.75H13.8276C14.3098 1.75 14.7026 1.35721 14.7026 0.875C14.7026 0.392792 14.3098 0 13.8276 0H0.875C0.392792 0 0 0.392792 0 0.875V27.125C0 27.6072 0.392792 28 0.875 28H27.125C27.6072 28 28 27.6072 28 27.125V14C28 13.5178 27.6072 13.125 27.125 13.125Z" fill="white"/>
</svg>