<svg xmlns="http://www.w3.org/2000/svg" width="471" height="460" viewBox="0 0 471 460" fill="none">
<path d="M235.301 437.869C206.528 437.869 178.614 432.367 152.337 421.514C126.958 411.032 104.164 396.027 84.5886 376.913C65.015 357.801 49.6458 335.544 38.9107 310.761C27.7966 285.104 22.1616 257.85 22.1616 229.754C22.1616 201.657 27.7966 174.403 38.9107 148.746C49.6458 123.964 65.0135 101.707 84.5886 82.5937C104.164 63.4801 126.956 48.4746 152.337 37.9925C178.614 27.1404 206.528 21.6382 235.301 21.6382C264.074 21.6382 291.988 27.1404 318.265 37.9925C343.646 48.4746 366.44 63.4801 386.013 82.5937C405.587 101.706 420.956 123.963 431.691 148.746C442.805 174.403 448.44 201.659 448.44 229.754C448.44 257.848 442.805 285.104 431.691 310.761C420.956 335.543 405.588 357.8 386.013 376.913C366.44 396.026 343.646 411.032 318.265 421.514C291.988 432.367 264.075 437.869 235.301 437.869ZM235.301 22.3126C118.157 22.3126 22.8523 115.369 22.8523 229.754C22.8523 344.138 118.157 437.194 235.301 437.194C352.445 437.194 447.75 344.136 447.75 229.754C447.75 115.371 352.445 22.3126 235.301 22.3126Z" fill="url(#paint0_linear_628_69)"/>
<path d="M235.3 407.728C210.694 407.728 186.823 403.022 164.352 393.742C142.648 384.779 123.155 371.946 106.416 355.601C89.6768 339.257 76.5342 320.224 67.3545 299.031C57.8492 277.089 53.0312 253.781 53.0312 229.755C53.0312 205.729 57.8506 182.421 67.3545 160.479C76.5342 139.286 89.6768 120.253 106.416 103.909C123.155 87.5641 142.648 74.7312 164.352 65.768C186.823 56.4867 210.694 51.7823 235.3 51.7823C259.907 51.7823 283.777 56.4881 306.249 65.768C327.953 74.7312 347.445 87.5641 364.185 103.909C380.924 120.253 394.067 139.286 403.246 160.479C412.75 182.421 417.57 205.729 417.57 229.755C417.57 253.781 412.75 277.089 403.246 299.031C394.067 320.224 380.924 339.257 364.185 355.601C347.445 371.946 327.953 384.779 306.249 393.742C283.777 403.022 259.907 407.728 235.3 407.728ZM235.3 52.3567C135.122 52.3567 53.6209 131.936 53.6209 229.754C53.6209 327.571 135.122 407.151 235.3 407.151C335.479 407.151 416.98 327.571 416.98 229.754C416.98 131.936 335.479 52.3567 235.3 52.3567Z" fill="url(#paint1_linear_628_69)"/>
<path d="M235.301 376.087C215.069 376.087 195.443 372.217 176.966 364.586C159.12 357.216 143.093 346.665 129.33 333.227C115.566 319.788 104.761 304.138 97.2128 286.713C89.3976 268.673 85.436 249.509 85.436 229.754C85.436 209.999 89.399 190.836 97.2128 172.794C104.761 155.369 115.566 139.719 129.33 126.281C143.093 112.842 159.12 102.29 176.966 94.9209C195.442 87.29 215.069 83.4218 235.301 83.4218C255.533 83.4218 275.158 87.2914 293.635 94.9209C311.481 102.291 327.508 112.842 341.271 126.281C355.035 139.719 365.841 155.369 373.388 172.794C381.203 190.834 385.165 209.999 385.165 229.754C385.165 249.509 381.202 268.672 373.388 286.713C365.84 304.138 355.035 319.788 341.271 333.227C327.508 346.665 311.481 357.216 293.635 364.586C275.159 372.217 255.533 376.087 235.301 376.087ZM235.301 84.0948C153.045 84.0948 86.1253 149.437 86.1253 229.754C86.1253 310.071 153.045 375.413 235.301 375.413C317.557 375.413 384.476 310.071 384.476 229.754C384.476 149.437 317.557 84.0948 235.301 84.0948Z" fill="url(#paint2_linear_628_69)"/>
<path d="M236.331 417.164H235.317C209.419 417.164 184.296 412.216 160.643 402.456C137.803 393.031 117.287 379.54 99.6663 362.356C82.0469 345.174 68.2051 325.159 58.5243 302.87C48.5009 279.791 43.4008 255.276 43.3657 230.007V229.16L63.098 229.134V229.981C63.2243 322.571 140.473 397.897 235.3 397.897H236.331V417.165V417.164ZM45.1051 230.85C45.2511 255.592 50.302 279.595 60.1218 302.207C69.7142 324.295 83.4324 344.128 100.893 361.156C118.356 378.184 138.684 391.555 161.32 400.893C184.538 410.473 209.188 415.375 234.596 415.467V399.588C139.426 399.22 61.9651 323.732 61.367 230.828L45.1051 230.849V230.85ZM407.501 230.526V229.678C407.459 137.007 330.21 61.6121 235.3 61.6121H234.125L234.087 42.3449H235.3C261.201 42.3449 286.331 47.2974 309.995 57.068C332.847 66.5028 353.368 80.0074 370.992 97.2074C388.614 114.407 402.453 134.439 412.125 156.748C422.14 179.849 427.225 204.383 427.236 229.67V230.517L407.504 230.526H407.501ZM235.858 59.9192C331.182 60.2153 408.728 135.792 409.233 228.831L425.495 228.824C425.372 204.065 420.336 180.041 410.524 157.409C400.938 135.302 387.224 115.451 369.761 98.4068C352.297 81.3617 331.96 67.9778 309.316 58.6293C286.028 49.0136 261.305 44.1063 235.824 44.0405L235.856 59.9192H235.858Z" fill="url(#paint3_linear_628_69)"/>
<path d="M235.396 459.508H234.663L234.716 442.65H235.396V459.508ZM324.757 442.318L318.181 426.733L318.811 426.48L325.426 442.05L324.757 442.32V442.318ZM145.344 442.117C145.117 442.025 144.891 441.933 144.665 441.841L151.32 426.289L151.949 426.544L145.343 442.118L145.344 442.117ZM401.191 392.694L389.023 380.737L389.503 380.269L401.71 392.188C401.538 392.356 401.364 392.525 401.191 392.694ZM69.0165 392.311C68.8439 392.143 68.6712 391.974 68.4985 391.804L80.7371 379.916L81.2172 380.384L69.0179 392.311H69.0165ZM452.469 318.346L436.545 311.834C436.632 311.631 436.718 311.428 436.805 311.225L452.755 317.676C452.66 317.899 452.564 318.123 452.469 318.346ZM17.9185 317.844C17.8244 317.625 17.7318 317.404 17.6391 317.185L33.6035 310.77C33.6891 310.973 33.7748 311.176 33.8618 311.379L17.9185 317.844ZM470.599 230.467L453.336 230.421V229.754V229.396L470.599 229.367V229.739V230.465V230.467ZM17.2629 229.94H0V229.769V229.234L17.2629 229.266V229.755V229.94ZM436.928 148.573L436.67 147.964L452.608 141.486C452.702 141.706 452.794 141.925 452.887 142.146L436.928 148.573ZM33.7242 148.45L17.7725 142.006L18.0533 141.347L33.9881 147.83L33.7242 148.45ZM389.734 79.4659C389.576 79.3096 389.416 79.1547 389.257 78.9985L401.445 67.0607C401.619 67.2293 401.792 67.3993 401.966 67.5692L389.736 79.4659H389.734ZM80.9687 79.3644L68.7498 67.4568C68.9225 67.2882 69.0951 67.1196 69.2692 66.951L81.4489 78.897L80.9687 79.3658V79.3644ZM319.117 33.1527L318.481 32.895L325.074 17.3166L325.749 17.5893L319.117 33.1527ZM151.622 33.0965L144.99 17.5331C145.216 17.4413 145.441 17.3508 145.667 17.259L152.244 32.8443C152.036 32.9279 151.829 33.0115 151.622 33.0965ZM235.702 16.8574H235.3H235.025L235.005 0H235.3H235.741L235.702 16.856V16.8574Z" fill="url(#paint4_linear_628_69)"/>
<path d="M238.828 451.896L238.802 450.21C239.372 450.201 239.943 450.19 240.512 450.178L240.551 451.863C239.977 451.875 239.403 451.886 238.828 451.894V451.896ZM230.198 451.868C229.622 451.856 229.046 451.841 228.472 451.824L228.523 450.14C229.094 450.156 229.664 450.17 230.237 450.182L230.199 451.868H230.198ZM249.176 451.516L249.072 449.834C249.643 449.801 250.212 449.765 250.782 449.727L250.898 451.409C250.324 451.447 249.75 451.483 249.175 451.516H249.176ZM219.851 451.419C219.277 451.382 218.702 451.342 218.129 451.299L218.258 449.619C218.827 449.66 219.397 449.7 219.966 449.737L219.851 451.419ZM259.497 450.681L259.316 449.005C259.884 448.946 260.452 448.885 261.019 448.822L261.214 450.497C260.642 450.56 260.07 450.622 259.497 450.681ZM209.536 450.514C208.963 450.451 208.392 450.386 207.821 450.319L208.027 448.646C208.594 448.713 209.161 448.777 209.728 448.839L209.535 450.514H209.536ZM269.769 449.39L269.51 447.723C270.076 447.639 270.639 447.553 271.203 447.465L271.476 449.129C270.907 449.219 270.339 449.305 269.769 449.39ZM199.273 449.153C198.704 449.065 198.135 448.975 197.568 448.881L197.853 447.219C198.416 447.31 198.979 447.4 199.544 447.487L199.273 449.151V449.153ZM279.97 447.642L279.633 445.989C280.194 445.879 280.754 445.768 281.312 445.656L281.662 447.306C281.099 447.42 280.535 447.533 279.97 447.642ZM189.084 447.336C188.519 447.223 187.956 447.108 187.393 446.99L187.756 445.342C188.313 445.459 188.873 445.574 189.432 445.686L189.084 447.336ZM290.079 445.441L289.665 443.804C290.22 443.67 290.774 443.534 291.327 443.396L291.754 445.03C291.197 445.168 290.638 445.305 290.079 445.441ZM178.99 445.065C178.433 444.927 177.875 444.786 177.318 444.643L177.756 443.013C178.308 443.154 178.861 443.294 179.415 443.433L178.99 445.067V445.065ZM300.075 442.79L299.585 441.174C300.132 441.015 300.68 440.854 301.226 440.693L301.73 442.305C301.179 442.469 300.628 442.631 300.076 442.79H300.075ZM169.014 442.347C168.461 442.183 167.908 442.017 167.357 441.848L167.872 440.239C168.419 440.406 168.967 440.571 169.517 440.734L169.014 442.347ZM309.937 439.693L309.369 438.1C309.91 437.917 310.448 437.733 310.987 437.545L311.565 439.134C311.023 439.322 310.48 439.508 309.937 439.693ZM159.144 439.172C158.599 438.983 158.056 438.793 157.513 438.599L158.102 437.015C158.642 437.205 159.181 437.396 159.721 437.584L159.143 439.172H159.144ZM319.641 436.159L319.001 434.594C319.532 434.387 320.061 434.179 320.59 433.968L321.243 435.528C320.711 435.74 320.176 435.95 319.641 436.159ZM149.438 435.559C148.903 435.347 148.37 435.131 147.836 434.915L148.5 433.359C149.029 433.574 149.559 433.788 150.089 433.999L149.438 435.56V435.559ZM329.148 432.204L328.435 430.668C328.953 430.438 329.471 430.208 329.987 429.975L330.712 431.504C330.192 431.739 329.67 431.972 329.148 432.204ZM139.917 431.517C139.394 431.28 138.87 431.041 138.348 430.801L139.083 429.277C139.601 429.516 140.121 429.753 140.64 429.987L139.916 431.517H139.917ZM338.458 427.829L337.675 426.327C338.182 426.075 338.688 425.82 339.194 425.564L339.99 427.059C339.482 427.317 338.971 427.573 338.46 427.828L338.458 427.829ZM130.599 427.054C130.086 426.793 129.575 426.533 129.066 426.268L129.873 424.778C130.378 425.04 130.885 425.299 131.393 425.557L130.599 427.052V427.054ZM347.558 423.044L346.704 421.579C347.2 421.303 347.694 421.028 348.187 420.75L349.051 422.208C348.555 422.489 348.058 422.767 347.558 423.044ZM121.502 422.181C121.002 421.898 120.505 421.615 120.008 421.329L120.884 419.876C121.377 420.16 121.871 420.441 122.367 420.721L121.502 422.179V422.181ZM356.429 417.859L355.508 416.432C355.991 416.136 356.471 415.837 356.951 415.537L357.882 416.957C357.399 417.26 356.913 417.56 356.427 417.859H356.429ZM112.645 416.91C112.159 416.606 111.676 416.3 111.193 415.993L112.137 414.581C112.616 414.886 113.096 415.19 113.579 415.491L112.646 416.91H112.645ZM365.052 412.283L364.067 410.898C364.534 410.58 365.002 410.261 365.468 409.94L366.465 411.316C365.996 411.64 365.525 411.962 365.054 412.283H365.052ZM104.047 411.253C103.576 410.928 103.107 410.602 102.639 410.273L103.646 408.905C104.111 409.231 104.576 409.555 105.043 409.878L104.047 411.255V411.253ZM373.411 406.328L372.362 404.989C372.816 404.65 373.268 404.31 373.717 403.969L374.777 405.3C374.323 405.644 373.867 405.987 373.411 406.328ZM95.7218 405.222C95.267 404.876 94.8136 404.53 94.3615 404.181L95.4312 402.859C95.8791 403.204 96.3297 403.55 96.7803 403.892L95.7204 405.223L95.7218 405.222ZM381.487 400.008L380.378 398.716C380.815 398.359 381.251 397.998 381.685 397.638L382.805 398.921C382.367 399.285 381.929 399.647 381.488 400.008H381.487ZM87.6891 398.83C87.2511 398.466 86.8145 398.098 86.3793 397.731L87.5094 396.457C87.9418 396.823 88.3742 397.187 88.8094 397.548L87.6891 398.832V398.83ZM389.263 393.336L388.095 392.096C388.515 391.719 388.934 391.34 389.351 390.959L390.529 392.192C390.108 392.575 389.687 392.957 389.263 393.338V393.336ZM79.9624 392.092C79.5427 391.708 79.1229 391.323 78.706 390.936L79.8936 389.713C80.3078 390.097 80.7233 390.48 81.1417 390.861L79.9624 392.092ZM396.726 386.325L395.5 385.138C395.903 384.742 396.303 384.346 396.703 383.947L397.937 385.125C397.534 385.527 397.131 385.927 396.726 386.326V386.325ZM72.5572 385.02C72.1557 384.618 71.7542 384.215 71.3556 383.811L72.5993 382.642C72.9952 383.043 73.3925 383.444 73.7912 383.842L72.5572 385.021V385.02ZM403.857 378.991L402.578 377.858C402.961 377.445 403.345 377.03 403.725 376.615L405.012 377.739C404.629 378.158 404.243 378.575 403.857 378.991ZM65.4903 377.63C65.1071 377.211 64.7267 376.791 64.3462 376.369L65.6434 375.256C66.0196 375.674 66.3986 376.092 66.7791 376.508L65.4917 377.63H65.4903ZM410.645 371.347L409.315 370.272C409.68 369.843 410.042 369.411 410.403 368.98L411.741 370.045C411.377 370.48 411.011 370.915 410.645 371.348V371.347ZM58.7744 369.939C58.4108 369.503 58.05 369.067 57.6907 368.629L59.0369 367.575C59.3935 368.009 59.7529 368.442 60.1123 368.874L58.7744 369.939ZM417.071 363.407L415.693 362.393C416.037 361.948 416.379 361.501 416.72 361.053L418.106 362.057C417.762 362.508 417.418 362.959 417.071 363.409V363.407ZM52.4221 361.961C52.0796 361.51 51.7384 361.059 51.4001 360.606L52.7955 359.612C53.131 360.061 53.4693 360.51 53.8091 360.957L52.4221 361.96V361.961ZM423.123 355.19L421.7 354.237C422.023 353.777 422.344 353.315 422.664 352.851L424.096 353.794C423.775 354.261 423.45 354.727 423.125 355.19H423.123ZM46.4502 353.712C46.1301 353.248 45.81 352.781 45.4928 352.314L46.9317 351.382C47.2462 351.845 47.5634 352.309 47.8821 352.771L46.4502 353.712ZM428.789 346.711L427.322 345.821C427.624 345.347 427.923 344.871 428.222 344.394L429.696 345.271C429.396 345.752 429.094 346.232 428.789 346.711ZM40.8686 345.211C40.5695 344.733 40.2733 344.253 39.9785 343.772L41.4596 342.905C41.753 343.382 42.0478 343.859 42.344 344.334L40.87 345.211H40.8686ZM434.055 337.984L432.547 337.162C432.826 336.674 433.103 336.186 433.38 335.695L434.893 336.507C434.615 337 434.336 337.494 434.055 337.984ZM35.6898 336.474C35.4147 335.983 35.1395 335.491 34.8672 334.998L36.3875 334.198C36.6571 334.688 36.9294 335.176 37.2032 335.664L35.6898 336.475V336.474ZM438.908 329.029L437.364 328.275C437.619 327.775 437.875 327.275 438.126 326.773L439.676 327.516C439.422 328.022 439.165 328.526 438.906 329.031L438.908 329.029ZM30.9266 327.519C30.6739 327.016 30.4227 326.513 30.1742 326.008L31.7296 325.278C31.9767 325.778 32.2252 326.278 32.4765 326.776L30.9266 327.519ZM443.338 319.863L441.76 319.179C441.993 318.668 442.224 318.155 442.453 317.643L444.036 318.316C443.806 318.832 443.573 319.348 443.338 319.863ZM26.5874 318.366C26.3586 317.854 26.1326 317.34 25.9065 316.824L27.4943 316.164C27.7175 316.675 27.9421 317.185 28.1695 317.693L26.5874 318.366ZM447.336 310.505L445.728 309.892C445.935 309.372 446.142 308.849 446.347 308.326L447.96 308.927C447.753 309.454 447.546 309.98 447.336 310.507V310.505ZM22.6833 309.033C22.4784 308.508 22.2748 307.983 22.0727 307.455L23.6899 306.866C23.8892 307.388 24.0914 307.91 24.2949 308.431L22.6819 309.033H22.6833ZM450.89 300.974L449.254 300.434C449.438 299.904 449.619 299.373 449.799 298.84L451.438 299.368C451.257 299.904 451.075 300.44 450.89 300.974ZM19.2089 299.505C19.0278 298.972 18.8495 298.437 18.674 297.901L20.3179 297.384C20.4934 297.916 20.6702 298.445 20.8485 298.975L19.2089 299.504V299.505ZM453.984 291.315L452.324 290.849C452.482 290.313 452.639 289.777 452.792 289.24L454.454 289.693C454.299 290.235 454.142 290.776 453.982 291.315H453.984ZM16.185 289.832C16.0292 289.29 15.8762 288.749 15.726 288.206L17.3923 287.763C17.5425 288.302 17.6941 288.839 17.8485 289.377L16.1864 289.832H16.185ZM456.62 281.535L454.941 281.143C455.073 280.6 455.204 280.057 455.333 279.514L457.014 279.892C456.885 280.441 456.753 280.988 456.62 281.533V281.535ZM13.6202 280.034C13.4911 279.487 13.3633 278.938 13.237 278.389L14.9216 278.021C15.0465 278.566 15.1728 279.11 15.302 279.653L13.6202 280.032V280.034ZM458.793 271.646L457.097 271.329C457.204 270.782 457.309 270.234 457.412 269.685L459.11 269.987C459.007 270.541 458.901 271.094 458.793 271.645V271.646ZM11.5173 270.13C11.4134 269.578 11.3123 269.025 11.2112 268.471L12.9113 268.179C13.0095 268.729 13.1106 269.277 13.2145 269.826L11.5159 270.13H11.5173ZM460.502 261.671L458.793 261.431C458.875 260.879 458.953 260.328 459.03 259.774L460.74 260.002C460.663 260.56 460.583 261.116 460.5 261.671H460.502ZM9.8804 260.144C9.80319 259.588 9.72739 259.031 9.65298 258.473L11.3657 258.257C11.4387 258.81 11.5145 259.363 11.5917 259.915L9.88181 260.144H9.8804ZM461.743 251.631L460.024 251.466C460.08 250.911 460.134 250.356 460.184 249.801L461.904 249.951C461.852 250.511 461.799 251.071 461.743 251.629V251.631ZM8.70961 250.097C8.65767 249.537 8.60853 248.978 8.5594 248.418L10.2791 248.278C10.3268 248.834 10.376 249.389 10.4279 249.945L8.70821 250.097H8.70961ZM462.517 241.547L460.794 241.458C460.823 240.902 460.851 240.345 460.876 239.787L462.602 239.863C462.576 240.425 462.548 240.985 462.517 241.547ZM8.00629 240.007C7.97962 239.446 7.95575 238.884 7.9347 238.322L9.66 238.258C9.68106 238.815 9.70493 239.373 9.7316 239.93L8.00629 240.007ZM462.826 231.44L461.1 231.427C461.104 230.869 461.107 230.311 461.107 229.754V229.473L462.833 229.468V229.752C462.833 230.314 462.831 230.876 462.826 231.438V231.44ZM9.49575 229.896H7.76904V229.755C7.76904 229.239 7.77045 228.725 7.77466 228.211L9.50137 228.222C9.49716 228.732 9.49575 229.244 9.49575 229.755V229.896ZM460.935 221.11C460.913 220.552 460.889 219.994 460.862 219.437L462.586 219.361C462.613 219.921 462.637 220.483 462.659 221.045L460.934 221.111L460.935 221.11ZM9.71896 219.861L7.99366 219.787C8.01892 219.225 8.047 218.664 8.07648 218.102L9.80039 218.189C9.77091 218.745 9.74423 219.303 9.71896 219.86V219.861ZM460.309 211.091C460.262 210.534 460.211 209.979 460.159 209.424L461.879 209.271C461.931 209.83 461.981 210.389 462.029 210.95L460.309 211.091ZM10.4026 209.846L8.68294 209.695C8.73488 209.136 8.78822 208.576 8.84297 208.018L10.5613 208.181C10.5065 208.736 10.4532 209.291 10.4026 209.848V209.846ZM459.219 201.112C459.146 200.558 459.07 200.006 458.991 199.453L460.701 199.224C460.78 199.781 460.855 200.337 460.93 200.895L459.217 201.112H459.219ZM11.551 199.873L9.83969 199.647C9.9169 199.089 9.99692 198.532 10.0783 197.977L11.7868 198.217C11.7054 198.768 11.6268 199.32 11.5496 199.874L11.551 199.873ZM457.664 191.192C457.565 190.642 457.464 190.094 457.36 189.546L459.057 189.24C459.161 189.792 459.263 190.345 459.363 190.899L457.663 191.192H457.664ZM13.1626 189.961L11.4639 189.659C11.5678 189.106 11.6731 188.553 11.7798 188.002L13.4756 188.317C13.3689 188.864 13.265 189.413 13.1626 189.962V189.961ZM455.647 181.35C455.522 180.806 455.396 180.262 455.267 179.719L456.949 179.338C457.079 179.885 457.207 180.433 457.332 180.981L455.647 181.35ZM15.2374 180.131L13.5556 179.753C13.6848 179.205 13.8153 178.658 13.9487 178.111L15.6277 178.502C15.4957 179.044 15.3652 179.587 15.2374 180.13V180.131ZM453.172 171.609C453.022 171.071 452.87 170.533 452.715 169.997L454.377 169.541C454.533 170.082 454.686 170.624 454.837 171.167L453.172 171.609ZM17.7699 170.405L16.1064 169.952C16.2608 169.411 16.418 168.869 16.5767 168.329L18.236 168.794C18.0788 169.33 17.923 169.866 17.7699 170.405ZM450.241 161.99C450.066 161.458 449.889 160.929 449.709 160.4L451.347 159.87C451.528 160.404 451.707 160.938 451.883 161.473L450.241 161.991V161.99ZM20.7573 160.801L19.1176 160.275C19.2987 159.739 19.4812 159.203 19.6651 158.668L21.3006 159.207C21.1167 159.738 20.9356 160.269 20.7573 160.801ZM446.862 152.511C446.661 151.989 446.459 151.466 446.256 150.946L447.867 150.342C448.074 150.867 448.277 151.392 448.478 151.919L446.861 152.51L446.862 152.511ZM24.2023 151.313L22.5893 150.713C22.7956 150.185 23.002 149.658 23.2126 149.133L24.8214 149.745C24.6136 150.266 24.4072 150.789 24.2037 151.312L24.2023 151.313ZM443.051 143.216C442.827 142.705 442.601 142.195 442.374 141.686L443.956 141.012C444.185 141.524 444.412 142.039 444.637 142.553L443.049 143.215L443.051 143.216ZM28.0909 141.993L26.5074 141.322C26.7376 140.805 26.9692 140.288 27.2037 139.773L28.7816 140.457C28.5499 140.968 28.3197 141.481 28.0909 141.993ZM438.81 134.105C438.563 133.604 438.313 133.104 438.063 132.606L439.613 131.864C439.865 132.367 440.117 132.87 440.365 133.374L438.81 134.106V134.105ZM32.4105 132.863L30.8607 132.121C31.1147 131.615 31.3702 131.11 31.6285 130.607L33.1728 131.359C32.9173 131.859 32.6632 132.361 32.4105 132.863ZM434.146 125.187C433.875 124.697 433.603 124.209 433.329 123.721L434.842 122.91C435.119 123.401 435.393 123.893 435.665 124.386L434.146 125.187ZM37.1526 123.937L35.6393 123.126C35.9173 122.633 36.1952 122.139 36.4774 121.647L37.9851 122.468C37.7057 122.956 37.4292 123.446 37.154 123.935L37.1526 123.937ZM429.07 116.482C428.776 116.005 428.482 115.53 428.185 115.054L429.659 114.175C429.958 114.654 430.256 115.134 430.551 115.613L429.07 116.481V116.482ZM42.3047 115.234L40.8307 114.356C41.1311 113.875 41.4329 113.396 41.7361 112.917L43.2031 113.805C42.9013 114.28 42.6023 114.757 42.3047 115.234ZM423.591 108.009C423.275 107.545 422.959 107.082 422.64 106.621L424.071 105.678C424.392 106.143 424.711 106.609 425.028 107.076L423.589 108.009H423.591ZM47.8568 106.772L46.4249 105.83C46.7464 105.363 47.0707 104.898 47.3964 104.434L48.8213 105.385C48.4984 105.846 48.1769 106.307 47.8582 106.771L47.8568 106.772ZM417.721 99.7827C417.384 99.3331 417.046 98.8849 416.706 98.438L418.092 97.4333C418.434 97.8843 418.776 98.3352 419.114 98.7889L417.72 99.7827H417.721ZM53.795 98.5683L52.4081 97.5649C52.7506 97.1125 53.0959 96.6629 53.4427 96.2133L54.8212 97.2277C54.4773 97.6732 54.1348 98.12 53.795 98.5696V98.5683ZM411.476 91.8242C411.118 91.3897 410.76 90.9565 410.399 90.5247L411.737 89.4597C412.1 89.8942 412.461 90.3315 412.822 90.7687L411.476 91.8242ZM60.1081 90.6385L58.7688 89.5748C59.1324 89.1389 59.4974 88.7044 59.8652 88.2713L61.196 89.3459C60.8324 89.7763 60.4688 90.2067 60.1081 90.6399V90.6385ZM404.864 84.1453C404.486 83.7273 404.108 83.3106 403.728 82.8938L405.015 81.7712C405.398 82.1893 405.78 82.6101 406.159 83.0309L404.864 84.1453ZM66.7791 82.998L65.4903 81.8754C65.8736 81.4559 66.2582 81.0379 66.6443 80.6212L67.9232 81.7534C67.5399 82.1674 67.1581 82.5813 66.7777 82.998H66.7791ZM397.902 76.7653C397.506 76.3636 397.109 75.9634 396.709 75.5659L397.943 74.387C398.346 74.7887 398.746 75.1917 399.146 75.596L397.902 76.7653ZM73.7968 75.6618L72.5629 74.483C72.9643 74.0814 73.3687 73.6811 73.7744 73.2822L74.9999 74.4693C74.597 74.8654 74.1969 75.2629 73.7982 75.6618H73.7968ZM390.603 69.6991C390.189 69.3153 389.772 68.9329 389.355 68.5532L390.533 67.3209C390.954 67.7047 391.373 68.0899 391.791 68.475L390.603 69.6991ZM81.1445 68.645L79.9652 67.4141C80.385 67.0303 80.8075 66.6492 81.2301 66.2682L82.3995 67.5087C81.9797 67.8856 81.5614 68.2653 81.1445 68.6464V68.645ZM382.983 62.9592C382.551 62.5946 382.117 62.2313 381.684 61.8694L382.804 60.5864C383.242 60.951 383.678 61.317 384.114 61.6858L382.983 62.9606V62.9592ZM88.808 61.9613L87.6877 60.6796C88.1257 60.315 88.5637 59.9518 89.0045 59.5913L90.1149 60.8811C89.6783 61.2403 89.2432 61.5994 88.808 61.9613ZM375.056 56.5633C374.608 56.2179 374.158 55.8738 373.706 55.5311L374.764 54.2002C375.219 54.5456 375.672 54.8924 376.124 55.2405L375.055 56.5633H375.056ZM96.7705 55.6257L95.7106 54.2947C96.164 53.9507 96.6189 53.6066 97.0751 53.2653L98.1252 54.6032C97.6718 54.9417 97.2211 55.2817 96.7705 55.6244V55.6257ZM366.838 50.5211C366.373 50.1949 365.907 49.8714 365.441 49.5492L366.438 48.173C366.908 48.4979 367.379 48.8241 367.846 49.1517L366.839 50.5211H366.838ZM105.017 49.6493L104.02 48.2731C104.489 47.9496 104.959 47.6261 105.431 47.3067L106.418 48.6898C105.95 49.0078 105.483 49.3272 105.018 49.6493H105.017ZM358.345 44.849C357.866 44.5447 357.385 44.2417 356.903 43.9402L357.834 42.5201C358.32 42.8244 358.804 43.1287 359.287 43.4357L358.345 44.8476V44.849ZM113.529 44.0471L112.597 42.6284C113.08 42.3254 113.565 42.0252 114.05 41.7251L114.971 43.1506C114.49 43.4481 114.008 43.7469 113.529 44.0471ZM349.593 39.5593C349.101 39.2755 348.605 38.9945 348.111 38.7149L348.974 37.2551C349.474 37.5374 349.972 37.8198 350.469 38.1063L349.593 39.5593ZM122.289 38.8287L121.425 37.3702C121.922 37.0892 122.418 36.8109 122.918 36.5327L123.772 37.998C123.276 38.2735 122.782 38.5504 122.289 38.8287ZM340.602 34.663C340.095 34.4026 339.588 34.1421 339.08 33.8858L339.875 32.3889C340.387 32.648 340.898 32.9098 341.408 33.173L340.602 34.663ZM131.281 34.0064L130.485 32.5109C130.993 32.2532 131.504 31.9955 132.015 31.742L132.8 33.2429C132.293 33.4951 131.786 33.7501 131.282 34.0064H131.281ZM331.387 30.1711C330.869 29.9326 330.35 29.6968 329.83 29.4624L330.553 27.9313C331.077 28.1671 331.6 28.4056 332.123 28.6455L331.387 30.1711ZM140.484 29.5926L139.759 28.0629C140.278 27.8271 140.8 27.5941 141.322 27.3624L142.037 28.8977C141.519 29.128 141.002 29.3596 140.486 29.5926H140.484ZM321.969 26.0945C321.44 25.8793 320.909 25.6668 320.378 25.4557L321.03 23.8945C321.564 24.1069 322.098 24.3221 322.631 24.5387L321.969 26.0945ZM149.879 25.5928L149.226 24.0329C149.758 23.8205 150.292 23.6094 150.826 23.401L151.468 24.9664C150.937 25.1734 150.408 25.3831 149.879 25.5942V25.5928ZM312.364 22.4442C311.825 22.2537 311.284 22.0645 310.744 21.8767L311.321 20.2881C311.865 20.4772 312.409 20.6677 312.952 20.8597L312.364 22.4442ZM159.48 22.0083L158.9 20.421C159.442 20.2319 159.985 20.0454 160.528 19.8604L161.095 21.4532C160.556 21.6369 160.017 21.8219 159.48 22.0083ZM302.593 19.2271C302.046 19.0599 301.497 18.8954 300.948 18.7336L301.449 17.1203C302.002 17.2848 302.555 17.4506 303.107 17.6179L302.593 19.2271ZM169.238 18.857L168.734 17.245C169.284 17.0805 169.834 16.9188 170.387 16.7584L170.879 18.3745C170.331 18.5335 169.784 18.6939 169.238 18.857ZM292.705 16.4582C292.153 16.317 291.6 16.1772 291.045 16.0401L291.471 14.4062C292.029 14.5447 292.587 14.6845 293.143 14.827L292.705 16.4568V16.4582ZM179.135 16.1457L178.706 14.5131C179.264 14.3733 179.823 14.2362 180.381 14.1005L180.797 15.7372C180.242 15.8715 179.688 16.0072 179.135 16.1457ZM282.705 14.1375C282.146 14.021 281.588 13.9073 281.027 13.7949L281.376 12.1431C281.94 12.2569 282.503 12.372 283.066 12.4885L282.705 14.1375ZM189.148 13.8798L188.797 12.2295C189.36 12.1157 189.924 12.0033 190.49 11.8923L190.829 13.5454C190.268 13.655 189.708 13.7661 189.15 13.8798H189.148ZM272.607 12.2651C272.044 12.1733 271.48 12.0842 270.916 11.9965L271.187 10.331C271.755 10.4187 272.324 10.5092 272.891 10.601L272.607 12.2637V12.2651ZM199.256 12.065L198.982 10.4009C199.551 10.3118 200.119 10.2255 200.688 10.1405L200.947 11.8073C200.383 11.8909 199.819 11.9773 199.254 12.0664L199.256 12.065ZM262.431 10.8464C261.864 10.7806 261.297 10.7162 260.728 10.6545L260.92 8.97945C261.493 9.04251 262.065 9.10693 262.636 9.1741L262.431 10.8478V10.8464ZM209.439 10.7011L209.244 9.02606C209.815 8.963 210.388 8.90132 210.961 8.84101L211.143 10.5174C210.575 10.5764 210.008 10.638 209.441 10.7011H209.439ZM252.201 9.87866C251.633 9.83754 251.063 9.79916 250.491 9.76215L250.605 8.08025C251.179 8.11726 251.753 8.15701 252.328 8.19813L252.2 9.87866H252.201ZM219.676 9.79093L219.558 8.10903C220.132 8.07065 220.706 8.03501 221.28 8.00075L221.384 9.68264C220.814 9.71691 220.244 9.75255 219.674 9.79093H219.676ZM241.936 9.36463C241.366 9.34818 240.795 9.33448 240.224 9.32214L240.26 7.6375C240.836 7.64984 241.411 7.66354 241.986 7.67999L241.936 9.36463ZM229.945 9.33173L229.904 7.64709C230.478 7.63476 231.053 7.62242 231.628 7.6142L231.655 9.30021C231.085 9.30843 230.513 9.3194 229.945 9.3331V9.33173Z" fill="url(#paint5_linear_628_69)"/>
<g clip-path="url(#clip0_628_69)">
<path d="M190.631 276.092H187.485V279.235H190.631V276.092Z" fill="#8B5EAD"/>
<path d="M215.796 276.092H212.65V279.235H215.796V276.092Z" fill="#8B5EAD"/>
<path d="M207.407 276.092H204.262V279.235H207.407V276.092Z" fill="#8B5EAD"/>
<path d="M199.019 276.092H195.873V279.235H199.019V276.092Z" fill="#8B5EAD"/>
<path d="M306.602 225.602C306.393 222.041 303.457 219.108 299.892 219.108V211.147C299.892 204.233 294.439 198.577 287.518 198.158L276.194 167.57L269.902 169.875L262.982 157.724L255.432 161.914L247.673 152.905L191.679 198.158H184.129C176.999 198.158 171.127 204.024 171.127 211.147V277.768C171.127 284.891 176.999 290.757 184.129 290.757H286.68C293.81 290.757 299.682 284.891 299.682 277.768V258.704C303.457 258.285 306.602 254.933 306.602 250.952V225.602ZM303.457 226.231C303.457 228.326 301.779 230.002 299.682 230.211V222.46C301.779 222.46 303.457 224.136 303.457 226.231ZM227.75 198.158L261.304 186.007C262.982 188.94 266.337 191.035 269.693 191.035C270.322 191.035 270.951 191.035 271.58 190.825L274.306 198.367H227.75V198.158ZM283.953 198.158H277.662L273.468 186.845L272 187.264C271.37 187.473 270.532 187.683 269.693 187.683C266.966 187.683 264.45 186.007 263.611 183.283L262.982 181.816L218.522 197.948H201.536L274.306 171.551L283.953 198.158ZM266.966 170.922L209.295 191.873L261.724 161.914L266.966 170.922ZM252.706 163.59L207.827 189.149L247.253 157.305L252.706 163.59ZM296.536 277.768C296.536 283.215 292.132 287.615 286.68 287.615H184.129C178.677 287.615 174.273 283.215 174.273 277.768V211.147C174.273 205.7 178.677 201.3 184.129 201.3H191.469L191.679 201.719H288.567V201.51C293.181 202.348 296.746 206.328 296.746 211.147V230.211H275.984C268.854 230.211 262.772 236.077 262.772 243.41V245.924C262.772 253.047 268.644 259.123 275.984 259.123H296.536V277.768ZM298.843 255.561H275.774C270.322 255.561 265.708 251.162 265.708 245.505V242.991C265.708 237.544 270.112 232.935 275.774 232.935H299.682C300.94 232.935 302.408 232.516 303.457 231.678V250.533C303.457 253.466 301.36 255.561 298.843 255.561Z" fill="#8B5EAD"/>
<path d="M277.242 237.125C273.258 237.125 269.902 240.477 269.902 244.458C269.902 248.438 273.258 251.79 277.242 251.79C281.227 251.79 284.582 248.438 284.582 244.458C284.582 240.477 281.227 237.125 277.242 237.125ZM277.242 248.648C274.935 248.648 273.048 246.762 273.048 244.458C273.048 242.153 274.935 240.268 277.242 240.268C279.549 240.268 281.437 242.153 281.437 244.458C281.437 246.762 279.549 248.648 277.242 248.648Z" fill="#8B5EAD"/>
</g>
<defs>
<linearGradient id="paint0_linear_628_69" x1="235.301" y1="21.6382" x2="235.301" y2="437.869" gradientUnits="userSpaceOnUse">
<stop stop-color="#FACB7C"/>
<stop offset="1" stop-color="#D87CEE"/>
</linearGradient>
<linearGradient id="paint1_linear_628_69" x1="235.3" y1="51.7823" x2="235.3" y2="407.728" gradientUnits="userSpaceOnUse">
<stop stop-color="#FACB7C"/>
<stop offset="1" stop-color="#D87CEE"/>
</linearGradient>
<linearGradient id="paint2_linear_628_69" x1="235.301" y1="83.4218" x2="235.301" y2="376.087" gradientUnits="userSpaceOnUse">
<stop stop-color="#FACB7C"/>
<stop offset="1" stop-color="#D87CEE"/>
</linearGradient>
<linearGradient id="paint3_linear_628_69" x1="235.301" y1="42.3449" x2="235.301" y2="417.165" gradientUnits="userSpaceOnUse">
<stop stop-color="#FACB7C"/>
<stop offset="1" stop-color="#D87CEE"/>
</linearGradient>
<linearGradient id="paint4_linear_628_69" x1="235.3" y1="0" x2="235.3" y2="459.508" gradientUnits="userSpaceOnUse">
<stop stop-color="#FACB7C"/>
<stop offset="1" stop-color="#D87CEE"/>
</linearGradient>
<linearGradient id="paint5_linear_628_69" x1="235.301" y1="7.6142" x2="235.301" y2="451.896" gradientUnits="userSpaceOnUse">
<stop stop-color="#FACB7C"/>
<stop offset="1" stop-color="#D87CEE"/>
</linearGradient>
<clipPath id="clip0_628_69">
<rect width="135.476" height="137.852" fill="white" transform="translate(171.127 152.905)"/>
</clipPath>
</defs>
</svg>