<svg xmlns="http://www.w3.org/2000/svg" width="148" height="164" viewBox="0 0 148 164" fill="none">
  <path d="M67.0589 91.3345C66.9987 91.3345 66.9385 91.3044 66.9008 91.2593L59.7511 82.7548C59.7059 82.6946 59.6909 82.6193 59.7134 82.5516L63.5216 72.1129C63.5442 72.0452 63.6119 71.9925 63.6797 71.9775L74.6376 70.0433C74.7129 70.0282 74.7882 70.0583 74.8333 70.1185L81.9831 78.623C82.0282 78.6832 82.0433 78.7585 82.0207 78.8262L78.2125 89.2649C78.1899 89.3326 78.1222 89.3853 78.0545 89.4003L67.0965 91.3345C67.0965 91.3345 67.0739 91.3345 67.0589 91.3345ZM60.1499 82.5817L67.1417 90.9055L77.8588 89.0165L81.5842 78.8036L74.5925 70.4798L63.8754 72.3688L60.1499 82.5817Z" fill="white"/>
  <path d="M65.8622 91.6056C65.7945 91.6056 65.7267 91.5755 65.6891 91.5152L58.9006 81.8367C58.8554 81.7765 58.8479 81.6937 58.8855 81.626L63.8904 70.9164C63.9205 70.8487 63.9882 70.8035 64.0635 70.796L75.8568 69.7649C75.9321 69.7649 76.0074 69.795 76.045 69.8552L82.8335 79.5337C82.8787 79.5939 82.8862 79.6767 82.8486 79.7445L77.8437 90.4541C77.8136 90.5218 77.7459 90.567 77.6706 90.5745L65.8773 91.6056H65.8622ZM59.3145 81.7012L65.9601 91.1841L77.5126 90.1756L82.4121 79.6843L75.7665 70.2014L64.214 71.2099L59.3145 81.7012Z" fill="white"/>
  <path d="M77.1667 91.7861H64.5756C64.5004 91.7861 64.4326 91.7485 64.395 91.6807L58.0957 80.798C58.058 80.7303 58.058 80.655 58.0957 80.5873L64.395 69.7046C64.4326 69.6369 64.5004 69.5992 64.5756 69.5992H77.1667C77.242 69.5992 77.3097 69.6369 77.3474 69.7046L83.6467 80.5873C83.6843 80.655 83.6843 80.7303 83.6467 80.798L77.3474 91.6807C77.3097 91.7485 77.242 91.7861 77.1667 91.7861ZM64.696 91.3646H77.0463L83.2177 80.6851L77.0463 70.0056H64.696L58.5247 80.6851L64.696 91.3646Z" fill="white"/>
  <path d="M76.5339 93.0205H76.5188L63.1751 91.854C63.0999 91.854 63.0321 91.8013 63.002 91.7336L57.3349 79.6166C57.3048 79.5489 57.3123 79.4661 57.3499 79.4059L65.0341 68.4554C65.0792 68.3952 65.1545 68.3651 65.2222 68.3651L78.5659 69.5317C78.6412 69.5317 78.7089 69.5843 78.739 69.6521L84.4062 81.7691C84.4363 81.8368 84.4288 81.9196 84.3911 81.9798L76.707 92.9302C76.6694 92.9829 76.6016 93.0205 76.5339 93.0205ZM63.3256 91.4401L76.4285 92.584L83.9697 81.8293L78.4079 69.9305L65.305 68.7866L57.7639 79.5413L63.3256 91.4401Z" fill="white"/>
  <path d="M75.7438 94.2699C75.7438 94.2699 75.7212 94.2699 75.7062 94.2699L61.67 91.7939C61.5948 91.7788 61.5346 91.7261 61.512 91.6584L56.6351 78.2845C56.6125 78.2168 56.62 78.134 56.6727 78.0813L65.8319 67.1836C65.8771 67.1234 65.9524 67.1008 66.0276 67.1083L80.0637 69.5844C80.139 69.5995 80.1992 69.6521 80.2218 69.7199L85.0987 83.0937C85.1213 83.1614 85.1137 83.2442 85.0611 83.2969L75.9018 94.1947C75.8642 94.2398 75.804 94.2699 75.7438 94.2699ZM61.8657 91.4025L75.661 93.8334L84.6622 83.1238L79.8681 69.9833L66.0728 67.5524L57.0716 78.262L61.8657 91.4025Z" fill="white"/>
  <path d="M74.7957 95.519C74.7957 95.519 74.7581 95.519 74.7431 95.519L60.0973 91.5979C60.022 91.5754 59.9694 91.5227 59.9468 91.4474L56.0182 76.8243C55.9956 76.749 56.0182 76.6737 56.0709 76.6211L66.788 65.9265C66.8407 65.8738 66.9159 65.8513 66.9912 65.8738L81.6369 69.7949C81.7122 69.8175 81.7649 69.8702 81.7875 69.9454L85.7161 84.5686C85.7386 84.6439 85.7161 84.7191 85.6634 84.7718L74.9463 95.4664C74.9086 95.504 74.8559 95.5266 74.7957 95.5266V95.519ZM60.3231 91.2141L74.7355 95.075L85.2796 84.546L81.4111 70.1562L66.9987 66.2953L56.4547 76.8243L60.3231 91.2141Z" fill="white"/>
  <path d="M73.6744 96.7611C73.6744 96.7611 73.6292 96.7611 73.5991 96.746L58.4416 91.2294C58.3739 91.2068 58.3212 91.1391 58.3061 91.0713L55.4989 75.2139C55.4839 75.1386 55.514 75.0634 55.5742 75.0182L67.9245 64.6774C67.9847 64.6322 68.0599 64.6172 68.1277 64.6398L83.2852 70.1564C83.3529 70.179 83.4056 70.2467 83.4207 70.3144L86.2279 86.1719C86.2429 86.2471 86.2128 86.3224 86.1526 86.3675L73.8023 96.7084C73.7647 96.7385 73.7196 96.7611 73.6669 96.7611H73.6744ZM58.705 90.8757L73.6368 96.3095L85.7989 86.1192L83.0293 70.4951L68.0976 65.0612L55.9354 75.2515L58.705 90.8757Z" fill="white"/>
  <path d="M72.3722 97.9652C72.3722 97.9652 72.312 97.9652 72.2819 97.9426L56.733 90.6875C56.6653 90.6574 56.6201 90.5896 56.6126 90.5144L55.1074 73.4452C55.1074 73.37 55.1375 73.2947 55.1977 73.2571L69.2414 63.4431C69.3016 63.3979 69.3843 63.3904 69.4521 63.428L85.001 70.6832C85.0687 70.7133 85.1138 70.781 85.1214 70.8563L86.6266 87.9254C86.6266 88.0007 86.5965 88.0759 86.5363 88.1135L72.4926 97.9275C72.4926 97.9275 72.4174 97.9652 72.3722 97.9652ZM57.019 90.3638L72.3496 97.5136L86.1976 87.8351L84.715 71.0068L69.3844 63.857L55.5364 73.5355L57.019 90.3638Z" fill="white"/>
  <path d="M70.882 99.1242C70.882 99.1242 70.8068 99.1166 70.7767 99.0941L54.9719 89.9649C54.9042 89.9273 54.8666 89.8596 54.8666 89.7843L54.8515 71.5562C54.8515 71.4809 54.8891 71.4132 54.9569 71.3755L70.7541 62.2765C70.8218 62.2389 70.8971 62.2389 70.9648 62.2765L86.7696 71.4056C86.8373 71.4433 86.8749 71.511 86.8749 71.5863L86.89 89.8144C86.89 89.8897 86.8524 89.9574 86.7846 89.995L70.9874 99.0941C70.9874 99.0941 70.9197 99.1242 70.882 99.1242ZM55.2805 89.6714L70.882 98.6801L86.4685 89.7015L86.4535 71.7142L70.8519 62.7055L55.2654 71.6841L55.2805 89.6714Z" fill="white"/>
  <path d="M69.196 100.215C69.1509 100.215 69.1132 100.2 69.0756 100.178L53.1655 89.0392C53.1053 88.994 53.0676 88.9263 53.0752 88.851L54.7535 69.5316C54.7535 69.4563 54.8062 69.3886 54.8739 69.3585L72.4548 61.1776C72.5225 61.1475 72.6053 61.1551 72.6655 61.1927L88.5757 72.3313C88.6359 72.3764 88.6735 72.4442 88.666 72.5194L86.9877 91.8389C86.9877 91.9141 86.935 91.9819 86.8672 92.012L69.2863 100.193C69.2863 100.193 69.2261 100.215 69.196 100.215ZM53.5042 88.7682L69.2111 99.7638L86.5737 91.6808L88.2295 72.6022L72.5225 61.6066L55.1599 69.6896L53.5042 88.7682Z" fill="white"/>
  <path d="M67.2992 101.216C67.254 101.216 67.2014 101.201 67.1637 101.164L51.3364 87.8878C51.2762 87.8426 51.2536 87.7673 51.2611 87.6921L54.8285 67.3717C54.8435 67.2964 54.8962 67.2362 54.964 67.2136L74.3587 60.1692C74.4264 60.1466 74.5092 60.1542 74.5619 60.2069L90.3892 73.4829C90.4494 73.528 90.472 73.6033 90.4645 73.6785L86.8971 93.9989C86.882 94.0742 86.8294 94.1344 86.7616 94.157L67.3669 101.201C67.3669 101.201 67.3218 101.216 67.2992 101.216ZM51.7052 87.6469L67.3444 100.772L86.5057 93.8108L90.0279 73.7312L74.3888 60.6057L55.2274 67.5674L51.7052 87.6469Z" fill="white"/>
  <path d="M65.2073 102.104C65.1546 102.104 65.1019 102.082 65.0568 102.044L49.5154 86.5029C49.4628 86.4502 49.4402 86.3749 49.4628 86.2997L55.1299 65.0987C55.1525 65.0235 55.2052 64.9708 55.2804 64.9482L76.4814 59.2811C76.5566 59.2585 76.6319 59.2811 76.6846 59.3337L92.2259 74.8751C92.2786 74.9278 92.3012 75.003 92.2786 75.0783L86.6115 96.2792C86.5889 96.3545 86.5362 96.4072 86.4609 96.4298L65.26 102.097C65.26 102.097 65.2224 102.097 65.2073 102.097V102.104ZM49.8993 86.2921L65.2675 101.66L86.2352 96.061L91.8346 75.0933L76.4663 59.7251L55.4987 65.3245L49.8993 86.2921Z" fill="white"/>
  <path d="M62.8974 102.842C62.8372 102.842 62.777 102.812 62.7393 102.767L47.7098 84.8547C47.6646 84.7945 47.6496 84.7193 47.6721 84.6515L55.6423 62.7055C55.6648 62.6378 55.7326 62.5851 55.8003 62.57L78.8 58.5361C78.8752 58.521 78.9505 58.5511 78.9957 58.6113L94.0252 76.5234C94.0704 76.5836 94.0854 76.6588 94.0629 76.7266L86.0928 98.6726C86.0702 98.7403 86.0024 98.793 85.9347 98.8081L62.935 102.842C62.935 102.842 62.9124 102.842 62.8974 102.842ZM48.1087 84.6816L62.9802 102.406L85.739 98.4092L93.6264 76.689L78.7548 58.965L55.996 62.9614L48.1087 84.6816Z" fill="white"/>
  <path d="M60.391 103.414C60.3232 103.414 60.2555 103.384 60.2179 103.324L45.9484 82.9506C45.9033 82.8904 45.8958 82.8076 45.9334 82.7399L56.4097 60.2219C56.4398 60.1542 56.5075 60.109 56.5828 60.1015L81.3285 57.9565C81.4038 57.9565 81.4715 57.9866 81.5167 58.0469L95.7786 78.4199C95.8237 78.4801 95.8313 78.5629 95.7936 78.6307L85.3173 101.149C85.2872 101.216 85.2195 101.262 85.1442 101.269L60.3985 103.414H60.3835H60.391ZM46.3624 82.8152L60.4888 102.993L84.9937 100.87L95.3722 78.5705L81.2457 58.3931L56.7408 60.5154L46.3624 82.8152Z" fill="white"/>
  <path d="M84.0981 103.813L57.6741 103.79C57.5988 103.79 57.5311 103.753 57.4935 103.685L44.2626 80.768C44.225 80.7003 44.225 80.625 44.2626 80.5573L57.4558 57.663C57.4935 57.5952 57.5612 57.5576 57.6365 57.5576L84.0605 57.5802C84.1358 57.5802 84.2035 57.6178 84.2411 57.6856L97.472 80.6025C97.5096 80.6702 97.5096 80.7454 97.472 80.8132L84.2788 103.708C84.2411 103.775 84.1734 103.813 84.0981 103.813ZM57.7945 103.376L83.9777 103.399L97.0505 80.7153L83.9401 58.0092L57.7569 57.9866L44.6841 80.6702L57.7945 103.376Z" fill="white"/>
  <path d="M82.7661 106.409H82.7511L54.7466 103.941C54.6713 103.941 54.6036 103.888 54.5735 103.82L42.6747 78.3071C42.6446 78.2393 42.6522 78.1566 42.6898 78.0963L58.7956 55.059C58.8407 54.9988 58.916 54.9612 58.9837 54.9687L86.9883 57.4373C87.0635 57.4373 87.1312 57.49 87.1614 57.5577L99.0601 83.0711C99.0902 83.1388 99.0826 83.2216 99.045 83.2818L82.9392 106.319C82.9016 106.372 82.8339 106.409 82.7661 106.409ZM54.9046 103.527L82.6683 105.98L98.6386 83.1388L86.8453 57.8437L59.0816 55.3902L43.1112 78.2318L54.9046 103.527Z" fill="white"/>
  <path d="M81.1099 109.036C81.1099 109.036 81.0873 109.036 81.0723 109.036L51.6228 103.82C51.5475 103.805 51.4873 103.753 51.4647 103.685L41.2217 75.5449C41.1991 75.4771 41.2067 75.3943 41.2593 75.3417L60.4659 52.4172C60.511 52.357 60.5863 52.3344 60.6616 52.342L90.1111 57.5575C90.1864 57.5726 90.2466 57.6253 90.2691 57.693L100.512 85.833C100.535 85.9007 100.527 85.9835 100.474 86.0362L81.268 108.961C81.2303 109.006 81.1701 109.036 81.1099 109.036ZM51.8184 103.429L81.0271 108.599L100.076 85.8631L89.9154 57.9489L60.7067 52.7785L41.6582 75.5147L51.8184 103.429Z" fill="white"/>
  <path d="M79.1158 111.67C79.1158 111.67 79.0782 111.67 79.0631 111.67L48.3417 103.414C48.2665 103.391 48.2138 103.339 48.1912 103.263L39.9426 72.4892C39.92 72.4139 39.9426 72.3387 39.9953 72.286L62.4757 49.7755C62.5284 49.7228 62.6036 49.7003 62.6789 49.7228L93.4003 57.9789C93.4756 58.0015 93.5283 58.0542 93.5508 58.1295L101.799 88.9036C101.822 88.9788 101.799 89.0541 101.747 89.1068L79.2663 111.617C79.2287 111.655 79.176 111.677 79.1158 111.677V111.67ZM48.56 103.03L79.0481 111.226L101.355 88.881L93.1745 58.3477L62.6864 50.1518L40.3791 72.4967L48.56 103.03Z" fill="white"/>
  <path d="M76.7517 114.274C76.7517 114.274 76.7065 114.274 76.6764 114.259L44.8787 102.661C44.811 102.639 44.7583 102.571 44.7433 102.503L38.8579 69.1253C38.8428 69.05 38.8729 68.9747 38.9256 68.9296L64.8379 47.1566C64.8981 47.1115 64.9734 47.0964 65.0411 47.119L96.8387 58.7167C96.9065 58.7393 96.9592 58.807 96.9742 58.8747L102.86 92.2529C102.875 92.3281 102.845 92.4034 102.792 92.4485L76.8796 114.221C76.842 114.252 76.7968 114.274 76.7441 114.274H76.7517ZM45.1422 102.308L76.7065 113.823L102.431 92.2002L96.5904 59.0629L65.026 47.548L39.3019 69.1704L45.1422 102.308Z" fill="white"/>
  <path d="M74.0129 116.811C74.0129 116.811 73.9527 116.811 73.9226 116.788L41.3046 101.548C41.2368 101.518 41.1917 101.45 41.1841 101.375L38.0382 65.4601C38.0382 65.3849 38.0683 65.3096 38.1286 65.272L67.6082 44.5979C67.6684 44.5527 67.7512 44.5452 67.8189 44.5828L100.437 59.8231C100.505 59.8532 100.55 59.9209 100.557 59.9962L103.703 95.9106C103.703 95.9859 103.673 96.0611 103.613 96.0988L74.1333 116.773C74.1333 116.773 74.058 116.811 74.0129 116.811ZM41.5905 101.224L73.9903 116.366L103.267 95.8278L100.143 60.1543L67.7437 45.0118L38.4672 65.5504L41.5905 101.224Z" fill="white"/>
  <path d="M70.8671 119.249C70.8671 119.249 70.7918 119.241 70.7617 119.219L37.6019 100.042C37.5341 100.005 37.4965 99.9368 37.4965 99.8616V61.5087C37.4965 61.4334 37.5341 61.3657 37.6019 61.3281L70.7617 42.1516C70.8295 42.114 70.9047 42.114 70.9725 42.1516L104.125 61.3281C104.193 61.3657 104.23 61.4334 104.23 61.5087V99.8616C104.23 99.9368 104.193 100.005 104.125 100.042L70.9725 119.219C70.9725 119.219 70.9047 119.249 70.8671 119.249ZM37.9255 99.7411L70.8746 118.797L103.824 99.7411V61.6291L70.8746 42.5731L37.9255 61.6291V99.7411Z" fill="white"/>
  <path d="M67.3151 121.544C67.2699 121.544 67.2323 121.529 67.1947 121.507L33.8316 98.108C33.7714 98.0628 33.7338 97.9951 33.7413 97.9198L37.3011 57.2715C37.3011 57.1963 37.3538 57.1285 37.4215 57.0984L74.3369 39.8487C74.4047 39.8185 74.4874 39.8261 74.5476 39.8637L107.911 63.2623C107.971 63.3074 108.009 63.3752 108.001 63.4504L104.441 104.099C104.441 104.174 104.389 104.242 104.321 104.272L67.4054 121.522C67.4054 121.522 67.3452 121.544 67.3151 121.544ZM34.1703 97.8371L67.3301 121.093L104.027 103.948L107.565 63.5407L74.4047 40.2852L37.7075 57.4296L34.1703 97.8371Z" fill="white"/>
  <path d="M63.334 123.644C63.2889 123.644 63.2362 123.629 63.1986 123.591L30.0161 95.6997C29.9559 95.6545 29.9333 95.5792 29.9484 95.504L37.4895 52.7559C37.5045 52.6806 37.5572 52.6204 37.625 52.5978L78.3485 37.7414C78.4163 37.7188 78.4991 37.7263 78.5517 37.779L111.734 65.6706C111.794 65.7158 111.817 65.791 111.802 65.8663L104.261 108.614C104.246 108.69 104.193 108.75 104.125 108.772L63.4018 123.629C63.4018 123.629 63.3566 123.644 63.3265 123.644H63.334ZM30.3773 95.4663L63.3792 123.2L103.877 108.426L111.373 65.919L78.3711 38.1854L37.8733 52.9591L30.3773 95.4663Z" fill="white"/>
  <path d="M58.9159 125.503C58.8632 125.503 58.8105 125.48 58.7654 125.443L26.185 92.8096C26.1323 92.7569 26.1097 92.6816 26.1323 92.6064L38.0837 47.9994C38.1063 47.9241 38.159 47.8714 38.2342 47.8488L82.766 35.8824C82.8413 35.8598 82.9165 35.8824 82.9692 35.9351L115.55 68.5681C115.602 68.6208 115.625 68.6961 115.602 68.7713L103.651 113.378C103.628 113.454 103.576 113.506 103.5 113.529L58.9686 125.495C58.9686 125.495 58.9309 125.495 58.9159 125.495V125.503ZM26.5688 92.5989L58.9836 125.059L103.282 113.153L115.173 68.7864L82.7585 36.3264L38.46 48.2327L26.5688 92.5989Z" fill="white"/>
  <path d="M54.0683 127.061C54.0081 127.061 53.9479 127.031 53.9103 126.986L22.4062 89.3778C22.361 89.3176 22.3459 89.2423 22.3685 89.1746L39.1667 43.0097C39.1893 42.9419 39.2495 42.8893 39.3248 42.8742L87.6346 34.3171C87.7099 34.302 87.7852 34.3321 87.8303 34.3923L119.334 72.0001C119.38 72.0603 119.395 72.1356 119.372 72.2033L102.574 118.368C102.551 118.436 102.491 118.489 102.416 118.504L54.106 127.061C54.106 127.061 54.0834 127.061 54.0683 127.061ZM22.7975 89.2047L54.1511 126.624L102.22 118.112L118.936 72.1807L87.5895 34.7611L39.5204 43.2731L22.805 89.2047H22.7975Z" fill="white"/>
  <path d="M48.7856 128.265C48.7179 128.265 48.6502 128.235 48.6125 128.175L18.7114 85.3965C18.6663 85.3363 18.6588 85.2536 18.6964 85.1858L40.7854 37.8242C40.8155 37.7565 40.8833 37.7113 40.9585 37.7038L92.9486 33.1129C93.0239 33.1129 93.0992 33.143 93.1368 33.2032L123.038 75.9814C123.083 76.0416 123.091 76.1244 123.053 76.1922L100.964 123.554C100.934 123.621 100.866 123.667 100.791 123.674L48.8007 128.265H48.7856ZM19.1179 85.2535L48.8835 127.829L100.633 123.26L122.616 76.1169L92.8508 33.5419L41.1015 38.1102L19.1179 85.2535Z" fill="white"/>
  <path d="M43.0733 129.048C42.9981 129.048 42.9303 129.01 42.8927 128.942L15.1667 80.8357C15.129 80.768 15.129 80.6927 15.1667 80.625L42.968 32.4807C43.0056 32.413 43.0733 32.3754 43.1486 32.3754L98.6684 32.3302C98.7437 32.3302 98.8114 32.3678 98.8491 32.4356L126.575 80.5422C126.613 80.61 126.613 80.6852 126.575 80.753L98.7738 128.897C98.7362 128.965 98.6684 129.003 98.5932 129.003L43.0733 129.048ZM15.5881 80.7304L43.1937 128.626L98.4728 128.581L126.146 80.6401L98.5405 32.7441L43.2615 32.7893L15.5881 80.7304Z" fill="white"/>
  <path d="M95.7859 134.451H95.7708L36.9244 129.349C36.8492 129.349 36.7815 129.296 36.7514 129.228L11.8325 75.6729C11.8024 75.6051 11.8099 75.5223 11.8476 75.4621L45.7751 27.0168C45.8203 26.9566 45.888 26.919 45.9633 26.9265L104.81 32.0292C104.885 32.0292 104.953 32.0819 104.983 32.1496L129.902 85.6976C129.932 85.7653 129.924 85.8481 129.886 85.9083L95.959 134.354C95.9213 134.406 95.8536 134.444 95.7859 134.444V134.451ZM37.0825 128.935L95.688 134.015L129.473 85.7653L104.652 32.4356L46.046 27.3555L12.2615 75.6051L37.0825 128.935Z" fill="white"/>
  <path d="M92.3166 139.961C92.3166 139.961 92.2941 139.961 92.279 139.961L30.3921 129.1C30.3168 129.085 30.2566 129.033 30.234 128.965L8.78474 69.9004C8.76216 69.8326 8.76968 69.7499 8.82237 69.6972L49.26 21.4927C49.3051 21.4325 49.3804 21.4099 49.4556 21.4174L111.343 32.2775C111.418 32.2926 111.478 32.3453 111.501 32.413L132.942 91.4776C132.965 91.5454 132.957 91.6282 132.905 91.6808L92.4596 139.878C92.422 139.923 92.3618 139.953 92.3016 139.953L92.3166 139.961ZM30.5802 128.702L92.2338 139.524L132.521 91.5077L111.162 32.6764L49.5083 21.8539L9.22125 69.8703L30.5802 128.702Z" fill="white"/>
  <path d="M88.1161 145.477C88.1161 145.477 88.0785 145.477 88.0635 145.477L23.4822 128.227C23.407 128.205 23.3543 128.152 23.3317 128.077L6.08194 63.4882C6.05937 63.4129 6.08195 63.3376 6.13463 63.285L53.4661 15.9535C53.5188 15.9008 53.5941 15.8782 53.6693 15.9008L118.251 33.1506C118.326 33.1731 118.378 33.2258 118.401 33.3011L135.651 97.8823C135.673 97.9576 135.651 98.0329 135.598 98.0855L88.2667 145.417C88.229 145.455 88.1764 145.477 88.1161 145.477ZM23.708 127.851L88.0559 145.041L135.214 97.8823L118.025 33.5344L53.6768 16.3448L6.51846 63.5032L23.708 127.851Z" fill="white"/>
  <path d="M83.1649 150.941C83.1649 150.941 83.1197 150.941 83.0896 150.926L16.243 126.654C16.1753 126.632 16.1226 126.564 16.1076 126.496L3.81748 56.4511C3.80243 56.3759 3.83253 56.3006 3.89274 56.2555L58.4417 10.4894C58.5019 10.4443 58.5772 10.4292 58.6449 10.4518L125.492 34.7234C125.559 34.7459 125.612 34.8137 125.627 34.8814L137.925 104.927C137.94 105.002 137.91 105.077 137.849 105.122L83.3003 150.896C83.2627 150.926 83.2176 150.949 83.1649 150.949V150.941ZM16.5064 126.308L83.1197 150.497L137.481 104.881L125.228 35.0771L58.6148 10.8883L4.25399 56.5038L16.5064 126.308Z" fill="white"/>
  <path d="M77.4075 156.27C77.4075 156.27 77.3473 156.27 77.3172 156.247L8.72458 124.329C8.65685 124.299 8.61169 124.231 8.60416 124.156L2.07153 48.7898C2.07153 48.7145 2.10164 48.6393 2.16185 48.6016L64.2143 5.14608C64.2745 5.10092 64.3573 5.0934 64.425 5.13103L133.01 37.0491C133.078 37.0792 133.123 37.1469 133.131 37.2222L139.663 112.588C139.663 112.664 139.633 112.739 139.573 112.776L77.5204 156.224C77.5204 156.224 77.4452 156.262 77.4 156.262L77.4075 156.27ZM9.01057 123.998L77.3774 155.818L139.234 112.506L132.717 37.3802L64.3573 5.56001L2.50052 48.8726L9.0181 123.998H9.01057Z" fill="white"/>
  <path d="M70.8068 161.38C70.8068 161.38 70.7316 161.372 70.7015 161.35L0.9724 121.168C0.904665 121.13 0.867035 121.063 0.867035 120.987L0.927243 40.5034C0.927243 40.4282 0.964874 40.3605 1.03261 40.3228L70.8219 0.0282228C70.8896 -0.00940759 70.9649 -0.00940759 71.0326 0.0282228L140.762 40.2175C140.829 40.2551 140.867 40.3228 140.867 40.3981L140.807 120.882C140.807 120.957 140.769 121.025 140.701 121.063L70.9122 161.357C70.9122 161.357 70.8445 161.387 70.8068 161.387V161.38ZM1.28849 120.859L70.8068 160.928L140.385 120.754L140.446 40.5185L70.9272 0.449683L1.3487 40.6239L1.28849 120.859Z" fill="white"/>
</svg>