<svg xmlns="http://www.w3.org/2000/svg" width="211" height="224" viewBox="0 0 211 224" fill="none">
  <path d="M101.521 122.335C101.461 122.335 101.4 122.305 101.363 122.26L94.213 113.755C94.1679 113.695 94.1528 113.62 94.1754 113.552L97.9836 103.113C98.0062 103.046 98.0739 102.993 98.1417 102.978L109.1 101.044C109.175 101.029 109.25 101.059 109.295 101.119L116.445 109.623C116.49 109.684 116.505 109.759 116.483 109.826L112.674 120.265C112.652 120.333 112.584 120.386 112.516 120.401L101.558 122.335C101.558 122.335 101.536 122.335 101.521 122.335ZM94.6119 113.582L101.604 121.906L112.321 120.017L116.046 109.804L109.054 101.48L98.3373 103.369L94.6119 113.582Z" fill="url(#paint0_linear_428_160)"/>
  <path d="M100.324 122.606C100.257 122.606 100.189 122.576 100.151 122.515L93.3629 112.837C93.3177 112.777 93.3102 112.694 93.3478 112.626L98.3527 101.917C98.3828 101.849 98.4505 101.804 98.5258 101.796L110.319 100.765C110.394 100.765 110.47 100.795 110.507 100.855L117.296 110.534C117.341 110.594 117.348 110.677 117.311 110.745L112.306 121.454C112.276 121.522 112.208 121.567 112.133 121.575L100.34 122.606H100.324ZM93.7768 112.701L100.422 122.184L111.975 121.176L116.874 110.684L110.229 101.202L98.6763 102.21L93.7768 112.701Z" fill="url(#paint1_linear_428_160)"/>
  <path d="M111.629 122.786H99.0375C98.9622 122.786 98.8945 122.749 98.8568 122.681L92.5575 111.798C92.5199 111.731 92.5199 111.655 92.5575 111.588L98.8568 100.705C98.8945 100.637 98.9622 100.6 99.0375 100.6H111.629C111.704 100.6 111.772 100.637 111.809 100.705L118.109 111.588C118.146 111.655 118.146 111.731 118.109 111.798L111.809 122.681C111.772 122.749 111.704 122.786 111.629 122.786ZM99.1579 122.365H111.508L117.68 111.685L111.508 101.006H99.1579L92.9865 111.685L99.1579 122.365Z" fill="url(#paint2_linear_428_160)"/>
  <path d="M110.996 124.021H110.981L97.6371 122.854C97.5619 122.854 97.4941 122.801 97.464 122.734L91.7969 110.617C91.7668 110.549 91.7743 110.466 91.812 110.406L99.4961 99.4556C99.5412 99.3954 99.6165 99.3653 99.6842 99.3653L113.028 100.532C113.103 100.532 113.171 100.585 113.201 100.652L118.868 112.769C118.898 112.837 118.891 112.92 118.853 112.98L111.169 123.93C111.131 123.983 111.064 124.021 110.996 124.021ZM97.7876 122.44L110.891 123.584L118.432 112.829L112.87 100.931L99.767 99.7868L92.2259 110.542L97.7876 122.44Z" fill="url(#paint3_linear_428_160)"/>
  <path d="M110.206 125.27C110.206 125.27 110.183 125.27 110.168 125.27L96.1319 122.794C96.0566 122.779 95.9964 122.726 95.9739 122.659L91.097 109.285C91.0744 109.217 91.0819 109.134 91.1346 109.082L100.294 98.1838C100.339 98.1236 100.414 98.101 100.49 98.1086L114.526 100.585C114.601 100.6 114.661 100.652 114.684 100.72L119.561 114.094C119.583 114.162 119.576 114.244 119.523 114.297L110.364 125.195C110.326 125.24 110.266 125.27 110.206 125.27ZM96.3276 122.403L110.123 124.834L119.124 114.124L114.33 100.984L100.535 98.5526L91.5335 109.262L96.3276 122.403Z" fill="url(#paint4_linear_428_160)"/>
  <path d="M109.258 126.519C109.258 126.519 109.22 126.519 109.205 126.519L94.5595 122.598C94.4843 122.576 94.4316 122.523 94.409 122.448L90.4804 107.825C90.4578 107.749 90.4804 107.674 90.5331 107.621L101.25 96.9268C101.303 96.8741 101.378 96.8515 101.453 96.8741L116.099 100.795C116.174 100.818 116.227 100.87 116.25 100.946L120.178 115.569C120.201 115.644 120.178 115.719 120.126 115.772L109.408 126.467C109.371 126.504 109.318 126.527 109.258 126.527V126.519ZM94.7853 122.214L109.198 126.075L119.742 115.546L115.873 101.156L101.461 97.2955L90.9169 107.825L94.7853 122.214Z" fill="url(#paint5_linear_428_160)"/>
  <path d="M108.136 127.761C108.136 127.761 108.091 127.761 108.061 127.746L92.9036 122.23C92.8358 122.207 92.7831 122.139 92.7681 122.072L89.9609 106.214C89.9458 106.139 89.9759 106.064 90.0361 106.018L102.386 95.6776C102.447 95.6324 102.522 95.6174 102.59 95.64L117.747 101.157C117.815 101.179 117.868 101.247 117.883 101.315L120.69 117.172C120.705 117.247 120.675 117.323 120.615 117.368L108.264 127.709C108.227 127.739 108.181 127.761 108.129 127.761H108.136ZM93.167 121.876L108.099 127.31L120.261 117.119L117.491 101.495L102.56 96.0614L90.3974 106.252L93.167 121.876Z" fill="url(#paint6_linear_428_160)"/>
  <path d="M106.834 128.965C106.834 128.965 106.774 128.965 106.744 128.943L91.195 121.688C91.1272 121.658 91.0821 121.59 91.0746 121.515L89.5693 104.445C89.5693 104.37 89.5994 104.295 89.6597 104.257L103.703 94.4433C103.764 94.3982 103.846 94.3906 103.914 94.4283L119.463 101.683C119.531 101.714 119.576 101.781 119.583 101.857L121.089 118.926C121.089 119.001 121.058 119.076 120.998 119.114L106.955 128.928C106.955 128.928 106.879 128.965 106.834 128.965ZM91.481 121.364L106.812 128.514L120.66 118.835L119.177 102.007L103.846 94.8573L89.9983 104.536L91.481 121.364Z" fill="url(#paint7_linear_428_160)"/>
  <path d="M105.344 130.124C105.344 130.124 105.269 130.117 105.239 130.094L89.4339 120.965C89.3662 120.928 89.3285 120.86 89.3285 120.785L89.3135 102.556C89.3135 102.481 89.3511 102.413 89.4188 102.376L105.216 93.2768C105.284 93.2391 105.359 93.2391 105.427 93.2768L121.232 102.406C121.299 102.444 121.337 102.511 121.337 102.587L121.352 120.815C121.352 120.89 121.314 120.958 121.247 120.995L105.449 130.094C105.449 130.094 105.382 130.124 105.344 130.124ZM89.7425 120.672L105.344 129.68L120.931 120.702L120.915 102.714L105.314 93.7057L89.7274 102.684L89.7425 120.672Z" fill="url(#paint8_linear_428_160)"/>
  <path d="M103.658 131.216C103.613 131.216 103.575 131.201 103.538 131.178L87.6274 120.039C87.5672 119.994 87.5296 119.927 87.5371 119.851L89.2154 100.532C89.2154 100.457 89.2681 100.389 89.3358 100.359L106.917 92.1779C106.984 92.1478 107.067 92.1553 107.127 92.1929L123.038 103.332C123.098 103.377 123.135 103.444 123.128 103.52L121.45 122.839C121.45 122.914 121.397 122.982 121.329 123.012L103.748 131.193C103.748 131.193 103.688 131.216 103.658 131.216ZM87.9661 119.768L103.673 130.764L121.036 122.681L122.691 103.602L106.984 92.6069L89.6218 100.69L87.9661 119.768Z" fill="url(#paint9_linear_428_160)"/>
  <path d="M101.761 132.217C101.716 132.217 101.663 132.202 101.626 132.164L85.7983 118.888C85.7381 118.843 85.7156 118.768 85.7231 118.692L89.2904 98.3719C89.3055 98.2967 89.3582 98.2365 89.4259 98.2139L108.821 91.1695C108.888 91.1469 108.971 91.1544 109.024 91.2071L124.851 104.483C124.911 104.528 124.934 104.604 124.926 104.679L121.359 124.999C121.344 125.074 121.291 125.135 121.224 125.157L101.829 132.202C101.829 132.202 101.784 132.217 101.761 132.217ZM86.1671 118.647L101.806 131.773L120.968 124.811L124.49 104.731L108.851 91.606L89.6893 98.5676L86.1671 118.647Z" fill="url(#paint10_linear_428_160)"/>
  <path d="M99.6693 133.105C99.6166 133.105 99.5639 133.082 99.5188 133.044L83.9774 117.503C83.9247 117.45 83.9022 117.375 83.9247 117.3L89.5919 96.099C89.6144 96.0237 89.6671 95.971 89.7424 95.9484L110.943 90.2813C111.019 90.2587 111.094 90.2813 111.147 90.334L126.688 105.875C126.741 105.928 126.763 106.003 126.741 106.079L121.073 127.279C121.051 127.355 120.998 127.407 120.923 127.43L99.722 133.097C99.722 133.097 99.6843 133.097 99.6693 133.097V133.105ZM84.3612 117.292L99.7295 132.661L120.697 127.061L126.297 106.094L110.928 90.7253L89.9606 96.3247L84.3612 117.292Z" fill="url(#paint11_linear_428_160)"/>
  <path d="M97.3596 133.842C97.2994 133.842 97.2392 133.812 97.2016 133.767L82.172 115.855C82.1269 115.795 82.1118 115.719 82.1344 115.652L90.1045 93.7057C90.1271 93.638 90.1948 93.5853 90.2626 93.5702L113.262 89.5362C113.337 89.5212 113.413 89.5513 113.458 89.6115L128.487 107.524C128.533 107.584 128.548 107.659 128.525 107.727L120.555 129.673C120.532 129.741 120.465 129.793 120.397 129.808L97.3973 133.842C97.3973 133.842 97.3747 133.842 97.3596 133.842ZM82.5709 115.682L97.4424 133.406L120.201 129.409L128.089 107.689L113.217 89.9652L90.4582 93.9616L82.5709 115.682Z" fill="url(#paint12_linear_428_160)"/>
  <path d="M94.8533 134.414C94.7855 134.414 94.7178 134.384 94.6802 134.324L80.4107 113.951C80.3656 113.891 80.358 113.808 80.3957 113.74L90.872 91.2221C90.9021 91.1544 90.9698 91.1092 91.0451 91.1017L115.791 88.9568C115.866 88.9568 115.934 88.9869 115.979 89.0471L130.241 109.42C130.286 109.48 130.294 109.563 130.256 109.631L119.78 132.149C119.75 132.217 119.682 132.262 119.607 132.269L94.8608 134.414H94.8457H94.8533ZM80.8247 113.815L94.9511 133.993L119.456 131.87L129.834 109.571L115.708 89.3933L91.2031 91.5157L80.8247 113.815Z" fill="url(#paint13_linear_428_160)"/>
  <path d="M118.56 134.813L92.136 134.791C92.0607 134.791 91.993 134.753 91.9553 134.685L78.7245 111.768C78.6869 111.701 78.6869 111.625 78.7245 111.558L91.9177 88.6632C91.9553 88.5955 92.0231 88.5579 92.0983 88.5579L118.522 88.5804C118.598 88.5804 118.665 88.6181 118.703 88.6858L131.934 111.603C131.971 111.67 131.971 111.746 131.934 111.813L118.741 134.708C118.703 134.775 118.635 134.813 118.56 134.813ZM92.2564 134.377L118.44 134.399L131.512 111.716L118.402 89.0094L92.2188 88.9868L79.146 111.67L92.2564 134.377Z" fill="url(#paint14_linear_428_160)"/>
  <path d="M117.228 137.41H117.213L89.2086 134.941C89.1333 134.941 89.0656 134.889 89.0355 134.821L77.1367 109.307C77.1066 109.24 77.1142 109.157 77.1518 109.097L93.2576 86.0593C93.3027 85.9991 93.378 85.9615 93.4457 85.969L121.45 88.4376C121.526 88.4376 121.593 88.4903 121.623 88.558L133.522 114.071C133.552 114.139 133.545 114.222 133.507 114.282L117.401 137.319C117.364 137.372 117.296 137.41 117.228 137.41ZM89.3666 134.527L117.13 136.981L133.101 114.139L121.307 88.844L93.5436 86.3905L77.5733 109.232L89.3666 134.527Z" fill="url(#paint15_linear_428_160)"/>
  <path d="M115.572 140.036C115.572 140.036 115.549 140.036 115.534 140.036L86.0849 134.821C86.0097 134.806 85.9494 134.753 85.9269 134.685L75.6839 106.545C75.6613 106.477 75.6688 106.395 75.7215 106.342L94.928 83.4175C94.9732 83.3573 95.0485 83.3347 95.1237 83.3422L124.573 88.5578C124.649 88.5728 124.709 88.6255 124.731 88.6933L134.974 116.833C134.997 116.901 134.989 116.984 134.937 117.036L115.73 139.961C115.692 140.006 115.632 140.036 115.572 140.036ZM86.2806 134.429L115.489 139.6L134.538 116.863L124.378 88.9491L95.1689 83.7787L76.1204 106.515L86.2806 134.429Z" fill="url(#paint16_linear_428_160)"/>
  <path d="M113.578 142.67C113.578 142.67 113.54 142.67 113.525 142.67L82.8038 134.414C82.7286 134.391 82.6759 134.339 82.6533 134.263L74.4047 103.489C74.3821 103.414 74.4047 103.339 74.4574 103.286L96.9378 80.7757C96.9905 80.723 97.0657 80.7004 97.141 80.723L127.862 88.9791C127.938 89.0017 127.99 89.0544 128.013 89.1296L136.262 119.904C136.284 119.979 136.262 120.054 136.209 120.107L113.728 142.617C113.691 142.655 113.638 142.678 113.578 142.678V142.67ZM83.0221 134.03L113.51 142.226L135.817 119.881L127.637 89.3479L97.1485 81.152L74.8412 103.497L83.0221 134.03Z" fill="url(#paint17_linear_428_160)"/>
  <path d="M111.214 145.274C111.214 145.274 111.168 145.274 111.138 145.259L79.3407 133.662C79.2729 133.639 79.2202 133.571 79.2052 133.504L73.3198 100.125C73.3047 100.05 73.3348 99.975 73.3875 99.9298L99.2998 78.1569C99.36 78.1117 99.4353 78.0967 99.503 78.1193L131.301 89.7169C131.368 89.7395 131.421 89.8073 131.436 89.875L137.322 123.253C137.337 123.328 137.306 123.404 137.254 123.449L111.342 145.222C111.304 145.252 111.259 145.274 111.206 145.274H111.214ZM79.6041 133.308L111.168 144.823L136.893 123.2L131.052 90.0631L99.4879 78.5482L73.7638 100.171L79.6041 133.308Z" fill="url(#paint18_linear_428_160)"/>
  <path d="M108.475 147.811C108.475 147.811 108.415 147.811 108.385 147.788L75.7668 132.548C75.6991 132.518 75.6539 132.45 75.6464 132.375L72.5005 96.4603C72.5005 96.3851 72.5306 96.3098 72.5908 96.2722L102.07 75.598C102.131 75.5529 102.213 75.5454 102.281 75.583L134.899 90.8233C134.967 90.8534 135.012 90.9211 135.02 90.9964L138.165 126.911C138.165 126.986 138.135 127.061 138.075 127.099L108.596 147.773C108.596 147.773 108.52 147.811 108.475 147.811ZM76.0528 132.224L108.453 147.367L137.729 126.828L134.606 91.1544L102.206 76.012L72.9295 96.5506L76.0528 132.224Z" fill="url(#paint19_linear_428_160)"/>
  <path d="M105.329 150.249C105.329 150.249 105.254 150.242 105.224 150.219L72.0639 131.042C71.9961 131.005 71.9585 130.937 71.9585 130.862V92.509C71.9585 92.4337 71.9961 92.366 72.0639 92.3284L105.224 73.1519C105.291 73.1143 105.367 73.1143 105.434 73.1519L138.587 92.3284C138.655 92.366 138.692 92.4337 138.692 92.509V130.862C138.692 130.937 138.655 131.005 138.587 131.042L105.434 150.219C105.434 150.219 105.367 150.249 105.329 150.249ZM72.3875 130.741L105.337 149.797L138.286 130.741V92.6294L105.337 73.5734L72.3875 92.6294V130.741Z" fill="url(#paint20_linear_428_160)"/>
  <path d="M101.777 152.544C101.732 152.544 101.695 152.529 101.657 152.507L68.2939 129.108C68.2337 129.063 68.1961 128.995 68.2036 128.92L71.7634 88.2718C71.7634 88.1966 71.8161 88.1288 71.8838 88.0987L108.799 70.849C108.867 70.8189 108.95 70.8264 109.01 70.864L142.373 94.2626C142.433 94.3077 142.471 94.3755 142.463 94.4507L138.904 135.099C138.904 135.174 138.851 135.242 138.783 135.272L101.868 152.522C101.868 152.522 101.808 152.544 101.777 152.544ZM68.6326 128.837L101.792 152.093L138.49 134.949L142.027 94.541L108.867 71.2855L72.1698 88.4299L68.6326 128.837Z" fill="url(#paint21_linear_428_160)"/>
  <path d="M97.7959 154.644C97.7508 154.644 97.6981 154.629 97.6605 154.592L64.478 126.7C64.4178 126.655 64.3952 126.579 64.4103 126.504L71.9514 83.7561C71.9665 83.6809 72.0191 83.6207 72.0869 83.5981L112.81 68.7416C112.878 68.719 112.961 68.7266 113.014 68.7792L146.196 96.6709C146.256 96.716 146.279 96.7913 146.264 96.8665L138.723 139.615C138.708 139.69 138.655 139.75 138.587 139.773L97.8637 154.629C97.8637 154.629 97.8185 154.644 97.7884 154.644H97.7959ZM64.8393 126.467L97.8411 154.2L138.339 139.426L145.835 96.9192L112.833 69.1857L72.3352 83.9593L64.8393 126.467Z" fill="url(#paint22_linear_428_160)"/>
  <path d="M93.3777 156.503C93.3251 156.503 93.2724 156.481 93.2272 156.443L60.6468 123.81C60.5942 123.757 60.5716 123.682 60.5942 123.607L72.5456 78.9996C72.5682 78.9243 72.6208 78.8717 72.6961 78.8491L117.228 66.8826C117.303 66.86 117.378 66.8826 117.431 66.9353L150.011 99.5684C150.064 99.621 150.087 99.6963 150.064 99.7716L138.113 144.379C138.09 144.454 138.037 144.507 137.962 144.529L93.4304 156.496C93.4304 156.496 93.3928 156.496 93.3777 156.496V156.503ZM61.0307 123.599L93.4455 156.059L137.744 144.153L149.635 99.7866L117.22 67.3267L72.9219 79.2329L61.0307 123.599Z" fill="url(#paint23_linear_428_160)"/>
  <path d="M88.5305 158.061C88.4703 158.061 88.4101 158.031 88.3725 157.986L56.8683 120.378C56.8232 120.318 56.8081 120.243 56.8307 120.175L73.6289 74.0099C73.6515 73.9422 73.7117 73.8895 73.7869 73.8745L122.097 65.3173C122.172 65.3023 122.247 65.3324 122.292 65.3926L153.797 103C153.842 103.061 153.857 103.136 153.834 103.204L137.036 149.368C137.013 149.436 136.953 149.489 136.878 149.504L88.5681 158.061C88.5681 158.061 88.5456 158.061 88.5305 158.061ZM57.2597 120.205L88.6133 157.625L136.682 149.113L153.398 103.181L122.052 65.7614L73.9826 74.2733L57.2672 120.205H57.2597Z" fill="url(#paint24_linear_428_160)"/>
  <path d="M83.2476 159.265C83.1799 159.265 83.1121 159.235 83.0745 159.175L53.1734 116.397C53.1283 116.337 53.1207 116.254 53.1584 116.186L75.2474 68.8245C75.2775 68.7567 75.3452 68.7116 75.4205 68.7041L127.411 64.1132C127.486 64.1132 127.561 64.1433 127.599 64.2035L157.5 106.982C157.545 107.042 157.553 107.125 157.515 107.192L135.426 154.554C135.396 154.622 135.328 154.667 135.253 154.674L83.2627 159.265H83.2476ZM53.5798 116.254L83.3454 158.829L135.095 154.26L157.078 107.117L127.313 64.5421L75.5635 69.1105L53.5798 116.254Z" fill="url(#paint25_linear_428_160)"/>
  <path d="M77.5355 160.048C77.4602 160.048 77.3925 160.01 77.3549 159.943L49.6288 111.836C49.5912 111.768 49.5912 111.693 49.6288 111.625L77.4301 63.481C77.4678 63.4133 77.5355 63.3757 77.6107 63.3757L133.131 63.3305C133.206 63.3305 133.274 63.3681 133.311 63.4359L161.037 111.543C161.075 111.61 161.075 111.686 161.037 111.753L133.236 159.898C133.198 159.965 133.131 160.003 133.055 160.003L77.5355 160.048ZM50.0503 111.731L77.6559 159.627L132.935 159.581L160.608 111.64L133.003 63.7444L77.7236 63.7896L50.0503 111.731Z" fill="url(#paint26_linear_428_160)"/>
  <path d="M130.248 165.452H130.233L71.3864 160.349C71.3111 160.349 71.2434 160.296 71.2133 160.229L46.2945 106.673C46.2644 106.605 46.2719 106.523 46.3095 106.462L80.237 58.0171C80.2822 57.9568 80.3499 57.9192 80.4252 57.9267L139.272 63.0294C139.347 63.0294 139.415 63.0821 139.445 63.1498L164.363 116.698C164.394 116.766 164.386 116.848 164.348 116.909L130.421 165.354C130.383 165.407 130.316 165.444 130.248 165.444V165.452ZM71.5444 159.935L130.15 165.015L163.934 116.766L139.114 63.4358L80.508 58.3557L46.7234 106.605L71.5444 159.935Z" fill="url(#paint27_linear_428_160)"/>
  <path d="M126.779 170.961C126.779 170.961 126.756 170.961 126.741 170.961L64.8542 160.101C64.779 160.086 64.7188 160.033 64.6962 159.965L43.2469 100.901C43.2243 100.833 43.2318 100.75 43.2845 100.697L83.7221 52.4929C83.7672 52.4327 83.8425 52.4101 83.9178 52.4177L145.805 63.2778C145.88 63.2928 145.94 63.3455 145.963 63.4132L167.404 122.478C167.427 122.546 167.42 122.628 167.367 122.681L126.922 170.878C126.884 170.923 126.824 170.953 126.764 170.953L126.779 170.961ZM65.0424 159.702L126.696 170.524L166.983 122.508L145.624 63.6767L83.9704 52.8542L43.6834 100.871L65.0424 159.702Z" fill="url(#paint28_linear_428_160)"/>
  <path d="M122.578 176.477C122.578 176.477 122.54 176.477 122.525 176.477L57.9442 159.228C57.8689 159.205 57.8162 159.152 57.7936 159.077L40.5439 94.4884C40.5213 94.4131 40.5439 94.3378 40.5966 94.2851L87.928 46.9537C87.9807 46.901 88.056 46.8784 88.1312 46.901L152.712 64.1508C152.788 64.1733 152.84 64.226 152.863 64.3013L170.113 128.883C170.135 128.958 170.113 129.033 170.06 129.086L122.729 176.417C122.691 176.455 122.638 176.477 122.578 176.477ZM58.1699 158.851L122.518 176.041L169.676 128.883L152.487 64.5346L88.1388 47.345L40.9804 94.5034L58.1699 158.851Z" fill="url(#paint29_linear_428_160)"/>
  <path d="M117.627 181.941C117.627 181.941 117.582 181.941 117.552 181.926L50.7053 157.655C50.6375 157.632 50.5848 157.564 50.5698 157.497L38.2797 87.4514C38.2647 87.3762 38.2948 87.3009 38.355 87.2558L92.904 41.4897C92.9642 41.4446 93.0394 41.4295 93.1072 41.4521L159.954 65.7237C160.021 65.7463 160.074 65.814 160.089 65.8817L172.387 135.927C172.402 136.002 172.372 136.077 172.312 136.123L117.763 181.896C117.725 181.926 117.68 181.949 117.627 181.949V181.941ZM50.9687 157.308L117.582 181.497L171.943 135.882L159.69 66.0774L93.0771 41.8886L38.7162 87.5041L50.9687 157.308Z" fill="url(#paint30_linear_428_160)"/>
  <path d="M111.87 187.27C111.87 187.27 111.809 187.27 111.779 187.247L43.1867 155.329C43.119 155.299 43.0738 155.231 43.0663 155.156L36.5337 79.79C36.5337 79.7148 36.5638 79.6395 36.624 79.6019L98.6765 36.1463C98.7367 36.1012 98.8195 36.0936 98.8872 36.1313L167.472 68.0493C167.54 68.0795 167.585 68.1472 167.593 68.2224L174.125 143.589C174.125 143.664 174.095 143.739 174.035 143.777L111.983 187.225C111.983 187.225 111.907 187.262 111.862 187.262L111.87 187.27ZM43.4727 154.998L111.84 186.818L173.696 143.506L167.179 68.3805L98.8195 36.5603L36.9627 79.8728L43.4803 154.998H43.4727Z" fill="url(#paint31_linear_428_160)"/>
  <path d="M105.269 192.38C105.269 192.38 105.194 192.372 105.164 192.35L35.4345 152.168C35.3667 152.131 35.3291 152.063 35.3291 151.988L35.3893 71.5037C35.3893 71.4284 35.4269 71.3607 35.4947 71.3231L105.284 31.0285C105.352 30.9908 105.427 30.9908 105.495 31.0285L175.224 71.2177C175.291 71.2553 175.329 71.3231 175.329 71.3983L175.269 151.882C175.269 151.957 175.231 152.025 175.164 152.063L105.374 192.357C105.374 192.357 105.307 192.387 105.269 192.387V192.38ZM35.7506 151.86L105.269 191.928L174.847 151.754L174.908 71.5187L105.389 31.4499L35.8108 71.6241L35.7506 151.86Z" fill="url(#paint32_linear_428_160)"/>
  <defs>
    <linearGradient id="paint0_linear_428_160" x1="95.1879" y1="114.589" x2="107.358" y2="101.098" gradientUnits="userSpaceOnUse">
      <stop offset="0.212269" stop-color="#FACB7C"/>
      <stop offset="1" stop-color="#D87CEE"/>
    </linearGradient>
    <linearGradient id="paint1_linear_428_160" x1="94.4237" y1="114.661" x2="106.831" y2="100.239" gradientUnits="userSpaceOnUse">
      <stop offset="0.212269" stop-color="#FACB7C"/>
      <stop offset="1" stop-color="#D87CEE"/>
    </linearGradient>
    <linearGradient id="paint2_linear_428_160" x1="93.7024" y1="114.716" x2="106.201" y2="99.4641" gradientUnits="userSpaceOnUse">
      <stop offset="0.212269" stop-color="#FACB7C"/>
      <stop offset="1" stop-color="#D87CEE"/>
    </linearGradient>
    <linearGradient id="paint3_linear_428_160" x1="93.0202" y1="115.052" x2="107.027" y2="98.7704" gradientUnits="userSpaceOnUse">
      <stop offset="0.212269" stop-color="#FACB7C"/>
      <stop offset="1" stop-color="#D87CEE"/>
    </linearGradient>
    <linearGradient id="paint4_linear_428_160" x1="92.39" y1="115.39" x2="107.913" y2="98.177" gradientUnits="userSpaceOnUse">
      <stop offset="0.212269" stop-color="#FACB7C"/>
      <stop offset="1" stop-color="#D87CEE"/>
    </linearGradient>
    <linearGradient id="paint5_linear_428_160" x1="91.833" y1="115.737" x2="108.847" y2="97.717" gradientUnits="userSpaceOnUse">
      <stop offset="0.212269" stop-color="#FACB7C"/>
      <stop offset="1" stop-color="#D87CEE"/>
    </linearGradient>
    <linearGradient id="paint6_linear_428_160" x1="91.3651" y1="116.073" x2="109.825" y2="97.4039" gradientUnits="userSpaceOnUse">
      <stop offset="0.212269" stop-color="#FACB7C"/>
      <stop offset="1" stop-color="#D87CEE"/>
    </linearGradient>
    <linearGradient id="paint7_linear_428_160" x1="91.0133" y1="116.394" x2="110.857" y2="97.2605" gradientUnits="userSpaceOnUse">
      <stop offset="0.212269" stop-color="#FACB7C"/>
      <stop offset="1" stop-color="#D87CEE"/>
    </linearGradient>
    <linearGradient id="paint8_linear_428_160" x1="90.7812" y1="116.711" x2="111.892" y2="97.3194" gradientUnits="userSpaceOnUse">
      <stop offset="0.212269" stop-color="#FACB7C"/>
      <stop offset="1" stop-color="#D87CEE"/>
    </linearGradient>
    <linearGradient id="paint9_linear_428_160" x1="89.1667" y1="117.009" x2="111.591" y2="95.4034" gradientUnits="userSpaceOnUse">
      <stop offset="0.212269" stop-color="#FACB7C"/>
      <stop offset="1" stop-color="#D87CEE"/>
    </linearGradient>
    <linearGradient id="paint10_linear_428_160" x1="87.5177" y1="117.281" x2="111.107" y2="93.4671" gradientUnits="userSpaceOnUse">
      <stop offset="0.212269" stop-color="#FACB7C"/>
      <stop offset="1" stop-color="#D87CEE"/>
    </linearGradient>
    <linearGradient id="paint11_linear_428_160" x1="85.8782" y1="117.525" x2="110.449" y2="91.5462" gradientUnits="userSpaceOnUse">
      <stop offset="0.212269" stop-color="#FACB7C"/>
      <stop offset="1" stop-color="#D87CEE"/>
    </linearGradient>
    <linearGradient id="paint12_linear_428_160" x1="84.2502" y1="117.725" x2="109.576" y2="89.6785" gradientUnits="userSpaceOnUse">
      <stop offset="0.212269" stop-color="#FACB7C"/>
      <stop offset="1" stop-color="#D87CEE"/>
    </linearGradient>
    <linearGradient id="paint13_linear_428_160" x1="82.6579" y1="117.879" x2="108.488" y2="87.8966" gradientUnits="userSpaceOnUse">
      <stop offset="0.212269" stop-color="#FACB7C"/>
      <stop offset="1" stop-color="#D87CEE"/>
    </linearGradient>
    <linearGradient id="paint14_linear_428_160" x1="81.1364" y1="117.988" x2="107.206" y2="86.2486" gradientUnits="userSpaceOnUse">
      <stop offset="0.212269" stop-color="#FACB7C"/>
      <stop offset="1" stop-color="#D87CEE"/>
    </linearGradient>
    <linearGradient id="paint15_linear_428_160" x1="79.7029" y1="118.698" x2="108.937" y2="84.7971" gradientUnits="userSpaceOnUse">
      <stop offset="0.212269" stop-color="#FACB7C"/>
      <stop offset="1" stop-color="#D87CEE"/>
    </linearGradient>
    <linearGradient id="paint16_linear_428_160" x1="78.3891" y1="119.413" x2="110.798" y2="83.5657" gradientUnits="userSpaceOnUse">
      <stop offset="0.212269" stop-color="#FACB7C"/>
      <stop offset="1" stop-color="#D87CEE"/>
    </linearGradient>
    <linearGradient id="paint17_linear_428_160" x1="77.2305" y1="120.139" x2="112.779" y2="82.6088" gradientUnits="userSpaceOnUse">
      <stop offset="0.212269" stop-color="#FACB7C"/>
      <stop offset="1" stop-color="#D87CEE"/>
    </linearGradient>
    <linearGradient id="paint18_linear_428_160" x1="76.2483" y1="120.843" x2="114.837" y2="81.9622" gradientUnits="userSpaceOnUse">
      <stop offset="0.212269" stop-color="#FACB7C"/>
      <stop offset="1" stop-color="#D87CEE"/>
    </linearGradient>
    <linearGradient id="paint19_linear_428_160" x1="75.5087" y1="121.529" x2="116.987" y2="81.6733" gradientUnits="userSpaceOnUse">
      <stop offset="0.212269" stop-color="#FACB7C"/>
      <stop offset="1" stop-color="#D87CEE"/>
    </linearGradient>
    <linearGradient id="paint20_linear_428_160" x1="75.0156" y1="122.195" x2="119.152" y2="81.8182" gradientUnits="userSpaceOnUse">
      <stop offset="0.212269" stop-color="#FACB7C"/>
      <stop offset="1" stop-color="#D87CEE"/>
    </linearGradient>
    <linearGradient id="paint21_linear_428_160" x1="71.6046" y1="122.821" x2="118.515" y2="77.7475" gradientUnits="userSpaceOnUse">
      <stop offset="0.212269" stop-color="#FACB7C"/>
      <stop offset="1" stop-color="#D87CEE"/>
    </linearGradient>
    <linearGradient id="paint22_linear_428_160" x1="68.156" y1="123.393" x2="117.516" y2="73.6675" gradientUnits="userSpaceOnUse">
      <stop offset="0.212269" stop-color="#FACB7C"/>
      <stop offset="1" stop-color="#D87CEE"/>
    </linearGradient>
    <linearGradient id="paint23_linear_428_160" x1="64.685" y1="123.901" x2="116.105" y2="69.6217" gradientUnits="userSpaceOnUse">
      <stop offset="0.212269" stop-color="#FACB7C"/>
      <stop offset="1" stop-color="#D87CEE"/>
    </linearGradient>
    <linearGradient id="paint24_linear_428_160" x1="61.2651" y1="124.324" x2="114.283" y2="65.6857" gradientUnits="userSpaceOnUse">
      <stop offset="0.212269" stop-color="#FACB7C"/>
      <stop offset="1" stop-color="#D87CEE"/>
    </linearGradient>
    <linearGradient id="paint25_linear_428_160" x1="57.9172" y1="124.654" x2="111.989" y2="61.9269" gradientUnits="userSpaceOnUse">
      <stop offset="0.212269" stop-color="#FACB7C"/>
      <stop offset="1" stop-color="#D87CEE"/>
    </linearGradient>
    <linearGradient id="paint26_linear_428_160" x1="54.7069" y1="124.867" x2="109.208" y2="58.4595" gradientUnits="userSpaceOnUse">
      <stop offset="0.212269" stop-color="#FACB7C"/>
      <stop offset="1" stop-color="#D87CEE"/>
    </linearGradient>
    <linearGradient id="paint27_linear_428_160" x1="51.6864" y1="126.339" x2="112.78" y2="55.3915" gradientUnits="userSpaceOnUse">
      <stop offset="0.212269" stop-color="#FACB7C"/>
      <stop offset="1" stop-color="#D87CEE"/>
    </linearGradient>
    <linearGradient id="paint28_linear_428_160" x1="48.9237" y1="127.84" x2="116.679" y2="52.7992" gradientUnits="userSpaceOnUse">
      <stop offset="0.212269" stop-color="#FACB7C"/>
      <stop offset="1" stop-color="#D87CEE"/>
    </linearGradient>
    <linearGradient id="paint29_linear_428_160" x1="46.4716" y1="129.341" x2="120.808" y2="50.7469" gradientUnits="userSpaceOnUse">
      <stop offset="0.212269" stop-color="#FACB7C"/>
      <stop offset="1" stop-color="#D87CEE"/>
    </linearGradient>
    <linearGradient id="paint30_linear_428_160" x1="44.4198" y1="130.839" x2="125.144" y2="49.3761" gradientUnits="userSpaceOnUse">
      <stop offset="0.212269" stop-color="#FACB7C"/>
      <stop offset="1" stop-color="#D87CEE"/>
    </linearGradient>
    <linearGradient id="paint31_linear_428_160" x1="42.8369" y1="132.285" x2="129.622" y2="48.7674" gradientUnits="userSpaceOnUse">
      <stop offset="0.212269" stop-color="#FACB7C"/>
      <stop offset="1" stop-color="#D87CEE"/>
    </linearGradient>
    <linearGradient id="paint32_linear_428_160" x1="41.7426" y1="133.683" x2="134.121" y2="48.9584" gradientUnits="userSpaceOnUse">
      <stop offset="0.212269" stop-color="#FACB7C"/>
      <stop offset="1" stop-color="#D87CEE"/>
    </linearGradient>
  </defs>
</svg>